G04 #@! TF.GenerationSoftware,KiCad,Pcbnew,8.0.9-8.0.9-0~ubuntu24.04.1*
G04 #@! TF.CreationDate,2025-06-16T01:12:59+00:00*
G04 #@! TF.ProjectId,EP91Starlet,45503931-5374-4617-926c-65742e6b6963,rev?*
G04 #@! TF.SameCoordinates,Original*
G04 #@! TF.FileFunction,Soldermask,Bot*
G04 #@! TF.FilePolarity,Negative*
%FSLAX46Y46*%
G04 Gerber Fmt 4.6, Leading zero omitted, Abs format (unit mm)*
G04 Created by KiCad (PCBNEW 8.0.9-8.0.9-0~ubuntu24.04.1) date 2025-06-16 01:12:59*
%MOMM*%
%LPD*%
G01*
G04 APERTURE LIST*
%ADD10C,0.600000*%
%ADD11O,1.800000X2.000000*%
%ADD12C,1.500000*%
G04 APERTURE END LIST*
D10*
G04 #@! TO.C,M3*
X56526000Y33191638D03*
X56526000Y32241638D03*
X56526000Y31291640D03*
X47826000Y32291638D03*
X47826000Y33191638D03*
G04 #@! TD*
D11*
G04 #@! TO.C,U1*
X5976000Y80601641D03*
X8976000Y80601641D03*
X11976000Y80601641D03*
X14976000Y80601641D03*
X17976000Y80601641D03*
X20976000Y80601641D03*
X23976000Y80601641D03*
X26976000Y80601641D03*
X34976000Y80601641D03*
X37976000Y80601641D03*
X40976000Y80601641D03*
X43976000Y80601641D03*
X46976000Y80601641D03*
X49976000Y80601641D03*
X52976000Y80601641D03*
X55976000Y80601641D03*
X58976000Y80601641D03*
X61976000Y80601641D03*
X64976000Y80601641D03*
X67976000Y80601641D03*
X70976000Y80601641D03*
X70976000Y85101641D03*
X67976000Y85101641D03*
X64976000Y85101641D03*
X61976000Y85101641D03*
X58976000Y85101641D03*
X55976000Y85101641D03*
X52976000Y85101641D03*
X49976000Y85101641D03*
X46976000Y85101641D03*
X43976000Y85101641D03*
X40976000Y85101641D03*
X37976000Y85101641D03*
X34976000Y85101641D03*
X26976000Y85101641D03*
X23976000Y85101641D03*
X20976000Y85101641D03*
X17976000Y85101641D03*
X14976000Y85101641D03*
X11976000Y85101641D03*
X8976000Y85101641D03*
X5976000Y85101641D03*
G04 #@! TD*
D12*
G04 #@! TO.C,M6*
X24018999Y60375005D03*
X17619002Y60375005D03*
X15718999Y60375005D03*
X11418999Y60375005D03*
D10*
X9019002Y59925006D03*
X8019001Y59925006D03*
D12*
X5168999Y60375005D03*
X24469001Y75875002D03*
X22619002Y75875002D03*
X17668999Y75875002D03*
X5619001Y75875002D03*
G04 #@! TD*
D10*
G04 #@! TO.C,M5*
X41618000Y73514000D03*
X41618000Y72314000D03*
X41618000Y74714000D03*
X41618000Y75914000D03*
X27193000Y69454000D03*
X27193000Y68454000D03*
G04 #@! TD*
G04 #@! TO.C,M1*
X67485000Y48785000D03*
X67485000Y47585000D03*
X67485000Y49985000D03*
X67485000Y51185000D03*
X53060000Y44725000D03*
X53060000Y43725000D03*
G04 #@! TD*
M02*
