M48
; DRILL file {KiCad 8.0.9-8.0.9-0~ubuntu24.04.1} date 2025-06-16T01:12:59+0000
; FORMAT={2:4/ absolute / inch / suppress leading zeros}
; #@! TF.CreationDate,2025-06-16T01:12:59+00:00
; #@! TF.GenerationSoftware,Kicad,Pcbnew,8.0.9-8.0.9-0~ubuntu24.04.1
; #@! TF.FileFunction,MixedPlating,1,4
FMAT,2
INCH,TZ
; #@! TA.AperFunction,Plated,PTH,ComponentDrill
T1C0.0118
; #@! TA.AperFunction,Plated,PTH,ComponentDrill
T2C0.0394
; #@! TA.AperFunction,Plated,PTH,ComponentDrill
T3C0.0433
%
G90
G05
T1
X501Y5586
X501Y5193
X501Y4799
X501Y3901
X501Y3501
X1068Y8365
X1068Y7971
X1068Y18758
X1068Y18365
X1068Y17971
X1068Y17577
X1068Y17183
X1068Y16790
X1068Y13246
X1068Y22538
X1068Y16396
X1068Y16002
X1068Y15609
X1068Y15215
X1068Y14821
X1068Y14428
X1068Y14034
X1068Y13640
X1068Y10884
X1225Y6987
X2170Y6987
X2643Y6987
X3115Y6987
X3157Y23593
X3430Y22538
X3551Y23593
X3587Y6987
X3745Y22538
X4060Y22538
X4060Y6987
X4532Y6987
X5005Y6987
X5477Y6987
X5950Y6987
X6422Y6987
X6894Y6987
X7131Y22538
X7367Y6987
X7446Y22538
X7761Y22538
X7839Y6987
X8076Y22538
X8312Y6987
X8391Y22538
X8784Y6987
X9257Y6987
X9729Y6987
X10202Y6987
X10556Y22538
X10674Y6987
X10706Y27344
X10706Y26950
X10871Y22538
X10970Y2574
X10970Y2181
X10970Y1787
X10970Y1393
X11146Y6987
X11186Y22538
X11501Y22538
X11619Y6987
X11816Y22538
X12091Y6987
X12131Y22538
X12446Y22538
X12564Y6987
X12761Y22538
X13036Y6987
X13076Y22538
X13391Y22538
X13509Y6987
X13706Y22538
X13981Y6987
X14020Y22538
X14335Y22538
X14454Y6987
X14650Y22538
X14926Y6987
X14965Y22538
X15280Y22538
X15359Y6987
X15595Y22538
X15831Y6987
X15910Y22538
X16225Y22538
X16304Y6987
X16385Y29887
X16385Y29415
X16385Y28943
X16385Y28470
X16540Y22538
X16776Y6987
X16855Y22538
X17170Y22538
X17249Y6987
X17485Y19939
X17485Y19624
X17485Y18050
X17485Y17735
X17485Y17420
X17485Y16160
X17485Y15845
X17485Y12380
X17485Y8168
X17485Y22538
X17485Y21514
X17485Y21199
X17485Y20884
X17485Y20569
X17485Y20254
X17485Y19309
X17485Y18994
X17485Y18680
X17485Y18365
X17485Y17105
X17485Y16790
X17485Y16475
X17485Y15530
X17485Y15215
X17485Y14900
X17485Y14585
X17485Y14270
X17485Y13955
X17485Y13640
X17485Y13325
X17485Y13010
X17485Y12695
X17485Y12065
X17485Y11750
X17485Y11435
X17485Y11120
X17485Y10806
X17485Y7853
X18829Y13068
X18829Y12713
X20890Y17608
X20890Y17215
X22254Y13068
X22254Y12694
X22254Y12320
X26569Y20152
X26569Y19679
X26569Y19207
X26569Y18734
T2
X2035Y23770
X2212Y29872
X4496Y23770
X6189Y23770
X6937Y23770
X6956Y29872
X8905Y29872
X9456Y23770
X9633Y29872
T3
X2353Y33505
X2353Y31733
X3534Y33505
X3534Y31733
X4715Y33505
X4715Y31733
X5896Y33505
X5896Y31733
X7077Y33505
X7077Y31733
X8258Y33505
X8258Y31733
X9439Y33505
X9439Y31733
X10620Y33505
X10620Y31733
X13770Y33505
X13770Y31733
X14951Y33505
X14951Y31733
X16132Y33505
X16132Y31733
X17313Y33505
X17313Y31733
X18494Y33505
X18494Y31733
X19676Y33505
X19676Y31733
X20857Y33505
X20857Y31733
X22038Y33505
X22038Y31733
X23219Y33505
X23219Y31733
X24400Y33505
X24400Y31733
X25581Y33505
X25581Y31733
X26762Y33505
X26762Y31733
X27943Y33505
X27943Y31733
M30
