M48
; DRILL file {KiCad 8.0.9-8.0.9-0~ubuntu24.04.1} date 2025-05-16T10:56:00+0000
; FORMAT={2:4/ absolute / inch / suppress leading zeros}
; #@! TF.CreationDate,2025-05-16T10:56:00+00:00
; #@! TF.GenerationSoftware,Kicad,Pcbnew,8.0.9-8.0.9-0~ubuntu24.04.1
; #@! TF.FileFunction,MixedPlating,1,2
FMAT,2
INCH,TZ
; #@! TA.AperFunction,Plated,PTH,ComponentDrill
T1C0.0118
%
G90
G05
T1
X9890Y26872
X10283Y26872
X11409Y21193
X11882Y21193
X12000Y17000
X12354Y21193
X12374Y17000
X12394Y20425
X12748Y20425
X12748Y17000
X12827Y21193
X14165Y16331
X14559Y16331
X14953Y16331
X15346Y16331
X16273Y26800
X16673Y26800
X17571Y26800
X17965Y26800
X18358Y26800
X19504Y13102
X19504Y12709
X19504Y27276
X19504Y22669
X19504Y22354
X19504Y21134
X19504Y20740
X19504Y20346
X19504Y19953
X19504Y19559
X19504Y19165
X19504Y18772
X19504Y18378
X19504Y15622
X19661Y11724
X20606Y11724
X21079Y11724
X21551Y11724
X21866Y27276
X22024Y11724
X22181Y27276
X22496Y27276
X22496Y11724
X22969Y11724
X23441Y11724
X23913Y11724
X24386Y11724
X24858Y11724
X25331Y11724
X25567Y27276
X25803Y11724
X25882Y27276
X26197Y27276
X26276Y11724
X26512Y27276
X26748Y11724
X26827Y27276
X27220Y11724
X27693Y11724
X28165Y11724
X28638Y11724
X28992Y27276
X29110Y11724
X29307Y27276
X29583Y11724
X29622Y27276
X29937Y27276
X30055Y11724
X30252Y27276
X30528Y11724
X30567Y27276
X30882Y27276
X31000Y11724
X31197Y27276
X31472Y11724
X31512Y27276
X31827Y27276
X31945Y11724
X32142Y27276
X32417Y11724
X32457Y27276
X32772Y27276
X32890Y11724
X33087Y27276
X33362Y11724
X33402Y27276
X33717Y27276
X33795Y11724
X34031Y27276
X34268Y11724
X34346Y27276
X34661Y27276
X34740Y11724
X34976Y27276
X35213Y11724
X35291Y27276
X35606Y27276
X35685Y11724
X35921Y24677
X35921Y24362
X35921Y22787
X35921Y22472
X35921Y22157
X35921Y20898
X35921Y20583
X35921Y17118
X35921Y12906
X35921Y27276
X35921Y26252
X35921Y25937
X35921Y25622
X35921Y25307
X35921Y24992
X35921Y24047
X35921Y23732
X35921Y23417
X35921Y23102
X35921Y21843
X35921Y21528
X35921Y21213
X35921Y20268
X35921Y19953
X35921Y19638
X35921Y19323
X35921Y19008
X35921Y18693
X35921Y18378
X35921Y18063
X35921Y17748
X35921Y17433
X35921Y16803
X35921Y16488
X35921Y16173
X35921Y15858
X35921Y15543
X35921Y12591
M30
