G04 #@! TF.GenerationSoftware,KiCad,Pcbnew,8.0.9-8.0.9-0~ubuntu24.04.1*
G04 #@! TF.CreationDate,2025-05-19T08:55:07+00:00*
G04 #@! TF.ProjectId,EP91Starlet,45503931-5374-4617-926c-65742e6b6963,rev?*
G04 #@! TF.SameCoordinates,Original*
G04 #@! TF.FileFunction,Copper,L1,Top*
G04 #@! TF.FilePolarity,Positive*
%FSLAX46Y46*%
G04 Gerber Fmt 4.6, Leading zero omitted, Abs format (unit mm)*
G04 Created by KiCad (PCBNEW 8.0.9-8.0.9-0~ubuntu24.04.1) date 2025-05-19 08:55:07*
%MOMM*%
%LPD*%
G01*
G04 APERTURE LIST*
G04 #@! TA.AperFunction,ComponentPad*
%ADD10C,0.600000*%
G04 #@! TD*
G04 #@! TA.AperFunction,SMDPad,CuDef*
%ADD11R,6.185000X0.250000*%
G04 #@! TD*
G04 #@! TA.AperFunction,SMDPad,CuDef*
%ADD12R,1.115000X0.250000*%
G04 #@! TD*
G04 #@! TA.AperFunction,SMDPad,CuDef*
%ADD13R,0.250000X14.275000*%
G04 #@! TD*
G04 #@! TA.AperFunction,SMDPad,CuDef*
%ADD14R,0.250000X15.100000*%
G04 #@! TD*
G04 #@! TA.AperFunction,SMDPad,CuDef*
%ADD15R,5.175000X0.250000*%
G04 #@! TD*
G04 #@! TA.AperFunction,SMDPad,CuDef*
%ADD16O,1.225000X0.200000*%
G04 #@! TD*
G04 #@! TA.AperFunction,SMDPad,CuDef*
%ADD17O,0.200000X9.300000*%
G04 #@! TD*
G04 #@! TA.AperFunction,ComponentPad*
%ADD18O,2.000000X1.800000*%
G04 #@! TD*
G04 #@! TA.AperFunction,SMDPad,CuDef*
%ADD19R,0.200000X2.300000*%
G04 #@! TD*
G04 #@! TA.AperFunction,SMDPad,CuDef*
%ADD20R,0.200000X10.700000*%
G04 #@! TD*
G04 #@! TA.AperFunction,SMDPad,CuDef*
%ADD21R,0.200000X2.100000*%
G04 #@! TD*
G04 #@! TA.AperFunction,SMDPad,CuDef*
%ADD22R,0.200000X6.000000*%
G04 #@! TD*
G04 #@! TA.AperFunction,SMDPad,CuDef*
%ADD23R,0.200000X5.400000*%
G04 #@! TD*
G04 #@! TA.AperFunction,SMDPad,CuDef*
%ADD24R,1.400000X0.200000*%
G04 #@! TD*
G04 #@! TA.AperFunction,SMDPad,CuDef*
%ADD25R,5.000000X0.200000*%
G04 #@! TD*
G04 #@! TA.AperFunction,SMDPad,CuDef*
%ADD26R,6.800000X0.200000*%
G04 #@! TD*
G04 #@! TA.AperFunction,SMDPad,CuDef*
%ADD27R,4.500000X0.200000*%
G04 #@! TD*
G04 #@! TA.AperFunction,SMDPad,CuDef*
%ADD28R,0.200000X1.600000*%
G04 #@! TD*
G04 #@! TA.AperFunction,SMDPad,CuDef*
%ADD29R,0.200000X5.700000*%
G04 #@! TD*
G04 #@! TA.AperFunction,SMDPad,CuDef*
%ADD30R,0.200000X2.000000*%
G04 #@! TD*
G04 #@! TA.AperFunction,ComponentPad*
%ADD31C,0.700000*%
G04 #@! TD*
G04 #@! TA.AperFunction,SMDPad,CuDef*
%ADD32C,3.000000*%
G04 #@! TD*
G04 #@! TA.AperFunction,SMDPad,CuDef*
%ADD33R,3.000000X0.250000*%
G04 #@! TD*
G04 #@! TA.AperFunction,SMDPad,CuDef*
%ADD34R,1.100000X0.250000*%
G04 #@! TD*
G04 #@! TA.AperFunction,SMDPad,CuDef*
%ADD35R,0.980000X0.250000*%
G04 #@! TD*
G04 #@! TA.AperFunction,SMDPad,CuDef*
%ADD36R,1.450000X0.250000*%
G04 #@! TD*
G04 #@! TA.AperFunction,SMDPad,CuDef*
%ADD37R,0.250000X27.600000*%
G04 #@! TD*
G04 #@! TA.AperFunction,SMDPad,CuDef*
%ADD38R,1.950000X0.250000*%
G04 #@! TD*
G04 #@! TA.AperFunction,SMDPad,CuDef*
%ADD39R,0.950000X0.250000*%
G04 #@! TD*
G04 APERTURE END LIST*
D10*
G04 #@! TO.P,M3,E1,HALL_EN*
G04 #@! TO.N,unconnected-(M3-HALL_EN-PadE1)*
X47846000Y59672500D03*
G04 #@! TO.P,M3,E2,NC*
G04 #@! TO.N,unconnected-(M3-NC-PadE2)*
X46646000Y59672500D03*
G04 #@! TO.P,M3,E3,OUT*
G04 #@! TO.N,Net-(M1-IN_ADC10{slash}EINT0_(VR_CRK))*
X49046000Y59672500D03*
G04 #@! TO.P,M3,E4,V5_IN*
G04 #@! TO.N,unconnected-(M3-V5_IN-PadE4)*
X50246000Y59672500D03*
D11*
G04 #@! TO.P,M3,G,GND*
G04 #@! TO.N,unconnected-(M3-GND-PadG)*
X47578500Y74322500D03*
D12*
X41528500Y74322500D03*
D13*
X50546000Y67310000D03*
D14*
X41096000Y66897500D03*
D15*
X43558500Y59472500D03*
D10*
G04 #@! TO.P,M3,W1,VR-/HALL*
G04 #@! TO.N,unconnected-(M3-VR-{slash}HALL-PadW1)*
X43786000Y74097500D03*
G04 #@! TO.P,M3,W2,VR+*
G04 #@! TO.N,unconnected-(M3-VR+-PadW2)*
X42786000Y74097500D03*
G04 #@! TD*
G04 #@! TO.P,M4,E1,V5A*
G04 #@! TO.N,unconnected-(M4-V5A-PadE1)*
X39330000Y59404000D03*
D16*
G04 #@! TO.P,M4,E2,GND*
G04 #@! TO.N,unconnected-(M4-GND-PadE2)*
X37355000Y68304000D03*
D17*
X39930000Y63754000D03*
X36830000Y63754000D03*
D10*
X38380000Y59404000D03*
G04 #@! TO.P,M4,E3,OUT_KNOCK*
G04 #@! TO.N,unconnected-(M4-OUT_KNOCK-PadE3)*
X37430002Y59404000D03*
G04 #@! TO.P,M4,W1,IN_KNOCK*
G04 #@! TO.N,unconnected-(M4-IN_KNOCK-PadW1)*
X38430000Y68104000D03*
G04 #@! TO.P,M4,W2,VREF*
G04 #@! TO.N,Net-(M4-VREF)*
X39330000Y68104000D03*
G04 #@! TD*
D18*
G04 #@! TO.P,U1,1*
G04 #@! TO.N,unconnected-(U1-Pad1)*
X19558000Y82780000D03*
G04 #@! TO.P,U1,2,#20*
G04 #@! TO.N,unconnected-(U1-#20-Pad2)*
X19558000Y79780000D03*
G04 #@! TO.P,U1,3,E1*
G04 #@! TO.N,unconnected-(U1-E1-Pad3)*
X19558000Y76780000D03*
G04 #@! TO.P,U1,4,IPV*
G04 #@! TO.N,unconnected-(U1-IPV-Pad4)*
X19558000Y73780000D03*
G04 #@! TO.P,U1,5,ELS3*
G04 #@! TO.N,unconnected-(U1-ELS3-Pad5)*
X19558000Y70780000D03*
G04 #@! TO.P,U1,6,NE*
G04 #@! TO.N,unconnected-(U1-NE-Pad6)*
X19558000Y67780000D03*
G04 #@! TO.P,U1,7,FAN*
G04 #@! TO.N,unconnected-(U1-FAN-Pad7)*
X19558000Y64780000D03*
G04 #@! TO.P,U1,8,IDL*
G04 #@! TO.N,unconnected-(U1-IDL-Pad8)*
X19558000Y61780000D03*
G04 #@! TO.P,U1,9,VCC*
G04 #@! TO.N,unconnected-(U1-VCC-Pad9)*
X19558000Y53780000D03*
G04 #@! TO.P,U1,10,PSW*
G04 #@! TO.N,unconnected-(U1-PSW-Pad10)*
X19558000Y50780000D03*
G04 #@! TO.P,U1,11,E2*
G04 #@! TO.N,unconnected-(U1-E2-Pad11)*
X19558000Y47780000D03*
G04 #@! TO.P,U1,12,HT*
G04 #@! TO.N,unconnected-(U1-HT-Pad12)*
X19558000Y44780000D03*
G04 #@! TO.P,U1,13,RSO*
G04 #@! TO.N,unconnected-(U1-RSO-Pad13)*
X19558000Y41780000D03*
G04 #@! TO.P,U1,14,VF*
G04 #@! TO.N,unconnected-(U1-VF-Pad14)*
X19558000Y38780000D03*
G04 #@! TO.P,U1,15,ELS2*
G04 #@! TO.N,unconnected-(U1-ELS2-Pad15)*
X19558000Y35780000D03*
G04 #@! TO.P,U1,16,ACT*
G04 #@! TO.N,unconnected-(U1-ACT-Pad16)*
X19558000Y32780000D03*
G04 #@! TO.P,U1,17,SPD*
G04 #@! TO.N,unconnected-(U1-SPD-Pad17)*
X19558000Y29780000D03*
G04 #@! TO.P,U1,18,AC1*
G04 #@! TO.N,unconnected-(U1-AC1-Pad18)*
X19558000Y26780000D03*
G04 #@! TO.P,U1,19,EGW*
G04 #@! TO.N,unconnected-(U1-EGW-Pad19)*
X19558000Y23780000D03*
G04 #@! TO.P,U1,20,W*
G04 #@! TO.N,unconnected-(U1-W-Pad20)*
X19558000Y20780000D03*
G04 #@! TO.P,U1,21,+B*
G04 #@! TO.N,unconnected-(U1-+B-Pad21)*
X19558000Y17780000D03*
G04 #@! TO.P,U1,22*
G04 #@! TO.N,unconnected-(U1-Pad22)*
X24058000Y17780000D03*
G04 #@! TO.P,U1,23,BATT*
G04 #@! TO.N,unconnected-(U1-BATT-Pad23)*
X24058000Y20780000D03*
G04 #@! TO.P,U1,24,CCO*
G04 #@! TO.N,unconnected-(U1-CCO-Pad24)*
X24058000Y23780000D03*
G04 #@! TO.P,U1,25,FC*
G04 #@! TO.N,unconnected-(U1-FC-Pad25)*
X24058000Y26780000D03*
G04 #@! TO.P,U1,26,ELS1*
G04 #@! TO.N,unconnected-(U1-ELS1-Pad26)*
X24058000Y29780000D03*
G04 #@! TO.P,U1,27,AC2*
G04 #@! TO.N,unconnected-(U1-AC2-Pad27)*
X24058000Y32780000D03*
G04 #@! TO.P,U1,28,TE2*
G04 #@! TO.N,unconnected-(U1-TE2-Pad28)*
X24058000Y35780000D03*
G04 #@! TO.P,U1,29,TE1*
G04 #@! TO.N,unconnected-(U1-TE1-Pad29)*
X24058000Y38780000D03*
G04 #@! TO.P,U1,30,RSC*
G04 #@! TO.N,unconnected-(U1-RSC-Pad30)*
X24058000Y41780000D03*
G04 #@! TO.P,U1,31,NSW*
G04 #@! TO.N,unconnected-(U1-NSW-Pad31)*
X24058000Y44780000D03*
G04 #@! TO.P,U1,32,THW*
G04 #@! TO.N,unconnected-(U1-THW-Pad32)*
X24058000Y47780000D03*
G04 #@! TO.P,U1,33,PIM*
G04 #@! TO.N,unconnected-(U1-PIM-Pad33)*
X24058000Y50780000D03*
G04 #@! TO.P,U1,34,THA*
G04 #@! TO.N,unconnected-(U1-THA-Pad34)*
X24058000Y53780000D03*
G04 #@! TO.P,U1,35,IGT*
G04 #@! TO.N,unconnected-(U1-IGT-Pad35)*
X24058000Y61780000D03*
G04 #@! TO.P,U1,36,IGF*
G04 #@! TO.N,unconnected-(U1-IGF-Pad36)*
X24058000Y64780000D03*
G04 #@! TO.P,U1,37,G2*
G04 #@! TO.N,unconnected-(U1-G2-Pad37)*
X24058000Y67780000D03*
G04 #@! TO.P,U1,38,G-*
G04 #@! TO.N,unconnected-(U1-G--Pad38)*
X24058000Y70780000D03*
G04 #@! TO.P,U1,39,OX*
G04 #@! TO.N,unconnected-(U1-OX-Pad39)*
X24058000Y73780000D03*
G04 #@! TO.P,U1,40,STA*
G04 #@! TO.N,unconnected-(U1-STA-Pad40)*
X24058000Y76780000D03*
G04 #@! TO.P,U1,41,#10*
G04 #@! TO.N,unconnected-(U1-#10-Pad41)*
X24058000Y79780000D03*
G04 #@! TO.P,U1,42,E01*
G04 #@! TO.N,unconnected-(U1-E01-Pad42)*
X24058000Y82780000D03*
G04 #@! TD*
D10*
G04 #@! TO.P,M1,E1,SPI2_SCK*
G04 #@! TO.N,unconnected-(M1-SPI2_SCK-PadE1)*
X102362003Y65363999D03*
G04 #@! TO.P,M1,E2,SPI2_MISO*
G04 #@! TO.N,unconnected-(M1-SPI2_MISO-PadE2)*
X102362003Y64563998D03*
G04 #@! TO.P,M1,E3,SPI2_MOSI*
G04 #@! TO.N,unconnected-(M1-SPI2_MOSI-PadE3)*
X102362003Y63764000D03*
G04 #@! TO.P,M1,E4,SPI2_CS*
G04 #@! TO.N,unconnected-(M1-SPI2_CS-PadE4)*
X102362003Y62963999D03*
G04 #@! TO.P,M1,E6*
G04 #@! TO.N,N/C*
X102362003Y62163998D03*
G04 #@! TO.P,M1,E7*
X102362000Y61364000D03*
G04 #@! TO.P,M1,E8*
X102362000Y60563999D03*
G04 #@! TO.P,M1,E9*
X102362003Y59763995D03*
G04 #@! TO.P,M1,E10*
X102362003Y58963999D03*
G04 #@! TO.P,M1,E11*
X102362003Y58163999D03*
G04 #@! TO.P,M1,E12*
X102362003Y57363998D03*
G04 #@! TO.P,M1,E13*
X102362000Y56563999D03*
G04 #@! TO.P,M1,E14,OUT_PWM5*
G04 #@! TO.N,unconnected-(M1-OUT_PWM5-PadE14)*
X102362000Y55763998D03*
G04 #@! TO.P,M1,E15,OUT_PWM4*
G04 #@! TO.N,unconnected-(M1-OUT_PWM4-PadE15)*
X102362000Y54963997D03*
G04 #@! TO.P,M1,E16,OUT_PWM3*
G04 #@! TO.N,unconnected-(M1-OUT_PWM3-PadE16)*
X102362003Y54163999D03*
G04 #@! TO.P,M1,E17,OUT_PWM2*
G04 #@! TO.N,unconnected-(M1-OUT_PWM2-PadE17)*
X102362003Y53363998D03*
G04 #@! TO.P,M1,E18*
G04 #@! TO.N,N/C*
X102362003Y52564000D03*
G04 #@! TO.P,M1,E19*
X102362000Y51763999D03*
G04 #@! TO.P,M1,E20*
X102362000Y50963998D03*
G04 #@! TO.P,M1,E21*
X102362003Y50163999D03*
G04 #@! TO.P,M1,E22*
X102362003Y49363998D03*
G04 #@! TO.P,M1,E23*
X102362003Y48563997D03*
G04 #@! TO.P,M1,E24*
X102362003Y47763999D03*
G04 #@! TO.P,M1,E25*
X102362003Y46963998D03*
G04 #@! TO.P,M1,E26,OUT_PWM6*
G04 #@! TO.N,unconnected-(M1-OUT_PWM6-PadE26)*
X102362003Y46164000D03*
G04 #@! TO.P,M1,E27,OUT_PWM1*
G04 #@! TO.N,unconnected-(M1-OUT_PWM1-PadE27)*
X102362003Y45363999D03*
G04 #@! TO.P,M1,E28*
G04 #@! TO.N,N/C*
X102362003Y44563998D03*
G04 #@! TO.P,M1,E29*
X102362003Y43763999D03*
G04 #@! TO.P,M1,E30*
X102362003Y42963998D03*
G04 #@! TO.P,M1,E31*
X102362000Y42164000D03*
G04 #@! TO.P,M1,E32*
X102362003Y41363997D03*
G04 #@! TO.P,M1,E33*
X102362003Y40563998D03*
G04 #@! TO.P,M1,E34*
X102362003Y39764000D03*
G04 #@! TO.P,M1,E35*
X102362003Y38963999D03*
G04 #@! TO.P,M1,E36*
X102362003Y38163998D03*
G04 #@! TO.P,M1,E38,V5A_SWITCHABLE*
G04 #@! TO.N,unconnected-(M1-V5A_SWITCHABLE-PadE38)*
X102362000Y31464004D03*
G04 #@! TO.P,M1,E39,GNDA*
G04 #@! TO.N,unconnected-(M1-GNDA-PadE39)*
X102362003Y30664003D03*
D19*
G04 #@! TO.P,M1,G,GND*
G04 #@! TO.N,unconnected-(M1-GND-PadG)*
X60461998Y29314003D03*
D20*
X60462000Y62114001D03*
D21*
X60462000Y53914002D03*
D22*
X60462000Y41864003D03*
D23*
X60462000Y35164006D03*
D24*
X62262007Y28264000D03*
D25*
X63662002Y68164001D03*
D26*
X72162005Y68164001D03*
D27*
X82012008Y68164001D03*
D28*
X102562003Y66664002D03*
D29*
X102562003Y34813999D03*
D30*
X102562003Y29164006D03*
D10*
G04 #@! TO.P,M1,N1,USBID*
G04 #@! TO.N,unconnected-(M1-USBID-PadN1)*
X102362003Y67964002D03*
G04 #@! TO.P,M1,N2,USBM*
G04 #@! TO.N,unconnected-(M1-USBM-PadN2)*
X101562005Y67964004D03*
G04 #@! TO.P,M1,N3,USBP*
G04 #@! TO.N,unconnected-(M1-USBP-PadN3)*
X100762004Y67964004D03*
G04 #@! TO.P,M1,N4,VBUS*
G04 #@! TO.N,unconnected-(M1-VBUS-PadN4)*
X99962005Y67964002D03*
G04 #@! TO.P,M1,N5,BOOT0_(PD)*
G04 #@! TO.N,unconnected-(M1-BOOT0_(PD)-PadN5)*
X99162004Y67964002D03*
G04 #@! TO.P,M1,N6,SWO*
G04 #@! TO.N,unconnected-(M1-SWO-PadN6)*
X98362003Y67964002D03*
G04 #@! TO.P,M1,N7,SWDIO*
G04 #@! TO.N,unconnected-(M1-SWDIO-PadN7)*
X97562005Y67964002D03*
G04 #@! TO.P,M1,N8,SWCLK*
G04 #@! TO.N,unconnected-(M1-SWCLK-PadN8)*
X96762004Y67964004D03*
G04 #@! TO.P,M1,N9,nReset*
G04 #@! TO.N,unconnected-(M1-nReset-PadN9)*
X95962006Y67964002D03*
G04 #@! TO.P,M1,N10,BOOT1_(PD)*
G04 #@! TO.N,unconnected-(M1-BOOT1_(PD)-PadN10)*
X95162005Y67964002D03*
G04 #@! TO.P,M1,N11,SPI1_SCK*
G04 #@! TO.N,unconnected-(M1-SPI1_SCK-PadN11)*
X94362004Y67964002D03*
G04 #@! TO.P,M1,N12,SPI1_MISO*
G04 #@! TO.N,unconnected-(M1-SPI1_MISO-PadN12)*
X93562003Y67964002D03*
G04 #@! TO.P,M1,N13,SPI1_MOSI*
G04 #@! TO.N,unconnected-(M1-SPI1_MOSI-PadN13)*
X92762004Y67964002D03*
G04 #@! TO.P,M1,N14,I2C_SCL*
G04 #@! TO.N,unconnected-(M1-I2C_SCL-PadN14)*
X91962003Y67964002D03*
G04 #@! TO.P,M1,N15,I2C_SDA*
G04 #@! TO.N,unconnected-(M1-I2C_SDA-PadN15)*
X91162002Y67964004D03*
G04 #@! TO.P,M1,N16,OUT_LED_RED_(PU)*
G04 #@! TO.N,unconnected-(M1-OUT_LED_RED_(PU)-PadN16)*
X90362002Y67964004D03*
G04 #@! TO.P,M1,N17,UART3_TX*
G04 #@! TO.N,unconnected-(M1-UART3_TX-PadN17)*
X89562003Y67964002D03*
G04 #@! TO.P,M1,N18,UART3_RX*
G04 #@! TO.N,unconnected-(M1-UART3_RX-PadN18)*
X88762002Y67964002D03*
G04 #@! TO.P,M1,N19,OUT_LED_BLUE_(PU)*
G04 #@! TO.N,unconnected-(M1-OUT_LED_BLUE_(PU)-PadN19)*
X87962004Y67964002D03*
G04 #@! TO.P,M1,N20*
G04 #@! TO.N,N/C*
X87162003Y67964002D03*
G04 #@! TO.P,M1,N21*
X86362004Y67964004D03*
G04 #@! TO.P,M1,N22,V33*
G04 #@! TO.N,Net-(M4-VREF)*
X85562003Y67964002D03*
G04 #@! TO.P,M1,N23*
G04 #@! TO.N,N/C*
X84762003Y67964002D03*
G04 #@! TO.P,M1,N24,UART6_RX*
G04 #@! TO.N,unconnected-(M1-UART6_RX-PadN24)*
X79262003Y67964002D03*
G04 #@! TO.P,M1,N25,UART6_TX*
G04 #@! TO.N,unconnected-(M1-UART6_TX-PadN25)*
X78462002Y67964002D03*
G04 #@! TO.P,M1,N26*
G04 #@! TO.N,N/C*
X77662004Y67964002D03*
G04 #@! TO.P,M1,N27,VBAT*
G04 #@! TO.N,unconnected-(M1-VBAT-PadN27)*
X76862006Y67964002D03*
G04 #@! TO.P,M1,N28,V33_SWITCHABLE*
G04 #@! TO.N,unconnected-(M1-V33_SWITCHABLE-PadN28)*
X76062007Y67964002D03*
G04 #@! TO.P,M1,N29,OUT_PWR_EN*
G04 #@! TO.N,unconnected-(M1-OUT_PWR_EN-PadN29)*
X68262003Y67964002D03*
G04 #@! TO.P,M1,N30,V5A_SWITCHABLE*
G04 #@! TO.N,unconnected-(M1-V5A_SWITCHABLE-PadN30)*
X67462004Y67964002D03*
G04 #@! TO.P,M1,N31,VCC*
G04 #@! TO.N,unconnected-(M1-VCC-PadN31)*
X66662006Y67964002D03*
G04 #@! TO.P,M1,N32,V33*
G04 #@! TO.N,unconnected-(M1-V33-PadN32)*
X60662002Y67964002D03*
G04 #@! TO.P,M1,S1*
G04 #@! TO.N,N/C*
X101762002Y28463997D03*
G04 #@! TO.P,M1,S2*
X100562001Y28463999D03*
G04 #@! TO.P,M1,S3*
X99362004Y28463999D03*
G04 #@! TO.P,M1,S4*
X98162004Y28463997D03*
G04 #@! TO.P,M1,S5,VREF2*
G04 #@! TO.N,unconnected-(M1-VREF2-PadS5)*
X96962004Y28463999D03*
G04 #@! TO.P,M1,S6*
G04 #@! TO.N,N/C*
X95862016Y28463999D03*
G04 #@! TO.P,M1,S7*
X94662016Y28463999D03*
G04 #@! TO.P,M1,S8*
X93462018Y28463997D03*
G04 #@! TO.P,M1,S9*
X92262018Y28463999D03*
G04 #@! TO.P,M1,S10*
X91062015Y28463999D03*
G04 #@! TO.P,M1,S11*
X89862013Y28463997D03*
G04 #@! TO.P,M1,S12*
X88662015Y28463999D03*
G04 #@! TO.P,M1,S13*
X87462017Y28463999D03*
G04 #@! TO.P,M1,S14*
X86262010Y28463999D03*
G04 #@! TO.P,M1,S15*
X85062010Y28463999D03*
G04 #@! TO.P,M1,S16*
X83862012Y28463999D03*
G04 #@! TO.P,M1,S17*
X82662012Y28463999D03*
G04 #@! TO.P,M1,S18*
X81462007Y28463999D03*
G04 #@! TO.P,M1,S19*
X80262006Y28463999D03*
G04 #@! TO.P,M1,S20*
X79062009Y28463997D03*
G04 #@! TO.P,M1,S21*
X77862009Y28463999D03*
G04 #@! TO.P,M1,S22,IN_ADC4/EINT4*
G04 #@! TO.N,unconnected-(M1-IN_ADC4{slash}EINT4-PadS22)*
X76662006Y28463997D03*
G04 #@! TO.P,M1,S23,IN_ADC5/EINT5*
G04 #@! TO.N,unconnected-(M1-IN_ADC5{slash}EINT5-PadS23)*
X75462006Y28463999D03*
G04 #@! TO.P,M1,S24,IN_ADC6/EINT6*
G04 #@! TO.N,unconnected-(M1-IN_ADC6{slash}EINT6-PadS24)*
X74262011Y28463999D03*
G04 #@! TO.P,M1,S25,IN_ADC7/EINT7*
G04 #@! TO.N,unconnected-(M1-IN_ADC7{slash}EINT7-PadS25)*
X73062008Y28463997D03*
G04 #@! TO.P,M1,S26,IN_ADC10/EINT0_(VR_CRK)*
G04 #@! TO.N,Net-(M1-IN_ADC10{slash}EINT0_(VR_CRK))*
X71862003Y28463999D03*
G04 #@! TO.P,M1,S27,IN_ADC11/EINT1*
G04 #@! TO.N,unconnected-(M1-IN_ADC11{slash}EINT1-PadS27)*
X70662003Y28463997D03*
G04 #@! TO.P,M1,S28,IN_ADC14/EINT4*
G04 #@! TO.N,unconnected-(M1-IN_ADC14{slash}EINT4-PadS28)*
X69462005Y28463999D03*
G04 #@! TO.P,M1,S29,IN_ADC15/EINT5*
G04 #@! TO.N,unconnected-(M1-IN_ADC15{slash}EINT5-PadS29)*
X68262005Y28463999D03*
G04 #@! TO.P,M1,S30,IN_ADC0/EINT0/CAN1_WKUP*
G04 #@! TO.N,unconnected-(M1-IN_ADC0{slash}EINT0{slash}CAN1_WKUP-PadS30)*
X67062000Y28463999D03*
G04 #@! TO.P,M1,S31,IN_ADC1/EINT1/SENT*
G04 #@! TO.N,unconnected-(M1-IN_ADC1{slash}EINT1{slash}SENT-PadS31)*
X65862000Y28463999D03*
G04 #@! TO.P,M1,S32,IN_ADC2/EINT2*
G04 #@! TO.N,unconnected-(M1-IN_ADC2{slash}EINT2-PadS32)*
X64662002Y28463999D03*
G04 #@! TO.P,M1,S33,IN_ADC3/EINT3*
G04 #@! TO.N,unconnected-(M1-IN_ADC3{slash}EINT3-PadS33)*
X63462002Y28463999D03*
G04 #@! TO.P,M1,S35,VREF1*
G04 #@! TO.N,unconnected-(M1-VREF1-PadS35)*
X61062002Y28463999D03*
G04 #@! TO.P,M1,W1,GNDA*
G04 #@! TO.N,unconnected-(M1-GNDA-PadW1)*
X60662000Y30964002D03*
G04 #@! TO.P,M1,W2,V5A_SWITCHABLE*
G04 #@! TO.N,unconnected-(M1-V5A_SWITCHABLE-PadW2)*
X60662000Y31964003D03*
G04 #@! TO.P,M1,W3*
G04 #@! TO.N,N/C*
X60662002Y38364005D03*
G04 #@! TO.P,M1,W4*
X60662002Y45364001D03*
G04 #@! TO.P,M1,W5*
X60662002Y46364002D03*
G04 #@! TO.P,M1,W6*
X60662002Y47364000D03*
G04 #@! TO.P,M1,W7*
X60662002Y48364000D03*
G04 #@! TO.P,M1,W8,CAN2H*
G04 #@! TO.N,unconnected-(M1-CAN2H-PadW8)*
X60662002Y49364001D03*
G04 #@! TO.P,M1,W9,CAN2L*
G04 #@! TO.N,unconnected-(M1-CAN2L-PadW9)*
X60662002Y50363999D03*
G04 #@! TO.P,M1,W10*
G04 #@! TO.N,N/C*
X60662002Y51363999D03*
G04 #@! TO.P,M1,W11*
X60662002Y52363997D03*
G04 #@! TO.P,M1,W12,CAN1H*
G04 #@! TO.N,/CAN+*
X60662002Y55464001D03*
G04 #@! TO.P,M1,W13,CAN1L*
G04 #@! TO.N,/CAN-*
X60662002Y56264002D03*
G04 #@! TD*
D31*
G04 #@! TO.P,M2,E1,LSU_Un*
G04 #@! TO.N,unconnected-(M2-LSU_Un-PadE1)*
X39987000Y25013000D03*
G04 #@! TO.P,M2,E2,LSU_Vm*
G04 #@! TO.N,unconnected-(M2-LSU_Vm-PadE2)*
X42987000Y25013000D03*
G04 #@! TO.P,M2,E3,LSU_Ip*
G04 #@! TO.N,unconnected-(M2-LSU_Ip-PadE3)*
X41987000Y25013000D03*
G04 #@! TO.P,M2,E4,LSU_Rtrim*
G04 #@! TO.N,unconnected-(M2-LSU_Rtrim-PadE4)*
X40987000Y25013000D03*
D32*
G04 #@! TO.P,M2,E5,LSU_H+*
G04 #@! TO.N,unconnected-(M2-LSU_H+-PadE5)*
X45137000Y26263000D03*
D33*
G04 #@! TO.P,M2,E6,LSU_H-*
G04 #@! TO.N,unconnected-(M2-LSU_H--PadE6)*
X48637000Y24638000D03*
D34*
G04 #@! TO.P,M2,G,GND*
G04 #@! TO.N,unconnected-(M2-GND-PadG)*
X51837000Y51988000D03*
D35*
X47497000Y51988000D03*
X44197000Y51988000D03*
D36*
X39112000Y51988000D03*
D37*
X52262000Y38313000D03*
X38512000Y38313000D03*
D38*
X51412000Y24638000D03*
D39*
X38862000Y24638000D03*
G04 #@! TO.P,M2,J1,SEL1*
G04 #@! TO.N,unconnected-(M2-SEL1-PadJ1)*
G04 #@! TA.AperFunction,SMDPad,CuDef*
G36*
G01*
X51237000Y42563000D02*
X49987000Y42563000D01*
G75*
G02*
X49862000Y42688000I0J125000D01*
G01*
X49862000Y42938000D01*
G75*
G02*
X49987000Y43063000I125000J0D01*
G01*
X51237000Y43063000D01*
G75*
G02*
X51362000Y42938000I0J-125000D01*
G01*
X51362000Y42688000D01*
G75*
G02*
X51237000Y42563000I-125000J0D01*
G01*
G37*
G04 #@! TD.AperFunction*
G04 #@! TO.P,M2,J2,SEL2*
G04 #@! TO.N,unconnected-(M2-SEL2-PadJ2)*
G04 #@! TA.AperFunction,SMDPad,CuDef*
G36*
G01*
X48562000Y44238000D02*
X48312000Y44238000D01*
G75*
G02*
X48187000Y44363000I0J125000D01*
G01*
X48187000Y45613000D01*
G75*
G02*
X48312000Y45738000I125000J0D01*
G01*
X48562000Y45738000D01*
G75*
G02*
X48687000Y45613000I0J-125000D01*
G01*
X48687000Y44363000D01*
G75*
G02*
X48562000Y44238000I-125000J0D01*
G01*
G37*
G04 #@! TD.AperFunction*
G04 #@! TO.P,M2,J_GND1,PULL_DOWN1*
G04 #@! TO.N,unconnected-(M2-PULL_DOWN1-PadJ_GND1)*
G04 #@! TA.AperFunction,SMDPad,CuDef*
G36*
G01*
X51237000Y43363000D02*
X49987000Y43363000D01*
G75*
G02*
X49862000Y43488000I0J125000D01*
G01*
X49862000Y43738000D01*
G75*
G02*
X49987000Y43863000I125000J0D01*
G01*
X51237000Y43863000D01*
G75*
G02*
X51362000Y43738000I0J-125000D01*
G01*
X51362000Y43488000D01*
G75*
G02*
X51237000Y43363000I-125000J0D01*
G01*
G37*
G04 #@! TD.AperFunction*
G04 #@! TO.P,M2,J_GND2,PULL_DOWN2*
G04 #@! TO.N,unconnected-(M2-PULL_DOWN2-PadJ_GND2)*
G04 #@! TA.AperFunction,SMDPad,CuDef*
G36*
G01*
X48687000Y43688000D02*
X48687000Y43438000D01*
G75*
G02*
X48562000Y43313000I-125000J0D01*
G01*
X48312000Y43313000D01*
G75*
G02*
X48187000Y43438000I0J125000D01*
G01*
X48187000Y43688000D01*
G75*
G02*
X48312000Y43813000I125000J0D01*
G01*
X48562000Y43813000D01*
G75*
G02*
X48687000Y43688000I0J-125000D01*
G01*
G37*
G04 #@! TD.AperFunction*
G04 #@! TO.P,M2,J_VCC1,PULL_UP1*
G04 #@! TO.N,unconnected-(M2-PULL_UP1-PadJ_VCC1)*
G04 #@! TA.AperFunction,SMDPad,CuDef*
G36*
G01*
X49362000Y42563000D02*
X49112000Y42563000D01*
G75*
G02*
X48987000Y42688000I0J125000D01*
G01*
X48987000Y42938000D01*
G75*
G02*
X49112000Y43063000I125000J0D01*
G01*
X49362000Y43063000D01*
G75*
G02*
X49487000Y42938000I0J-125000D01*
G01*
X49487000Y42688000D01*
G75*
G02*
X49362000Y42563000I-125000J0D01*
G01*
G37*
G04 #@! TD.AperFunction*
G04 #@! TO.P,M2,J_VCC2,PULL_UP2*
G04 #@! TO.N,unconnected-(M2-PULL_UP2-PadJ_VCC2)*
G04 #@! TA.AperFunction,SMDPad,CuDef*
G36*
G01*
X49362000Y44238000D02*
X49112000Y44238000D01*
G75*
G02*
X48987000Y44363000I0J125000D01*
G01*
X48987000Y45613000D01*
G75*
G02*
X49112000Y45738000I125000J0D01*
G01*
X49362000Y45738000D01*
G75*
G02*
X49487000Y45613000I0J-125000D01*
G01*
X49487000Y44363000D01*
G75*
G02*
X49362000Y44238000I-125000J0D01*
G01*
G37*
G04 #@! TD.AperFunction*
D31*
G04 #@! TO.P,M2,W1,V5_IN*
G04 #@! TO.N,unconnected-(M2-V5_IN-PadW1)*
X49637000Y51604200D03*
G04 #@! TO.P,M2,W2,CAN_VIO*
G04 #@! TO.N,unconnected-(M2-CAN_VIO-PadW2)*
X48637000Y51604200D03*
G04 #@! TO.P,M2,W3,CANL*
G04 #@! TO.N,/CAN-*
X45341000Y51604200D03*
G04 #@! TO.P,M2,W4,CANH*
G04 #@! TO.N,/CAN+*
X46357000Y51604200D03*
G04 #@! TO.P,M2,W5,nReset*
G04 #@! TO.N,unconnected-(M2-nReset-PadW5)*
G04 #@! TA.AperFunction,SMDPad,CuDef*
G36*
G01*
X43337000Y52113000D02*
X43337000Y52113000D01*
G75*
G02*
X43462000Y51988000I0J-125000D01*
G01*
X43462000Y51738000D01*
G75*
G02*
X43337000Y51613000I-125000J0D01*
G01*
X43337000Y51613000D01*
G75*
G02*
X43212000Y51738000I0J125000D01*
G01*
X43212000Y51988000D01*
G75*
G02*
X43337000Y52113000I125000J0D01*
G01*
G37*
G04 #@! TD.AperFunction*
G04 #@! TO.P,M2,W6,SWDIO*
G04 #@! TO.N,unconnected-(M2-SWDIO-PadW6)*
G04 #@! TA.AperFunction,SMDPad,CuDef*
G36*
G01*
X42837000Y52113000D02*
X42837000Y52113000D01*
G75*
G02*
X42962000Y51988000I0J-125000D01*
G01*
X42962000Y51738000D01*
G75*
G02*
X42837000Y51613000I-125000J0D01*
G01*
X42837000Y51613000D01*
G75*
G02*
X42712000Y51738000I0J125000D01*
G01*
X42712000Y51988000D01*
G75*
G02*
X42837000Y52113000I125000J0D01*
G01*
G37*
G04 #@! TD.AperFunction*
G04 #@! TO.P,M2,W7,SWCLK*
G04 #@! TO.N,unconnected-(M2-SWCLK-PadW7)*
G04 #@! TA.AperFunction,SMDPad,CuDef*
G36*
G01*
X42337000Y52113000D02*
X42337000Y52113000D01*
G75*
G02*
X42462000Y51988000I0J-125000D01*
G01*
X42462000Y51738000D01*
G75*
G02*
X42337000Y51613000I-125000J0D01*
G01*
X42337000Y51613000D01*
G75*
G02*
X42212000Y51738000I0J125000D01*
G01*
X42212000Y51988000D01*
G75*
G02*
X42337000Y52113000I125000J0D01*
G01*
G37*
G04 #@! TD.AperFunction*
G04 #@! TO.P,M2,W8,V33_OUT*
G04 #@! TO.N,unconnected-(M2-V33_OUT-PadW8)*
G04 #@! TA.AperFunction,SMDPad,CuDef*
G36*
G01*
X40237000Y52113000D02*
X40237000Y52113000D01*
G75*
G02*
X40362000Y51988000I0J-125000D01*
G01*
X40362000Y51738000D01*
G75*
G02*
X40237000Y51613000I-125000J0D01*
G01*
X40237000Y51613000D01*
G75*
G02*
X40112000Y51738000I0J125000D01*
G01*
X40112000Y51988000D01*
G75*
G02*
X40237000Y52113000I125000J0D01*
G01*
G37*
G04 #@! TD.AperFunction*
G04 #@! TO.P,M2,W9,VDDA*
G04 #@! TO.N,unconnected-(M2-VDDA-PadW9)*
X50637000Y51604200D03*
G04 #@! TD*
M02*
