M48
INCH,TZ
T01C0.011800
T02C0.019700
T03C0.031500
T04C0.037800
T05C0.044150
T06C0.070900
T07C0.091700
T08C0.118100
T09C0.126000
T10C0.140000
%
T01
X23168Y4200
X24566Y4230
X24861Y3767
X25068Y4112
X963Y4770
X1363Y12170
X1563Y14670
X1663Y28770
X1663Y25670
X1763Y33570
X1763Y30370
X1763Y23370
X1763Y21970
X1763Y20470
X1863Y17370
X2363Y12270
X2963Y35270
X3263Y23570
X3263Y20570
X3263Y12170
X3763Y36270
X3763Y31470
X3763Y29770
X3763Y15470
X3803Y28196
X3963Y4870
X4263Y12170
X4863Y16570
X5463Y36470
X5463Y32970
X5463Y24570
X5463Y13870
X5535Y31257
X5563Y29570
X5563Y22070
X5587Y28052
X5663Y3370
X5667Y26370
X5763Y18670
X5963Y12070
X6063Y4870
X6163Y12370
X6463Y12070
X7363Y37570
X7663Y3870
X7763Y30570
X7763Y29570
X7863Y38470
X7863Y37470
X7863Y27470
X7865Y26362
X7960Y31888
X8173Y17450
X8563Y29170
X8739Y35670
X8763Y10670
X8763Y9770
X8863Y12870
X9034Y36575
X9063Y17670
X9063Y7170
X9063Y5570
X9160Y29567
X9163Y30570
X9163Y27470
X9163Y26370
X9163Y4070
X9363Y36570
X9463Y38470
X9463Y37470
X9663Y15270
X9962Y32780
X10003Y8160
X10054Y33179
X10063Y23270
X10063Y22770
X10063Y21470
X10063Y20770
X10063Y19870
X10963Y6270
X10963Y4970
X11060Y4567
X11263Y3306
X11463Y30570
X11563Y37370
X11863Y7170
X11963Y31354
X11963Y30470
X11963Y26370
X12025Y28610
X12063Y29570
X12063Y27470
X12163Y32970
X12363Y38470
X12463Y36470
X12583Y4350
X12584Y31072
X12863Y38970
X13063Y25770
X13163Y38670
X13423Y7290
X13653Y4510
X13713Y7006
X13763Y36470
X13763Y30770
X13763Y29270
X13963Y33070
X14063Y34070
X14263Y27270
X14463Y5410
X15163Y30870
X15363Y37270
X15393Y6310
X15463Y33370
X15863Y28570
X15893Y4530
X16153Y7080
X16453Y1900
X16833Y6050
X17263Y38970
X17363Y37870
X17435Y35681
X17563Y32370
X17563Y24070
X17643Y7210
X17952Y24119
X18263Y24070
X18363Y36470
X18523Y3060
X18523Y1850
X18625Y26806
X18663Y31770
X18663Y30270
X18663Y28593
X18773Y7200
X18863Y38870
X18863Y37970
X19283Y3610
X19363Y26070
X19663Y35670
X20073Y3790
X20363Y32370
X20463Y26070
X20942Y36970
X21413Y7310
X21572Y24111
X21963Y35670
X21963Y32370
X22793Y7340
X22863Y31570
X22863Y29170
X22863Y26970
X22963Y33670
X23263Y32370
X24202Y33454
X24363Y35670
X24463Y32370
X24963Y7370
X25563Y35670
X25763Y32370
X26063Y23770
X26163Y7370
X26763Y35670
X26963Y5270
X27063Y31870
X27063Y29770
X27063Y27970
X27063Y26770
X27063Y23170
X27063Y22570
X27063Y21470
X27063Y19770
X27063Y18870
X27063Y17570
X27063Y10770
X27063Y8170
X27469Y13792
X27563Y11970
X27963Y35670
X28052Y23170
X28163Y22870
X28202Y23570
X28263Y18870
X28363Y26670
X28363Y16270
X28520Y32821
X28563Y30570
X29002Y27979
X29053Y360
X29353Y7760
X29453Y10660
X29453Y5160
X29453Y3360
X29463Y17270
X29713Y14570
X29963Y33770
X29963Y23570
X29963Y22370
X29963Y20670
X30563Y33170
X30563Y31970
X30563Y30770
X30563Y29570
X31563Y31470
X31563Y30170
X31563Y15070
X31663Y12870
X33023Y940
X33763Y33470
X33763Y29870
X33763Y25870
X33763Y24370
X33763Y20970
X33763Y18070
X33863Y34970
X33863Y31670
X33863Y28370
X33863Y14970
X33963Y22570
X35563Y2990
X35827Y8324
X35843Y10830
X35943Y5830
X35963Y33270
X35963Y32170
X35963Y29170
X36063Y30170
X36063Y340
X36263Y17270
X36263Y15470
X37243Y3170
X37463Y32170
X37463Y30170
X37563Y33170
X37563Y29170
X37608Y21726
X37611Y23022
X37743Y10560
X37783Y12810
X37850Y15505
X37963Y33570
X38098Y21111
X38200Y32570
X38200Y23570
X38344Y25624
X38363Y28670
X38363Y26593
X38436Y24370
X38682Y18759
X38813Y4910
X38863Y26070
X38863Y22670
X39033Y2800
X39083Y8340
X39163Y28770
X39163Y27970
X1631Y5257
X2025Y5257
X10306Y22430
X10306Y19478
X10306Y19163
X10306Y18848
X10306Y18533
X10306Y18218
X10306Y17588
X10306Y17273
X10306Y16958
X10306Y16643
X10306Y16328
X10306Y16013
X10306Y15698
X10306Y15383
X10306Y15068
X10306Y14753
X10306Y13808
X10306Y13493
X10306Y13178
X10306Y11919
X10306Y11604
X10306Y11289
X10306Y10974
X10306Y10029
X10306Y9714
X10306Y9399
X10306Y9084
X10306Y8769
X10306Y7745
X10306Y22115
X10306Y17903
X10306Y14438
X10306Y14123
X10306Y12863
X10306Y12548
X10306Y12233
X10306Y10659
X10306Y10344
X10542Y23296
X10620Y7745
X10935Y7745
X11014Y23296
X11250Y7745
X11487Y23296
X11565Y7745
X11880Y7745
X11959Y23296
X12195Y7745
X12432Y23296
X12510Y7745
X12825Y7745
X12865Y23296
X13140Y7745
X13337Y23296
X13455Y7745
X13770Y7745
X13809Y23296
X14085Y7745
X14282Y23296
X14400Y7745
X14715Y7745
X14754Y23296
X15030Y7745
X15227Y23296
X15345Y7745
X15660Y7745
X15699Y23296
X15975Y7745
X16172Y23296
X16290Y7745
X16605Y7745
X16644Y23296
X16920Y7745
X17117Y23296
X17235Y7745
X17589Y23296
X18061Y23296
X18534Y23296
X19006Y23296
X19400Y7745
X19477Y32065
X19479Y23296
X19715Y7745
X19871Y32065
X19951Y23296
X20030Y7745
X20345Y7745
X20424Y23296
X20660Y7745
X20896Y23296
X20997Y26386
X21369Y23296
X21469Y26386
X21841Y23296
X21942Y26386
X22313Y23296
X22414Y26386
X22786Y23296
X23258Y23296
X23731Y23296
X23731Y7745
X23808Y32065
X24046Y7745
X24202Y32065
X24203Y23296
X24361Y7745
X24676Y23296
X25148Y23296
X25328Y26386
X25620Y23296
X25800Y26386
X26272Y26386
X26565Y23296
X26723Y19399
X26723Y16643
X26723Y16249
X26723Y15856
X26723Y15462
X26723Y15068
X26723Y14674
X26723Y14281
X26723Y13887
X26723Y7745
X26723Y17037
X26723Y13493
X26723Y13100
X26723Y12706
X26723Y12312
X26723Y11919
X26723Y11525
X26723Y22312
X26723Y21919
X26745Y26386
X30433Y23583
X30433Y20157
X30580Y1796
X30787Y20157
X30807Y23583
X30973Y1796
X31181Y23583
X31367Y1796
X32265Y1796
X32665Y1796
X33592Y12265
X33985Y12265
X34379Y12265
X34773Y12265
X25308Y31937
X23340Y31937
X26647Y31898
X25230Y31071
X24167Y30914
X23340Y30796
X26647Y30559
X25741Y30166
X24757Y30126
X24127Y29575
X23340Y29536
X26647Y29142
X25938Y28906
X23340Y28827
X25247Y28741
X23694Y28315
X24560Y27804
X23615Y27567
X26647Y27410
X23340Y27095
X25822Y26777
X24954Y26504
X23615Y26504
X24202Y32065
X23808Y32065
X26745Y26386
X26273Y26386
X25801Y26386
X25328Y26386
X26565Y23297
X26642Y22898
X26723Y22313
X26723Y21919
X25965Y21659
X25251Y21643
X24967Y21620
X24361Y21801
X24046Y21801
X23480Y21613
X23054Y21613
X22471Y21801
X22156Y21801
X21587Y21631
X21302Y21622
X20614Y21823
X20230Y21823
X19719Y21597
X19277Y21613
X18691Y21801
X18376Y21801
X17796Y21704
X17412Y21643
X16802Y21801
X16487Y21801
X15857Y21643
X15542Y21643
X14912Y21801
X14597Y21801
X13967Y21643
X13652Y21643
X13022Y21801
X12786Y21565
X12510Y20698
X12195Y20817
X11998Y21092
X11644Y21092
X11556Y20167
X12058Y20147
X11995Y19869
X12097Y19025
X11723Y18887
X11619Y18612
X11516Y19124
X11795Y17798
X11803Y17301
X12117Y17273
X12077Y16880
X12195Y16092
X12790Y16016
X13180Y15974
X13514Y15963
X13258Y16250
X13006Y16410
X12843Y15546
X12827Y15159
X13072Y14999
X12686Y14754
X12776Y14046
X12707Y13769
X12825Y12903
X13022Y12549
X12795Y11988
X12774Y11604
X11973Y11900
X11650Y12121
X11267Y12145
X11688Y10685
X11737Y10035
X11518Y9852
X12080Y9437
X12804Y9244
X13180Y9557
X13424Y9409
X13573Y8730
X13849Y8848
X12627Y8641
X12349Y8767
X12205Y8248
X11890Y8147
X11267Y8703
X15176Y8713
X15474Y8663
X15420Y9302
X15081Y9512
X14484Y10187
X14676Y10423
X14912Y10659
X15739Y10895
X16358Y10999
X16329Y10659
X16639Y11087
X16841Y11289
X16684Y12234
X16250Y12258
X15424Y11998
X15109Y11998
X14965Y12414
X14321Y12313
X14282Y11604
X14054Y11433
X13731Y12076
X13731Y13021
X14676Y13336
X14991Y13336
X14912Y13903
X14991Y14872
X14597Y14872
X14319Y14395
X13605Y14286
X13741Y15043
X13727Y15420
X14794Y15502
X14715Y16221
X14400Y16210
X15288Y16295
X15069Y17076
X14754Y17155
X14124Y17037
X13878Y17182
X13584Y17430
X13947Y17903
X14341Y17903
X14991Y18218
X15306Y18215
X15621Y18218
X16250Y18082
X16517Y17893
X16408Y17352
X16195Y17116
X16045Y17521
X17038Y17352
X16959Y17076
X17825Y17037
X17904Y17391
X17904Y18218
X17589Y18215
X17274Y18179
X16998Y18612
X16998Y18927
X16989Y19212
X16762Y19754
X16172Y19754
X15798Y19517
X15798Y18887
X16231Y19025
X14774Y19163
X14779Y18873
X13947Y19025
X13514Y18887
X13514Y19517
X13888Y19754
X14479Y19754
X15050Y20502
X15557Y20600
X15842Y20600
X17446Y20600
X17732Y20600
X18005Y20516
X18081Y19517
X18455Y19754
X19006Y19754
X19341Y19163
X19346Y18873
X19537Y18203
X19872Y18215
X20187Y18218
X20365Y18887
X20798Y19025
X20699Y19754
X20365Y19517
X20127Y20484
X19622Y20639
X19336Y20600
X20869Y20244
X21226Y20600
X21511Y20600
X21526Y19950
X21576Y19249
X21595Y18572
X21582Y18277
X21595Y17918
X21605Y17431
X21565Y16998
X21945Y16870
X22230Y16850
X22392Y17352
X22254Y17785
X22752Y17674
X23172Y17574
X23197Y17289
X23691Y17273
X24028Y17390
X24427Y17107
X24105Y16761
X23613Y16675
X23546Y16192
X23580Y15856
X23534Y15472
X23534Y15187
X23534Y14635
X23573Y13887
X23376Y13376
X23455Y13100
X23431Y12638
X23467Y12058
X23495Y11289
X23888Y11191
X23898Y10851
X24754Y10620
X24735Y11210
X24681Y11958
X25069Y12037
X25463Y12041
X26113Y12045
X26723Y11919
X26723Y12313
X26723Y12706
X26723Y13100
X26723Y13494
X26723Y13887
X26723Y14281
X26723Y14675
X26723Y15069
X26723Y15462
X26723Y15856
X26723Y16250
X26723Y16643
X26723Y17037
X26487Y17273
X25947Y17106
X25955Y17588
X25680Y17726
X25318Y17686
X25050Y17787
X24390Y17992
X24377Y18277
X24390Y18572
X24361Y18927
X24842Y18784
X25344Y18777
X25187Y19202
X25304Y19528
X24916Y19556
X25247Y19950
X25286Y20502
X25005Y20600
X24243Y20531
X23770Y20531
X23401Y20600
X23116Y20600
X22707Y20541
X22353Y20580
X22766Y19950
X22707Y19517
X22392Y19202
X22530Y18809
X21900Y18809
X22026Y19642
X23770Y19517
X24006Y19950
X23230Y18920
X23189Y18637
X23258Y18061
X22727Y16604
X22656Y15359
X22697Y14754
X22719Y14340
X22687Y13828
X22697Y13258
X22697Y12549
X22697Y11919
X22756Y11255
X21853Y11146
X21829Y10532
X21625Y10331
X21182Y10403
X21132Y10817
X21132Y11102
X21132Y11923
X21146Y12312
X21669Y12313
X21669Y12598
X21383Y12617
X21172Y12864
X21250Y13218
X21137Y13671
X20231Y13664
X19948Y13555
X20069Y13297
X20318Y12980
X20306Y14084
X20158Y14866
X20069Y15265
X20256Y15610
X20542Y16525
X21071Y16541
X21214Y16285
X21250Y17283
X20896Y17576
X20816Y17886
X20148Y17352
X19663Y17338
X19676Y17053
X19515Y16072
X19107Y16029
X19046Y16308
X18770Y16013
X18121Y15989
X18130Y16274
X17687Y15915
X17456Y16131
X16969Y15598
X17862Y15305
X18345Y15301
X18081Y14941
X17747Y14439
X17274Y13966
X18180Y13927
X18652Y12746
X18967Y12785
X19246Y13283
X19715Y13720
X19243Y14911
X21093Y14714
X21329Y15305
X21644Y15246
X22054Y15182
X21930Y15797
X21841Y13198
X20316Y11731
X20306Y11289
X20384Y10659
X20376Y10374
X20244Y9900
X20316Y9623
X20187Y9124
X20640Y8539
X19872Y7984
X19076Y7871
X18751Y7916
X18463Y7874
X18144Y7877
X17830Y7883
X18219Y8769
X18839Y8740
X19125Y8740
X19410Y8730
X19265Y9735
X19203Y10029
X19548Y10541
X19400Y11289
X19558Y11801
X18652Y11880
X18297Y11968
X18022Y12234
X18219Y11092
X18672Y11368
X17510Y10659
X17983Y10187
X17983Y9249
X17589Y9045
X17249Y8646
X16300Y8728
X17117Y9990
X16802Y13443
X16290Y13325
X16068Y13506
X15848Y13325
X15670Y13548
X15817Y14714
X16329Y14911
X16447Y14202
X18532Y17125
X18770Y17470
X18908Y17903
X18613Y17903
X18514Y19025
X18081Y18887
X18298Y23100
X18061Y23297
X17825Y23100
X17589Y23297
X17353Y23100
X17117Y23297
X16880Y23100
X16644Y23297
X16408Y23100
X16172Y23297
X15935Y23100
X15699Y23297
X15463Y23100
X15227Y23297
X14991Y23100
X14754Y23297
X14518Y23100
X14282Y23297
X14046Y23100
X13809Y23297
X13573Y23100
X13337Y23297
X13101Y23100
X12865Y23297
X12432Y23297
X12195Y23100
X11959Y23297
X11723Y23100
X11487Y23297
X11250Y23100
X11554Y22393
X12027Y22393
X13061Y20541
X13667Y20600
X13952Y20600
X13337Y18218
X13022Y18215
X12707Y18218
X12421Y18273
X11319Y15256
X13613Y10895
X13572Y10613
X21053Y10026
X21377Y9695
X21302Y9419
X21626Y9554
X22018Y9104
X22286Y9220
X22576Y9381
X22876Y9394
X22825Y9675
X22589Y10305
X22214Y10570
X22085Y8720
X22756Y8876
X23508Y9183
X23877Y9028
X23896Y9323
X23746Y9727
X24075Y9714
X24569Y9515
X25432Y9717
X25841Y9808
X25778Y9242
X26624Y9163
X26644Y9557
X26054Y8277
X26014Y7824
X24932Y7824
X24292Y8621
X23552Y8524
X22532Y7982
X21526Y8100
X25571Y10660
X25739Y10895
X25914Y11473
X26310Y11486
X26723Y11525
X25597Y12918
X25325Y13258
X25157Y14019
X24351Y14045
X24351Y14754
X24351Y15462
X24351Y16171
X24786Y16555
X25101Y16324
X25601Y16860
X26595Y17952
X25985Y18572
X26310Y19242
X26723Y19399
X26487Y19950
X26684Y20541
X26132Y20738
X26369Y21220
X25733Y20405
X25857Y19616
X26132Y22706
X26089Y23266
X25857Y23100
X25621Y23297
X25384Y23100
X25148Y23297
X24912Y23100
X24676Y23297
X24439Y23100
X24203Y23297
X23967Y23100
X23731Y23297
X23495Y23100
X23258Y23297
X23022Y23100
X22786Y23297
X22550Y23100
X22313Y23297
X22077Y23100
X21841Y23297
X21605Y23100
X21369Y23297
X21132Y23100
X20896Y23297
X20660Y23100
X20424Y23297
X20187Y23100
X19951Y23297
X19715Y23100
X19479Y23297
X19243Y23100
X19006Y23297
X18770Y23100
X18534Y23297
X24872Y12726
X11172Y12569
X10985Y12353
X10306Y12234
X10306Y11919
X10306Y11604
X10306Y11289
X10306Y10974
X10306Y10659
X10306Y10344
X10306Y10029
X10306Y9714
X10306Y9399
X10306Y9084
X10306Y8769
X10384Y8454
X10707Y8769
X10579Y9599
X10544Y10817
X10544Y11761
X11161Y11419
X11134Y13334
X10306Y13179
X10306Y12864
X10306Y12549
X10306Y13494
X10306Y13809
X10306Y14124
X10306Y14439
X10306Y14754
X10306Y15069
X10306Y15384
X10306Y15698
X10306Y16013
X10306Y16328
X10306Y16643
X10306Y16958
X10306Y17273
X10306Y17588
X10306Y17903
X10306Y18218
X10306Y18533
X10306Y18848
X10306Y19163
X10306Y19478
X11134Y19603
X11132Y20305
X10817Y20462
X10672Y20216
X10699Y20777
X10581Y21092
X10502Y21368
X10502Y21761
X10306Y22116
X10306Y22431
X10650Y22401
X11112Y22400
X11014Y23297
X10778Y23100
X10542Y23297
X10345Y22982
X10817Y18927
X11157Y18872
X10589Y15978
X10916Y14389
X11211Y14389
X10935Y7746
X10621Y7746
X10306Y7746
X11250Y7746
X11565Y7746
X11880Y7746
X12195Y7746
X12510Y7746
X12825Y7746
X13140Y7746
X13455Y7746
X13770Y7746
X14085Y7746
X14400Y7746
X14715Y7746
X15030Y7746
X15345Y7746
X15660Y7746
X15975Y7746
X16290Y7746
X16605Y7746
X16920Y7746
X17235Y7746
X19400Y7746
X19715Y7746
X20030Y7746
X20345Y7746
X20660Y7746
X22796Y7772
X23731Y7746
X24046Y7746
X24361Y7746
X26723Y7746
X31328Y20163
X31075Y20315
X30788Y20157
X30433Y20157
X30767Y21159
X30872Y21433
X30659Y21676
X31172Y21126
X30432Y22605
X30433Y23582
X30807Y23582
X31181Y23582
X33040Y1733
X30110Y1808
X31780Y1852
X35146Y1852
X34956Y2085
X33676Y2141
X33365Y2141
X30342Y2295
X31933Y2523
X31235Y2615
X33863Y2678
X34796Y2815
X35068Y3107
X30028Y3210
X30665Y3256
X31042Y3298
X32349Y3373
X33586Y3377
X35107Y3653
X33021Y3734
X34310Y3859
X32361Y3919
X31314Y3928
X33071Y4037
X35146Y4135
X30023Y4932
X34339Y5100
X32534Y5390
X31595Y5620
X33095Y5621
X32302Y5622
X32059Y5828
X35245Y5848
X32400Y5906
X31023Y6213
X33158Y6421
X31074Y6510
X35215Y6635
X31721Y6651
X31068Y6820
X34501Y6838
X33119Y6911
X32119Y6970
X31444Y7123
X34418Y7127
X33685Y7428
X30719Y7446
X30418Y7454
X35225Y7826
X30587Y8033
X30002Y8058
X30886Y8067
X30221Y8324
X31863Y8462
X32710Y8508
X33223Y8578
X34123Y8578
X34424Y8578
X34725Y8578
X35026Y8578
X33631Y8582
X32095Y8958
X32312Y9214
X35267Y11289
X33518Y11506
X30265Y11546
X30678Y11694
X33611Y11793
X31259Y11832
X31534Y11832
X31810Y11832
X30698Y12009
X35274Y12029
X31259Y12137
X31534Y12137
X30284Y12334
X30579Y1796
X30973Y1796
X31367Y1796
X32265Y1796
X32665Y1796
X33591Y12265
X33985Y12265
X34379Y12265
X34772Y12265
X20977Y31937
X19009Y31937
X22316Y31898
X20899Y31071
X19836Y30914
X19009Y30796
X22316Y30559
X21410Y30166
X20426Y30126
X19796Y29575
X19009Y29536
X22316Y29142
X21607Y28906
X19009Y28827
X20916Y28741
X19363Y28315
X20229Y27804
X19284Y27567
X22316Y27410
X19009Y27095
X21491Y26777
X20623Y26504
X19284Y26504
X19871Y32065
X19477Y32065
X22414Y26386
X21942Y26386
X21470Y26386
X20997Y26386
X397Y10739
X1033Y11011
X1418Y10797
X1847Y11438
X2183Y11478
X2773Y11281
X3029Y11005
X3560Y10887
X3856Y11281
X3364Y11478
X4545Y11478
X6120Y11478
X6100Y11005
X6392Y9894
X6367Y8847
X6079Y8525
X6004Y7472
X6120Y6360
X6120Y5572
X5116Y6045
X5110Y6690
X3864Y6630
X3954Y6163
X3474Y5995
X3757Y5572
X2589Y5994
X2417Y5298
X2025Y5257
X1631Y5257
X1725Y5939
X1236Y6249
X919Y5862
X489Y6259
X868Y6648
X1592Y6723
X2025Y6675
X1040Y7991
X411Y7991
X397Y8910
X397Y9765
X1039Y9542
X2064Y8958
X3511Y8565
X3560Y9312
X4070Y8879
X5068Y8290
X7025Y7344
X7092Y6412
X6710Y5966
X7301Y5572
X8088Y6399
X8256Y8398
X7850Y8440
X7840Y9227
X7437Y9492
X7514Y10929
X6879Y10520
X6646Y11360
X24861Y3767
X25068Y4111
X24566Y4230
X23168Y4200
T02
X630Y37795
X630Y1575
X907Y38463
X907Y37127
X907Y2243
X907Y907
X1575Y38740
X1575Y36850
X1575Y2520
X1575Y630
X2243Y38463
X2243Y37127
X2243Y2243
X2243Y907
X2520Y37795
X2520Y1575
X36850Y37795
X36850Y1575
X37127Y38463
X37127Y37127
X37127Y2243
X37127Y907
X37795Y38740
X37795Y36850
X37795Y2520
X37795Y630
X38463Y38463
X38463Y37127
X38463Y2243
X38463Y907
X38740Y37795
X38740Y1575
T03
X20857Y17195
X19164Y17313
X17432Y17273
X15542Y17313
X14400Y17313
X13219Y17313
X12707Y16840
T04
X12163Y5957
X12163Y5170
X13148Y5957
X13148Y5170
X509Y5434
X686Y11536
X2970Y5434
X4663Y5434
X5411Y5434
X5430Y11536
X7379Y11536
X7930Y5434
X8108Y11536
X19513Y1810
X19513Y810
X20513Y1810
X20513Y810
X21513Y1810
X21513Y810
X26563Y670
X27563Y670
X37323Y8410
X37323Y7410
X37323Y6410
X38323Y8410
X38323Y7410
X38323Y6410
X26408Y8061
X23266Y8821
X23266Y8021
X21266Y8421
X34261Y9119
X33079Y9907
X34261Y10694
X34339Y1993
X33939Y3993
X34739Y3993
X686Y11537
X5431Y11537
X5411Y5434
X4663Y5434
X2970Y5434
X509Y5434
X7931Y5434
X8108Y11537
X7379Y11537
T05
X4831Y36070
X4831Y34298
X6012Y36070
X6012Y34298
X7193Y36070
X7193Y34298
X8375Y36070
X8375Y34298
X9556Y36070
X9556Y34298
X10737Y36070
X10737Y34298
X11918Y36070
X11918Y34298
X13099Y36070
X13099Y34298
X15539Y36070
X15539Y34298
X16720Y36070
X16720Y34298
X17901Y36070
X17901Y34298
X19082Y36070
X19082Y34298
X20263Y36070
X20263Y34298
X21445Y36070
X21445Y34298
X22626Y36070
X22626Y34298
X23807Y36070
X23807Y34298
X24988Y36070
X24988Y34298
X26169Y36070
X26169Y34298
X27350Y36070
X27350Y34298
X28531Y36070
X28531Y34298
X29712Y36070
X29712Y34298
X30452Y8942
X30452Y9942
X30452Y10942
T06
X4449Y32283
X4449Y30630
X4449Y28976
X4449Y27323
X4449Y24567
X4449Y22913
X4449Y21260
X4449Y19606
X6614Y32283
X6614Y30630
X6614Y28976
X6614Y27323
X6614Y24567
X6614Y22913
X6614Y21260
X6614Y19606
X32756Y35039
X32756Y33386
X32756Y31732
X32756Y30079
X32756Y28425
X32756Y26772
X32756Y25118
X32756Y23465
X32756Y21811
X32756Y20157
X32756Y17470
X32756Y15817
X32756Y14163
X34921Y35039
X34921Y33386
X34921Y31732
X34921Y30079
X34921Y28425
X34921Y26772
X34921Y25118
X34921Y23465
X34921Y21811
X34921Y20157
X34921Y17470
X34921Y15817
X34921Y14163
T07
X10285Y4103
X15026Y4103
T08
X1575Y32283
X1575Y27323
X1575Y24567
X1575Y19606
X37795Y35039
X37795Y20157
X37795Y17470
X37795Y14163
T09
X1575Y37795
X1575Y1575
X37795Y37795
X37795Y1575
T10
X4831Y38320
X14381Y38320
X30701Y38320
M30
