M48
INCH,TZ
T01C0.011800
T02C0.031500
T03C0.039200
T04C0.043300
%
T01
X9890Y26872
X10283Y26872
X11409Y21193
X11882Y21193
X12000Y17000
X12354Y21193
X12374Y17000
X12394Y20425
X12748Y20425
X12748Y17000
X12827Y21193
X14165Y16331
X14559Y16331
X14953Y16331
X15346Y16331
X16273Y26800
X16673Y26800
X17571Y26800
X17965Y26800
X18358Y26800
X19504Y13102
X19504Y12709
X19504Y27276
X19504Y22669
X19504Y22354
X19504Y21134
X19504Y20740
X19504Y20346
X19504Y19953
X19504Y19559
X19504Y19165
X19504Y18772
X19504Y18378
X19504Y15622
X19661Y11724
X20606Y11724
X21079Y11724
X21551Y11724
X21866Y27276
X22024Y11724
X22181Y27276
X22496Y27276
X22496Y11724
X22969Y11724
X23441Y11724
X23913Y11724
X24386Y11724
X24858Y11724
X25331Y11724
X25567Y27276
X25803Y11724
X25882Y27276
X26197Y27276
X26276Y11724
X26512Y27276
X26748Y11724
X26827Y27276
X27220Y11724
X27693Y11724
X28165Y11724
X28638Y11724
X28992Y27276
X29110Y11724
X29307Y27276
X29583Y11724
X29622Y27276
X29937Y27276
X30055Y11724
X30252Y27276
X30528Y11724
X30567Y27276
X30882Y27276
X31000Y11724
X31197Y27276
X31472Y11724
X31512Y27276
X31827Y27276
X31945Y11724
X32142Y27276
X32417Y11724
X32457Y27276
X32772Y27276
X32890Y11724
X33087Y27276
X33362Y11724
X33402Y27276
X33717Y27276
X33795Y11724
X34031Y27276
X34268Y11724
X34346Y27276
X34661Y27276
X34740Y11724
X34976Y27276
X35213Y11724
X35291Y27276
X35606Y27276
X35685Y11724
X35921Y24677
X35921Y24362
X35921Y22787
X35921Y22472
X35921Y22157
X35921Y20898
X35921Y20583
X35921Y17118
X35921Y12906
X35921Y27276
X35921Y26252
X35921Y25937
X35921Y25622
X35921Y25307
X35921Y24992
X35921Y24047
X35921Y23732
X35921Y23417
X35921Y23102
X35921Y21843
X35921Y21528
X35921Y21213
X35921Y20268
X35921Y19953
X35921Y19638
X35921Y19323
X35921Y19008
X35921Y18693
X35921Y18378
X35921Y18063
X35921Y17748
X35921Y17433
X35921Y16803
X35921Y16488
X35921Y16173
X35921Y15858
X35921Y15543
X35921Y12591
X19662Y11724
X20129Y11729
X20377Y11894
X20606Y11724
X20850Y11894
X21079Y11724
X21322Y11894
X21551Y11724
X21795Y11894
X22024Y11724
X22267Y11894
X22496Y11724
X22739Y11894
X22969Y11724
X23212Y11894
X23441Y11724
X23684Y11894
X23914Y11724
X24157Y11894
X24386Y11724
X24629Y11894
X24858Y11724
X25102Y11894
X25331Y11724
X25574Y11894
X25803Y11724
X26276Y11724
X26177Y12019
X26433Y12197
X26748Y11724
X27221Y11724
X27693Y11724
X28166Y11724
X28638Y11724
X29110Y11724
X29583Y11724
X30055Y11724
X30528Y11724
X31000Y11724
X31473Y11724
X31945Y11724
X32418Y11724
X32890Y11724
X33362Y11724
X33795Y11724
X34268Y11724
X34740Y11724
X34858Y12078
X34091Y12137
X33284Y12118
X33835Y12984
X33914Y14913
X33205Y14913
X32260Y14913
X31551Y14913
X31788Y15858
X32732Y15858
X33205Y16330
X33795Y16094
X33677Y16803
X34268Y16567
X34858Y16803
X34622Y17748
X34150Y18220
X34150Y17275
X33677Y17748
X33205Y18220
X33205Y19165
X33914Y19165
X34386Y19637
X33441Y20110
X32732Y20110
X32536Y19874
X32496Y19165
X31788Y19165
X31433Y18968
X31177Y19362
X30429Y19303
X30429Y19588
X30451Y20158
X31177Y20425
X32142Y20346
X31276Y21568
X31315Y23141
X31689Y23535
X31925Y23752
X32260Y23889
X33559Y23791
X33914Y23417
X34032Y24126
X34699Y24342
X34681Y23791
X34977Y24747
X34681Y25523
X33441Y25779
X33067Y25976
X33559Y26488
X33685Y25004
X31433Y24598
X31315Y25307
X31669Y26015
X30488Y26015
X30370Y25740
X29799Y25248
X29465Y25248
X29071Y25779
X28579Y25464
X28087Y24893
X27063Y24559
X26571Y24204
X26571Y23614
X27056Y23589
X27341Y23590
X27654Y23653
X27673Y22689
X27231Y22543
X27197Y22826
X27485Y22208
X28284Y22295
X28500Y22098
X28126Y20819
X28008Y20110
X28441Y20267
X28658Y20464
X28782Y19365
X29084Y19317
X28599Y19145
X28303Y19086
X27988Y19067
X27162Y19072
X26591Y19165
X26000Y18929
X26040Y18368
X26059Y18043
X26768Y17925
X26847Y17374
X26673Y16649
X26387Y16645
X25903Y16850
X25843Y16114
X25823Y15779
X25803Y15464
X26473Y15622
X26768Y15622
X26630Y15189
X27437Y15484
X27417Y16114
X27378Y16921
X27772Y17275
X27654Y17748
X27752Y18043
X28323Y18122
X28362Y17039
X28677Y17334
X28953Y16803
X29425Y16330
X30016Y16567
X30114Y17275
X29622Y17275
X30606Y17748
X30390Y18004
X31079Y18220
X32024Y18220
X31551Y17748
X31079Y17275
X30606Y16803
X30606Y15858
X29898Y15858
X30134Y14913
X29543Y14677
X29425Y13968
X30134Y13968
X30606Y14441
X31315Y13968
X32024Y13968
X32260Y16330
X32732Y16803
X33205Y17275
X32732Y17748
X32260Y17275
X31788Y16803
X31315Y16330
X29189Y15386
X28953Y14441
X28244Y14441
X28126Y15149
X27536Y14913
X27654Y14204
X27063Y14441
X26473Y14204
X25001Y14421
X24036Y14332
X23206Y14484
X23173Y13408
X22747Y13408
X22181Y13220
X21866Y13220
X22024Y12905
X21284Y13408
X20857Y13408
X20292Y13220
X19504Y13102
X19504Y12708
X19563Y12137
X19858Y12137
X19583Y13752
X19858Y14697
X19583Y15031
X19504Y15622
X19632Y16114
X20252Y16114
X20213Y15464
X21177Y15622
X21852Y15479
X21827Y16114
X21788Y16921
X21512Y17512
X22103Y17748
X21866Y18693
X21158Y18693
X20646Y18397
X20547Y18949
X19898Y18949
X19504Y18771
X19504Y19165
X19504Y19559
X19504Y19952
X19504Y20346
X19504Y20740
X19504Y21134
X19603Y21468
X20213Y21212
X20528Y21173
X20862Y21389
X20764Y20504
X21414Y20405
X21315Y20071
X21000Y19342
X20921Y17748
X20797Y16645
X21082Y16649
X20313Y16850
X19740Y17275
X19622Y17984
X19504Y18378
X22457Y18929
X23421Y18830
X23599Y19500
X23284Y19992
X22929Y19775
X23500Y20582
X24190Y20788
X24110Y21271
X25114Y21252
X25114Y21823
X25114Y22118
X25110Y22807
X25095Y23673
X25921Y23889
X25646Y24657
X24799Y24657
X25114Y25386
X24762Y25740
X24681Y26035
X24209Y26035
X23717Y26035
X23402Y26015
X23599Y25740
X23727Y25415
X23658Y24460
X23618Y23850
X23471Y23240
X24160Y23200
X24150Y22807
X24160Y22394
X23471Y22393
X22693Y22236
X22496Y21760
X22496Y21468
X22516Y21173
X22361Y23029
X22472Y23453
X21482Y23852
X20587Y23870
X20547Y24165
X20508Y25051
X20331Y25996
X19642Y25760
X19701Y24323
X19780Y23535
X19504Y22669
X19504Y22354
X20902Y22925
X21394Y22767
X21473Y22439
X21945Y24756
X21945Y25650
X22679Y25900
X22432Y26470
X23343Y27177
X23756Y27138
X24110Y27177
X24780Y27000
X26236Y26960
X27536Y27157
X28047Y26882
X28559Y27138
X29780Y26960
X32103Y26882
X32732Y22945
X33205Y22472
X33795Y22236
X34721Y22118
X34705Y21471
X34504Y22708
X32555Y22118
X30293Y22864
X30567Y23378
X29838Y23330
X29524Y22826
X29425Y23889
X29089Y23673
X27063Y21527
X26571Y21409
X26571Y21695
X25921Y22000
X25888Y20729
X25862Y20445
X25134Y20307
X24799Y18850
X24445Y18378
X23874Y17984
X23402Y17512
X23108Y16850
X23592Y16645
X23877Y16649
X24583Y16921
X24937Y17275
X25055Y17984
X24622Y16114
X24642Y15169
X23973Y15622
X23677Y15622
X23003Y15464
X23047Y16114
X22146Y14332
X21551Y14657
X21241Y14421
X20270Y14332
X23756Y13220
X24094Y13198
X24776Y13418
X25063Y13408
X25646Y13220
X28480Y15858
X29504Y18732
X27417Y19874
X26354Y25307
X25684Y26012
X21040Y27157
X30331Y12197
X35213Y11724
X35685Y11724
X35784Y12078
X35921Y12590
X35921Y12905
X35843Y13240
X35321Y12590
X35784Y15149
X35921Y15543
X35921Y15858
X35921Y16173
X35921Y16488
X35921Y16803
X35921Y17118
X35921Y17433
X35921Y17748
X35921Y18063
X35921Y18378
X35921Y18693
X35921Y19008
X35921Y19323
X35921Y19637
X35921Y19952
X35921Y20267
X35921Y20582
X35921Y20897
X35921Y21212
X35921Y21527
X35921Y21842
X35921Y22157
X35921Y22472
X35921Y22787
X35921Y23102
X35921Y23417
X35921Y23732
X35921Y24047
X35921Y24362
X35921Y24677
X35921Y24992
X35921Y25307
X35921Y25622
X35921Y25937
X35921Y26252
X35823Y26744
X35055Y26508
X35055Y25543
X35272Y20189
X35272Y19441
X35095Y18220
X35331Y17275
X35331Y16330
X35292Y27275
X35606Y27275
X35921Y27275
X34977Y27275
X34662Y27275
X34347Y27275
X34032Y27275
X33717Y27275
X33402Y27275
X33087Y27275
X32772Y27275
X32457Y27275
X32142Y27275
X31827Y27275
X31512Y27275
X31197Y27275
X30882Y27275
X30567Y27275
X30252Y27275
X29937Y27275
X29622Y27275
X29307Y27275
X28992Y27275
X26827Y27275
X26512Y27275
X26197Y27275
X25882Y27275
X25567Y27275
X25272Y27236
X22496Y27275
X22181Y27275
X21866Y27275
X19504Y27275
X15898Y26863
X18828Y26788
X17158Y26744
X13792Y26744
X13982Y26511
X15262Y26455
X15573Y26455
X18596Y26301
X17005Y26073
X17703Y25981
X15075Y25918
X14142Y25781
X13870Y25489
X18910Y25386
X18273Y25340
X17896Y25298
X16589Y25223
X15352Y25219
X13831Y24943
X15917Y24862
X14628Y24737
X16577Y24677
X17624Y24668
X15867Y24559
X13792Y24461
X18915Y23664
X14599Y23496
X16404Y23206
X17343Y22976
X15843Y22975
X16636Y22974
X16879Y22768
X13693Y22748
X16538Y22690
X17915Y22383
X15780Y22175
X17864Y22086
X13723Y21961
X17217Y21945
X17870Y21776
X14437Y21758
X15819Y21685
X16819Y21626
X17494Y21473
X14520Y21469
X15253Y21168
X18219Y21150
X18520Y21142
X13713Y20770
X18351Y20563
X18936Y20538
X18052Y20529
X18717Y20272
X17075Y20134
X16228Y20088
X15715Y20018
X14815Y20018
X14514Y20018
X14213Y20018
X13912Y20018
X15307Y20014
X16843Y19638
X16626Y19382
X13671Y17307
X15420Y17090
X18673Y17050
X18260Y16902
X15327Y16803
X17679Y16764
X17404Y16764
X17128Y16764
X18240Y16587
X13664Y16567
X17679Y16459
X17404Y16459
X18654Y16262
X18359Y26800
X17965Y26800
X17571Y26800
X16673Y26800
X16273Y26800
X15347Y16331
X14953Y16331
X14559Y16331
X14166Y16331
X11389Y26744
X9421Y26744
X12728Y26705
X11311Y25878
X10248Y25721
X9421Y25603
X12728Y25366
X11822Y24973
X10838Y24933
X10208Y24382
X9421Y24343
X12728Y23949
X12019Y23713
X9421Y23634
X11328Y23548
X9775Y23122
X10641Y22611
X9696Y22374
X12728Y22217
X9421Y21902
X11903Y21584
X11035Y21311
X9696Y21311
X10283Y26872
X9889Y26872
X12826Y21193
X12354Y21193
X11882Y21193
X11409Y21193
X11853Y20419
X12106Y20267
X12393Y20425
X12748Y20425
X12414Y19423
X12309Y19149
X12522Y18906
X12009Y19456
X12749Y17977
X12748Y17000
X12374Y17000
X12000Y17000
T02
X28835Y13968
X28835Y15149
X28835Y16330
X30803Y16330
X30803Y15149
X30803Y13968
X32772Y13968
X32772Y15149
X32772Y16330
X34740Y16330
X34740Y15149
X34740Y13968
T03
X19819Y26960
X22961Y26200
X22961Y27000
X24961Y26600
X14677Y19477
X15859Y18689
X14677Y17902
X14599Y26603
X14999Y24603
X14199Y24603
T04
X18486Y19654
X18486Y18654
X18486Y17654
M30
