G75*
G70*
%OFA0B0*%
%FSLAX25Y25*%
%IPPOS*%
%LPD*%
%AMOC8*
5,1,8,0,0,1.08239X$1,22.5*
%
%AMM128*
21,1,0.035430,0.030320,-0.000000,0.000000,270.000000*
21,1,0.028350,0.037400,-0.000000,0.000000,270.000000*
1,1,0.007090,-0.015160,-0.014170*
1,1,0.007090,-0.015160,0.014170*
1,1,0.007090,0.015160,0.014170*
1,1,0.007090,0.015160,-0.014170*
%
%AMM151*
21,1,0.035430,0.030320,-0.000000,-0.000000,270.000000*
21,1,0.028350,0.037400,-0.000000,-0.000000,270.000000*
1,1,0.007090,-0.015160,-0.014170*
1,1,0.007090,-0.015160,0.014170*
1,1,0.007090,0.015160,0.014170*
1,1,0.007090,0.015160,-0.014170*
%
%AMM152*
21,1,0.043310,0.075980,-0.000000,-0.000000,180.000000*
21,1,0.034650,0.084650,-0.000000,-0.000000,180.000000*
1,1,0.008660,-0.017320,0.037990*
1,1,0.008660,0.017320,0.037990*
1,1,0.008660,0.017320,-0.037990*
1,1,0.008660,-0.017320,-0.037990*
%
%AMM153*
21,1,0.043310,0.075990,-0.000000,-0.000000,180.000000*
21,1,0.034650,0.084650,-0.000000,-0.000000,180.000000*
1,1,0.008660,-0.017320,0.037990*
1,1,0.008660,0.017320,0.037990*
1,1,0.008660,0.017320,-0.037990*
1,1,0.008660,-0.017320,-0.037990*
%
%AMM154*
21,1,0.137800,0.067720,-0.000000,-0.000000,180.000000*
21,1,0.120870,0.084650,-0.000000,-0.000000,180.000000*
1,1,0.016930,-0.060430,0.033860*
1,1,0.016930,0.060430,0.033860*
1,1,0.016930,0.060430,-0.033860*
1,1,0.016930,-0.060430,-0.033860*
%
%AMM155*
21,1,0.039370,0.035430,-0.000000,-0.000000,180.000000*
21,1,0.031500,0.043310,-0.000000,-0.000000,180.000000*
1,1,0.007870,-0.015750,0.017720*
1,1,0.007870,0.015750,0.017720*
1,1,0.007870,0.015750,-0.017720*
1,1,0.007870,-0.015750,-0.017720*
%
%AMM156*
21,1,0.023620,0.030710,-0.000000,-0.000000,0.000000*
21,1,0.018900,0.035430,-0.000000,-0.000000,0.000000*
1,1,0.004720,0.009450,-0.015350*
1,1,0.004720,-0.009450,-0.015350*
1,1,0.004720,-0.009450,0.015350*
1,1,0.004720,0.009450,0.015350*
%
%AMM157*
21,1,0.027560,0.018900,-0.000000,-0.000000,0.000000*
21,1,0.022840,0.023620,-0.000000,-0.000000,0.000000*
1,1,0.004720,0.011420,-0.009450*
1,1,0.004720,-0.011420,-0.009450*
1,1,0.004720,-0.011420,0.009450*
1,1,0.004720,0.011420,0.009450*
%
%AMM158*
21,1,0.023620,0.030710,-0.000000,-0.000000,90.000000*
21,1,0.018900,0.035430,-0.000000,-0.000000,90.000000*
1,1,0.004720,0.015350,0.009450*
1,1,0.004720,0.015350,-0.009450*
1,1,0.004720,-0.015350,-0.009450*
1,1,0.004720,-0.015350,0.009450*
%
%AMM159*
21,1,0.086610,0.073230,-0.000000,-0.000000,270.000000*
21,1,0.069290,0.090550,-0.000000,-0.000000,270.000000*
1,1,0.017320,-0.036610,-0.034650*
1,1,0.017320,-0.036610,0.034650*
1,1,0.017320,0.036610,0.034650*
1,1,0.017320,0.036610,-0.034650*
%
%AMM160*
21,1,0.025590,0.026380,-0.000000,-0.000000,270.000000*
21,1,0.020470,0.031500,-0.000000,-0.000000,270.000000*
1,1,0.005120,-0.013190,-0.010240*
1,1,0.005120,-0.013190,0.010240*
1,1,0.005120,0.013190,0.010240*
1,1,0.005120,0.013190,-0.010240*
%
%AMM161*
21,1,0.017720,0.027950,-0.000000,-0.000000,270.000000*
21,1,0.014170,0.031500,-0.000000,-0.000000,270.000000*
1,1,0.003540,-0.013980,-0.007090*
1,1,0.003540,-0.013980,0.007090*
1,1,0.003540,0.013980,0.007090*
1,1,0.003540,0.013980,-0.007090*
%
%AMM162*
21,1,0.031500,0.072440,-0.000000,-0.000000,270.000000*
21,1,0.025200,0.078740,-0.000000,-0.000000,270.000000*
1,1,0.006300,-0.036220,-0.012600*
1,1,0.006300,-0.036220,0.012600*
1,1,0.006300,0.036220,0.012600*
1,1,0.006300,0.036220,-0.012600*
%
%AMM163*
21,1,0.012600,0.028980,-0.000000,-0.000000,270.000000*
21,1,0.010080,0.031500,-0.000000,-0.000000,270.000000*
1,1,0.002520,-0.014490,-0.005040*
1,1,0.002520,-0.014490,0.005040*
1,1,0.002520,0.014490,0.005040*
1,1,0.002520,0.014490,-0.005040*
%
%AMM164*
21,1,0.012600,0.028980,-0.000000,-0.000000,0.000000*
21,1,0.010080,0.031500,-0.000000,-0.000000,0.000000*
1,1,0.002520,0.005040,-0.014490*
1,1,0.002520,-0.005040,-0.014490*
1,1,0.002520,-0.005040,0.014490*
1,1,0.002520,0.005040,0.014490*
%
%AMM165*
21,1,0.039370,0.035430,-0.000000,-0.000000,90.000000*
21,1,0.031500,0.043310,-0.000000,-0.000000,90.000000*
1,1,0.007870,0.017720,0.015750*
1,1,0.007870,0.017720,-0.015750*
1,1,0.007870,-0.017720,-0.015750*
1,1,0.007870,-0.017720,0.015750*
%
%AMM166*
21,1,0.027560,0.018900,-0.000000,-0.000000,270.000000*
21,1,0.022840,0.023620,-0.000000,-0.000000,270.000000*
1,1,0.004720,-0.009450,-0.011420*
1,1,0.004720,-0.009450,0.011420*
1,1,0.004720,0.009450,0.011420*
1,1,0.004720,0.009450,-0.011420*
%
%AMM207*
21,1,0.021650,0.052760,-0.000000,0.000000,0.000000*
21,1,0.017320,0.057090,-0.000000,0.000000,0.000000*
1,1,0.004330,0.008660,-0.026380*
1,1,0.004330,-0.008660,-0.026380*
1,1,0.004330,-0.008660,0.026380*
1,1,0.004330,0.008660,0.026380*
%
%AMM221*
21,1,0.033470,0.026770,-0.000000,0.000000,90.000000*
21,1,0.026770,0.033470,-0.000000,0.000000,90.000000*
1,1,0.006690,0.013390,0.013390*
1,1,0.006690,0.013390,-0.013390*
1,1,0.006690,-0.013390,-0.013390*
1,1,0.006690,-0.013390,0.013390*
%
%AMM275*
21,1,0.086610,0.073230,0.000000,-0.000000,180.000000*
21,1,0.069290,0.090550,0.000000,-0.000000,180.000000*
1,1,0.017320,-0.034650,0.036610*
1,1,0.017320,0.034650,0.036610*
1,1,0.017320,0.034650,-0.036610*
1,1,0.017320,-0.034650,-0.036610*
%
%AMM276*
21,1,0.094490,0.111020,0.000000,-0.000000,270.000000*
21,1,0.075590,0.129920,0.000000,-0.000000,270.000000*
1,1,0.018900,-0.055510,-0.037800*
1,1,0.018900,-0.055510,0.037800*
1,1,0.018900,0.055510,0.037800*
1,1,0.018900,0.055510,-0.037800*
%
%AMM277*
21,1,0.074800,0.083460,0.000000,-0.000000,270.000000*
21,1,0.059840,0.098430,0.000000,-0.000000,270.000000*
1,1,0.014960,-0.041730,-0.029920*
1,1,0.014960,-0.041730,0.029920*
1,1,0.014960,0.041730,0.029920*
1,1,0.014960,0.041730,-0.029920*
%
%AMM278*
21,1,0.078740,0.053540,0.000000,-0.000000,90.000000*
21,1,0.065350,0.066930,0.000000,-0.000000,90.000000*
1,1,0.013390,0.026770,0.032680*
1,1,0.013390,0.026770,-0.032680*
1,1,0.013390,-0.026770,-0.032680*
1,1,0.013390,-0.026770,0.032680*
%
%AMM279*
21,1,0.035430,0.030320,0.000000,-0.000000,0.000000*
21,1,0.028350,0.037400,0.000000,-0.000000,0.000000*
1,1,0.007090,0.014170,-0.015160*
1,1,0.007090,-0.014170,-0.015160*
1,1,0.007090,-0.014170,0.015160*
1,1,0.007090,0.014170,0.015160*
%
%AMM280*
21,1,0.021650,0.052760,0.000000,-0.000000,180.000000*
21,1,0.017320,0.057090,0.000000,-0.000000,180.000000*
1,1,0.004330,-0.008660,0.026380*
1,1,0.004330,0.008660,0.026380*
1,1,0.004330,0.008660,-0.026380*
1,1,0.004330,-0.008660,-0.026380*
%
%AMM281*
21,1,0.035830,0.026770,0.000000,-0.000000,270.000000*
21,1,0.029130,0.033470,0.000000,-0.000000,270.000000*
1,1,0.006690,-0.013390,-0.014570*
1,1,0.006690,-0.013390,0.014570*
1,1,0.006690,0.013390,0.014570*
1,1,0.006690,0.013390,-0.014570*
%
%AMM282*
21,1,0.070870,0.036220,0.000000,-0.000000,0.000000*
21,1,0.061810,0.045280,0.000000,-0.000000,0.000000*
1,1,0.009060,0.030910,-0.018110*
1,1,0.009060,-0.030910,-0.018110*
1,1,0.009060,-0.030910,0.018110*
1,1,0.009060,0.030910,0.018110*
%
%AMM283*
21,1,0.033470,0.026770,0.000000,-0.000000,270.000000*
21,1,0.026770,0.033470,0.000000,-0.000000,270.000000*
1,1,0.006690,-0.013390,-0.013390*
1,1,0.006690,-0.013390,0.013390*
1,1,0.006690,0.013390,0.013390*
1,1,0.006690,0.013390,-0.013390*
%
%AMM284*
21,1,0.015750,0.016540,0.000000,-0.000000,180.000000*
21,1,0.012600,0.019680,0.000000,-0.000000,180.000000*
1,1,0.003150,-0.006300,0.008270*
1,1,0.003150,0.006300,0.008270*
1,1,0.003150,0.006300,-0.008270*
1,1,0.003150,-0.006300,-0.008270*
%
%AMM285*
21,1,0.023620,0.018900,0.000000,-0.000000,0.000000*
21,1,0.018900,0.023620,0.000000,-0.000000,0.000000*
1,1,0.004720,0.009450,-0.009450*
1,1,0.004720,-0.009450,-0.009450*
1,1,0.004720,-0.009450,0.009450*
1,1,0.004720,0.009450,0.009450*
%
%AMM286*
21,1,0.019680,0.019680,0.000000,-0.000000,270.000000*
21,1,0.015750,0.023620,0.000000,-0.000000,270.000000*
1,1,0.003940,-0.009840,-0.007870*
1,1,0.003940,-0.009840,0.007870*
1,1,0.003940,0.009840,0.007870*
1,1,0.003940,0.009840,-0.007870*
%
%AMM287*
21,1,0.019680,0.019680,0.000000,-0.000000,180.000000*
21,1,0.015750,0.023620,0.000000,-0.000000,180.000000*
1,1,0.003940,-0.007870,0.009840*
1,1,0.003940,0.007870,0.009840*
1,1,0.003940,0.007870,-0.009840*
1,1,0.003940,-0.007870,-0.009840*
%
%AMM311*
21,1,0.027560,0.030710,-0.000000,0.000000,270.000000*
21,1,0.022050,0.036220,-0.000000,0.000000,270.000000*
1,1,0.005510,-0.015350,-0.011020*
1,1,0.005510,-0.015350,0.011020*
1,1,0.005510,0.015350,0.011020*
1,1,0.005510,0.015350,-0.011020*
%
%ADD10C,0.02362*%
%ADD100O,0.01181X0.04331*%
%ADD101O,0.04331X0.01181*%
%ADD103O,0.08661X0.02362*%
%ADD105R,0.01476X0.01378*%
%ADD106R,0.01378X0.01476*%
%ADD196R,0.03543X0.03150*%
%ADD20C,0.03150*%
%ADD200R,0.03150X0.03543*%
%ADD264R,0.01181X0.05512*%
%ADD287O,0.02362X0.08661*%
%ADD29R,0.00787X0.09055*%
%ADD30R,0.00787X0.21260*%
%ADD309M128*%
%ADD31R,0.00787X0.33858*%
%ADD32R,0.00787X0.19685*%
%ADD33R,0.05512X0.00787*%
%ADD339M151*%
%ADD34R,0.19685X0.00787*%
%ADD340M152*%
%ADD341M153*%
%ADD342M154*%
%ADD343M155*%
%ADD344M156*%
%ADD345M157*%
%ADD346M158*%
%ADD347M159*%
%ADD348M160*%
%ADD349M161*%
%ADD35R,0.26772X0.00787*%
%ADD350M162*%
%ADD351M163*%
%ADD352M164*%
%ADD353M165*%
%ADD354M166*%
%ADD36R,0.17717X0.00787*%
%ADD37R,0.00787X0.06299*%
%ADD38R,0.00787X0.22441*%
%ADD39R,0.00787X0.07874*%
%ADD395M207*%
%ADD405R,0.08661X0.04724*%
%ADD409R,0.12008X0.10827*%
%ADD416M221*%
%ADD473M275*%
%ADD474M276*%
%ADD475M277*%
%ADD476M278*%
%ADD477M279*%
%ADD478M280*%
%ADD479M281*%
%ADD480M282*%
%ADD481M283*%
%ADD482M284*%
%ADD483M285*%
%ADD484M286*%
%ADD485M287*%
%ADD509M311*%
%ADD66O,0.00000X0.00000*%
%ADD86O,0.00866X0.05118*%
%ADD87O,0.05118X0.00866*%
X0000000Y0000000D02*
%LPD*%
G01*
D66*
X0255009Y0035900D03*
X0230835Y0322130D02*
%LPD*%
G01*
D264*
X0243827Y0288272D03*
X0241859Y0288272D03*
X0239890Y0288272D03*
X0237922Y0288272D03*
X0235953Y0288272D03*
X0235953Y0270949D03*
X0237922Y0270949D03*
X0239890Y0270949D03*
X0241859Y0270949D03*
X0243827Y0270949D03*
G36*
G01*
X0257016Y0280752D02*
X0257016Y0277681D01*
G75*
G02*
X0256741Y0277406I-000276J0000000D01*
G01*
X0254536Y0277406D01*
G75*
G02*
X0254260Y0277681I0000000J0000276D01*
G01*
X0254260Y0280752D01*
G75*
G02*
X0254536Y0281028I0000276J0000000D01*
G01*
X0256741Y0281028D01*
G75*
G02*
X0257016Y0280752I0000000J-000276D01*
G01*
G37*
G36*
G01*
X0250717Y0280752D02*
X0250717Y0277681D01*
G75*
G02*
X0250441Y0277406I-000276J0000000D01*
G01*
X0248237Y0277406D01*
G75*
G02*
X0247961Y0277681I0000000J0000276D01*
G01*
X0247961Y0280752D01*
G75*
G02*
X0248237Y0281028I0000276J0000000D01*
G01*
X0250441Y0281028D01*
G75*
G02*
X0250717Y0280752I0000000J-000276D01*
G01*
G37*
G36*
G01*
X0263670Y0266421D02*
X0260599Y0266421D01*
G75*
G02*
X0260323Y0266697I0000000J0000276D01*
G01*
X0260323Y0268902D01*
G75*
G02*
X0260599Y0269177I0000276J0000000D01*
G01*
X0263670Y0269177D01*
G75*
G02*
X0263945Y0268902I0000000J-000276D01*
G01*
X0263945Y0266697D01*
G75*
G02*
X0263670Y0266421I-000276J0000000D01*
G01*
G37*
G36*
G01*
X0263670Y0272721D02*
X0260599Y0272721D01*
G75*
G02*
X0260323Y0272996I0000000J0000276D01*
G01*
X0260323Y0275201D01*
G75*
G02*
X0260599Y0275476I0000276J0000000D01*
G01*
X0263670Y0275476D01*
G75*
G02*
X0263945Y0275201I0000000J-000276D01*
G01*
X0263945Y0272996D01*
G75*
G02*
X0263670Y0272721I-000276J0000000D01*
G01*
G37*
G36*
G01*
X0257016Y0286658D02*
X0257016Y0283587D01*
G75*
G02*
X0256741Y0283311I-000276J0000000D01*
G01*
X0254536Y0283311D01*
G75*
G02*
X0254260Y0283587I0000000J0000276D01*
G01*
X0254260Y0286658D01*
G75*
G02*
X0254536Y0286933I0000276J0000000D01*
G01*
X0256741Y0286933D01*
G75*
G02*
X0257016Y0286658I0000000J-000276D01*
G01*
G37*
G36*
G01*
X0250717Y0286658D02*
X0250717Y0283587D01*
G75*
G02*
X0250441Y0283311I-000276J0000000D01*
G01*
X0248237Y0283311D01*
G75*
G02*
X0247961Y0283587I0000000J0000276D01*
G01*
X0247961Y0286658D01*
G75*
G02*
X0248237Y0286933I0000276J0000000D01*
G01*
X0250441Y0286933D01*
G75*
G02*
X0250717Y0286658I0000000J-000276D01*
G01*
G37*
G36*
G01*
X0263340Y0278331D02*
X0261322Y0278331D01*
G75*
G02*
X0260461Y0279192I0000000J0000861D01*
G01*
X0260461Y0280914D01*
G75*
G02*
X0261322Y0281776I0000861J0000000D01*
G01*
X0263340Y0281776D01*
G75*
G02*
X0264201Y0280914I0000000J-000861D01*
G01*
X0264201Y0279192D01*
G75*
G02*
X0263340Y0278331I-000861J0000000D01*
G01*
G37*
G36*
G01*
X0263340Y0284532D02*
X0261322Y0284532D01*
G75*
G02*
X0260461Y0285393I0000000J0000861D01*
G01*
X0260461Y0287115D01*
G75*
G02*
X0261322Y0287976I0000861J0000000D01*
G01*
X0263340Y0287976D01*
G75*
G02*
X0264201Y0287115I0000000J-000861D01*
G01*
X0264201Y0285393D01*
G75*
G02*
X0263340Y0284532I-000861J0000000D01*
G01*
G37*
G36*
G01*
X0256378Y0272386D02*
X0253701Y0272386D01*
G75*
G02*
X0253366Y0272721I0000000J0000335D01*
G01*
X0253366Y0275398D01*
G75*
G02*
X0253701Y0275732I0000335J0000000D01*
G01*
X0256378Y0275732D01*
G75*
G02*
X0256713Y0275398I0000000J-000335D01*
G01*
X0256713Y0272721D01*
G75*
G02*
X0256378Y0272386I-000335J0000000D01*
G01*
G37*
G36*
G01*
X0256378Y0266165D02*
X0253701Y0266165D01*
G75*
G02*
X0253366Y0266500I0000000J0000335D01*
G01*
X0253366Y0269177D01*
G75*
G02*
X0253701Y0269512I0000335J0000000D01*
G01*
X0256378Y0269512D01*
G75*
G02*
X0256713Y0269177I0000000J-000335D01*
G01*
X0256713Y0266500D01*
G75*
G02*
X0256378Y0266165I-000335J0000000D01*
G01*
G37*
G36*
G01*
X0251071Y0266165D02*
X0248394Y0266165D01*
G75*
G02*
X0248059Y0266500I0000000J0000335D01*
G01*
X0248059Y0269177D01*
G75*
G02*
X0248394Y0269512I0000335J0000000D01*
G01*
X0251071Y0269512D01*
G75*
G02*
X0251406Y0269177I0000000J-000335D01*
G01*
X0251406Y0266500D01*
G75*
G02*
X0251071Y0266165I-000335J0000000D01*
G01*
G37*
G36*
G01*
X0251071Y0272386D02*
X0248394Y0272386D01*
G75*
G02*
X0248059Y0272721I0000000J0000335D01*
G01*
X0248059Y0275398D01*
G75*
G02*
X0248394Y0275732I0000335J0000000D01*
G01*
X0251071Y0275732D01*
G75*
G02*
X0251406Y0275398I0000000J-000335D01*
G01*
X0251406Y0272721D01*
G75*
G02*
X0251071Y0272386I-000335J0000000D01*
G01*
G37*
G36*
G01*
X0257272Y0291579D02*
X0257272Y0288902D01*
G75*
G02*
X0256937Y0288567I-000335J0000000D01*
G01*
X0254260Y0288567D01*
G75*
G02*
X0253926Y0288902I0000000J0000335D01*
G01*
X0253926Y0291579D01*
G75*
G02*
X0254260Y0291913I0000335J0000000D01*
G01*
X0256937Y0291913D01*
G75*
G02*
X0257272Y0291579I0000000J-000335D01*
G01*
G37*
G36*
G01*
X0251052Y0291579D02*
X0251052Y0288902D01*
G75*
G02*
X0250717Y0288567I-000335J0000000D01*
G01*
X0248040Y0288567D01*
G75*
G02*
X0247705Y0288902I0000000J0000335D01*
G01*
X0247705Y0291579D01*
G75*
G02*
X0248040Y0291913I0000335J0000000D01*
G01*
X0250717Y0291913D01*
G75*
G02*
X0251052Y0291579I0000000J-000335D01*
G01*
G37*
X0268410Y0234146D02*
G01*
G75*
D30*
X0268016Y0206587D02*
D03*
D29*
X0268016Y0229618D02*
D03*
D32*
X0268016Y0182178D02*
D03*
D39*
X0102268Y0230209D02*
D03*
D34*
X0255418Y0076666D02*
D03*
D35*
X0221953Y0076666D02*
D03*
D36*
X0183174Y0076666D02*
D03*
D38*
X0102268Y0207965D02*
D03*
D37*
X0102268Y0082571D02*
D03*
D33*
X0260930Y0233752D02*
D03*
D31*
X0268016Y0096351D02*
D03*
D86*
X0200005Y0083063D02*
D03*
X0198036Y0083063D02*
D03*
X0196068Y0083063D02*
D03*
X0194099Y0083063D02*
D03*
X0192131Y0083063D02*
D03*
X0190162Y0083063D02*
D03*
X0188194Y0083063D02*
D03*
X0186225Y0083063D02*
D03*
X0184257Y0083063D02*
D03*
X0182288Y0083063D02*
D03*
X0180320Y0083063D02*
D03*
X0178351Y0083063D02*
D03*
X0176382Y0083063D02*
D03*
X0174414Y0083063D02*
D03*
X0172445Y0083063D02*
D03*
X0170477Y0083063D02*
D03*
X0168508Y0083063D02*
D03*
X0166540Y0083063D02*
D03*
X0164571Y0083063D02*
D03*
X0162603Y0083063D02*
D03*
X0160634Y0083063D02*
D03*
X0158666Y0083063D02*
D03*
X0156697Y0083063D02*
D03*
X0154729Y0083063D02*
D03*
X0152760Y0083063D02*
D03*
X0150792Y0083063D02*
D03*
X0148823Y0083063D02*
D03*
X0146855Y0083063D02*
D03*
X0144886Y0083063D02*
D03*
X0142918Y0083063D02*
D03*
X0140949Y0083063D02*
D03*
X0138981Y0083063D02*
D03*
X0137012Y0083063D02*
D03*
X0135044Y0083063D02*
D03*
X0133075Y0083063D02*
D03*
X0131107Y0083063D02*
D03*
X0131107Y0166725D02*
D03*
X0133075Y0166725D02*
D03*
X0135044Y0166725D02*
D03*
X0137012Y0166725D02*
D03*
X0138981Y0166725D02*
D03*
X0140949Y0166725D02*
D03*
X0142918Y0166725D02*
D03*
X0144886Y0166725D02*
D03*
X0146855Y0166725D02*
D03*
X0148823Y0166725D02*
D03*
X0150792Y0166725D02*
D03*
X0152760Y0166725D02*
D03*
X0154729Y0166725D02*
D03*
X0156697Y0166725D02*
D03*
X0158666Y0166725D02*
D03*
X0160634Y0166725D02*
D03*
X0162603Y0166725D02*
D03*
X0164571Y0166725D02*
D03*
X0166540Y0166725D02*
D03*
X0168508Y0166725D02*
D03*
X0170477Y0166725D02*
D03*
X0172445Y0166725D02*
D03*
X0174414Y0166725D02*
D03*
X0176382Y0166725D02*
D03*
X0178351Y0166725D02*
D03*
X0180320Y0166725D02*
D03*
X0182288Y0166725D02*
D03*
X0184257Y0166725D02*
D03*
X0186225Y0166725D02*
D03*
X0188194Y0166725D02*
D03*
X0190162Y0166725D02*
D03*
X0192131Y0166725D02*
D03*
X0194099Y0166725D02*
D03*
X0196068Y0166725D02*
D03*
X0198036Y0166725D02*
D03*
X0200005Y0166725D02*
D03*
D87*
X0123725Y0090445D02*
D03*
X0123725Y0092414D02*
D03*
X0123725Y0094382D02*
D03*
X0123725Y0096351D02*
D03*
X0123725Y0098319D02*
D03*
X0123725Y0100288D02*
D03*
X0123725Y0102256D02*
D03*
X0123725Y0104225D02*
D03*
X0123725Y0106193D02*
D03*
X0123725Y0108162D02*
D03*
X0123725Y0110130D02*
D03*
X0123725Y0112099D02*
D03*
X0123725Y0114067D02*
D03*
X0123725Y0116036D02*
D03*
X0123725Y0118004D02*
D03*
X0123725Y0119973D02*
D03*
X0123725Y0121941D02*
D03*
X0123725Y0123910D02*
D03*
X0123725Y0125878D02*
D03*
X0123725Y0127847D02*
D03*
X0123725Y0129815D02*
D03*
X0123725Y0131784D02*
D03*
X0123725Y0133752D02*
D03*
X0123725Y0135721D02*
D03*
X0123725Y0137689D02*
D03*
X0123725Y0139658D02*
D03*
X0123725Y0141626D02*
D03*
X0123725Y0143595D02*
D03*
X0123725Y0145563D02*
D03*
X0123725Y0147532D02*
D03*
X0123725Y0149500D02*
D03*
X0123725Y0151469D02*
D03*
X0123725Y0153437D02*
D03*
X0123725Y0155406D02*
D03*
X0123725Y0157374D02*
D03*
X0123725Y0159343D02*
D03*
X0207386Y0159343D02*
D03*
X0207386Y0157374D02*
D03*
X0207386Y0155406D02*
D03*
X0207386Y0153437D02*
D03*
X0207386Y0151469D02*
D03*
X0207386Y0149500D02*
D03*
X0207386Y0147532D02*
D03*
X0207386Y0145563D02*
D03*
X0207386Y0143595D02*
D03*
X0207386Y0141626D02*
D03*
X0207386Y0139658D02*
D03*
X0207386Y0137689D02*
D03*
X0207386Y0135721D02*
D03*
X0207386Y0133752D02*
D03*
X0207386Y0131784D02*
D03*
X0207386Y0129815D02*
D03*
X0207386Y0127847D02*
D03*
X0207386Y0125878D02*
D03*
X0207386Y0123910D02*
D03*
X0207386Y0121941D02*
D03*
X0207386Y0119973D02*
D03*
X0207386Y0118004D02*
D03*
X0207386Y0116036D02*
D03*
X0207386Y0114067D02*
D03*
X0207386Y0112099D02*
D03*
X0207386Y0110130D02*
D03*
X0207386Y0108162D02*
D03*
X0207386Y0106193D02*
D03*
X0207386Y0104225D02*
D03*
X0207386Y0102256D02*
D03*
X0207386Y0100288D02*
D03*
X0207386Y0098319D02*
D03*
X0207386Y0096351D02*
D03*
X0207386Y0094382D02*
D03*
X0207386Y0092414D02*
D03*
X0207386Y0090445D02*
D03*
D339*
X0107380Y0106634D02*
D03*
X0116632Y0102894D02*
D03*
D339*
X0107380Y0099154D02*
D03*
D340*
X0260930Y0108949D02*
D03*
X0242819Y0108949D02*
D03*
D341*
X0251875Y0108949D02*
D03*
D342*
X0251875Y0084540D02*
D03*
D343*
X0230615Y0132965D02*
D03*
X0223922Y0132965D02*
D03*
X0223922Y0125878D02*
D03*
X0230615Y0125878D02*
D03*
X0230615Y0118792D02*
D03*
X0223922Y0118792D02*
D03*
X0223922Y0111705D02*
D03*
X0230615Y0111705D02*
D03*
X0240457Y0140445D02*
D03*
X0247150Y0140445D02*
D03*
X0223922Y0140445D02*
D03*
X0230615Y0140445D02*
D03*
X0240457Y0147532D02*
D03*
X0247150Y0147532D02*
D03*
X0223922Y0147532D02*
D03*
X0230615Y0147532D02*
D03*
X0240457Y0154618D02*
D03*
X0247150Y0154618D02*
D03*
X0223922Y0154618D02*
D03*
X0230615Y0154618D02*
D03*
X0247150Y0161705D02*
D03*
X0240457Y0161705D02*
D03*
X0223922Y0161705D02*
D03*
X0230615Y0161705D02*
D03*
D344*
X0107979Y0082007D02*
D03*
X0111719Y0082007D02*
D03*
X0115460Y0082007D02*
D03*
X0115460Y0091456D02*
D03*
X0111719Y0091456D02*
D03*
X0107979Y0091456D02*
D03*
D345*
X0263686Y0226666D02*
D03*
X0263686Y0222729D02*
D03*
X0117229Y0213674D02*
D03*
X0117229Y0217611D02*
D03*
X0220772Y0225091D02*
D03*
X0220772Y0229028D02*
D03*
X0206599Y0225091D02*
D03*
X0206599Y0229028D02*
D03*
X0187701Y0221154D02*
D03*
X0187701Y0225091D02*
D03*
X0187701Y0229028D02*
D03*
X0187701Y0225091D02*
D03*
X0178252Y0225091D02*
D03*
X0178252Y0221154D02*
D03*
X0178252Y0225091D02*
D03*
X0178252Y0229028D02*
D03*
X0154630Y0221154D02*
D03*
X0154630Y0225091D02*
D03*
X0131008Y0225091D02*
D03*
X0131008Y0221154D02*
D03*
X0131008Y0225091D02*
D03*
X0131008Y0229028D02*
D03*
X0214374Y0111311D02*
D03*
X0214374Y0107374D02*
D03*
X0126284Y0221548D02*
D03*
X0126284Y0217611D02*
D03*
X0263686Y0205996D02*
D03*
X0263686Y0209933D02*
D03*
X0252268Y0169973D02*
D03*
X0252268Y0166036D02*
D03*
X0107780Y0217611D02*
D03*
X0107780Y0213674D02*
D03*
X0112505Y0217611D02*
D03*
X0112505Y0213674D02*
D03*
X0121953Y0217611D02*
D03*
X0121953Y0213674D02*
D03*
X0258567Y0225091D02*
D03*
X0258567Y0221154D02*
D03*
X0253843Y0225091D02*
D03*
X0253843Y0221154D02*
D03*
X0249119Y0225091D02*
D03*
X0249119Y0221154D02*
D03*
X0244394Y0225091D02*
D03*
X0244394Y0221154D02*
D03*
X0258567Y0225091D02*
D03*
X0258567Y0229028D02*
D03*
X0253843Y0225091D02*
D03*
X0253843Y0229028D02*
D03*
X0249119Y0225091D02*
D03*
X0249119Y0229028D02*
D03*
X0244394Y0225091D02*
D03*
X0244394Y0229028D02*
D03*
X0239670Y0225091D02*
D03*
X0239670Y0221154D02*
D03*
X0234945Y0225091D02*
D03*
X0234945Y0221154D02*
D03*
X0230221Y0225091D02*
D03*
X0230221Y0221154D02*
D03*
X0225379Y0225091D02*
D03*
X0225379Y0221154D02*
D03*
X0239670Y0225091D02*
D03*
X0239670Y0229028D02*
D03*
X0234945Y0225091D02*
D03*
X0234945Y0229028D02*
D03*
X0230221Y0225091D02*
D03*
X0230221Y0229028D02*
D03*
X0225497Y0225091D02*
D03*
X0225497Y0229028D02*
D03*
X0220772Y0225091D02*
D03*
X0220772Y0221154D02*
D03*
X0216048Y0225091D02*
D03*
X0216048Y0221154D02*
D03*
X0211323Y0225091D02*
D03*
X0211323Y0221154D02*
D03*
X0206599Y0225091D02*
D03*
X0206599Y0221154D02*
D03*
X0216048Y0225091D02*
D03*
X0216048Y0229028D02*
D03*
X0211323Y0225091D02*
D03*
X0211323Y0229028D02*
D03*
X0201874Y0221154D02*
D03*
X0201874Y0225091D02*
D03*
X0197150Y0221154D02*
D03*
X0197150Y0225091D02*
D03*
X0192426Y0221154D02*
D03*
X0192426Y0225091D02*
D03*
X0201874Y0229028D02*
D03*
X0201874Y0225091D02*
D03*
X0197150Y0229028D02*
D03*
X0197150Y0225091D02*
D03*
X0192426Y0229028D02*
D03*
X0192426Y0225091D02*
D03*
X0182977Y0225091D02*
D03*
X0182977Y0221154D02*
D03*
X0173528Y0225091D02*
D03*
X0173528Y0221154D02*
D03*
X0168804Y0225091D02*
D03*
X0168804Y0221154D02*
D03*
X0182977Y0225091D02*
D03*
X0182977Y0229028D02*
D03*
X0173528Y0225091D02*
D03*
X0173528Y0229028D02*
D03*
X0168804Y0225091D02*
D03*
X0168804Y0229028D02*
D03*
X0164079Y0221154D02*
D03*
X0164079Y0225091D02*
D03*
X0159355Y0221154D02*
D03*
X0159355Y0225091D02*
D03*
X0149906Y0221154D02*
D03*
X0149906Y0225091D02*
D03*
X0164079Y0229028D02*
D03*
X0164079Y0225091D02*
D03*
X0159355Y0229028D02*
D03*
X0159355Y0225091D02*
D03*
X0154630Y0229028D02*
D03*
X0154630Y0225091D02*
D03*
X0149906Y0229028D02*
D03*
X0149906Y0225091D02*
D03*
X0145182Y0225091D02*
D03*
X0145182Y0221154D02*
D03*
X0140457Y0225091D02*
D03*
X0140457Y0221154D02*
D03*
X0135733Y0225091D02*
D03*
X0135733Y0221154D02*
D03*
X0145182Y0225091D02*
D03*
X0145182Y0229028D02*
D03*
X0140457Y0225091D02*
D03*
X0140457Y0229028D02*
D03*
X0135733Y0225091D02*
D03*
X0135733Y0229028D02*
D03*
X0121953Y0221154D02*
D03*
X0121953Y0225091D02*
D03*
X0117229Y0221154D02*
D03*
X0117229Y0225091D02*
D03*
X0112505Y0221154D02*
D03*
X0112505Y0225091D02*
D03*
X0107780Y0221154D02*
D03*
X0107780Y0225091D02*
D03*
X0121953Y0229028D02*
D03*
X0121953Y0225091D02*
D03*
X0117229Y0229028D02*
D03*
X0117229Y0225091D02*
D03*
X0112505Y0229028D02*
D03*
X0112505Y0225091D02*
D03*
X0107780Y0229028D02*
D03*
X0107780Y0225091D02*
D03*
X0263686Y0215052D02*
D03*
X0263686Y0218989D02*
D03*
X0228253Y0102256D02*
D03*
X0228253Y0098319D02*
D03*
D346*
X0208961Y0208359D02*
D03*
X0208961Y0212099D02*
D03*
X0208961Y0215839D02*
D03*
X0218410Y0215839D02*
D03*
X0218410Y0212099D02*
D03*
X0218410Y0208359D02*
D03*
X0246756Y0208359D02*
D03*
X0246756Y0212099D02*
D03*
X0246756Y0215839D02*
D03*
X0256205Y0215839D02*
D03*
X0256205Y0212099D02*
D03*
X0256205Y0208359D02*
D03*
X0227859Y0208359D02*
D03*
X0227859Y0212099D02*
D03*
X0227859Y0215839D02*
D03*
X0237308Y0215839D02*
D03*
X0237308Y0212099D02*
D03*
X0237308Y0208359D02*
D03*
X0190063Y0208359D02*
D03*
X0190063Y0212099D02*
D03*
X0190063Y0215839D02*
D03*
X0199512Y0215839D02*
D03*
X0199512Y0212099D02*
D03*
X0199512Y0208359D02*
D03*
X0171166Y0208359D02*
D03*
X0171166Y0212099D02*
D03*
X0171166Y0215839D02*
D03*
X0180615Y0215839D02*
D03*
X0180615Y0212099D02*
D03*
X0180615Y0208359D02*
D03*
X0152268Y0208359D02*
D03*
X0152268Y0212099D02*
D03*
X0152268Y0215839D02*
D03*
X0161717Y0215839D02*
D03*
X0161717Y0212099D02*
D03*
X0161717Y0208359D02*
D03*
X0133371Y0208359D02*
D03*
X0133371Y0212099D02*
D03*
X0133371Y0215839D02*
D03*
X0142819Y0215839D02*
D03*
X0142819Y0212099D02*
D03*
X0142819Y0208359D02*
D03*
D347*
X0111717Y0178241D02*
D03*
X0111717Y0160524D02*
D03*
D20*
X0126008Y0229028D02*
D03*
X0263686Y0230996D02*
D03*
D348*
X0257386Y0155504D02*
D03*
X0264473Y0155504D02*
D03*
X0264473Y0165544D02*
D03*
X0257386Y0165544D02*
D03*
X0257386Y0149402D02*
D03*
X0264473Y0149402D02*
D03*
X0264473Y0139362D02*
D03*
X0257386Y0139362D02*
D03*
D349*
X0264473Y0162099D02*
D03*
X0264473Y0158949D02*
D03*
X0257386Y0158949D02*
D03*
X0257386Y0162099D02*
D03*
X0257386Y0145957D02*
D03*
X0257386Y0142807D02*
D03*
X0264473Y0142807D02*
D03*
X0264473Y0145957D02*
D03*
D350*
X0109749Y0112493D02*
D03*
X0109749Y0129028D02*
D03*
X0109749Y0151862D02*
D03*
X0109749Y0135327D02*
D03*
D100*
X0122544Y0179028D02*
D03*
X0125103Y0179028D02*
D03*
X0127662Y0179028D02*
D03*
X0130221Y0179028D02*
D03*
X0132780Y0179028D02*
D03*
X0135339Y0179028D02*
D03*
X0137898Y0179028D02*
D03*
X0122544Y0201469D02*
D03*
X0125103Y0201469D02*
D03*
X0127662Y0201469D02*
D03*
X0130221Y0201469D02*
D03*
X0132780Y0201469D02*
D03*
X0135339Y0201469D02*
D03*
X0137898Y0201469D02*
D03*
X0191048Y0179028D02*
D03*
X0193607Y0179028D02*
D03*
X0196166Y0179028D02*
D03*
X0198725Y0179028D02*
D03*
X0201284Y0179028D02*
D03*
X0203843Y0179028D02*
D03*
X0206402Y0179028D02*
D03*
X0191048Y0201469D02*
D03*
X0193607Y0201469D02*
D03*
X0196166Y0201469D02*
D03*
X0198725Y0201469D02*
D03*
X0201284Y0201469D02*
D03*
X0203843Y0201469D02*
D03*
X0206402Y0201469D02*
D03*
X0168213Y0179028D02*
D03*
X0170772Y0179028D02*
D03*
X0173331Y0179028D02*
D03*
X0175890Y0179028D02*
D03*
X0178449Y0179028D02*
D03*
X0181008Y0179028D02*
D03*
X0183567Y0179028D02*
D03*
X0168213Y0201469D02*
D03*
X0170772Y0201469D02*
D03*
X0173331Y0201469D02*
D03*
X0175890Y0201469D02*
D03*
X0178449Y0201469D02*
D03*
X0181008Y0201469D02*
D03*
X0183567Y0201469D02*
D03*
X0145379Y0179028D02*
D03*
X0147938Y0179028D02*
D03*
X0150497Y0179028D02*
D03*
X0153056Y0179028D02*
D03*
X0155615Y0179028D02*
D03*
X0158174Y0179028D02*
D03*
X0160733Y0179028D02*
D03*
X0145379Y0201469D02*
D03*
X0147938Y0201469D02*
D03*
X0150497Y0201469D02*
D03*
X0153056Y0201469D02*
D03*
X0155615Y0201469D02*
D03*
X0158174Y0201469D02*
D03*
X0160733Y0201469D02*
D03*
D101*
X0212701Y0190445D02*
D03*
X0212701Y0187886D02*
D03*
X0212701Y0185327D02*
D03*
X0212701Y0182768D02*
D03*
X0212701Y0180209D02*
D03*
X0212701Y0177650D02*
D03*
X0212701Y0175091D02*
D03*
X0235142Y0190445D02*
D03*
X0235142Y0187886D02*
D03*
X0235142Y0185327D02*
D03*
X0235142Y0182768D02*
D03*
X0235142Y0180209D02*
D03*
X0235142Y0177650D02*
D03*
X0235142Y0175091D02*
D03*
X0240654Y0190445D02*
D03*
X0240654Y0187886D02*
D03*
X0240654Y0185327D02*
D03*
X0240654Y0182768D02*
D03*
X0240654Y0180209D02*
D03*
X0240654Y0177650D02*
D03*
X0240654Y0175091D02*
D03*
X0263095Y0190445D02*
D03*
X0263095Y0187886D02*
D03*
X0263095Y0185327D02*
D03*
X0263095Y0182768D02*
D03*
X0263095Y0180209D02*
D03*
X0263095Y0177650D02*
D03*
X0263095Y0175091D02*
D03*
D351*
X0230024Y0202059D02*
D03*
X0230024Y0199500D02*
D03*
X0230024Y0196941D02*
D03*
X0237504Y0202059D02*
D03*
X0237504Y0199500D02*
D03*
X0237504Y0196941D02*
D03*
X0250103Y0196941D02*
D03*
X0250103Y0199500D02*
D03*
X0250103Y0202059D02*
D03*
X0242623Y0196941D02*
D03*
X0242623Y0199500D02*
D03*
X0242623Y0202059D02*
D03*
X0254827Y0202059D02*
D03*
X0254827Y0199500D02*
D03*
X0254827Y0196941D02*
D03*
X0262308Y0202059D02*
D03*
X0262308Y0199500D02*
D03*
X0262308Y0196941D02*
D03*
X0225300Y0196941D02*
D03*
X0225300Y0199500D02*
D03*
X0225300Y0202059D02*
D03*
X0217819Y0196941D02*
D03*
X0217819Y0199500D02*
D03*
X0217819Y0202059D02*
D03*
D103*
X0261126Y0117589D02*
D03*
X0261126Y0122589D02*
D03*
X0261126Y0127589D02*
D03*
X0261126Y0132589D02*
D03*
X0242228Y0117589D02*
D03*
X0242228Y0122589D02*
D03*
X0242228Y0127589D02*
D03*
X0242228Y0132589D02*
D03*
D352*
X0108764Y0185130D02*
D03*
X0111323Y0185130D02*
D03*
X0113882Y0185130D02*
D03*
X0108764Y0192611D02*
D03*
X0111323Y0192611D02*
D03*
X0113882Y0192611D02*
D03*
X0108764Y0200485D02*
D03*
X0111323Y0200485D02*
D03*
X0113882Y0200485D02*
D03*
X0108764Y0207965D02*
D03*
X0111323Y0207965D02*
D03*
X0113882Y0207965D02*
D03*
D105*
X0222593Y0101469D02*
D03*
X0222593Y0099500D02*
D03*
X0222593Y0097532D02*
D03*
X0216589Y0097532D02*
D03*
X0216589Y0099500D02*
D03*
X0216589Y0101469D02*
D03*
D106*
X0220575Y0096498D02*
D03*
X0218607Y0096498D02*
D03*
X0218607Y0102502D02*
D03*
X0220575Y0102502D02*
D03*
D353*
X0233469Y0103437D02*
D03*
X0233469Y0096744D02*
D03*
D354*
X0224709Y0168398D02*
D03*
X0228646Y0168398D02*
D03*
X0314567Y0200394D02*
G01*
G75*
D395*
X0304343Y0215099D02*
D03*
X0311823Y0215099D02*
D03*
X0311823Y0206634D02*
D03*
X0308083Y0206634D02*
D03*
X0304343Y0230748D02*
D03*
X0311823Y0230748D02*
D03*
X0311823Y0222284D02*
D03*
X0308083Y0222284D02*
D03*
D395*
X0304343Y0206634D02*
D03*
X0304343Y0222284D02*
D03*
X0354223Y0015758D02*
%LPD*%
G01*
G36*
G01*
X0318514Y0083366D02*
X0318514Y0082008D01*
G75*
G02*
X0317934Y0081427I-000581J0000000D01*
G01*
X0316772Y0081427D01*
G75*
G02*
X0316192Y0082008I0000000J0000581D01*
G01*
X0316192Y0083366D01*
G75*
G02*
X0316772Y0083947I0000581J0000000D01*
G01*
X0317934Y0083947D01*
G75*
G02*
X0318514Y0083366I0000000J-000581D01*
G01*
G37*
G36*
G01*
X0314695Y0083366D02*
X0314695Y0082008D01*
G75*
G02*
X0314115Y0081427I-000581J0000000D01*
G01*
X0312953Y0081427D01*
G75*
G02*
X0312373Y0082008I0000000J0000581D01*
G01*
X0312373Y0083366D01*
G75*
G02*
X0312953Y0083947I0000581J0000000D01*
G01*
X0314115Y0083947D01*
G75*
G02*
X0314695Y0083366I0000000J-000581D01*
G01*
G37*
G36*
G01*
X0333938Y0024793D02*
X0332579Y0024793D01*
G75*
G02*
X0331999Y0025374I0000000J0000581D01*
G01*
X0331999Y0026536D01*
G75*
G02*
X0332579Y0027116I0000581J0000000D01*
G01*
X0333938Y0027116D01*
G75*
G02*
X0334518Y0026536I0000000J-000581D01*
G01*
X0334518Y0025374D01*
G75*
G02*
X0333938Y0024793I-000581J0000000D01*
G01*
G37*
G36*
G01*
X0333938Y0028612D02*
X0332579Y0028612D01*
G75*
G02*
X0331999Y0029193I0000000J0000581D01*
G01*
X0331999Y0030354D01*
G75*
G02*
X0332579Y0030935I0000581J0000000D01*
G01*
X0333938Y0030935D01*
G75*
G02*
X0334518Y0030354I0000000J-000581D01*
G01*
X0334518Y0029193D01*
G75*
G02*
X0333938Y0028612I-000581J0000000D01*
G01*
G37*
G36*
G01*
X0318741Y0035320D02*
X0318741Y0037338D01*
G75*
G02*
X0319602Y0038199I0000861J0000000D01*
G01*
X0321324Y0038199D01*
G75*
G02*
X0322186Y0037338I0000000J-000861D01*
G01*
X0322186Y0035320D01*
G75*
G02*
X0321324Y0034459I-000861J0000000D01*
G01*
X0319602Y0034459D01*
G75*
G02*
X0318741Y0035320I0000000J0000861D01*
G01*
G37*
G36*
G01*
X0324942Y0035320D02*
X0324942Y0037338D01*
G75*
G02*
X0325803Y0038199I0000861J0000000D01*
G01*
X0327525Y0038199D01*
G75*
G02*
X0328386Y0037338I0000000J-000861D01*
G01*
X0328386Y0035320D01*
G75*
G02*
X0327525Y0034459I-000861J0000000D01*
G01*
X0325803Y0034459D01*
G75*
G02*
X0324942Y0035320I0000000J0000861D01*
G01*
G37*
G36*
G01*
X0343770Y0081811D02*
X0343770Y0083169D01*
G75*
G02*
X0344351Y0083750I0000581J0000000D01*
G01*
X0345512Y0083750D01*
G75*
G02*
X0346093Y0083169I0000000J-000581D01*
G01*
X0346093Y0081811D01*
G75*
G02*
X0345512Y0081230I-000581J0000000D01*
G01*
X0344351Y0081230D01*
G75*
G02*
X0343770Y0081811I0000000J0000581D01*
G01*
G37*
G36*
G01*
X0347589Y0081811D02*
X0347589Y0083169D01*
G75*
G02*
X0348170Y0083750I0000581J0000000D01*
G01*
X0349331Y0083750D01*
G75*
G02*
X0349912Y0083169I0000000J-000581D01*
G01*
X0349912Y0081811D01*
G75*
G02*
X0349331Y0081230I-000581J0000000D01*
G01*
X0348170Y0081230D01*
G75*
G02*
X0347589Y0081811I0000000J0000581D01*
G01*
G37*
D200*
X0327943Y0030620D03*
X0320463Y0030620D03*
X0324203Y0022746D03*
G36*
G01*
X0343770Y0077628D02*
X0343770Y0078986D01*
G75*
G02*
X0344351Y0079567I0000581J0000000D01*
G01*
X0345512Y0079567D01*
G75*
G02*
X0346093Y0078986I0000000J-000581D01*
G01*
X0346093Y0077628D01*
G75*
G02*
X0345512Y0077047I-000581J0000000D01*
G01*
X0344351Y0077047D01*
G75*
G02*
X0343770Y0077628I0000000J0000581D01*
G01*
G37*
G36*
G01*
X0347589Y0077628D02*
X0347589Y0078986D01*
G75*
G02*
X0348170Y0079567I0000581J0000000D01*
G01*
X0349331Y0079567D01*
G75*
G02*
X0349912Y0078986I0000000J-000581D01*
G01*
X0349912Y0077628D01*
G75*
G02*
X0349331Y0077047I-000581J0000000D01*
G01*
X0348170Y0077047D01*
G75*
G02*
X0347589Y0077628I0000000J0000581D01*
G01*
G37*
G36*
G01*
X0319853Y0082008D02*
X0319853Y0083366D01*
G75*
G02*
X0320434Y0083947I0000581J0000000D01*
G01*
X0321595Y0083947D01*
G75*
G02*
X0322176Y0083366I0000000J-000581D01*
G01*
X0322176Y0082008D01*
G75*
G02*
X0321595Y0081427I-000581J0000000D01*
G01*
X0320434Y0081427D01*
G75*
G02*
X0319853Y0082008I0000000J0000581D01*
G01*
G37*
G36*
G01*
X0323672Y0082008D02*
X0323672Y0083366D01*
G75*
G02*
X0324253Y0083947I0000581J0000000D01*
G01*
X0325414Y0083947D01*
G75*
G02*
X0325995Y0083366I0000000J-000581D01*
G01*
X0325995Y0082008D01*
G75*
G02*
X0325414Y0081427I-000581J0000000D01*
G01*
X0324253Y0081427D01*
G75*
G02*
X0323672Y0082008I0000000J0000581D01*
G01*
G37*
G36*
G01*
X0307589Y0078248D02*
X0307589Y0076890D01*
G75*
G02*
X0307008Y0076309I-000581J0000000D01*
G01*
X0305847Y0076309D01*
G75*
G02*
X0305266Y0076890I0000000J0000581D01*
G01*
X0305266Y0078248D01*
G75*
G02*
X0305847Y0078829I0000581J0000000D01*
G01*
X0307008Y0078829D01*
G75*
G02*
X0307589Y0078248I0000000J-000581D01*
G01*
G37*
G36*
G01*
X0303770Y0078248D02*
X0303770Y0076890D01*
G75*
G02*
X0303190Y0076309I-000581J0000000D01*
G01*
X0302028Y0076309D01*
G75*
G02*
X0301447Y0076890I0000000J0000581D01*
G01*
X0301447Y0078248D01*
G75*
G02*
X0302028Y0078829I0000581J0000000D01*
G01*
X0303190Y0078829D01*
G75*
G02*
X0303770Y0078248I0000000J-000581D01*
G01*
G37*
G36*
G01*
X0334361Y0083366D02*
X0334361Y0082008D01*
G75*
G02*
X0333780Y0081427I-000581J0000000D01*
G01*
X0332619Y0081427D01*
G75*
G02*
X0332038Y0082008I0000000J0000581D01*
G01*
X0332038Y0083366D01*
G75*
G02*
X0332619Y0083947I0000581J0000000D01*
G01*
X0333780Y0083947D01*
G75*
G02*
X0334361Y0083366I0000000J-000581D01*
G01*
G37*
G36*
G01*
X0330542Y0083366D02*
X0330542Y0082008D01*
G75*
G02*
X0329961Y0081427I-000581J0000000D01*
G01*
X0328800Y0081427D01*
G75*
G02*
X0328219Y0082008I0000000J0000581D01*
G01*
X0328219Y0083366D01*
G75*
G02*
X0328800Y0083947I0000581J0000000D01*
G01*
X0329961Y0083947D01*
G75*
G02*
X0330542Y0083366I0000000J-000581D01*
G01*
G37*
G36*
G01*
X0307589Y0043602D02*
X0307589Y0042244D01*
G75*
G02*
X0307008Y0041664I-000581J0000000D01*
G01*
X0305847Y0041664D01*
G75*
G02*
X0305266Y0042244I0000000J0000581D01*
G01*
X0305266Y0043602D01*
G75*
G02*
X0305847Y0044183I0000581J0000000D01*
G01*
X0307008Y0044183D01*
G75*
G02*
X0307589Y0043602I0000000J-000581D01*
G01*
G37*
G36*
G01*
X0303770Y0043602D02*
X0303770Y0042244D01*
G75*
G02*
X0303190Y0041664I-000581J0000000D01*
G01*
X0302028Y0041664D01*
G75*
G02*
X0301447Y0042244I0000000J0000581D01*
G01*
X0301447Y0043602D01*
G75*
G02*
X0302028Y0044183I0000581J0000000D01*
G01*
X0303190Y0044183D01*
G75*
G02*
X0303770Y0043602I0000000J-000581D01*
G01*
G37*
D409*
X0332471Y0105069D03*
X0332471Y0093061D03*
X0345660Y0105069D03*
X0345660Y0093061D03*
D405*
X0314262Y0108041D03*
X0314262Y0090089D03*
G36*
G01*
X0334036Y0032569D02*
X0332678Y0032569D01*
G75*
G02*
X0332097Y0033150I0000000J0000581D01*
G01*
X0332097Y0034311D01*
G75*
G02*
X0332678Y0034892I0000581J0000000D01*
G01*
X0334036Y0034892D01*
G75*
G02*
X0334617Y0034311I0000000J-000581D01*
G01*
X0334617Y0033150D01*
G75*
G02*
X0334036Y0032569I-000581J0000000D01*
G01*
G37*
G36*
G01*
X0334036Y0036388D02*
X0332678Y0036388D01*
G75*
G02*
X0332097Y0036969I0000000J0000581D01*
G01*
X0332097Y0038130D01*
G75*
G02*
X0332678Y0038711I0000581J0000000D01*
G01*
X0334036Y0038711D01*
G75*
G02*
X0334617Y0038130I0000000J-000581D01*
G01*
X0334617Y0036969D01*
G75*
G02*
X0334036Y0036388I-000581J0000000D01*
G01*
G37*
G36*
G01*
X0347702Y0071073D02*
X0349720Y0071073D01*
G75*
G02*
X0350581Y0070212I0000000J-000861D01*
G01*
X0350581Y0068489D01*
G75*
G02*
X0349720Y0067628I-000861J0000000D01*
G01*
X0347702Y0067628D01*
G75*
G02*
X0346841Y0068489I0000000J0000861D01*
G01*
X0346841Y0070212D01*
G75*
G02*
X0347702Y0071073I0000861J0000000D01*
G01*
G37*
G36*
G01*
X0347702Y0064872D02*
X0349720Y0064872D01*
G75*
G02*
X0350581Y0064011I0000000J-000861D01*
G01*
X0350581Y0062289D01*
G75*
G02*
X0349720Y0061427I-000861J0000000D01*
G01*
X0347702Y0061427D01*
G75*
G02*
X0346841Y0062289I0000000J0000861D01*
G01*
X0346841Y0064011D01*
G75*
G02*
X0347702Y0064872I0000861J0000000D01*
G01*
G37*
G36*
G01*
X0343770Y0073445D02*
X0343770Y0074803D01*
G75*
G02*
X0344351Y0075384I0000581J0000000D01*
G01*
X0345512Y0075384D01*
G75*
G02*
X0346093Y0074803I0000000J-000581D01*
G01*
X0346093Y0073445D01*
G75*
G02*
X0345512Y0072864I-000581J0000000D01*
G01*
X0344351Y0072864D01*
G75*
G02*
X0343770Y0073445I0000000J0000581D01*
G01*
G37*
G36*
G01*
X0347589Y0073445D02*
X0347589Y0074803D01*
G75*
G02*
X0348170Y0075384I0000581J0000000D01*
G01*
X0349331Y0075384D01*
G75*
G02*
X0349912Y0074803I0000000J-000581D01*
G01*
X0349912Y0073445D01*
G75*
G02*
X0349331Y0072864I-000581J0000000D01*
G01*
X0348170Y0072864D01*
G75*
G02*
X0347589Y0073445I0000000J0000581D01*
G01*
G37*
G36*
G01*
X0348317Y0117554D02*
X0348317Y0115537D01*
G75*
G02*
X0347456Y0114675I-000861J0000000D01*
G01*
X0345734Y0114675D01*
G75*
G02*
X0344873Y0115537I0000000J0000861D01*
G01*
X0344873Y0117554D01*
G75*
G02*
X0345734Y0118415I0000861J0000000D01*
G01*
X0347456Y0118415D01*
G75*
G02*
X0348317Y0117554I0000000J-000861D01*
G01*
G37*
G36*
G01*
X0342117Y0117554D02*
X0342117Y0115537D01*
G75*
G02*
X0341255Y0114675I-000861J0000000D01*
G01*
X0339533Y0114675D01*
G75*
G02*
X0338672Y0115537I0000000J0000861D01*
G01*
X0338672Y0117554D01*
G75*
G02*
X0339533Y0118415I0000861J0000000D01*
G01*
X0341255Y0118415D01*
G75*
G02*
X0342117Y0117554I0000000J-000861D01*
G01*
G37*
G36*
G01*
X0349720Y0049715D02*
X0347702Y0049715D01*
G75*
G02*
X0346841Y0050576I0000000J0000861D01*
G01*
X0346841Y0052298D01*
G75*
G02*
X0347702Y0053160I0000861J0000000D01*
G01*
X0349720Y0053160D01*
G75*
G02*
X0350581Y0052298I0000000J-000861D01*
G01*
X0350581Y0050576D01*
G75*
G02*
X0349720Y0049715I-000861J0000000D01*
G01*
G37*
G36*
G01*
X0349720Y0055915D02*
X0347702Y0055915D01*
G75*
G02*
X0346841Y0056777I0000000J0000861D01*
G01*
X0346841Y0058499D01*
G75*
G02*
X0347702Y0059360I0000861J0000000D01*
G01*
X0349720Y0059360D01*
G75*
G02*
X0350581Y0058499I0000000J-000861D01*
G01*
X0350581Y0056777D01*
G75*
G02*
X0349720Y0055915I-000861J0000000D01*
G01*
G37*
G36*
G01*
X0345542Y0045394D02*
X0345542Y0046752D01*
G75*
G02*
X0346123Y0047333I0000581J0000000D01*
G01*
X0347284Y0047333D01*
G75*
G02*
X0347865Y0046752I0000000J-000581D01*
G01*
X0347865Y0045394D01*
G75*
G02*
X0347284Y0044813I-000581J0000000D01*
G01*
X0346123Y0044813D01*
G75*
G02*
X0345542Y0045394I0000000J0000581D01*
G01*
G37*
G36*
G01*
X0349361Y0045394D02*
X0349361Y0046752D01*
G75*
G02*
X0349942Y0047333I0000581J0000000D01*
G01*
X0351103Y0047333D01*
G75*
G02*
X0351684Y0046752I0000000J-000581D01*
G01*
X0351684Y0045394D01*
G75*
G02*
X0351103Y0044813I-000581J0000000D01*
G01*
X0349942Y0044813D01*
G75*
G02*
X0349361Y0045394I0000000J0000581D01*
G01*
G37*
G36*
G01*
X0332865Y0079833D02*
X0333849Y0079833D01*
G75*
G02*
X0334341Y0079341I0000000J-000492D01*
G01*
X0334341Y0074419D01*
G75*
G02*
X0333849Y0073927I-000492J0000000D01*
G01*
X0332865Y0073927D01*
G75*
G02*
X0332373Y0074419I0000000J0000492D01*
G01*
X0332373Y0079341D01*
G75*
G02*
X0332865Y0079833I0000492J0000000D01*
G01*
G37*
G36*
G01*
X0329715Y0079833D02*
X0330699Y0079833D01*
G75*
G02*
X0331192Y0079341I0000000J-000492D01*
G01*
X0331192Y0074419D01*
G75*
G02*
X0330699Y0073927I-000492J0000000D01*
G01*
X0329715Y0073927D01*
G75*
G02*
X0329223Y0074419I0000000J0000492D01*
G01*
X0329223Y0079341D01*
G75*
G02*
X0329715Y0079833I0000492J0000000D01*
G01*
G37*
G36*
G01*
X0326566Y0079833D02*
X0327550Y0079833D01*
G75*
G02*
X0328042Y0079341I0000000J-000492D01*
G01*
X0328042Y0074419D01*
G75*
G02*
X0327550Y0073927I-000492J0000000D01*
G01*
X0326566Y0073927D01*
G75*
G02*
X0326073Y0074419I0000000J0000492D01*
G01*
X0326073Y0079341D01*
G75*
G02*
X0326566Y0079833I0000492J0000000D01*
G01*
G37*
G36*
G01*
X0323416Y0079833D02*
X0324400Y0079833D01*
G75*
G02*
X0324892Y0079341I0000000J-000492D01*
G01*
X0324892Y0074419D01*
G75*
G02*
X0324400Y0073927I-000492J0000000D01*
G01*
X0323416Y0073927D01*
G75*
G02*
X0322924Y0074419I0000000J0000492D01*
G01*
X0322924Y0079341D01*
G75*
G02*
X0323416Y0079833I0000492J0000000D01*
G01*
G37*
G36*
G01*
X0320266Y0079833D02*
X0321251Y0079833D01*
G75*
G02*
X0321743Y0079341I0000000J-000492D01*
G01*
X0321743Y0074419D01*
G75*
G02*
X0321251Y0073927I-000492J0000000D01*
G01*
X0320266Y0073927D01*
G75*
G02*
X0319774Y0074419I0000000J0000492D01*
G01*
X0319774Y0079341D01*
G75*
G02*
X0320266Y0079833I0000492J0000000D01*
G01*
G37*
G36*
G01*
X0317117Y0079833D02*
X0318101Y0079833D01*
G75*
G02*
X0318593Y0079341I0000000J-000492D01*
G01*
X0318593Y0074419D01*
G75*
G02*
X0318101Y0073927I-000492J0000000D01*
G01*
X0317117Y0073927D01*
G75*
G02*
X0316625Y0074419I0000000J0000492D01*
G01*
X0316625Y0079341D01*
G75*
G02*
X0317117Y0079833I0000492J0000000D01*
G01*
G37*
G36*
G01*
X0313967Y0079833D02*
X0314951Y0079833D01*
G75*
G02*
X0315443Y0079341I0000000J-000492D01*
G01*
X0315443Y0074419D01*
G75*
G02*
X0314951Y0073927I-000492J0000000D01*
G01*
X0313967Y0073927D01*
G75*
G02*
X0313475Y0074419I0000000J0000492D01*
G01*
X0313475Y0079341D01*
G75*
G02*
X0313967Y0079833I0000492J0000000D01*
G01*
G37*
G36*
G01*
X0310817Y0079833D02*
X0311802Y0079833D01*
G75*
G02*
X0312294Y0079341I0000000J-000492D01*
G01*
X0312294Y0074419D01*
G75*
G02*
X0311802Y0073927I-000492J0000000D01*
G01*
X0310817Y0073927D01*
G75*
G02*
X0310325Y0074419I0000000J0000492D01*
G01*
X0310325Y0079341D01*
G75*
G02*
X0310817Y0079833I0000492J0000000D01*
G01*
G37*
G36*
G01*
X0303436Y0072451D02*
X0308357Y0072451D01*
G75*
G02*
X0308849Y0071959I0000000J-000492D01*
G01*
X0308849Y0070975D01*
G75*
G02*
X0308357Y0070482I-000492J0000000D01*
G01*
X0303436Y0070482D01*
G75*
G02*
X0302943Y0070975I0000000J0000492D01*
G01*
X0302943Y0071959D01*
G75*
G02*
X0303436Y0072451I0000492J0000000D01*
G01*
G37*
G36*
G01*
X0303436Y0069301D02*
X0308357Y0069301D01*
G75*
G02*
X0308849Y0068809I0000000J-000492D01*
G01*
X0308849Y0067825D01*
G75*
G02*
X0308357Y0067333I-000492J0000000D01*
G01*
X0303436Y0067333D01*
G75*
G02*
X0302943Y0067825I0000000J0000492D01*
G01*
X0302943Y0068809D01*
G75*
G02*
X0303436Y0069301I0000492J0000000D01*
G01*
G37*
G36*
G01*
X0303436Y0066152D02*
X0308357Y0066152D01*
G75*
G02*
X0308849Y0065660I0000000J-000492D01*
G01*
X0308849Y0064675D01*
G75*
G02*
X0308357Y0064183I-000492J0000000D01*
G01*
X0303436Y0064183D01*
G75*
G02*
X0302943Y0064675I0000000J0000492D01*
G01*
X0302943Y0065660D01*
G75*
G02*
X0303436Y0066152I0000492J0000000D01*
G01*
G37*
G36*
G01*
X0303436Y0063002D02*
X0308357Y0063002D01*
G75*
G02*
X0308849Y0062510I0000000J-000492D01*
G01*
X0308849Y0061526D01*
G75*
G02*
X0308357Y0061034I-000492J0000000D01*
G01*
X0303436Y0061034D01*
G75*
G02*
X0302943Y0061526I0000000J0000492D01*
G01*
X0302943Y0062510D01*
G75*
G02*
X0303436Y0063002I0000492J0000000D01*
G01*
G37*
G36*
G01*
X0303436Y0059852D02*
X0308357Y0059852D01*
G75*
G02*
X0308849Y0059360I0000000J-000492D01*
G01*
X0308849Y0058376D01*
G75*
G02*
X0308357Y0057884I-000492J0000000D01*
G01*
X0303436Y0057884D01*
G75*
G02*
X0302943Y0058376I0000000J0000492D01*
G01*
X0302943Y0059360D01*
G75*
G02*
X0303436Y0059852I0000492J0000000D01*
G01*
G37*
G36*
G01*
X0303436Y0056703D02*
X0308357Y0056703D01*
G75*
G02*
X0308849Y0056211I0000000J-000492D01*
G01*
X0308849Y0055227D01*
G75*
G02*
X0308357Y0054734I-000492J0000000D01*
G01*
X0303436Y0054734D01*
G75*
G02*
X0302943Y0055227I0000000J0000492D01*
G01*
X0302943Y0056211D01*
G75*
G02*
X0303436Y0056703I0000492J0000000D01*
G01*
G37*
G36*
G01*
X0303436Y0053553D02*
X0308357Y0053553D01*
G75*
G02*
X0308849Y0053061I0000000J-000492D01*
G01*
X0308849Y0052077D01*
G75*
G02*
X0308357Y0051585I-000492J0000000D01*
G01*
X0303436Y0051585D01*
G75*
G02*
X0302943Y0052077I0000000J0000492D01*
G01*
X0302943Y0053061D01*
G75*
G02*
X0303436Y0053553I0000492J0000000D01*
G01*
G37*
G36*
G01*
X0303436Y0050404D02*
X0308357Y0050404D01*
G75*
G02*
X0308849Y0049912I0000000J-000492D01*
G01*
X0308849Y0048927D01*
G75*
G02*
X0308357Y0048435I-000492J0000000D01*
G01*
X0303436Y0048435D01*
G75*
G02*
X0302943Y0048927I0000000J0000492D01*
G01*
X0302943Y0049912D01*
G75*
G02*
X0303436Y0050404I0000492J0000000D01*
G01*
G37*
G36*
G01*
X0310817Y0046959D02*
X0311802Y0046959D01*
G75*
G02*
X0312294Y0046467I0000000J-000492D01*
G01*
X0312294Y0041545D01*
G75*
G02*
X0311802Y0041053I-000492J0000000D01*
G01*
X0310817Y0041053D01*
G75*
G02*
X0310325Y0041545I0000000J0000492D01*
G01*
X0310325Y0046467D01*
G75*
G02*
X0310817Y0046959I0000492J0000000D01*
G01*
G37*
G36*
G01*
X0313967Y0046959D02*
X0314951Y0046959D01*
G75*
G02*
X0315443Y0046467I0000000J-000492D01*
G01*
X0315443Y0041545D01*
G75*
G02*
X0314951Y0041053I-000492J0000000D01*
G01*
X0313967Y0041053D01*
G75*
G02*
X0313475Y0041545I0000000J0000492D01*
G01*
X0313475Y0046467D01*
G75*
G02*
X0313967Y0046959I0000492J0000000D01*
G01*
G37*
G36*
G01*
X0317117Y0046959D02*
X0318101Y0046959D01*
G75*
G02*
X0318593Y0046467I0000000J-000492D01*
G01*
X0318593Y0041545D01*
G75*
G02*
X0318101Y0041053I-000492J0000000D01*
G01*
X0317117Y0041053D01*
G75*
G02*
X0316625Y0041545I0000000J0000492D01*
G01*
X0316625Y0046467D01*
G75*
G02*
X0317117Y0046959I0000492J0000000D01*
G01*
G37*
G36*
G01*
X0320266Y0046959D02*
X0321251Y0046959D01*
G75*
G02*
X0321743Y0046467I0000000J-000492D01*
G01*
X0321743Y0041545D01*
G75*
G02*
X0321251Y0041053I-000492J0000000D01*
G01*
X0320266Y0041053D01*
G75*
G02*
X0319774Y0041545I0000000J0000492D01*
G01*
X0319774Y0046467D01*
G75*
G02*
X0320266Y0046959I0000492J0000000D01*
G01*
G37*
G36*
G01*
X0323416Y0046959D02*
X0324400Y0046959D01*
G75*
G02*
X0324892Y0046467I0000000J-000492D01*
G01*
X0324892Y0041545D01*
G75*
G02*
X0324400Y0041053I-000492J0000000D01*
G01*
X0323416Y0041053D01*
G75*
G02*
X0322924Y0041545I0000000J0000492D01*
G01*
X0322924Y0046467D01*
G75*
G02*
X0323416Y0046959I0000492J0000000D01*
G01*
G37*
G36*
G01*
X0326566Y0046959D02*
X0327550Y0046959D01*
G75*
G02*
X0328042Y0046467I0000000J-000492D01*
G01*
X0328042Y0041545D01*
G75*
G02*
X0327550Y0041053I-000492J0000000D01*
G01*
X0326566Y0041053D01*
G75*
G02*
X0326073Y0041545I0000000J0000492D01*
G01*
X0326073Y0046467D01*
G75*
G02*
X0326566Y0046959I0000492J0000000D01*
G01*
G37*
G36*
G01*
X0329715Y0046959D02*
X0330699Y0046959D01*
G75*
G02*
X0331192Y0046467I0000000J-000492D01*
G01*
X0331192Y0041545D01*
G75*
G02*
X0330699Y0041053I-000492J0000000D01*
G01*
X0329715Y0041053D01*
G75*
G02*
X0329223Y0041545I0000000J0000492D01*
G01*
X0329223Y0046467D01*
G75*
G02*
X0329715Y0046959I0000492J0000000D01*
G01*
G37*
G36*
G01*
X0332865Y0046959D02*
X0333849Y0046959D01*
G75*
G02*
X0334341Y0046467I0000000J-000492D01*
G01*
X0334341Y0041545D01*
G75*
G02*
X0333849Y0041053I-000492J0000000D01*
G01*
X0332865Y0041053D01*
G75*
G02*
X0332373Y0041545I0000000J0000492D01*
G01*
X0332373Y0046467D01*
G75*
G02*
X0332865Y0046959I0000492J0000000D01*
G01*
G37*
G36*
G01*
X0336310Y0050404D02*
X0341231Y0050404D01*
G75*
G02*
X0341723Y0049912I0000000J-000492D01*
G01*
X0341723Y0048927D01*
G75*
G02*
X0341231Y0048435I-000492J0000000D01*
G01*
X0336310Y0048435D01*
G75*
G02*
X0335817Y0048927I0000000J0000492D01*
G01*
X0335817Y0049912D01*
G75*
G02*
X0336310Y0050404I0000492J0000000D01*
G01*
G37*
G36*
G01*
X0336310Y0053553D02*
X0341231Y0053553D01*
G75*
G02*
X0341723Y0053061I0000000J-000492D01*
G01*
X0341723Y0052077D01*
G75*
G02*
X0341231Y0051585I-000492J0000000D01*
G01*
X0336310Y0051585D01*
G75*
G02*
X0335817Y0052077I0000000J0000492D01*
G01*
X0335817Y0053061D01*
G75*
G02*
X0336310Y0053553I0000492J0000000D01*
G01*
G37*
G36*
G01*
X0336310Y0056703D02*
X0341231Y0056703D01*
G75*
G02*
X0341723Y0056211I0000000J-000492D01*
G01*
X0341723Y0055227D01*
G75*
G02*
X0341231Y0054734I-000492J0000000D01*
G01*
X0336310Y0054734D01*
G75*
G02*
X0335817Y0055227I0000000J0000492D01*
G01*
X0335817Y0056211D01*
G75*
G02*
X0336310Y0056703I0000492J0000000D01*
G01*
G37*
G36*
G01*
X0336310Y0059852D02*
X0341231Y0059852D01*
G75*
G02*
X0341723Y0059360I0000000J-000492D01*
G01*
X0341723Y0058376D01*
G75*
G02*
X0341231Y0057884I-000492J0000000D01*
G01*
X0336310Y0057884D01*
G75*
G02*
X0335817Y0058376I0000000J0000492D01*
G01*
X0335817Y0059360D01*
G75*
G02*
X0336310Y0059852I0000492J0000000D01*
G01*
G37*
G36*
G01*
X0336310Y0063002D02*
X0341231Y0063002D01*
G75*
G02*
X0341723Y0062510I0000000J-000492D01*
G01*
X0341723Y0061526D01*
G75*
G02*
X0341231Y0061034I-000492J0000000D01*
G01*
X0336310Y0061034D01*
G75*
G02*
X0335817Y0061526I0000000J0000492D01*
G01*
X0335817Y0062510D01*
G75*
G02*
X0336310Y0063002I0000492J0000000D01*
G01*
G37*
G36*
G01*
X0336310Y0066152D02*
X0341231Y0066152D01*
G75*
G02*
X0341723Y0065660I0000000J-000492D01*
G01*
X0341723Y0064675D01*
G75*
G02*
X0341231Y0064183I-000492J0000000D01*
G01*
X0336310Y0064183D01*
G75*
G02*
X0335817Y0064675I0000000J0000492D01*
G01*
X0335817Y0065660D01*
G75*
G02*
X0336310Y0066152I0000492J0000000D01*
G01*
G37*
G36*
G01*
X0336310Y0069301D02*
X0341231Y0069301D01*
G75*
G02*
X0341723Y0068809I0000000J-000492D01*
G01*
X0341723Y0067825D01*
G75*
G02*
X0341231Y0067333I-000492J0000000D01*
G01*
X0336310Y0067333D01*
G75*
G02*
X0335817Y0067825I0000000J0000492D01*
G01*
X0335817Y0068809D01*
G75*
G02*
X0336310Y0069301I0000492J0000000D01*
G01*
G37*
G36*
G01*
X0336310Y0072451D02*
X0341231Y0072451D01*
G75*
G02*
X0341723Y0071959I0000000J-000492D01*
G01*
X0341723Y0070975D01*
G75*
G02*
X0341231Y0070482I-000492J0000000D01*
G01*
X0336310Y0070482D01*
G75*
G02*
X0335817Y0070975I0000000J0000492D01*
G01*
X0335817Y0071959D01*
G75*
G02*
X0336310Y0072451I0000492J0000000D01*
G01*
G37*
G36*
G01*
X0314764Y0037825D02*
X0316123Y0037825D01*
G75*
G02*
X0316703Y0037244I0000000J-000581D01*
G01*
X0316703Y0036083D01*
G75*
G02*
X0316123Y0035502I-000581J0000000D01*
G01*
X0314764Y0035502D01*
G75*
G02*
X0314184Y0036083I0000000J0000581D01*
G01*
X0314184Y0037244D01*
G75*
G02*
X0314764Y0037825I0000581J0000000D01*
G01*
G37*
G36*
G01*
X0314764Y0034006D02*
X0316123Y0034006D01*
G75*
G02*
X0316703Y0033425I0000000J-000581D01*
G01*
X0316703Y0032264D01*
G75*
G02*
X0316123Y0031683I-000581J0000000D01*
G01*
X0314764Y0031683D01*
G75*
G02*
X0314184Y0032264I0000000J0000581D01*
G01*
X0314184Y0033425D01*
G75*
G02*
X0314764Y0034006I0000581J0000000D01*
G01*
G37*
G36*
G01*
X0338160Y0044902D02*
X0338160Y0046260D01*
G75*
G02*
X0338741Y0046841I0000581J0000000D01*
G01*
X0339902Y0046841D01*
G75*
G02*
X0340483Y0046260I0000000J-000581D01*
G01*
X0340483Y0044902D01*
G75*
G02*
X0339902Y0044321I-000581J0000000D01*
G01*
X0338741Y0044321D01*
G75*
G02*
X0338160Y0044902I0000000J0000581D01*
G01*
G37*
G36*
G01*
X0341979Y0044902D02*
X0341979Y0046260D01*
G75*
G02*
X0342560Y0046841I0000581J0000000D01*
G01*
X0343721Y0046841D01*
G75*
G02*
X0344302Y0046260I0000000J-000581D01*
G01*
X0344302Y0044902D01*
G75*
G02*
X0343721Y0044321I-000581J0000000D01*
G01*
X0342560Y0044321D01*
G75*
G02*
X0341979Y0044902I0000000J0000581D01*
G01*
G37*
G36*
G01*
X0316123Y0021258D02*
X0314764Y0021258D01*
G75*
G02*
X0314184Y0021839I0000000J0000581D01*
G01*
X0314184Y0023000D01*
G75*
G02*
X0314764Y0023581I0000581J0000000D01*
G01*
X0316123Y0023581D01*
G75*
G02*
X0316703Y0023000I0000000J-000581D01*
G01*
X0316703Y0021839D01*
G75*
G02*
X0316123Y0021258I-000581J0000000D01*
G01*
G37*
G36*
G01*
X0316123Y0025077D02*
X0314764Y0025077D01*
G75*
G02*
X0314184Y0025658I0000000J0000581D01*
G01*
X0314184Y0026819D01*
G75*
G02*
X0314764Y0027400I0000581J0000000D01*
G01*
X0316123Y0027400D01*
G75*
G02*
X0316703Y0026819I0000000J-000581D01*
G01*
X0316703Y0025658D01*
G75*
G02*
X0316123Y0025077I-000581J0000000D01*
G01*
G37*
D196*
X0310522Y0022746D03*
X0310522Y0030227D03*
X0302648Y0026486D03*
G36*
G01*
X0336290Y0081811D02*
X0336290Y0083169D01*
G75*
G02*
X0336871Y0083750I0000581J0000000D01*
G01*
X0338032Y0083750D01*
G75*
G02*
X0338613Y0083169I0000000J-000581D01*
G01*
X0338613Y0081811D01*
G75*
G02*
X0338032Y0081230I-000581J0000000D01*
G01*
X0336871Y0081230D01*
G75*
G02*
X0336290Y0081811I0000000J0000581D01*
G01*
G37*
G36*
G01*
X0340109Y0081811D02*
X0340109Y0083169D01*
G75*
G02*
X0340690Y0083750I0000581J0000000D01*
G01*
X0341851Y0083750D01*
G75*
G02*
X0342432Y0083169I0000000J-000581D01*
G01*
X0342432Y0081811D01*
G75*
G02*
X0341851Y0081230I-000581J0000000D01*
G01*
X0340690Y0081230D01*
G75*
G02*
X0340109Y0081811I0000000J0000581D01*
G01*
G37*
G36*
G01*
X0301251Y0035684D02*
X0301251Y0037702D01*
G75*
G02*
X0302112Y0038563I0000861J0000000D01*
G01*
X0303834Y0038563D01*
G75*
G02*
X0304695Y0037702I0000000J-000861D01*
G01*
X0304695Y0035684D01*
G75*
G02*
X0303834Y0034823I-000861J0000000D01*
G01*
X0302112Y0034823D01*
G75*
G02*
X0301251Y0035684I0000000J0000861D01*
G01*
G37*
G36*
G01*
X0307451Y0035684D02*
X0307451Y0037702D01*
G75*
G02*
X0308313Y0038563I0000861J0000000D01*
G01*
X0310035Y0038563D01*
G75*
G02*
X0310896Y0037702I0000000J-000861D01*
G01*
X0310896Y0035684D01*
G75*
G02*
X0310035Y0034823I-000861J0000000D01*
G01*
X0308313Y0034823D01*
G75*
G02*
X0307451Y0035684I0000000J0000861D01*
G01*
G37*
X0187528Y0322130D02*
%LPD*%
G01*
D264*
X0200520Y0288272D03*
X0198552Y0288272D03*
X0196583Y0288272D03*
X0194615Y0288272D03*
X0192646Y0288272D03*
X0192646Y0270949D03*
X0194615Y0270949D03*
X0196583Y0270949D03*
X0198552Y0270949D03*
X0200520Y0270949D03*
G36*
G01*
X0213709Y0280752D02*
X0213709Y0277681D01*
G75*
G02*
X0213434Y0277406I-000276J0000000D01*
G01*
X0211229Y0277406D01*
G75*
G02*
X0210953Y0277681I0000000J0000276D01*
G01*
X0210953Y0280752D01*
G75*
G02*
X0211229Y0281028I0000276J0000000D01*
G01*
X0213434Y0281028D01*
G75*
G02*
X0213709Y0280752I0000000J-000276D01*
G01*
G37*
G36*
G01*
X0207410Y0280752D02*
X0207410Y0277681D01*
G75*
G02*
X0207134Y0277406I-000276J0000000D01*
G01*
X0204930Y0277406D01*
G75*
G02*
X0204654Y0277681I0000000J0000276D01*
G01*
X0204654Y0280752D01*
G75*
G02*
X0204930Y0281028I0000276J0000000D01*
G01*
X0207134Y0281028D01*
G75*
G02*
X0207410Y0280752I0000000J-000276D01*
G01*
G37*
G36*
G01*
X0220363Y0266421D02*
X0217292Y0266421D01*
G75*
G02*
X0217016Y0266697I0000000J0000276D01*
G01*
X0217016Y0268902D01*
G75*
G02*
X0217292Y0269177I0000276J0000000D01*
G01*
X0220363Y0269177D01*
G75*
G02*
X0220638Y0268902I0000000J-000276D01*
G01*
X0220638Y0266697D01*
G75*
G02*
X0220363Y0266421I-000276J0000000D01*
G01*
G37*
G36*
G01*
X0220363Y0272721D02*
X0217292Y0272721D01*
G75*
G02*
X0217016Y0272996I0000000J0000276D01*
G01*
X0217016Y0275201D01*
G75*
G02*
X0217292Y0275476I0000276J0000000D01*
G01*
X0220363Y0275476D01*
G75*
G02*
X0220638Y0275201I0000000J-000276D01*
G01*
X0220638Y0272996D01*
G75*
G02*
X0220363Y0272721I-000276J0000000D01*
G01*
G37*
G36*
G01*
X0213709Y0286658D02*
X0213709Y0283587D01*
G75*
G02*
X0213434Y0283311I-000276J0000000D01*
G01*
X0211229Y0283311D01*
G75*
G02*
X0210953Y0283587I0000000J0000276D01*
G01*
X0210953Y0286658D01*
G75*
G02*
X0211229Y0286933I0000276J0000000D01*
G01*
X0213434Y0286933D01*
G75*
G02*
X0213709Y0286658I0000000J-000276D01*
G01*
G37*
G36*
G01*
X0207410Y0286658D02*
X0207410Y0283587D01*
G75*
G02*
X0207134Y0283311I-000276J0000000D01*
G01*
X0204930Y0283311D01*
G75*
G02*
X0204654Y0283587I0000000J0000276D01*
G01*
X0204654Y0286658D01*
G75*
G02*
X0204930Y0286933I0000276J0000000D01*
G01*
X0207134Y0286933D01*
G75*
G02*
X0207410Y0286658I0000000J-000276D01*
G01*
G37*
G36*
G01*
X0220033Y0278331D02*
X0218015Y0278331D01*
G75*
G02*
X0217154Y0279192I0000000J0000861D01*
G01*
X0217154Y0280914D01*
G75*
G02*
X0218015Y0281776I0000861J0000000D01*
G01*
X0220033Y0281776D01*
G75*
G02*
X0220894Y0280914I0000000J-000861D01*
G01*
X0220894Y0279192D01*
G75*
G02*
X0220033Y0278331I-000861J0000000D01*
G01*
G37*
G36*
G01*
X0220033Y0284532D02*
X0218015Y0284532D01*
G75*
G02*
X0217154Y0285393I0000000J0000861D01*
G01*
X0217154Y0287115D01*
G75*
G02*
X0218015Y0287976I0000861J0000000D01*
G01*
X0220033Y0287976D01*
G75*
G02*
X0220894Y0287115I0000000J-000861D01*
G01*
X0220894Y0285393D01*
G75*
G02*
X0220033Y0284532I-000861J0000000D01*
G01*
G37*
G36*
G01*
X0213071Y0272386D02*
X0210394Y0272386D01*
G75*
G02*
X0210059Y0272721I0000000J0000335D01*
G01*
X0210059Y0275398D01*
G75*
G02*
X0210394Y0275732I0000335J0000000D01*
G01*
X0213071Y0275732D01*
G75*
G02*
X0213406Y0275398I0000000J-000335D01*
G01*
X0213406Y0272721D01*
G75*
G02*
X0213071Y0272386I-000335J0000000D01*
G01*
G37*
G36*
G01*
X0213071Y0266165D02*
X0210394Y0266165D01*
G75*
G02*
X0210059Y0266500I0000000J0000335D01*
G01*
X0210059Y0269177D01*
G75*
G02*
X0210394Y0269512I0000335J0000000D01*
G01*
X0213071Y0269512D01*
G75*
G02*
X0213406Y0269177I0000000J-000335D01*
G01*
X0213406Y0266500D01*
G75*
G02*
X0213071Y0266165I-000335J0000000D01*
G01*
G37*
G36*
G01*
X0207764Y0266165D02*
X0205087Y0266165D01*
G75*
G02*
X0204752Y0266500I0000000J0000335D01*
G01*
X0204752Y0269177D01*
G75*
G02*
X0205087Y0269512I0000335J0000000D01*
G01*
X0207764Y0269512D01*
G75*
G02*
X0208099Y0269177I0000000J-000335D01*
G01*
X0208099Y0266500D01*
G75*
G02*
X0207764Y0266165I-000335J0000000D01*
G01*
G37*
G36*
G01*
X0207764Y0272386D02*
X0205087Y0272386D01*
G75*
G02*
X0204752Y0272721I0000000J0000335D01*
G01*
X0204752Y0275398D01*
G75*
G02*
X0205087Y0275732I0000335J0000000D01*
G01*
X0207764Y0275732D01*
G75*
G02*
X0208099Y0275398I0000000J-000335D01*
G01*
X0208099Y0272721D01*
G75*
G02*
X0207764Y0272386I-000335J0000000D01*
G01*
G37*
G36*
G01*
X0213965Y0291579D02*
X0213965Y0288902D01*
G75*
G02*
X0213630Y0288567I-000335J0000000D01*
G01*
X0210953Y0288567D01*
G75*
G02*
X0210619Y0288902I0000000J0000335D01*
G01*
X0210619Y0291579D01*
G75*
G02*
X0210953Y0291913I0000335J0000000D01*
G01*
X0213630Y0291913D01*
G75*
G02*
X0213965Y0291579I0000000J-000335D01*
G01*
G37*
G36*
G01*
X0207745Y0291579D02*
X0207745Y0288902D01*
G75*
G02*
X0207410Y0288567I-000335J0000000D01*
G01*
X0204733Y0288567D01*
G75*
G02*
X0204398Y0288902I0000000J0000335D01*
G01*
X0204398Y0291579D01*
G75*
G02*
X0204733Y0291913I0000335J0000000D01*
G01*
X0207410Y0291913D01*
G75*
G02*
X0207745Y0291579I0000000J-000335D01*
G01*
G37*
X0002138Y0118315D02*
G01*
G75*
D473*
X0026505Y0073236D02*
D03*
X0008788Y0073236D02*
D03*
D474*
X0050957Y0076563D02*
D03*
X0050957Y0103925D02*
D03*
D475*
X0027729Y0087803D02*
D03*
X0027729Y0103945D02*
D03*
D476*
X0009618Y0086032D02*
D03*
X0009618Y0101780D02*
D03*
D477*
X0071396Y0108971D02*
D03*
X0067656Y0099719D02*
D03*
D477*
X0075136Y0099719D02*
D03*
D478*
X0081075Y0076884D02*
D03*
D478*
X0077335Y0076884D02*
D03*
X0073595Y0076884D02*
D03*
X0073595Y0068420D02*
D03*
X0081075Y0068420D02*
D03*
D479*
X0067074Y0064568D02*
D03*
X0067074Y0077560D02*
D03*
D480*
X0067362Y0082854D02*
D03*
X0067362Y0094272D02*
D03*
D481*
X0034815Y0063669D02*
D03*
X0034815Y0069890D02*
D03*
X0034815Y0074260D02*
D03*
X0034815Y0080480D02*
D03*
D482*
X0011926Y0114346D02*
D03*
X0016060Y0114346D02*
D03*
X0053800Y0063791D02*
D03*
X0057934Y0063791D02*
D03*
X0049087Y0063791D02*
D03*
X0044953Y0063791D02*
D03*
X0029438Y0062899D02*
D03*
X0025304Y0062899D02*
D03*
D483*
X0073645Y0082002D02*
D03*
X0077582Y0082002D02*
D03*
X0074547Y0095677D02*
D03*
X0074547Y0087016D02*
D03*
X0080944Y0095677D02*
D03*
X0080944Y0087016D02*
D03*
D484*
X0081075Y0104050D02*
D03*
X0081075Y0100506D02*
D03*
D485*
X0057737Y0068049D02*
D03*
X0054193Y0068049D02*
D03*
X0048693Y0068049D02*
D03*
X0045150Y0068049D02*
D03*
X0017137Y0062899D02*
D03*
X0020681Y0062899D02*
D03*
X0256092Y0010801D02*
G01*
G75*
D309*
X0243080Y0022218D02*
D03*
X0252332Y0018478D02*
D03*
D309*
X0243080Y0014738D02*
D03*
D287*
X0231466Y0029777D02*
D03*
X0236466Y0029777D02*
D03*
X0241466Y0029777D02*
D03*
X0246466Y0029777D02*
D03*
X0231466Y0048675D02*
D03*
X0236466Y0048675D02*
D03*
X0241466Y0048675D02*
D03*
X0246466Y0048675D02*
D03*
D416*
X0251761Y0045486D02*
D03*
X0251761Y0051706D02*
D03*
X0251761Y0037140D02*
D03*
X0251761Y0030919D02*
D03*
D509*
X0238179Y0015328D02*
D03*
X0238179Y0021628D02*
D03*
D10*
X0254222Y0025958D02*
D03*
M02*
