G75*
G70*
%OFA0B0*%
%FSLAX25Y25*%
%IPPOS*%
%LPD*%
%AMOC8*
5,1,8,0,0,1.08239X$1,22.5*
%
%AMM16*
21,1,0.031500,0.018900,0.000000,0.000000,0.000000*
21,1,0.022840,0.027560,0.000000,0.000000,0.000000*
1,1,0.008660,0.011420,-0.009450*
1,1,0.008660,-0.011420,-0.009450*
1,1,0.008660,-0.011420,0.009450*
1,1,0.008660,0.011420,0.009450*
%
%AMM17*
21,1,0.031500,0.030710,0.000000,0.000000,0.000000*
21,1,0.022050,0.040160,0.000000,0.000000,0.000000*
1,1,0.009450,0.011020,-0.015350*
1,1,0.009450,-0.011020,-0.015350*
1,1,0.009450,-0.011020,0.015350*
1,1,0.009450,0.011020,0.015350*
%
%AMM18*
21,1,0.031500,0.018900,0.000000,0.000000,90.000000*
21,1,0.022840,0.027560,0.000000,0.000000,90.000000*
1,1,0.008660,0.009450,0.011420*
1,1,0.008660,0.009450,-0.011420*
1,1,0.008660,-0.009450,-0.011420*
1,1,0.008660,-0.009450,0.011420*
%
%AMM19*
21,1,0.037400,0.026770,0.000000,0.000000,0.000000*
21,1,0.026770,0.037400,0.000000,0.000000,0.000000*
1,1,0.010630,0.013390,-0.013390*
1,1,0.010630,-0.013390,-0.013390*
1,1,0.010630,-0.013390,0.013390*
1,1,0.010630,0.013390,0.013390*
%
%AMM20*
21,1,0.031500,0.030710,0.000000,0.000000,90.000000*
21,1,0.022050,0.040160,0.000000,0.000000,90.000000*
1,1,0.009450,0.015350,0.011020*
1,1,0.009450,0.015350,-0.011020*
1,1,0.009450,-0.015350,-0.011020*
1,1,0.009450,-0.015350,0.011020*
%
%AMM21*
21,1,0.039370,0.030320,0.000000,0.000000,90.000000*
21,1,0.028350,0.041340,0.000000,0.000000,90.000000*
1,1,0.011020,0.015160,0.014170*
1,1,0.011020,0.015160,-0.014170*
1,1,0.011020,-0.015160,-0.014170*
1,1,0.011020,-0.015160,0.014170*
%
%AMM22*
21,1,0.047240,0.075980,0.000000,0.000000,0.000000*
21,1,0.034650,0.088580,0.000000,0.000000,0.000000*
1,1,0.012600,0.017320,-0.037990*
1,1,0.012600,-0.017320,-0.037990*
1,1,0.012600,-0.017320,0.037990*
1,1,0.012600,0.017320,0.037990*
%
%AMM23*
21,1,0.047240,0.075990,0.000000,0.000000,0.000000*
21,1,0.034650,0.088580,0.000000,0.000000,0.000000*
1,1,0.012600,0.017320,-0.037990*
1,1,0.012600,-0.017320,-0.037990*
1,1,0.012600,-0.017320,0.037990*
1,1,0.012600,0.017320,0.037990*
%
%AMM24*
21,1,0.141730,0.067720,0.000000,0.000000,0.000000*
21,1,0.120870,0.088580,0.000000,0.000000,0.000000*
1,1,0.020870,0.060430,-0.033860*
1,1,0.020870,-0.060430,-0.033860*
1,1,0.020870,-0.060430,0.033860*
1,1,0.020870,0.060430,0.033860*
%
%AMM25*
21,1,0.043310,0.035430,0.000000,0.000000,0.000000*
21,1,0.031500,0.047240,0.000000,0.000000,0.000000*
1,1,0.011810,0.015750,-0.017720*
1,1,0.011810,-0.015750,-0.017720*
1,1,0.011810,-0.015750,0.017720*
1,1,0.011810,0.015750,0.017720*
%
%AMM26*
21,1,0.027560,0.030710,0.000000,0.000000,180.000000*
21,1,0.018900,0.039370,0.000000,0.000000,180.000000*
1,1,0.008660,-0.009450,0.015350*
1,1,0.008660,0.009450,0.015350*
1,1,0.008660,0.009450,-0.015350*
1,1,0.008660,-0.009450,-0.015350*
%
%AMM27*
21,1,0.027560,0.030710,0.000000,0.000000,270.000000*
21,1,0.018900,0.039370,0.000000,0.000000,270.000000*
1,1,0.008660,-0.015350,-0.009450*
1,1,0.008660,-0.015350,0.009450*
1,1,0.008660,0.015350,0.009450*
1,1,0.008660,0.015350,-0.009450*
%
%AMM28*
21,1,0.090550,0.073230,0.000000,0.000000,180.000000*
21,1,0.069290,0.094490,0.000000,0.000000,180.000000*
1,1,0.021260,-0.034650,0.036610*
1,1,0.021260,0.034650,0.036610*
1,1,0.021260,0.034650,-0.036610*
1,1,0.021260,-0.034650,-0.036610*
%
%AMM29*
21,1,0.035430,0.072440,0.000000,0.000000,90.000000*
21,1,0.025200,0.082680,0.000000,0.000000,90.000000*
1,1,0.010240,0.036220,0.012600*
1,1,0.010240,0.036220,-0.012600*
1,1,0.010240,-0.036220,-0.012600*
1,1,0.010240,-0.036220,0.012600*
%
%AMM30*
21,1,0.043310,0.035430,0.000000,0.000000,270.000000*
21,1,0.031500,0.047240,0.000000,0.000000,270.000000*
1,1,0.011810,-0.017720,-0.015750*
1,1,0.011810,-0.017720,0.015750*
1,1,0.011810,0.017720,0.015750*
1,1,0.011810,0.017720,-0.015750*
%
%AMM87*
21,1,0.027170,0.052760,0.000000,-0.000000,180.000000*
21,1,0.017320,0.062600,0.000000,-0.000000,180.000000*
1,1,0.009840,-0.008660,0.026380*
1,1,0.009840,0.008660,0.026380*
1,1,0.009840,0.008660,-0.026380*
1,1,0.009840,-0.008660,-0.026380*
%
%ADD10C,0.02362*%
%ADD100C,0.04294*%
%ADD101C,0.05906*%
%ADD138R,0.03543X0.03150*%
%ADD140C,0.05118*%
%ADD142R,0.03150X0.03543*%
%ADD172C,0.02913*%
%ADD180R,0.08661X0.04724*%
%ADD181R,0.25197X0.22835*%
%ADD182R,0.07874X0.07500*%
%ADD183O,0.07874X0.07500*%
%ADD187R,0.01181X0.05512*%
%ADD209M87*%
%ADD68C,0.03100*%
%ADD73C,0.03900*%
%ADD75M16*%
%ADD76R,0.04724X0.04331*%
%ADD77M17*%
%ADD78M18*%
%ADD79O,0.05118X0.01378*%
%ADD80O,0.01378X0.05118*%
%ADD81M19*%
%ADD82M20*%
%ADD83O,0.09055X0.02756*%
%ADD84M21*%
%ADD85M22*%
%ADD86M23*%
%ADD87M24*%
%ADD88M25*%
%ADD89M26*%
%ADD90C,0.03494*%
%ADD91M27*%
%ADD92M28*%
%ADD93C,0.03543*%
%ADD94M29*%
%ADD95O,0.04724X0.01575*%
%ADD96R,0.01870X0.01772*%
%ADD97R,0.01772X0.01870*%
%ADD98M30*%
%ADD99C,0.04724*%
X0000000Y0000000D02*
%LPD*%
G01*
D10*
X0118819Y0211929D03*
X0114094Y0211929D03*
X0123543Y0211929D03*
X0128268Y0211929D03*
X0102835Y0268720D03*
X0098898Y0268720D03*
X0127480Y0170000D03*
X0123740Y0170000D03*
X0120000Y0170000D03*
X0123937Y0204252D03*
X0127480Y0204252D03*
X0193858Y0116063D02*
G01*
G75*
D75*
X0244252Y0203858D02*
D03*
X0244252Y0199921D02*
D03*
X0198582Y0127480D02*
D03*
X0198582Y0123543D02*
D03*
X0345433Y0129843D02*
D03*
X0345433Y0125906D02*
D03*
X0336181Y0125946D02*
D03*
X0336181Y0129883D02*
D03*
X0340708Y0129883D02*
D03*
X0340708Y0125946D02*
D03*
X0247303Y0223150D02*
D03*
X0247303Y0227087D02*
D03*
X0300997Y0176102D02*
D03*
X0300997Y0180039D02*
D03*
X0248779Y0199921D02*
D03*
X0248779Y0203858D02*
D03*
X0296220Y0176102D02*
D03*
X0296220Y0180039D02*
D03*
X0291496Y0180039D02*
D03*
X0291496Y0176102D02*
D03*
X0286771Y0180039D02*
D03*
X0286771Y0176102D02*
D03*
X0270630Y0238563D02*
D03*
X0270630Y0242500D02*
D03*
X0305079Y0231220D02*
D03*
X0305079Y0227284D02*
D03*
X0309409Y0227284D02*
D03*
X0309409Y0231220D02*
D03*
X0241496Y0125118D02*
D03*
X0241496Y0121181D02*
D03*
X0255669Y0125118D02*
D03*
X0255669Y0121181D02*
D03*
X0349960Y0129843D02*
D03*
X0349960Y0125906D02*
D03*
X0198189Y0144213D02*
D03*
X0198189Y0140276D02*
D03*
X0203701Y0125118D02*
D03*
X0203701Y0129055D02*
D03*
X0208425Y0125118D02*
D03*
X0208425Y0129055D02*
D03*
X0213149Y0125118D02*
D03*
X0213149Y0129055D02*
D03*
X0217874Y0125118D02*
D03*
X0217874Y0129055D02*
D03*
X0203701Y0125118D02*
D03*
X0203701Y0121181D02*
D03*
X0208425Y0125118D02*
D03*
X0208425Y0121181D02*
D03*
X0213149Y0125118D02*
D03*
X0213149Y0121181D02*
D03*
X0217874Y0125118D02*
D03*
X0217874Y0121181D02*
D03*
X0222598Y0125118D02*
D03*
X0222598Y0129055D02*
D03*
X0227323Y0125118D02*
D03*
X0227323Y0129055D02*
D03*
X0232047Y0125118D02*
D03*
X0232047Y0129055D02*
D03*
X0236889Y0125118D02*
D03*
X0236889Y0129055D02*
D03*
X0222598Y0125118D02*
D03*
X0222598Y0121181D02*
D03*
X0227323Y0125118D02*
D03*
X0227323Y0121181D02*
D03*
X0232047Y0125118D02*
D03*
X0232047Y0121181D02*
D03*
X0236771Y0125118D02*
D03*
X0236771Y0121181D02*
D03*
X0241496Y0125118D02*
D03*
X0241496Y0129055D02*
D03*
X0246220Y0125118D02*
D03*
X0246220Y0129055D02*
D03*
X0250945Y0125118D02*
D03*
X0250945Y0129055D02*
D03*
X0255669Y0125118D02*
D03*
X0255669Y0129055D02*
D03*
X0246220Y0125118D02*
D03*
X0246220Y0121181D02*
D03*
X0250945Y0125118D02*
D03*
X0250945Y0121181D02*
D03*
X0198582Y0135157D02*
D03*
X0198582Y0131220D02*
D03*
X0234803Y0247953D02*
D03*
X0234803Y0251890D02*
D03*
D76*
X0237756Y0201693D02*
D03*
X0237756Y0208386D02*
D03*
D77*
X0316299Y0198740D02*
D03*
X0322598Y0198740D02*
D03*
D78*
X0263740Y0181024D02*
D03*
X0267677Y0181024D02*
D03*
X0265708Y0238898D02*
D03*
X0261771Y0238898D02*
D03*
X0311771Y0196378D02*
D03*
X0307834Y0196378D02*
D03*
X0311771Y0201496D02*
D03*
X0307834Y0201496D02*
D03*
X0228897Y0239291D02*
D03*
X0232834Y0239291D02*
D03*
D79*
X0254882Y0224331D02*
D03*
X0254882Y0222362D02*
D03*
X0254882Y0220394D02*
D03*
X0254882Y0218425D02*
D03*
X0254882Y0216457D02*
D03*
X0254882Y0214488D02*
D03*
X0254882Y0212520D02*
D03*
X0254882Y0210551D02*
D03*
X0254882Y0208583D02*
D03*
X0254882Y0206614D02*
D03*
X0254882Y0204646D02*
D03*
X0254882Y0202677D02*
D03*
X0254882Y0200709D02*
D03*
X0254882Y0198740D02*
D03*
X0254882Y0196772D02*
D03*
X0254882Y0194803D02*
D03*
X0300157Y0194803D02*
D03*
X0300157Y0196772D02*
D03*
X0300157Y0198740D02*
D03*
X0300157Y0200709D02*
D03*
X0300157Y0202677D02*
D03*
X0300157Y0204646D02*
D03*
X0300157Y0206614D02*
D03*
X0300157Y0208583D02*
D03*
X0300157Y0210551D02*
D03*
X0300157Y0212520D02*
D03*
X0300157Y0214488D02*
D03*
X0300157Y0216457D02*
D03*
X0300157Y0218425D02*
D03*
X0300157Y0220394D02*
D03*
X0300157Y0222362D02*
D03*
X0300157Y0224331D02*
D03*
D80*
X0262756Y0186929D02*
D03*
X0264724Y0186929D02*
D03*
X0266693Y0186929D02*
D03*
X0268661Y0186929D02*
D03*
X0270630Y0186929D02*
D03*
X0272598Y0186929D02*
D03*
X0274567Y0186929D02*
D03*
X0276535Y0186929D02*
D03*
X0278504Y0186929D02*
D03*
X0280472Y0186929D02*
D03*
X0282441Y0186929D02*
D03*
X0284409Y0186929D02*
D03*
X0286378Y0186929D02*
D03*
X0288346Y0186929D02*
D03*
X0290315Y0186929D02*
D03*
X0292283Y0186929D02*
D03*
X0292283Y0232205D02*
D03*
X0290315Y0232205D02*
D03*
X0288346Y0232205D02*
D03*
X0286378Y0232205D02*
D03*
X0284409Y0232205D02*
D03*
X0282441Y0232205D02*
D03*
X0280472Y0232205D02*
D03*
X0278504Y0232205D02*
D03*
X0276535Y0232205D02*
D03*
X0274567Y0232205D02*
D03*
X0272598Y0232205D02*
D03*
X0270630Y0232205D02*
D03*
X0268661Y0232205D02*
D03*
X0266693Y0232205D02*
D03*
X0264724Y0232205D02*
D03*
X0262756Y0232205D02*
D03*
D81*
X0315708Y0215669D02*
D03*
X0321929Y0215669D02*
D03*
D82*
X0280669Y0245197D02*
D03*
X0280669Y0238898D02*
D03*
D83*
X0219646Y0193996D02*
D03*
X0219646Y0198996D02*
D03*
X0219646Y0203996D02*
D03*
X0219646Y0208996D02*
D03*
X0200748Y0193996D02*
D03*
X0200748Y0198996D02*
D03*
X0200748Y0203996D02*
D03*
X0200748Y0208996D02*
D03*
X0200551Y0232620D02*
D03*
X0200551Y0227620D02*
D03*
X0200551Y0222620D02*
D03*
X0200551Y0217620D02*
D03*
X0219449Y0232620D02*
D03*
X0219449Y0227620D02*
D03*
X0219449Y0222620D02*
D03*
X0219449Y0217620D02*
D03*
D84*
X0354888Y0243575D02*
D03*
X0345636Y0247315D02*
D03*
D84*
X0354888Y0251055D02*
D03*
D85*
X0201338Y0241260D02*
D03*
X0219449Y0241260D02*
D03*
D86*
X0210393Y0241260D02*
D03*
D87*
X0210393Y0265669D02*
D03*
D88*
X0231653Y0232008D02*
D03*
X0238346Y0232008D02*
D03*
X0231653Y0223740D02*
D03*
X0238346Y0223740D02*
D03*
D89*
X0354289Y0268202D02*
D03*
X0350549Y0268202D02*
D03*
X0346808Y0268202D02*
D03*
X0346808Y0258753D02*
D03*
X0350549Y0258753D02*
D03*
X0354289Y0258753D02*
D03*
D90*
X0244606Y0268504D02*
D03*
X0244606Y0263504D02*
D03*
X0239606Y0268504D02*
D03*
X0239606Y0263504D02*
D03*
X0234606Y0268504D02*
D03*
X0234606Y0263504D02*
D03*
D91*
X0253307Y0141850D02*
D03*
X0253307Y0138110D02*
D03*
X0253307Y0134370D02*
D03*
X0243858Y0134370D02*
D03*
X0243858Y0138110D02*
D03*
X0243858Y0141850D02*
D03*
X0215512Y0141850D02*
D03*
X0215512Y0138110D02*
D03*
X0215512Y0134370D02*
D03*
X0206063Y0134370D02*
D03*
X0206063Y0138110D02*
D03*
X0206063Y0141850D02*
D03*
X0234409Y0141850D02*
D03*
X0234409Y0138110D02*
D03*
X0234409Y0134370D02*
D03*
X0224960Y0134370D02*
D03*
X0224960Y0138110D02*
D03*
X0224960Y0141850D02*
D03*
D92*
X0320827Y0127874D02*
D03*
X0303110Y0127874D02*
D03*
D93*
X0336260Y0121181D02*
D03*
X0198582Y0119213D02*
D03*
D94*
X0352519Y0237716D02*
D03*
X0352519Y0221181D02*
D03*
X0352519Y0198347D02*
D03*
X0352519Y0214882D02*
D03*
D95*
X0249567Y0153465D02*
D03*
X0249567Y0156024D02*
D03*
X0249567Y0158583D02*
D03*
X0249567Y0161142D02*
D03*
X0249567Y0163701D02*
D03*
X0249567Y0166260D02*
D03*
X0249567Y0168819D02*
D03*
X0227126Y0153465D02*
D03*
X0227126Y0156024D02*
D03*
X0227126Y0158583D02*
D03*
X0227126Y0161142D02*
D03*
X0227126Y0163701D02*
D03*
X0227126Y0166260D02*
D03*
X0227126Y0168819D02*
D03*
X0221614Y0153465D02*
D03*
X0221614Y0156024D02*
D03*
X0221614Y0158583D02*
D03*
X0221614Y0161142D02*
D03*
X0221614Y0163701D02*
D03*
X0221614Y0166260D02*
D03*
X0221614Y0168819D02*
D03*
X0199173Y0153465D02*
D03*
X0199173Y0156024D02*
D03*
X0199173Y0158583D02*
D03*
X0199173Y0161142D02*
D03*
X0199173Y0163701D02*
D03*
X0199173Y0166260D02*
D03*
X0199173Y0168819D02*
D03*
X0277519Y0153465D02*
D03*
X0277519Y0156024D02*
D03*
X0277519Y0158583D02*
D03*
X0277519Y0161142D02*
D03*
X0277519Y0163701D02*
D03*
X0277519Y0166260D02*
D03*
X0277519Y0168819D02*
D03*
X0255079Y0153465D02*
D03*
X0255079Y0156024D02*
D03*
X0255079Y0158583D02*
D03*
X0255079Y0161142D02*
D03*
X0255079Y0163701D02*
D03*
X0255079Y0166260D02*
D03*
X0255079Y0168819D02*
D03*
D96*
X0239675Y0248740D02*
D03*
X0239675Y0250709D02*
D03*
X0239675Y0252677D02*
D03*
X0245679Y0252677D02*
D03*
X0245679Y0250709D02*
D03*
X0245679Y0248740D02*
D03*
D97*
X0241693Y0253711D02*
D03*
X0243661Y0253711D02*
D03*
X0243661Y0247707D02*
D03*
X0241693Y0247707D02*
D03*
D98*
X0228799Y0246772D02*
D03*
X0228799Y0253465D02*
D03*
D99*
X0327716Y0151496D02*
D03*
X0347401Y0151496D02*
D03*
X0288346Y0139685D02*
D03*
X0308031Y0151496D02*
D03*
X0288346Y0151496D02*
D03*
X0347401Y0163307D02*
D03*
X0327716Y0163307D02*
D03*
X0308031Y0163307D02*
D03*
X0288346Y0163307D02*
D03*
X0308031Y0139685D02*
D03*
X0347401Y0139685D02*
D03*
X0327716Y0139685D02*
D03*
D100*
X0249606Y0266004D02*
D03*
X0229606Y0262004D02*
D03*
X0229606Y0270004D02*
D03*
D101*
X0198189Y0269606D02*
D03*
X0135157Y0270197D02*
%LPD*%
G01*
G36*
G01*
X0170866Y0202589D02*
X0170866Y0203947D01*
G75*
G02*
X0171446Y0204528I0000581J0000000D01*
G01*
X0172608Y0204528D01*
G75*
G02*
X0173188Y0203947I0000000J-000581D01*
G01*
X0173188Y0202589D01*
G75*
G02*
X0172608Y0202008I-000581J0000000D01*
G01*
X0171446Y0202008D01*
G75*
G02*
X0170866Y0202589I0000000J0000581D01*
G01*
G37*
G36*
G01*
X0174685Y0202589D02*
X0174685Y0203947D01*
G75*
G02*
X0175265Y0204528I0000581J0000000D01*
G01*
X0176427Y0204528D01*
G75*
G02*
X0177007Y0203947I0000000J-000581D01*
G01*
X0177007Y0202589D01*
G75*
G02*
X0176427Y0202008I-000581J0000000D01*
G01*
X0175265Y0202008D01*
G75*
G02*
X0174685Y0202589I0000000J0000581D01*
G01*
G37*
G36*
G01*
X0155442Y0261162D02*
X0156801Y0261162D01*
G75*
G02*
X0157381Y0260581I0000000J-000581D01*
G01*
X0157381Y0259419D01*
G75*
G02*
X0156801Y0258839I-000581J0000000D01*
G01*
X0155442Y0258839D01*
G75*
G02*
X0154862Y0259419I0000000J0000581D01*
G01*
X0154862Y0260581D01*
G75*
G02*
X0155442Y0261162I0000581J0000000D01*
G01*
G37*
G36*
G01*
X0155442Y0257343D02*
X0156801Y0257343D01*
G75*
G02*
X0157381Y0256762I0000000J-000581D01*
G01*
X0157381Y0255601D01*
G75*
G02*
X0156801Y0255020I-000581J0000000D01*
G01*
X0155442Y0255020D01*
G75*
G02*
X0154862Y0255601I0000000J0000581D01*
G01*
X0154862Y0256762D01*
G75*
G02*
X0155442Y0257343I0000581J0000000D01*
G01*
G37*
G36*
G01*
X0170639Y0250635D02*
X0170639Y0248617D01*
G75*
G02*
X0169778Y0247756I-000861J0000000D01*
G01*
X0168056Y0247756D01*
G75*
G02*
X0167194Y0248617I0000000J0000861D01*
G01*
X0167194Y0250635D01*
G75*
G02*
X0168056Y0251496I0000861J0000000D01*
G01*
X0169778Y0251496D01*
G75*
G02*
X0170639Y0250635I0000000J-000861D01*
G01*
G37*
G36*
G01*
X0164438Y0250635D02*
X0164438Y0248617D01*
G75*
G02*
X0163577Y0247756I-000861J0000000D01*
G01*
X0161855Y0247756D01*
G75*
G02*
X0160994Y0248617I0000000J0000861D01*
G01*
X0160994Y0250635D01*
G75*
G02*
X0161855Y0251496I0000861J0000000D01*
G01*
X0163577Y0251496D01*
G75*
G02*
X0164438Y0250635I0000000J-000861D01*
G01*
G37*
G36*
G01*
X0145610Y0204144D02*
X0145610Y0202786D01*
G75*
G02*
X0145029Y0202205I-000581J0000000D01*
G01*
X0143868Y0202205D01*
G75*
G02*
X0143287Y0202786I0000000J0000581D01*
G01*
X0143287Y0204144D01*
G75*
G02*
X0143868Y0204725I0000581J0000000D01*
G01*
X0145029Y0204725D01*
G75*
G02*
X0145610Y0204144I0000000J-000581D01*
G01*
G37*
G36*
G01*
X0141791Y0204144D02*
X0141791Y0202786D01*
G75*
G02*
X0141210Y0202205I-000581J0000000D01*
G01*
X0140049Y0202205D01*
G75*
G02*
X0139468Y0202786I0000000J0000581D01*
G01*
X0139468Y0204144D01*
G75*
G02*
X0140049Y0204725I0000581J0000000D01*
G01*
X0141210Y0204725D01*
G75*
G02*
X0141791Y0204144I0000000J-000581D01*
G01*
G37*
D142*
X0161437Y0255335D03*
X0168917Y0255335D03*
X0165177Y0263209D03*
G36*
G01*
X0145610Y0208327D02*
X0145610Y0206969D01*
G75*
G02*
X0145029Y0206388I-000581J0000000D01*
G01*
X0143868Y0206388D01*
G75*
G02*
X0143287Y0206969I0000000J0000581D01*
G01*
X0143287Y0208327D01*
G75*
G02*
X0143868Y0208908I0000581J0000000D01*
G01*
X0145029Y0208908D01*
G75*
G02*
X0145610Y0208327I0000000J-000581D01*
G01*
G37*
G36*
G01*
X0141791Y0208327D02*
X0141791Y0206969D01*
G75*
G02*
X0141210Y0206388I-000581J0000000D01*
G01*
X0140049Y0206388D01*
G75*
G02*
X0139468Y0206969I0000000J0000581D01*
G01*
X0139468Y0208327D01*
G75*
G02*
X0140049Y0208908I0000581J0000000D01*
G01*
X0141210Y0208908D01*
G75*
G02*
X0141791Y0208327I0000000J-000581D01*
G01*
G37*
G36*
G01*
X0169527Y0203947D02*
X0169527Y0202589D01*
G75*
G02*
X0168946Y0202008I-000581J0000000D01*
G01*
X0167785Y0202008D01*
G75*
G02*
X0167204Y0202589I0000000J0000581D01*
G01*
X0167204Y0203947D01*
G75*
G02*
X0167785Y0204528I0000581J0000000D01*
G01*
X0168946Y0204528D01*
G75*
G02*
X0169527Y0203947I0000000J-000581D01*
G01*
G37*
G36*
G01*
X0165708Y0203947D02*
X0165708Y0202589D01*
G75*
G02*
X0165127Y0202008I-000581J0000000D01*
G01*
X0163966Y0202008D01*
G75*
G02*
X0163385Y0202589I0000000J0000581D01*
G01*
X0163385Y0203947D01*
G75*
G02*
X0163966Y0204528I0000581J0000000D01*
G01*
X0165127Y0204528D01*
G75*
G02*
X0165708Y0203947I0000000J-000581D01*
G01*
G37*
G36*
G01*
X0181791Y0207707D02*
X0181791Y0209065D01*
G75*
G02*
X0182372Y0209646I0000581J0000000D01*
G01*
X0183533Y0209646D01*
G75*
G02*
X0184114Y0209065I0000000J-000581D01*
G01*
X0184114Y0207707D01*
G75*
G02*
X0183533Y0207126I-000581J0000000D01*
G01*
X0182372Y0207126D01*
G75*
G02*
X0181791Y0207707I0000000J0000581D01*
G01*
G37*
G36*
G01*
X0185610Y0207707D02*
X0185610Y0209065D01*
G75*
G02*
X0186190Y0209646I0000581J0000000D01*
G01*
X0187352Y0209646D01*
G75*
G02*
X0187933Y0209065I0000000J-000581D01*
G01*
X0187933Y0207707D01*
G75*
G02*
X0187352Y0207126I-000581J0000000D01*
G01*
X0186190Y0207126D01*
G75*
G02*
X0185610Y0207707I0000000J0000581D01*
G01*
G37*
G36*
G01*
X0155019Y0202589D02*
X0155019Y0203947D01*
G75*
G02*
X0155600Y0204528I0000581J0000000D01*
G01*
X0156761Y0204528D01*
G75*
G02*
X0157342Y0203947I0000000J-000581D01*
G01*
X0157342Y0202589D01*
G75*
G02*
X0156761Y0202008I-000581J0000000D01*
G01*
X0155600Y0202008D01*
G75*
G02*
X0155019Y0202589I0000000J0000581D01*
G01*
G37*
G36*
G01*
X0158838Y0202589D02*
X0158838Y0203947D01*
G75*
G02*
X0159419Y0204528I0000581J0000000D01*
G01*
X0160580Y0204528D01*
G75*
G02*
X0161161Y0203947I0000000J-000581D01*
G01*
X0161161Y0202589D01*
G75*
G02*
X0160580Y0202008I-000581J0000000D01*
G01*
X0159419Y0202008D01*
G75*
G02*
X0158838Y0202589I0000000J0000581D01*
G01*
G37*
G36*
G01*
X0181791Y0242353D02*
X0181791Y0243711D01*
G75*
G02*
X0182372Y0244291I0000581J0000000D01*
G01*
X0183533Y0244291D01*
G75*
G02*
X0184114Y0243711I0000000J-000581D01*
G01*
X0184114Y0242353D01*
G75*
G02*
X0183533Y0241772I-000581J0000000D01*
G01*
X0182372Y0241772D01*
G75*
G02*
X0181791Y0242353I0000000J0000581D01*
G01*
G37*
G36*
G01*
X0185610Y0242353D02*
X0185610Y0243711D01*
G75*
G02*
X0186190Y0244291I0000581J0000000D01*
G01*
X0187352Y0244291D01*
G75*
G02*
X0187933Y0243711I0000000J-000581D01*
G01*
X0187933Y0242353D01*
G75*
G02*
X0187352Y0241772I-000581J0000000D01*
G01*
X0186190Y0241772D01*
G75*
G02*
X0185610Y0242353I0000000J0000581D01*
G01*
G37*
D180*
X0175118Y0177914D03*
D140*
X0146771Y0179016D03*
X0158582Y0186890D03*
X0146771Y0194764D03*
D181*
X0150314Y0186890D03*
D180*
X0175118Y0195866D03*
G36*
G01*
X0155344Y0253386D02*
X0156702Y0253386D01*
G75*
G02*
X0157283Y0252805I0000000J-000581D01*
G01*
X0157283Y0251644D01*
G75*
G02*
X0156702Y0251063I-000581J0000000D01*
G01*
X0155344Y0251063D01*
G75*
G02*
X0154763Y0251644I0000000J0000581D01*
G01*
X0154763Y0252805D01*
G75*
G02*
X0155344Y0253386I0000581J0000000D01*
G01*
G37*
G36*
G01*
X0155344Y0249567D02*
X0156702Y0249567D01*
G75*
G02*
X0157283Y0248986I0000000J-000581D01*
G01*
X0157283Y0247825D01*
G75*
G02*
X0156702Y0247244I-000581J0000000D01*
G01*
X0155344Y0247244D01*
G75*
G02*
X0154763Y0247825I0000000J0000581D01*
G01*
X0154763Y0248986D01*
G75*
G02*
X0155344Y0249567I0000581J0000000D01*
G01*
G37*
G36*
G01*
X0141678Y0214882D02*
X0139660Y0214882D01*
G75*
G02*
X0138799Y0215743I0000000J0000861D01*
G01*
X0138799Y0217466D01*
G75*
G02*
X0139660Y0218327I0000861J0000000D01*
G01*
X0141678Y0218327D01*
G75*
G02*
X0142539Y0217466I0000000J-000861D01*
G01*
X0142539Y0215743D01*
G75*
G02*
X0141678Y0214882I-000861J0000000D01*
G01*
G37*
G36*
G01*
X0141678Y0221083D02*
X0139660Y0221083D01*
G75*
G02*
X0138799Y0221944I0000000J0000861D01*
G01*
X0138799Y0223666D01*
G75*
G02*
X0139660Y0224528I0000861J0000000D01*
G01*
X0141678Y0224528D01*
G75*
G02*
X0142539Y0223666I0000000J-000861D01*
G01*
X0142539Y0221944D01*
G75*
G02*
X0141678Y0221083I-000861J0000000D01*
G01*
G37*
G36*
G01*
X0145610Y0212510D02*
X0145610Y0211152D01*
G75*
G02*
X0145029Y0210571I-000581J0000000D01*
G01*
X0143868Y0210571D01*
G75*
G02*
X0143287Y0211152I0000000J0000581D01*
G01*
X0143287Y0212510D01*
G75*
G02*
X0143868Y0213091I0000581J0000000D01*
G01*
X0145029Y0213091D01*
G75*
G02*
X0145610Y0212510I0000000J-000581D01*
G01*
G37*
G36*
G01*
X0141791Y0212510D02*
X0141791Y0211152D01*
G75*
G02*
X0141210Y0210571I-000581J0000000D01*
G01*
X0140049Y0210571D01*
G75*
G02*
X0139468Y0211152I0000000J0000581D01*
G01*
X0139468Y0212510D01*
G75*
G02*
X0140049Y0213091I0000581J0000000D01*
G01*
X0141210Y0213091D01*
G75*
G02*
X0141791Y0212510I0000000J-000581D01*
G01*
G37*
G36*
G01*
X0141063Y0168401D02*
X0141063Y0170418D01*
G75*
G02*
X0141924Y0171280I0000861J0000000D01*
G01*
X0143646Y0171280D01*
G75*
G02*
X0144507Y0170418I0000000J-000861D01*
G01*
X0144507Y0168401D01*
G75*
G02*
X0143646Y0167540I-000861J0000000D01*
G01*
X0141924Y0167540D01*
G75*
G02*
X0141063Y0168401I0000000J0000861D01*
G01*
G37*
G36*
G01*
X0147263Y0168401D02*
X0147263Y0170418D01*
G75*
G02*
X0148125Y0171280I0000861J0000000D01*
G01*
X0149847Y0171280D01*
G75*
G02*
X0150708Y0170418I0000000J-000861D01*
G01*
X0150708Y0168401D01*
G75*
G02*
X0149847Y0167540I-000861J0000000D01*
G01*
X0148125Y0167540D01*
G75*
G02*
X0147263Y0168401I0000000J0000861D01*
G01*
G37*
G36*
G01*
X0139660Y0236240D02*
X0141678Y0236240D01*
G75*
G02*
X0142539Y0235379I0000000J-000861D01*
G01*
X0142539Y0233657D01*
G75*
G02*
X0141678Y0232795I-000861J0000000D01*
G01*
X0139660Y0232795D01*
G75*
G02*
X0138799Y0233657I0000000J0000861D01*
G01*
X0138799Y0235379D01*
G75*
G02*
X0139660Y0236240I0000861J0000000D01*
G01*
G37*
G36*
G01*
X0139660Y0230040D02*
X0141678Y0230040D01*
G75*
G02*
X0142539Y0229178I0000000J-000861D01*
G01*
X0142539Y0227456D01*
G75*
G02*
X0141678Y0226595I-000861J0000000D01*
G01*
X0139660Y0226595D01*
G75*
G02*
X0138799Y0227456I0000000J0000861D01*
G01*
X0138799Y0229178D01*
G75*
G02*
X0139660Y0230040I0000861J0000000D01*
G01*
G37*
G36*
G01*
X0143838Y0240561D02*
X0143838Y0239203D01*
G75*
G02*
X0143257Y0238622I-000581J0000000D01*
G01*
X0142096Y0238622D01*
G75*
G02*
X0141515Y0239203I0000000J0000581D01*
G01*
X0141515Y0240561D01*
G75*
G02*
X0142096Y0241142I0000581J0000000D01*
G01*
X0143257Y0241142D01*
G75*
G02*
X0143838Y0240561I0000000J-000581D01*
G01*
G37*
G36*
G01*
X0140019Y0240561D02*
X0140019Y0239203D01*
G75*
G02*
X0139438Y0238622I-000581J0000000D01*
G01*
X0138277Y0238622D01*
G75*
G02*
X0137696Y0239203I0000000J0000581D01*
G01*
X0137696Y0240561D01*
G75*
G02*
X0138277Y0241142I0000581J0000000D01*
G01*
X0139438Y0241142D01*
G75*
G02*
X0140019Y0240561I0000000J-000581D01*
G01*
G37*
G36*
G01*
X0156515Y0206122D02*
X0155531Y0206122D01*
G75*
G02*
X0155039Y0206614I0000000J0000492D01*
G01*
X0155039Y0211536D01*
G75*
G02*
X0155531Y0212028I0000492J0000000D01*
G01*
X0156515Y0212028D01*
G75*
G02*
X0157007Y0211536I0000000J-000492D01*
G01*
X0157007Y0206614D01*
G75*
G02*
X0156515Y0206122I-000492J0000000D01*
G01*
G37*
G36*
G01*
X0159665Y0206122D02*
X0158681Y0206122D01*
G75*
G02*
X0158188Y0206614I0000000J0000492D01*
G01*
X0158188Y0211536D01*
G75*
G02*
X0158681Y0212028I0000492J0000000D01*
G01*
X0159665Y0212028D01*
G75*
G02*
X0160157Y0211536I0000000J-000492D01*
G01*
X0160157Y0206614D01*
G75*
G02*
X0159665Y0206122I-000492J0000000D01*
G01*
G37*
G36*
G01*
X0162814Y0206122D02*
X0161830Y0206122D01*
G75*
G02*
X0161338Y0206614I0000000J0000492D01*
G01*
X0161338Y0211536D01*
G75*
G02*
X0161830Y0212028I0000492J0000000D01*
G01*
X0162814Y0212028D01*
G75*
G02*
X0163307Y0211536I0000000J-000492D01*
G01*
X0163307Y0206614D01*
G75*
G02*
X0162814Y0206122I-000492J0000000D01*
G01*
G37*
G36*
G01*
X0165964Y0206122D02*
X0164980Y0206122D01*
G75*
G02*
X0164488Y0206614I0000000J0000492D01*
G01*
X0164488Y0211536D01*
G75*
G02*
X0164980Y0212028I0000492J0000000D01*
G01*
X0165964Y0212028D01*
G75*
G02*
X0166456Y0211536I0000000J-000492D01*
G01*
X0166456Y0206614D01*
G75*
G02*
X0165964Y0206122I-000492J0000000D01*
G01*
G37*
G36*
G01*
X0169114Y0206122D02*
X0168129Y0206122D01*
G75*
G02*
X0167637Y0206614I0000000J0000492D01*
G01*
X0167637Y0211536D01*
G75*
G02*
X0168129Y0212028I0000492J0000000D01*
G01*
X0169114Y0212028D01*
G75*
G02*
X0169606Y0211536I0000000J-000492D01*
G01*
X0169606Y0206614D01*
G75*
G02*
X0169114Y0206122I-000492J0000000D01*
G01*
G37*
G36*
G01*
X0172263Y0206122D02*
X0171279Y0206122D01*
G75*
G02*
X0170787Y0206614I0000000J0000492D01*
G01*
X0170787Y0211536D01*
G75*
G02*
X0171279Y0212028I0000492J0000000D01*
G01*
X0172263Y0212028D01*
G75*
G02*
X0172755Y0211536I0000000J-000492D01*
G01*
X0172755Y0206614D01*
G75*
G02*
X0172263Y0206122I-000492J0000000D01*
G01*
G37*
G36*
G01*
X0175413Y0206122D02*
X0174429Y0206122D01*
G75*
G02*
X0173937Y0206614I0000000J0000492D01*
G01*
X0173937Y0211536D01*
G75*
G02*
X0174429Y0212028I0000492J0000000D01*
G01*
X0175413Y0212028D01*
G75*
G02*
X0175905Y0211536I0000000J-000492D01*
G01*
X0175905Y0206614D01*
G75*
G02*
X0175413Y0206122I-000492J0000000D01*
G01*
G37*
G36*
G01*
X0178563Y0206122D02*
X0177578Y0206122D01*
G75*
G02*
X0177086Y0206614I0000000J0000492D01*
G01*
X0177086Y0211536D01*
G75*
G02*
X0177578Y0212028I0000492J0000000D01*
G01*
X0178563Y0212028D01*
G75*
G02*
X0179055Y0211536I0000000J-000492D01*
G01*
X0179055Y0206614D01*
G75*
G02*
X0178563Y0206122I-000492J0000000D01*
G01*
G37*
G36*
G01*
X0185944Y0213504D02*
X0181023Y0213504D01*
G75*
G02*
X0180531Y0213996I0000000J0000492D01*
G01*
X0180531Y0214980D01*
G75*
G02*
X0181023Y0215473I0000492J0000000D01*
G01*
X0185944Y0215473D01*
G75*
G02*
X0186437Y0214980I0000000J-000492D01*
G01*
X0186437Y0213996D01*
G75*
G02*
X0185944Y0213504I-000492J0000000D01*
G01*
G37*
G36*
G01*
X0185944Y0216654D02*
X0181023Y0216654D01*
G75*
G02*
X0180531Y0217146I0000000J0000492D01*
G01*
X0180531Y0218130D01*
G75*
G02*
X0181023Y0218622I0000492J0000000D01*
G01*
X0185944Y0218622D01*
G75*
G02*
X0186437Y0218130I0000000J-000492D01*
G01*
X0186437Y0217146D01*
G75*
G02*
X0185944Y0216654I-000492J0000000D01*
G01*
G37*
G36*
G01*
X0185944Y0219803D02*
X0181023Y0219803D01*
G75*
G02*
X0180531Y0220295I0000000J0000492D01*
G01*
X0180531Y0221280D01*
G75*
G02*
X0181023Y0221772I0000492J0000000D01*
G01*
X0185944Y0221772D01*
G75*
G02*
X0186437Y0221280I0000000J-000492D01*
G01*
X0186437Y0220295D01*
G75*
G02*
X0185944Y0219803I-000492J0000000D01*
G01*
G37*
G36*
G01*
X0185944Y0222953D02*
X0181023Y0222953D01*
G75*
G02*
X0180531Y0223445I0000000J0000492D01*
G01*
X0180531Y0224429D01*
G75*
G02*
X0181023Y0224921I0000492J0000000D01*
G01*
X0185944Y0224921D01*
G75*
G02*
X0186437Y0224429I0000000J-000492D01*
G01*
X0186437Y0223445D01*
G75*
G02*
X0185944Y0222953I-000492J0000000D01*
G01*
G37*
G36*
G01*
X0185944Y0226103D02*
X0181023Y0226103D01*
G75*
G02*
X0180531Y0226595I0000000J0000492D01*
G01*
X0180531Y0227579D01*
G75*
G02*
X0181023Y0228071I0000492J0000000D01*
G01*
X0185944Y0228071D01*
G75*
G02*
X0186437Y0227579I0000000J-000492D01*
G01*
X0186437Y0226595D01*
G75*
G02*
X0185944Y0226103I-000492J0000000D01*
G01*
G37*
G36*
G01*
X0185944Y0229252D02*
X0181023Y0229252D01*
G75*
G02*
X0180531Y0229744I0000000J0000492D01*
G01*
X0180531Y0230728D01*
G75*
G02*
X0181023Y0231221I0000492J0000000D01*
G01*
X0185944Y0231221D01*
G75*
G02*
X0186437Y0230728I0000000J-000492D01*
G01*
X0186437Y0229744D01*
G75*
G02*
X0185944Y0229252I-000492J0000000D01*
G01*
G37*
G36*
G01*
X0185944Y0232402D02*
X0181023Y0232402D01*
G75*
G02*
X0180531Y0232894I0000000J0000492D01*
G01*
X0180531Y0233878D01*
G75*
G02*
X0181023Y0234370I0000492J0000000D01*
G01*
X0185944Y0234370D01*
G75*
G02*
X0186437Y0233878I0000000J-000492D01*
G01*
X0186437Y0232894D01*
G75*
G02*
X0185944Y0232402I-000492J0000000D01*
G01*
G37*
G36*
G01*
X0185944Y0235551D02*
X0181023Y0235551D01*
G75*
G02*
X0180531Y0236043I0000000J0000492D01*
G01*
X0180531Y0237028D01*
G75*
G02*
X0181023Y0237520I0000492J0000000D01*
G01*
X0185944Y0237520D01*
G75*
G02*
X0186437Y0237028I0000000J-000492D01*
G01*
X0186437Y0236043D01*
G75*
G02*
X0185944Y0235551I-000492J0000000D01*
G01*
G37*
G36*
G01*
X0178563Y0238996D02*
X0177578Y0238996D01*
G75*
G02*
X0177086Y0239488I0000000J0000492D01*
G01*
X0177086Y0244410D01*
G75*
G02*
X0177578Y0244902I0000492J0000000D01*
G01*
X0178563Y0244902D01*
G75*
G02*
X0179055Y0244410I0000000J-000492D01*
G01*
X0179055Y0239488D01*
G75*
G02*
X0178563Y0238996I-000492J0000000D01*
G01*
G37*
G36*
G01*
X0175413Y0238996D02*
X0174429Y0238996D01*
G75*
G02*
X0173937Y0239488I0000000J0000492D01*
G01*
X0173937Y0244410D01*
G75*
G02*
X0174429Y0244902I0000492J0000000D01*
G01*
X0175413Y0244902D01*
G75*
G02*
X0175905Y0244410I0000000J-000492D01*
G01*
X0175905Y0239488D01*
G75*
G02*
X0175413Y0238996I-000492J0000000D01*
G01*
G37*
G36*
G01*
X0172263Y0238996D02*
X0171279Y0238996D01*
G75*
G02*
X0170787Y0239488I0000000J0000492D01*
G01*
X0170787Y0244410D01*
G75*
G02*
X0171279Y0244902I0000492J0000000D01*
G01*
X0172263Y0244902D01*
G75*
G02*
X0172755Y0244410I0000000J-000492D01*
G01*
X0172755Y0239488D01*
G75*
G02*
X0172263Y0238996I-000492J0000000D01*
G01*
G37*
G36*
G01*
X0169114Y0238996D02*
X0168129Y0238996D01*
G75*
G02*
X0167637Y0239488I0000000J0000492D01*
G01*
X0167637Y0244410D01*
G75*
G02*
X0168129Y0244902I0000492J0000000D01*
G01*
X0169114Y0244902D01*
G75*
G02*
X0169606Y0244410I0000000J-000492D01*
G01*
X0169606Y0239488D01*
G75*
G02*
X0169114Y0238996I-000492J0000000D01*
G01*
G37*
G36*
G01*
X0165964Y0238996D02*
X0164980Y0238996D01*
G75*
G02*
X0164488Y0239488I0000000J0000492D01*
G01*
X0164488Y0244410D01*
G75*
G02*
X0164980Y0244902I0000492J0000000D01*
G01*
X0165964Y0244902D01*
G75*
G02*
X0166456Y0244410I0000000J-000492D01*
G01*
X0166456Y0239488D01*
G75*
G02*
X0165964Y0238996I-000492J0000000D01*
G01*
G37*
G36*
G01*
X0162814Y0238996D02*
X0161830Y0238996D01*
G75*
G02*
X0161338Y0239488I0000000J0000492D01*
G01*
X0161338Y0244410D01*
G75*
G02*
X0161830Y0244902I0000492J0000000D01*
G01*
X0162814Y0244902D01*
G75*
G02*
X0163307Y0244410I0000000J-000492D01*
G01*
X0163307Y0239488D01*
G75*
G02*
X0162814Y0238996I-000492J0000000D01*
G01*
G37*
G36*
G01*
X0159665Y0238996D02*
X0158681Y0238996D01*
G75*
G02*
X0158188Y0239488I0000000J0000492D01*
G01*
X0158188Y0244410D01*
G75*
G02*
X0158681Y0244902I0000492J0000000D01*
G01*
X0159665Y0244902D01*
G75*
G02*
X0160157Y0244410I0000000J-000492D01*
G01*
X0160157Y0239488D01*
G75*
G02*
X0159665Y0238996I-000492J0000000D01*
G01*
G37*
G36*
G01*
X0156515Y0238996D02*
X0155531Y0238996D01*
G75*
G02*
X0155039Y0239488I0000000J0000492D01*
G01*
X0155039Y0244410D01*
G75*
G02*
X0155531Y0244902I0000492J0000000D01*
G01*
X0156515Y0244902D01*
G75*
G02*
X0157007Y0244410I0000000J-000492D01*
G01*
X0157007Y0239488D01*
G75*
G02*
X0156515Y0238996I-000492J0000000D01*
G01*
G37*
G36*
G01*
X0153070Y0235551D02*
X0148149Y0235551D01*
G75*
G02*
X0147657Y0236043I0000000J0000492D01*
G01*
X0147657Y0237028D01*
G75*
G02*
X0148149Y0237520I0000492J0000000D01*
G01*
X0153070Y0237520D01*
G75*
G02*
X0153563Y0237028I0000000J-000492D01*
G01*
X0153563Y0236043D01*
G75*
G02*
X0153070Y0235551I-000492J0000000D01*
G01*
G37*
G36*
G01*
X0153070Y0232402D02*
X0148149Y0232402D01*
G75*
G02*
X0147657Y0232894I0000000J0000492D01*
G01*
X0147657Y0233878D01*
G75*
G02*
X0148149Y0234370I0000492J0000000D01*
G01*
X0153070Y0234370D01*
G75*
G02*
X0153563Y0233878I0000000J-000492D01*
G01*
X0153563Y0232894D01*
G75*
G02*
X0153070Y0232402I-000492J0000000D01*
G01*
G37*
G36*
G01*
X0153070Y0229252D02*
X0148149Y0229252D01*
G75*
G02*
X0147657Y0229744I0000000J0000492D01*
G01*
X0147657Y0230728D01*
G75*
G02*
X0148149Y0231221I0000492J0000000D01*
G01*
X0153070Y0231221D01*
G75*
G02*
X0153563Y0230728I0000000J-000492D01*
G01*
X0153563Y0229744D01*
G75*
G02*
X0153070Y0229252I-000492J0000000D01*
G01*
G37*
G36*
G01*
X0153070Y0226103D02*
X0148149Y0226103D01*
G75*
G02*
X0147657Y0226595I0000000J0000492D01*
G01*
X0147657Y0227579D01*
G75*
G02*
X0148149Y0228071I0000492J0000000D01*
G01*
X0153070Y0228071D01*
G75*
G02*
X0153563Y0227579I0000000J-000492D01*
G01*
X0153563Y0226595D01*
G75*
G02*
X0153070Y0226103I-000492J0000000D01*
G01*
G37*
G36*
G01*
X0153070Y0222953D02*
X0148149Y0222953D01*
G75*
G02*
X0147657Y0223445I0000000J0000492D01*
G01*
X0147657Y0224429D01*
G75*
G02*
X0148149Y0224921I0000492J0000000D01*
G01*
X0153070Y0224921D01*
G75*
G02*
X0153563Y0224429I0000000J-000492D01*
G01*
X0153563Y0223445D01*
G75*
G02*
X0153070Y0222953I-000492J0000000D01*
G01*
G37*
G36*
G01*
X0153070Y0219803D02*
X0148149Y0219803D01*
G75*
G02*
X0147657Y0220295I0000000J0000492D01*
G01*
X0147657Y0221280D01*
G75*
G02*
X0148149Y0221772I0000492J0000000D01*
G01*
X0153070Y0221772D01*
G75*
G02*
X0153563Y0221280I0000000J-000492D01*
G01*
X0153563Y0220295D01*
G75*
G02*
X0153070Y0219803I-000492J0000000D01*
G01*
G37*
G36*
G01*
X0153070Y0216654D02*
X0148149Y0216654D01*
G75*
G02*
X0147657Y0217146I0000000J0000492D01*
G01*
X0147657Y0218130D01*
G75*
G02*
X0148149Y0218622I0000492J0000000D01*
G01*
X0153070Y0218622D01*
G75*
G02*
X0153563Y0218130I0000000J-000492D01*
G01*
X0153563Y0217146D01*
G75*
G02*
X0153070Y0216654I-000492J0000000D01*
G01*
G37*
G36*
G01*
X0153070Y0213504D02*
X0148149Y0213504D01*
G75*
G02*
X0147657Y0213996I0000000J0000492D01*
G01*
X0147657Y0214980D01*
G75*
G02*
X0148149Y0215473I0000492J0000000D01*
G01*
X0153070Y0215473D01*
G75*
G02*
X0153563Y0214980I0000000J-000492D01*
G01*
X0153563Y0213996D01*
G75*
G02*
X0153070Y0213504I-000492J0000000D01*
G01*
G37*
G36*
G01*
X0174616Y0248130D02*
X0173257Y0248130D01*
G75*
G02*
X0172677Y0248711I0000000J0000581D01*
G01*
X0172677Y0249872D01*
G75*
G02*
X0173257Y0250453I0000581J0000000D01*
G01*
X0174616Y0250453D01*
G75*
G02*
X0175196Y0249872I0000000J-000581D01*
G01*
X0175196Y0248711D01*
G75*
G02*
X0174616Y0248130I-000581J0000000D01*
G01*
G37*
G36*
G01*
X0174616Y0251949D02*
X0173257Y0251949D01*
G75*
G02*
X0172677Y0252530I0000000J0000581D01*
G01*
X0172677Y0253691D01*
G75*
G02*
X0173257Y0254272I0000581J0000000D01*
G01*
X0174616Y0254272D01*
G75*
G02*
X0175196Y0253691I0000000J-000581D01*
G01*
X0175196Y0252530D01*
G75*
G02*
X0174616Y0251949I-000581J0000000D01*
G01*
G37*
G36*
G01*
X0151220Y0241053D02*
X0151220Y0239695D01*
G75*
G02*
X0150639Y0239114I-000581J0000000D01*
G01*
X0149478Y0239114D01*
G75*
G02*
X0148897Y0239695I0000000J0000581D01*
G01*
X0148897Y0241053D01*
G75*
G02*
X0149478Y0241634I0000581J0000000D01*
G01*
X0150639Y0241634D01*
G75*
G02*
X0151220Y0241053I0000000J-000581D01*
G01*
G37*
G36*
G01*
X0147401Y0241053D02*
X0147401Y0239695D01*
G75*
G02*
X0146820Y0239114I-000581J0000000D01*
G01*
X0145659Y0239114D01*
G75*
G02*
X0145078Y0239695I0000000J0000581D01*
G01*
X0145078Y0241053D01*
G75*
G02*
X0145659Y0241634I0000581J0000000D01*
G01*
X0146820Y0241634D01*
G75*
G02*
X0147401Y0241053I0000000J-000581D01*
G01*
G37*
G36*
G01*
X0173257Y0264697D02*
X0174616Y0264697D01*
G75*
G02*
X0175196Y0264116I0000000J-000581D01*
G01*
X0175196Y0262955D01*
G75*
G02*
X0174616Y0262374I-000581J0000000D01*
G01*
X0173257Y0262374D01*
G75*
G02*
X0172677Y0262955I0000000J0000581D01*
G01*
X0172677Y0264116D01*
G75*
G02*
X0173257Y0264697I0000581J0000000D01*
G01*
G37*
G36*
G01*
X0173257Y0260878D02*
X0174616Y0260878D01*
G75*
G02*
X0175196Y0260297I0000000J-000581D01*
G01*
X0175196Y0259136D01*
G75*
G02*
X0174616Y0258555I-000581J0000000D01*
G01*
X0173257Y0258555D01*
G75*
G02*
X0172677Y0259136I0000000J0000581D01*
G01*
X0172677Y0260297D01*
G75*
G02*
X0173257Y0260878I0000581J0000000D01*
G01*
G37*
D138*
X0178858Y0263209D03*
X0178858Y0255728D03*
X0186732Y0259469D03*
G36*
G01*
X0153090Y0204144D02*
X0153090Y0202786D01*
G75*
G02*
X0152509Y0202205I-000581J0000000D01*
G01*
X0151348Y0202205D01*
G75*
G02*
X0150767Y0202786I0000000J0000581D01*
G01*
X0150767Y0204144D01*
G75*
G02*
X0151348Y0204725I0000581J0000000D01*
G01*
X0152509Y0204725D01*
G75*
G02*
X0153090Y0204144I0000000J-000581D01*
G01*
G37*
G36*
G01*
X0149271Y0204144D02*
X0149271Y0202786D01*
G75*
G02*
X0148690Y0202205I-000581J0000000D01*
G01*
X0147529Y0202205D01*
G75*
G02*
X0146948Y0202786I0000000J0000581D01*
G01*
X0146948Y0204144D01*
G75*
G02*
X0147529Y0204725I0000581J0000000D01*
G01*
X0148690Y0204725D01*
G75*
G02*
X0149271Y0204144I0000000J-000581D01*
G01*
G37*
G36*
G01*
X0188129Y0250271D02*
X0188129Y0248253D01*
G75*
G02*
X0187268Y0247392I-000861J0000000D01*
G01*
X0185546Y0247392D01*
G75*
G02*
X0184685Y0248253I0000000J0000861D01*
G01*
X0184685Y0250271D01*
G75*
G02*
X0185546Y0251132I0000861J0000000D01*
G01*
X0187268Y0251132D01*
G75*
G02*
X0188129Y0250271I0000000J-000861D01*
G01*
G37*
G36*
G01*
X0181929Y0250271D02*
X0181929Y0248253D01*
G75*
G02*
X0181067Y0247392I-000861J0000000D01*
G01*
X0179345Y0247392D01*
G75*
G02*
X0178484Y0248253I0000000J0000861D01*
G01*
X0178484Y0250271D01*
G75*
G02*
X0179345Y0251132I0000861J0000000D01*
G01*
X0181067Y0251132D01*
G75*
G02*
X0181929Y0250271I0000000J-000861D01*
G01*
G37*
D73*
X0145984Y0266024D03*
X0141984Y0246024D03*
X0149984Y0246024D03*
D68*
X0143484Y0261024D03*
X0148484Y0261024D03*
X0143484Y0256024D03*
X0148484Y0256024D03*
X0143484Y0251024D03*
X0148484Y0251024D03*
D182*
X0184862Y0176536D03*
D183*
X0184862Y0186536D03*
X0184862Y0196536D03*
X0091654Y0270197D02*
%LPD*%
G01*
D10*
X0118819Y0211929D03*
X0114095Y0211929D03*
X0123544Y0211929D03*
X0128268Y0211929D03*
X0102835Y0268721D03*
X0098898Y0268721D03*
D187*
X0104646Y0236339D03*
X0102678Y0236339D03*
X0100709Y0236339D03*
X0098741Y0236339D03*
X0096772Y0236339D03*
X0096772Y0219016D03*
X0098741Y0219016D03*
X0100709Y0219016D03*
X0102678Y0219016D03*
X0104646Y0219016D03*
G36*
G01*
X0117835Y0228819D02*
X0117835Y0225748D01*
G75*
G02*
X0117560Y0225473I-000276J0000000D01*
G01*
X0115355Y0225473D01*
G75*
G02*
X0115079Y0225748I0000000J0000276D01*
G01*
X0115079Y0228819D01*
G75*
G02*
X0115355Y0229095I0000276J0000000D01*
G01*
X0117560Y0229095D01*
G75*
G02*
X0117835Y0228819I0000000J-000276D01*
G01*
G37*
G36*
G01*
X0111536Y0228819D02*
X0111536Y0225748D01*
G75*
G02*
X0111260Y0225473I-000276J0000000D01*
G01*
X0109056Y0225473D01*
G75*
G02*
X0108780Y0225748I0000000J0000276D01*
G01*
X0108780Y0228819D01*
G75*
G02*
X0109056Y0229095I0000276J0000000D01*
G01*
X0111260Y0229095D01*
G75*
G02*
X0111536Y0228819I0000000J-000276D01*
G01*
G37*
G36*
G01*
X0124489Y0214488D02*
X0121418Y0214488D01*
G75*
G02*
X0121142Y0214764I0000000J0000276D01*
G01*
X0121142Y0216969D01*
G75*
G02*
X0121418Y0217244I0000276J0000000D01*
G01*
X0124489Y0217244D01*
G75*
G02*
X0124764Y0216969I0000000J-000276D01*
G01*
X0124764Y0214764D01*
G75*
G02*
X0124489Y0214488I-000276J0000000D01*
G01*
G37*
G36*
G01*
X0124489Y0220788D02*
X0121418Y0220788D01*
G75*
G02*
X0121142Y0221063I0000000J0000276D01*
G01*
X0121142Y0223268D01*
G75*
G02*
X0121418Y0223543I0000276J0000000D01*
G01*
X0124489Y0223543D01*
G75*
G02*
X0124764Y0223268I0000000J-000276D01*
G01*
X0124764Y0221063D01*
G75*
G02*
X0124489Y0220788I-000276J0000000D01*
G01*
G37*
G36*
G01*
X0117835Y0234725D02*
X0117835Y0231654D01*
G75*
G02*
X0117560Y0231378I-000276J0000000D01*
G01*
X0115355Y0231378D01*
G75*
G02*
X0115079Y0231654I0000000J0000276D01*
G01*
X0115079Y0234725D01*
G75*
G02*
X0115355Y0235000I0000276J0000000D01*
G01*
X0117560Y0235000D01*
G75*
G02*
X0117835Y0234725I0000000J-000276D01*
G01*
G37*
G36*
G01*
X0111536Y0234725D02*
X0111536Y0231654D01*
G75*
G02*
X0111260Y0231378I-000276J0000000D01*
G01*
X0109056Y0231378D01*
G75*
G02*
X0108780Y0231654I0000000J0000276D01*
G01*
X0108780Y0234725D01*
G75*
G02*
X0109056Y0235000I0000276J0000000D01*
G01*
X0111260Y0235000D01*
G75*
G02*
X0111536Y0234725I0000000J-000276D01*
G01*
G37*
G36*
G01*
X0121575Y0245374D02*
X0121575Y0242658D01*
G75*
G02*
X0120670Y0241752I-000906J0000000D01*
G01*
X0115394Y0241752D01*
G75*
G02*
X0114489Y0242658I0000000J0000906D01*
G01*
X0114489Y0245374D01*
G75*
G02*
X0115394Y0246280I0000906J0000000D01*
G01*
X0120670Y0246280D01*
G75*
G02*
X0121575Y0245374I0000000J-000906D01*
G01*
G37*
G36*
G01*
X0121575Y0256792D02*
X0121575Y0254075D01*
G75*
G02*
X0120670Y0253169I-000906J0000000D01*
G01*
X0115394Y0253169D01*
G75*
G02*
X0114489Y0254075I0000000J0000906D01*
G01*
X0114489Y0256792D01*
G75*
G02*
X0115394Y0257697I0000906J0000000D01*
G01*
X0120670Y0257697D01*
G75*
G02*
X0121575Y0256792I0000000J-000906D01*
G01*
G37*
G36*
G01*
X0111733Y0245374D02*
X0111733Y0242658D01*
G75*
G02*
X0110827Y0241752I-000906J0000000D01*
G01*
X0105552Y0241752D01*
G75*
G02*
X0104646Y0242658I0000000J0000906D01*
G01*
X0104646Y0245374D01*
G75*
G02*
X0105552Y0246280I0000906J0000000D01*
G01*
X0110827Y0246280D01*
G75*
G02*
X0111733Y0245374I0000000J-000906D01*
G01*
G37*
G36*
G01*
X0111733Y0256792D02*
X0111733Y0254075D01*
G75*
G02*
X0110827Y0253169I-000906J0000000D01*
G01*
X0105552Y0253169D01*
G75*
G02*
X0104646Y0254075I0000000J0000906D01*
G01*
X0104646Y0256792D01*
G75*
G02*
X0105552Y0257697I0000906J0000000D01*
G01*
X0110827Y0257697D01*
G75*
G02*
X0111733Y0256792I0000000J-000906D01*
G01*
G37*
G36*
G01*
X0118052Y0267441D02*
X0120768Y0267441D01*
G75*
G02*
X0121674Y0266536I0000000J-000906D01*
G01*
X0121674Y0261260D01*
G75*
G02*
X0120768Y0260354I-000906J0000000D01*
G01*
X0118052Y0260354D01*
G75*
G02*
X0117146Y0261260I0000000J0000906D01*
G01*
X0117146Y0266536D01*
G75*
G02*
X0118052Y0267441I0000906J0000000D01*
G01*
G37*
G36*
G01*
X0106634Y0267441D02*
X0109351Y0267441D01*
G75*
G02*
X0110256Y0266536I0000000J-000906D01*
G01*
X0110256Y0261260D01*
G75*
G02*
X0109351Y0260354I-000906J0000000D01*
G01*
X0106634Y0260354D01*
G75*
G02*
X0105729Y0261260I0000000J0000906D01*
G01*
X0105729Y0266536D01*
G75*
G02*
X0106634Y0267441I0000906J0000000D01*
G01*
G37*
G36*
G01*
X0102284Y0252067D02*
X0102284Y0249351D01*
G75*
G02*
X0101378Y0248445I-000906J0000000D01*
G01*
X0096103Y0248445D01*
G75*
G02*
X0095197Y0249351I0000000J0000906D01*
G01*
X0095197Y0252067D01*
G75*
G02*
X0096103Y0252973I0000906J0000000D01*
G01*
X0101378Y0252973D01*
G75*
G02*
X0102284Y0252067I0000000J-000906D01*
G01*
G37*
G36*
G01*
X0102284Y0263484D02*
X0102284Y0260768D01*
G75*
G02*
X0101378Y0259862I-000906J0000000D01*
G01*
X0096103Y0259862D01*
G75*
G02*
X0095197Y0260768I0000000J0000906D01*
G01*
X0095197Y0263484D01*
G75*
G02*
X0096103Y0264390I0000906J0000000D01*
G01*
X0101378Y0264390D01*
G75*
G02*
X0102284Y0263484I0000000J-000906D01*
G01*
G37*
G36*
G01*
X0124159Y0226398D02*
X0122141Y0226398D01*
G75*
G02*
X0121280Y0227259I0000000J0000861D01*
G01*
X0121280Y0228981D01*
G75*
G02*
X0122141Y0229843I0000861J0000000D01*
G01*
X0124159Y0229843D01*
G75*
G02*
X0125020Y0228981I0000000J-000861D01*
G01*
X0125020Y0227259D01*
G75*
G02*
X0124159Y0226398I-000861J0000000D01*
G01*
G37*
G36*
G01*
X0124159Y0232599D02*
X0122141Y0232599D01*
G75*
G02*
X0121280Y0233460I0000000J0000861D01*
G01*
X0121280Y0235182D01*
G75*
G02*
X0122141Y0236043I0000861J0000000D01*
G01*
X0124159Y0236043D01*
G75*
G02*
X0125020Y0235182I0000000J-000861D01*
G01*
X0125020Y0233460D01*
G75*
G02*
X0124159Y0232599I-000861J0000000D01*
G01*
G37*
G36*
G01*
X0117197Y0220453D02*
X0114520Y0220453D01*
G75*
G02*
X0114185Y0220788I0000000J0000335D01*
G01*
X0114185Y0223465D01*
G75*
G02*
X0114520Y0223799I0000335J0000000D01*
G01*
X0117197Y0223799D01*
G75*
G02*
X0117532Y0223465I0000000J-000335D01*
G01*
X0117532Y0220788D01*
G75*
G02*
X0117197Y0220453I-000335J0000000D01*
G01*
G37*
G36*
G01*
X0117197Y0214232D02*
X0114520Y0214232D01*
G75*
G02*
X0114185Y0214567I0000000J0000335D01*
G01*
X0114185Y0217244D01*
G75*
G02*
X0114520Y0217579I0000335J0000000D01*
G01*
X0117197Y0217579D01*
G75*
G02*
X0117532Y0217244I0000000J-000335D01*
G01*
X0117532Y0214567D01*
G75*
G02*
X0117197Y0214232I-000335J0000000D01*
G01*
G37*
G36*
G01*
X0111890Y0214232D02*
X0109213Y0214232D01*
G75*
G02*
X0108878Y0214567I0000000J0000335D01*
G01*
X0108878Y0217244D01*
G75*
G02*
X0109213Y0217579I0000335J0000000D01*
G01*
X0111890Y0217579D01*
G75*
G02*
X0112225Y0217244I0000000J-000335D01*
G01*
X0112225Y0214567D01*
G75*
G02*
X0111890Y0214232I-000335J0000000D01*
G01*
G37*
G36*
G01*
X0111890Y0220453D02*
X0109213Y0220453D01*
G75*
G02*
X0108878Y0220788I0000000J0000335D01*
G01*
X0108878Y0223465D01*
G75*
G02*
X0109213Y0223799I0000335J0000000D01*
G01*
X0111890Y0223799D01*
G75*
G02*
X0112225Y0223465I0000000J-000335D01*
G01*
X0112225Y0220788D01*
G75*
G02*
X0111890Y0220453I-000335J0000000D01*
G01*
G37*
G36*
G01*
X0118091Y0239646D02*
X0118091Y0236969D01*
G75*
G02*
X0117756Y0236634I-000335J0000000D01*
G01*
X0115079Y0236634D01*
G75*
G02*
X0114745Y0236969I0000000J0000335D01*
G01*
X0114745Y0239646D01*
G75*
G02*
X0115079Y0239980I0000335J0000000D01*
G01*
X0117756Y0239980D01*
G75*
G02*
X0118091Y0239646I0000000J-000335D01*
G01*
G37*
G36*
G01*
X0111871Y0239646D02*
X0111871Y0236969D01*
G75*
G02*
X0111536Y0236634I-000335J0000000D01*
G01*
X0108859Y0236634D01*
G75*
G02*
X0108524Y0236969I0000000J0000335D01*
G01*
X0108524Y0239646D01*
G75*
G02*
X0108859Y0239980I0000335J0000000D01*
G01*
X0111536Y0239980D01*
G75*
G02*
X0111871Y0239646I0000000J-000335D01*
G01*
G37*
X0117244Y0205433D02*
G01*
G75*
D209*
X0127468Y0190728D02*
D03*
X0119988Y0190728D02*
D03*
X0119988Y0199193D02*
D03*
X0123728Y0199193D02*
D03*
X0127468Y0175079D02*
D03*
X0119988Y0175079D02*
D03*
X0119988Y0183543D02*
D03*
X0123728Y0183543D02*
D03*
D209*
X0127468Y0199193D02*
D03*
X0127468Y0183543D02*
D03*
D172*
X0127480Y0170000D02*
D03*
X0123740Y0170000D02*
D03*
X0120000Y0170000D02*
D03*
X0123937Y0204252D02*
D03*
X0127480Y0204252D02*
D03*
M02*
