G75*
G70*
%OFA0B0*%
%FSLAX25Y25*%
%IPPOS*%
%LPD*%
%AMOC8*
5,1,8,0,0,1.08239X$1,22.5*
%
%ADD10C,0.02362*%
%ADD102C,0.00984*%
%ADD106C,0.00800*%
%ADD11R,0.24350X0.00984*%
%ADD12R,0.04390X0.00984*%
%ADD13R,0.00984X0.56201*%
%ADD14R,0.00984X0.59449*%
%ADD140C,0.05118*%
%ADD15R,0.20374X0.00984*%
%ADD16O,0.04823X0.00787*%
%ADD17O,0.00787X0.36614*%
%ADD18R,0.00787X0.09055*%
%ADD182R,0.07874X0.07500*%
%ADD183O,0.07874X0.07500*%
%ADD19R,0.00787X0.42126*%
%ADD20R,0.00787X0.08268*%
%ADD21R,0.00787X0.23622*%
%ADD22R,0.00787X0.21260*%
%ADD23R,0.05512X0.00787*%
%ADD24R,0.19685X0.00787*%
%ADD25R,0.26772X0.00787*%
%ADD26R,0.17717X0.00787*%
%ADD27R,0.00787X0.06299*%
%ADD28R,0.00787X0.22441*%
%ADD29R,0.00787X0.07874*%
%ADD30C,0.02756*%
%ADD33R,0.04331X0.00984*%
%ADD34R,0.03858X0.00984*%
%ADD36R,0.00984X1.08661*%
%ADD38R,0.03740X0.00984*%
%ADD40C,0.00787*%
%ADD41R,0.24803X0.00984*%
%ADD42R,0.34449X0.00984*%
%ADD44C,0.01968*%
%ADD69C,0.01575*%
%ADD71C,0.01181*%
%ADD72C,0.04331*%
X0193858Y0116063D02*
G01*
G75*
G36*
X0355002Y0271311D02*
X0355059Y0271254D01*
X0355710Y0270984D01*
X0356415Y0270984D01*
X0357066Y0271254D01*
X0357123Y0271311D01*
X0357638Y0271698D01*
X0358152Y0271311D01*
X0358209Y0271254D01*
X0358860Y0270984D01*
X0359565Y0270984D01*
X0359606Y0271001D01*
X0360393Y0270475D01*
X0360393Y0264800D01*
X0359606Y0264274D01*
X0359565Y0264291D01*
X0358860Y0264291D01*
X0358209Y0264022D01*
X0357710Y0263523D01*
X0357441Y0262872D01*
X0357441Y0262167D01*
X0357441Y0262167D01*
X0352438Y0257165D01*
X0351554Y0256935D01*
X0350903Y0257205D01*
X0350482Y0257205D01*
X0349491Y0258196D01*
X0349491Y0267052D01*
X0350615Y0268175D01*
X0350876Y0268566D01*
X0350968Y0269027D01*
X0350968Y0269027D01*
X0350968Y0271082D01*
X0351734Y0271400D01*
X0351853Y0271311D01*
X0351910Y0271254D01*
X0352561Y0270984D01*
X0353265Y0270984D01*
X0353917Y0271254D01*
X0353974Y0271311D01*
X0354488Y0271698D01*
X0355002Y0271311D01*
D02*
G37*
G36*
X0288167Y0273150D02*
X0288149Y0273108D01*
X0288149Y0272404D01*
X0288419Y0271752D01*
X0288918Y0271254D01*
X0289569Y0270984D01*
X0290273Y0270984D01*
X0290925Y0271254D01*
X0290981Y0271311D01*
X0291496Y0271698D01*
X0292010Y0271311D01*
X0292067Y0271254D01*
X0292718Y0270984D01*
X0293423Y0270984D01*
X0294074Y0271254D01*
X0294131Y0271311D01*
X0294645Y0271698D01*
X0295160Y0271311D01*
X0295217Y0271254D01*
X0295868Y0270984D01*
X0296573Y0270984D01*
X0297224Y0271254D01*
X0297281Y0271311D01*
X0297795Y0271698D01*
X0298309Y0271311D01*
X0298366Y0271254D01*
X0299017Y0270984D01*
X0299722Y0270984D01*
X0300373Y0271254D01*
X0300430Y0271311D01*
X0300945Y0271698D01*
X0301459Y0271311D01*
X0301516Y0271254D01*
X0302167Y0270984D01*
X0302872Y0270984D01*
X0303523Y0271254D01*
X0303580Y0271311D01*
X0304094Y0271698D01*
X0304609Y0271311D01*
X0304666Y0271254D01*
X0305317Y0270984D01*
X0306021Y0270984D01*
X0306673Y0271254D01*
X0306730Y0271311D01*
X0307244Y0271698D01*
X0307758Y0271311D01*
X0307815Y0271254D01*
X0308466Y0270984D01*
X0309171Y0270984D01*
X0309822Y0271254D01*
X0309879Y0271311D01*
X0310393Y0271698D01*
X0310908Y0271311D01*
X0310965Y0271254D01*
X0311616Y0270984D01*
X0312321Y0270984D01*
X0312972Y0271254D01*
X0313029Y0271311D01*
X0313543Y0271698D01*
X0314058Y0271311D01*
X0314114Y0271254D01*
X0314765Y0270984D01*
X0315470Y0270984D01*
X0316121Y0271254D01*
X0316178Y0271311D01*
X0316693Y0271698D01*
X0317207Y0271311D01*
X0317264Y0271254D01*
X0317915Y0270984D01*
X0318620Y0270984D01*
X0319271Y0271254D01*
X0319328Y0271311D01*
X0319676Y0271573D01*
X0320327Y0271170D01*
X0320273Y0270426D01*
X0320020Y0270321D01*
X0319521Y0269823D01*
X0319252Y0269171D01*
X0319252Y0268466D01*
X0319383Y0268149D01*
X0318946Y0267362D01*
X0254776Y0267362D01*
X0249361Y0272776D01*
X0249035Y0272994D01*
X0248651Y0273071D01*
X0246181Y0273071D01*
X0245797Y0272994D01*
X0245472Y0272776D01*
X0243001Y0270306D01*
X0240050Y0270306D01*
X0239330Y0271026D01*
X0239330Y0271026D01*
X0239330Y0271730D01*
X0239061Y0272381D01*
X0238562Y0272880D01*
X0237911Y0273150D01*
X0237206Y0273150D01*
X0236555Y0272880D01*
X0236057Y0272381D01*
X0235787Y0271730D01*
X0235787Y0271026D01*
X0236057Y0270374D01*
X0236555Y0269876D01*
X0237206Y0269606D01*
X0237911Y0269606D01*
X0237911Y0269606D01*
X0238925Y0268593D01*
X0239250Y0268375D01*
X0239634Y0268299D01*
X0243417Y0268299D01*
X0243801Y0268375D01*
X0244126Y0268593D01*
X0245236Y0269702D01*
X0245502Y0269684D01*
X0246103Y0269456D01*
X0246293Y0268996D01*
X0246792Y0268498D01*
X0246824Y0268485D01*
X0246932Y0268315D01*
X0247094Y0267521D01*
X0246872Y0267137D01*
X0246672Y0266390D01*
X0246672Y0265618D01*
X0246872Y0264871D01*
X0247105Y0264467D01*
X0246744Y0263680D01*
X0244408Y0263680D01*
X0244024Y0263603D01*
X0243698Y0263386D01*
X0242439Y0262126D01*
X0242439Y0262126D01*
X0241734Y0262126D01*
X0241083Y0261856D01*
X0240584Y0261358D01*
X0240315Y0260707D01*
X0240315Y0260002D01*
X0240502Y0259551D01*
X0239834Y0259105D01*
X0238937Y0260002D01*
X0238937Y0260002D01*
X0238937Y0260707D01*
X0238667Y0261358D01*
X0238169Y0261856D01*
X0237517Y0262126D01*
X0236813Y0262126D01*
X0236161Y0261856D01*
X0235663Y0261358D01*
X0235393Y0260707D01*
X0235393Y0260002D01*
X0235443Y0259882D01*
X0235597Y0259305D01*
X0235049Y0258932D01*
X0234980Y0258904D01*
X0234482Y0258405D01*
X0234212Y0257754D01*
X0234212Y0257049D01*
X0234482Y0256398D01*
X0234980Y0255900D01*
X0235632Y0255630D01*
X0236336Y0255630D01*
X0236988Y0255900D01*
X0237486Y0256398D01*
X0237756Y0257049D01*
X0237756Y0257231D01*
X0238543Y0257557D01*
X0247873Y0248227D01*
X0248198Y0248010D01*
X0248582Y0247933D01*
X0254281Y0247933D01*
X0254775Y0247146D01*
X0254685Y0246927D01*
X0254685Y0246222D01*
X0254955Y0245571D01*
X0255453Y0245073D01*
X0256104Y0244803D01*
X0256809Y0244803D01*
X0257460Y0245073D01*
X0257958Y0245571D01*
X0258228Y0246222D01*
X0258228Y0246927D01*
X0258137Y0247146D01*
X0258632Y0247933D01*
X0279364Y0247933D01*
X0279364Y0247933D01*
X0279862Y0247435D01*
X0280513Y0247165D01*
X0281218Y0247165D01*
X0281869Y0247435D01*
X0282368Y0247933D01*
X0282368Y0247933D01*
X0335320Y0247933D01*
X0335704Y0248010D01*
X0336030Y0248227D01*
X0336196Y0248393D01*
X0336497Y0248268D01*
X0337202Y0248268D01*
X0337853Y0248538D01*
X0338351Y0249037D01*
X0338621Y0249688D01*
X0338621Y0250392D01*
X0338351Y0251044D01*
X0337853Y0251542D01*
X0337202Y0251812D01*
X0336497Y0251812D01*
X0335846Y0251542D01*
X0335348Y0251044D01*
X0335078Y0250392D01*
X0335078Y0250114D01*
X0334905Y0249941D01*
X0298391Y0249941D01*
X0298344Y0250709D01*
X0298995Y0250978D01*
X0299494Y0251477D01*
X0299763Y0252128D01*
X0299763Y0252833D01*
X0299494Y0253484D01*
X0298995Y0253982D01*
X0298344Y0254252D01*
X0297639Y0254252D01*
X0296988Y0253982D01*
X0296833Y0253827D01*
X0296319Y0253570D01*
X0295804Y0253827D01*
X0295649Y0253982D01*
X0294998Y0254252D01*
X0294293Y0254252D01*
X0293642Y0253982D01*
X0293144Y0253484D01*
X0292874Y0252833D01*
X0292874Y0252128D01*
X0293144Y0251477D01*
X0293642Y0250978D01*
X0294293Y0250709D01*
X0294247Y0249941D01*
X0282368Y0249941D01*
X0282368Y0249941D01*
X0281869Y0250439D01*
X0281218Y0250709D01*
X0280513Y0250709D01*
X0279862Y0250439D01*
X0279364Y0249941D01*
X0279364Y0249941D01*
X0248998Y0249941D01*
X0240837Y0258102D01*
X0241283Y0258770D01*
X0241734Y0258583D01*
X0242439Y0258583D01*
X0243090Y0258852D01*
X0243588Y0259351D01*
X0243858Y0260002D01*
X0243858Y0260707D01*
X0243858Y0260707D01*
X0244419Y0261268D01*
X0245087Y0260822D01*
X0245039Y0260707D01*
X0245039Y0260002D01*
X0245309Y0259351D01*
X0245807Y0258852D01*
X0245926Y0257951D01*
X0245845Y0257754D01*
X0245845Y0257049D01*
X0246114Y0256398D01*
X0246613Y0255900D01*
X0247264Y0255630D01*
X0247969Y0255630D01*
X0248620Y0255900D01*
X0248717Y0255997D01*
X0290102Y0255997D01*
X0290318Y0256040D01*
X0290356Y0256024D01*
X0291061Y0256024D01*
X0291099Y0256040D01*
X0291315Y0255997D01*
X0302600Y0255997D01*
X0302697Y0255900D01*
X0303348Y0255630D01*
X0304053Y0255630D01*
X0304704Y0255900D01*
X0304801Y0255997D01*
X0328307Y0255997D01*
X0328844Y0256104D01*
X0329300Y0256408D01*
X0330884Y0257992D01*
X0331021Y0257992D01*
X0331673Y0258262D01*
X0332171Y0258760D01*
X0332441Y0259411D01*
X0332441Y0260116D01*
X0332171Y0260767D01*
X0331673Y0261266D01*
X0331251Y0261440D01*
X0331181Y0261701D01*
X0331172Y0262263D01*
X0331379Y0262401D01*
X0339962Y0270984D01*
X0339962Y0270984D01*
X0340667Y0270984D01*
X0341318Y0271254D01*
X0341375Y0271311D01*
X0341889Y0271698D01*
X0342404Y0271311D01*
X0342461Y0271254D01*
X0343112Y0270984D01*
X0343817Y0270984D01*
X0344468Y0271254D01*
X0344525Y0271311D01*
X0345039Y0271698D01*
X0345554Y0271311D01*
X0345610Y0271254D01*
X0346261Y0270984D01*
X0346966Y0270984D01*
X0347618Y0271254D01*
X0347674Y0271311D01*
X0347793Y0271400D01*
X0348559Y0271082D01*
X0348559Y0269526D01*
X0347436Y0268402D01*
X0347175Y0268011D01*
X0347083Y0267551D01*
X0347083Y0267550D01*
X0347083Y0257697D01*
X0347083Y0257697D01*
X0346458Y0257008D01*
X0345807Y0256738D01*
X0345309Y0256240D01*
X0345039Y0255589D01*
X0345039Y0254884D01*
X0345309Y0254233D01*
X0345807Y0253734D01*
X0345969Y0253667D01*
X0346153Y0252739D01*
X0336273Y0242858D01*
X0271752Y0242858D01*
X0271291Y0242766D01*
X0270900Y0242505D01*
X0270900Y0242505D01*
X0269383Y0240988D01*
X0262027Y0240988D01*
X0260509Y0242505D01*
X0260119Y0242766D01*
X0259658Y0242858D01*
X0259658Y0242858D01*
X0238445Y0242858D01*
X0238077Y0243603D01*
X0238346Y0244254D01*
X0238346Y0244959D01*
X0238077Y0245610D01*
X0237578Y0246108D01*
X0236927Y0246378D01*
X0236222Y0246378D01*
X0236222Y0246378D01*
X0231379Y0251221D01*
X0231053Y0251439D01*
X0230669Y0251515D01*
X0225721Y0251515D01*
X0225721Y0260935D01*
X0225822Y0261102D01*
X0225972Y0261188D01*
X0226872Y0260871D01*
X0227258Y0260202D01*
X0227804Y0259656D01*
X0228473Y0259270D01*
X0229220Y0259070D01*
X0229992Y0259070D01*
X0230739Y0259270D01*
X0231408Y0259656D01*
X0231954Y0260202D01*
X0232340Y0260871D01*
X0232540Y0261618D01*
X0232540Y0262390D01*
X0232340Y0263136D01*
X0231954Y0263806D01*
X0231408Y0264352D01*
X0230739Y0264738D01*
X0229992Y0264938D01*
X0229220Y0264938D01*
X0228473Y0264738D01*
X0228176Y0264566D01*
X0227388Y0265005D01*
X0227388Y0267003D01*
X0228176Y0267442D01*
X0228473Y0267270D01*
X0229220Y0267070D01*
X0229992Y0267070D01*
X0230739Y0267270D01*
X0231408Y0267656D01*
X0231954Y0268202D01*
X0232340Y0268871D01*
X0232540Y0269618D01*
X0232540Y0270390D01*
X0232340Y0271136D01*
X0231954Y0271806D01*
X0231408Y0272352D01*
X0230739Y0272738D01*
X0229992Y0272938D01*
X0229220Y0272938D01*
X0228473Y0272738D01*
X0227804Y0272352D01*
X0227774Y0272321D01*
X0227587Y0272264D01*
X0226764Y0272350D01*
X0226732Y0272404D01*
X0226732Y0273108D01*
X0226715Y0273150D01*
X0227241Y0273937D01*
X0253388Y0273937D01*
X0253915Y0273150D01*
X0253897Y0273108D01*
X0253897Y0272404D01*
X0254167Y0271752D01*
X0254666Y0271254D01*
X0255317Y0270984D01*
X0256022Y0270984D01*
X0256673Y0271254D01*
X0256729Y0271311D01*
X0257244Y0271698D01*
X0257758Y0271311D01*
X0257815Y0271254D01*
X0258466Y0270984D01*
X0259171Y0270984D01*
X0259822Y0271254D01*
X0259879Y0271311D01*
X0260394Y0271698D01*
X0260908Y0271311D01*
X0260965Y0271254D01*
X0261616Y0270984D01*
X0262321Y0270984D01*
X0262972Y0271254D01*
X0263029Y0271311D01*
X0263543Y0271698D01*
X0264058Y0271311D01*
X0264114Y0271254D01*
X0264765Y0270984D01*
X0265470Y0270984D01*
X0266121Y0271254D01*
X0266178Y0271311D01*
X0266693Y0271698D01*
X0267207Y0271311D01*
X0267264Y0271254D01*
X0267915Y0270984D01*
X0268620Y0270984D01*
X0269271Y0271254D01*
X0269769Y0271752D01*
X0270039Y0272404D01*
X0270039Y0273108D01*
X0270022Y0273150D01*
X0270548Y0273937D01*
X0287640Y0273937D01*
X0288167Y0273150D01*
D02*
G37*
G36*
X0216907Y0273150D02*
X0216889Y0273108D01*
X0216889Y0272404D01*
X0217159Y0271752D01*
X0217658Y0271254D01*
X0218309Y0270984D01*
X0219014Y0270984D01*
X0219418Y0271152D01*
X0220069Y0270832D01*
X0220205Y0270690D01*
X0220205Y0267159D01*
X0216795Y0263749D01*
X0209472Y0263749D01*
X0209472Y0263749D01*
X0208858Y0263627D01*
X0208337Y0263279D01*
X0208337Y0263279D01*
X0198825Y0253767D01*
X0198477Y0253246D01*
X0198355Y0252632D01*
X0198355Y0252632D01*
X0198355Y0237265D01*
X0198147Y0237126D01*
X0197443Y0237126D01*
X0196791Y0236856D01*
X0196293Y0236358D01*
X0196023Y0235707D01*
X0196023Y0235002D01*
X0196293Y0234351D01*
X0196791Y0233852D01*
X0197443Y0233583D01*
X0198147Y0233583D01*
X0198799Y0233852D01*
X0199297Y0234351D01*
X0200189Y0234448D01*
X0201012Y0233625D01*
X0201012Y0218401D01*
X0197922Y0215312D01*
X0197574Y0214791D01*
X0197452Y0214176D01*
X0197452Y0214176D01*
X0197452Y0212200D01*
X0196665Y0212044D01*
X0196541Y0212342D01*
X0196043Y0212840D01*
X0195392Y0213110D01*
X0194687Y0213110D01*
X0194645Y0213093D01*
X0193858Y0213619D01*
X0193858Y0221263D01*
X0194645Y0221789D01*
X0194687Y0221772D01*
X0195392Y0221772D01*
X0196043Y0222041D01*
X0196541Y0222540D01*
X0196811Y0223191D01*
X0196811Y0223896D01*
X0196541Y0224547D01*
X0196484Y0224604D01*
X0196097Y0225118D01*
X0196484Y0225633D01*
X0196541Y0225689D01*
X0196811Y0226340D01*
X0196811Y0227045D01*
X0196541Y0227697D01*
X0196043Y0228195D01*
X0195392Y0228465D01*
X0194687Y0228465D01*
X0194645Y0228447D01*
X0193858Y0228974D01*
X0193858Y0269761D01*
X0194645Y0270301D01*
X0194879Y0270211D01*
X0194883Y0270197D01*
X0194842Y0270047D01*
X0194842Y0269166D01*
X0195070Y0268315D01*
X0195511Y0267552D01*
X0196134Y0266928D01*
X0196897Y0266488D01*
X0197748Y0266260D01*
X0198629Y0266260D01*
X0199480Y0266488D01*
X0200243Y0266928D01*
X0200867Y0267552D01*
X0201307Y0268315D01*
X0201535Y0269166D01*
X0201535Y0270047D01*
X0201307Y0270898D01*
X0200867Y0271661D01*
X0200243Y0272284D01*
X0199480Y0272725D01*
X0198629Y0272953D01*
X0197748Y0272953D01*
X0197598Y0272913D01*
X0197585Y0272916D01*
X0197494Y0273150D01*
X0198034Y0273937D01*
X0216381Y0273937D01*
X0216907Y0273150D01*
D02*
G37*
G36*
X0329795Y0261319D02*
X0329666Y0261266D01*
X0329167Y0260767D01*
X0328897Y0260116D01*
X0328897Y0259979D01*
X0327725Y0258807D01*
X0307065Y0258807D01*
X0306566Y0259594D01*
X0306653Y0259805D01*
X0306653Y0260510D01*
X0306383Y0261161D01*
X0306225Y0261319D01*
X0306551Y0262107D01*
X0329638Y0262107D01*
X0329795Y0261319D01*
D02*
G37*
G36*
X0351614Y0253104D02*
X0351614Y0249245D01*
X0350827Y0248919D01*
X0350767Y0248979D01*
X0350116Y0249249D01*
X0349411Y0249249D01*
X0348760Y0248979D01*
X0348262Y0248481D01*
X0347992Y0247829D01*
X0347992Y0247125D01*
X0348262Y0246473D01*
X0348760Y0245975D01*
X0349411Y0245705D01*
X0350116Y0245705D01*
X0350767Y0245975D01*
X0350827Y0246035D01*
X0351614Y0245709D01*
X0351614Y0240989D01*
X0350829Y0240900D01*
X0350612Y0241226D01*
X0348765Y0243073D01*
X0348765Y0243073D01*
X0348765Y0243778D01*
X0348495Y0244429D01*
X0347997Y0244927D01*
X0347345Y0245197D01*
X0346640Y0245197D01*
X0345989Y0244927D01*
X0345491Y0244429D01*
X0345221Y0243778D01*
X0345221Y0243073D01*
X0345491Y0242422D01*
X0345989Y0241923D01*
X0346640Y0241654D01*
X0347345Y0241654D01*
X0347345Y0241654D01*
X0348866Y0240133D01*
X0348785Y0239392D01*
X0348088Y0239141D01*
X0347814Y0239415D01*
X0347163Y0239685D01*
X0346458Y0239685D01*
X0345807Y0239415D01*
X0345710Y0239318D01*
X0336691Y0239318D01*
X0336594Y0239415D01*
X0335943Y0239685D01*
X0335998Y0240449D01*
X0336771Y0240449D01*
X0336771Y0240449D01*
X0337232Y0240541D01*
X0337623Y0240802D01*
X0350482Y0253661D01*
X0350903Y0253661D01*
X0351614Y0253104D01*
D02*
G37*
G36*
X0335238Y0239685D02*
X0334587Y0239415D01*
X0334088Y0238917D01*
X0333819Y0238266D01*
X0333819Y0237561D01*
X0334088Y0236910D01*
X0334587Y0236412D01*
X0335238Y0236142D01*
X0335943Y0236142D01*
X0336594Y0236412D01*
X0336691Y0236508D01*
X0345710Y0236508D01*
X0345807Y0236412D01*
X0346458Y0236142D01*
X0347163Y0236142D01*
X0347814Y0236412D01*
X0348111Y0236708D01*
X0348899Y0236423D01*
X0348899Y0223106D01*
X0348536Y0222884D01*
X0348111Y0222723D01*
X0347557Y0222953D01*
X0346852Y0222953D01*
X0346852Y0222953D01*
X0335808Y0233997D01*
X0335482Y0234214D01*
X0335098Y0234291D01*
X0319219Y0234291D01*
X0318661Y0235002D01*
X0318661Y0235021D01*
X0318890Y0235720D01*
X0319389Y0235748D01*
X0319604Y0235748D01*
X0320255Y0236018D01*
X0320754Y0236516D01*
X0321023Y0237167D01*
X0321023Y0237872D01*
X0320754Y0238523D01*
X0320255Y0239022D01*
X0319604Y0239291D01*
X0318899Y0239291D01*
X0318248Y0239022D01*
X0317750Y0238523D01*
X0317480Y0237872D01*
X0317480Y0237854D01*
X0317251Y0237154D01*
X0316753Y0237126D01*
X0316537Y0237126D01*
X0315886Y0236856D01*
X0315388Y0236358D01*
X0315118Y0235707D01*
X0315118Y0235002D01*
X0314970Y0234791D01*
X0314185Y0234724D01*
X0312397Y0236512D01*
X0312071Y0236730D01*
X0311687Y0236806D01*
X0306745Y0236806D01*
X0306525Y0236850D01*
X0304813Y0236850D01*
X0304593Y0236806D01*
X0292879Y0236806D01*
X0292658Y0236988D01*
X0292658Y0237085D01*
X0292388Y0237736D01*
X0291889Y0238234D01*
X0291238Y0238504D01*
X0290533Y0238504D01*
X0289882Y0238234D01*
X0289384Y0237736D01*
X0289114Y0237085D01*
X0289114Y0236380D01*
X0289384Y0235729D01*
X0289482Y0235631D01*
X0289156Y0234843D01*
X0275741Y0234843D01*
X0275183Y0235554D01*
X0275183Y0236259D01*
X0274914Y0236910D01*
X0274415Y0237408D01*
X0273764Y0237678D01*
X0273059Y0237678D01*
X0272408Y0237408D01*
X0271976Y0236976D01*
X0271561Y0237391D01*
X0270910Y0237661D01*
X0270205Y0237661D01*
X0269554Y0237391D01*
X0269056Y0236893D01*
X0268786Y0236242D01*
X0268786Y0235537D01*
X0269056Y0234886D01*
X0269554Y0234388D01*
X0270205Y0234118D01*
X0270467Y0234118D01*
X0270706Y0233799D01*
X0270311Y0233011D01*
X0262974Y0233011D01*
X0262579Y0233406D01*
X0262253Y0233624D01*
X0261869Y0233700D01*
X0248080Y0233700D01*
X0247696Y0233624D01*
X0247371Y0233406D01*
X0246976Y0233011D01*
X0243096Y0233011D01*
X0243096Y0233011D01*
X0242598Y0233510D01*
X0241947Y0233780D01*
X0241242Y0233780D01*
X0240591Y0233510D01*
X0240092Y0233011D01*
X0239823Y0232360D01*
X0239823Y0231656D01*
X0240092Y0231004D01*
X0240591Y0230506D01*
X0241242Y0230236D01*
X0241947Y0230236D01*
X0242598Y0230506D01*
X0243096Y0231004D01*
X0243096Y0231004D01*
X0246202Y0231004D01*
X0246503Y0230277D01*
X0241945Y0225719D01*
X0241945Y0225719D01*
X0241241Y0225719D01*
X0240590Y0225450D01*
X0240091Y0224951D01*
X0239821Y0224300D01*
X0239821Y0223595D01*
X0239268Y0222874D01*
X0237034Y0222874D01*
X0236476Y0223585D01*
X0236476Y0224289D01*
X0236206Y0224941D01*
X0235708Y0225439D01*
X0235057Y0225709D01*
X0234352Y0225709D01*
X0233701Y0225439D01*
X0233202Y0224941D01*
X0232933Y0224289D01*
X0232933Y0223585D01*
X0232892Y0223526D01*
X0231965Y0223349D01*
X0225375Y0229939D01*
X0225375Y0229939D01*
X0225375Y0230644D01*
X0225105Y0231295D01*
X0224607Y0231794D01*
X0223956Y0232063D01*
X0223251Y0232063D01*
X0222600Y0231794D01*
X0222101Y0231295D01*
X0221832Y0230644D01*
X0221832Y0229939D01*
X0222101Y0229288D01*
X0222600Y0228790D01*
X0223251Y0228520D01*
X0223956Y0228520D01*
X0223956Y0228520D01*
X0231315Y0221160D01*
X0231641Y0220943D01*
X0232025Y0220867D01*
X0241397Y0220867D01*
X0241451Y0220877D01*
X0241763Y0220877D01*
X0242089Y0220090D01*
X0240603Y0218604D01*
X0226462Y0218604D01*
X0226462Y0218604D01*
X0225964Y0219103D01*
X0225313Y0219372D01*
X0224608Y0219372D01*
X0223957Y0219103D01*
X0223458Y0218604D01*
X0223189Y0217953D01*
X0223189Y0217248D01*
X0223458Y0216597D01*
X0223913Y0216143D01*
X0223458Y0215689D01*
X0223189Y0215038D01*
X0223189Y0214333D01*
X0223458Y0213682D01*
X0223623Y0213517D01*
X0223619Y0213348D01*
X0223429Y0212925D01*
X0222602Y0212794D01*
X0213669Y0221727D01*
X0213669Y0225210D01*
X0214419Y0225959D01*
X0214940Y0226175D01*
X0215439Y0226674D01*
X0215708Y0227325D01*
X0215708Y0228030D01*
X0215439Y0228681D01*
X0214940Y0229179D01*
X0214289Y0229449D01*
X0213584Y0229449D01*
X0212933Y0229179D01*
X0212435Y0228681D01*
X0212165Y0228030D01*
X0212165Y0227679D01*
X0211271Y0226785D01*
X0210966Y0226329D01*
X0210859Y0225792D01*
X0210859Y0222198D01*
X0210132Y0221896D01*
X0206684Y0225344D01*
X0206684Y0235309D01*
X0206684Y0235309D01*
X0206562Y0235923D01*
X0206214Y0236444D01*
X0206214Y0236444D01*
X0204027Y0238632D01*
X0204027Y0239565D01*
X0204814Y0240008D01*
X0205120Y0239882D01*
X0205825Y0239882D01*
X0206476Y0240152D01*
X0206773Y0240449D01*
X0257150Y0240449D01*
X0257301Y0240301D01*
X0257611Y0239662D01*
X0257441Y0239250D01*
X0257441Y0238545D01*
X0257710Y0237894D01*
X0258209Y0237396D01*
X0258860Y0237126D01*
X0259565Y0237126D01*
X0260216Y0237396D01*
X0260714Y0237894D01*
X0260755Y0237991D01*
X0261010Y0238547D01*
X0261528Y0238579D01*
X0269882Y0238579D01*
X0269882Y0238579D01*
X0270343Y0238671D01*
X0270733Y0238932D01*
X0272251Y0240449D01*
X0335182Y0240449D01*
X0335238Y0239685D01*
D02*
G37*
G36*
X0306569Y0234799D02*
X0311271Y0234799D01*
X0313493Y0232578D01*
X0313818Y0232360D01*
X0314202Y0232284D01*
X0334682Y0232284D01*
X0345433Y0221534D01*
X0345433Y0221534D01*
X0345433Y0220829D01*
X0345483Y0220708D01*
X0344957Y0219921D01*
X0287329Y0219921D01*
X0286771Y0220632D01*
X0286771Y0221337D01*
X0286502Y0221988D01*
X0286003Y0222486D01*
X0285352Y0222756D01*
X0285285Y0222756D01*
X0284606Y0223305D01*
X0284532Y0223483D01*
X0284336Y0223956D01*
X0283838Y0224455D01*
X0283838Y0224455D01*
X0283838Y0225520D01*
X0283761Y0225904D01*
X0283544Y0226230D01*
X0277725Y0232049D01*
X0278051Y0232836D01*
X0290916Y0232836D01*
X0291300Y0232912D01*
X0291626Y0233130D01*
X0293295Y0234799D01*
X0296340Y0234799D01*
X0296753Y0234012D01*
X0296605Y0233655D01*
X0296605Y0232950D01*
X0296875Y0232299D01*
X0297373Y0231800D01*
X0298025Y0231531D01*
X0298729Y0231531D01*
X0299381Y0231800D01*
X0299879Y0232299D01*
X0300149Y0232950D01*
X0300149Y0233655D01*
X0300001Y0234012D01*
X0300414Y0234799D01*
X0304769Y0234799D01*
X0304989Y0234843D01*
X0306349Y0234843D01*
X0306569Y0234799D01*
D02*
G37*
G36*
X0261338Y0227553D02*
X0261664Y0227336D01*
X0262048Y0227259D01*
X0269733Y0227259D01*
X0269790Y0227175D01*
X0269369Y0226388D01*
X0260701Y0226388D01*
X0260375Y0226714D01*
X0260049Y0226931D01*
X0259665Y0227007D01*
X0249422Y0227007D01*
X0249038Y0226931D01*
X0248896Y0226836D01*
X0248394Y0227448D01*
X0250081Y0229134D01*
X0259757Y0229134D01*
X0261338Y0227553D01*
D02*
G37*
G36*
X0258256Y0221739D02*
X0258209Y0221502D01*
X0257710Y0221004D01*
X0257441Y0220352D01*
X0257441Y0219648D01*
X0257710Y0218996D01*
X0258209Y0218498D01*
X0258860Y0218228D01*
X0259565Y0218228D01*
X0260216Y0218498D01*
X0260714Y0218996D01*
X0260714Y0218997D01*
X0264137Y0218997D01*
X0264463Y0218209D01*
X0264207Y0217952D01*
X0263937Y0217301D01*
X0263937Y0216596D01*
X0264207Y0215945D01*
X0264630Y0215522D01*
X0264207Y0215098D01*
X0263937Y0214447D01*
X0263937Y0213742D01*
X0263379Y0213031D01*
X0259728Y0213031D01*
X0259530Y0213229D01*
X0259204Y0213447D01*
X0258820Y0213523D01*
X0252643Y0213523D01*
X0252643Y0213523D01*
X0252145Y0214022D01*
X0251494Y0214291D01*
X0250789Y0214291D01*
X0250138Y0214022D01*
X0249640Y0213523D01*
X0249370Y0212872D01*
X0249370Y0212167D01*
X0249640Y0211516D01*
X0250138Y0211018D01*
X0250789Y0210748D01*
X0251494Y0210748D01*
X0252145Y0211018D01*
X0252643Y0211516D01*
X0252643Y0211516D01*
X0258404Y0211516D01*
X0258603Y0211318D01*
X0258928Y0211100D01*
X0259312Y0211024D01*
X0308549Y0211024D01*
X0308790Y0210494D01*
X0308818Y0210237D01*
X0301105Y0202523D01*
X0300887Y0202197D01*
X0300811Y0201813D01*
X0300811Y0198363D01*
X0300887Y0197979D01*
X0301105Y0197653D01*
X0302519Y0196238D01*
X0302519Y0196238D01*
X0302519Y0195533D01*
X0302789Y0194882D01*
X0303213Y0194459D01*
X0302789Y0194035D01*
X0302519Y0193384D01*
X0302519Y0192679D01*
X0301958Y0191976D01*
X0299313Y0191976D01*
X0292898Y0198391D01*
X0292443Y0198695D01*
X0291905Y0198802D01*
X0277478Y0198802D01*
X0276940Y0198695D01*
X0276484Y0198391D01*
X0275616Y0197523D01*
X0262353Y0197523D01*
X0257897Y0201979D01*
X0258206Y0202559D01*
X0258312Y0202677D01*
X0258974Y0202677D01*
X0259625Y0202947D01*
X0260124Y0203445D01*
X0260393Y0204096D01*
X0260393Y0204801D01*
X0260124Y0205452D01*
X0260319Y0206225D01*
X0260382Y0206288D01*
X0260652Y0206939D01*
X0260652Y0207644D01*
X0260382Y0208295D01*
X0259884Y0208793D01*
X0259233Y0209063D01*
X0258528Y0209063D01*
X0257877Y0208793D01*
X0257378Y0208295D01*
X0257108Y0207644D01*
X0257108Y0206939D01*
X0257378Y0206288D01*
X0257183Y0205515D01*
X0257120Y0205452D01*
X0256850Y0204801D01*
X0256850Y0204139D01*
X0256732Y0204033D01*
X0256152Y0203724D01*
X0253351Y0206525D01*
X0252895Y0206830D01*
X0252357Y0206936D01*
X0245671Y0206936D01*
X0245146Y0206832D01*
X0239461Y0206832D01*
X0237012Y0209281D01*
X0236557Y0209585D01*
X0236019Y0209692D01*
X0226736Y0209692D01*
X0226410Y0210480D01*
X0226659Y0210729D01*
X0226929Y0211380D01*
X0226929Y0212085D01*
X0226929Y0212085D01*
X0228882Y0214038D01*
X0242079Y0214038D01*
X0242463Y0214114D01*
X0242788Y0214332D01*
X0248742Y0220286D01*
X0249491Y0220193D01*
X0249904Y0219496D01*
X0249640Y0219232D01*
X0249370Y0218581D01*
X0249370Y0217876D01*
X0249640Y0217225D01*
X0250138Y0216726D01*
X0250789Y0216457D01*
X0251494Y0216457D01*
X0252145Y0216726D01*
X0252643Y0217225D01*
X0252913Y0217876D01*
X0252913Y0218581D01*
X0252643Y0219232D01*
X0252171Y0219705D01*
X0252643Y0220178D01*
X0252913Y0220829D01*
X0252913Y0221534D01*
X0252904Y0221555D01*
X0253430Y0222343D01*
X0257722Y0222343D01*
X0258256Y0221739D01*
D02*
G37*
G36*
X0351614Y0220483D02*
X0351614Y0217779D01*
X0349448Y0215612D01*
X0348551Y0215720D01*
X0348052Y0216219D01*
X0347401Y0216488D01*
X0346696Y0216488D01*
X0346045Y0216219D01*
X0345547Y0215720D01*
X0345277Y0215069D01*
X0345277Y0214364D01*
X0345277Y0214364D01*
X0343944Y0213031D01*
X0268038Y0213031D01*
X0267480Y0213742D01*
X0267480Y0214447D01*
X0267210Y0215098D01*
X0266787Y0215522D01*
X0267210Y0215945D01*
X0267480Y0216596D01*
X0267480Y0217301D01*
X0267210Y0217952D01*
X0266954Y0218209D01*
X0267280Y0218997D01*
X0268440Y0218997D01*
X0269228Y0218208D01*
X0269554Y0217990D01*
X0269938Y0217914D01*
X0311459Y0217914D01*
X0311668Y0217391D01*
X0311695Y0217126D01*
X0311254Y0216685D01*
X0310984Y0216034D01*
X0310984Y0215329D01*
X0311254Y0214678D01*
X0311752Y0214179D01*
X0312403Y0213910D01*
X0313108Y0213910D01*
X0313759Y0214179D01*
X0314258Y0214678D01*
X0314527Y0215329D01*
X0314527Y0216034D01*
X0314258Y0216685D01*
X0313816Y0217126D01*
X0313843Y0217391D01*
X0314053Y0217914D01*
X0347864Y0217914D01*
X0348248Y0217990D01*
X0348573Y0218208D01*
X0350612Y0220246D01*
X0350829Y0220572D01*
X0350842Y0220635D01*
X0351614Y0220483D01*
D02*
G37*
G36*
X0257006Y0198896D02*
X0256704Y0198169D01*
X0233538Y0198169D01*
X0233154Y0198092D01*
X0232829Y0197875D01*
X0232193Y0197239D01*
X0231142Y0197302D01*
X0231063Y0197403D01*
X0231063Y0198108D01*
X0230793Y0198759D01*
X0230295Y0199258D01*
X0229643Y0199528D01*
X0228939Y0199528D01*
X0228752Y0199622D01*
X0228192Y0200070D01*
X0228151Y0200273D01*
X0227934Y0200598D01*
X0227499Y0201033D01*
X0227800Y0201761D01*
X0231682Y0201761D01*
X0231941Y0201587D01*
X0232556Y0201465D01*
X0232556Y0201465D01*
X0250585Y0201465D01*
X0250986Y0201299D01*
X0251691Y0201299D01*
X0252342Y0201569D01*
X0252840Y0202067D01*
X0253734Y0202168D01*
X0257006Y0198896D01*
D02*
G37*
G36*
X0343502Y0207857D02*
X0335389Y0199744D01*
X0326856Y0199744D01*
X0326856Y0199744D01*
X0326358Y0200242D01*
X0325707Y0200512D01*
X0325002Y0200512D01*
X0324350Y0200242D01*
X0323852Y0199744D01*
X0322955Y0199635D01*
X0314793Y0207797D01*
X0315119Y0208585D01*
X0343201Y0208585D01*
X0343502Y0207857D01*
D02*
G37*
G36*
X0197313Y0210140D02*
X0197452Y0209877D01*
X0197574Y0209262D01*
X0197922Y0208741D01*
X0200102Y0206562D01*
X0200102Y0206562D01*
X0200623Y0206213D01*
X0201238Y0206091D01*
X0201238Y0206091D01*
X0209825Y0206091D01*
X0212466Y0203450D01*
X0212632Y0203049D01*
X0213130Y0202551D01*
X0213531Y0202385D01*
X0215162Y0200754D01*
X0215162Y0199087D01*
X0214453Y0198377D01*
X0208819Y0198377D01*
X0208819Y0198377D01*
X0208204Y0198255D01*
X0207683Y0197907D01*
X0207683Y0197907D01*
X0201483Y0191706D01*
X0201134Y0191185D01*
X0201012Y0190571D01*
X0201012Y0190571D01*
X0201012Y0177424D01*
X0199332Y0175744D01*
X0198984Y0175224D01*
X0198862Y0174609D01*
X0198862Y0174609D01*
X0198862Y0166952D01*
X0198862Y0166952D01*
X0198984Y0166337D01*
X0199332Y0165816D01*
X0201613Y0163536D01*
X0201522Y0162700D01*
X0201454Y0162581D01*
X0201017Y0162145D01*
X0200748Y0161494D01*
X0200748Y0160789D01*
X0201017Y0160138D01*
X0201516Y0159640D01*
X0202167Y0159370D01*
X0202872Y0159370D01*
X0203523Y0159640D01*
X0204021Y0160138D01*
X0204914Y0160235D01*
X0206622Y0158526D01*
X0206622Y0144878D01*
X0194757Y0133012D01*
X0193974Y0133181D01*
X0193858Y0133304D01*
X0193858Y0153940D01*
X0194645Y0154466D01*
X0194687Y0154449D01*
X0195392Y0154449D01*
X0196043Y0154719D01*
X0196541Y0155217D01*
X0196811Y0155868D01*
X0196811Y0156573D01*
X0196541Y0157224D01*
X0196043Y0157722D01*
X0195392Y0157992D01*
X0194687Y0157992D01*
X0194645Y0157975D01*
X0193858Y0158501D01*
X0193858Y0160395D01*
X0194645Y0160552D01*
X0194817Y0160138D01*
X0195315Y0159640D01*
X0195966Y0159370D01*
X0196671Y0159370D01*
X0197322Y0159640D01*
X0197821Y0160138D01*
X0198090Y0160789D01*
X0198090Y0161494D01*
X0197821Y0162145D01*
X0197322Y0162644D01*
X0196671Y0162913D01*
X0195966Y0162913D01*
X0195315Y0162644D01*
X0194817Y0162145D01*
X0194645Y0161732D01*
X0193858Y0161888D01*
X0193858Y0181499D01*
X0194645Y0182025D01*
X0194687Y0182008D01*
X0195392Y0182008D01*
X0196043Y0182278D01*
X0196541Y0182776D01*
X0196811Y0183427D01*
X0196811Y0184132D01*
X0196541Y0184783D01*
X0196043Y0185281D01*
X0195945Y0185322D01*
X0195945Y0186174D01*
X0196043Y0186215D01*
X0196541Y0186713D01*
X0196811Y0187364D01*
X0196811Y0188069D01*
X0196541Y0188720D01*
X0196043Y0189218D01*
X0195945Y0189259D01*
X0195945Y0190111D01*
X0196043Y0190152D01*
X0196541Y0190650D01*
X0196811Y0191301D01*
X0196811Y0192006D01*
X0196541Y0192657D01*
X0196043Y0193155D01*
X0195945Y0193196D01*
X0195945Y0194048D01*
X0196043Y0194089D01*
X0196541Y0194587D01*
X0196811Y0195238D01*
X0196811Y0195943D01*
X0196541Y0196594D01*
X0196043Y0197092D01*
X0195945Y0197133D01*
X0195945Y0197985D01*
X0196043Y0198026D01*
X0196541Y0198524D01*
X0196811Y0199175D01*
X0196811Y0199880D01*
X0196541Y0200531D01*
X0196043Y0201029D01*
X0195945Y0201070D01*
X0195945Y0201922D01*
X0196043Y0201963D01*
X0196541Y0202461D01*
X0196811Y0203112D01*
X0196811Y0203817D01*
X0196541Y0204468D01*
X0196043Y0204966D01*
X0195945Y0205007D01*
X0195945Y0205859D01*
X0196043Y0205900D01*
X0196541Y0206398D01*
X0196811Y0207049D01*
X0196811Y0207754D01*
X0196541Y0208405D01*
X0196043Y0208903D01*
X0195945Y0208944D01*
X0195945Y0209796D01*
X0196043Y0209837D01*
X0196399Y0210193D01*
X0197056Y0210205D01*
X0197313Y0210140D01*
D02*
G37*
G36*
X0226221Y0199473D02*
X0226221Y0196900D01*
X0226297Y0196516D01*
X0226514Y0196190D01*
X0227725Y0194979D01*
X0228051Y0194762D01*
X0228435Y0194686D01*
X0232062Y0194686D01*
X0232446Y0194762D01*
X0232771Y0194979D01*
X0233954Y0196162D01*
X0257942Y0196162D01*
X0260369Y0193735D01*
X0260694Y0193517D01*
X0261078Y0193441D01*
X0276892Y0193441D01*
X0277275Y0193517D01*
X0277601Y0193735D01*
X0278587Y0194720D01*
X0285491Y0194720D01*
X0286049Y0194009D01*
X0286049Y0193305D01*
X0286318Y0192654D01*
X0286817Y0192155D01*
X0287468Y0191885D01*
X0288173Y0191885D01*
X0288541Y0192038D01*
X0289339Y0192169D01*
X0289837Y0191670D01*
X0290488Y0191401D01*
X0291193Y0191401D01*
X0291844Y0191670D01*
X0292342Y0192169D01*
X0293240Y0192277D01*
X0295696Y0189821D01*
X0295481Y0189307D01*
X0295309Y0189095D01*
X0294687Y0189095D01*
X0294036Y0188825D01*
X0293537Y0188326D01*
X0293268Y0187675D01*
X0293268Y0186970D01*
X0293146Y0186810D01*
X0292651Y0186401D01*
X0292426Y0186445D01*
X0280210Y0186445D01*
X0275218Y0191438D01*
X0274892Y0191655D01*
X0274508Y0191731D01*
X0273116Y0191731D01*
X0273116Y0191732D01*
X0272617Y0192230D01*
X0271966Y0192500D01*
X0271261Y0192500D01*
X0270610Y0192230D01*
X0270112Y0191732D01*
X0269842Y0191080D01*
X0269842Y0190376D01*
X0270112Y0189724D01*
X0270610Y0189226D01*
X0271261Y0188956D01*
X0271966Y0188956D01*
X0272617Y0189226D01*
X0273116Y0189724D01*
X0273116Y0189724D01*
X0274092Y0189724D01*
X0278759Y0185058D01*
X0278632Y0184619D01*
X0278405Y0184299D01*
X0275256Y0184299D01*
X0274718Y0184192D01*
X0274262Y0183887D01*
X0271032Y0180657D01*
X0268777Y0180657D01*
X0268680Y0180754D01*
X0268029Y0181024D01*
X0267324Y0181024D01*
X0266673Y0180754D01*
X0266576Y0180657D01*
X0262889Y0180657D01*
X0262351Y0180550D01*
X0261896Y0180245D01*
X0261028Y0179377D01*
X0258147Y0179377D01*
X0253468Y0184056D01*
X0253795Y0184843D01*
X0257812Y0184843D01*
X0258622Y0184034D01*
X0258622Y0184034D01*
X0258622Y0183329D01*
X0258892Y0182678D01*
X0259390Y0182179D01*
X0260041Y0181910D01*
X0260746Y0181910D01*
X0261397Y0182179D01*
X0261895Y0182678D01*
X0262165Y0183329D01*
X0262165Y0184034D01*
X0261895Y0184685D01*
X0261397Y0185183D01*
X0260746Y0185453D01*
X0260041Y0185453D01*
X0260041Y0185453D01*
X0258938Y0186556D01*
X0258612Y0186774D01*
X0258228Y0186850D01*
X0227029Y0186850D01*
X0226645Y0186774D01*
X0226319Y0186556D01*
X0224743Y0184980D01*
X0207958Y0184980D01*
X0207958Y0184980D01*
X0207460Y0185478D01*
X0206809Y0185748D01*
X0206104Y0185748D01*
X0205453Y0185478D01*
X0205011Y0185036D01*
X0204747Y0185063D01*
X0204224Y0185273D01*
X0204224Y0189906D01*
X0209484Y0195166D01*
X0215118Y0195166D01*
X0215118Y0195166D01*
X0215732Y0195288D01*
X0216253Y0195636D01*
X0217903Y0197286D01*
X0217903Y0197286D01*
X0218251Y0197807D01*
X0218373Y0198422D01*
X0218373Y0198422D01*
X0218373Y0201419D01*
X0218251Y0202033D01*
X0217903Y0202554D01*
X0215802Y0204656D01*
X0215636Y0205057D01*
X0215137Y0205555D01*
X0214736Y0205721D01*
X0211625Y0208832D01*
X0211104Y0209180D01*
X0210490Y0209302D01*
X0210490Y0209302D01*
X0202246Y0209302D01*
X0202133Y0209392D01*
X0202034Y0209567D01*
X0202478Y0210354D01*
X0202491Y0210360D01*
X0203129Y0210624D01*
X0203628Y0211122D01*
X0203897Y0211774D01*
X0203897Y0212478D01*
X0203897Y0212478D01*
X0206380Y0214961D01*
X0210733Y0214961D01*
X0226221Y0199473D01*
D02*
G37*
G36*
X0357645Y0214429D02*
X0357710Y0214272D01*
X0357767Y0214215D01*
X0358154Y0213701D01*
X0357767Y0213186D01*
X0357710Y0213130D01*
X0357441Y0212478D01*
X0357441Y0211774D01*
X0357710Y0211123D01*
X0357767Y0211066D01*
X0358154Y0210551D01*
X0357767Y0210037D01*
X0357710Y0209980D01*
X0357441Y0209329D01*
X0357441Y0208624D01*
X0357710Y0207973D01*
X0357767Y0207916D01*
X0358154Y0207402D01*
X0357767Y0206887D01*
X0357710Y0206830D01*
X0357441Y0206179D01*
X0357441Y0205474D01*
X0357710Y0204823D01*
X0357767Y0204766D01*
X0358154Y0204252D01*
X0357767Y0203738D01*
X0357710Y0203681D01*
X0357441Y0203030D01*
X0357441Y0202325D01*
X0357710Y0201674D01*
X0357767Y0201617D01*
X0358154Y0201102D01*
X0357767Y0200588D01*
X0357710Y0200531D01*
X0357441Y0199880D01*
X0357441Y0199175D01*
X0357710Y0198524D01*
X0357767Y0198467D01*
X0358154Y0197953D01*
X0357767Y0197438D01*
X0357710Y0197381D01*
X0357441Y0196730D01*
X0357441Y0196026D01*
X0357710Y0195374D01*
X0357767Y0195318D01*
X0358154Y0194803D01*
X0357767Y0194289D01*
X0357710Y0194232D01*
X0357441Y0193581D01*
X0357441Y0192876D01*
X0357710Y0192225D01*
X0357767Y0192168D01*
X0358154Y0191654D01*
X0357767Y0191139D01*
X0357710Y0191082D01*
X0357441Y0190431D01*
X0357441Y0189726D01*
X0357710Y0189075D01*
X0357767Y0189018D01*
X0357860Y0188895D01*
X0357542Y0188129D01*
X0316391Y0188129D01*
X0316235Y0188284D01*
X0315930Y0188917D01*
X0316102Y0189333D01*
X0316102Y0190038D01*
X0315832Y0190689D01*
X0315334Y0191187D01*
X0314683Y0191457D01*
X0313978Y0191457D01*
X0313327Y0191187D01*
X0312829Y0190689D01*
X0312559Y0190038D01*
X0312559Y0189409D01*
X0310659Y0189409D01*
X0310333Y0190196D01*
X0311987Y0191850D01*
X0312124Y0191850D01*
X0312775Y0192120D01*
X0313273Y0192619D01*
X0313543Y0193270D01*
X0313543Y0193975D01*
X0313273Y0194626D01*
X0313176Y0194723D01*
X0313176Y0203151D01*
X0313273Y0203248D01*
X0313363Y0203466D01*
X0314271Y0203672D01*
X0323258Y0194684D01*
X0323584Y0194467D01*
X0323968Y0194390D01*
X0336077Y0194390D01*
X0336461Y0194467D01*
X0336787Y0194684D01*
X0356717Y0214614D01*
X0357645Y0214429D01*
D02*
G37*
G36*
X0242677Y0184132D02*
X0242677Y0183427D01*
X0242947Y0182776D01*
X0243445Y0182278D01*
X0244096Y0182008D01*
X0244801Y0182008D01*
X0245452Y0182278D01*
X0245549Y0182375D01*
X0251176Y0182375D01*
X0255520Y0178030D01*
X0255219Y0177303D01*
X0247529Y0177303D01*
X0247144Y0177226D01*
X0246819Y0177009D01*
X0241896Y0172086D01*
X0236112Y0172086D01*
X0235728Y0172010D01*
X0235402Y0171792D01*
X0233340Y0169730D01*
X0233179Y0169683D01*
X0232603Y0169677D01*
X0232339Y0169748D01*
X0232081Y0170007D01*
X0231430Y0170276D01*
X0230725Y0170276D01*
X0230074Y0170007D01*
X0229576Y0169508D01*
X0229306Y0168857D01*
X0229306Y0168152D01*
X0229576Y0167501D01*
X0230074Y0167003D01*
X0230725Y0166733D01*
X0231430Y0166733D01*
X0232081Y0167003D01*
X0232847Y0166655D01*
X0232847Y0162095D01*
X0232060Y0161939D01*
X0231974Y0162145D01*
X0231476Y0162644D01*
X0230825Y0162913D01*
X0230120Y0162913D01*
X0229469Y0162644D01*
X0228970Y0162145D01*
X0228701Y0161494D01*
X0228701Y0160789D01*
X0228970Y0160138D01*
X0229469Y0159640D01*
X0230120Y0159370D01*
X0230825Y0159370D01*
X0231476Y0159640D01*
X0231974Y0160138D01*
X0232060Y0160345D01*
X0232847Y0160188D01*
X0232847Y0159141D01*
X0232923Y0158757D01*
X0233141Y0158432D01*
X0235000Y0156573D01*
X0235000Y0156573D01*
X0235000Y0155868D01*
X0235270Y0155217D01*
X0235768Y0154718D01*
X0236419Y0154449D01*
X0237124Y0154449D01*
X0237775Y0154718D01*
X0238248Y0155191D01*
X0238721Y0154718D01*
X0239372Y0154449D01*
X0240076Y0154449D01*
X0240728Y0154718D01*
X0241226Y0155217D01*
X0241496Y0155868D01*
X0241496Y0156573D01*
X0241226Y0157224D01*
X0240728Y0157722D01*
X0240076Y0157992D01*
X0239372Y0157992D01*
X0238721Y0157722D01*
X0238248Y0157250D01*
X0237775Y0157722D01*
X0237124Y0157992D01*
X0236419Y0157992D01*
X0236419Y0157992D01*
X0234854Y0159557D01*
X0234854Y0164124D01*
X0235565Y0164682D01*
X0236270Y0164682D01*
X0236921Y0164951D01*
X0237362Y0165393D01*
X0237768Y0164987D01*
X0238419Y0164717D01*
X0239124Y0164717D01*
X0239775Y0164987D01*
X0240273Y0165485D01*
X0240543Y0166136D01*
X0240543Y0166841D01*
X0241101Y0167552D01*
X0241594Y0167552D01*
X0241978Y0167628D01*
X0242304Y0167846D01*
X0243282Y0168824D01*
X0243442Y0168832D01*
X0244165Y0168594D01*
X0244325Y0168209D01*
X0244823Y0167711D01*
X0245474Y0167441D01*
X0246179Y0167441D01*
X0246830Y0167711D01*
X0247328Y0168209D01*
X0247598Y0168860D01*
X0247598Y0169565D01*
X0247328Y0170216D01*
X0246830Y0170714D01*
X0246445Y0170874D01*
X0246207Y0171597D01*
X0246215Y0171757D01*
X0248474Y0174016D01*
X0262833Y0174016D01*
X0263217Y0174093D01*
X0263542Y0174310D01*
X0264036Y0174804D01*
X0266135Y0174804D01*
X0266693Y0174093D01*
X0266693Y0173388D01*
X0266962Y0172737D01*
X0267461Y0172238D01*
X0267788Y0172103D01*
X0267788Y0168818D01*
X0267077Y0168260D01*
X0266372Y0168260D01*
X0265721Y0167990D01*
X0265280Y0167549D01*
X0264874Y0167955D01*
X0264223Y0168225D01*
X0263518Y0168225D01*
X0262867Y0167955D01*
X0262368Y0167457D01*
X0262099Y0166806D01*
X0262099Y0166101D01*
X0262368Y0165450D01*
X0262867Y0164951D01*
X0263518Y0164682D01*
X0264223Y0164682D01*
X0264874Y0164951D01*
X0265315Y0165393D01*
X0265721Y0164987D01*
X0266372Y0164717D01*
X0266762Y0164717D01*
X0267097Y0163938D01*
X0266967Y0163808D01*
X0266750Y0163483D01*
X0266673Y0163099D01*
X0266673Y0157890D01*
X0265998Y0157452D01*
X0265728Y0157722D01*
X0265077Y0157992D01*
X0264372Y0157992D01*
X0263721Y0157722D01*
X0263222Y0157224D01*
X0262953Y0156573D01*
X0262953Y0155868D01*
X0262836Y0155720D01*
X0261786Y0155657D01*
X0260000Y0157443D01*
X0260000Y0157443D01*
X0260000Y0158148D01*
X0259730Y0158799D01*
X0259650Y0158879D01*
X0259445Y0159582D01*
X0259673Y0159884D01*
X0259927Y0160138D01*
X0260197Y0160789D01*
X0260197Y0161494D01*
X0259927Y0162145D01*
X0259428Y0162644D01*
X0258777Y0162913D01*
X0258072Y0162913D01*
X0257421Y0162644D01*
X0256923Y0162145D01*
X0256653Y0161494D01*
X0256653Y0160789D01*
X0256923Y0160138D01*
X0257003Y0160058D01*
X0257208Y0159355D01*
X0256980Y0159053D01*
X0256726Y0158799D01*
X0256456Y0158148D01*
X0256456Y0157443D01*
X0256726Y0156792D01*
X0257028Y0156148D01*
X0256529Y0155649D01*
X0256260Y0154998D01*
X0256260Y0154293D01*
X0256529Y0153642D01*
X0257028Y0153144D01*
X0257679Y0152874D01*
X0258384Y0152874D01*
X0259035Y0153144D01*
X0259533Y0153642D01*
X0259626Y0153865D01*
X0260530Y0154074D01*
X0261160Y0153444D01*
X0261486Y0153226D01*
X0261870Y0153150D01*
X0264051Y0153150D01*
X0264577Y0152363D01*
X0264527Y0152242D01*
X0264527Y0151537D01*
X0264797Y0150886D01*
X0265295Y0150388D01*
X0265396Y0149494D01*
X0261520Y0145618D01*
X0251415Y0145618D01*
X0251415Y0151580D01*
X0251308Y0152118D01*
X0251003Y0152574D01*
X0247625Y0155952D01*
X0247625Y0160041D01*
X0247722Y0160138D01*
X0247992Y0160789D01*
X0247992Y0161494D01*
X0247722Y0162145D01*
X0247224Y0162644D01*
X0246573Y0162913D01*
X0245868Y0162913D01*
X0245217Y0162644D01*
X0244718Y0162145D01*
X0244449Y0161494D01*
X0244449Y0160789D01*
X0244718Y0160138D01*
X0244815Y0160041D01*
X0244815Y0155370D01*
X0244922Y0154832D01*
X0245227Y0154376D01*
X0245514Y0154089D01*
X0245414Y0153195D01*
X0244915Y0152697D01*
X0244645Y0152045D01*
X0244645Y0151341D01*
X0244915Y0150689D01*
X0245414Y0150191D01*
X0246065Y0149921D01*
X0246770Y0149921D01*
X0247421Y0150191D01*
X0247817Y0150588D01*
X0248298Y0150500D01*
X0248605Y0150346D01*
X0248605Y0145662D01*
X0245857Y0145662D01*
X0243120Y0148399D01*
X0242600Y0148747D01*
X0241985Y0148869D01*
X0241985Y0148869D01*
X0238724Y0148869D01*
X0238724Y0148869D01*
X0238109Y0148747D01*
X0237588Y0148399D01*
X0236598Y0147409D01*
X0236165Y0147120D01*
X0236165Y0147120D01*
X0235067Y0146022D01*
X0233387Y0146022D01*
X0233066Y0146342D01*
X0232415Y0146612D01*
X0231710Y0146612D01*
X0231059Y0146342D01*
X0230738Y0146022D01*
X0227452Y0146022D01*
X0226838Y0145899D01*
X0226483Y0145662D01*
X0225150Y0145662D01*
X0223693Y0147120D01*
X0223172Y0147468D01*
X0223035Y0147495D01*
X0223035Y0157779D01*
X0222928Y0158316D01*
X0222624Y0158772D01*
X0220039Y0161357D01*
X0220039Y0161494D01*
X0219769Y0162145D01*
X0219271Y0162644D01*
X0218620Y0162913D01*
X0217915Y0162913D01*
X0217264Y0162644D01*
X0216765Y0162145D01*
X0216496Y0161494D01*
X0216496Y0160789D01*
X0216765Y0160138D01*
X0217264Y0159640D01*
X0217915Y0159370D01*
X0218052Y0159370D01*
X0220016Y0157407D01*
X0219960Y0156834D01*
X0219203Y0156424D01*
X0218867Y0156564D01*
X0218163Y0156564D01*
X0217511Y0156294D01*
X0217013Y0155796D01*
X0216743Y0155144D01*
X0216743Y0154440D01*
X0217013Y0153788D01*
X0217511Y0153290D01*
X0218163Y0153020D01*
X0218867Y0153020D01*
X0219438Y0153257D01*
X0219819Y0153117D01*
X0220225Y0152883D01*
X0220225Y0147760D01*
X0219517Y0147590D01*
X0218903Y0147468D01*
X0218382Y0147120D01*
X0218071Y0146808D01*
X0217747Y0146857D01*
X0217223Y0147074D01*
X0217013Y0147578D01*
X0216515Y0148077D01*
X0215864Y0148346D01*
X0215159Y0148346D01*
X0214508Y0148077D01*
X0214010Y0147578D01*
X0213740Y0146927D01*
X0213740Y0146378D01*
X0213308Y0146009D01*
X0213032Y0145873D01*
X0212763Y0145984D01*
X0212059Y0145984D01*
X0211658Y0145818D01*
X0209834Y0145818D01*
X0209834Y0154539D01*
X0210621Y0154865D01*
X0210768Y0154718D01*
X0211419Y0154449D01*
X0212124Y0154449D01*
X0212775Y0154718D01*
X0213273Y0155217D01*
X0213543Y0155868D01*
X0213543Y0156573D01*
X0213273Y0157224D01*
X0212775Y0157722D01*
X0212124Y0157992D01*
X0211419Y0157992D01*
X0210768Y0157722D01*
X0210621Y0157576D01*
X0209834Y0157902D01*
X0209834Y0159191D01*
X0209834Y0159191D01*
X0209712Y0159806D01*
X0209363Y0160327D01*
X0209363Y0160327D01*
X0203685Y0166005D01*
X0203897Y0166907D01*
X0204129Y0167003D01*
X0204627Y0167501D01*
X0204897Y0168152D01*
X0204897Y0168857D01*
X0204627Y0169508D01*
X0204129Y0170007D01*
X0203477Y0170276D01*
X0202773Y0170276D01*
X0202073Y0170839D01*
X0202073Y0173944D01*
X0203753Y0175624D01*
X0203753Y0175624D01*
X0204101Y0176145D01*
X0204224Y0176759D01*
X0204224Y0176759D01*
X0204224Y0182680D01*
X0204747Y0182890D01*
X0205011Y0182916D01*
X0205453Y0182475D01*
X0206104Y0182205D01*
X0206809Y0182205D01*
X0207460Y0182475D01*
X0207958Y0182973D01*
X0207958Y0182973D01*
X0225159Y0182973D01*
X0225543Y0183049D01*
X0225868Y0183267D01*
X0227444Y0184843D01*
X0242119Y0184843D01*
X0242677Y0184132D01*
D02*
G37*
G36*
X0292395Y0184054D02*
X0292720Y0183837D01*
X0293104Y0183760D01*
X0357441Y0183760D01*
X0357441Y0183427D01*
X0357710Y0182776D01*
X0357767Y0182719D01*
X0358154Y0182205D01*
X0357767Y0181690D01*
X0357710Y0181633D01*
X0357441Y0180982D01*
X0357441Y0180277D01*
X0357710Y0179626D01*
X0357767Y0179570D01*
X0358154Y0179055D01*
X0357767Y0178541D01*
X0357710Y0178484D01*
X0357441Y0177833D01*
X0357441Y0177128D01*
X0357710Y0176477D01*
X0357767Y0176420D01*
X0358154Y0175905D01*
X0357767Y0175391D01*
X0357710Y0175334D01*
X0357441Y0174683D01*
X0357441Y0173978D01*
X0357710Y0173327D01*
X0357767Y0173270D01*
X0358154Y0172756D01*
X0357767Y0172241D01*
X0357710Y0172185D01*
X0357441Y0171534D01*
X0357441Y0170829D01*
X0357710Y0170178D01*
X0357767Y0170121D01*
X0358154Y0169606D01*
X0357767Y0169092D01*
X0357710Y0169035D01*
X0357441Y0168384D01*
X0357441Y0167679D01*
X0357710Y0167028D01*
X0357767Y0166971D01*
X0358154Y0166457D01*
X0357767Y0165942D01*
X0357710Y0165886D01*
X0357441Y0165234D01*
X0357441Y0164530D01*
X0357710Y0163878D01*
X0357767Y0163821D01*
X0358154Y0163307D01*
X0357767Y0162793D01*
X0357710Y0162736D01*
X0357441Y0162085D01*
X0357441Y0161380D01*
X0357710Y0160729D01*
X0357767Y0160672D01*
X0358154Y0160157D01*
X0357767Y0159643D01*
X0357710Y0159586D01*
X0357441Y0158935D01*
X0357441Y0158230D01*
X0357710Y0157579D01*
X0357767Y0157522D01*
X0358154Y0157008D01*
X0357767Y0156494D01*
X0357710Y0156437D01*
X0357441Y0155785D01*
X0356710Y0155381D01*
X0356653Y0155387D01*
X0356477Y0155651D01*
X0349938Y0162189D01*
X0349969Y0162243D01*
X0350157Y0162944D01*
X0350157Y0163670D01*
X0349969Y0164371D01*
X0349607Y0164999D01*
X0349093Y0165512D01*
X0348465Y0165875D01*
X0347764Y0166063D01*
X0347039Y0166063D01*
X0346338Y0165875D01*
X0345709Y0165512D01*
X0345196Y0164999D01*
X0344833Y0164371D01*
X0344645Y0163670D01*
X0344645Y0162944D01*
X0344833Y0162243D01*
X0345196Y0161615D01*
X0345709Y0161102D01*
X0346338Y0160739D01*
X0347039Y0160551D01*
X0347764Y0160551D01*
X0348465Y0160739D01*
X0348519Y0160770D01*
X0350331Y0158959D01*
X0349829Y0158347D01*
X0349729Y0158414D01*
X0349345Y0158490D01*
X0333953Y0158490D01*
X0330253Y0162189D01*
X0330284Y0162243D01*
X0330472Y0162944D01*
X0330472Y0163670D01*
X0330284Y0164371D01*
X0329922Y0164999D01*
X0329408Y0165512D01*
X0328780Y0165875D01*
X0328079Y0166063D01*
X0327353Y0166063D01*
X0326652Y0165875D01*
X0326024Y0165512D01*
X0325511Y0164999D01*
X0325148Y0164371D01*
X0324960Y0163670D01*
X0324960Y0162944D01*
X0325148Y0162243D01*
X0325511Y0161615D01*
X0326024Y0161102D01*
X0326652Y0160739D01*
X0327353Y0160551D01*
X0328079Y0160551D01*
X0328780Y0160739D01*
X0328834Y0160770D01*
X0331666Y0157938D01*
X0331365Y0157210D01*
X0315547Y0157210D01*
X0310568Y0162189D01*
X0310599Y0162243D01*
X0310787Y0162944D01*
X0310787Y0163670D01*
X0310599Y0164371D01*
X0310236Y0164999D01*
X0309723Y0165512D01*
X0309095Y0165875D01*
X0308394Y0166063D01*
X0307668Y0166063D01*
X0306968Y0165875D01*
X0306339Y0165512D01*
X0305826Y0164999D01*
X0305463Y0164371D01*
X0305275Y0163670D01*
X0305275Y0162944D01*
X0305463Y0162243D01*
X0305826Y0161615D01*
X0306339Y0161102D01*
X0306968Y0160739D01*
X0307668Y0160551D01*
X0308394Y0160551D01*
X0309095Y0160739D01*
X0309149Y0160770D01*
X0313261Y0156658D01*
X0312960Y0155931D01*
X0297142Y0155931D01*
X0290883Y0162189D01*
X0290914Y0162243D01*
X0291102Y0162944D01*
X0291102Y0163670D01*
X0290914Y0164371D01*
X0290551Y0164999D01*
X0290038Y0165512D01*
X0289410Y0165875D01*
X0288709Y0166063D01*
X0287983Y0166063D01*
X0287282Y0165875D01*
X0286654Y0165512D01*
X0286141Y0164999D01*
X0285778Y0164371D01*
X0285590Y0163670D01*
X0285590Y0162944D01*
X0285778Y0162243D01*
X0286141Y0161615D01*
X0286654Y0161102D01*
X0287282Y0160739D01*
X0287983Y0160551D01*
X0288709Y0160551D01*
X0289410Y0160739D01*
X0289464Y0160770D01*
X0296016Y0154218D01*
X0296342Y0154000D01*
X0296726Y0153924D01*
X0305448Y0153924D01*
X0305737Y0153361D01*
X0305796Y0153136D01*
X0305463Y0152560D01*
X0305275Y0151859D01*
X0305275Y0151133D01*
X0305463Y0150432D01*
X0305826Y0149804D01*
X0306339Y0149291D01*
X0306968Y0148928D01*
X0307668Y0148740D01*
X0308394Y0148740D01*
X0309095Y0148928D01*
X0309149Y0148959D01*
X0312934Y0145174D01*
X0313260Y0144956D01*
X0313644Y0144880D01*
X0345102Y0144880D01*
X0346792Y0143190D01*
X0346557Y0142312D01*
X0346338Y0142253D01*
X0345709Y0141890D01*
X0345196Y0141377D01*
X0345075Y0141168D01*
X0344140Y0141057D01*
X0343622Y0141576D01*
X0343296Y0141793D01*
X0342912Y0141870D01*
X0333212Y0141870D01*
X0332828Y0141793D01*
X0332503Y0141576D01*
X0331221Y0140294D01*
X0330343Y0140530D01*
X0330284Y0140749D01*
X0329922Y0141377D01*
X0329408Y0141890D01*
X0328780Y0142253D01*
X0328079Y0142441D01*
X0327353Y0142441D01*
X0326652Y0142253D01*
X0326024Y0141890D01*
X0325511Y0141377D01*
X0325148Y0140749D01*
X0324960Y0140048D01*
X0324960Y0139322D01*
X0325148Y0138621D01*
X0325179Y0138567D01*
X0322970Y0136358D01*
X0309488Y0136358D01*
X0309121Y0137071D01*
X0309144Y0137145D01*
X0309723Y0137480D01*
X0310236Y0137993D01*
X0310599Y0138621D01*
X0310787Y0139322D01*
X0310787Y0140048D01*
X0310599Y0140749D01*
X0310236Y0141377D01*
X0309723Y0141890D01*
X0309095Y0142253D01*
X0308394Y0142441D01*
X0307668Y0142441D01*
X0306968Y0142253D01*
X0306339Y0141890D01*
X0305826Y0141377D01*
X0305463Y0140749D01*
X0305275Y0140048D01*
X0305275Y0139322D01*
X0305463Y0138621D01*
X0305494Y0138567D01*
X0304564Y0137637D01*
X0291255Y0137637D01*
X0290801Y0138425D01*
X0290914Y0138621D01*
X0291102Y0139322D01*
X0291102Y0140048D01*
X0290914Y0140749D01*
X0290551Y0141377D01*
X0290038Y0141890D01*
X0289410Y0142253D01*
X0288709Y0142441D01*
X0287983Y0142441D01*
X0287282Y0142253D01*
X0286654Y0141890D01*
X0286141Y0141377D01*
X0285778Y0140749D01*
X0285590Y0140048D01*
X0285590Y0139508D01*
X0262544Y0139508D01*
X0259971Y0142080D01*
X0260272Y0142808D01*
X0262102Y0142808D01*
X0262639Y0142915D01*
X0263095Y0143219D01*
X0272390Y0152514D01*
X0272447Y0152525D01*
X0272903Y0152830D01*
X0273296Y0153263D01*
X0273956Y0153096D01*
X0274017Y0153071D01*
X0274722Y0153071D01*
X0275373Y0153341D01*
X0275872Y0153839D01*
X0276142Y0154490D01*
X0276142Y0155195D01*
X0275872Y0155846D01*
X0275373Y0156345D01*
X0275304Y0156609D01*
X0275245Y0157250D01*
X0275471Y0157588D01*
X0275578Y0158126D01*
X0275578Y0160041D01*
X0275675Y0160138D01*
X0275945Y0160789D01*
X0275945Y0161365D01*
X0276299Y0161619D01*
X0276672Y0161751D01*
X0285809Y0152614D01*
X0285778Y0152560D01*
X0285590Y0151859D01*
X0285590Y0151133D01*
X0285778Y0150432D01*
X0286141Y0149804D01*
X0286654Y0149291D01*
X0287282Y0148928D01*
X0287983Y0148740D01*
X0288709Y0148740D01*
X0289410Y0148928D01*
X0290038Y0149291D01*
X0290551Y0149804D01*
X0290914Y0150432D01*
X0291102Y0151133D01*
X0291102Y0151859D01*
X0290914Y0152560D01*
X0290551Y0153188D01*
X0290038Y0153701D01*
X0289410Y0154064D01*
X0288709Y0154252D01*
X0287983Y0154252D01*
X0287282Y0154064D01*
X0287228Y0154033D01*
X0277343Y0163918D01*
X0277018Y0164136D01*
X0276634Y0164212D01*
X0273317Y0164212D01*
X0272933Y0164136D01*
X0272607Y0163918D01*
X0271354Y0162665D01*
X0271137Y0162340D01*
X0271060Y0161956D01*
X0271060Y0158798D01*
X0269847Y0157585D01*
X0269380Y0157332D01*
X0268803Y0157600D01*
X0268680Y0157722D01*
X0268680Y0157722D01*
X0268680Y0162683D01*
X0269501Y0163503D01*
X0269718Y0163829D01*
X0269795Y0164213D01*
X0269795Y0172491D01*
X0269783Y0172553D01*
X0269966Y0172737D01*
X0270236Y0173388D01*
X0270236Y0174093D01*
X0270794Y0174804D01*
X0274862Y0174804D01*
X0275246Y0174880D01*
X0275571Y0175098D01*
X0276183Y0175709D01*
X0276183Y0175709D01*
X0276888Y0175709D01*
X0277539Y0175978D01*
X0278037Y0176477D01*
X0278307Y0177128D01*
X0278307Y0177833D01*
X0278096Y0178342D01*
X0278649Y0178900D01*
X0279418Y0178713D01*
X0285000Y0173131D01*
X0285000Y0172994D01*
X0285270Y0172343D01*
X0285768Y0171845D01*
X0286419Y0171575D01*
X0287124Y0171575D01*
X0287775Y0171845D01*
X0288273Y0172343D01*
X0288543Y0172994D01*
X0288543Y0173131D01*
X0290109Y0174697D01*
X0299960Y0174697D01*
X0300498Y0174804D01*
X0300954Y0175109D01*
X0304113Y0178268D01*
X0304250Y0178268D01*
X0304901Y0178538D01*
X0305399Y0179036D01*
X0305669Y0179687D01*
X0305669Y0180392D01*
X0305399Y0181043D01*
X0304901Y0181541D01*
X0304250Y0181811D01*
X0303545Y0181811D01*
X0302894Y0181541D01*
X0302395Y0181043D01*
X0302126Y0180392D01*
X0302126Y0180255D01*
X0299378Y0177507D01*
X0289527Y0177507D01*
X0288990Y0177400D01*
X0288534Y0177096D01*
X0286771Y0175333D01*
X0283443Y0178661D01*
X0283503Y0179005D01*
X0283714Y0179504D01*
X0284232Y0179719D01*
X0284730Y0180217D01*
X0285000Y0180868D01*
X0285000Y0181573D01*
X0284730Y0182224D01*
X0284232Y0182722D01*
X0283581Y0182992D01*
X0282876Y0182992D01*
X0282225Y0182722D01*
X0281931Y0182429D01*
X0281136Y0182398D01*
X0280973Y0182446D01*
X0279750Y0183669D01*
X0280094Y0184438D01*
X0292011Y0184438D01*
X0292395Y0184054D01*
D02*
G37*
G36*
X0325422Y0153361D02*
X0325481Y0153136D01*
X0325148Y0152560D01*
X0324960Y0151859D01*
X0324960Y0151133D01*
X0325148Y0150432D01*
X0325511Y0149804D01*
X0326024Y0149291D01*
X0326652Y0148928D01*
X0327353Y0148740D01*
X0328079Y0148740D01*
X0328780Y0148928D01*
X0329408Y0149291D01*
X0329922Y0149804D01*
X0330284Y0150432D01*
X0330300Y0150492D01*
X0341299Y0150492D01*
X0344177Y0147615D01*
X0343876Y0146887D01*
X0314060Y0146887D01*
X0310568Y0150378D01*
X0310599Y0150432D01*
X0310787Y0151133D01*
X0310787Y0151859D01*
X0310599Y0152560D01*
X0310267Y0153136D01*
X0310325Y0153361D01*
X0310615Y0153924D01*
X0325133Y0153924D01*
X0325422Y0153361D01*
D02*
G37*
G36*
X0223214Y0143057D02*
X0223085Y0142530D01*
X0222910Y0142270D01*
X0222319Y0142270D01*
X0221935Y0142193D01*
X0221609Y0141976D01*
X0220624Y0140990D01*
X0210695Y0140990D01*
X0210311Y0140914D01*
X0209985Y0140696D01*
X0203266Y0133976D01*
X0203266Y0133976D01*
X0202561Y0133976D01*
X0201910Y0133707D01*
X0201411Y0133208D01*
X0201141Y0132557D01*
X0201141Y0131852D01*
X0201411Y0131201D01*
X0201910Y0130703D01*
X0202561Y0130433D01*
X0203266Y0130433D01*
X0203917Y0130703D01*
X0204415Y0131201D01*
X0204685Y0131852D01*
X0204685Y0132557D01*
X0204685Y0132557D01*
X0206009Y0133881D01*
X0206370Y0133811D01*
X0206847Y0133606D01*
X0207066Y0133078D01*
X0207564Y0132579D01*
X0208215Y0132310D01*
X0208920Y0132310D01*
X0209571Y0132579D01*
X0210070Y0133078D01*
X0210308Y0133652D01*
X0210701Y0133692D01*
X0211095Y0133652D01*
X0211333Y0133078D01*
X0211831Y0132579D01*
X0212483Y0132310D01*
X0213187Y0132310D01*
X0213839Y0132579D01*
X0214337Y0133078D01*
X0214607Y0133729D01*
X0214607Y0134434D01*
X0214607Y0134434D01*
X0216597Y0136424D01*
X0220457Y0136424D01*
X0220759Y0135697D01*
X0219031Y0133969D01*
X0219014Y0133976D01*
X0218309Y0133976D01*
X0217658Y0133707D01*
X0217159Y0133208D01*
X0216889Y0132557D01*
X0216889Y0131852D01*
X0217159Y0131201D01*
X0217658Y0130703D01*
X0218132Y0130506D01*
X0218333Y0130356D01*
X0218563Y0129646D01*
X0218464Y0129407D01*
X0218464Y0128703D01*
X0218734Y0128052D01*
X0219232Y0127553D01*
X0219884Y0127283D01*
X0220588Y0127283D01*
X0221240Y0127553D01*
X0221738Y0128052D01*
X0222008Y0128703D01*
X0222008Y0129407D01*
X0221909Y0129646D01*
X0222138Y0130356D01*
X0222340Y0130506D01*
X0222814Y0130703D01*
X0223313Y0131201D01*
X0223582Y0131852D01*
X0223582Y0132557D01*
X0223582Y0132557D01*
X0224906Y0133881D01*
X0225268Y0133811D01*
X0225745Y0133606D01*
X0225963Y0133078D01*
X0226462Y0132579D01*
X0227113Y0132310D01*
X0227818Y0132310D01*
X0228469Y0132579D01*
X0228967Y0133078D01*
X0229820Y0133289D01*
X0230231Y0133078D01*
X0230729Y0132579D01*
X0231380Y0132310D01*
X0232085Y0132310D01*
X0232736Y0132579D01*
X0233235Y0133078D01*
X0233314Y0133268D01*
X0235229Y0133268D01*
X0235787Y0132557D01*
X0235787Y0131852D01*
X0236057Y0131201D01*
X0236555Y0130703D01*
X0237206Y0130433D01*
X0237911Y0130433D01*
X0237911Y0130433D01*
X0243936Y0124408D01*
X0244261Y0124191D01*
X0244645Y0124115D01*
X0257808Y0124115D01*
X0258134Y0123327D01*
X0255608Y0120800D01*
X0255305Y0121003D01*
X0254767Y0121110D01*
X0251987Y0121110D01*
X0251450Y0121003D01*
X0251022Y0120717D01*
X0251008Y0120717D01*
X0250580Y0121003D01*
X0250043Y0121110D01*
X0247263Y0121110D01*
X0246725Y0121003D01*
X0246298Y0120717D01*
X0246283Y0120717D01*
X0245856Y0121003D01*
X0245318Y0121110D01*
X0242538Y0121110D01*
X0242001Y0121003D01*
X0241573Y0120717D01*
X0241559Y0120717D01*
X0241131Y0121003D01*
X0240594Y0121110D01*
X0237814Y0121110D01*
X0237276Y0121003D01*
X0236849Y0120717D01*
X0236834Y0120717D01*
X0236407Y0121003D01*
X0235869Y0121110D01*
X0233090Y0121110D01*
X0232552Y0121003D01*
X0232125Y0120717D01*
X0232110Y0120717D01*
X0231683Y0121003D01*
X0231145Y0121110D01*
X0228365Y0121110D01*
X0227828Y0121003D01*
X0227400Y0120717D01*
X0227386Y0120717D01*
X0226958Y0121003D01*
X0226421Y0121110D01*
X0223641Y0121110D01*
X0223103Y0121003D01*
X0222676Y0120717D01*
X0222661Y0120717D01*
X0222234Y0121003D01*
X0221696Y0121110D01*
X0218916Y0121110D01*
X0218379Y0121003D01*
X0217951Y0120717D01*
X0217937Y0120717D01*
X0217509Y0121003D01*
X0216972Y0121110D01*
X0214192Y0121110D01*
X0213654Y0121003D01*
X0213227Y0120717D01*
X0213212Y0120717D01*
X0212785Y0121003D01*
X0212247Y0121110D01*
X0209468Y0121110D01*
X0208930Y0121003D01*
X0208503Y0120717D01*
X0208488Y0120717D01*
X0208060Y0121003D01*
X0207523Y0121110D01*
X0204743Y0121110D01*
X0204206Y0121003D01*
X0203778Y0120717D01*
X0203419Y0120717D01*
X0202767Y0120447D01*
X0202269Y0119949D01*
X0201999Y0119298D01*
X0201999Y0118593D01*
X0202269Y0117942D01*
X0202767Y0117444D01*
X0203419Y0117174D01*
X0204094Y0117174D01*
X0204094Y0116063D01*
X0203307Y0116063D01*
X0198895Y0116063D01*
X0198368Y0116850D01*
X0198386Y0116892D01*
X0198386Y0117597D01*
X0198116Y0118248D01*
X0197618Y0118746D01*
X0196966Y0119016D01*
X0196261Y0119016D01*
X0195610Y0118746D01*
X0195112Y0118248D01*
X0194842Y0117597D01*
X0194842Y0117293D01*
X0194167Y0116705D01*
X0194115Y0116691D01*
X0193858Y0116769D01*
X0193858Y0124806D01*
X0194645Y0125332D01*
X0194687Y0125315D01*
X0195392Y0125315D01*
X0196043Y0125585D01*
X0196541Y0126083D01*
X0196811Y0126734D01*
X0196811Y0127439D01*
X0196541Y0128090D01*
X0196043Y0128589D01*
X0195945Y0128629D01*
X0195945Y0129481D01*
X0196043Y0129522D01*
X0196541Y0130020D01*
X0196707Y0130421D01*
X0208893Y0142607D01*
X0211658Y0142607D01*
X0212059Y0142441D01*
X0212763Y0142441D01*
X0212983Y0142532D01*
X0213650Y0142532D01*
X0213796Y0142434D01*
X0214411Y0142312D01*
X0217451Y0142312D01*
X0217451Y0142312D01*
X0218065Y0142434D01*
X0218586Y0142782D01*
X0220183Y0144379D01*
X0221892Y0144379D01*
X0223214Y0143057D01*
D02*
G37*
G36*
X0357710Y0154429D02*
X0358209Y0153931D01*
X0358860Y0153661D01*
X0359565Y0153661D01*
X0359606Y0153678D01*
X0360393Y0153152D01*
X0360393Y0131336D01*
X0359606Y0130810D01*
X0359565Y0130827D01*
X0358860Y0130827D01*
X0358209Y0130557D01*
X0357710Y0130059D01*
X0357441Y0129408D01*
X0357441Y0128703D01*
X0357710Y0128052D01*
X0357338Y0127311D01*
X0354309Y0127311D01*
X0354212Y0127407D01*
X0353561Y0127677D01*
X0353080Y0127677D01*
X0352713Y0128405D01*
X0358839Y0134532D01*
X0359057Y0134857D01*
X0359133Y0135241D01*
X0359133Y0148006D01*
X0359057Y0148390D01*
X0358839Y0148715D01*
X0356771Y0150784D01*
X0356771Y0154640D01*
X0357558Y0154797D01*
X0357710Y0154429D01*
D02*
G37*
G36*
X0337994Y0128071D02*
X0338688Y0128071D01*
X0340469Y0126290D01*
X0340924Y0125985D01*
X0341462Y0125878D01*
X0345245Y0125878D01*
X0346211Y0124912D01*
X0346667Y0124608D01*
X0347204Y0124501D01*
X0352108Y0124501D01*
X0352205Y0124404D01*
X0352856Y0124134D01*
X0353561Y0124134D01*
X0354212Y0124404D01*
X0354309Y0124501D01*
X0358112Y0124501D01*
X0358209Y0124404D01*
X0358860Y0124134D01*
X0359565Y0124134D01*
X0359606Y0124151D01*
X0360393Y0123625D01*
X0360393Y0118032D01*
X0358442Y0118032D01*
X0358352Y0118248D01*
X0357854Y0118746D01*
X0357203Y0119016D01*
X0356498Y0119016D01*
X0355847Y0118746D01*
X0355348Y0118248D01*
X0355259Y0118032D01*
X0353717Y0118032D01*
X0353628Y0118248D01*
X0353129Y0118746D01*
X0352478Y0119016D01*
X0351773Y0119016D01*
X0351122Y0118746D01*
X0350624Y0118248D01*
X0350534Y0118032D01*
X0348993Y0118032D01*
X0348903Y0118248D01*
X0348405Y0118746D01*
X0347754Y0119016D01*
X0347049Y0119016D01*
X0346398Y0118746D01*
X0345899Y0118248D01*
X0345810Y0118032D01*
X0344268Y0118032D01*
X0344179Y0118248D01*
X0343680Y0118746D01*
X0343029Y0119016D01*
X0342325Y0119016D01*
X0341673Y0118746D01*
X0341175Y0118248D01*
X0341086Y0118032D01*
X0339544Y0118032D01*
X0339454Y0118248D01*
X0338956Y0118746D01*
X0338305Y0119016D01*
X0337600Y0119016D01*
X0336949Y0118746D01*
X0336451Y0118248D01*
X0336361Y0118032D01*
X0335213Y0118032D01*
X0335124Y0118248D01*
X0334625Y0118746D01*
X0333974Y0119016D01*
X0333269Y0119016D01*
X0332618Y0118746D01*
X0332120Y0118248D01*
X0332030Y0118032D01*
X0330489Y0118032D01*
X0330399Y0118248D01*
X0329901Y0118746D01*
X0329250Y0119016D01*
X0328545Y0119016D01*
X0327894Y0118746D01*
X0327395Y0118248D01*
X0327306Y0118032D01*
X0325764Y0118032D01*
X0325675Y0118248D01*
X0325177Y0118746D01*
X0324525Y0119016D01*
X0323821Y0119016D01*
X0323170Y0118746D01*
X0322671Y0118248D01*
X0322582Y0118032D01*
X0321040Y0118032D01*
X0320951Y0118248D01*
X0320452Y0118746D01*
X0319801Y0119016D01*
X0319096Y0119016D01*
X0318445Y0118746D01*
X0317947Y0118248D01*
X0317857Y0118032D01*
X0316316Y0118032D01*
X0316226Y0118248D01*
X0315728Y0118746D01*
X0315077Y0119016D01*
X0314372Y0119016D01*
X0313721Y0118746D01*
X0313222Y0118248D01*
X0313133Y0118032D01*
X0311591Y0118032D01*
X0311502Y0118248D01*
X0311003Y0118746D01*
X0310352Y0119016D01*
X0309647Y0119016D01*
X0308996Y0118746D01*
X0308498Y0118248D01*
X0308408Y0118032D01*
X0306867Y0118032D01*
X0306777Y0118248D01*
X0306279Y0118746D01*
X0305628Y0119016D01*
X0304923Y0119016D01*
X0304272Y0118746D01*
X0303773Y0118248D01*
X0303684Y0118032D01*
X0302142Y0118032D01*
X0302053Y0118248D01*
X0301555Y0118746D01*
X0300903Y0119016D01*
X0300199Y0119016D01*
X0299547Y0118746D01*
X0299049Y0118248D01*
X0298960Y0118032D01*
X0297418Y0118032D01*
X0297329Y0118248D01*
X0296830Y0118746D01*
X0296179Y0119016D01*
X0295474Y0119016D01*
X0294823Y0118746D01*
X0294325Y0118248D01*
X0294235Y0118032D01*
X0292694Y0118032D01*
X0292604Y0118248D01*
X0292106Y0118746D01*
X0291455Y0119016D01*
X0290750Y0119016D01*
X0290099Y0118746D01*
X0289600Y0118248D01*
X0289511Y0118032D01*
X0287969Y0118032D01*
X0287880Y0118248D01*
X0287381Y0118746D01*
X0286730Y0119016D01*
X0286025Y0119016D01*
X0285374Y0118746D01*
X0284876Y0118248D01*
X0284786Y0118032D01*
X0283245Y0118032D01*
X0283155Y0118248D01*
X0282657Y0118746D01*
X0282006Y0119016D01*
X0281301Y0119016D01*
X0280650Y0118746D01*
X0280151Y0118248D01*
X0280062Y0118032D01*
X0278520Y0118032D01*
X0278431Y0118248D01*
X0277932Y0118746D01*
X0277281Y0119016D01*
X0276576Y0119016D01*
X0275925Y0118746D01*
X0275427Y0118248D01*
X0275337Y0118032D01*
X0273796Y0118032D01*
X0273706Y0118248D01*
X0273208Y0118746D01*
X0272557Y0119016D01*
X0271852Y0119016D01*
X0271201Y0118746D01*
X0270703Y0118248D01*
X0270613Y0118032D01*
X0269071Y0118032D01*
X0268982Y0118248D01*
X0268484Y0118746D01*
X0267833Y0119016D01*
X0267128Y0119016D01*
X0266477Y0118746D01*
X0265978Y0118248D01*
X0265889Y0118032D01*
X0264347Y0118032D01*
X0264258Y0118248D01*
X0263759Y0118746D01*
X0263108Y0119016D01*
X0262403Y0119016D01*
X0261752Y0118746D01*
X0261254Y0118248D01*
X0261164Y0118032D01*
X0259623Y0118032D01*
X0259533Y0118248D01*
X0259035Y0118746D01*
X0258756Y0118861D01*
X0258524Y0119743D01*
X0260033Y0121253D01*
X0262209Y0121253D01*
X0262335Y0121126D01*
X0262791Y0120821D01*
X0263017Y0120776D01*
X0263327Y0120467D01*
X0263978Y0120197D01*
X0264683Y0120197D01*
X0265334Y0120467D01*
X0265431Y0120564D01*
X0302206Y0120564D01*
X0302303Y0120467D01*
X0302954Y0120197D01*
X0303659Y0120197D01*
X0304310Y0120467D01*
X0304407Y0120564D01*
X0329719Y0120564D01*
X0330256Y0120671D01*
X0330712Y0120975D01*
X0337862Y0128125D01*
X0337994Y0128071D01*
D02*
G37*
%LPC*%
G36*
X0235057Y0234173D02*
X0234352Y0234173D01*
X0233701Y0233904D01*
X0233202Y0233405D01*
X0232933Y0232754D01*
X0232933Y0232049D01*
X0233202Y0231398D01*
X0233701Y0230900D01*
X0234352Y0230630D01*
X0235057Y0230630D01*
X0235708Y0230900D01*
X0236206Y0231398D01*
X0236476Y0232049D01*
X0236476Y0232754D01*
X0236206Y0233405D01*
X0235708Y0233904D01*
X0235057Y0234173D01*
D02*
G37*
G36*
X0303277Y0230417D02*
X0302572Y0230417D01*
X0301921Y0230148D01*
X0301422Y0229649D01*
X0301153Y0228998D01*
X0301153Y0228293D01*
X0301422Y0227642D01*
X0301921Y0227144D01*
X0302572Y0226874D01*
X0303277Y0226874D01*
X0303928Y0227144D01*
X0304426Y0227642D01*
X0304696Y0228293D01*
X0304696Y0228998D01*
X0304426Y0229649D01*
X0303928Y0230148D01*
X0303277Y0230417D01*
D02*
G37*
G36*
X0295588Y0230039D02*
X0294883Y0230039D01*
X0294232Y0229770D01*
X0293734Y0229271D01*
X0293464Y0228620D01*
X0293464Y0227915D01*
X0293734Y0227264D01*
X0294232Y0226766D01*
X0294883Y0226496D01*
X0295588Y0226496D01*
X0296240Y0226766D01*
X0296738Y0227264D01*
X0297008Y0227915D01*
X0297008Y0228620D01*
X0296738Y0229271D01*
X0296240Y0229770D01*
X0295588Y0230039D01*
D02*
G37*
G36*
X0286927Y0206417D02*
X0286222Y0206417D01*
X0285571Y0206148D01*
X0285073Y0205649D01*
X0284803Y0204998D01*
X0284803Y0204476D01*
X0284762Y0204449D01*
X0284057Y0204449D01*
X0283406Y0204179D01*
X0282907Y0203681D01*
X0282637Y0203030D01*
X0282637Y0202325D01*
X0282907Y0201674D01*
X0283406Y0201175D01*
X0284057Y0200905D01*
X0284762Y0200905D01*
X0285413Y0201175D01*
X0285911Y0201674D01*
X0286181Y0202325D01*
X0286181Y0202846D01*
X0286222Y0202874D01*
X0286927Y0202874D01*
X0287578Y0203144D01*
X0288076Y0203642D01*
X0288346Y0204293D01*
X0288346Y0204998D01*
X0288076Y0205649D01*
X0287578Y0206148D01*
X0286927Y0206417D01*
D02*
G37*
G36*
X0202478Y0156417D02*
X0201773Y0156417D01*
X0201122Y0156148D01*
X0200624Y0155649D01*
X0200354Y0154998D01*
X0200354Y0154293D01*
X0200624Y0153642D01*
X0201122Y0153144D01*
X0201773Y0152874D01*
X0202478Y0152874D01*
X0203129Y0153144D01*
X0203628Y0153642D01*
X0203897Y0154293D01*
X0203897Y0154998D01*
X0203628Y0155649D01*
X0203129Y0156148D01*
X0202478Y0156417D01*
D02*
G37*
G36*
X0198935Y0148740D02*
X0198230Y0148740D01*
X0197579Y0148470D01*
X0197081Y0147972D01*
X0196811Y0147321D01*
X0196811Y0146616D01*
X0197081Y0145965D01*
X0197579Y0145467D01*
X0198230Y0145197D01*
X0198935Y0145197D01*
X0199586Y0145467D01*
X0200084Y0145965D01*
X0200354Y0146616D01*
X0200354Y0147321D01*
X0200084Y0147972D01*
X0199586Y0148470D01*
X0198935Y0148740D01*
D02*
G37*
G36*
X0283384Y0192638D02*
X0282679Y0192638D01*
X0282028Y0192368D01*
X0281529Y0191870D01*
X0280885Y0192171D01*
X0280234Y0192441D01*
X0279529Y0192441D01*
X0278878Y0192171D01*
X0278380Y0191673D01*
X0278110Y0191022D01*
X0278110Y0190317D01*
X0278380Y0189666D01*
X0278878Y0189167D01*
X0279529Y0188898D01*
X0280234Y0188898D01*
X0280885Y0189167D01*
X0281383Y0189666D01*
X0282028Y0189364D01*
X0282679Y0189095D01*
X0283384Y0189095D01*
X0284035Y0189364D01*
X0284533Y0189863D01*
X0284803Y0190514D01*
X0284803Y0191219D01*
X0284533Y0191870D01*
X0284035Y0192368D01*
X0283384Y0192638D01*
D02*
G37*
G36*
X0211171Y0168260D02*
X0210467Y0168260D01*
X0209815Y0167990D01*
X0209374Y0167549D01*
X0208968Y0167955D01*
X0208317Y0168225D01*
X0207612Y0168225D01*
X0206961Y0167955D01*
X0206463Y0167457D01*
X0206193Y0166806D01*
X0206193Y0166101D01*
X0206463Y0165450D01*
X0206961Y0164951D01*
X0207612Y0164682D01*
X0208317Y0164682D01*
X0208968Y0164951D01*
X0209409Y0165393D01*
X0209815Y0164987D01*
X0210467Y0164717D01*
X0211171Y0164717D01*
X0211822Y0164987D01*
X0212321Y0165485D01*
X0212591Y0166136D01*
X0212591Y0166841D01*
X0212321Y0167492D01*
X0211822Y0167990D01*
X0211171Y0168260D01*
D02*
G37*
G36*
X0218226Y0170984D02*
X0217521Y0170984D01*
X0216870Y0170714D01*
X0216372Y0170216D01*
X0216102Y0169565D01*
X0216102Y0168860D01*
X0216372Y0168209D01*
X0216870Y0167711D01*
X0217521Y0167441D01*
X0218226Y0167441D01*
X0218877Y0167711D01*
X0219376Y0168209D01*
X0219645Y0168860D01*
X0219645Y0169565D01*
X0219376Y0170216D01*
X0218877Y0170714D01*
X0218226Y0170984D01*
D02*
G37*
G36*
X0259383Y0170276D02*
X0258678Y0170276D01*
X0258027Y0170007D01*
X0257529Y0169508D01*
X0257259Y0168857D01*
X0257259Y0168152D01*
X0257529Y0167501D01*
X0258027Y0167003D01*
X0258678Y0166733D01*
X0259383Y0166733D01*
X0260034Y0167003D01*
X0260533Y0167501D01*
X0260802Y0168152D01*
X0260802Y0168857D01*
X0260533Y0169508D01*
X0260034Y0170007D01*
X0259383Y0170276D01*
D02*
G37*
G36*
X0230385Y0156417D02*
X0229680Y0156417D01*
X0229029Y0156148D01*
X0228531Y0155649D01*
X0228261Y0154998D01*
X0228261Y0154293D01*
X0228531Y0153642D01*
X0229029Y0153144D01*
X0229680Y0152874D01*
X0230385Y0152874D01*
X0231036Y0153144D01*
X0231535Y0153642D01*
X0231804Y0154293D01*
X0231804Y0154998D01*
X0231535Y0155649D01*
X0231036Y0156148D01*
X0230385Y0156417D01*
D02*
G37*
G36*
X0274132Y0170984D02*
X0273427Y0170984D01*
X0272776Y0170714D01*
X0272277Y0170216D01*
X0272008Y0169565D01*
X0272008Y0168860D01*
X0272277Y0168209D01*
X0272776Y0167711D01*
X0273427Y0167441D01*
X0274132Y0167441D01*
X0274783Y0167711D01*
X0275281Y0168209D01*
X0275551Y0168860D01*
X0275551Y0169565D01*
X0275281Y0170216D01*
X0274783Y0170714D01*
X0274132Y0170984D01*
D02*
G37*
G36*
X0198935Y0123150D02*
X0198230Y0123150D01*
X0197579Y0122880D01*
X0197081Y0122382D01*
X0196811Y0121730D01*
X0196811Y0121026D01*
X0197081Y0120374D01*
X0197579Y0119876D01*
X0198230Y0119606D01*
X0198935Y0119606D01*
X0199586Y0119876D01*
X0200084Y0120374D01*
X0200354Y0121026D01*
X0200354Y0121730D01*
X0200084Y0122382D01*
X0199586Y0122880D01*
X0198935Y0123150D01*
D02*
G37*
%LPD*%
D40*
X0249665Y0230138D02*
X0260173Y0230138D01*
X0242449Y0221881D02*
X0243660Y0223091D01*
X0232025Y0221870D02*
X0241397Y0221870D01*
X0241408Y0221881D01*
X0243660Y0224133D02*
X0249665Y0230138D01*
X0241408Y0221881D02*
X0242449Y0221881D01*
X0243660Y0223091D02*
X0243660Y0224133D01*
X0262189Y0136634D02*
X0304980Y0136634D01*
X0308031Y0139685D01*
X0258486Y0142146D02*
X0262128Y0138504D01*
X0286206Y0138504D01*
X0287387Y0139685D02*
X0288346Y0139685D01*
X0286206Y0138504D02*
X0287387Y0139685D01*
X0257313Y0134272D02*
X0260069Y0131516D01*
X0261658Y0135354D02*
X0290140Y0135354D01*
X0260069Y0131516D02*
X0291730Y0131516D01*
X0261128Y0134075D02*
X0290670Y0134075D01*
X0257246Y0136148D02*
X0260599Y0132795D01*
X0291200Y0132795D01*
X0256896Y0138307D02*
X0261128Y0134075D01*
X0257426Y0139587D02*
X0261658Y0135354D01*
X0257956Y0140866D02*
X0262189Y0136634D01*
X0256457Y0132205D02*
X0258425Y0130236D01*
X0292260Y0130236D01*
X0245686Y0133326D02*
X0250056Y0128957D01*
X0292790Y0128957D01*
X0244407Y0132796D02*
X0249526Y0127677D01*
X0293320Y0127677D01*
X0238832Y0138307D02*
X0256896Y0138307D01*
X0249719Y0136148D02*
X0257246Y0136148D01*
X0239498Y0145394D02*
X0241211Y0145394D01*
X0239362Y0139587D02*
X0257426Y0139587D01*
X0218686Y0132205D02*
X0223909Y0137428D01*
X0202913Y0132205D02*
X0210695Y0139987D01*
X0221040Y0139987D02*
X0222319Y0141266D01*
X0210695Y0139987D02*
X0221040Y0139987D01*
X0250821Y0134272D02*
X0257313Y0134272D01*
X0226947Y0141266D02*
X0228227Y0142546D01*
X0222319Y0141266D02*
X0226947Y0141266D01*
X0228227Y0142546D02*
X0236650Y0142546D01*
X0239892Y0140866D02*
X0257956Y0140866D01*
X0236650Y0142546D02*
X0239498Y0145394D01*
X0244459Y0142146D02*
X0258486Y0142146D01*
X0241211Y0145394D02*
X0244459Y0142146D01*
X0230347Y0137428D02*
X0236187Y0137428D01*
X0229067Y0136148D02*
X0230347Y0137428D01*
X0228537Y0137428D02*
X0229816Y0138707D01*
X0227477Y0139987D02*
X0228756Y0141266D01*
X0229287Y0139987D02*
X0238962Y0139987D01*
X0228756Y0141266D02*
X0239492Y0141266D01*
X0235657Y0136148D02*
X0236057Y0135748D01*
X0239492Y0141266D02*
X0239892Y0140866D01*
X0230876Y0136148D02*
X0235657Y0136148D01*
X0236057Y0135748D02*
X0241898Y0135748D01*
X0236587Y0137028D02*
X0242428Y0137028D01*
X0236187Y0137428D02*
X0236587Y0137028D01*
X0228007Y0138707D02*
X0229287Y0139987D01*
X0229111Y0134382D02*
X0230876Y0136148D01*
X0238962Y0139987D02*
X0239362Y0139587D01*
X0238432Y0138707D02*
X0238832Y0138307D01*
X0229816Y0138707D02*
X0238432Y0138707D01*
X0245686Y0133326D02*
X0245686Y0133769D01*
X0242428Y0137028D02*
X0245686Y0133769D01*
X0347363Y0139724D02*
X0347401Y0139685D01*
X0349345Y0157486D02*
X0354488Y0152344D01*
X0333537Y0157486D02*
X0349345Y0157486D01*
X0315132Y0156207D02*
X0348815Y0156207D01*
X0296726Y0154927D02*
X0348285Y0154927D01*
X0241565Y0134272D02*
X0243127Y0132709D01*
X0340262Y0134469D02*
X0343215Y0131516D01*
X0335332Y0135748D02*
X0340792Y0135748D01*
X0336392Y0133189D02*
X0339732Y0133189D01*
X0351929Y0148778D02*
X0354291Y0146416D01*
X0329071Y0127677D02*
X0335862Y0134469D01*
X0243127Y0132266D02*
X0248995Y0126398D01*
X0345518Y0145883D02*
X0350453Y0140949D01*
X0330131Y0125118D02*
X0336922Y0131909D01*
X0339202Y0131909D01*
X0292260Y0130236D02*
X0292260Y0130236D01*
X0291730Y0131516D02*
X0291730Y0131516D01*
X0342382Y0139587D02*
X0345335Y0136634D01*
X0218661Y0132205D02*
X0218686Y0132205D01*
X0358130Y0135241D02*
X0358130Y0148006D01*
X0355767Y0150368D02*
X0358130Y0148006D01*
X0237559Y0132205D02*
X0244645Y0125118D01*
X0351929Y0148778D02*
X0351929Y0151284D01*
X0244407Y0132796D02*
X0244407Y0133239D01*
X0354488Y0149838D02*
X0354488Y0152344D01*
X0327716Y0163307D02*
X0333537Y0157486D01*
X0221569Y0138707D02*
X0222849Y0139987D01*
X0291730Y0131516D02*
X0327481Y0131516D01*
X0342912Y0140866D02*
X0344055Y0139724D01*
X0349725Y0134075D02*
X0353011Y0137361D01*
X0329601Y0126398D02*
X0336392Y0133189D01*
X0293320Y0127677D02*
X0293320Y0127677D01*
X0223909Y0137428D02*
X0228537Y0137428D01*
X0292260Y0130236D02*
X0328011Y0130236D01*
X0334802Y0137028D01*
X0216181Y0137428D02*
X0222099Y0137428D01*
X0250630Y0134081D02*
X0250821Y0134272D01*
X0313644Y0145883D02*
X0345518Y0145883D01*
X0222849Y0139987D02*
X0227477Y0139987D01*
X0345335Y0136634D02*
X0348665Y0136634D01*
X0327481Y0131516D02*
X0334272Y0138307D01*
X0241898Y0135748D02*
X0244407Y0133239D01*
X0231923Y0134272D02*
X0241565Y0134272D01*
X0354488Y0149838D02*
X0356850Y0147476D01*
X0223379Y0138707D02*
X0228007Y0138707D01*
X0291200Y0132795D02*
X0291200Y0132795D01*
X0343745Y0132795D02*
X0350255Y0132795D01*
X0227465Y0134081D02*
X0227767Y0134382D01*
X0292790Y0128957D02*
X0292790Y0128957D01*
X0344275Y0134075D02*
X0349725Y0134075D01*
X0333212Y0140866D02*
X0342912Y0140866D01*
X0333742Y0139587D02*
X0342382Y0139587D01*
X0355767Y0150368D02*
X0355767Y0154941D01*
X0334802Y0137028D02*
X0341322Y0137028D01*
X0348285Y0154927D02*
X0351929Y0151284D01*
X0348815Y0156207D02*
X0353208Y0151813D01*
X0344805Y0135354D02*
X0349195Y0135354D01*
X0334272Y0138307D02*
X0341852Y0138307D01*
X0227767Y0134382D02*
X0229111Y0134382D01*
X0339732Y0133189D02*
X0342685Y0130236D01*
X0339202Y0131909D02*
X0342155Y0128957D01*
X0288346Y0163307D02*
X0296726Y0154927D01*
X0356850Y0135771D02*
X0356850Y0147476D01*
X0353208Y0149308D02*
X0353208Y0151813D01*
X0231733Y0134081D02*
X0231923Y0134272D01*
X0351315Y0130236D02*
X0356850Y0135771D01*
X0342155Y0128957D02*
X0351845Y0128957D01*
X0358130Y0135241D01*
X0225754Y0136148D02*
X0229067Y0136148D01*
X0350785Y0131516D02*
X0355571Y0136301D01*
X0308031Y0151496D02*
X0313644Y0145883D01*
X0343215Y0131516D02*
X0350785Y0131516D01*
X0341322Y0137028D02*
X0344275Y0134075D01*
X0342685Y0130236D02*
X0351315Y0130236D01*
X0248995Y0126398D02*
X0329601Y0126398D01*
X0351732Y0137891D02*
X0351732Y0141479D01*
X0347401Y0163307D02*
X0355767Y0154941D01*
X0244645Y0125118D02*
X0330131Y0125118D01*
X0348665Y0136634D02*
X0350453Y0138421D01*
X0340792Y0135748D02*
X0343745Y0132795D01*
X0350453Y0138421D02*
X0350453Y0140949D01*
X0308031Y0163307D02*
X0315132Y0156207D01*
X0350255Y0132795D02*
X0354291Y0136831D01*
X0349195Y0135354D02*
X0351732Y0137891D01*
X0353011Y0137361D02*
X0353011Y0145886D01*
X0347401Y0151496D02*
X0353011Y0145886D01*
X0221811Y0132205D02*
X0225754Y0136148D01*
X0326951Y0132795D02*
X0333742Y0139587D01*
X0341715Y0151496D02*
X0351732Y0141479D01*
X0353208Y0149308D02*
X0355571Y0146946D01*
X0243127Y0132266D02*
X0243127Y0132709D01*
X0335862Y0134469D02*
X0340262Y0134469D01*
X0247753Y0134182D02*
X0249719Y0136148D01*
X0341852Y0138307D02*
X0344805Y0135354D01*
X0290670Y0134075D02*
X0290670Y0134075D01*
X0344055Y0139724D02*
X0347363Y0139724D01*
X0222099Y0137428D02*
X0223379Y0138707D01*
X0355571Y0136301D02*
X0355571Y0146946D01*
X0290140Y0135354D02*
X0290140Y0135354D01*
X0354291Y0136831D02*
X0354291Y0146416D01*
X0293320Y0127677D02*
X0329071Y0127677D01*
X0292790Y0128957D02*
X0328541Y0128957D01*
X0323386Y0135354D02*
X0327716Y0139685D01*
X0290140Y0135354D02*
X0323386Y0135354D01*
X0328541Y0128957D02*
X0335332Y0135748D01*
X0272064Y0158383D02*
X0272064Y0161956D01*
X0273317Y0163209D02*
X0276634Y0163209D01*
X0272064Y0161956D02*
X0273317Y0163209D01*
X0267677Y0156220D02*
X0267677Y0163099D01*
X0268791Y0164213D01*
X0268791Y0172491D01*
X0268766Y0172517D02*
X0268791Y0172491D01*
X0268766Y0172517D02*
X0268766Y0173439D01*
X0268464Y0173740D02*
X0268766Y0173439D01*
X0213194Y0138707D02*
X0221569Y0138707D01*
X0290670Y0134075D02*
X0326421Y0134075D01*
X0327716Y0151496D02*
X0341715Y0151496D01*
X0291200Y0132795D02*
X0326951Y0132795D01*
X0268533Y0154154D02*
X0270236Y0155857D01*
X0258228Y0157795D02*
X0261870Y0154154D01*
X0276634Y0163209D02*
X0288346Y0151496D01*
X0261870Y0154154D02*
X0268533Y0154154D01*
X0270236Y0156555D02*
X0272064Y0158383D01*
X0270236Y0155857D02*
X0270236Y0156555D01*
X0212835Y0134081D02*
X0216181Y0137428D01*
X0208568Y0134081D02*
X0213194Y0138707D01*
X0326421Y0134075D02*
X0333212Y0140866D01*
X0244408Y0262676D02*
X0254656Y0262676D01*
X0242086Y0260354D02*
X0244408Y0262676D01*
X0254656Y0262676D02*
X0256370Y0264390D01*
X0326929Y0268819D02*
X0330866Y0272756D01*
X0321023Y0268819D02*
X0326929Y0268819D01*
X0254360Y0266358D02*
X0327618Y0266358D01*
X0256370Y0264390D02*
X0328799Y0264390D01*
X0256900Y0263110D02*
X0330669Y0263110D01*
X0254144Y0260354D02*
X0256900Y0263110D01*
X0327618Y0266358D02*
X0334015Y0272756D01*
X0248651Y0272067D02*
X0254360Y0266358D01*
X0328799Y0264390D02*
X0337165Y0272756D01*
X0330669Y0263110D02*
X0340315Y0272756D01*
X0306525Y0235846D02*
X0306569Y0235803D01*
X0311687Y0235803D01*
X0304769Y0235803D02*
X0304813Y0235846D01*
X0292879Y0235803D02*
X0304769Y0235803D01*
X0304813Y0235846D02*
X0306525Y0235846D01*
X0239634Y0269303D02*
X0243417Y0269303D01*
X0237559Y0271378D02*
X0239634Y0269303D01*
X0243417Y0269303D02*
X0246181Y0272067D01*
X0314330Y0189654D02*
X0314330Y0189685D01*
X0313082Y0188405D02*
X0314330Y0189654D01*
X0298530Y0188405D02*
X0313082Y0188405D01*
X0295236Y0187126D02*
X0359015Y0187126D01*
X0258357Y0197165D02*
X0261078Y0194444D01*
X0233538Y0197165D02*
X0258357Y0197165D01*
X0291212Y0195724D02*
X0298530Y0188405D01*
X0278171Y0195724D02*
X0291212Y0195724D01*
X0276892Y0194444D02*
X0278171Y0195724D01*
X0261078Y0194444D02*
X0276892Y0194444D01*
X0293104Y0184764D02*
X0357964Y0184764D01*
X0313573Y0207598D02*
X0324498Y0196673D01*
X0307878Y0203281D02*
X0310915Y0206319D01*
X0259312Y0212028D02*
X0344360Y0212028D01*
X0269938Y0218917D02*
X0347864Y0218917D01*
X0310915Y0206319D02*
X0313043Y0206319D01*
X0323968Y0195394D01*
X0347864Y0218917D02*
X0349902Y0220956D01*
X0310385Y0207598D02*
X0313573Y0207598D01*
X0309589Y0209588D02*
X0344843Y0209588D01*
X0352618Y0217363D01*
X0324498Y0196673D02*
X0335547Y0196673D01*
X0301814Y0201813D02*
X0309589Y0209588D01*
X0304510Y0201723D02*
X0310385Y0207598D01*
X0268855Y0220000D02*
X0269938Y0218917D01*
X0323968Y0195394D02*
X0336077Y0195394D01*
X0349902Y0220956D02*
X0349902Y0240516D01*
X0352618Y0217363D02*
X0352618Y0255925D01*
X0335547Y0196673D02*
X0355177Y0216303D01*
X0336077Y0195394D02*
X0356456Y0215773D01*
X0271614Y0190728D02*
X0274508Y0190728D01*
X0279794Y0185442D01*
X0292426Y0185442D01*
X0293104Y0184764D01*
X0228435Y0195689D02*
X0232062Y0195689D01*
X0227224Y0196900D02*
X0227224Y0199889D01*
X0227224Y0196900D02*
X0228435Y0195689D01*
X0205964Y0215965D02*
X0211148Y0215965D01*
X0227224Y0199889D01*
X0202126Y0212126D02*
X0205964Y0215965D01*
X0232062Y0195689D02*
X0233538Y0197165D01*
X0277218Y0180132D02*
X0277519Y0180433D01*
X0275217Y0180132D02*
X0277218Y0180132D01*
X0272172Y0177087D02*
X0275217Y0180132D01*
X0263090Y0177087D02*
X0272172Y0177087D01*
X0358948Y0183779D02*
X0359212Y0183779D01*
X0357964Y0184764D02*
X0358948Y0183779D01*
X0236112Y0171083D02*
X0242312Y0171083D01*
X0233851Y0168821D02*
X0236112Y0171083D01*
X0247529Y0176299D02*
X0262303Y0176299D01*
X0263090Y0177087D01*
X0242312Y0171083D02*
X0247529Y0176299D01*
X0233851Y0159141D02*
X0233851Y0168821D01*
X0237916Y0168555D02*
X0241594Y0168555D01*
X0235917Y0166557D02*
X0237916Y0168555D01*
X0241594Y0168555D02*
X0248059Y0175020D01*
X0249854Y0224626D02*
X0259234Y0224626D01*
X0250384Y0223346D02*
X0258228Y0223346D01*
X0259493Y0222082D01*
X0242079Y0215042D02*
X0250384Y0223346D01*
X0241549Y0216321D02*
X0249854Y0224626D01*
X0259234Y0224626D02*
X0260498Y0223361D01*
X0249422Y0226004D02*
X0259665Y0226004D01*
X0241019Y0217601D02*
X0249422Y0226004D01*
X0259493Y0222082D02*
X0274847Y0222082D01*
X0259665Y0226004D02*
X0260285Y0225384D01*
X0260173Y0230138D02*
X0262048Y0228263D01*
X0262558Y0232008D02*
X0276347Y0232008D01*
X0241594Y0232008D02*
X0247391Y0232008D01*
X0248080Y0232697D02*
X0261869Y0232697D01*
X0241593Y0223948D02*
X0249063Y0231417D01*
X0247391Y0232008D02*
X0248080Y0232697D01*
X0261869Y0232697D02*
X0262558Y0232008D01*
X0262048Y0228263D02*
X0271968Y0228263D01*
X0249063Y0231417D02*
X0261339Y0231417D01*
X0262426Y0230330D01*
X0276215Y0230330D01*
X0278799Y0227746D01*
X0276347Y0232008D02*
X0282834Y0225520D01*
X0205078Y0250512D02*
X0230669Y0250512D01*
X0263620Y0175807D02*
X0274862Y0175807D01*
X0262833Y0175020D02*
X0263620Y0175807D01*
X0248059Y0175020D02*
X0262833Y0175020D01*
X0353897Y0216833D02*
X0353897Y0254055D01*
X0359212Y0259370D01*
X0355177Y0216303D02*
X0355177Y0252185D01*
X0359212Y0256220D01*
X0356456Y0250315D02*
X0359212Y0253071D01*
X0356456Y0215773D02*
X0356456Y0250315D01*
X0272556Y0233840D02*
X0290916Y0233840D01*
X0292879Y0235803D01*
X0311687Y0235803D02*
X0314202Y0233287D01*
X0270558Y0235838D02*
X0272556Y0233840D01*
X0246181Y0272067D02*
X0248651Y0272067D01*
X0246811Y0260354D02*
X0254144Y0260354D01*
X0282834Y0222953D02*
X0282834Y0225520D01*
X0277421Y0224232D02*
X0278799Y0225610D01*
X0278799Y0227746D01*
X0277421Y0222097D02*
X0277421Y0224232D01*
X0278632Y0220886D02*
X0284901Y0220886D01*
X0285000Y0220984D01*
X0259212Y0220000D02*
X0268855Y0220000D01*
X0277421Y0222097D02*
X0278632Y0220886D01*
X0335805Y0198740D02*
X0353897Y0216833D01*
X0304291Y0193031D02*
X0304360Y0193031D01*
X0304510Y0201586D02*
X0304510Y0201723D01*
X0304360Y0193031D02*
X0307878Y0196549D01*
X0307878Y0203281D01*
X0325354Y0198740D02*
X0335805Y0198740D01*
X0301814Y0198363D02*
X0304291Y0195886D01*
X0301814Y0198363D02*
X0301814Y0201813D01*
X0352618Y0255925D02*
X0359212Y0262520D01*
X0295039Y0187323D02*
X0295236Y0187126D01*
X0359015Y0187126D02*
X0359212Y0186929D01*
X0346993Y0243425D02*
X0349902Y0240516D01*
X0270558Y0235838D02*
X0270558Y0235890D01*
X0314202Y0233287D02*
X0335098Y0233287D01*
X0347205Y0221181D01*
X0344360Y0212028D02*
X0347049Y0214717D01*
X0251142Y0212520D02*
X0258820Y0212520D01*
X0259312Y0212028D01*
X0224718Y0250512D02*
X0224718Y0261917D01*
X0224718Y0250512D02*
X0224718Y0250512D01*
X0230669Y0250512D02*
X0236575Y0244606D01*
X0224718Y0261917D02*
X0226385Y0263584D01*
X0226385Y0267555D01*
X0226278Y0267661D02*
X0226385Y0267555D01*
X0226665Y0216321D02*
X0241549Y0216321D01*
X0225029Y0214685D02*
X0226665Y0216321D01*
X0228466Y0215042D02*
X0242079Y0215042D01*
X0225157Y0211732D02*
X0228466Y0215042D01*
X0223603Y0230292D02*
X0232025Y0221870D01*
X0224960Y0214685D02*
X0225029Y0214685D01*
X0224960Y0217601D02*
X0241019Y0217601D01*
X0226278Y0267661D02*
X0226278Y0271371D01*
X0224960Y0272688D02*
X0224960Y0272756D01*
X0224960Y0272688D02*
X0226278Y0271371D01*
X0237165Y0260354D02*
X0248582Y0248937D01*
X0280866Y0248937D01*
X0274862Y0175807D02*
X0276535Y0177480D01*
X0258228Y0185847D02*
X0260393Y0183681D01*
X0225159Y0183976D02*
X0227029Y0185847D01*
X0258228Y0185847D01*
X0235917Y0166453D02*
X0235917Y0166557D01*
X0206456Y0183976D02*
X0225159Y0183976D01*
X0233851Y0159141D02*
X0236771Y0156220D01*
X0280866Y0248937D02*
X0335320Y0248937D01*
X0336423Y0250040D01*
X0336849Y0250040D01*
X0260498Y0223361D02*
X0273204Y0223361D01*
X0260285Y0225384D02*
X0272259Y0225384D01*
X0272303Y0225428D01*
X0273204Y0223361D02*
X0276732Y0226890D01*
D44*
X0237444Y0145984D02*
X0238724Y0147264D01*
X0237300Y0145984D02*
X0237444Y0145984D01*
X0245192Y0144057D02*
X0249747Y0144057D01*
X0238724Y0147264D02*
X0241985Y0147264D01*
X0245192Y0144057D01*
X0231531Y0144416D02*
X0231956Y0144840D01*
X0235732Y0144416D02*
X0237300Y0145984D01*
X0224485Y0144057D02*
X0227093Y0144057D01*
X0227452Y0144416D01*
X0222557Y0145984D02*
X0224485Y0144057D01*
X0232593Y0144416D02*
X0235732Y0144416D01*
X0227452Y0144416D02*
X0231531Y0144416D01*
X0232169Y0144840D02*
X0232593Y0144416D01*
X0231956Y0144840D02*
X0232169Y0144840D01*
X0304775Y0260158D02*
X0304882Y0260158D01*
X0304480Y0260453D02*
X0304775Y0260158D01*
X0257272Y0260453D02*
X0304480Y0260453D01*
X0256944Y0260125D02*
X0257272Y0260453D01*
X0256837Y0260125D02*
X0256944Y0260125D01*
X0232261Y0203366D02*
X0232556Y0203071D01*
X0226391Y0203366D02*
X0232261Y0203366D01*
X0232556Y0203071D02*
X0251338Y0203071D01*
X0205078Y0224679D02*
X0226391Y0203366D01*
X0199058Y0214176D02*
X0202618Y0217736D01*
X0199058Y0209877D02*
X0201238Y0207697D01*
X0199058Y0209877D02*
X0199058Y0214176D01*
X0202618Y0217736D02*
X0202618Y0234290D01*
X0210490Y0207697D02*
X0214134Y0204053D01*
X0201238Y0207697D02*
X0210490Y0207697D01*
X0214134Y0204053D02*
X0216768Y0201419D01*
X0215118Y0196772D02*
X0216768Y0198422D01*
X0216768Y0201419D01*
X0208819Y0196772D02*
X0215118Y0196772D01*
X0202618Y0190571D02*
X0208819Y0196772D01*
X0202618Y0176759D02*
X0202618Y0190571D01*
X0205078Y0224679D02*
X0205078Y0235309D01*
X0202421Y0237966D02*
X0202421Y0251613D01*
X0202421Y0237966D02*
X0205078Y0235309D01*
X0202421Y0251613D02*
X0209974Y0259165D01*
X0199960Y0236947D02*
X0202618Y0234290D01*
X0200468Y0174609D02*
X0202618Y0176759D01*
X0209974Y0259165D02*
X0218781Y0259165D01*
X0209472Y0262144D02*
X0217461Y0262144D01*
X0221811Y0266494D02*
X0221811Y0272649D01*
X0217461Y0262144D02*
X0221811Y0266494D01*
X0199960Y0252632D02*
X0209472Y0262144D01*
X0199960Y0236947D02*
X0199960Y0252632D01*
X0217451Y0143917D02*
X0219517Y0145984D01*
X0214411Y0143917D02*
X0217451Y0143917D01*
X0219517Y0145984D02*
X0222557Y0145984D01*
X0200468Y0166952D02*
X0200468Y0174609D01*
X0200468Y0166952D02*
X0208228Y0159191D01*
X0208228Y0144213D02*
X0208228Y0159191D01*
X0218781Y0259165D02*
X0224318Y0264702D01*
X0212411Y0144213D02*
X0212487Y0144137D01*
X0214191Y0144137D01*
X0214411Y0143917D01*
X0195039Y0131024D02*
X0208228Y0144213D01*
X0212411Y0144213D01*
X0249747Y0144057D02*
X0249903Y0144213D01*
X0250010Y0144213D01*
D22*
X0194252Y0143622D02*
D03*
D18*
X0194252Y0120591D02*
D03*
D21*
X0194252Y0170000D02*
D03*
D29*
X0360000Y0120000D02*
D03*
D20*
X0194252Y0217441D02*
D03*
D19*
X0194252Y0249724D02*
D03*
D24*
X0206850Y0273543D02*
D03*
D25*
X0240315Y0273543D02*
D03*
D26*
X0279094Y0273543D02*
D03*
D28*
X0360000Y0142244D02*
D03*
D27*
X0360000Y0267638D02*
D03*
D23*
X0201338Y0116457D02*
D03*
D69*
X0303307Y0121969D02*
X0329719Y0121969D01*
X0337442Y0129692D01*
X0255739Y0118945D02*
X0259451Y0122657D01*
X0263329Y0122119D02*
X0264180Y0122119D01*
X0264330Y0121969D02*
X0303307Y0121969D01*
X0264180Y0122119D02*
X0264330Y0121969D01*
X0259451Y0122657D02*
X0262791Y0122657D01*
X0263329Y0122119D01*
X0337442Y0129692D02*
X0338195Y0129692D01*
X0338346Y0129843D01*
X0345827Y0127283D02*
X0347204Y0125906D01*
X0338806Y0129939D02*
X0341462Y0127283D01*
X0345827Y0127283D01*
X0347204Y0125906D02*
X0353208Y0125906D01*
X0359212Y0125906D01*
X0271909Y0153823D02*
X0271909Y0154020D01*
X0271909Y0155862D01*
X0274173Y0158126D01*
X0274173Y0161142D01*
X0328307Y0257402D02*
X0330669Y0259764D01*
X0291315Y0257402D02*
X0303701Y0257402D01*
X0328307Y0257402D01*
X0290708Y0257795D02*
X0290921Y0257795D01*
X0291315Y0257402D01*
X0277478Y0197397D02*
X0291905Y0197397D01*
X0276198Y0196118D02*
X0277478Y0197397D01*
X0261771Y0196118D02*
X0276198Y0196118D01*
X0298731Y0190571D02*
X0308720Y0190571D01*
X0291905Y0197397D02*
X0298731Y0190571D01*
X0252357Y0205531D02*
X0261771Y0196118D01*
X0271614Y0179252D02*
X0275256Y0182894D01*
X0278539Y0182894D01*
X0279980Y0181452D01*
X0279980Y0180138D02*
X0279980Y0181452D01*
X0279980Y0180138D02*
X0286771Y0173347D01*
X0236019Y0208287D02*
X0238879Y0205427D01*
X0245566Y0205427D01*
X0213937Y0227464D02*
X0213937Y0227677D01*
X0212264Y0221145D02*
X0225122Y0208287D01*
X0212264Y0225792D02*
X0213937Y0227464D01*
X0225122Y0208287D02*
X0236019Y0208287D01*
X0212264Y0221145D02*
X0212264Y0225792D01*
X0245671Y0205531D02*
X0252357Y0205531D01*
X0245566Y0205427D02*
X0245671Y0205531D01*
X0262102Y0144213D02*
X0271909Y0154020D01*
X0267677Y0179252D02*
X0271614Y0179252D01*
X0262889Y0179252D02*
X0267677Y0179252D01*
X0208282Y0118945D02*
X0208495Y0118945D01*
X0207523Y0119705D02*
X0208282Y0118945D01*
X0204743Y0119705D02*
X0207523Y0119705D01*
X0203984Y0118945D02*
X0204743Y0119705D01*
X0203771Y0118945D02*
X0203984Y0118945D01*
X0213007Y0118945D02*
X0213220Y0118945D01*
X0212247Y0119705D02*
X0213007Y0118945D01*
X0209468Y0119705D02*
X0212247Y0119705D01*
X0208708Y0118945D02*
X0209468Y0119705D01*
X0208495Y0118945D02*
X0208708Y0118945D01*
X0217731Y0118945D02*
X0217944Y0118945D01*
X0216972Y0119705D02*
X0217731Y0118945D01*
X0214192Y0119705D02*
X0216972Y0119705D01*
X0213433Y0118945D02*
X0214192Y0119705D01*
X0213220Y0118945D02*
X0213433Y0118945D01*
X0222455Y0118945D02*
X0222669Y0118945D01*
X0221696Y0119705D02*
X0222455Y0118945D01*
X0218916Y0119705D02*
X0221696Y0119705D01*
X0218157Y0118945D02*
X0218916Y0119705D01*
X0217944Y0118945D02*
X0218157Y0118945D01*
X0227180Y0118945D02*
X0227393Y0118945D01*
X0226421Y0119705D02*
X0227180Y0118945D01*
X0223641Y0119705D02*
X0226421Y0119705D01*
X0222882Y0118945D02*
X0223641Y0119705D01*
X0222669Y0118945D02*
X0222882Y0118945D01*
X0231904Y0118945D02*
X0232117Y0118945D01*
X0231145Y0119705D02*
X0231904Y0118945D01*
X0228365Y0119705D02*
X0231145Y0119705D01*
X0227606Y0118945D02*
X0228365Y0119705D01*
X0227393Y0118945D02*
X0227606Y0118945D01*
X0236629Y0118945D02*
X0236842Y0118945D01*
X0235869Y0119705D02*
X0236629Y0118945D01*
X0233090Y0119705D02*
X0235869Y0119705D01*
X0232330Y0118945D02*
X0233090Y0119705D01*
X0232117Y0118945D02*
X0232330Y0118945D01*
X0241353Y0118945D02*
X0241566Y0118945D01*
X0240594Y0119705D02*
X0241353Y0118945D01*
X0237814Y0119705D02*
X0240594Y0119705D01*
X0237055Y0118945D02*
X0237814Y0119705D01*
X0236842Y0118945D02*
X0237055Y0118945D01*
X0246077Y0118945D02*
X0246291Y0118945D01*
X0245318Y0119705D02*
X0246077Y0118945D01*
X0242538Y0119705D02*
X0245318Y0119705D01*
X0241779Y0118945D02*
X0242538Y0119705D01*
X0241566Y0118945D02*
X0241779Y0118945D01*
X0250802Y0118945D02*
X0251015Y0118945D01*
X0250043Y0119705D02*
X0250802Y0118945D01*
X0247263Y0119705D02*
X0250043Y0119705D01*
X0246504Y0118945D02*
X0247263Y0119705D01*
X0246291Y0118945D02*
X0246504Y0118945D01*
X0255526Y0118945D02*
X0255739Y0118945D01*
X0254767Y0119705D02*
X0255526Y0118945D01*
X0251987Y0119705D02*
X0254767Y0119705D01*
X0251228Y0118945D02*
X0251987Y0119705D01*
X0251015Y0118945D02*
X0251228Y0118945D01*
X0251758Y0183779D02*
X0257565Y0177973D01*
X0261609Y0177973D02*
X0262889Y0179252D01*
X0257565Y0177973D02*
X0261609Y0177973D01*
X0221630Y0145984D02*
X0221630Y0157779D01*
X0286771Y0173347D02*
X0289527Y0176102D01*
X0299960Y0176102D02*
X0303897Y0180039D01*
X0289527Y0176102D02*
X0299960Y0176102D01*
X0247616Y0257402D02*
X0290102Y0257402D01*
X0290495Y0257795D01*
X0335590Y0237913D02*
X0346811Y0237913D01*
X0308720Y0190571D02*
X0311771Y0193622D01*
X0311771Y0204252D01*
X0244449Y0183779D02*
X0251758Y0183779D01*
X0250010Y0144213D02*
X0262102Y0144213D01*
X0246220Y0155370D02*
X0246220Y0161142D01*
X0246220Y0155370D02*
X0250010Y0151580D01*
X0250010Y0144213D02*
X0250010Y0151580D01*
X0218267Y0161142D02*
X0221630Y0157779D01*
D71*
X0205472Y0241654D02*
X0259658Y0241654D01*
X0261528Y0239784D01*
X0269882Y0239784D02*
X0271752Y0241654D01*
X0336771Y0241654D02*
X0350551Y0255433D01*
X0261528Y0239784D02*
X0269882Y0239784D01*
X0271752Y0241654D02*
X0336771Y0241654D01*
X0348287Y0257697D02*
X0348287Y0267551D01*
X0348287Y0257697D02*
X0350551Y0255433D01*
X0349763Y0269027D02*
X0349763Y0272756D01*
X0348287Y0267551D02*
X0349763Y0269027D01*
D72*
X0327716Y0151496D02*
D03*
X0347401Y0151496D02*
D03*
X0288346Y0139685D02*
D03*
X0308031Y0151496D02*
D03*
X0288346Y0151496D02*
D03*
X0347401Y0163307D02*
D03*
X0327716Y0163307D02*
D03*
X0308031Y0163307D02*
D03*
X0288346Y0163307D02*
D03*
X0308031Y0139685D02*
D03*
X0347401Y0139685D02*
D03*
X0327716Y0139685D02*
D03*
D10*
X0340315Y0272756D02*
D03*
X0337165Y0272756D02*
D03*
X0349763Y0272756D02*
D03*
X0330866Y0272756D02*
D03*
X0359212Y0183779D02*
D03*
X0359212Y0253071D02*
D03*
X0359212Y0256220D02*
D03*
X0359212Y0259370D02*
D03*
X0359212Y0262520D02*
D03*
X0359212Y0186929D02*
D03*
X0334015Y0272756D02*
D03*
X0359212Y0125906D02*
D03*
X0195039Y0131024D02*
D03*
X0221811Y0272756D02*
D03*
X0224960Y0272756D02*
D03*
X0250945Y0236732D02*
D03*
X0353307Y0172756D02*
D03*
X0353307Y0163307D02*
D03*
X0350944Y0182205D02*
D03*
X0348582Y0168031D02*
D03*
X0348582Y0120787D02*
D03*
X0345039Y0227086D02*
D03*
X0346220Y0177480D02*
D03*
X0343858Y0196378D02*
D03*
X0342677Y0165669D02*
D03*
X0340314Y0241260D02*
D03*
X0341495Y0182205D02*
D03*
X0341495Y0172756D02*
D03*
X0339133Y0234173D02*
D03*
X0337952Y0222362D02*
D03*
X0339133Y0191653D02*
D03*
X0337952Y0160945D02*
D03*
X0339133Y0149134D02*
D03*
X0335590Y0264882D02*
D03*
X0336771Y0177480D02*
D03*
X0336771Y0168031D02*
D03*
X0334409Y0257795D02*
D03*
X0334409Y0201102D02*
D03*
X0332047Y0224724D02*
D03*
X0332047Y0191653D02*
D03*
X0332047Y0182205D02*
D03*
X0332047Y0172756D02*
D03*
X0332047Y0163307D02*
D03*
X0332047Y0149134D02*
D03*
X0327322Y0229449D02*
D03*
X0327322Y0201102D02*
D03*
X0327322Y0177480D02*
D03*
X0327322Y0168031D02*
D03*
X0327322Y0158583D02*
D03*
X0324960Y0191653D02*
D03*
X0322598Y0238897D02*
D03*
X0321417Y0203464D02*
D03*
X0322598Y0172756D02*
D03*
X0322598Y0163307D02*
D03*
X0322598Y0149134D02*
D03*
X0320236Y0182205D02*
D03*
X0320236Y0139685D02*
D03*
X0316692Y0260157D02*
D03*
X0317873Y0191653D02*
D03*
X0317873Y0168031D02*
D03*
X0317873Y0158583D02*
D03*
X0314330Y0245984D02*
D03*
X0315511Y0177480D02*
D03*
X0315511Y0149134D02*
D03*
X0313149Y0253071D02*
D03*
X0313149Y0163307D02*
D03*
X0313149Y0139685D02*
D03*
X0310787Y0182205D02*
D03*
X0310787Y0172756D02*
D03*
X0306063Y0177480D02*
D03*
X0306063Y0168031D02*
D03*
X0306063Y0158583D02*
D03*
X0306063Y0144409D02*
D03*
X0300157Y0165669D02*
D03*
X0301338Y0149134D02*
D03*
X0301338Y0139685D02*
D03*
X0297795Y0269606D02*
D03*
X0298976Y0158583D02*
D03*
X0295433Y0146772D02*
D03*
X0294251Y0238897D02*
D03*
X0294251Y0163307D02*
D03*
X0294251Y0139685D02*
D03*
X0291889Y0153858D02*
D03*
X0289527Y0168031D02*
D03*
X0289527Y0144409D02*
D03*
X0283622Y0170394D02*
D03*
X0284803Y0158583D02*
D03*
X0281259Y0208189D02*
D03*
X0281259Y0151496D02*
D03*
X0282440Y0144409D02*
D03*
X0280078Y0201102D02*
D03*
X0276535Y0236535D02*
D03*
X0277716Y0172756D02*
D03*
X0276535Y0142047D02*
D03*
X0274173Y0198740D02*
D03*
X0275354Y0149134D02*
D03*
X0270629Y0215275D02*
D03*
X0270629Y0144409D02*
D03*
X0265905Y0191653D02*
D03*
X0264724Y0142047D02*
D03*
X0262362Y0269606D02*
D03*
X0263543Y0253071D02*
D03*
X0260000Y0189291D02*
D03*
X0250551Y0179842D02*
D03*
X0249370Y0172756D02*
D03*
X0238740Y0179842D02*
D03*
X0234015Y0260157D02*
D03*
X0234015Y0175118D02*
D03*
X0226929Y0222362D02*
D03*
X0224567Y0189291D02*
D03*
X0221023Y0177480D02*
D03*
X0218661Y0186929D02*
D03*
X0215118Y0175118D02*
D03*
X0211575Y0186929D02*
D03*
X0209212Y0177480D02*
D03*
X0196220Y0179842D02*
D03*
X0197401Y0172756D02*
D03*
X0247753Y0134182D02*
D03*
X0264330Y0121969D02*
D03*
X0303307Y0121969D02*
D03*
X0232062Y0144840D02*
D03*
X0338346Y0129843D02*
D03*
X0321023Y0268819D02*
D03*
X0305669Y0233780D02*
D03*
X0303701Y0257402D02*
D03*
X0314330Y0189685D02*
D03*
X0202126Y0212126D02*
D03*
X0280472Y0268819D02*
D03*
X0285787Y0254646D02*
D03*
X0232834Y0199921D02*
D03*
X0235984Y0195000D02*
D03*
X0247992Y0188504D02*
D03*
X0234212Y0188307D02*
D03*
X0195827Y0137520D02*
D03*
X0195827Y0150315D02*
D03*
X0241102Y0271772D02*
D03*
X0237559Y0271378D02*
D03*
X0251097Y0228071D02*
D03*
X0241496Y0228071D02*
D03*
X0224715Y0234536D02*
D03*
X0214822Y0238523D02*
D03*
X0209015Y0229252D02*
D03*
X0205275Y0211732D02*
D03*
X0207638Y0205039D02*
D03*
X0241895Y0207888D02*
D03*
X0241102Y0212716D02*
D03*
X0201285Y0117293D02*
D03*
X0195630Y0121378D02*
D03*
X0261771Y0120197D02*
D03*
X0332834Y0121181D02*
D03*
X0340905Y0121378D02*
D03*
X0357834Y0120787D02*
D03*
X0358425Y0132399D02*
D03*
X0357834Y0151496D02*
D03*
X0285590Y0271378D02*
D03*
X0275354Y0271575D02*
D03*
X0252716Y0272362D02*
D03*
X0233425Y0271772D02*
D03*
X0210393Y0271575D02*
D03*
X0265708Y0236142D02*
D03*
X0265708Y0242047D02*
D03*
X0251142Y0253858D02*
D03*
X0237264Y0254154D02*
D03*
X0236181Y0238504D02*
D03*
X0203307Y0259961D02*
D03*
X0196417Y0257598D02*
D03*
X0197008Y0243228D02*
D03*
X0205866Y0238701D02*
D03*
X0214725Y0224392D02*
D03*
X0198976Y0189488D02*
D03*
X0208622Y0213898D02*
D03*
X0196023Y0214685D02*
D03*
X0210000Y0193425D02*
D03*
X0205472Y0189488D02*
D03*
X0213149Y0200709D02*
D03*
X0260590Y0180433D02*
D03*
X0202693Y0143327D02*
D03*
X0221457Y0143327D02*
D03*
X0352716Y0201890D02*
D03*
X0352716Y0194410D02*
D03*
X0358228Y0267441D02*
D03*
X0325551Y0221181D02*
D03*
X0301141Y0172756D02*
D03*
X0296220Y0172756D02*
D03*
X0270630Y0245591D02*
D03*
X0256837Y0260125D02*
D03*
X0304882Y0260158D02*
D03*
X0282834Y0222953D02*
D03*
X0285000Y0220984D02*
D03*
X0290708Y0257795D02*
D03*
X0335590Y0237913D02*
D03*
X0346811Y0237913D02*
D03*
X0295039Y0187323D02*
D03*
X0271614Y0190728D02*
D03*
X0270558Y0235890D02*
D03*
X0347049Y0214717D02*
D03*
X0236575Y0244606D02*
D03*
X0225157Y0211732D02*
D03*
X0224960Y0214685D02*
D03*
X0224318Y0264702D02*
D03*
X0247616Y0257402D02*
D03*
X0267677Y0179252D02*
D03*
X0268464Y0173740D02*
D03*
X0311771Y0204252D02*
D03*
X0311771Y0193622D02*
D03*
X0251338Y0203071D02*
D03*
X0205472Y0241654D02*
D03*
X0353208Y0125906D02*
D03*
X0255739Y0118945D02*
D03*
X0251015Y0118945D02*
D03*
X0246291Y0118945D02*
D03*
X0241566Y0118945D02*
D03*
X0236842Y0118945D02*
D03*
X0232117Y0118945D02*
D03*
X0227393Y0118945D02*
D03*
X0222669Y0118945D02*
D03*
X0217944Y0118945D02*
D03*
X0213220Y0118945D02*
D03*
X0208495Y0118945D02*
D03*
X0203771Y0118945D02*
D03*
X0260393Y0183681D02*
D03*
X0206456Y0183976D02*
D03*
X0276535Y0177480D02*
D03*
X0274173Y0161142D02*
D03*
X0250010Y0144213D02*
D03*
X0246220Y0161142D02*
D03*
X0236771Y0156220D02*
D03*
X0212411Y0144213D02*
D03*
X0244449Y0183779D02*
D03*
X0303897Y0180039D02*
D03*
X0286771Y0173347D02*
D03*
X0330669Y0259764D02*
D03*
X0246811Y0260354D02*
D03*
X0237165Y0260354D02*
D03*
X0242086Y0260354D02*
D03*
X0247992Y0246575D02*
D03*
X0280866Y0248937D02*
D03*
X0336849Y0250040D02*
D03*
X0325354Y0198740D02*
D03*
X0347205Y0221181D02*
D03*
X0350551Y0265079D02*
D03*
X0350551Y0255433D02*
D03*
X0226785Y0259008D02*
D03*
X0205078Y0250512D02*
D03*
X0259212Y0220000D02*
D03*
X0241593Y0223948D02*
D03*
X0346993Y0243425D02*
D03*
X0313149Y0231417D02*
D03*
X0304291Y0193031D02*
D03*
X0304510Y0201586D02*
D03*
X0304291Y0195886D02*
D03*
X0285984Y0191457D02*
D03*
X0277519Y0180433D02*
D03*
X0241594Y0232008D02*
D03*
X0276732Y0226890D02*
D03*
X0271968Y0228263D02*
D03*
X0272303Y0225428D02*
D03*
X0274847Y0222082D02*
D03*
X0223603Y0230292D02*
D03*
X0214134Y0204053D02*
D03*
X0224960Y0217601D02*
D03*
X0213937Y0227677D02*
D03*
X0251142Y0212520D02*
D03*
X0258228Y0157795D02*
D03*
X0267677Y0156220D02*
D03*
X0235917Y0166453D02*
D03*
X0218267Y0161142D02*
D03*
X0256457Y0132205D02*
D03*
X0250630Y0134081D02*
D03*
X0221811Y0132205D02*
D03*
X0237559Y0132205D02*
D03*
X0227465Y0134081D02*
D03*
X0231733Y0134081D02*
D03*
X0202913Y0132205D02*
D03*
X0218661Y0132205D02*
D03*
X0208568Y0134081D02*
D03*
X0212835Y0134081D02*
D03*
X0135157Y0270197D02*
%LPD*%
G01*
D140*
X0146771Y0179016D03*
X0158582Y0186890D03*
X0146771Y0194764D03*
D30*
X0141653Y0163307D03*
X0153464Y0163307D03*
X0149527Y0163307D03*
X0145590Y0163307D03*
D36*
X0189980Y0215669D03*
D41*
X0147755Y0269508D03*
D34*
X0171220Y0269508D03*
D36*
X0135846Y0215669D03*
D33*
X0188307Y0269508D03*
X0188307Y0269508D03*
D42*
X0173248Y0161831D03*
D38*
X0137224Y0161831D03*
D30*
X0179645Y0267997D03*
X0175708Y0267997D03*
X0162732Y0267997D03*
X0166732Y0267997D03*
X0183582Y0267997D03*
D182*
X0184862Y0176536D03*
D183*
X0184862Y0186536D03*
X0184862Y0196536D03*
D10*
X0171574Y0267441D03*
X0137126Y0207697D03*
X0154194Y0170896D03*
X0189151Y0236634D03*
X0189094Y0253858D03*
X0168783Y0227677D03*
X0137913Y0267441D03*
X0158976Y0268622D03*
X0168425Y0196378D03*
X0170044Y0260722D03*
X0153522Y0252185D03*
X0186732Y0170492D03*
X0148149Y0200176D03*
X0186535Y0162618D03*
X0138307Y0249429D03*
X0136633Y0165669D03*
X0145198Y0214685D03*
X0136705Y0173071D03*
X0137913Y0244606D03*
X0183507Y0205627D03*
X0158188Y0216851D03*
X0165886Y0252226D03*
X0145984Y0234961D03*
X0136929Y0227480D03*
X0165767Y0246772D03*
X0137224Y0219606D03*
X0178702Y0217756D03*
X0189352Y0205375D03*
X0182728Y0253398D03*
X0188278Y0267878D03*
X0172163Y0219449D03*
X0185198Y0211417D03*
X0178641Y0220859D03*
X0146279Y0247362D03*
X0185953Y0263010D03*
X0138700Y0254884D03*
X0153070Y0200136D03*
X0176241Y0246673D03*
X0157795Y0221745D03*
X0155728Y0264548D03*
X0141415Y0257804D03*
X0145139Y0200176D03*
X0157147Y0200176D03*
X0168188Y0216260D03*
X0142129Y0200176D03*
X0166259Y0193819D03*
X0174941Y0214725D03*
X0182189Y0211499D03*
X0165373Y0226895D03*
X0182401Y0165866D03*
X0153267Y0168032D03*
X0162273Y0200874D03*
X0179143Y0223827D03*
X0139118Y0200176D03*
X0144366Y0217578D03*
X0164039Y0232061D03*
X0166360Y0229739D03*
X0182598Y0169016D03*
X0187163Y0202718D03*
X0158426Y0229743D03*
X0159164Y0248621D03*
X0173427Y0229762D03*
X0177026Y0259806D03*
X0152618Y0264550D03*
X0158662Y0245591D03*
X0150743Y0259172D03*
X0170746Y0201336D03*
X0178956Y0252973D03*
X0152526Y0211673D03*
X0176791Y0164587D03*
X0174035Y0167638D03*
X0176791Y0167638D03*
X0171279Y0167638D03*
X0174035Y0164587D03*
X0139819Y0265111D03*
X0180516Y0205284D03*
D102*
X0178181Y0226339D02*
X0172163Y0220321D01*
X0185198Y0211417D02*
X0185236Y0211455D01*
X0185236Y0223032D02*
X0181929Y0226339D01*
X0172163Y0220321D02*
X0172163Y0219449D01*
X0185236Y0211455D02*
X0185236Y0223032D01*
X0181929Y0226339D02*
X0178181Y0226339D01*
X0149527Y0170737D02*
X0149527Y0163307D01*
X0181614Y0215315D02*
X0176772Y0210474D01*
X0176772Y0210474D02*
X0176772Y0197982D01*
X0181614Y0219843D02*
X0181614Y0215315D01*
X0176772Y0197982D02*
X0149527Y0170737D01*
X0178641Y0220859D02*
X0180597Y0220859D01*
X0180597Y0220859D02*
X0181614Y0219843D01*
X0176200Y0246632D02*
X0176200Y0229232D01*
X0153070Y0203563D02*
X0148385Y0208249D01*
X0175807Y0268032D02*
X0175708Y0268032D01*
X0176299Y0253601D02*
X0180905Y0258207D01*
X0166181Y0219213D02*
X0148543Y0219213D01*
X0180828Y0263010D02*
X0175807Y0268032D01*
X0176241Y0246673D02*
X0176299Y0246731D01*
X0148385Y0239056D02*
X0146279Y0241162D01*
X0148385Y0208249D02*
X0148385Y0239056D01*
X0146279Y0241162D02*
X0146279Y0247362D01*
X0180905Y0258207D02*
X0180905Y0263071D01*
X0185953Y0263010D02*
X0180828Y0263010D01*
X0176200Y0229232D02*
X0166181Y0219213D01*
X0138700Y0254884D02*
X0138856Y0254884D01*
X0153070Y0200136D02*
X0153070Y0203563D01*
X0146279Y0247461D02*
X0146279Y0247362D01*
X0176241Y0246673D02*
X0176200Y0246632D01*
X0138856Y0254884D02*
X0146279Y0247461D01*
X0176299Y0246731D02*
X0176299Y0253601D01*
X0157795Y0221745D02*
X0155207Y0224333D01*
X0153318Y0256614D02*
X0142605Y0256614D01*
X0162618Y0257658D02*
X0155728Y0264548D01*
X0160748Y0235945D02*
X0162618Y0237815D01*
X0155207Y0250260D02*
X0155845Y0250898D01*
X0142605Y0256614D02*
X0141415Y0257804D01*
X0160748Y0224698D02*
X0160748Y0235945D01*
X0155845Y0250898D02*
X0155845Y0254088D01*
X0155207Y0224333D02*
X0155207Y0250260D01*
X0157795Y0221745D02*
X0160748Y0224698D01*
X0155845Y0254088D02*
X0153318Y0256614D01*
X0162618Y0237815D02*
X0162618Y0257658D01*
X0163049Y0214291D02*
X0151200Y0214291D01*
X0150019Y0213110D02*
X0150019Y0210650D01*
X0165017Y0216260D02*
X0163049Y0214291D01*
X0151200Y0214291D02*
X0150019Y0213110D01*
X0157147Y0203522D02*
X0157147Y0200176D01*
X0168188Y0216260D02*
X0165017Y0216260D01*
X0150019Y0210650D02*
X0157147Y0203522D01*
X0165964Y0194114D02*
X0152775Y0194114D01*
X0166259Y0193819D02*
X0165964Y0194114D01*
X0142129Y0193343D02*
X0142129Y0200176D01*
X0144606Y0190866D02*
X0142129Y0193343D01*
X0149527Y0190866D02*
X0144606Y0190866D01*
X0174941Y0214725D02*
X0175000Y0214666D01*
X0175000Y0198520D02*
X0170298Y0193819D01*
X0175000Y0214666D02*
X0175000Y0198520D01*
X0152775Y0194114D02*
X0149527Y0190866D01*
X0170298Y0193819D02*
X0166259Y0193819D01*
X0176852Y0171477D02*
X0168622Y0171477D01*
X0182401Y0165866D02*
X0182401Y0165927D01*
X0165177Y0168032D02*
X0153267Y0168032D01*
X0182401Y0165927D02*
X0176852Y0171477D01*
X0168622Y0171477D02*
X0165177Y0168032D01*
X0174715Y0218219D02*
X0172618Y0216123D01*
X0172618Y0213762D02*
X0173069Y0213311D01*
X0173069Y0199566D02*
X0172145Y0198642D01*
X0177981Y0223827D02*
X0174715Y0220561D01*
X0169901Y0198642D02*
X0167669Y0200874D01*
X0173069Y0213311D02*
X0173069Y0199566D01*
X0174715Y0220561D02*
X0174715Y0218219D01*
X0172145Y0198642D02*
X0169901Y0198642D01*
X0172618Y0216123D02*
X0172618Y0213762D01*
X0179143Y0223827D02*
X0177981Y0223827D01*
X0167669Y0200874D02*
X0162273Y0200874D01*
X0140078Y0213291D02*
X0140078Y0205236D01*
X0144366Y0217578D02*
X0140078Y0213291D01*
X0140078Y0205236D02*
X0139118Y0204276D01*
X0139118Y0204276D02*
X0139118Y0200176D01*
X0178407Y0199549D02*
X0178407Y0197305D01*
X0177775Y0196673D02*
X0177775Y0173839D01*
X0181609Y0202752D02*
X0178407Y0199549D01*
X0187130Y0202752D02*
X0181609Y0202752D01*
X0187163Y0202718D02*
X0187130Y0202752D01*
X0178407Y0197305D02*
X0177775Y0196673D01*
X0177775Y0173839D02*
X0182598Y0169016D01*
X0158426Y0235986D02*
X0160983Y0238543D01*
X0160983Y0238543D02*
X0160983Y0246802D01*
X0158426Y0229743D02*
X0158426Y0235986D01*
X0160983Y0246802D02*
X0159164Y0248621D01*
X0177026Y0259806D02*
X0177026Y0256639D01*
X0172871Y0252484D02*
X0172871Y0229648D01*
X0177026Y0256639D02*
X0172871Y0252484D01*
X0156841Y0247412D02*
X0156841Y0249583D01*
X0157479Y0254765D02*
X0153072Y0259172D01*
D106*
X0150743Y0259172D02*
X0150743Y0263047D01*
D102*
X0153072Y0259172D02*
X0150743Y0259172D01*
X0158662Y0245591D02*
X0156841Y0247412D01*
D106*
X0150743Y0263047D02*
X0152246Y0264550D01*
D102*
X0157479Y0250221D02*
X0157479Y0254765D01*
X0156841Y0249583D02*
X0157479Y0250221D01*
X0170984Y0216989D02*
X0169842Y0218131D01*
X0152684Y0211831D02*
X0169901Y0211831D01*
X0169842Y0218131D02*
X0169842Y0220563D01*
X0170098Y0201984D02*
X0170098Y0212028D01*
X0169842Y0220563D02*
X0178956Y0229677D01*
X0178956Y0229677D02*
X0178956Y0252973D01*
X0169901Y0211831D02*
X0170098Y0212028D01*
X0170746Y0201336D02*
X0170098Y0201984D01*
X0152526Y0211673D02*
X0152684Y0211831D01*
X0170984Y0212914D02*
X0170984Y0216989D01*
X0170098Y0212028D02*
X0170984Y0212914D01*
X0144212Y0262323D02*
X0147066Y0262323D01*
X0141424Y0265111D02*
X0144212Y0262323D01*
X0163617Y0264882D02*
X0166732Y0267997D01*
X0139819Y0265111D02*
X0141424Y0265111D01*
X0157181Y0266873D02*
X0159173Y0264882D01*
X0147066Y0262323D02*
X0151617Y0266873D01*
X0151617Y0266873D02*
X0157181Y0266873D01*
X0159173Y0264882D02*
X0163617Y0264882D01*
X0185629Y0265906D02*
X0183661Y0267874D01*
X0185511Y0257559D02*
X0188346Y0260393D01*
X0188070Y0224016D02*
X0185511Y0226575D01*
X0188346Y0260393D02*
X0188346Y0264583D01*
X0180516Y0205284D02*
X0180516Y0205922D01*
X0188346Y0264583D02*
X0187023Y0265906D01*
X0188070Y0210276D02*
X0188070Y0224016D01*
X0183661Y0267874D02*
X0183582Y0267874D01*
X0187023Y0265906D02*
X0185629Y0265906D01*
X0183020Y0208425D02*
X0186220Y0208425D01*
X0185511Y0226575D02*
X0185511Y0257559D01*
X0180516Y0205922D02*
X0183020Y0208425D01*
X0186220Y0208425D02*
X0188070Y0210276D01*
G36*
X0171362Y0196695D02*
G01*
X0169882Y0195215D01*
X0169667Y0195105D01*
X0169606Y0195101D01*
X0167933Y0195101D01*
X0167704Y0195175D01*
X0167675Y0195198D01*
X0167352Y0195483D01*
X0166841Y0195723D01*
X0166814Y0195727D01*
X0166814Y0195727D01*
X0166518Y0195773D01*
X0166284Y0195810D01*
X0166256Y0195806D01*
X0166256Y0195806D01*
X0165752Y0195740D01*
X0165724Y0195736D01*
X0165699Y0195725D01*
X0165699Y0195725D01*
X0165373Y0195582D01*
X0165207Y0195509D01*
X0165181Y0195487D01*
X0165181Y0195487D01*
X0165177Y0195485D01*
X0165163Y0195477D01*
X0165161Y0195479D01*
X0164958Y0195397D01*
X0164931Y0195396D01*
X0152848Y0195396D01*
X0152814Y0195397D01*
X0152662Y0195411D01*
X0152629Y0195402D01*
X0152514Y0195371D01*
X0152481Y0195364D01*
X0152371Y0195344D01*
X0152330Y0195337D01*
X0152301Y0195320D01*
X0152279Y0195312D01*
X0152258Y0195302D01*
X0152225Y0195294D01*
X0152133Y0195229D01*
X0152100Y0195206D01*
X0152071Y0195188D01*
X0151939Y0195111D01*
X0151903Y0195068D01*
X0151840Y0194994D01*
X0151817Y0194969D01*
X0150742Y0193894D01*
X0150527Y0193784D01*
X0150290Y0193822D01*
X0150119Y0193992D01*
X0150085Y0194250D01*
X0150115Y0194392D01*
X0150115Y0194392D01*
X0150120Y0194412D01*
X0150120Y0195116D01*
X0150006Y0195651D01*
X0149977Y0195784D01*
X0149977Y0195784D01*
X0149973Y0195804D01*
X0149965Y0195823D01*
X0149965Y0195823D01*
X0149695Y0196429D01*
X0149695Y0196429D01*
X0149687Y0196447D01*
X0149273Y0197017D01*
X0149258Y0197030D01*
X0149258Y0197030D01*
X0148902Y0197351D01*
X0148750Y0197488D01*
X0148732Y0197498D01*
X0148732Y0197498D01*
X0148673Y0197533D01*
X0148141Y0197840D01*
X0148121Y0197846D01*
X0148121Y0197846D01*
X0147491Y0198051D01*
X0147491Y0198051D01*
X0147471Y0198057D01*
X0146834Y0198124D01*
X0146789Y0198129D01*
X0146569Y0198227D01*
X0146448Y0198436D01*
X0146473Y0198675D01*
X0146575Y0198812D01*
X0146618Y0198849D01*
X0146618Y0198849D01*
X0146639Y0198867D01*
X0146946Y0199341D01*
X0147108Y0199881D01*
X0147110Y0200209D01*
X0147111Y0200418D01*
X0147111Y0200418D01*
X0147111Y0200446D01*
X0147104Y0200473D01*
X0147104Y0200473D01*
X0146964Y0200962D01*
X0146964Y0200962D01*
X0146956Y0200989D01*
X0146655Y0201466D01*
X0146634Y0201484D01*
X0146634Y0201484D01*
X0146253Y0201821D01*
X0146253Y0201821D01*
X0146232Y0201840D01*
X0146207Y0201851D01*
X0146207Y0201851D01*
X0146131Y0201887D01*
X0145721Y0202079D01*
X0145693Y0202084D01*
X0145693Y0202084D01*
X0145413Y0202127D01*
X0145163Y0202166D01*
X0145136Y0202163D01*
X0145136Y0202163D01*
X0145022Y0202148D01*
X0144604Y0202093D01*
X0144578Y0202082D01*
X0144578Y0202082D01*
X0144133Y0201886D01*
X0144087Y0201866D01*
X0143885Y0201696D01*
X0143662Y0201606D01*
X0143428Y0201664D01*
X0143377Y0201703D01*
X0143242Y0201821D01*
X0143242Y0201821D01*
X0143222Y0201840D01*
X0142711Y0202079D01*
X0142683Y0202084D01*
X0142683Y0202084D01*
X0142401Y0202128D01*
X0142153Y0202166D01*
X0141593Y0202093D01*
X0141568Y0202082D01*
X0141568Y0202082D01*
X0141105Y0201878D01*
X0141077Y0201866D01*
X0141048Y0201842D01*
X0141040Y0201835D01*
X0140817Y0201745D01*
X0140583Y0201803D01*
X0140428Y0201987D01*
X0140400Y0202134D01*
X0140400Y0203584D01*
X0140474Y0203813D01*
X0140514Y0203860D01*
X0140933Y0204279D01*
X0140958Y0204302D01*
X0140969Y0204311D01*
X0141075Y0204400D01*
X0141152Y0204532D01*
X0141170Y0204561D01*
X0141177Y0204571D01*
X0141258Y0204686D01*
X0141266Y0204719D01*
X0141276Y0204740D01*
X0141284Y0204762D01*
X0141301Y0204791D01*
X0141307Y0204825D01*
X0141307Y0204825D01*
X0141328Y0204942D01*
X0141335Y0204975D01*
X0141366Y0205090D01*
X0141375Y0205123D01*
X0141372Y0205157D01*
X0141361Y0205275D01*
X0141360Y0205309D01*
X0141360Y0212598D01*
X0141434Y0212827D01*
X0141474Y0212874D01*
X0144073Y0215473D01*
X0144288Y0215583D01*
X0144336Y0215586D01*
X0144336Y0215586D01*
X0144351Y0215587D01*
X0144366Y0215587D01*
X0144924Y0215667D01*
X0145206Y0215795D01*
X0145413Y0215889D01*
X0145413Y0215889D01*
X0145438Y0215901D01*
X0145866Y0216269D01*
X0146173Y0216743D01*
X0146335Y0217284D01*
X0146336Y0217283D01*
X0146436Y0217484D01*
X0146617Y0217578D01*
X0146593Y0217578D01*
X0146398Y0217719D01*
X0146346Y0217850D01*
X0146338Y0217848D01*
X0146191Y0218364D01*
X0146191Y0218364D01*
X0146183Y0218391D01*
X0145882Y0218868D01*
X0145861Y0218887D01*
X0145861Y0218887D01*
X0145479Y0219223D01*
X0145479Y0219223D01*
X0145459Y0219242D01*
X0145434Y0219254D01*
X0145434Y0219254D01*
X0145413Y0219263D01*
X0144948Y0219482D01*
X0144920Y0219486D01*
X0144920Y0219486D01*
X0144747Y0219513D01*
X0144390Y0219569D01*
X0144362Y0219565D01*
X0144362Y0219565D01*
X0143935Y0219509D01*
X0143830Y0219495D01*
X0143805Y0219484D01*
X0143805Y0219484D01*
X0143354Y0219286D01*
X0143314Y0219268D01*
X0143170Y0219147D01*
X0142903Y0218923D01*
X0142903Y0218923D01*
X0142882Y0218905D01*
X0142569Y0218435D01*
X0142459Y0218084D01*
X0142409Y0217923D01*
X0142409Y0217923D01*
X0142401Y0217896D01*
X0142397Y0217726D01*
X0142395Y0217574D01*
X0142316Y0217346D01*
X0142281Y0217305D01*
X0139224Y0214248D01*
X0139199Y0214225D01*
X0139081Y0214127D01*
X0139005Y0213994D01*
X0138987Y0213966D01*
X0138899Y0213841D01*
X0138890Y0213808D01*
X0138880Y0213787D01*
X0138873Y0213765D01*
X0138855Y0213736D01*
X0138850Y0213702D01*
X0138850Y0213702D01*
X0138829Y0213585D01*
X0138822Y0213552D01*
X0138782Y0213404D01*
X0138795Y0213252D01*
X0138797Y0213218D01*
X0138797Y0205929D01*
X0138722Y0205700D01*
X0138683Y0205653D01*
X0138264Y0205234D01*
X0138239Y0205211D01*
X0138122Y0205113D01*
X0138045Y0204980D01*
X0138027Y0204952D01*
X0137939Y0204826D01*
X0137930Y0204793D01*
X0137921Y0204773D01*
X0137913Y0204751D01*
X0137896Y0204722D01*
X0137890Y0204688D01*
X0137890Y0204688D01*
X0137869Y0204571D01*
X0137862Y0204538D01*
X0137822Y0204390D01*
X0137825Y0204356D01*
X0137835Y0204237D01*
X0137837Y0204204D01*
X0137837Y0201854D01*
X0137762Y0201625D01*
X0137698Y0201556D01*
X0137634Y0201503D01*
X0137619Y0201480D01*
X0137619Y0201480D01*
X0137536Y0201355D01*
X0137322Y0201033D01*
X0137201Y0200646D01*
X0137162Y0200521D01*
X0137162Y0200521D01*
X0137153Y0200494D01*
X0137148Y0200212D01*
X0137143Y0199957D01*
X0137143Y0199957D01*
X0137143Y0199930D01*
X0137150Y0199903D01*
X0137150Y0199903D01*
X0137238Y0199583D01*
X0137291Y0199385D01*
X0137587Y0198904D01*
X0137619Y0198875D01*
X0137985Y0198544D01*
X0138005Y0198525D01*
X0138513Y0198279D01*
X0138683Y0198251D01*
X0139055Y0198188D01*
X0139055Y0198188D01*
X0139070Y0198186D01*
X0139118Y0198185D01*
X0139677Y0198265D01*
X0139866Y0198351D01*
X0140166Y0198487D01*
X0140166Y0198487D01*
X0140191Y0198499D01*
X0140212Y0198517D01*
X0140235Y0198532D01*
X0140240Y0198525D01*
X0140425Y0198602D01*
X0140660Y0198547D01*
X0140817Y0198364D01*
X0140847Y0198214D01*
X0140847Y0193416D01*
X0140846Y0193382D01*
X0140832Y0193230D01*
X0140872Y0193082D01*
X0140879Y0193049D01*
X0140880Y0193045D01*
X0140882Y0193031D01*
X0140900Y0192932D01*
X0140900Y0192932D01*
X0140906Y0192898D01*
X0140923Y0192869D01*
X0140931Y0192847D01*
X0140940Y0192826D01*
X0140949Y0192794D01*
X0141037Y0192668D01*
X0141055Y0192640D01*
X0141132Y0192507D01*
X0141249Y0192409D01*
X0141274Y0192386D01*
X0143648Y0190012D01*
X0143671Y0189987D01*
X0143693Y0189961D01*
X0143769Y0189869D01*
X0143902Y0189793D01*
X0143931Y0189775D01*
X0143951Y0189760D01*
X0144056Y0189687D01*
X0144089Y0189678D01*
X0144110Y0189668D01*
X0144131Y0189661D01*
X0144161Y0189644D01*
X0144206Y0189635D01*
X0144311Y0189617D01*
X0144345Y0189610D01*
X0144459Y0189579D01*
X0144492Y0189570D01*
X0144645Y0189583D01*
X0144679Y0189585D01*
X0146771Y0189585D01*
X0146771Y0182383D01*
X0146071Y0182309D01*
X0146052Y0182303D01*
X0146052Y0182303D01*
X0145434Y0182102D01*
X0145402Y0182092D01*
X0145384Y0182081D01*
X0145384Y0182081D01*
X0144940Y0181825D01*
X0144792Y0181740D01*
X0144269Y0181269D01*
X0144257Y0181252D01*
X0144257Y0181252D01*
X0144206Y0181183D01*
X0143855Y0180699D01*
X0143767Y0180501D01*
X0143577Y0180075D01*
X0143577Y0180075D01*
X0143569Y0180056D01*
X0143565Y0180036D01*
X0143565Y0180036D01*
X0143552Y0179975D01*
X0143423Y0179368D01*
X0143423Y0178664D01*
X0143552Y0178057D01*
X0143565Y0177995D01*
X0143565Y0177995D01*
X0143569Y0177975D01*
X0143577Y0177957D01*
X0143577Y0177957D01*
X0143767Y0177531D01*
X0143855Y0177332D01*
X0144206Y0176849D01*
X0144257Y0176780D01*
X0144257Y0176780D01*
X0144269Y0176763D01*
X0144792Y0176292D01*
X0144940Y0176207D01*
X0145384Y0175950D01*
X0145384Y0175950D01*
X0145402Y0175940D01*
X0145434Y0175930D01*
X0146052Y0175729D01*
X0146052Y0175729D01*
X0146071Y0175723D01*
X0146771Y0175649D01*
X0147471Y0175723D01*
X0147491Y0175729D01*
X0147491Y0175729D01*
X0148121Y0175934D01*
X0148121Y0175934D01*
X0148141Y0175940D01*
X0148673Y0176247D01*
X0148732Y0176282D01*
X0148732Y0176282D01*
X0148750Y0176292D01*
X0149273Y0176763D01*
X0149356Y0176876D01*
X0149414Y0176957D01*
X0149687Y0177332D01*
X0149830Y0177654D01*
X0149965Y0177957D01*
X0149965Y0177957D01*
X0149973Y0177975D01*
X0149977Y0177995D01*
X0149977Y0177995D01*
X0150006Y0178129D01*
X0150120Y0178664D01*
X0150120Y0179368D01*
X0150006Y0179903D01*
X0149977Y0180036D01*
X0149977Y0180036D01*
X0149973Y0180056D01*
X0149965Y0180075D01*
X0149965Y0180075D01*
X0149695Y0180681D01*
X0149695Y0180681D01*
X0149687Y0180699D01*
X0149273Y0181269D01*
X0149258Y0181282D01*
X0149258Y0181282D01*
X0148902Y0181603D01*
X0148750Y0181740D01*
X0148732Y0181750D01*
X0148732Y0181750D01*
X0148673Y0181785D01*
X0148141Y0182092D01*
X0148121Y0182098D01*
X0148121Y0182098D01*
X0147491Y0182303D01*
X0147491Y0182303D01*
X0147471Y0182309D01*
X0146771Y0182383D01*
X0146771Y0189585D01*
X0149454Y0189585D01*
X0149488Y0189583D01*
X0149607Y0189573D01*
X0149640Y0189570D01*
X0149673Y0189579D01*
X0149673Y0189579D01*
X0149788Y0189610D01*
X0149821Y0189617D01*
X0149939Y0189638D01*
X0149972Y0189644D01*
X0150002Y0189661D01*
X0150023Y0189668D01*
X0150044Y0189678D01*
X0150077Y0189687D01*
X0150202Y0189775D01*
X0150231Y0189793D01*
X0150364Y0189869D01*
X0150462Y0189987D01*
X0150485Y0190012D01*
X0151829Y0191356D01*
X0153192Y0192719D01*
X0153406Y0192828D01*
X0153467Y0192833D01*
X0164334Y0192833D01*
X0164564Y0192758D01*
X0164667Y0192647D01*
X0164728Y0192547D01*
X0165146Y0192169D01*
X0165588Y0191955D01*
X0165629Y0191935D01*
X0165654Y0191923D01*
X0165710Y0191913D01*
X0166196Y0191831D01*
X0166196Y0191831D01*
X0166211Y0191829D01*
X0166259Y0191828D01*
X0166818Y0191908D01*
X0167206Y0192085D01*
X0167307Y0192130D01*
X0167307Y0192130D01*
X0167332Y0192142D01*
X0167681Y0192443D01*
X0167904Y0192536D01*
X0167936Y0192538D01*
X0168575Y0192538D01*
X0168804Y0192463D01*
X0168946Y0192268D01*
X0168946Y0192027D01*
X0168850Y0191872D01*
X0162427Y0185448D01*
X0162212Y0185339D01*
X0161974Y0185377D01*
X0161804Y0185547D01*
X0161766Y0185785D01*
X0161778Y0185837D01*
X0161784Y0185849D01*
X0161789Y0185869D01*
X0161789Y0185869D01*
X0161839Y0186108D01*
X0161931Y0186538D01*
X0161931Y0187242D01*
X0161839Y0187672D01*
X0161789Y0187910D01*
X0161789Y0187910D01*
X0161784Y0187930D01*
X0161776Y0187949D01*
X0161776Y0187949D01*
X0161506Y0188555D01*
X0161506Y0188555D01*
X0161498Y0188573D01*
X0161084Y0189143D01*
X0161069Y0189156D01*
X0161069Y0189156D01*
X0160741Y0189452D01*
X0160561Y0189614D01*
X0160544Y0189624D01*
X0160544Y0189624D01*
X0160001Y0189937D01*
X0159952Y0189966D01*
X0159932Y0189972D01*
X0159932Y0189972D01*
X0159302Y0190177D01*
X0159302Y0190177D01*
X0159282Y0190183D01*
X0158949Y0190218D01*
X0158647Y0190250D01*
X0158582Y0190257D01*
X0157882Y0190183D01*
X0157863Y0190177D01*
X0157863Y0190177D01*
X0157293Y0189992D01*
X0157213Y0189966D01*
X0157195Y0189955D01*
X0157195Y0189955D01*
X0156835Y0189748D01*
X0156603Y0189614D01*
X0156080Y0189143D01*
X0156068Y0189126D01*
X0156068Y0189126D01*
X0156019Y0189059D01*
X0155666Y0188573D01*
X0155583Y0188386D01*
X0155388Y0187949D01*
X0155388Y0187949D01*
X0155380Y0187930D01*
X0155376Y0187910D01*
X0155376Y0187910D01*
X0155362Y0187843D01*
X0155234Y0187242D01*
X0155234Y0186538D01*
X0155362Y0185937D01*
X0155376Y0185869D01*
X0155376Y0185869D01*
X0155380Y0185849D01*
X0155388Y0185831D01*
X0155388Y0185831D01*
X0155583Y0185394D01*
X0155666Y0185206D01*
X0156019Y0184721D01*
X0156068Y0184654D01*
X0156068Y0184654D01*
X0156080Y0184637D01*
X0156603Y0184166D01*
X0156835Y0184032D01*
X0157195Y0183824D01*
X0157195Y0183824D01*
X0157213Y0183814D01*
X0157293Y0183788D01*
X0157863Y0183603D01*
X0157863Y0183603D01*
X0157882Y0183597D01*
X0158582Y0183523D01*
X0158647Y0183530D01*
X0158949Y0183562D01*
X0159282Y0183597D01*
X0159302Y0183603D01*
X0159302Y0183603D01*
X0159653Y0183717D01*
X0159894Y0183717D01*
X0160089Y0183576D01*
X0160163Y0183346D01*
X0160089Y0183117D01*
X0160049Y0183071D01*
X0148673Y0171694D01*
X0148647Y0171671D01*
X0148530Y0171573D01*
X0148454Y0171440D01*
X0148435Y0171412D01*
X0148348Y0171286D01*
X0148339Y0171254D01*
X0148329Y0171233D01*
X0148321Y0171211D01*
X0148304Y0171182D01*
X0148278Y0171031D01*
X0148270Y0170998D01*
X0148240Y0170883D01*
X0148240Y0170883D01*
X0148231Y0170850D01*
X0148244Y0170698D01*
X0148246Y0170664D01*
X0148246Y0165248D01*
X0148171Y0165019D01*
X0148093Y0164939D01*
X0147981Y0164853D01*
X0147966Y0164833D01*
X0147966Y0164833D01*
X0147868Y0164705D01*
X0147669Y0164569D01*
X0147428Y0164575D01*
X0147249Y0164705D01*
X0147151Y0164833D01*
X0147151Y0164833D01*
X0147136Y0164853D01*
X0146683Y0165200D01*
X0146156Y0165419D01*
X0146131Y0165422D01*
X0146131Y0165422D01*
X0145866Y0165457D01*
X0145590Y0165493D01*
X0145565Y0165490D01*
X0145085Y0165427D01*
X0145024Y0165419D01*
X0144497Y0165200D01*
X0144044Y0164853D01*
X0144029Y0164833D01*
X0144029Y0164833D01*
X0143931Y0164705D01*
X0143732Y0164569D01*
X0143491Y0164575D01*
X0143312Y0164705D01*
X0143214Y0164833D01*
X0143214Y0164833D01*
X0143199Y0164853D01*
X0142746Y0165200D01*
X0142219Y0165419D01*
X0142194Y0165422D01*
X0142194Y0165422D01*
X0141869Y0165465D01*
X0141653Y0165493D01*
X0141628Y0165490D01*
X0141158Y0165428D01*
X0141087Y0165419D01*
X0140560Y0165200D01*
X0140107Y0164853D01*
X0140092Y0164833D01*
X0139775Y0164421D01*
X0139775Y0164420D01*
X0139760Y0164400D01*
X0139754Y0164385D01*
X0139578Y0164227D01*
X0139419Y0164193D01*
X0139094Y0164193D01*
X0139094Y0162321D01*
X0139020Y0162092D01*
X0138825Y0161950D01*
X0138704Y0161931D01*
X0136336Y0161931D01*
X0136107Y0162006D01*
X0135965Y0162201D01*
X0135946Y0162321D01*
X0135946Y0254637D01*
X0135956Y0254667D01*
X0135946Y0254699D01*
X0135946Y0269018D01*
X0136021Y0269247D01*
X0136216Y0269389D01*
X0136336Y0269408D01*
X0145050Y0269408D01*
X0145279Y0269333D01*
X0145421Y0269138D01*
X0145421Y0268897D01*
X0145279Y0268703D01*
X0145141Y0268639D01*
X0145022Y0268610D01*
X0144810Y0268501D01*
X0144492Y0268337D01*
X0144433Y0268306D01*
X0143933Y0267870D01*
X0143920Y0267851D01*
X0143920Y0267851D01*
X0143660Y0267482D01*
X0143552Y0267328D01*
X0143431Y0267019D01*
X0143377Y0266878D01*
X0143311Y0266710D01*
X0143308Y0266687D01*
X0143308Y0266687D01*
X0143246Y0266217D01*
X0143244Y0266204D01*
X0143244Y0266044D01*
X0143170Y0265815D01*
X0142975Y0265673D01*
X0142734Y0265673D01*
X0142579Y0265768D01*
X0142382Y0265966D01*
X0142359Y0265991D01*
X0142260Y0266108D01*
X0142194Y0266147D01*
X0142128Y0266185D01*
X0142099Y0266203D01*
X0141974Y0266291D01*
X0141941Y0266299D01*
X0141920Y0266309D01*
X0141898Y0266317D01*
X0141869Y0266334D01*
X0141835Y0266340D01*
X0141835Y0266340D01*
X0141718Y0266361D01*
X0141685Y0266368D01*
X0141537Y0266408D01*
X0141503Y0266405D01*
X0141469Y0266408D01*
X0141470Y0266416D01*
X0141279Y0266460D01*
X0141222Y0266502D01*
X0140912Y0266775D01*
X0140401Y0267015D01*
X0140374Y0267019D01*
X0140374Y0267019D01*
X0140107Y0267061D01*
X0139843Y0267102D01*
X0139816Y0267098D01*
X0139816Y0267098D01*
X0139775Y0267093D01*
X0139284Y0267029D01*
X0139258Y0267018D01*
X0139258Y0267018D01*
X0138797Y0266814D01*
X0138767Y0266801D01*
X0138652Y0266704D01*
X0138356Y0266456D01*
X0138356Y0266456D01*
X0138335Y0266438D01*
X0138320Y0266415D01*
X0138320Y0266415D01*
X0138287Y0266367D01*
X0138022Y0265968D01*
X0137921Y0265642D01*
X0137862Y0265456D01*
X0137862Y0265456D01*
X0137854Y0265430D01*
X0137849Y0265147D01*
X0137844Y0264893D01*
X0137844Y0264893D01*
X0137844Y0264865D01*
X0137851Y0264838D01*
X0137851Y0264838D01*
X0137932Y0264542D01*
X0137992Y0264321D01*
X0138287Y0263840D01*
X0138320Y0263810D01*
X0138685Y0263480D01*
X0138706Y0263461D01*
X0139214Y0263215D01*
X0139244Y0263210D01*
X0139756Y0263124D01*
X0139756Y0263124D01*
X0139770Y0263121D01*
X0139819Y0263121D01*
X0140378Y0263201D01*
X0140619Y0263310D01*
X0140866Y0263423D01*
X0140866Y0263423D01*
X0140872Y0263425D01*
X0140892Y0263434D01*
X0140894Y0263430D01*
X0141100Y0263484D01*
X0141324Y0263396D01*
X0141353Y0263370D01*
X0143254Y0261468D01*
X0143277Y0261443D01*
X0143376Y0261326D01*
X0143410Y0261306D01*
X0143500Y0261255D01*
X0143508Y0261250D01*
X0143537Y0261231D01*
X0143543Y0261227D01*
X0143662Y0261144D01*
X0143695Y0261135D01*
X0143716Y0261125D01*
X0143738Y0261117D01*
X0143767Y0261100D01*
X0143918Y0261074D01*
X0143951Y0261066D01*
X0144017Y0261049D01*
X0144099Y0261027D01*
X0144251Y0261040D01*
X0144285Y0261041D01*
X0146993Y0261041D01*
X0147027Y0261040D01*
X0147133Y0261031D01*
X0147180Y0261027D01*
X0147328Y0261066D01*
X0147361Y0261074D01*
X0147478Y0261094D01*
X0147478Y0261094D01*
X0147512Y0261100D01*
X0147541Y0261117D01*
X0147563Y0261125D01*
X0147583Y0261135D01*
X0147616Y0261144D01*
X0147742Y0261231D01*
X0147770Y0261250D01*
X0147851Y0261296D01*
X0147903Y0261326D01*
X0148001Y0261443D01*
X0148024Y0261468D01*
X0148888Y0262332D01*
X0149103Y0262442D01*
X0149341Y0262404D01*
X0149511Y0262234D01*
X0149553Y0262057D01*
X0149553Y0260928D01*
X0149479Y0260699D01*
X0149414Y0260630D01*
X0149280Y0260517D01*
X0149280Y0260517D01*
X0149259Y0260499D01*
X0149243Y0260476D01*
X0149243Y0260476D01*
X0149216Y0260435D01*
X0148946Y0260029D01*
X0148822Y0259633D01*
X0148786Y0259517D01*
X0148786Y0259517D01*
X0148778Y0259490D01*
X0148773Y0259208D01*
X0148768Y0258954D01*
X0148768Y0258954D01*
X0148767Y0258926D01*
X0148775Y0258899D01*
X0148775Y0258899D01*
X0148914Y0258388D01*
X0148902Y0258147D01*
X0148752Y0257960D01*
X0148538Y0257896D01*
X0143733Y0257896D01*
X0143504Y0257970D01*
X0143358Y0258178D01*
X0143240Y0258591D01*
X0143240Y0258591D01*
X0143232Y0258617D01*
X0142931Y0259095D01*
X0142910Y0259113D01*
X0142910Y0259113D01*
X0142529Y0259450D01*
X0142529Y0259450D01*
X0142508Y0259468D01*
X0142483Y0259480D01*
X0142483Y0259480D01*
X0142400Y0259519D01*
X0141997Y0259708D01*
X0141440Y0259795D01*
X0141412Y0259791D01*
X0141412Y0259791D01*
X0140995Y0259737D01*
X0140880Y0259722D01*
X0140855Y0259711D01*
X0140854Y0259711D01*
X0140400Y0259511D01*
X0140363Y0259495D01*
X0140302Y0259443D01*
X0139952Y0259149D01*
X0139952Y0259149D01*
X0139931Y0259131D01*
X0139916Y0259108D01*
X0139916Y0259108D01*
X0139834Y0258985D01*
X0139618Y0258661D01*
X0139508Y0258308D01*
X0139458Y0258149D01*
X0139458Y0258149D01*
X0139450Y0258123D01*
X0139445Y0257841D01*
X0139440Y0257586D01*
X0139440Y0257586D01*
X0139440Y0257558D01*
X0139508Y0257308D01*
X0139497Y0257067D01*
X0139346Y0256879D01*
X0139113Y0256816D01*
X0139072Y0256820D01*
X0138725Y0256874D01*
X0138697Y0256871D01*
X0138697Y0256871D01*
X0138488Y0256843D01*
X0138165Y0256801D01*
X0138140Y0256790D01*
X0138140Y0256790D01*
X0137851Y0256663D01*
X0137648Y0256574D01*
X0137567Y0256505D01*
X0137238Y0256228D01*
X0137238Y0256228D01*
X0137216Y0256211D01*
X0137201Y0256187D01*
X0137201Y0256187D01*
X0137150Y0256111D01*
X0136903Y0255741D01*
X0136780Y0255345D01*
X0136743Y0255228D01*
X0136743Y0255228D01*
X0136735Y0255202D01*
X0136726Y0254701D01*
X0136726Y0254692D01*
X0136723Y0254684D01*
X0136725Y0254665D01*
X0136725Y0254638D01*
X0136732Y0254611D01*
X0136732Y0254611D01*
X0136813Y0254315D01*
X0136873Y0254093D01*
X0137143Y0253653D01*
X0137154Y0253636D01*
X0137169Y0253612D01*
X0137201Y0253583D01*
X0137567Y0253252D01*
X0137587Y0253233D01*
X0137985Y0253041D01*
X0138070Y0252999D01*
X0138095Y0252987D01*
X0138148Y0252978D01*
X0138637Y0252896D01*
X0138637Y0252896D01*
X0138652Y0252893D01*
X0138700Y0252893D01*
X0138800Y0252907D01*
X0139037Y0252866D01*
X0139131Y0252797D01*
X0142500Y0249427D01*
X0142609Y0249213D01*
X0142572Y0248975D01*
X0142401Y0248805D01*
X0142222Y0248762D01*
X0141701Y0248765D01*
X0141667Y0248765D01*
X0141335Y0248685D01*
X0141064Y0248620D01*
X0141022Y0248610D01*
X0140832Y0248512D01*
X0140560Y0248372D01*
X0140433Y0248306D01*
X0139933Y0247870D01*
X0139920Y0247851D01*
X0139920Y0247851D01*
X0139610Y0247411D01*
X0139552Y0247328D01*
X0139440Y0247042D01*
X0139346Y0246799D01*
X0139311Y0246710D01*
X0139308Y0246687D01*
X0139308Y0246687D01*
X0139246Y0246217D01*
X0139244Y0246204D01*
X0139244Y0245858D01*
X0139246Y0245844D01*
X0139301Y0245389D01*
X0139301Y0245389D01*
X0139304Y0245366D01*
X0139320Y0245324D01*
X0139384Y0245155D01*
X0139538Y0244745D01*
X0139552Y0244726D01*
X0139552Y0244726D01*
X0139901Y0244218D01*
X0139914Y0244199D01*
X0140409Y0243758D01*
X0140995Y0243448D01*
X0141341Y0243361D01*
X0141615Y0243292D01*
X0141615Y0243292D01*
X0141638Y0243286D01*
X0142028Y0243284D01*
X0142277Y0243283D01*
X0142277Y0243283D01*
X0142301Y0243283D01*
X0142946Y0243437D01*
X0143292Y0243616D01*
X0143514Y0243731D01*
X0143514Y0243731D01*
X0143535Y0243741D01*
X0144034Y0244177D01*
X0144289Y0244539D01*
X0144482Y0244684D01*
X0144722Y0244688D01*
X0144919Y0244549D01*
X0144998Y0244315D01*
X0144998Y0241235D01*
X0144996Y0241201D01*
X0144983Y0241048D01*
X0145022Y0240900D01*
X0145030Y0240867D01*
X0145050Y0240750D01*
X0145050Y0240750D01*
X0145056Y0240717D01*
X0145073Y0240687D01*
X0145081Y0240665D01*
X0145091Y0240645D01*
X0145100Y0240612D01*
X0145187Y0240486D01*
X0145206Y0240458D01*
X0145282Y0240325D01*
X0145399Y0240227D01*
X0145424Y0240204D01*
X0146989Y0238639D01*
X0147099Y0238424D01*
X0147103Y0238363D01*
X0147103Y0217948D01*
X0147029Y0217719D01*
X0146834Y0217578D01*
X0146763Y0217578D01*
X0146888Y0217559D01*
X0147059Y0217390D01*
X0147103Y0217210D01*
X0147103Y0208322D01*
X0147102Y0208288D01*
X0147089Y0208135D01*
X0147099Y0208098D01*
X0147128Y0207987D01*
X0147136Y0207954D01*
X0147156Y0207837D01*
X0147156Y0207837D01*
X0147162Y0207804D01*
X0147179Y0207774D01*
X0147187Y0207752D01*
X0147197Y0207732D01*
X0147206Y0207699D01*
X0147293Y0207573D01*
X0147312Y0207545D01*
X0147328Y0207517D01*
X0147388Y0207412D01*
X0147505Y0207314D01*
X0147530Y0207291D01*
X0151675Y0203146D01*
X0151784Y0202932D01*
X0151789Y0202871D01*
X0151789Y0201815D01*
X0151714Y0201586D01*
X0151650Y0201517D01*
X0151586Y0201463D01*
X0151571Y0201440D01*
X0151571Y0201440D01*
X0151530Y0201379D01*
X0151274Y0200993D01*
X0151186Y0200714D01*
X0151114Y0200481D01*
X0151114Y0200481D01*
X0151105Y0200455D01*
X0151100Y0200172D01*
X0151095Y0199918D01*
X0151095Y0199918D01*
X0151095Y0199890D01*
X0151102Y0199864D01*
X0151102Y0199864D01*
X0151205Y0199485D01*
X0151243Y0199346D01*
X0151539Y0198865D01*
X0151571Y0198836D01*
X0151937Y0198505D01*
X0151957Y0198486D01*
X0152465Y0198240D01*
X0152618Y0198214D01*
X0153007Y0198149D01*
X0153007Y0198149D01*
X0153022Y0198146D01*
X0153070Y0198146D01*
X0153629Y0198226D01*
X0153926Y0198360D01*
X0154118Y0198448D01*
X0154118Y0198448D01*
X0154143Y0198459D01*
X0154571Y0198828D01*
X0154795Y0199174D01*
X0154982Y0199326D01*
X0155223Y0199339D01*
X0155425Y0199208D01*
X0155454Y0199166D01*
X0155601Y0198928D01*
X0155615Y0198904D01*
X0155647Y0198875D01*
X0156013Y0198544D01*
X0156034Y0198525D01*
X0156542Y0198279D01*
X0156588Y0198271D01*
X0157083Y0198188D01*
X0157083Y0198188D01*
X0157098Y0198186D01*
X0157147Y0198185D01*
X0157705Y0198265D01*
X0158144Y0198464D01*
X0158194Y0198487D01*
X0158194Y0198487D01*
X0158219Y0198499D01*
X0158495Y0198736D01*
X0158626Y0198849D01*
X0158626Y0198849D01*
X0158647Y0198867D01*
X0158954Y0199341D01*
X0159116Y0199881D01*
X0159118Y0200209D01*
X0159119Y0200418D01*
X0159119Y0200418D01*
X0159119Y0200446D01*
X0159111Y0200473D01*
X0159111Y0200473D01*
X0158972Y0200962D01*
X0158972Y0200962D01*
X0158964Y0200989D01*
X0158663Y0201466D01*
X0158642Y0201484D01*
X0158642Y0201484D01*
X0158560Y0201557D01*
X0158438Y0201764D01*
X0158428Y0201849D01*
X0158428Y0203449D01*
X0158430Y0203483D01*
X0158431Y0203496D01*
X0158443Y0203636D01*
X0158434Y0203669D01*
X0158434Y0203669D01*
X0158403Y0203783D01*
X0158396Y0203817D01*
X0158370Y0203967D01*
X0158353Y0203997D01*
X0158345Y0204018D01*
X0158335Y0204039D01*
X0158326Y0204072D01*
X0158240Y0204195D01*
X0158238Y0204197D01*
X0158220Y0204226D01*
X0158144Y0204359D01*
X0158117Y0204381D01*
X0158026Y0204457D01*
X0158001Y0204480D01*
X0155419Y0207063D01*
X0153231Y0209250D01*
X0153122Y0209465D01*
X0153159Y0209703D01*
X0153345Y0209881D01*
X0153573Y0209984D01*
X0153573Y0209984D01*
X0153598Y0209996D01*
X0153914Y0210267D01*
X0154005Y0210346D01*
X0154005Y0210346D01*
X0154026Y0210364D01*
X0154041Y0210388D01*
X0154059Y0210409D01*
X0154068Y0210401D01*
X0154218Y0210523D01*
X0154358Y0210549D01*
X0168427Y0210549D01*
X0168656Y0210475D01*
X0168797Y0210280D01*
X0168816Y0210160D01*
X0168816Y0202380D01*
X0168742Y0202151D01*
X0168547Y0202009D01*
X0168306Y0202009D01*
X0168262Y0202027D01*
X0168247Y0202033D01*
X0168219Y0202053D01*
X0168186Y0202062D01*
X0168166Y0202071D01*
X0168144Y0202079D01*
X0168114Y0202096D01*
X0168081Y0202102D01*
X0168081Y0202102D01*
X0167964Y0202123D01*
X0167931Y0202130D01*
X0167783Y0202170D01*
X0167749Y0202167D01*
X0167630Y0202157D01*
X0167596Y0202155D01*
X0163946Y0202155D01*
X0163717Y0202230D01*
X0163689Y0202253D01*
X0163366Y0202537D01*
X0162855Y0202777D01*
X0162828Y0202782D01*
X0162828Y0202782D01*
X0162507Y0202832D01*
X0162297Y0202864D01*
X0162270Y0202861D01*
X0162270Y0202861D01*
X0161839Y0202804D01*
X0161738Y0202791D01*
X0161712Y0202780D01*
X0161712Y0202780D01*
X0161506Y0202689D01*
X0161221Y0202564D01*
X0161067Y0202434D01*
X0160810Y0202218D01*
X0160810Y0202218D01*
X0160789Y0202201D01*
X0160774Y0202177D01*
X0160774Y0202177D01*
X0160747Y0202137D01*
X0160476Y0201731D01*
X0160353Y0201335D01*
X0160316Y0201218D01*
X0160316Y0201218D01*
X0160308Y0201192D01*
X0160303Y0200910D01*
X0160298Y0200655D01*
X0160298Y0200655D01*
X0160298Y0200628D01*
X0160305Y0200601D01*
X0160305Y0200601D01*
X0160387Y0200300D01*
X0160446Y0200083D01*
X0160741Y0199602D01*
X0160774Y0199573D01*
X0161139Y0199242D01*
X0161160Y0199223D01*
X0161668Y0198977D01*
X0161718Y0198969D01*
X0162210Y0198886D01*
X0162210Y0198886D01*
X0162224Y0198883D01*
X0162273Y0198883D01*
X0162832Y0198963D01*
X0163346Y0199197D01*
X0163695Y0199498D01*
X0163917Y0199591D01*
X0163950Y0199592D01*
X0166977Y0199592D01*
X0167206Y0199518D01*
X0167253Y0199478D01*
X0168943Y0197787D01*
X0168966Y0197762D01*
X0169038Y0197677D01*
X0169065Y0197645D01*
X0169197Y0197569D01*
X0169226Y0197550D01*
X0169270Y0197519D01*
X0169351Y0197463D01*
X0169384Y0197454D01*
X0169405Y0197444D01*
X0169427Y0197436D01*
X0169456Y0197419D01*
X0169607Y0197393D01*
X0169640Y0197385D01*
X0169755Y0197354D01*
X0169788Y0197346D01*
X0169940Y0197359D01*
X0169974Y0197360D01*
X0171086Y0197360D01*
X0171316Y0197286D01*
X0171457Y0197091D01*
X0171457Y0196850D01*
X0171362Y0196695D01*
G37*
G36*
X0155947Y0220746D02*
G01*
X0155797Y0220558D01*
X0155583Y0220494D01*
X0150056Y0220494D01*
X0149827Y0220569D01*
X0149686Y0220764D01*
X0149666Y0220884D01*
X0149666Y0238983D01*
X0149668Y0239017D01*
X0149678Y0239135D01*
X0149681Y0239169D01*
X0149672Y0239202D01*
X0149642Y0239317D01*
X0149634Y0239350D01*
X0149614Y0239467D01*
X0149614Y0239467D01*
X0149608Y0239501D01*
X0149591Y0239530D01*
X0149583Y0239552D01*
X0149573Y0239573D01*
X0149564Y0239606D01*
X0149511Y0239682D01*
X0149477Y0239731D01*
X0149458Y0239760D01*
X0149382Y0239892D01*
X0149280Y0239977D01*
X0149265Y0239990D01*
X0149240Y0240013D01*
X0147675Y0241578D01*
X0147565Y0241793D01*
X0147561Y0241854D01*
X0147561Y0243644D01*
X0147635Y0243873D01*
X0147830Y0244015D01*
X0148071Y0244015D01*
X0148210Y0243935D01*
X0148240Y0243909D01*
X0148409Y0243758D01*
X0148435Y0243744D01*
X0148545Y0243686D01*
X0148995Y0243448D01*
X0149356Y0243357D01*
X0149615Y0243292D01*
X0149615Y0243292D01*
X0149638Y0243286D01*
X0150023Y0243284D01*
X0150277Y0243283D01*
X0150277Y0243283D01*
X0150301Y0243283D01*
X0150946Y0243437D01*
X0151339Y0243640D01*
X0151514Y0243731D01*
X0151514Y0243731D01*
X0151535Y0243741D01*
X0152034Y0244177D01*
X0152067Y0244224D01*
X0152402Y0244701D01*
X0152402Y0244701D01*
X0152416Y0244720D01*
X0152629Y0245266D01*
X0152648Y0245316D01*
X0152648Y0245316D01*
X0152657Y0245338D01*
X0152660Y0245361D01*
X0152660Y0245361D01*
X0152721Y0245831D01*
X0152723Y0245843D01*
X0152723Y0246190D01*
X0152722Y0246202D01*
X0152722Y0246202D01*
X0152666Y0246659D01*
X0152666Y0246659D01*
X0152664Y0246682D01*
X0152655Y0246704D01*
X0152655Y0246704D01*
X0152629Y0246774D01*
X0152429Y0247302D01*
X0152416Y0247322D01*
X0152416Y0247322D01*
X0152259Y0247550D01*
X0152054Y0247849D01*
X0151559Y0248290D01*
X0151538Y0248301D01*
X0151538Y0248301D01*
X0151514Y0248313D01*
X0150973Y0248600D01*
X0150759Y0248654D01*
X0150364Y0248753D01*
X0150330Y0248761D01*
X0150306Y0248762D01*
X0149726Y0248765D01*
X0149667Y0248765D01*
X0149022Y0248610D01*
X0148710Y0248449D01*
X0148434Y0248307D01*
X0148197Y0248268D01*
X0147981Y0248376D01*
X0147926Y0248445D01*
X0147851Y0248564D01*
X0147795Y0248653D01*
X0147774Y0248671D01*
X0147774Y0248671D01*
X0147393Y0249008D01*
X0147393Y0249008D01*
X0147372Y0249026D01*
X0147347Y0249038D01*
X0147347Y0249038D01*
X0147328Y0249047D01*
X0146861Y0249266D01*
X0146834Y0249270D01*
X0146834Y0249270D01*
X0146610Y0249305D01*
X0146327Y0249349D01*
X0146306Y0249353D01*
X0146090Y0249462D01*
X0140786Y0254766D01*
X0140677Y0254981D01*
X0140672Y0255044D01*
X0140672Y0255126D01*
X0140672Y0255126D01*
X0140673Y0255154D01*
X0140665Y0255180D01*
X0140609Y0255376D01*
X0140618Y0255617D01*
X0140766Y0255807D01*
X0140998Y0255873D01*
X0141048Y0255868D01*
X0141055Y0255867D01*
X0141367Y0255814D01*
X0141415Y0255814D01*
X0141415Y0255809D01*
X0141630Y0255754D01*
X0141720Y0255675D01*
X0141747Y0255644D01*
X0141769Y0255617D01*
X0141902Y0255541D01*
X0141930Y0255523D01*
X0141970Y0255495D01*
X0142055Y0255435D01*
X0142088Y0255426D01*
X0142109Y0255416D01*
X0142131Y0255409D01*
X0142160Y0255392D01*
X0142311Y0255365D01*
X0142344Y0255358D01*
X0142459Y0255327D01*
X0142459Y0255327D01*
X0142492Y0255318D01*
X0142644Y0255331D01*
X0142678Y0255333D01*
X0152626Y0255333D01*
X0152855Y0255258D01*
X0152902Y0255219D01*
X0154449Y0253671D01*
X0154559Y0253457D01*
X0154563Y0253396D01*
X0154563Y0251590D01*
X0154489Y0251361D01*
X0154449Y0251314D01*
X0154352Y0251218D01*
X0154327Y0251195D01*
X0154210Y0251096D01*
X0154169Y0251025D01*
X0154134Y0250964D01*
X0154115Y0250935D01*
X0154028Y0250810D01*
X0154019Y0250777D01*
X0154009Y0250756D01*
X0154001Y0250735D01*
X0153984Y0250705D01*
X0153978Y0250671D01*
X0153978Y0250671D01*
X0153958Y0250554D01*
X0153950Y0250521D01*
X0153911Y0250373D01*
X0153924Y0250221D01*
X0153926Y0250187D01*
X0153926Y0224406D01*
X0153924Y0224372D01*
X0153911Y0224219D01*
X0153950Y0224072D01*
X0153958Y0224038D01*
X0153978Y0223921D01*
X0153978Y0223921D01*
X0153984Y0223888D01*
X0154001Y0223858D01*
X0154009Y0223837D01*
X0154019Y0223816D01*
X0154028Y0223783D01*
X0154115Y0223658D01*
X0154134Y0223629D01*
X0154169Y0223567D01*
X0154210Y0223496D01*
X0154327Y0223398D01*
X0154352Y0223375D01*
X0155710Y0222018D01*
X0155819Y0221803D01*
X0155824Y0221735D01*
X0155822Y0221669D01*
X0155820Y0221527D01*
X0155820Y0221527D01*
X0155819Y0221499D01*
X0155827Y0221472D01*
X0155827Y0221472D01*
X0155959Y0220987D01*
X0155947Y0220746D01*
G37*
G36*
X0160938Y0266333D02*
G01*
X0160747Y0266186D01*
X0160616Y0266164D01*
X0159865Y0266164D01*
X0159636Y0266238D01*
X0159589Y0266278D01*
X0158139Y0267728D01*
X0158116Y0267753D01*
X0158018Y0267870D01*
X0157885Y0267947D01*
X0157857Y0267965D01*
X0157731Y0268053D01*
X0157698Y0268062D01*
X0157678Y0268071D01*
X0157656Y0268079D01*
X0157626Y0268096D01*
X0157593Y0268102D01*
X0157593Y0268102D01*
X0157476Y0268123D01*
X0157443Y0268130D01*
X0157295Y0268170D01*
X0157261Y0268167D01*
X0157142Y0268156D01*
X0157108Y0268155D01*
X0151690Y0268155D01*
X0151656Y0268156D01*
X0151503Y0268170D01*
X0151471Y0268161D01*
X0151356Y0268130D01*
X0151322Y0268123D01*
X0151236Y0268108D01*
X0151172Y0268096D01*
X0151142Y0268079D01*
X0151121Y0268071D01*
X0151100Y0268062D01*
X0151067Y0268053D01*
X0150993Y0268001D01*
X0150942Y0267965D01*
X0150913Y0267947D01*
X0150780Y0267870D01*
X0150742Y0267825D01*
X0150682Y0267753D01*
X0150659Y0267728D01*
X0149332Y0266401D01*
X0149118Y0266292D01*
X0148880Y0266330D01*
X0148710Y0266500D01*
X0148670Y0266630D01*
X0148669Y0266638D01*
X0148666Y0266659D01*
X0148666Y0266659D01*
X0148664Y0266682D01*
X0148655Y0266704D01*
X0148655Y0266704D01*
X0148584Y0266893D01*
X0148429Y0267302D01*
X0148416Y0267322D01*
X0148416Y0267322D01*
X0148210Y0267622D01*
X0148054Y0267849D01*
X0147559Y0268290D01*
X0146973Y0268600D01*
X0146950Y0268606D01*
X0146950Y0268606D01*
X0146814Y0268640D01*
X0146610Y0268768D01*
X0146520Y0268991D01*
X0146579Y0269225D01*
X0146764Y0269380D01*
X0146909Y0269408D01*
X0160387Y0269408D01*
X0160616Y0269333D01*
X0160758Y0269138D01*
X0160758Y0268897D01*
X0160747Y0268869D01*
X0160686Y0268721D01*
X0160620Y0268563D01*
X0160617Y0268537D01*
X0160617Y0268537D01*
X0160549Y0268022D01*
X0160546Y0267997D01*
X0160549Y0267972D01*
X0160617Y0267457D01*
X0160617Y0267457D01*
X0160620Y0267431D01*
X0160839Y0266904D01*
X0160854Y0266884D01*
X0160854Y0266884D01*
X0160926Y0266791D01*
X0161006Y0266564D01*
X0160938Y0266333D01*
G37*
G36*
X0164184Y0217259D02*
G01*
X0164181Y0217257D01*
X0164111Y0217174D01*
X0164083Y0217140D01*
X0164060Y0217115D01*
X0162632Y0215687D01*
X0162418Y0215578D01*
X0162357Y0215573D01*
X0151273Y0215573D01*
X0151239Y0215574D01*
X0151087Y0215588D01*
X0151054Y0215579D01*
X0150939Y0215548D01*
X0150906Y0215541D01*
X0150809Y0215524D01*
X0150755Y0215514D01*
X0150726Y0215497D01*
X0150704Y0215489D01*
X0150683Y0215480D01*
X0150650Y0215471D01*
X0150535Y0215390D01*
X0150525Y0215383D01*
X0150496Y0215365D01*
X0150364Y0215288D01*
X0150342Y0215262D01*
X0150316Y0215240D01*
X0150309Y0215249D01*
X0150150Y0215150D01*
X0149910Y0215167D01*
X0149726Y0215322D01*
X0149666Y0215528D01*
X0149666Y0217541D01*
X0149741Y0217771D01*
X0149936Y0217912D01*
X0150056Y0217931D01*
X0163923Y0217931D01*
X0164152Y0217857D01*
X0164294Y0217662D01*
X0164294Y0217421D01*
X0164184Y0217259D01*
G37*
G36*
X0176504Y0172863D02*
G01*
X0176286Y0172761D01*
X0176238Y0172758D01*
X0168695Y0172758D01*
X0168661Y0172760D01*
X0168508Y0172773D01*
X0168475Y0172764D01*
X0168360Y0172733D01*
X0168327Y0172726D01*
X0168219Y0172707D01*
X0168177Y0172699D01*
X0168147Y0172682D01*
X0168125Y0172674D01*
X0168105Y0172665D01*
X0168072Y0172656D01*
X0167964Y0172580D01*
X0167946Y0172568D01*
X0167918Y0172550D01*
X0167785Y0172473D01*
X0167704Y0172376D01*
X0167687Y0172356D01*
X0167664Y0172331D01*
X0164760Y0169427D01*
X0164545Y0169318D01*
X0164484Y0169313D01*
X0154941Y0169313D01*
X0154712Y0169388D01*
X0154683Y0169411D01*
X0154360Y0169696D01*
X0153849Y0169935D01*
X0153822Y0169940D01*
X0153822Y0169940D01*
X0153622Y0169971D01*
X0153292Y0170022D01*
X0153264Y0170019D01*
X0153264Y0170019D01*
X0152765Y0169953D01*
X0152732Y0169949D01*
X0152706Y0169938D01*
X0152706Y0169938D01*
X0152259Y0169741D01*
X0152215Y0169722D01*
X0152054Y0169586D01*
X0151804Y0169376D01*
X0151804Y0169376D01*
X0151783Y0169359D01*
X0151768Y0169335D01*
X0151768Y0169335D01*
X0151523Y0168967D01*
X0151334Y0168818D01*
X0151093Y0168808D01*
X0150893Y0168941D01*
X0150809Y0169183D01*
X0150809Y0170044D01*
X0150883Y0170273D01*
X0150923Y0170320D01*
X0175828Y0195225D01*
X0176043Y0195335D01*
X0176281Y0195297D01*
X0176451Y0195127D01*
X0176494Y0194950D01*
X0176494Y0173912D01*
X0176492Y0173878D01*
X0176479Y0173725D01*
X0176490Y0173683D01*
X0176518Y0173578D01*
X0176526Y0173544D01*
X0176546Y0173427D01*
X0176546Y0173427D01*
X0176552Y0173394D01*
X0176569Y0173364D01*
X0176577Y0173343D01*
X0176587Y0173322D01*
X0176593Y0173300D01*
X0176593Y0173297D01*
X0176594Y0173295D01*
X0176596Y0173289D01*
X0176594Y0173288D01*
X0176621Y0173073D01*
X0176504Y0172863D01*
G37*
G36*
X0173634Y0162094D02*
G01*
X0173440Y0161951D01*
X0173318Y0161931D01*
X0156413Y0161931D01*
X0156184Y0162006D01*
X0156042Y0162201D01*
X0156023Y0162321D01*
X0156023Y0164193D01*
X0155698Y0164193D01*
X0155469Y0164267D01*
X0155364Y0164384D01*
X0155357Y0164400D01*
X0155342Y0164420D01*
X0155342Y0164421D01*
X0155140Y0164683D01*
X0155010Y0164853D01*
X0154557Y0165200D01*
X0154030Y0165419D01*
X0154005Y0165422D01*
X0153980Y0165429D01*
X0153983Y0165439D01*
X0153807Y0165523D01*
X0153692Y0165735D01*
X0153723Y0165974D01*
X0153889Y0166148D01*
X0153914Y0166161D01*
X0154314Y0166343D01*
X0154315Y0166343D01*
X0154340Y0166355D01*
X0154689Y0166656D01*
X0154911Y0166749D01*
X0154944Y0166750D01*
X0165104Y0166750D01*
X0165138Y0166749D01*
X0165256Y0166738D01*
X0165290Y0166735D01*
X0165438Y0166775D01*
X0165471Y0166782D01*
X0165588Y0166803D01*
X0165588Y0166803D01*
X0165622Y0166809D01*
X0165651Y0166826D01*
X0165673Y0166834D01*
X0165694Y0166843D01*
X0165727Y0166852D01*
X0165852Y0166940D01*
X0165881Y0166958D01*
X0165932Y0166988D01*
X0166013Y0167035D01*
X0166111Y0167152D01*
X0166134Y0167177D01*
X0169038Y0170081D01*
X0169253Y0170190D01*
X0169314Y0170195D01*
X0170344Y0170195D01*
X0170573Y0170121D01*
X0170715Y0169926D01*
X0170715Y0169685D01*
X0170573Y0169490D01*
X0170501Y0169449D01*
X0170227Y0169328D01*
X0170166Y0169277D01*
X0169816Y0168983D01*
X0169816Y0168983D01*
X0169795Y0168965D01*
X0169780Y0168942D01*
X0169780Y0168942D01*
X0169755Y0168904D01*
X0169482Y0168495D01*
X0169370Y0168137D01*
X0169322Y0167983D01*
X0169322Y0167983D01*
X0169314Y0167956D01*
X0169309Y0167674D01*
X0169304Y0167420D01*
X0169304Y0167420D01*
X0169304Y0167392D01*
X0169311Y0167365D01*
X0169311Y0167365D01*
X0169406Y0167015D01*
X0169452Y0166847D01*
X0169747Y0166366D01*
X0169780Y0166337D01*
X0170145Y0166006D01*
X0170166Y0165988D01*
X0170674Y0165741D01*
X0171230Y0165648D01*
X0171279Y0165647D01*
X0171738Y0165713D01*
X0171975Y0165672D01*
X0172143Y0165499D01*
X0172177Y0165260D01*
X0172165Y0165211D01*
X0172078Y0164932D01*
X0172078Y0164932D01*
X0172070Y0164905D01*
X0172065Y0164623D01*
X0172060Y0164368D01*
X0172060Y0164368D01*
X0172059Y0164341D01*
X0172067Y0164314D01*
X0172067Y0164314D01*
X0172177Y0163908D01*
X0172208Y0163796D01*
X0172503Y0163315D01*
X0172922Y0162936D01*
X0173430Y0162690D01*
X0173442Y0162688D01*
X0173632Y0162552D01*
X0173707Y0162323D01*
X0173634Y0162094D01*
G37*
G36*
X0179549Y0260440D02*
G01*
X0179354Y0260298D01*
X0179113Y0260298D01*
X0178918Y0260440D01*
X0178859Y0260562D01*
X0178850Y0260592D01*
X0178850Y0260592D01*
X0178843Y0260619D01*
X0178828Y0260642D01*
X0178606Y0260994D01*
X0178542Y0261096D01*
X0178521Y0261114D01*
X0178521Y0261114D01*
X0178139Y0261451D01*
X0178139Y0261451D01*
X0178118Y0261470D01*
X0177608Y0261710D01*
X0177580Y0261714D01*
X0177580Y0261714D01*
X0177358Y0261749D01*
X0177050Y0261796D01*
X0177022Y0261793D01*
X0177022Y0261793D01*
X0176796Y0261763D01*
X0176490Y0261723D01*
X0176465Y0261712D01*
X0176465Y0261712D01*
X0176009Y0261512D01*
X0175974Y0261496D01*
X0175806Y0261355D01*
X0175563Y0261151D01*
X0175563Y0261151D01*
X0175541Y0261133D01*
X0175229Y0260663D01*
X0175105Y0260267D01*
X0175069Y0260151D01*
X0175069Y0260151D01*
X0175060Y0260124D01*
X0175055Y0259842D01*
X0175051Y0259588D01*
X0175051Y0259588D01*
X0175050Y0259560D01*
X0175057Y0259533D01*
X0175057Y0259533D01*
X0175138Y0259237D01*
X0175198Y0259015D01*
X0175494Y0258534D01*
X0175516Y0258514D01*
X0175616Y0258424D01*
X0175736Y0258215D01*
X0175744Y0258135D01*
X0175744Y0257331D01*
X0175670Y0257102D01*
X0175630Y0257055D01*
X0172017Y0253442D01*
X0171992Y0253419D01*
X0171874Y0253321D01*
X0171798Y0253188D01*
X0171780Y0253160D01*
X0171692Y0253034D01*
X0171683Y0253001D01*
X0171673Y0252980D01*
X0171665Y0252959D01*
X0171648Y0252929D01*
X0171643Y0252896D01*
X0171643Y0252896D01*
X0171622Y0252779D01*
X0171615Y0252746D01*
X0171600Y0252691D01*
X0171575Y0252598D01*
X0171588Y0252445D01*
X0171590Y0252411D01*
X0171590Y0230548D01*
X0171572Y0230432D01*
X0171470Y0230106D01*
X0171470Y0230106D01*
X0171462Y0230080D01*
X0171457Y0229798D01*
X0171452Y0229543D01*
X0171452Y0229543D01*
X0171452Y0229516D01*
X0171459Y0229489D01*
X0171459Y0229489D01*
X0171575Y0229063D01*
X0171600Y0228971D01*
X0171895Y0228490D01*
X0172005Y0228391D01*
X0172293Y0228130D01*
X0172314Y0228111D01*
X0172463Y0228039D01*
X0172636Y0227872D01*
X0172679Y0227635D01*
X0172568Y0227413D01*
X0165764Y0220608D01*
X0165549Y0220499D01*
X0165488Y0220494D01*
X0160001Y0220494D01*
X0159772Y0220569D01*
X0159630Y0220764D01*
X0159628Y0220996D01*
X0159702Y0221244D01*
X0159764Y0221451D01*
X0159764Y0221540D01*
X0159765Y0221744D01*
X0159841Y0221973D01*
X0159880Y0222018D01*
X0161602Y0223740D01*
X0161627Y0223763D01*
X0161712Y0223834D01*
X0161744Y0223861D01*
X0161821Y0223994D01*
X0161839Y0224023D01*
X0161846Y0224032D01*
X0161927Y0224148D01*
X0161936Y0224181D01*
X0161945Y0224202D01*
X0161953Y0224223D01*
X0161970Y0224253D01*
X0161976Y0224286D01*
X0161976Y0224286D01*
X0161997Y0224403D01*
X0162004Y0224437D01*
X0162035Y0224551D01*
X0162044Y0224584D01*
X0162041Y0224618D01*
X0162031Y0224737D01*
X0162029Y0224771D01*
X0162029Y0230343D01*
X0162103Y0230572D01*
X0162298Y0230714D01*
X0162539Y0230714D01*
X0162680Y0230632D01*
X0162905Y0230429D01*
X0162926Y0230410D01*
X0163434Y0230164D01*
X0163484Y0230155D01*
X0163975Y0230073D01*
X0163975Y0230073D01*
X0163990Y0230070D01*
X0164005Y0230070D01*
X0164020Y0230069D01*
X0164020Y0230065D01*
X0164231Y0229993D01*
X0164370Y0229796D01*
X0164388Y0229673D01*
X0164387Y0229626D01*
X0164385Y0229521D01*
X0164385Y0229521D01*
X0164385Y0229493D01*
X0164392Y0229466D01*
X0164392Y0229466D01*
X0164512Y0229027D01*
X0164500Y0228786D01*
X0164343Y0228595D01*
X0164321Y0228585D01*
X0164300Y0228568D01*
X0164300Y0228568D01*
X0163911Y0228240D01*
X0163911Y0228240D01*
X0163889Y0228222D01*
X0163874Y0228199D01*
X0163874Y0228199D01*
X0163791Y0228074D01*
X0163577Y0227752D01*
X0163461Y0227382D01*
X0163417Y0227240D01*
X0163417Y0227240D01*
X0163408Y0227214D01*
X0163403Y0226931D01*
X0163398Y0226677D01*
X0163398Y0226677D01*
X0163398Y0226649D01*
X0163405Y0226622D01*
X0163405Y0226622D01*
X0163503Y0226262D01*
X0163546Y0226105D01*
X0163842Y0225624D01*
X0163874Y0225595D01*
X0164240Y0225264D01*
X0164260Y0225245D01*
X0164646Y0225058D01*
X0164743Y0225011D01*
X0164768Y0224999D01*
X0164839Y0224987D01*
X0165310Y0224908D01*
X0165310Y0224908D01*
X0165325Y0224905D01*
X0165373Y0224905D01*
X0165932Y0224985D01*
X0166266Y0225136D01*
X0166421Y0225207D01*
X0166421Y0225207D01*
X0166446Y0225218D01*
X0166757Y0225486D01*
X0166852Y0225569D01*
X0166852Y0225569D01*
X0166874Y0225587D01*
X0167181Y0226060D01*
X0167342Y0226601D01*
X0167344Y0226929D01*
X0167346Y0227138D01*
X0167346Y0227138D01*
X0167346Y0227165D01*
X0167221Y0227601D01*
X0167230Y0227842D01*
X0167386Y0228037D01*
X0167407Y0228051D01*
X0167433Y0228062D01*
X0167781Y0228362D01*
X0167839Y0228412D01*
X0167839Y0228412D01*
X0167860Y0228431D01*
X0168167Y0228904D01*
X0168329Y0229445D01*
X0168331Y0229773D01*
X0168332Y0229982D01*
X0168332Y0229982D01*
X0168332Y0230009D01*
X0168325Y0230036D01*
X0168325Y0230036D01*
X0168185Y0230525D01*
X0168185Y0230525D01*
X0168177Y0230552D01*
X0167876Y0231029D01*
X0167855Y0231048D01*
X0167855Y0231048D01*
X0167474Y0231385D01*
X0167474Y0231385D01*
X0167453Y0231403D01*
X0167428Y0231415D01*
X0167428Y0231415D01*
X0167353Y0231450D01*
X0166942Y0231643D01*
X0166915Y0231647D01*
X0166915Y0231647D01*
X0166674Y0231685D01*
X0166384Y0231730D01*
X0166383Y0231730D01*
X0166167Y0231803D01*
X0166027Y0232000D01*
X0166010Y0232118D01*
X0166011Y0232303D01*
X0166011Y0232303D01*
X0166011Y0232331D01*
X0166004Y0232357D01*
X0166004Y0232357D01*
X0165864Y0232847D01*
X0165864Y0232847D01*
X0165856Y0232873D01*
X0165555Y0233351D01*
X0165534Y0233369D01*
X0165534Y0233369D01*
X0165153Y0233706D01*
X0165153Y0233706D01*
X0165132Y0233724D01*
X0164621Y0233964D01*
X0164593Y0233969D01*
X0164593Y0233969D01*
X0164252Y0234022D01*
X0164063Y0234051D01*
X0164036Y0234047D01*
X0164036Y0234047D01*
X0163614Y0233992D01*
X0163503Y0233978D01*
X0163478Y0233967D01*
X0163478Y0233967D01*
X0163320Y0233897D01*
X0162987Y0233751D01*
X0162680Y0233493D01*
X0162670Y0233484D01*
X0162446Y0233393D01*
X0162213Y0233452D01*
X0162058Y0233636D01*
X0162029Y0233782D01*
X0162029Y0235253D01*
X0162103Y0235482D01*
X0162143Y0235528D01*
X0163472Y0236857D01*
X0163497Y0236880D01*
X0163544Y0236919D01*
X0163614Y0236979D01*
X0163691Y0237111D01*
X0163709Y0237140D01*
X0163730Y0237170D01*
X0163797Y0237265D01*
X0163806Y0237298D01*
X0163816Y0237319D01*
X0163823Y0237341D01*
X0163840Y0237370D01*
X0163846Y0237404D01*
X0163846Y0237404D01*
X0163867Y0237521D01*
X0163874Y0237554D01*
X0163878Y0237568D01*
X0163889Y0237610D01*
X0163905Y0237669D01*
X0163914Y0237702D01*
X0163911Y0237736D01*
X0163901Y0237854D01*
X0163899Y0237888D01*
X0163899Y0257585D01*
X0163901Y0257619D01*
X0163911Y0257738D01*
X0163914Y0257772D01*
X0163905Y0257805D01*
X0163889Y0257864D01*
X0163878Y0257906D01*
X0163874Y0257920D01*
X0163867Y0257953D01*
X0163846Y0258070D01*
X0163846Y0258070D01*
X0163840Y0258104D01*
X0163823Y0258133D01*
X0163816Y0258155D01*
X0163806Y0258175D01*
X0163797Y0258208D01*
X0163730Y0258304D01*
X0163709Y0258334D01*
X0163691Y0258362D01*
X0163614Y0258495D01*
X0163531Y0258565D01*
X0163497Y0258593D01*
X0163472Y0258616D01*
X0159153Y0262935D01*
X0159044Y0263150D01*
X0159082Y0263388D01*
X0159252Y0263558D01*
X0159429Y0263601D01*
X0163544Y0263601D01*
X0163578Y0263599D01*
X0163696Y0263589D01*
X0163730Y0263586D01*
X0163878Y0263625D01*
X0163911Y0263633D01*
X0164028Y0263653D01*
X0164028Y0263653D01*
X0164062Y0263659D01*
X0164091Y0263676D01*
X0164113Y0263684D01*
X0164134Y0263694D01*
X0164167Y0263703D01*
X0164292Y0263790D01*
X0164321Y0263809D01*
X0164328Y0263813D01*
X0164453Y0263885D01*
X0164552Y0264002D01*
X0164575Y0264027D01*
X0166266Y0265719D01*
X0166480Y0265828D01*
X0166592Y0265829D01*
X0166732Y0265811D01*
X0167055Y0265853D01*
X0167272Y0265882D01*
X0167272Y0265882D01*
X0167298Y0265885D01*
X0167825Y0266104D01*
X0168278Y0266451D01*
X0168625Y0266904D01*
X0168843Y0267431D01*
X0168847Y0267457D01*
X0168847Y0267457D01*
X0168914Y0267972D01*
X0168918Y0267997D01*
X0168914Y0268022D01*
X0168847Y0268537D01*
X0168847Y0268537D01*
X0168843Y0268563D01*
X0168797Y0268674D01*
X0168717Y0268869D01*
X0168698Y0269109D01*
X0168824Y0269314D01*
X0169046Y0269406D01*
X0169077Y0269408D01*
X0173363Y0269408D01*
X0173592Y0269333D01*
X0173734Y0269138D01*
X0173734Y0268897D01*
X0173723Y0268869D01*
X0173650Y0268692D01*
X0173597Y0268563D01*
X0173593Y0268537D01*
X0173593Y0268537D01*
X0173525Y0268022D01*
X0173522Y0267997D01*
X0173525Y0267972D01*
X0173593Y0267457D01*
X0173593Y0267457D01*
X0173597Y0267431D01*
X0173815Y0266904D01*
X0174162Y0266451D01*
X0174615Y0266104D01*
X0175142Y0265885D01*
X0175244Y0265872D01*
X0175683Y0265814D01*
X0175708Y0265811D01*
X0175965Y0265845D01*
X0176202Y0265801D01*
X0176292Y0265734D01*
X0179509Y0262517D01*
X0179619Y0262302D01*
X0179624Y0262241D01*
X0179624Y0260669D01*
X0179549Y0260440D01*
G37*
G36*
X0180258Y0215778D02*
G01*
X0180218Y0215732D01*
X0176946Y0212460D01*
X0176732Y0212351D01*
X0176494Y0212388D01*
X0176323Y0212559D01*
X0176281Y0212736D01*
X0176281Y0213099D01*
X0176355Y0213328D01*
X0176416Y0213394D01*
X0176420Y0213398D01*
X0176420Y0213398D01*
X0176441Y0213416D01*
X0176748Y0213890D01*
X0176910Y0214430D01*
X0176912Y0214758D01*
X0176913Y0214967D01*
X0176913Y0214967D01*
X0176914Y0214995D01*
X0176906Y0215021D01*
X0176906Y0215021D01*
X0176766Y0215511D01*
X0176766Y0215511D01*
X0176758Y0215537D01*
X0176732Y0215580D01*
X0176488Y0215967D01*
X0176457Y0216015D01*
X0176436Y0216033D01*
X0176436Y0216033D01*
X0176055Y0216370D01*
X0176055Y0216370D01*
X0176034Y0216388D01*
X0175626Y0216580D01*
X0175450Y0216745D01*
X0175405Y0216981D01*
X0175516Y0217208D01*
X0175569Y0217262D01*
X0175594Y0217285D01*
X0175668Y0217346D01*
X0175712Y0217383D01*
X0175788Y0217515D01*
X0175806Y0217544D01*
X0175828Y0217575D01*
X0175894Y0217669D01*
X0175903Y0217702D01*
X0175913Y0217723D01*
X0175921Y0217745D01*
X0175938Y0217774D01*
X0175943Y0217808D01*
X0175943Y0217808D01*
X0175964Y0217925D01*
X0175971Y0217958D01*
X0176002Y0218073D01*
X0176011Y0218106D01*
X0176008Y0218140D01*
X0175998Y0218258D01*
X0175996Y0218292D01*
X0175996Y0219869D01*
X0176071Y0220098D01*
X0176110Y0220145D01*
X0176176Y0220210D01*
X0176390Y0220319D01*
X0176628Y0220281D01*
X0176808Y0220091D01*
X0176814Y0220068D01*
X0177109Y0219587D01*
X0177527Y0219209D01*
X0178035Y0218963D01*
X0178225Y0218931D01*
X0178577Y0218871D01*
X0178577Y0218871D01*
X0178592Y0218869D01*
X0178641Y0218868D01*
X0179199Y0218948D01*
X0179713Y0219182D01*
X0179733Y0219199D01*
X0179966Y0219260D01*
X0180190Y0219172D01*
X0180320Y0218969D01*
X0180332Y0218871D01*
X0180332Y0216007D01*
X0180258Y0215778D01*
G37*
G36*
X0189805Y0162092D02*
G01*
X0189610Y0161950D01*
X0189490Y0161931D01*
X0177510Y0161931D01*
X0177281Y0162006D01*
X0177139Y0162201D01*
X0177139Y0162441D01*
X0177281Y0162636D01*
X0177352Y0162671D01*
X0177350Y0162676D01*
X0177838Y0162898D01*
X0177838Y0162898D01*
X0177863Y0162910D01*
X0178291Y0163278D01*
X0178598Y0163752D01*
X0178760Y0164293D01*
X0178762Y0164620D01*
X0178763Y0164829D01*
X0178763Y0164829D01*
X0178763Y0164857D01*
X0178756Y0164884D01*
X0178756Y0164884D01*
X0178616Y0165373D01*
X0178616Y0165373D01*
X0178608Y0165400D01*
X0178307Y0165877D01*
X0178309Y0165878D01*
X0178225Y0166082D01*
X0178282Y0166316D01*
X0178291Y0166329D01*
X0178291Y0166329D01*
X0178521Y0166684D01*
X0178598Y0166803D01*
X0178668Y0167035D01*
X0178805Y0167234D01*
X0179032Y0167313D01*
X0179263Y0167244D01*
X0179317Y0167199D01*
X0180317Y0166199D01*
X0180426Y0165984D01*
X0180431Y0165916D01*
X0180429Y0165782D01*
X0180426Y0165648D01*
X0180426Y0165648D01*
X0180426Y0165620D01*
X0180433Y0165593D01*
X0180433Y0165593D01*
X0180554Y0165150D01*
X0180574Y0165076D01*
X0180869Y0164595D01*
X0180977Y0164497D01*
X0181267Y0164235D01*
X0181288Y0164216D01*
X0181796Y0163970D01*
X0181855Y0163960D01*
X0182338Y0163879D01*
X0182338Y0163879D01*
X0182352Y0163876D01*
X0182401Y0163876D01*
X0182960Y0163956D01*
X0183326Y0164122D01*
X0183448Y0164178D01*
X0183448Y0164178D01*
X0183474Y0164189D01*
X0183840Y0164505D01*
X0183880Y0164539D01*
X0183880Y0164540D01*
X0183901Y0164558D01*
X0184208Y0165031D01*
X0184370Y0165572D01*
X0184372Y0165900D01*
X0184373Y0166109D01*
X0184373Y0166109D01*
X0184373Y0166136D01*
X0184366Y0166163D01*
X0184366Y0166163D01*
X0184226Y0166652D01*
X0184226Y0166652D01*
X0184218Y0166679D01*
X0184203Y0166703D01*
X0184203Y0166703D01*
X0183935Y0167128D01*
X0183876Y0167362D01*
X0183965Y0167585D01*
X0184010Y0167631D01*
X0184077Y0167689D01*
X0184077Y0167689D01*
X0184098Y0167707D01*
X0184405Y0168181D01*
X0184567Y0168722D01*
X0184569Y0169049D01*
X0184570Y0169258D01*
X0184570Y0169258D01*
X0184570Y0169286D01*
X0184563Y0169313D01*
X0184563Y0169313D01*
X0184423Y0169802D01*
X0184423Y0169802D01*
X0184415Y0169829D01*
X0184114Y0170306D01*
X0184093Y0170325D01*
X0184093Y0170325D01*
X0183712Y0170661D01*
X0183712Y0170661D01*
X0183691Y0170680D01*
X0183180Y0170920D01*
X0183153Y0170924D01*
X0183153Y0170924D01*
X0182696Y0170995D01*
X0182622Y0171006D01*
X0182595Y0171003D01*
X0182580Y0171003D01*
X0182352Y0171080D01*
X0182309Y0171117D01*
X0182095Y0171331D01*
X0181986Y0171545D01*
X0182024Y0171783D01*
X0182194Y0171954D01*
X0182371Y0171996D01*
X0188876Y0171996D01*
X0188988Y0172018D01*
X0189069Y0172035D01*
X0189069Y0172035D01*
X0189107Y0172042D01*
X0189239Y0172130D01*
X0189273Y0172153D01*
X0189505Y0172219D01*
X0189731Y0172135D01*
X0189865Y0171935D01*
X0189879Y0171829D01*
X0189879Y0162321D01*
X0189805Y0162092D01*
G37*
G36*
X0186534Y0260394D02*
G01*
X0184657Y0258517D01*
X0184632Y0258494D01*
X0184515Y0258396D01*
X0184438Y0258263D01*
X0184420Y0258235D01*
X0184332Y0258109D01*
X0184323Y0258076D01*
X0184313Y0258055D01*
X0184306Y0258034D01*
X0184289Y0258004D01*
X0184262Y0257854D01*
X0184255Y0257820D01*
X0184224Y0257706D01*
X0184224Y0257706D01*
X0184215Y0257673D01*
X0184228Y0257520D01*
X0184230Y0257486D01*
X0184230Y0226791D01*
X0184155Y0226562D01*
X0183961Y0226420D01*
X0183720Y0226420D01*
X0183564Y0226515D01*
X0182886Y0227193D01*
X0182863Y0227218D01*
X0182808Y0227285D01*
X0182765Y0227336D01*
X0182633Y0227412D01*
X0182604Y0227430D01*
X0182479Y0227518D01*
X0182446Y0227527D01*
X0182425Y0227537D01*
X0182403Y0227544D01*
X0182374Y0227562D01*
X0182340Y0227567D01*
X0182340Y0227567D01*
X0182223Y0227588D01*
X0182190Y0227595D01*
X0182042Y0227635D01*
X0182008Y0227632D01*
X0181890Y0227622D01*
X0181856Y0227620D01*
X0179653Y0227620D01*
X0179423Y0227695D01*
X0179282Y0227890D01*
X0179282Y0228130D01*
X0179377Y0228286D01*
X0179811Y0228719D01*
X0179836Y0228742D01*
X0179911Y0228805D01*
X0179953Y0228841D01*
X0180030Y0228973D01*
X0180048Y0229002D01*
X0180070Y0229034D01*
X0180136Y0229127D01*
X0180144Y0229160D01*
X0180154Y0229181D01*
X0180162Y0229203D01*
X0180179Y0229232D01*
X0180185Y0229266D01*
X0180185Y0229266D01*
X0180206Y0229383D01*
X0180213Y0229416D01*
X0180244Y0229531D01*
X0180253Y0229564D01*
X0180250Y0229598D01*
X0180239Y0229716D01*
X0180238Y0229750D01*
X0180238Y0251297D01*
X0180312Y0251526D01*
X0180373Y0251592D01*
X0180435Y0251646D01*
X0180435Y0251646D01*
X0180456Y0251664D01*
X0180763Y0252138D01*
X0180925Y0252678D01*
X0180927Y0253006D01*
X0180928Y0253215D01*
X0180928Y0253215D01*
X0180929Y0253243D01*
X0180921Y0253269D01*
X0180921Y0253269D01*
X0180781Y0253759D01*
X0180781Y0253759D01*
X0180773Y0253785D01*
X0180472Y0254263D01*
X0180451Y0254281D01*
X0180451Y0254281D01*
X0180070Y0254618D01*
X0180070Y0254618D01*
X0180049Y0254636D01*
X0179953Y0254682D01*
X0179938Y0254689D01*
X0179762Y0254854D01*
X0179717Y0255090D01*
X0179828Y0255317D01*
X0181760Y0257249D01*
X0181785Y0257272D01*
X0181855Y0257332D01*
X0181902Y0257371D01*
X0181978Y0257503D01*
X0181997Y0257532D01*
X0182021Y0257566D01*
X0182084Y0257657D01*
X0182093Y0257690D01*
X0182103Y0257711D01*
X0182111Y0257732D01*
X0182128Y0257762D01*
X0182134Y0257795D01*
X0182134Y0257795D01*
X0182151Y0257895D01*
X0182154Y0257913D01*
X0182162Y0257946D01*
X0182193Y0258061D01*
X0182201Y0258094D01*
X0182198Y0258128D01*
X0182188Y0258246D01*
X0182187Y0258280D01*
X0182187Y0261339D01*
X0182261Y0261568D01*
X0182456Y0261710D01*
X0182576Y0261729D01*
X0184283Y0261729D01*
X0184512Y0261654D01*
X0184544Y0261628D01*
X0184559Y0261615D01*
X0184840Y0261360D01*
X0185308Y0261133D01*
X0185323Y0261126D01*
X0185348Y0261114D01*
X0185548Y0261080D01*
X0185890Y0261023D01*
X0185890Y0261023D01*
X0185905Y0261020D01*
X0185953Y0261020D01*
X0186203Y0261055D01*
X0186440Y0261014D01*
X0186608Y0260841D01*
X0186642Y0260603D01*
X0186534Y0260394D01*
G37*
G36*
X0189805Y0202939D02*
G01*
X0189610Y0202798D01*
X0189369Y0202798D01*
X0189174Y0202939D01*
X0189115Y0203061D01*
X0188988Y0203504D01*
X0188988Y0203504D01*
X0188981Y0203531D01*
X0188680Y0204008D01*
X0188659Y0204027D01*
X0188659Y0204027D01*
X0188277Y0204364D01*
X0188277Y0204364D01*
X0188256Y0204382D01*
X0187746Y0204622D01*
X0187718Y0204626D01*
X0187718Y0204626D01*
X0187434Y0204670D01*
X0187188Y0204709D01*
X0187160Y0204705D01*
X0187160Y0204705D01*
X0186715Y0204647D01*
X0186628Y0204635D01*
X0186603Y0204624D01*
X0186603Y0204624D01*
X0186164Y0204431D01*
X0186112Y0204408D01*
X0185862Y0204198D01*
X0185774Y0204125D01*
X0185551Y0204034D01*
X0185523Y0204033D01*
X0182722Y0204033D01*
X0182493Y0204108D01*
X0182351Y0204302D01*
X0182349Y0204535D01*
X0182485Y0204990D01*
X0182487Y0205318D01*
X0182488Y0205526D01*
X0182488Y0205526D01*
X0182488Y0205554D01*
X0182481Y0205581D01*
X0182481Y0205581D01*
X0182477Y0205594D01*
X0182434Y0205744D01*
X0182443Y0205985D01*
X0182533Y0206127D01*
X0183436Y0207030D01*
X0183651Y0207139D01*
X0183712Y0207144D01*
X0186147Y0207144D01*
X0186181Y0207142D01*
X0186299Y0207132D01*
X0186333Y0207129D01*
X0186366Y0207138D01*
X0186366Y0207138D01*
X0186481Y0207169D01*
X0186514Y0207176D01*
X0186608Y0207192D01*
X0186665Y0207203D01*
X0186695Y0207220D01*
X0186716Y0207227D01*
X0186737Y0207237D01*
X0186770Y0207246D01*
X0186895Y0207334D01*
X0186924Y0207352D01*
X0187056Y0207429D01*
X0187155Y0207546D01*
X0187178Y0207571D01*
X0188925Y0209318D01*
X0188950Y0209341D01*
X0188956Y0209346D01*
X0189067Y0209439D01*
X0189144Y0209572D01*
X0189162Y0209600D01*
X0189170Y0209612D01*
X0189363Y0209757D01*
X0189604Y0209762D01*
X0189801Y0209624D01*
X0189879Y0209389D01*
X0189879Y0203168D01*
X0189805Y0202939D01*
G37*
G36*
X0189805Y0265575D02*
G01*
X0189610Y0265434D01*
X0189369Y0265434D01*
X0189239Y0265506D01*
X0189225Y0265518D01*
X0189200Y0265540D01*
X0187980Y0266760D01*
X0187957Y0266785D01*
X0187859Y0266902D01*
X0187768Y0266955D01*
X0187727Y0266979D01*
X0187698Y0266997D01*
X0187573Y0267085D01*
X0187540Y0267094D01*
X0187519Y0267104D01*
X0187497Y0267111D01*
X0187468Y0267128D01*
X0187434Y0267134D01*
X0187434Y0267134D01*
X0187317Y0267155D01*
X0187284Y0267162D01*
X0187188Y0267188D01*
X0187136Y0267202D01*
X0187102Y0267199D01*
X0186984Y0267189D01*
X0186950Y0267187D01*
X0186322Y0267187D01*
X0186093Y0267262D01*
X0186046Y0267301D01*
X0185856Y0267492D01*
X0185746Y0267707D01*
X0185745Y0267818D01*
X0185765Y0267972D01*
X0185765Y0267972D01*
X0185768Y0267997D01*
X0185765Y0268022D01*
X0185697Y0268537D01*
X0185697Y0268537D01*
X0185694Y0268563D01*
X0185640Y0268692D01*
X0185567Y0268869D01*
X0185548Y0269109D01*
X0185674Y0269314D01*
X0185897Y0269406D01*
X0185927Y0269408D01*
X0189490Y0269408D01*
X0189719Y0269333D01*
X0189860Y0269138D01*
X0189879Y0269018D01*
X0189879Y0265804D01*
X0189805Y0265575D01*
G37*
G36*
X0189805Y0224674D02*
G01*
X0189610Y0224532D01*
X0189369Y0224532D01*
X0189170Y0224679D01*
X0189162Y0224691D01*
X0189144Y0224720D01*
X0189067Y0224852D01*
X0189041Y0224874D01*
X0188950Y0224951D01*
X0188925Y0224974D01*
X0186907Y0226992D01*
X0186798Y0227206D01*
X0186793Y0227267D01*
X0186793Y0256867D01*
X0186867Y0257096D01*
X0186907Y0257143D01*
X0189200Y0259436D01*
X0189225Y0259459D01*
X0189239Y0259470D01*
X0189462Y0259561D01*
X0189696Y0259502D01*
X0189851Y0259318D01*
X0189879Y0259172D01*
X0189879Y0224903D01*
X0189805Y0224674D01*
G37*
X0091654Y0270197D02*
%LPD*%
G01*
D10*
X0118819Y0211929D03*
X0114095Y0211929D03*
X0123544Y0211929D03*
X0128268Y0211929D03*
D11*
X0117766Y0269606D03*
D12*
X0093947Y0269606D03*
D13*
X0129449Y0241998D03*
D14*
X0092245Y0240374D03*
D15*
X0101939Y0211142D03*
D10*
X0102835Y0268721D03*
X0098898Y0268721D03*
D10*
X0119032Y0215834D03*
X0113898Y0267441D03*
X0120197Y0237126D03*
X0110355Y0213110D03*
X0127284Y0239488D03*
X0094213Y0243425D03*
X0094213Y0256024D03*
X0127284Y0253662D03*
X0127284Y0222166D03*
X0127284Y0267047D03*
X0096969Y0213110D03*
X0118229Y0249725D03*
X0113280Y0235481D03*
X0094213Y0219016D03*
X0102481Y0257205D03*
X0094213Y0236339D03*
X0102087Y0243819D03*
X0106418Y0226103D03*
X0096969Y0223740D03*
X0113111Y0258780D03*
X0094213Y0267441D03*
X0097756Y0231221D03*
X0108386Y0249331D03*
G36*
X0129867Y0214058D02*
G01*
X0129672Y0213917D01*
X0129552Y0213898D01*
X0112126Y0213898D01*
X0112126Y0213898D01*
X0112126Y0211040D01*
X0112052Y0210810D01*
X0111857Y0210669D01*
X0111737Y0210650D01*
X0092144Y0210650D01*
X0091915Y0210724D01*
X0091773Y0210919D01*
X0091754Y0211040D01*
X0091754Y0269707D01*
X0091829Y0269936D01*
X0092024Y0270078D01*
X0092144Y0270097D01*
X0095752Y0270097D01*
X0095982Y0270022D01*
X0096123Y0269827D01*
X0096142Y0269707D01*
X0096142Y0269084D01*
X0096141Y0269060D01*
X0096140Y0269055D01*
X0096140Y0268386D01*
X0096140Y0268386D01*
X0096300Y0267735D01*
X0096612Y0267142D01*
X0097056Y0266641D01*
X0097607Y0266261D01*
X0098233Y0266023D01*
X0098898Y0265942D01*
X0099563Y0266023D01*
X0100189Y0266261D01*
X0100645Y0266575D01*
X0100876Y0266644D01*
X0101088Y0266575D01*
X0101544Y0266261D01*
X0102170Y0266023D01*
X0102835Y0265942D01*
X0103500Y0266023D01*
X0104126Y0266261D01*
X0104677Y0266641D01*
X0105121Y0267142D01*
X0105433Y0267735D01*
X0105433Y0267735D01*
X0105433Y0267735D01*
X0105593Y0268386D01*
X0105593Y0268386D01*
X0105593Y0269055D01*
X0105592Y0269060D01*
X0105591Y0269084D01*
X0105591Y0269707D01*
X0105665Y0269936D01*
X0105860Y0270078D01*
X0105981Y0270097D01*
X0129552Y0270097D01*
X0129781Y0270022D01*
X0129922Y0269827D01*
X0129941Y0269707D01*
X0129941Y0214288D01*
X0129867Y0214058D01*
G37*
X0117244Y0205433D02*
G01*
G75*
G36*
X0129646Y0170213D02*
X0129520Y0170845D01*
X0129041Y0171561D01*
X0128885Y0171665D01*
X0128885Y0176163D01*
X0128778Y0176701D01*
X0128474Y0177157D01*
X0128099Y0177532D01*
X0128289Y0178177D01*
X0128767Y0178496D01*
X0129158Y0179082D01*
X0129296Y0179773D01*
X0129158Y0180464D01*
X0128767Y0181050D01*
X0128181Y0181442D01*
X0127490Y0181579D01*
X0126798Y0181442D01*
X0126523Y0181258D01*
X0125932Y0181574D01*
X0125932Y0183005D01*
X0126215Y0183288D01*
X0126520Y0183744D01*
X0126627Y0184281D01*
X0126627Y0187974D01*
X0126891Y0188369D01*
X0127028Y0189060D01*
X0126891Y0189751D01*
X0126499Y0190337D01*
X0125913Y0190729D01*
X0125222Y0190866D01*
X0124531Y0190729D01*
X0123945Y0190337D01*
X0123553Y0189751D01*
X0123416Y0189060D01*
X0123553Y0188369D01*
X0123817Y0187974D01*
X0123817Y0184863D01*
X0123534Y0184580D01*
X0123229Y0184124D01*
X0123122Y0183587D01*
X0123122Y0179116D01*
X0123229Y0178578D01*
X0123534Y0178123D01*
X0126075Y0175582D01*
X0126075Y0171665D01*
X0125919Y0171561D01*
X0125440Y0170845D01*
X0125272Y0170000D01*
X0122208Y0170000D01*
X0122040Y0170845D01*
X0121561Y0171561D01*
X0120845Y0172040D01*
X0120000Y0172208D01*
X0119155Y0172040D01*
X0118439Y0171561D01*
X0117960Y0170845D01*
X0117835Y0170213D01*
X0117244Y0170272D01*
X0117244Y0205433D01*
X0121466Y0205433D01*
X0121783Y0204940D01*
X0121549Y0204385D01*
X0121062Y0204482D01*
X0120371Y0204344D01*
X0119785Y0203953D01*
X0119393Y0203367D01*
X0119256Y0202676D01*
X0119393Y0201984D01*
X0119785Y0201398D01*
X0120371Y0201007D01*
X0121062Y0200869D01*
X0121753Y0201007D01*
X0122339Y0201398D01*
X0122620Y0201818D01*
X0122862Y0202020D01*
X0123368Y0202157D01*
X0123937Y0202044D01*
X0124782Y0202212D01*
X0125298Y0202557D01*
X0125709Y0202645D01*
X0126119Y0202557D01*
X0126635Y0202212D01*
X0127480Y0202044D01*
X0128325Y0202212D01*
X0129041Y0202691D01*
X0129520Y0203407D01*
X0129646Y0204039D01*
X0130236Y0203980D01*
X0130236Y0170271D01*
X0129646Y0170213D01*
D02*
G37*
%LPC*%
G36*
X0121905Y0194567D02*
X0121767Y0195258D01*
X0121376Y0195844D01*
X0120790Y0196236D01*
X0120098Y0196373D01*
X0119407Y0196236D01*
X0118821Y0195844D01*
X0118429Y0195258D01*
X0118292Y0194567D01*
X0118429Y0193876D01*
X0118821Y0193290D01*
X0119407Y0192898D01*
X0120098Y0192760D01*
X0120790Y0192898D01*
X0121376Y0193290D01*
X0121767Y0193876D01*
X0121905Y0194567D01*
D02*
G37*
%LPD*%
D17*
X0129842Y0187126D02*
D03*
X0117638Y0187126D02*
D03*
D16*
X0119705Y0205039D02*
D03*
D69*
X0127480Y0176163D02*
X0127480Y0170000D01*
X0124527Y0183587D02*
X0124527Y0179116D01*
X0127480Y0176163D01*
X0125222Y0189060D02*
X0125222Y0184281D01*
X0124527Y0183587D01*
D10*
X0127480Y0170000D02*
D03*
X0123740Y0170000D02*
D03*
X0125222Y0189060D02*
D03*
X0118529Y0204193D02*
D03*
X0123091Y0191491D02*
D03*
X0124147Y0194230D02*
D03*
M02*
