G04 #@! TF.GenerationSoftware,KiCad,Pcbnew,8.0.9-8.0.9-0~ubuntu24.04.1*
G04 #@! TF.CreationDate,2026-04-02T00:30:11+00:00*
G04 #@! TF.ProjectId,EP91Starlet,45503931-5374-4617-926c-65742e6b6963,rev?*
G04 #@! TF.SameCoordinates,Original*
G04 #@! TF.FileFunction,Legend,Top*
G04 #@! TF.FilePolarity,Positive*
%FSLAX46Y46*%
G04 Gerber Fmt 4.6, Leading zero omitted, Abs format (unit mm)*
G04 Created by KiCad (PCBNEW 8.0.9-8.0.9-0~ubuntu24.04.1) date 2026-04-02 00:30:11*
%MOMM*%
%LPD*%
G01*
G04 APERTURE LIST*
%ADD10C,0.150000*%
%ADD11C,0.250000*%
%ADD12C,0.254000*%
%ADD13C,0.200000*%
%ADD14C,0.120000*%
%ADD15C,0.127000*%
%ADD16C,0.150012*%
%ADD17C,0.100000*%
G04 APERTURE END LIST*
D10*
X-64333259Y44194426D02*
X-64333259Y44794426D01*
X-64333259Y44794426D02*
X-64133259Y44365855D01*
X-64133259Y44365855D02*
X-63933259Y44794426D01*
X-63933259Y44794426D02*
X-63933259Y44194426D01*
X-63390402Y44794426D02*
X-63504688Y44794426D01*
X-63504688Y44794426D02*
X-63561831Y44765855D01*
X-63561831Y44765855D02*
X-63590402Y44737283D01*
X-63590402Y44737283D02*
X-63647545Y44651569D01*
X-63647545Y44651569D02*
X-63676117Y44537283D01*
X-63676117Y44537283D02*
X-63676117Y44308712D01*
X-63676117Y44308712D02*
X-63647545Y44251569D01*
X-63647545Y44251569D02*
X-63618974Y44222997D01*
X-63618974Y44222997D02*
X-63561831Y44194426D01*
X-63561831Y44194426D02*
X-63447545Y44194426D01*
X-63447545Y44194426D02*
X-63390402Y44222997D01*
X-63390402Y44222997D02*
X-63361831Y44251569D01*
X-63361831Y44251569D02*
X-63333260Y44308712D01*
X-63333260Y44308712D02*
X-63333260Y44451569D01*
X-63333260Y44451569D02*
X-63361831Y44508712D01*
X-63361831Y44508712D02*
X-63390402Y44537283D01*
X-63390402Y44537283D02*
X-63447545Y44565855D01*
X-63447545Y44565855D02*
X-63561831Y44565855D01*
X-63561831Y44565855D02*
X-63618974Y44537283D01*
X-63618974Y44537283D02*
X-63647545Y44508712D01*
X-63647545Y44508712D02*
X-63676117Y44451569D01*
X-58943095Y76895181D02*
X-58943095Y77895181D01*
X-58943095Y77895181D02*
X-58705000Y77895181D01*
X-58705000Y77895181D02*
X-58562143Y77847562D01*
X-58562143Y77847562D02*
X-58466905Y77752324D01*
X-58466905Y77752324D02*
X-58419286Y77657086D01*
X-58419286Y77657086D02*
X-58371667Y77466610D01*
X-58371667Y77466610D02*
X-58371667Y77323753D01*
X-58371667Y77323753D02*
X-58419286Y77133277D01*
X-58419286Y77133277D02*
X-58466905Y77038039D01*
X-58466905Y77038039D02*
X-58562143Y76942800D01*
X-58562143Y76942800D02*
X-58705000Y76895181D01*
X-58705000Y76895181D02*
X-58943095Y76895181D01*
X-57895476Y76895181D02*
X-57705000Y76895181D01*
X-57705000Y76895181D02*
X-57609762Y76942800D01*
X-57609762Y76942800D02*
X-57562143Y76990420D01*
X-57562143Y76990420D02*
X-57466905Y77133277D01*
X-57466905Y77133277D02*
X-57419286Y77323753D01*
X-57419286Y77323753D02*
X-57419286Y77704705D01*
X-57419286Y77704705D02*
X-57466905Y77799943D01*
X-57466905Y77799943D02*
X-57514524Y77847562D01*
X-57514524Y77847562D02*
X-57609762Y77895181D01*
X-57609762Y77895181D02*
X-57800238Y77895181D01*
X-57800238Y77895181D02*
X-57895476Y77847562D01*
X-57895476Y77847562D02*
X-57943095Y77799943D01*
X-57943095Y77799943D02*
X-57990714Y77704705D01*
X-57990714Y77704705D02*
X-57990714Y77466610D01*
X-57990714Y77466610D02*
X-57943095Y77371372D01*
X-57943095Y77371372D02*
X-57895476Y77323753D01*
X-57895476Y77323753D02*
X-57800238Y77276134D01*
X-57800238Y77276134D02*
X-57609762Y77276134D01*
X-57609762Y77276134D02*
X-57514524Y77323753D01*
X-57514524Y77323753D02*
X-57466905Y77371372D01*
X-57466905Y77371372D02*
X-57419286Y77466610D01*
X88516666Y31175181D02*
X88516666Y30460896D01*
X88516666Y30460896D02*
X88469047Y30318039D01*
X88469047Y30318039D02*
X88373809Y30222800D01*
X88373809Y30222800D02*
X88230952Y30175181D01*
X88230952Y30175181D02*
X88135714Y30175181D01*
X88897619Y31175181D02*
X89516666Y31175181D01*
X89516666Y31175181D02*
X89183333Y30794229D01*
X89183333Y30794229D02*
X89326190Y30794229D01*
X89326190Y30794229D02*
X89421428Y30746610D01*
X89421428Y30746610D02*
X89469047Y30698991D01*
X89469047Y30698991D02*
X89516666Y30603753D01*
X89516666Y30603753D02*
X89516666Y30365658D01*
X89516666Y30365658D02*
X89469047Y30270420D01*
X89469047Y30270420D02*
X89421428Y30222800D01*
X89421428Y30222800D02*
X89326190Y30175181D01*
X89326190Y30175181D02*
X89040476Y30175181D01*
X89040476Y30175181D02*
X88945238Y30222800D01*
X88945238Y30222800D02*
X88897619Y30270420D01*
X-5482181Y56158096D02*
X-4672658Y56158096D01*
X-4672658Y56158096D02*
X-4577420Y56205715D01*
X-4577420Y56205715D02*
X-4529800Y56253334D01*
X-4529800Y56253334D02*
X-4482181Y56348572D01*
X-4482181Y56348572D02*
X-4482181Y56539048D01*
X-4482181Y56539048D02*
X-4529800Y56634286D01*
X-4529800Y56634286D02*
X-4577420Y56681905D01*
X-4577420Y56681905D02*
X-4672658Y56729524D01*
X-4672658Y56729524D02*
X-5482181Y56729524D01*
X-5482181Y57110477D02*
X-5482181Y57729524D01*
X-5482181Y57729524D02*
X-5101229Y57396191D01*
X-5101229Y57396191D02*
X-5101229Y57539048D01*
X-5101229Y57539048D02*
X-5053610Y57634286D01*
X-5053610Y57634286D02*
X-5005991Y57681905D01*
X-5005991Y57681905D02*
X-4910753Y57729524D01*
X-4910753Y57729524D02*
X-4672658Y57729524D01*
X-4672658Y57729524D02*
X-4577420Y57681905D01*
X-4577420Y57681905D02*
X-4529800Y57634286D01*
X-4529800Y57634286D02*
X-4482181Y57539048D01*
X-4482181Y57539048D02*
X-4482181Y57253334D01*
X-4482181Y57253334D02*
X-4529800Y57158096D01*
X-4529800Y57158096D02*
X-4577420Y57110477D01*
X70578095Y75817181D02*
X70578095Y75007658D01*
X70578095Y75007658D02*
X70625714Y74912420D01*
X70625714Y74912420D02*
X70673333Y74864800D01*
X70673333Y74864800D02*
X70768571Y74817181D01*
X70768571Y74817181D02*
X70959047Y74817181D01*
X70959047Y74817181D02*
X71054285Y74864800D01*
X71054285Y74864800D02*
X71101904Y74912420D01*
X71101904Y74912420D02*
X71149523Y75007658D01*
X71149523Y75007658D02*
X71149523Y75817181D01*
X72149523Y74817181D02*
X71578095Y74817181D01*
X71863809Y74817181D02*
X71863809Y75817181D01*
X71863809Y75817181D02*
X71768571Y75674324D01*
X71768571Y75674324D02*
X71673333Y75579086D01*
X71673333Y75579086D02*
X71578095Y75531467D01*
X-48702858Y72125181D02*
X-49036191Y72601372D01*
X-49274286Y72125181D02*
X-49274286Y73125181D01*
X-49274286Y73125181D02*
X-48893334Y73125181D01*
X-48893334Y73125181D02*
X-48798096Y73077562D01*
X-48798096Y73077562D02*
X-48750477Y73029943D01*
X-48750477Y73029943D02*
X-48702858Y72934705D01*
X-48702858Y72934705D02*
X-48702858Y72791848D01*
X-48702858Y72791848D02*
X-48750477Y72696610D01*
X-48750477Y72696610D02*
X-48798096Y72648991D01*
X-48798096Y72648991D02*
X-48893334Y72601372D01*
X-48893334Y72601372D02*
X-49274286Y72601372D01*
X-47750477Y72125181D02*
X-48321905Y72125181D01*
X-48036191Y72125181D02*
X-48036191Y73125181D01*
X-48036191Y73125181D02*
X-48131429Y72982324D01*
X-48131429Y72982324D02*
X-48226667Y72887086D01*
X-48226667Y72887086D02*
X-48321905Y72839467D01*
X-46893334Y72791848D02*
X-46893334Y72125181D01*
X-47131429Y73172800D02*
X-47369524Y72458515D01*
X-47369524Y72458515D02*
X-46750477Y72458515D01*
X77463333Y23765181D02*
X76987143Y23765181D01*
X76987143Y23765181D02*
X76987143Y24765181D01*
X78320476Y23765181D02*
X77749048Y23765181D01*
X78034762Y23765181D02*
X78034762Y24765181D01*
X78034762Y24765181D02*
X77939524Y24622324D01*
X77939524Y24622324D02*
X77844286Y24527086D01*
X77844286Y24527086D02*
X77749048Y24479467D01*
X69203095Y43382181D02*
X69203095Y42572658D01*
X69203095Y42572658D02*
X69250714Y42477420D01*
X69250714Y42477420D02*
X69298333Y42429800D01*
X69298333Y42429800D02*
X69393571Y42382181D01*
X69393571Y42382181D02*
X69584047Y42382181D01*
X69584047Y42382181D02*
X69679285Y42429800D01*
X69679285Y42429800D02*
X69726904Y42477420D01*
X69726904Y42477420D02*
X69774523Y42572658D01*
X69774523Y42572658D02*
X69774523Y43382181D01*
X70679285Y43382181D02*
X70488809Y43382181D01*
X70488809Y43382181D02*
X70393571Y43334562D01*
X70393571Y43334562D02*
X70345952Y43286943D01*
X70345952Y43286943D02*
X70250714Y43144086D01*
X70250714Y43144086D02*
X70203095Y42953610D01*
X70203095Y42953610D02*
X70203095Y42572658D01*
X70203095Y42572658D02*
X70250714Y42477420D01*
X70250714Y42477420D02*
X70298333Y42429800D01*
X70298333Y42429800D02*
X70393571Y42382181D01*
X70393571Y42382181D02*
X70584047Y42382181D01*
X70584047Y42382181D02*
X70679285Y42429800D01*
X70679285Y42429800D02*
X70726904Y42477420D01*
X70726904Y42477420D02*
X70774523Y42572658D01*
X70774523Y42572658D02*
X70774523Y42810753D01*
X70774523Y42810753D02*
X70726904Y42905991D01*
X70726904Y42905991D02*
X70679285Y42953610D01*
X70679285Y42953610D02*
X70584047Y43001229D01*
X70584047Y43001229D02*
X70393571Y43001229D01*
X70393571Y43001229D02*
X70298333Y42953610D01*
X70298333Y42953610D02*
X70250714Y42905991D01*
X70250714Y42905991D02*
X70203095Y42810753D01*
X-58943095Y93645181D02*
X-58943095Y94645181D01*
X-58943095Y94645181D02*
X-58705000Y94645181D01*
X-58705000Y94645181D02*
X-58562143Y94597562D01*
X-58562143Y94597562D02*
X-58466905Y94502324D01*
X-58466905Y94502324D02*
X-58419286Y94407086D01*
X-58419286Y94407086D02*
X-58371667Y94216610D01*
X-58371667Y94216610D02*
X-58371667Y94073753D01*
X-58371667Y94073753D02*
X-58419286Y93883277D01*
X-58419286Y93883277D02*
X-58466905Y93788039D01*
X-58466905Y93788039D02*
X-58562143Y93692800D01*
X-58562143Y93692800D02*
X-58705000Y93645181D01*
X-58705000Y93645181D02*
X-58943095Y93645181D01*
X-58038333Y94645181D02*
X-57419286Y94645181D01*
X-57419286Y94645181D02*
X-57752619Y94264229D01*
X-57752619Y94264229D02*
X-57609762Y94264229D01*
X-57609762Y94264229D02*
X-57514524Y94216610D01*
X-57514524Y94216610D02*
X-57466905Y94168991D01*
X-57466905Y94168991D02*
X-57419286Y94073753D01*
X-57419286Y94073753D02*
X-57419286Y93835658D01*
X-57419286Y93835658D02*
X-57466905Y93740420D01*
X-57466905Y93740420D02*
X-57514524Y93692800D01*
X-57514524Y93692800D02*
X-57609762Y93645181D01*
X-57609762Y93645181D02*
X-57895476Y93645181D01*
X-57895476Y93645181D02*
X-57990714Y93692800D01*
X-57990714Y93692800D02*
X-58038333Y93740420D01*
X89166666Y23668991D02*
X88833333Y23668991D01*
X88833333Y23145181D02*
X88833333Y24145181D01*
X88833333Y24145181D02*
X89309523Y24145181D01*
X90214285Y23145181D02*
X89642857Y23145181D01*
X89928571Y23145181D02*
X89928571Y24145181D01*
X89928571Y24145181D02*
X89833333Y24002324D01*
X89833333Y24002324D02*
X89738095Y23907086D01*
X89738095Y23907086D02*
X89642857Y23859467D01*
X-54046667Y76105181D02*
X-54380000Y76581372D01*
X-54618095Y76105181D02*
X-54618095Y77105181D01*
X-54618095Y77105181D02*
X-54237143Y77105181D01*
X-54237143Y77105181D02*
X-54141905Y77057562D01*
X-54141905Y77057562D02*
X-54094286Y77009943D01*
X-54094286Y77009943D02*
X-54046667Y76914705D01*
X-54046667Y76914705D02*
X-54046667Y76771848D01*
X-54046667Y76771848D02*
X-54094286Y76676610D01*
X-54094286Y76676610D02*
X-54141905Y76628991D01*
X-54141905Y76628991D02*
X-54237143Y76581372D01*
X-54237143Y76581372D02*
X-54618095Y76581372D01*
X-53665714Y77009943D02*
X-53618095Y77057562D01*
X-53618095Y77057562D02*
X-53522857Y77105181D01*
X-53522857Y77105181D02*
X-53284762Y77105181D01*
X-53284762Y77105181D02*
X-53189524Y77057562D01*
X-53189524Y77057562D02*
X-53141905Y77009943D01*
X-53141905Y77009943D02*
X-53094286Y76914705D01*
X-53094286Y76914705D02*
X-53094286Y76819467D01*
X-53094286Y76819467D02*
X-53141905Y76676610D01*
X-53141905Y76676610D02*
X-53713333Y76105181D01*
X-53713333Y76105181D02*
X-53094286Y76105181D01*
X-58943095Y100345181D02*
X-58943095Y101345181D01*
X-58943095Y101345181D02*
X-58705000Y101345181D01*
X-58705000Y101345181D02*
X-58562143Y101297562D01*
X-58562143Y101297562D02*
X-58466905Y101202324D01*
X-58466905Y101202324D02*
X-58419286Y101107086D01*
X-58419286Y101107086D02*
X-58371667Y100916610D01*
X-58371667Y100916610D02*
X-58371667Y100773753D01*
X-58371667Y100773753D02*
X-58419286Y100583277D01*
X-58419286Y100583277D02*
X-58466905Y100488039D01*
X-58466905Y100488039D02*
X-58562143Y100392800D01*
X-58562143Y100392800D02*
X-58705000Y100345181D01*
X-58705000Y100345181D02*
X-58943095Y100345181D01*
X-57419286Y100345181D02*
X-57990714Y100345181D01*
X-57705000Y100345181D02*
X-57705000Y101345181D01*
X-57705000Y101345181D02*
X-57800238Y101202324D01*
X-57800238Y101202324D02*
X-57895476Y101107086D01*
X-57895476Y101107086D02*
X-57990714Y101059467D01*
X-84373986Y55286023D02*
X-84326367Y55428880D01*
X-84326367Y55428880D02*
X-84278748Y55476499D01*
X-84278748Y55476499D02*
X-84183510Y55524118D01*
X-84183510Y55524118D02*
X-84040653Y55524118D01*
X-84040653Y55524118D02*
X-83945415Y55476499D01*
X-83945415Y55476499D02*
X-83897795Y55428880D01*
X-83897795Y55428880D02*
X-83850176Y55333642D01*
X-83850176Y55333642D02*
X-83850176Y54952690D01*
X-83850176Y54952690D02*
X-84850176Y54952690D01*
X-84850176Y54952690D02*
X-84850176Y55286023D01*
X-84850176Y55286023D02*
X-84802557Y55381261D01*
X-84802557Y55381261D02*
X-84754938Y55428880D01*
X-84754938Y55428880D02*
X-84659700Y55476499D01*
X-84659700Y55476499D02*
X-84564462Y55476499D01*
X-84564462Y55476499D02*
X-84469224Y55428880D01*
X-84469224Y55428880D02*
X-84421605Y55381261D01*
X-84421605Y55381261D02*
X-84373986Y55286023D01*
X-84373986Y55286023D02*
X-84373986Y54952690D01*
X-84850176Y55809833D02*
X-84850176Y56381261D01*
X-83850176Y56095547D02*
X-84850176Y56095547D01*
X-83850176Y57238404D02*
X-83850176Y56666976D01*
X-83850176Y56952690D02*
X-84850176Y56952690D01*
X-84850176Y56952690D02*
X-84707319Y56857452D01*
X-84707319Y56857452D02*
X-84612081Y56762214D01*
X-84612081Y56762214D02*
X-84564462Y56666976D01*
D11*
X-79941533Y59752976D02*
X-80036771Y59657737D01*
X-80036771Y59657737D02*
X-80322485Y59562499D01*
X-80322485Y59562499D02*
X-80512961Y59562499D01*
X-80512961Y59562499D02*
X-80798676Y59657737D01*
X-80798676Y59657737D02*
X-80989152Y59848214D01*
X-80989152Y59848214D02*
X-81084390Y60038690D01*
X-81084390Y60038690D02*
X-81179628Y60419642D01*
X-81179628Y60419642D02*
X-81179628Y60705357D01*
X-81179628Y60705357D02*
X-81084390Y61086309D01*
X-81084390Y61086309D02*
X-80989152Y61276785D01*
X-80989152Y61276785D02*
X-80798676Y61467261D01*
X-80798676Y61467261D02*
X-80512961Y61562499D01*
X-80512961Y61562499D02*
X-80322485Y61562499D01*
X-80322485Y61562499D02*
X-80036771Y61467261D01*
X-80036771Y61467261D02*
X-79941533Y61372023D01*
X-77941533Y59562499D02*
X-78608200Y60514880D01*
X-79084390Y59562499D02*
X-79084390Y61562499D01*
X-79084390Y61562499D02*
X-78322485Y61562499D01*
X-78322485Y61562499D02*
X-78132009Y61467261D01*
X-78132009Y61467261D02*
X-78036771Y61372023D01*
X-78036771Y61372023D02*
X-77941533Y61181547D01*
X-77941533Y61181547D02*
X-77941533Y60895833D01*
X-77941533Y60895833D02*
X-78036771Y60705357D01*
X-78036771Y60705357D02*
X-78132009Y60610118D01*
X-78132009Y60610118D02*
X-78322485Y60514880D01*
X-78322485Y60514880D02*
X-79084390Y60514880D01*
X-76036771Y59562499D02*
X-77179628Y59562499D01*
X-76608200Y59562499D02*
X-76608200Y61562499D01*
X-76608200Y61562499D02*
X-76798676Y61276785D01*
X-76798676Y61276785D02*
X-76989152Y61086309D01*
X-76989152Y61086309D02*
X-77179628Y60991071D01*
X-75274866Y61372023D02*
X-75179628Y61467261D01*
X-75179628Y61467261D02*
X-74989152Y61562499D01*
X-74989152Y61562499D02*
X-74512961Y61562499D01*
X-74512961Y61562499D02*
X-74322485Y61467261D01*
X-74322485Y61467261D02*
X-74227247Y61372023D01*
X-74227247Y61372023D02*
X-74132009Y61181547D01*
X-74132009Y61181547D02*
X-74132009Y60991071D01*
X-74132009Y60991071D02*
X-74227247Y60705357D01*
X-74227247Y60705357D02*
X-75370104Y59562499D01*
X-75370104Y59562499D02*
X-74132009Y59562499D01*
X-73370104Y61372023D02*
X-73274866Y61467261D01*
X-73274866Y61467261D02*
X-73084390Y61562499D01*
X-73084390Y61562499D02*
X-72608199Y61562499D01*
X-72608199Y61562499D02*
X-72417723Y61467261D01*
X-72417723Y61467261D02*
X-72322485Y61372023D01*
X-72322485Y61372023D02*
X-72227247Y61181547D01*
X-72227247Y61181547D02*
X-72227247Y60991071D01*
X-72227247Y60991071D02*
X-72322485Y60705357D01*
X-72322485Y60705357D02*
X-73465342Y59562499D01*
X-73465342Y59562499D02*
X-72227247Y59562499D01*
X-70989152Y61562499D02*
X-70798675Y61562499D01*
X-70798675Y61562499D02*
X-70608199Y61467261D01*
X-70608199Y61467261D02*
X-70512961Y61372023D01*
X-70512961Y61372023D02*
X-70417723Y61181547D01*
X-70417723Y61181547D02*
X-70322485Y60800595D01*
X-70322485Y60800595D02*
X-70322485Y60324404D01*
X-70322485Y60324404D02*
X-70417723Y59943452D01*
X-70417723Y59943452D02*
X-70512961Y59752976D01*
X-70512961Y59752976D02*
X-70608199Y59657737D01*
X-70608199Y59657737D02*
X-70798675Y59562499D01*
X-70798675Y59562499D02*
X-70989152Y59562499D01*
X-70989152Y59562499D02*
X-71179628Y59657737D01*
X-71179628Y59657737D02*
X-71274866Y59752976D01*
X-71274866Y59752976D02*
X-71370104Y59943452D01*
X-71370104Y59943452D02*
X-71465342Y60324404D01*
X-71465342Y60324404D02*
X-71465342Y60800595D01*
X-71465342Y60800595D02*
X-71370104Y61181547D01*
X-71370104Y61181547D02*
X-71274866Y61372023D01*
X-71274866Y61372023D02*
X-71179628Y61467261D01*
X-71179628Y61467261D02*
X-70989152Y61562499D01*
D10*
X-54046667Y78095181D02*
X-54380000Y78571372D01*
X-54618095Y78095181D02*
X-54618095Y79095181D01*
X-54618095Y79095181D02*
X-54237143Y79095181D01*
X-54237143Y79095181D02*
X-54141905Y79047562D01*
X-54141905Y79047562D02*
X-54094286Y78999943D01*
X-54094286Y78999943D02*
X-54046667Y78904705D01*
X-54046667Y78904705D02*
X-54046667Y78761848D01*
X-54046667Y78761848D02*
X-54094286Y78666610D01*
X-54094286Y78666610D02*
X-54141905Y78618991D01*
X-54141905Y78618991D02*
X-54237143Y78571372D01*
X-54237143Y78571372D02*
X-54618095Y78571372D01*
X-53094286Y78095181D02*
X-53665714Y78095181D01*
X-53380000Y78095181D02*
X-53380000Y79095181D01*
X-53380000Y79095181D02*
X-53475238Y78952324D01*
X-53475238Y78952324D02*
X-53570476Y78857086D01*
X-53570476Y78857086D02*
X-53665714Y78809467D01*
X49494819Y9263096D02*
X50304342Y9263096D01*
X50304342Y9263096D02*
X50399580Y9310715D01*
X50399580Y9310715D02*
X50447200Y9358334D01*
X50447200Y9358334D02*
X50494819Y9453572D01*
X50494819Y9453572D02*
X50494819Y9644048D01*
X50494819Y9644048D02*
X50447200Y9739286D01*
X50447200Y9739286D02*
X50399580Y9786905D01*
X50399580Y9786905D02*
X50304342Y9834524D01*
X50304342Y9834524D02*
X49494819Y9834524D01*
X49923390Y10453572D02*
X49875771Y10358334D01*
X49875771Y10358334D02*
X49828152Y10310715D01*
X49828152Y10310715D02*
X49732914Y10263096D01*
X49732914Y10263096D02*
X49685295Y10263096D01*
X49685295Y10263096D02*
X49590057Y10310715D01*
X49590057Y10310715D02*
X49542438Y10358334D01*
X49542438Y10358334D02*
X49494819Y10453572D01*
X49494819Y10453572D02*
X49494819Y10644048D01*
X49494819Y10644048D02*
X49542438Y10739286D01*
X49542438Y10739286D02*
X49590057Y10786905D01*
X49590057Y10786905D02*
X49685295Y10834524D01*
X49685295Y10834524D02*
X49732914Y10834524D01*
X49732914Y10834524D02*
X49828152Y10786905D01*
X49828152Y10786905D02*
X49875771Y10739286D01*
X49875771Y10739286D02*
X49923390Y10644048D01*
X49923390Y10644048D02*
X49923390Y10453572D01*
X49923390Y10453572D02*
X49971009Y10358334D01*
X49971009Y10358334D02*
X50018628Y10310715D01*
X50018628Y10310715D02*
X50113866Y10263096D01*
X50113866Y10263096D02*
X50304342Y10263096D01*
X50304342Y10263096D02*
X50399580Y10310715D01*
X50399580Y10310715D02*
X50447200Y10358334D01*
X50447200Y10358334D02*
X50494819Y10453572D01*
X50494819Y10453572D02*
X50494819Y10644048D01*
X50494819Y10644048D02*
X50447200Y10739286D01*
X50447200Y10739286D02*
X50399580Y10786905D01*
X50399580Y10786905D02*
X50304342Y10834524D01*
X50304342Y10834524D02*
X50113866Y10834524D01*
X50113866Y10834524D02*
X50018628Y10786905D01*
X50018628Y10786905D02*
X49971009Y10739286D01*
X49971009Y10739286D02*
X49923390Y10644048D01*
X-51136667Y72125181D02*
X-51470000Y72601372D01*
X-51708095Y72125181D02*
X-51708095Y73125181D01*
X-51708095Y73125181D02*
X-51327143Y73125181D01*
X-51327143Y73125181D02*
X-51231905Y73077562D01*
X-51231905Y73077562D02*
X-51184286Y73029943D01*
X-51184286Y73029943D02*
X-51136667Y72934705D01*
X-51136667Y72934705D02*
X-51136667Y72791848D01*
X-51136667Y72791848D02*
X-51184286Y72696610D01*
X-51184286Y72696610D02*
X-51231905Y72648991D01*
X-51231905Y72648991D02*
X-51327143Y72601372D01*
X-51327143Y72601372D02*
X-51708095Y72601372D01*
X-50660476Y72125181D02*
X-50470000Y72125181D01*
X-50470000Y72125181D02*
X-50374762Y72172800D01*
X-50374762Y72172800D02*
X-50327143Y72220420D01*
X-50327143Y72220420D02*
X-50231905Y72363277D01*
X-50231905Y72363277D02*
X-50184286Y72553753D01*
X-50184286Y72553753D02*
X-50184286Y72934705D01*
X-50184286Y72934705D02*
X-50231905Y73029943D01*
X-50231905Y73029943D02*
X-50279524Y73077562D01*
X-50279524Y73077562D02*
X-50374762Y73125181D01*
X-50374762Y73125181D02*
X-50565238Y73125181D01*
X-50565238Y73125181D02*
X-50660476Y73077562D01*
X-50660476Y73077562D02*
X-50708095Y73029943D01*
X-50708095Y73029943D02*
X-50755714Y72934705D01*
X-50755714Y72934705D02*
X-50755714Y72696610D01*
X-50755714Y72696610D02*
X-50708095Y72601372D01*
X-50708095Y72601372D02*
X-50660476Y72553753D01*
X-50660476Y72553753D02*
X-50565238Y72506134D01*
X-50565238Y72506134D02*
X-50374762Y72506134D01*
X-50374762Y72506134D02*
X-50279524Y72553753D01*
X-50279524Y72553753D02*
X-50231905Y72601372D01*
X-50231905Y72601372D02*
X-50184286Y72696610D01*
X28254819Y-4383333D02*
X28969104Y-4383333D01*
X28969104Y-4383333D02*
X29111961Y-4430952D01*
X29111961Y-4430952D02*
X29207200Y-4526190D01*
X29207200Y-4526190D02*
X29254819Y-4669047D01*
X29254819Y-4669047D02*
X29254819Y-4764285D01*
X28350057Y-3954761D02*
X28302438Y-3907142D01*
X28302438Y-3907142D02*
X28254819Y-3811904D01*
X28254819Y-3811904D02*
X28254819Y-3573809D01*
X28254819Y-3573809D02*
X28302438Y-3478571D01*
X28302438Y-3478571D02*
X28350057Y-3430952D01*
X28350057Y-3430952D02*
X28445295Y-3383333D01*
X28445295Y-3383333D02*
X28540533Y-3383333D01*
X28540533Y-3383333D02*
X28683390Y-3430952D01*
X28683390Y-3430952D02*
X29254819Y-4002380D01*
X29254819Y-4002380D02*
X29254819Y-3383333D01*
X-51136667Y78095181D02*
X-51470000Y78571372D01*
X-51708095Y78095181D02*
X-51708095Y79095181D01*
X-51708095Y79095181D02*
X-51327143Y79095181D01*
X-51327143Y79095181D02*
X-51231905Y79047562D01*
X-51231905Y79047562D02*
X-51184286Y78999943D01*
X-51184286Y78999943D02*
X-51136667Y78904705D01*
X-51136667Y78904705D02*
X-51136667Y78761848D01*
X-51136667Y78761848D02*
X-51184286Y78666610D01*
X-51184286Y78666610D02*
X-51231905Y78618991D01*
X-51231905Y78618991D02*
X-51327143Y78571372D01*
X-51327143Y78571372D02*
X-51708095Y78571372D01*
X-50279524Y79095181D02*
X-50470000Y79095181D01*
X-50470000Y79095181D02*
X-50565238Y79047562D01*
X-50565238Y79047562D02*
X-50612857Y78999943D01*
X-50612857Y78999943D02*
X-50708095Y78857086D01*
X-50708095Y78857086D02*
X-50755714Y78666610D01*
X-50755714Y78666610D02*
X-50755714Y78285658D01*
X-50755714Y78285658D02*
X-50708095Y78190420D01*
X-50708095Y78190420D02*
X-50660476Y78142800D01*
X-50660476Y78142800D02*
X-50565238Y78095181D01*
X-50565238Y78095181D02*
X-50374762Y78095181D01*
X-50374762Y78095181D02*
X-50279524Y78142800D01*
X-50279524Y78142800D02*
X-50231905Y78190420D01*
X-50231905Y78190420D02*
X-50184286Y78285658D01*
X-50184286Y78285658D02*
X-50184286Y78523753D01*
X-50184286Y78523753D02*
X-50231905Y78618991D01*
X-50231905Y78618991D02*
X-50279524Y78666610D01*
X-50279524Y78666610D02*
X-50374762Y78714229D01*
X-50374762Y78714229D02*
X-50565238Y78714229D01*
X-50565238Y78714229D02*
X-50660476Y78666610D01*
X-50660476Y78666610D02*
X-50708095Y78618991D01*
X-50708095Y78618991D02*
X-50755714Y78523753D01*
X-51136667Y74115181D02*
X-51470000Y74591372D01*
X-51708095Y74115181D02*
X-51708095Y75115181D01*
X-51708095Y75115181D02*
X-51327143Y75115181D01*
X-51327143Y75115181D02*
X-51231905Y75067562D01*
X-51231905Y75067562D02*
X-51184286Y75019943D01*
X-51184286Y75019943D02*
X-51136667Y74924705D01*
X-51136667Y74924705D02*
X-51136667Y74781848D01*
X-51136667Y74781848D02*
X-51184286Y74686610D01*
X-51184286Y74686610D02*
X-51231905Y74638991D01*
X-51231905Y74638991D02*
X-51327143Y74591372D01*
X-51327143Y74591372D02*
X-51708095Y74591372D01*
X-50565238Y74686610D02*
X-50660476Y74734229D01*
X-50660476Y74734229D02*
X-50708095Y74781848D01*
X-50708095Y74781848D02*
X-50755714Y74877086D01*
X-50755714Y74877086D02*
X-50755714Y74924705D01*
X-50755714Y74924705D02*
X-50708095Y75019943D01*
X-50708095Y75019943D02*
X-50660476Y75067562D01*
X-50660476Y75067562D02*
X-50565238Y75115181D01*
X-50565238Y75115181D02*
X-50374762Y75115181D01*
X-50374762Y75115181D02*
X-50279524Y75067562D01*
X-50279524Y75067562D02*
X-50231905Y75019943D01*
X-50231905Y75019943D02*
X-50184286Y74924705D01*
X-50184286Y74924705D02*
X-50184286Y74877086D01*
X-50184286Y74877086D02*
X-50231905Y74781848D01*
X-50231905Y74781848D02*
X-50279524Y74734229D01*
X-50279524Y74734229D02*
X-50374762Y74686610D01*
X-50374762Y74686610D02*
X-50565238Y74686610D01*
X-50565238Y74686610D02*
X-50660476Y74638991D01*
X-50660476Y74638991D02*
X-50708095Y74591372D01*
X-50708095Y74591372D02*
X-50755714Y74496134D01*
X-50755714Y74496134D02*
X-50755714Y74305658D01*
X-50755714Y74305658D02*
X-50708095Y74210420D01*
X-50708095Y74210420D02*
X-50660476Y74162800D01*
X-50660476Y74162800D02*
X-50565238Y74115181D01*
X-50565238Y74115181D02*
X-50374762Y74115181D01*
X-50374762Y74115181D02*
X-50279524Y74162800D01*
X-50279524Y74162800D02*
X-50231905Y74210420D01*
X-50231905Y74210420D02*
X-50184286Y74305658D01*
X-50184286Y74305658D02*
X-50184286Y74496134D01*
X-50184286Y74496134D02*
X-50231905Y74591372D01*
X-50231905Y74591372D02*
X-50279524Y74638991D01*
X-50279524Y74638991D02*
X-50374762Y74686610D01*
X76954819Y56466667D02*
X77669104Y56466667D01*
X77669104Y56466667D02*
X77811961Y56419048D01*
X77811961Y56419048D02*
X77907200Y56323810D01*
X77907200Y56323810D02*
X77954819Y56180953D01*
X77954819Y56180953D02*
X77954819Y56085715D01*
X77954819Y56990477D02*
X77954819Y57180953D01*
X77954819Y57180953D02*
X77907200Y57276191D01*
X77907200Y57276191D02*
X77859580Y57323810D01*
X77859580Y57323810D02*
X77716723Y57419048D01*
X77716723Y57419048D02*
X77526247Y57466667D01*
X77526247Y57466667D02*
X77145295Y57466667D01*
X77145295Y57466667D02*
X77050057Y57419048D01*
X77050057Y57419048D02*
X77002438Y57371429D01*
X77002438Y57371429D02*
X76954819Y57276191D01*
X76954819Y57276191D02*
X76954819Y57085715D01*
X76954819Y57085715D02*
X77002438Y56990477D01*
X77002438Y56990477D02*
X77050057Y56942858D01*
X77050057Y56942858D02*
X77145295Y56895239D01*
X77145295Y56895239D02*
X77383390Y56895239D01*
X77383390Y56895239D02*
X77478628Y56942858D01*
X77478628Y56942858D02*
X77526247Y56990477D01*
X77526247Y56990477D02*
X77573866Y57085715D01*
X77573866Y57085715D02*
X77573866Y57276191D01*
X77573866Y57276191D02*
X77526247Y57371429D01*
X77526247Y57371429D02*
X77478628Y57419048D01*
X77478628Y57419048D02*
X77383390Y57466667D01*
X-6177181Y77383096D02*
X-5367658Y77383096D01*
X-5367658Y77383096D02*
X-5272420Y77430715D01*
X-5272420Y77430715D02*
X-5224800Y77478334D01*
X-5224800Y77478334D02*
X-5177181Y77573572D01*
X-5177181Y77573572D02*
X-5177181Y77764048D01*
X-5177181Y77764048D02*
X-5224800Y77859286D01*
X-5224800Y77859286D02*
X-5272420Y77906905D01*
X-5272420Y77906905D02*
X-5367658Y77954524D01*
X-5367658Y77954524D02*
X-6177181Y77954524D01*
X-5843848Y78859286D02*
X-5177181Y78859286D01*
X-6224800Y78621191D02*
X-5510515Y78383096D01*
X-5510515Y78383096D02*
X-5510515Y79002143D01*
X-58943095Y86945181D02*
X-58943095Y87945181D01*
X-58943095Y87945181D02*
X-58705000Y87945181D01*
X-58705000Y87945181D02*
X-58562143Y87897562D01*
X-58562143Y87897562D02*
X-58466905Y87802324D01*
X-58466905Y87802324D02*
X-58419286Y87707086D01*
X-58419286Y87707086D02*
X-58371667Y87516610D01*
X-58371667Y87516610D02*
X-58371667Y87373753D01*
X-58371667Y87373753D02*
X-58419286Y87183277D01*
X-58419286Y87183277D02*
X-58466905Y87088039D01*
X-58466905Y87088039D02*
X-58562143Y86992800D01*
X-58562143Y86992800D02*
X-58705000Y86945181D01*
X-58705000Y86945181D02*
X-58943095Y86945181D01*
X-57514524Y87945181D02*
X-57705000Y87945181D01*
X-57705000Y87945181D02*
X-57800238Y87897562D01*
X-57800238Y87897562D02*
X-57847857Y87849943D01*
X-57847857Y87849943D02*
X-57943095Y87707086D01*
X-57943095Y87707086D02*
X-57990714Y87516610D01*
X-57990714Y87516610D02*
X-57990714Y87135658D01*
X-57990714Y87135658D02*
X-57943095Y87040420D01*
X-57943095Y87040420D02*
X-57895476Y86992800D01*
X-57895476Y86992800D02*
X-57800238Y86945181D01*
X-57800238Y86945181D02*
X-57609762Y86945181D01*
X-57609762Y86945181D02*
X-57514524Y86992800D01*
X-57514524Y86992800D02*
X-57466905Y87040420D01*
X-57466905Y87040420D02*
X-57419286Y87135658D01*
X-57419286Y87135658D02*
X-57419286Y87373753D01*
X-57419286Y87373753D02*
X-57466905Y87468991D01*
X-57466905Y87468991D02*
X-57514524Y87516610D01*
X-57514524Y87516610D02*
X-57609762Y87564229D01*
X-57609762Y87564229D02*
X-57800238Y87564229D01*
X-57800238Y87564229D02*
X-57895476Y87516610D01*
X-57895476Y87516610D02*
X-57943095Y87468991D01*
X-57943095Y87468991D02*
X-57990714Y87373753D01*
X-58943095Y83595181D02*
X-58943095Y84595181D01*
X-58943095Y84595181D02*
X-58705000Y84595181D01*
X-58705000Y84595181D02*
X-58562143Y84547562D01*
X-58562143Y84547562D02*
X-58466905Y84452324D01*
X-58466905Y84452324D02*
X-58419286Y84357086D01*
X-58419286Y84357086D02*
X-58371667Y84166610D01*
X-58371667Y84166610D02*
X-58371667Y84023753D01*
X-58371667Y84023753D02*
X-58419286Y83833277D01*
X-58419286Y83833277D02*
X-58466905Y83738039D01*
X-58466905Y83738039D02*
X-58562143Y83642800D01*
X-58562143Y83642800D02*
X-58705000Y83595181D01*
X-58705000Y83595181D02*
X-58943095Y83595181D01*
X-58038333Y84595181D02*
X-57371667Y84595181D01*
X-57371667Y84595181D02*
X-57800238Y83595181D01*
X-58943095Y90295181D02*
X-58943095Y91295181D01*
X-58943095Y91295181D02*
X-58705000Y91295181D01*
X-58705000Y91295181D02*
X-58562143Y91247562D01*
X-58562143Y91247562D02*
X-58466905Y91152324D01*
X-58466905Y91152324D02*
X-58419286Y91057086D01*
X-58419286Y91057086D02*
X-58371667Y90866610D01*
X-58371667Y90866610D02*
X-58371667Y90723753D01*
X-58371667Y90723753D02*
X-58419286Y90533277D01*
X-58419286Y90533277D02*
X-58466905Y90438039D01*
X-58466905Y90438039D02*
X-58562143Y90342800D01*
X-58562143Y90342800D02*
X-58705000Y90295181D01*
X-58705000Y90295181D02*
X-58943095Y90295181D01*
X-57514524Y90961848D02*
X-57514524Y90295181D01*
X-57752619Y91342800D02*
X-57990714Y90628515D01*
X-57990714Y90628515D02*
X-57371667Y90628515D01*
X-99833334Y33115181D02*
X-99833334Y32400896D01*
X-99833334Y32400896D02*
X-99880953Y32258039D01*
X-99880953Y32258039D02*
X-99976191Y32162800D01*
X-99976191Y32162800D02*
X-100119048Y32115181D01*
X-100119048Y32115181D02*
X-100214286Y32115181D01*
X-98880953Y33115181D02*
X-99357143Y33115181D01*
X-99357143Y33115181D02*
X-99404762Y32638991D01*
X-99404762Y32638991D02*
X-99357143Y32686610D01*
X-99357143Y32686610D02*
X-99261905Y32734229D01*
X-99261905Y32734229D02*
X-99023810Y32734229D01*
X-99023810Y32734229D02*
X-98928572Y32686610D01*
X-98928572Y32686610D02*
X-98880953Y32638991D01*
X-98880953Y32638991D02*
X-98833334Y32543753D01*
X-98833334Y32543753D02*
X-98833334Y32305658D01*
X-98833334Y32305658D02*
X-98880953Y32210420D01*
X-98880953Y32210420D02*
X-98928572Y32162800D01*
X-98928572Y32162800D02*
X-99023810Y32115181D01*
X-99023810Y32115181D02*
X-99261905Y32115181D01*
X-99261905Y32115181D02*
X-99357143Y32162800D01*
X-99357143Y32162800D02*
X-99404762Y32210420D01*
X-48702858Y76105181D02*
X-49036191Y76581372D01*
X-49274286Y76105181D02*
X-49274286Y77105181D01*
X-49274286Y77105181D02*
X-48893334Y77105181D01*
X-48893334Y77105181D02*
X-48798096Y77057562D01*
X-48798096Y77057562D02*
X-48750477Y77009943D01*
X-48750477Y77009943D02*
X-48702858Y76914705D01*
X-48702858Y76914705D02*
X-48702858Y76771848D01*
X-48702858Y76771848D02*
X-48750477Y76676610D01*
X-48750477Y76676610D02*
X-48798096Y76628991D01*
X-48798096Y76628991D02*
X-48893334Y76581372D01*
X-48893334Y76581372D02*
X-49274286Y76581372D01*
X-47750477Y76105181D02*
X-48321905Y76105181D01*
X-48036191Y76105181D02*
X-48036191Y77105181D01*
X-48036191Y77105181D02*
X-48131429Y76962324D01*
X-48131429Y76962324D02*
X-48226667Y76867086D01*
X-48226667Y76867086D02*
X-48321905Y76819467D01*
X-47369524Y77009943D02*
X-47321905Y77057562D01*
X-47321905Y77057562D02*
X-47226667Y77105181D01*
X-47226667Y77105181D02*
X-46988572Y77105181D01*
X-46988572Y77105181D02*
X-46893334Y77057562D01*
X-46893334Y77057562D02*
X-46845715Y77009943D01*
X-46845715Y77009943D02*
X-46798096Y76914705D01*
X-46798096Y76914705D02*
X-46798096Y76819467D01*
X-46798096Y76819467D02*
X-46845715Y76676610D01*
X-46845715Y76676610D02*
X-47417143Y76105181D01*
X-47417143Y76105181D02*
X-46798096Y76105181D01*
X70478095Y66147181D02*
X70478095Y65337658D01*
X70478095Y65337658D02*
X70525714Y65242420D01*
X70525714Y65242420D02*
X70573333Y65194800D01*
X70573333Y65194800D02*
X70668571Y65147181D01*
X70668571Y65147181D02*
X70859047Y65147181D01*
X70859047Y65147181D02*
X70954285Y65194800D01*
X70954285Y65194800D02*
X71001904Y65242420D01*
X71001904Y65242420D02*
X71049523Y65337658D01*
X71049523Y65337658D02*
X71049523Y66147181D01*
X71478095Y66051943D02*
X71525714Y66099562D01*
X71525714Y66099562D02*
X71620952Y66147181D01*
X71620952Y66147181D02*
X71859047Y66147181D01*
X71859047Y66147181D02*
X71954285Y66099562D01*
X71954285Y66099562D02*
X72001904Y66051943D01*
X72001904Y66051943D02*
X72049523Y65956705D01*
X72049523Y65956705D02*
X72049523Y65861467D01*
X72049523Y65861467D02*
X72001904Y65718610D01*
X72001904Y65718610D02*
X71430476Y65147181D01*
X71430476Y65147181D02*
X72049523Y65147181D01*
X-48702858Y78095181D02*
X-49036191Y78571372D01*
X-49274286Y78095181D02*
X-49274286Y79095181D01*
X-49274286Y79095181D02*
X-48893334Y79095181D01*
X-48893334Y79095181D02*
X-48798096Y79047562D01*
X-48798096Y79047562D02*
X-48750477Y78999943D01*
X-48750477Y78999943D02*
X-48702858Y78904705D01*
X-48702858Y78904705D02*
X-48702858Y78761848D01*
X-48702858Y78761848D02*
X-48750477Y78666610D01*
X-48750477Y78666610D02*
X-48798096Y78618991D01*
X-48798096Y78618991D02*
X-48893334Y78571372D01*
X-48893334Y78571372D02*
X-49274286Y78571372D01*
X-47750477Y78095181D02*
X-48321905Y78095181D01*
X-48036191Y78095181D02*
X-48036191Y79095181D01*
X-48036191Y79095181D02*
X-48131429Y78952324D01*
X-48131429Y78952324D02*
X-48226667Y78857086D01*
X-48226667Y78857086D02*
X-48321905Y78809467D01*
X-46798096Y78095181D02*
X-47369524Y78095181D01*
X-47083810Y78095181D02*
X-47083810Y79095181D01*
X-47083810Y79095181D02*
X-47179048Y78952324D01*
X-47179048Y78952324D02*
X-47274286Y78857086D01*
X-47274286Y78857086D02*
X-47369524Y78809467D01*
X77463333Y21255181D02*
X76987143Y21255181D01*
X76987143Y21255181D02*
X76987143Y22255181D01*
X77749048Y22159943D02*
X77796667Y22207562D01*
X77796667Y22207562D02*
X77891905Y22255181D01*
X77891905Y22255181D02*
X78130000Y22255181D01*
X78130000Y22255181D02*
X78225238Y22207562D01*
X78225238Y22207562D02*
X78272857Y22159943D01*
X78272857Y22159943D02*
X78320476Y22064705D01*
X78320476Y22064705D02*
X78320476Y21969467D01*
X78320476Y21969467D02*
X78272857Y21826610D01*
X78272857Y21826610D02*
X77701429Y21255181D01*
X77701429Y21255181D02*
X78320476Y21255181D01*
X-39561905Y70493181D02*
X-38990477Y70493181D01*
X-39276191Y69493181D02*
X-39276191Y70493181D01*
X-38657143Y69493181D02*
X-38657143Y70493181D01*
X-38657143Y70493181D02*
X-38276191Y70493181D01*
X-38276191Y70493181D02*
X-38180953Y70445562D01*
X-38180953Y70445562D02*
X-38133334Y70397943D01*
X-38133334Y70397943D02*
X-38085715Y70302705D01*
X-38085715Y70302705D02*
X-38085715Y70159848D01*
X-38085715Y70159848D02*
X-38133334Y70064610D01*
X-38133334Y70064610D02*
X-38180953Y70016991D01*
X-38180953Y70016991D02*
X-38276191Y69969372D01*
X-38276191Y69969372D02*
X-38657143Y69969372D01*
X-37133334Y69493181D02*
X-37704762Y69493181D01*
X-37419048Y69493181D02*
X-37419048Y70493181D01*
X-37419048Y70493181D02*
X-37514286Y70350324D01*
X-37514286Y70350324D02*
X-37609524Y70255086D01*
X-37609524Y70255086D02*
X-37704762Y70207467D01*
X-51612858Y70135181D02*
X-51946191Y70611372D01*
X-52184286Y70135181D02*
X-52184286Y71135181D01*
X-52184286Y71135181D02*
X-51803334Y71135181D01*
X-51803334Y71135181D02*
X-51708096Y71087562D01*
X-51708096Y71087562D02*
X-51660477Y71039943D01*
X-51660477Y71039943D02*
X-51612858Y70944705D01*
X-51612858Y70944705D02*
X-51612858Y70801848D01*
X-51612858Y70801848D02*
X-51660477Y70706610D01*
X-51660477Y70706610D02*
X-51708096Y70658991D01*
X-51708096Y70658991D02*
X-51803334Y70611372D01*
X-51803334Y70611372D02*
X-52184286Y70611372D01*
X-50660477Y70135181D02*
X-51231905Y70135181D01*
X-50946191Y70135181D02*
X-50946191Y71135181D01*
X-50946191Y71135181D02*
X-51041429Y70992324D01*
X-51041429Y70992324D02*
X-51136667Y70897086D01*
X-51136667Y70897086D02*
X-51231905Y70849467D01*
X-50041429Y71135181D02*
X-49946191Y71135181D01*
X-49946191Y71135181D02*
X-49850953Y71087562D01*
X-49850953Y71087562D02*
X-49803334Y71039943D01*
X-49803334Y71039943D02*
X-49755715Y70944705D01*
X-49755715Y70944705D02*
X-49708096Y70754229D01*
X-49708096Y70754229D02*
X-49708096Y70516134D01*
X-49708096Y70516134D02*
X-49755715Y70325658D01*
X-49755715Y70325658D02*
X-49803334Y70230420D01*
X-49803334Y70230420D02*
X-49850953Y70182800D01*
X-49850953Y70182800D02*
X-49946191Y70135181D01*
X-49946191Y70135181D02*
X-50041429Y70135181D01*
X-50041429Y70135181D02*
X-50136667Y70182800D01*
X-50136667Y70182800D02*
X-50184286Y70230420D01*
X-50184286Y70230420D02*
X-50231905Y70325658D01*
X-50231905Y70325658D02*
X-50279524Y70516134D01*
X-50279524Y70516134D02*
X-50279524Y70754229D01*
X-50279524Y70754229D02*
X-50231905Y70944705D01*
X-50231905Y70944705D02*
X-50184286Y71039943D01*
X-50184286Y71039943D02*
X-50136667Y71087562D01*
X-50136667Y71087562D02*
X-50041429Y71135181D01*
X-53243095Y43795181D02*
X-53243095Y44795181D01*
X-53243095Y44795181D02*
X-53005000Y44795181D01*
X-53005000Y44795181D02*
X-52862143Y44747562D01*
X-52862143Y44747562D02*
X-52766905Y44652324D01*
X-52766905Y44652324D02*
X-52719286Y44557086D01*
X-52719286Y44557086D02*
X-52671667Y44366610D01*
X-52671667Y44366610D02*
X-52671667Y44223753D01*
X-52671667Y44223753D02*
X-52719286Y44033277D01*
X-52719286Y44033277D02*
X-52766905Y43938039D01*
X-52766905Y43938039D02*
X-52862143Y43842800D01*
X-52862143Y43842800D02*
X-53005000Y43795181D01*
X-53005000Y43795181D02*
X-53243095Y43795181D01*
X-51766905Y44795181D02*
X-52243095Y44795181D01*
X-52243095Y44795181D02*
X-52290714Y44318991D01*
X-52290714Y44318991D02*
X-52243095Y44366610D01*
X-52243095Y44366610D02*
X-52147857Y44414229D01*
X-52147857Y44414229D02*
X-51909762Y44414229D01*
X-51909762Y44414229D02*
X-51814524Y44366610D01*
X-51814524Y44366610D02*
X-51766905Y44318991D01*
X-51766905Y44318991D02*
X-51719286Y44223753D01*
X-51719286Y44223753D02*
X-51719286Y43985658D01*
X-51719286Y43985658D02*
X-51766905Y43890420D01*
X-51766905Y43890420D02*
X-51814524Y43842800D01*
X-51814524Y43842800D02*
X-51909762Y43795181D01*
X-51909762Y43795181D02*
X-52147857Y43795181D01*
X-52147857Y43795181D02*
X-52243095Y43842800D01*
X-52243095Y43842800D02*
X-52290714Y43890420D01*
X-58943095Y80245181D02*
X-58943095Y81245181D01*
X-58943095Y81245181D02*
X-58705000Y81245181D01*
X-58705000Y81245181D02*
X-58562143Y81197562D01*
X-58562143Y81197562D02*
X-58466905Y81102324D01*
X-58466905Y81102324D02*
X-58419286Y81007086D01*
X-58419286Y81007086D02*
X-58371667Y80816610D01*
X-58371667Y80816610D02*
X-58371667Y80673753D01*
X-58371667Y80673753D02*
X-58419286Y80483277D01*
X-58419286Y80483277D02*
X-58466905Y80388039D01*
X-58466905Y80388039D02*
X-58562143Y80292800D01*
X-58562143Y80292800D02*
X-58705000Y80245181D01*
X-58705000Y80245181D02*
X-58943095Y80245181D01*
X-57800238Y80816610D02*
X-57895476Y80864229D01*
X-57895476Y80864229D02*
X-57943095Y80911848D01*
X-57943095Y80911848D02*
X-57990714Y81007086D01*
X-57990714Y81007086D02*
X-57990714Y81054705D01*
X-57990714Y81054705D02*
X-57943095Y81149943D01*
X-57943095Y81149943D02*
X-57895476Y81197562D01*
X-57895476Y81197562D02*
X-57800238Y81245181D01*
X-57800238Y81245181D02*
X-57609762Y81245181D01*
X-57609762Y81245181D02*
X-57514524Y81197562D01*
X-57514524Y81197562D02*
X-57466905Y81149943D01*
X-57466905Y81149943D02*
X-57419286Y81054705D01*
X-57419286Y81054705D02*
X-57419286Y81007086D01*
X-57419286Y81007086D02*
X-57466905Y80911848D01*
X-57466905Y80911848D02*
X-57514524Y80864229D01*
X-57514524Y80864229D02*
X-57609762Y80816610D01*
X-57609762Y80816610D02*
X-57800238Y80816610D01*
X-57800238Y80816610D02*
X-57895476Y80768991D01*
X-57895476Y80768991D02*
X-57943095Y80721372D01*
X-57943095Y80721372D02*
X-57990714Y80626134D01*
X-57990714Y80626134D02*
X-57990714Y80435658D01*
X-57990714Y80435658D02*
X-57943095Y80340420D01*
X-57943095Y80340420D02*
X-57895476Y80292800D01*
X-57895476Y80292800D02*
X-57800238Y80245181D01*
X-57800238Y80245181D02*
X-57609762Y80245181D01*
X-57609762Y80245181D02*
X-57514524Y80292800D01*
X-57514524Y80292800D02*
X-57466905Y80340420D01*
X-57466905Y80340420D02*
X-57419286Y80435658D01*
X-57419286Y80435658D02*
X-57419286Y80626134D01*
X-57419286Y80626134D02*
X-57466905Y80721372D01*
X-57466905Y80721372D02*
X-57514524Y80768991D01*
X-57514524Y80768991D02*
X-57609762Y80816610D01*
X-54046667Y74115181D02*
X-54380000Y74591372D01*
X-54618095Y74115181D02*
X-54618095Y75115181D01*
X-54618095Y75115181D02*
X-54237143Y75115181D01*
X-54237143Y75115181D02*
X-54141905Y75067562D01*
X-54141905Y75067562D02*
X-54094286Y75019943D01*
X-54094286Y75019943D02*
X-54046667Y74924705D01*
X-54046667Y74924705D02*
X-54046667Y74781848D01*
X-54046667Y74781848D02*
X-54094286Y74686610D01*
X-54094286Y74686610D02*
X-54141905Y74638991D01*
X-54141905Y74638991D02*
X-54237143Y74591372D01*
X-54237143Y74591372D02*
X-54618095Y74591372D01*
X-53713333Y75115181D02*
X-53094286Y75115181D01*
X-53094286Y75115181D02*
X-53427619Y74734229D01*
X-53427619Y74734229D02*
X-53284762Y74734229D01*
X-53284762Y74734229D02*
X-53189524Y74686610D01*
X-53189524Y74686610D02*
X-53141905Y74638991D01*
X-53141905Y74638991D02*
X-53094286Y74543753D01*
X-53094286Y74543753D02*
X-53094286Y74305658D01*
X-53094286Y74305658D02*
X-53141905Y74210420D01*
X-53141905Y74210420D02*
X-53189524Y74162800D01*
X-53189524Y74162800D02*
X-53284762Y74115181D01*
X-53284762Y74115181D02*
X-53570476Y74115181D01*
X-53570476Y74115181D02*
X-53665714Y74162800D01*
X-53665714Y74162800D02*
X-53713333Y74210420D01*
X-51136667Y76105181D02*
X-51470000Y76581372D01*
X-51708095Y76105181D02*
X-51708095Y77105181D01*
X-51708095Y77105181D02*
X-51327143Y77105181D01*
X-51327143Y77105181D02*
X-51231905Y77057562D01*
X-51231905Y77057562D02*
X-51184286Y77009943D01*
X-51184286Y77009943D02*
X-51136667Y76914705D01*
X-51136667Y76914705D02*
X-51136667Y76771848D01*
X-51136667Y76771848D02*
X-51184286Y76676610D01*
X-51184286Y76676610D02*
X-51231905Y76628991D01*
X-51231905Y76628991D02*
X-51327143Y76581372D01*
X-51327143Y76581372D02*
X-51708095Y76581372D01*
X-50803333Y77105181D02*
X-50136667Y77105181D01*
X-50136667Y77105181D02*
X-50565238Y76105181D01*
X69203095Y53982181D02*
X69203095Y53172658D01*
X69203095Y53172658D02*
X69250714Y53077420D01*
X69250714Y53077420D02*
X69298333Y53029800D01*
X69298333Y53029800D02*
X69393571Y52982181D01*
X69393571Y52982181D02*
X69584047Y52982181D01*
X69584047Y52982181D02*
X69679285Y53029800D01*
X69679285Y53029800D02*
X69726904Y53077420D01*
X69726904Y53077420D02*
X69774523Y53172658D01*
X69774523Y53172658D02*
X69774523Y53982181D01*
X70726904Y53982181D02*
X70250714Y53982181D01*
X70250714Y53982181D02*
X70203095Y53505991D01*
X70203095Y53505991D02*
X70250714Y53553610D01*
X70250714Y53553610D02*
X70345952Y53601229D01*
X70345952Y53601229D02*
X70584047Y53601229D01*
X70584047Y53601229D02*
X70679285Y53553610D01*
X70679285Y53553610D02*
X70726904Y53505991D01*
X70726904Y53505991D02*
X70774523Y53410753D01*
X70774523Y53410753D02*
X70774523Y53172658D01*
X70774523Y53172658D02*
X70726904Y53077420D01*
X70726904Y53077420D02*
X70679285Y53029800D01*
X70679285Y53029800D02*
X70584047Y52982181D01*
X70584047Y52982181D02*
X70345952Y52982181D01*
X70345952Y52982181D02*
X70250714Y53029800D01*
X70250714Y53029800D02*
X70203095Y53077420D01*
D12*
X42104318Y93213668D02*
X43011461Y93213668D01*
X43011461Y93213668D02*
X43192889Y93153191D01*
X43192889Y93153191D02*
X43313842Y93032239D01*
X43313842Y93032239D02*
X43374318Y92850810D01*
X43374318Y92850810D02*
X43374318Y92729858D01*
X43374318Y94483668D02*
X43374318Y93757953D01*
X43374318Y94120810D02*
X42104318Y94120810D01*
X42104318Y94120810D02*
X42285746Y93999858D01*
X42285746Y93999858D02*
X42406699Y93878906D01*
X42406699Y93878906D02*
X42467175Y93757953D01*
D10*
X79088095Y31215181D02*
X79088095Y30405658D01*
X79088095Y30405658D02*
X79135714Y30310420D01*
X79135714Y30310420D02*
X79183333Y30262800D01*
X79183333Y30262800D02*
X79278571Y30215181D01*
X79278571Y30215181D02*
X79469047Y30215181D01*
X79469047Y30215181D02*
X79564285Y30262800D01*
X79564285Y30262800D02*
X79611904Y30310420D01*
X79611904Y30310420D02*
X79659523Y30405658D01*
X79659523Y30405658D02*
X79659523Y31215181D01*
X80040476Y31215181D02*
X80707142Y31215181D01*
X80707142Y31215181D02*
X80278571Y30215181D01*
X-44255239Y77824943D02*
X-44350477Y77872562D01*
X-44350477Y77872562D02*
X-44445715Y77967800D01*
X-44445715Y77967800D02*
X-44588572Y78110658D01*
X-44588572Y78110658D02*
X-44683810Y78158277D01*
X-44683810Y78158277D02*
X-44779048Y78158277D01*
X-44731429Y77920181D02*
X-44826667Y77967800D01*
X-44826667Y77967800D02*
X-44921905Y78063039D01*
X-44921905Y78063039D02*
X-44969524Y78253515D01*
X-44969524Y78253515D02*
X-44969524Y78586848D01*
X-44969524Y78586848D02*
X-44921905Y78777324D01*
X-44921905Y78777324D02*
X-44826667Y78872562D01*
X-44826667Y78872562D02*
X-44731429Y78920181D01*
X-44731429Y78920181D02*
X-44540953Y78920181D01*
X-44540953Y78920181D02*
X-44445715Y78872562D01*
X-44445715Y78872562D02*
X-44350477Y78777324D01*
X-44350477Y78777324D02*
X-44302858Y78586848D01*
X-44302858Y78586848D02*
X-44302858Y78253515D01*
X-44302858Y78253515D02*
X-44350477Y78063039D01*
X-44350477Y78063039D02*
X-44445715Y77967800D01*
X-44445715Y77967800D02*
X-44540953Y77920181D01*
X-44540953Y77920181D02*
X-44731429Y77920181D01*
X-43921905Y78824943D02*
X-43874286Y78872562D01*
X-43874286Y78872562D02*
X-43779048Y78920181D01*
X-43779048Y78920181D02*
X-43540953Y78920181D01*
X-43540953Y78920181D02*
X-43445715Y78872562D01*
X-43445715Y78872562D02*
X-43398096Y78824943D01*
X-43398096Y78824943D02*
X-43350477Y78729705D01*
X-43350477Y78729705D02*
X-43350477Y78634467D01*
X-43350477Y78634467D02*
X-43398096Y78491610D01*
X-43398096Y78491610D02*
X-43969524Y77920181D01*
X-43969524Y77920181D02*
X-43350477Y77920181D01*
X-54046667Y72125181D02*
X-54380000Y72601372D01*
X-54618095Y72125181D02*
X-54618095Y73125181D01*
X-54618095Y73125181D02*
X-54237143Y73125181D01*
X-54237143Y73125181D02*
X-54141905Y73077562D01*
X-54141905Y73077562D02*
X-54094286Y73029943D01*
X-54094286Y73029943D02*
X-54046667Y72934705D01*
X-54046667Y72934705D02*
X-54046667Y72791848D01*
X-54046667Y72791848D02*
X-54094286Y72696610D01*
X-54094286Y72696610D02*
X-54141905Y72648991D01*
X-54141905Y72648991D02*
X-54237143Y72601372D01*
X-54237143Y72601372D02*
X-54618095Y72601372D01*
X-53189524Y72791848D02*
X-53189524Y72125181D01*
X-53427619Y73172800D02*
X-53665714Y72458515D01*
X-53665714Y72458515D02*
X-53046667Y72458515D01*
X-54046667Y70135181D02*
X-54380000Y70611372D01*
X-54618095Y70135181D02*
X-54618095Y71135181D01*
X-54618095Y71135181D02*
X-54237143Y71135181D01*
X-54237143Y71135181D02*
X-54141905Y71087562D01*
X-54141905Y71087562D02*
X-54094286Y71039943D01*
X-54094286Y71039943D02*
X-54046667Y70944705D01*
X-54046667Y70944705D02*
X-54046667Y70801848D01*
X-54046667Y70801848D02*
X-54094286Y70706610D01*
X-54094286Y70706610D02*
X-54141905Y70658991D01*
X-54141905Y70658991D02*
X-54237143Y70611372D01*
X-54237143Y70611372D02*
X-54618095Y70611372D01*
X-53141905Y71135181D02*
X-53618095Y71135181D01*
X-53618095Y71135181D02*
X-53665714Y70658991D01*
X-53665714Y70658991D02*
X-53618095Y70706610D01*
X-53618095Y70706610D02*
X-53522857Y70754229D01*
X-53522857Y70754229D02*
X-53284762Y70754229D01*
X-53284762Y70754229D02*
X-53189524Y70706610D01*
X-53189524Y70706610D02*
X-53141905Y70658991D01*
X-53141905Y70658991D02*
X-53094286Y70563753D01*
X-53094286Y70563753D02*
X-53094286Y70325658D01*
X-53094286Y70325658D02*
X-53141905Y70230420D01*
X-53141905Y70230420D02*
X-53189524Y70182800D01*
X-53189524Y70182800D02*
X-53284762Y70135181D01*
X-53284762Y70135181D02*
X-53522857Y70135181D01*
X-53522857Y70135181D02*
X-53618095Y70182800D01*
X-53618095Y70182800D02*
X-53665714Y70230420D01*
X80865714Y23590181D02*
X80865714Y24590181D01*
X80865714Y24590181D02*
X81103809Y24590181D01*
X81103809Y24590181D02*
X81246666Y24542562D01*
X81246666Y24542562D02*
X81341904Y24447324D01*
X81341904Y24447324D02*
X81389523Y24352086D01*
X81389523Y24352086D02*
X81437142Y24161610D01*
X81437142Y24161610D02*
X81437142Y24018753D01*
X81437142Y24018753D02*
X81389523Y23828277D01*
X81389523Y23828277D02*
X81341904Y23733039D01*
X81341904Y23733039D02*
X81246666Y23637800D01*
X81246666Y23637800D02*
X81103809Y23590181D01*
X81103809Y23590181D02*
X80865714Y23590181D01*
X82389523Y23590181D02*
X81818095Y23590181D01*
X82103809Y23590181D02*
X82103809Y24590181D01*
X82103809Y24590181D02*
X82008571Y24447324D01*
X82008571Y24447324D02*
X81913333Y24352086D01*
X81913333Y24352086D02*
X81818095Y24304467D01*
X83008571Y24590181D02*
X83103809Y24590181D01*
X83103809Y24590181D02*
X83199047Y24542562D01*
X83199047Y24542562D02*
X83246666Y24494943D01*
X83246666Y24494943D02*
X83294285Y24399705D01*
X83294285Y24399705D02*
X83341904Y24209229D01*
X83341904Y24209229D02*
X83341904Y23971134D01*
X83341904Y23971134D02*
X83294285Y23780658D01*
X83294285Y23780658D02*
X83246666Y23685420D01*
X83246666Y23685420D02*
X83199047Y23637800D01*
X83199047Y23637800D02*
X83103809Y23590181D01*
X83103809Y23590181D02*
X83008571Y23590181D01*
X83008571Y23590181D02*
X82913333Y23637800D01*
X82913333Y23637800D02*
X82865714Y23685420D01*
X82865714Y23685420D02*
X82818095Y23780658D01*
X82818095Y23780658D02*
X82770476Y23971134D01*
X82770476Y23971134D02*
X82770476Y24209229D01*
X82770476Y24209229D02*
X82818095Y24399705D01*
X82818095Y24399705D02*
X82865714Y24494943D01*
X82865714Y24494943D02*
X82913333Y24542562D01*
X82913333Y24542562D02*
X83008571Y24590181D01*
X-48702858Y74115181D02*
X-49036191Y74591372D01*
X-49274286Y74115181D02*
X-49274286Y75115181D01*
X-49274286Y75115181D02*
X-48893334Y75115181D01*
X-48893334Y75115181D02*
X-48798096Y75067562D01*
X-48798096Y75067562D02*
X-48750477Y75019943D01*
X-48750477Y75019943D02*
X-48702858Y74924705D01*
X-48702858Y74924705D02*
X-48702858Y74781848D01*
X-48702858Y74781848D02*
X-48750477Y74686610D01*
X-48750477Y74686610D02*
X-48798096Y74638991D01*
X-48798096Y74638991D02*
X-48893334Y74591372D01*
X-48893334Y74591372D02*
X-49274286Y74591372D01*
X-47750477Y74115181D02*
X-48321905Y74115181D01*
X-48036191Y74115181D02*
X-48036191Y75115181D01*
X-48036191Y75115181D02*
X-48131429Y74972324D01*
X-48131429Y74972324D02*
X-48226667Y74877086D01*
X-48226667Y74877086D02*
X-48321905Y74829467D01*
X-47417143Y75115181D02*
X-46798096Y75115181D01*
X-46798096Y75115181D02*
X-47131429Y74734229D01*
X-47131429Y74734229D02*
X-46988572Y74734229D01*
X-46988572Y74734229D02*
X-46893334Y74686610D01*
X-46893334Y74686610D02*
X-46845715Y74638991D01*
X-46845715Y74638991D02*
X-46798096Y74543753D01*
X-46798096Y74543753D02*
X-46798096Y74305658D01*
X-46798096Y74305658D02*
X-46845715Y74210420D01*
X-46845715Y74210420D02*
X-46893334Y74162800D01*
X-46893334Y74162800D02*
X-46988572Y74115181D01*
X-46988572Y74115181D02*
X-47274286Y74115181D01*
X-47274286Y74115181D02*
X-47369524Y74162800D01*
X-47369524Y74162800D02*
X-47417143Y74210420D01*
X-13633334Y23295181D02*
X-13633334Y22580896D01*
X-13633334Y22580896D02*
X-13680953Y22438039D01*
X-13680953Y22438039D02*
X-13776191Y22342800D01*
X-13776191Y22342800D02*
X-13919048Y22295181D01*
X-13919048Y22295181D02*
X-14014286Y22295181D01*
X-12728572Y23295181D02*
X-12919048Y23295181D01*
X-12919048Y23295181D02*
X-13014286Y23247562D01*
X-13014286Y23247562D02*
X-13061905Y23199943D01*
X-13061905Y23199943D02*
X-13157143Y23057086D01*
X-13157143Y23057086D02*
X-13204762Y22866610D01*
X-13204762Y22866610D02*
X-13204762Y22485658D01*
X-13204762Y22485658D02*
X-13157143Y22390420D01*
X-13157143Y22390420D02*
X-13109524Y22342800D01*
X-13109524Y22342800D02*
X-13014286Y22295181D01*
X-13014286Y22295181D02*
X-12823810Y22295181D01*
X-12823810Y22295181D02*
X-12728572Y22342800D01*
X-12728572Y22342800D02*
X-12680953Y22390420D01*
X-12680953Y22390420D02*
X-12633334Y22485658D01*
X-12633334Y22485658D02*
X-12633334Y22723753D01*
X-12633334Y22723753D02*
X-12680953Y22818991D01*
X-12680953Y22818991D02*
X-12728572Y22866610D01*
X-12728572Y22866610D02*
X-12823810Y22914229D01*
X-12823810Y22914229D02*
X-13014286Y22914229D01*
X-13014286Y22914229D02*
X-13109524Y22866610D01*
X-13109524Y22866610D02*
X-13157143Y22818991D01*
X-13157143Y22818991D02*
X-13204762Y22723753D01*
X11096666Y13165181D02*
X11096666Y12450896D01*
X11096666Y12450896D02*
X11049047Y12308039D01*
X11049047Y12308039D02*
X10953809Y12212800D01*
X10953809Y12212800D02*
X10810952Y12165181D01*
X10810952Y12165181D02*
X10715714Y12165181D01*
X11477619Y13165181D02*
X12144285Y13165181D01*
X12144285Y13165181D02*
X11715714Y12165181D01*
X-58943095Y96995181D02*
X-58943095Y97995181D01*
X-58943095Y97995181D02*
X-58705000Y97995181D01*
X-58705000Y97995181D02*
X-58562143Y97947562D01*
X-58562143Y97947562D02*
X-58466905Y97852324D01*
X-58466905Y97852324D02*
X-58419286Y97757086D01*
X-58419286Y97757086D02*
X-58371667Y97566610D01*
X-58371667Y97566610D02*
X-58371667Y97423753D01*
X-58371667Y97423753D02*
X-58419286Y97233277D01*
X-58419286Y97233277D02*
X-58466905Y97138039D01*
X-58466905Y97138039D02*
X-58562143Y97042800D01*
X-58562143Y97042800D02*
X-58705000Y96995181D01*
X-58705000Y96995181D02*
X-58943095Y96995181D01*
X-57990714Y97899943D02*
X-57943095Y97947562D01*
X-57943095Y97947562D02*
X-57847857Y97995181D01*
X-57847857Y97995181D02*
X-57609762Y97995181D01*
X-57609762Y97995181D02*
X-57514524Y97947562D01*
X-57514524Y97947562D02*
X-57466905Y97899943D01*
X-57466905Y97899943D02*
X-57419286Y97804705D01*
X-57419286Y97804705D02*
X-57419286Y97709467D01*
X-57419286Y97709467D02*
X-57466905Y97566610D01*
X-57466905Y97566610D02*
X-58038333Y96995181D01*
X-58038333Y96995181D02*
X-57419286Y96995181D01*
D13*
G04 #@! TO.C,M6*
X-64375000Y43275000D02*
X-55275000Y43275000D01*
X-64375000Y40174997D02*
X-64375000Y41174999D01*
X-64375000Y40174997D02*
X-55275000Y40174997D01*
D14*
G04 #@! TO.C,D9*
X-60565000Y76350000D02*
X-60565000Y74350000D01*
X-60565000Y76350000D02*
X-56555000Y76350000D01*
X-60565000Y74350000D02*
X-56555000Y74350000D01*
G04 #@! TO.C,J3*
X87520000Y29630000D02*
X88850000Y29630000D01*
X87520000Y28300000D02*
X87520000Y29630000D01*
X87520000Y27030000D02*
X87520000Y24430000D01*
X87520000Y27030000D02*
X90180000Y27030000D01*
X87520000Y24430000D02*
X90180000Y24430000D01*
X90180000Y27030000D02*
X90180000Y24430000D01*
D15*
G04 #@! TO.C,U3*
X-3825000Y55505000D02*
X-3825000Y59405000D01*
X1225000Y55505000D02*
X1225000Y59405000D01*
D13*
X-3105000Y53010000D02*
G75*
G02*
X-3305000Y53010000I-100000J0D01*
G01*
X-3305000Y53010000D02*
G75*
G02*
X-3105000Y53010000I100000J0D01*
G01*
D15*
G04 #@! TO.C,U1*
X69925000Y74160000D02*
X73825000Y74160000D01*
X69925000Y69110000D02*
X73825000Y69110000D01*
D13*
X67530000Y73540000D02*
G75*
G02*
X67330000Y73540000I-100000J0D01*
G01*
X67330000Y73540000D02*
G75*
G02*
X67530000Y73540000I100000J0D01*
G01*
D14*
G04 #@! TO.C,R14*
X-48213641Y71790000D02*
X-47906359Y71790000D01*
X-48213641Y71030000D02*
X-47906359Y71030000D01*
G04 #@! TO.C,L1*
X77467221Y23300000D02*
X77792779Y23300000D01*
X77467221Y22280000D02*
X77792779Y22280000D01*
D15*
G04 #@! TO.C,U6*
X68550000Y41725000D02*
X72450000Y41725000D01*
X68550000Y36675000D02*
X72450000Y36675000D01*
D13*
X66155000Y41105000D02*
G75*
G02*
X65955000Y41105000I-100000J0D01*
G01*
X65955000Y41105000D02*
G75*
G02*
X66155000Y41105000I100000J0D01*
G01*
G04 #@! TO.C,M2*
X54460000Y77675000D02*
X54460000Y62675000D01*
X54460000Y77675000D02*
X55760000Y77675000D01*
X54460000Y62675000D02*
X59560000Y62675000D01*
X64060000Y77675000D02*
X57660000Y77675000D01*
X64060000Y63275000D02*
X64060000Y77675000D01*
D14*
G04 #@! TO.C,D3*
X-60565000Y93100000D02*
X-60565000Y91100000D01*
X-60565000Y93100000D02*
X-56555000Y93100000D01*
X-60565000Y91100000D02*
X-56555000Y91100000D01*
G04 #@! TO.C,F1*
X88897936Y22690000D02*
X90102064Y22690000D01*
X88897936Y20870000D02*
X90102064Y20870000D01*
G04 #@! TO.C,R2*
X-54033641Y75770000D02*
X-53726359Y75770000D01*
X-54033641Y75010000D02*
X-53726359Y75010000D01*
G04 #@! TO.C,D1*
X-60565000Y99800000D02*
X-60565000Y97800000D01*
X-60565000Y99800000D02*
X-56555000Y99800000D01*
X-60565000Y97800000D02*
X-56555000Y97800000D01*
D16*
G04 #@! TO.C,BT1*
X-82945047Y58416737D02*
X-79789021Y58416737D01*
X-82945047Y53535847D02*
X-82945047Y58416737D01*
X-82945047Y44192737D02*
X-82945047Y49073626D01*
X-82945047Y44192737D02*
X-79789021Y44192737D01*
X-80652595Y53844737D02*
X-78620595Y53844737D01*
X-79789021Y57475337D02*
X-79789021Y58416737D01*
X-79789021Y44192737D02*
X-79789021Y45393039D01*
X-79636595Y52828737D02*
X-79636595Y54860737D01*
X-72905595Y53844737D02*
X-71381595Y53844737D01*
X-82636028Y53479844D02*
G75*
G02*
X-68807380Y53458786I6911028J-2175073D01*
G01*
X-68853505Y49180818D02*
G75*
G02*
X-82540424Y49007285I-6871488J2123901D01*
G01*
D14*
G04 #@! TO.C,R1*
X-54033641Y77760000D02*
X-53726359Y77760000D01*
X-54033641Y77000000D02*
X-53726359Y77000000D01*
D10*
G04 #@! TO.C,U8*
X52090000Y13925000D02*
X52090000Y12375000D01*
X52090000Y6075000D02*
X52090000Y7625000D01*
X52340000Y13925000D02*
X52090000Y13925000D01*
X52340000Y6075000D02*
X52090000Y6075000D01*
X58540000Y13925000D02*
X58790000Y13925000D01*
X58540000Y6125000D02*
X58790000Y6125000D01*
X58790000Y13925000D02*
X58790000Y12375000D01*
X58790000Y6125000D02*
X58790000Y7675000D01*
D14*
X52340000Y5225000D02*
X52010000Y4985000D01*
X52010000Y5465000D01*
X52340000Y5225000D01*
G36*
X52340000Y5225000D02*
G01*
X52010000Y4985000D01*
X52010000Y5465000D01*
X52340000Y5225000D01*
G37*
G04 #@! TO.C,R9*
X-51123641Y71790000D02*
X-50816359Y71790000D01*
X-51123641Y71030000D02*
X-50816359Y71030000D01*
G04 #@! TO.C,J2*
X13620000Y4310000D02*
X13620000Y50000D01*
X13620000Y-12410000D02*
X13620000Y-4050000D01*
X20530000Y5030000D02*
X21030000Y4530000D01*
X21030000Y4530000D02*
X21530000Y5030000D01*
X21530000Y5030000D02*
X20530000Y5030000D01*
X25940000Y4310000D02*
X13620000Y4310000D01*
X25940000Y50000D02*
X25940000Y4310000D01*
X25940000Y-4050000D02*
X25940000Y-12410000D01*
X25940000Y-12410000D02*
X13620000Y-12410000D01*
G04 #@! TO.C,R6*
X-51123641Y77760000D02*
X-50816359Y77760000D01*
X-51123641Y77000000D02*
X-50816359Y77000000D01*
G04 #@! TO.C,R8*
X-51123641Y73780000D02*
X-50816359Y73780000D01*
X-51123641Y73020000D02*
X-50816359Y73020000D01*
G04 #@! TO.C,J9*
X78350000Y46100000D02*
X78350000Y43250000D01*
X78350000Y43250000D02*
X81200000Y43250000D01*
X78590000Y70110000D02*
X88410000Y70110000D01*
X78590000Y56800000D02*
X78590000Y70110000D01*
X78590000Y56800000D02*
X78590000Y43490000D01*
X78590000Y43490000D02*
X88410000Y43490000D01*
X88410000Y70110000D02*
X88410000Y58610000D01*
X88410000Y58610000D02*
X89810000Y58610000D01*
X88410000Y54990000D02*
X89810000Y54990000D01*
X88410000Y43490000D02*
X88410000Y54990000D01*
X89810000Y58610000D02*
X89810000Y56800000D01*
X89810000Y54990000D02*
X89810000Y56800000D01*
D15*
G04 #@! TO.C,U4*
X-4520000Y76730000D02*
X-4520000Y80630000D01*
X530000Y76730000D02*
X530000Y80630000D01*
D13*
X-3800000Y74235000D02*
G75*
G02*
X-4000000Y74235000I-100000J0D01*
G01*
X-4000000Y74235000D02*
G75*
G02*
X-3800000Y74235000I100000J0D01*
G01*
D14*
G04 #@! TO.C,D6*
X-60565000Y86400000D02*
X-60565000Y84400000D01*
X-60565000Y86400000D02*
X-56555000Y86400000D01*
X-60565000Y84400000D02*
X-56555000Y84400000D01*
G04 #@! TO.C,D7*
X-60565000Y83050000D02*
X-60565000Y81050000D01*
X-60565000Y83050000D02*
X-56555000Y83050000D01*
X-60565000Y81050000D02*
X-56555000Y81050000D01*
D13*
G04 #@! TO.C,M4*
X-103825000Y51924998D02*
X-103825000Y55125001D01*
X-103825000Y39824998D02*
X-103825000Y50225000D01*
X-103825000Y37924998D02*
X-103825000Y38224998D01*
X-103825000Y37924998D02*
X-88425000Y37924998D01*
X-102325000Y58524996D02*
X-87025001Y58524998D01*
X-87025003Y51825000D02*
X-87025003Y56625000D01*
X-87025003Y45624998D02*
X-87025003Y48324998D01*
X-87025003Y42925000D02*
X-87025003Y44025003D01*
X-87025003Y39374998D02*
X-87024998Y40924998D01*
X-87025001Y58225000D02*
X-87025001Y58524998D01*
G04 #@! TO.C,M1*
X22574997Y60225002D02*
X22574997Y18125002D01*
X22574997Y60225002D02*
X62474996Y60225002D01*
X22574997Y18125002D02*
X62474996Y18124999D01*
X62474996Y60225002D02*
X62474996Y19424999D01*
X62474996Y19424999D02*
X62474996Y18124999D01*
D14*
G04 #@! TO.C,D4*
X-60565000Y89750000D02*
X-60565000Y87750000D01*
X-60565000Y89750000D02*
X-56555000Y89750000D01*
X-60565000Y87750000D02*
X-56555000Y87750000D01*
G04 #@! TO.C,J5*
X-100830000Y31570000D02*
X-99500000Y31570000D01*
X-100830000Y30240000D02*
X-100830000Y31570000D01*
X-100830000Y28970000D02*
X-100830000Y26370000D01*
X-100830000Y28970000D02*
X-98170000Y28970000D01*
X-100830000Y26370000D02*
X-98170000Y26370000D01*
X-98170000Y28970000D02*
X-98170000Y26370000D01*
G04 #@! TO.C,R12*
X-48213641Y75770000D02*
X-47906359Y75770000D01*
X-48213641Y75010000D02*
X-47906359Y75010000D01*
D15*
G04 #@! TO.C,U2*
X69825000Y64490000D02*
X73725000Y64490000D01*
X69825000Y59440000D02*
X73725000Y59440000D01*
D13*
X67430000Y63870000D02*
G75*
G02*
X67230000Y63870000I-100000J0D01*
G01*
X67230000Y63870000D02*
G75*
G02*
X67430000Y63870000I100000J0D01*
G01*
G04 #@! TO.C,M3*
X44000000Y77600000D02*
X44000000Y62600000D01*
X44000000Y77600000D02*
X45300000Y77600000D01*
X44000000Y62600000D02*
X49100000Y62600000D01*
X53600000Y77600000D02*
X47200000Y77600000D01*
X53600000Y63200000D02*
X53600000Y77600000D01*
D14*
G04 #@! TO.C,R11*
X-48213641Y77760000D02*
X-47906359Y77760000D01*
X-48213641Y77000000D02*
X-47906359Y77000000D01*
G04 #@! TO.C,L2*
X77467221Y20790000D02*
X77792779Y20790000D01*
X77467221Y19770000D02*
X77792779Y19770000D01*
G04 #@! TO.C,TP1*
X-37600000Y68500000D02*
G75*
G02*
X-39000000Y68500000I-700000J0D01*
G01*
X-39000000Y68500000D02*
G75*
G02*
X-37600000Y68500000I700000J0D01*
G01*
G04 #@! TO.C,R10*
X-51123641Y69800000D02*
X-50816359Y69800000D01*
X-51123641Y69040000D02*
X-50816359Y69040000D01*
G04 #@! TO.C,D5*
X-54115000Y43250000D02*
X-54115000Y41550000D01*
X-54115000Y43250000D02*
X-51455000Y43250000D01*
X-54115000Y41550000D02*
X-51455000Y41550000D01*
G04 #@! TO.C,D8*
X-60565000Y79700000D02*
X-60565000Y77700000D01*
X-60565000Y79700000D02*
X-56555000Y79700000D01*
X-60565000Y77700000D02*
X-56555000Y77700000D01*
G04 #@! TO.C,R3*
X-54033641Y73780000D02*
X-53726359Y73780000D01*
X-54033641Y73020000D02*
X-53726359Y73020000D01*
G04 #@! TO.C,R7*
X-51123641Y75770000D02*
X-50816359Y75770000D01*
X-51123641Y75010000D02*
X-50816359Y75010000D01*
D15*
G04 #@! TO.C,U5*
X68550000Y52325000D02*
X72450000Y52325000D01*
X68550000Y47275000D02*
X72450000Y47275000D01*
D13*
X66155000Y51705000D02*
G75*
G02*
X65955000Y51705000I-100000J0D01*
G01*
X65955000Y51705000D02*
G75*
G02*
X66155000Y51705000I100000J0D01*
G01*
G04 #@! TO.C,M5*
X-20825000Y48925000D02*
X-7025000Y48925000D01*
X-7025000Y24525000D01*
X-20825000Y24525000D01*
X-20825000Y48925000D01*
G04 #@! TO.C,J1*
X6750000Y106800000D02*
X78850000Y106800000D01*
X6750000Y88300000D02*
X6750000Y106800000D01*
D17*
X10350000Y80000000D02*
X10350000Y80000000D01*
X10350000Y79900000D02*
X10350000Y79900000D01*
D13*
X78850000Y106800000D02*
X78850000Y88300000D01*
X78850000Y88300000D02*
X6750000Y88300000D01*
D17*
X10350000Y80000000D02*
G75*
G02*
X10350000Y79900000I0J-50000D01*
G01*
X10350000Y79900000D02*
G75*
G02*
X10350000Y80000000I0J50000D01*
G01*
D14*
G04 #@! TO.C,U7*
X79850000Y29830000D02*
X77900000Y29830000D01*
X79850000Y29830000D02*
X81800000Y29830000D01*
X79850000Y24710000D02*
X77900000Y24710000D01*
X79850000Y24710000D02*
X81800000Y24710000D01*
X77150000Y29735000D02*
X76910000Y30065000D01*
X77390000Y30065000D01*
X77150000Y29735000D01*
G36*
X77150000Y29735000D02*
G01*
X76910000Y30065000D01*
X77390000Y30065000D01*
X77150000Y29735000D01*
G37*
G04 #@! TO.C,Q2*
X-44160000Y77535000D02*
X-44810000Y77535000D01*
X-44160000Y77535000D02*
X-43510000Y77535000D01*
X-44160000Y74415000D02*
X-44810000Y74415000D01*
X-44160000Y74415000D02*
X-43510000Y74415000D01*
X-45322500Y77485000D02*
X-45562500Y77815000D01*
X-45082500Y77815000D01*
X-45322500Y77485000D01*
G36*
X-45322500Y77485000D02*
G01*
X-45562500Y77815000D01*
X-45082500Y77815000D01*
X-45322500Y77485000D01*
G37*
G04 #@! TO.C,R4*
X-54033641Y71790000D02*
X-53726359Y71790000D01*
X-54033641Y71030000D02*
X-53726359Y71030000D01*
G04 #@! TO.C,R5*
X-54033641Y69800000D02*
X-53726359Y69800000D01*
X-54033641Y69040000D02*
X-53726359Y69040000D01*
G04 #@! TO.C,D10*
X82080000Y23205000D02*
X81430000Y23205000D01*
X82080000Y23205000D02*
X82730000Y23205000D01*
X82080000Y20085000D02*
X81430000Y20085000D01*
X82080000Y20085000D02*
X82730000Y20085000D01*
X80917500Y23155000D02*
X80677500Y23485000D01*
X81157500Y23485000D01*
X80917500Y23155000D01*
G36*
X80917500Y23155000D02*
G01*
X80677500Y23485000D01*
X81157500Y23485000D01*
X80917500Y23155000D01*
G37*
G04 #@! TO.C,R13*
X-48213641Y73780000D02*
X-47906359Y73780000D01*
X-48213641Y73020000D02*
X-47906359Y73020000D01*
G04 #@! TO.C,J6*
X-20550000Y21900000D02*
X-20550000Y19050000D01*
X-20310000Y21660000D02*
X-20310000Y11840000D01*
X-20310000Y11840000D02*
X-15110000Y11840000D01*
X-17700000Y21900000D02*
X-20550000Y21900000D01*
X-15110000Y11840000D02*
X-15110000Y10440000D01*
X-15110000Y10440000D02*
X-13300000Y10440000D01*
X-13300000Y21660000D02*
X-20310000Y21660000D01*
X-13300000Y21660000D02*
X-6290000Y21660000D01*
X-11490000Y11840000D02*
X-11490000Y10440000D01*
X-11490000Y10440000D02*
X-13300000Y10440000D01*
X-6290000Y21660000D02*
X-6290000Y11840000D01*
X-6290000Y11840000D02*
X-11490000Y11840000D01*
G04 #@! TO.C,J7*
X6870000Y72190000D02*
X15990000Y72190000D01*
X6870000Y13510000D02*
X6870000Y72190000D01*
X8180000Y70890000D02*
X14680000Y70890000D01*
X8180000Y14810000D02*
X8180000Y70890000D01*
X14680000Y70890000D02*
X14680000Y44900000D01*
X14680000Y44900000D02*
X14680000Y44900000D01*
X14680000Y44900000D02*
X15990000Y44900000D01*
X14680000Y40800000D02*
X14680000Y14810000D01*
X14680000Y14810000D02*
X8180000Y14810000D01*
X15990000Y72190000D02*
X15990000Y13510000D01*
X15990000Y40800000D02*
X14680000Y40800000D01*
X15990000Y13510000D02*
X6870000Y13510000D01*
X16380000Y18720000D02*
X17380000Y18220000D01*
X17380000Y19220000D02*
X16380000Y18720000D01*
X17380000Y18220000D02*
X17380000Y19220000D01*
D13*
G04 #@! TO.C,M7*
X37637499Y10429142D02*
X48812499Y10467989D01*
X37637499Y4731661D02*
X37637499Y10429142D01*
X37637499Y4731661D02*
X37912503Y4456657D01*
X37912503Y3581663D02*
X37912503Y4456657D01*
X37912503Y3581663D02*
X37912505Y3581660D01*
X37912505Y3581660D02*
X48812499Y3581660D01*
X48812499Y3581660D02*
X48812499Y10467989D01*
D14*
G04 #@! TO.C,D2*
X-60565000Y96450000D02*
X-60565000Y94450000D01*
X-60565000Y96450000D02*
X-56555000Y96450000D01*
X-60565000Y94450000D02*
X-56555000Y94450000D01*
G04 #@! TD*
M02*
