M48
; DRILL file {KiCad 8.0.9-8.0.9-0~ubuntu24.04.1} date 2026-04-02T00:30:11+0000
; FORMAT={2:4/ absolute / inch / suppress leading zeros}
; #@! TF.CreationDate,2026-04-02T00:30:11+00:00
; #@! TF.GenerationSoftware,Kicad,Pcbnew,8.0.9-8.0.9-0~ubuntu24.04.1
; #@! TF.FileFunction,MixedPlating,1,4
FMAT,2
INCH,TZ
; #@! TA.AperFunction,Plated,PTH,ComponentDrill
T1C0.0118
; #@! TA.AperFunction,Plated,PTH,ComponentDrill
T2C0.0118
; #@! TA.AperFunction,Plated,PTH,ComponentDrill
T3C0.0362
; #@! TA.AperFunction,Plated,PTH,ComponentDrill
T4C0.0394
; #@! TA.AperFunction,Plated,PTH,ComponentDrill
T5C0.0433
; #@! TA.AperFunction,Plated,PTH,ComponentDrill
T6C0.0551
; #@! TA.AperFunction,Plated,PTH,ComponentDrill
T7C0.0917
; #@! TA.AperFunction,Plated,PTH,ComponentDrill
T8C0.1378
; #@! TA.AperFunction,NonPlated,NPTH,ComponentDrill
T9C0.0591
%
G90
G05
T1
X17466Y2119
X17810Y1912
X17899Y3812
X17928Y2414
T2
X-34341Y16703
X-34341Y16309
X-25266Y16801
X-25266Y16447
X-21841Y16801
X-21841Y16427
X-21841Y16053
X-7293Y9734
X-6978Y9734
X-6663Y9734
X-6348Y9734
X-6033Y9734
X-4242Y19183
X-3927Y19183
X-3612Y19183
X-3297Y19183
X8967Y19695
X8967Y18750
X8967Y17333
X8967Y16388
X8967Y12136
X8967Y10718
X8967Y8868
X8967Y7451
X8967Y23474
X8967Y22530
X8967Y22057
X8967Y21585
X8967Y21112
X8967Y20640
X8967Y20167
X8967Y19222
X8967Y18278
X8967Y17805
X8967Y16860
X8967Y15915
X8967Y15443
X8967Y14970
X8967Y14498
X8967Y14026
X8967Y13553
X8967Y13081
X8967Y12608
X8967Y11663
X8967Y11191
X8967Y10246
X8967Y9774
X8967Y9341
X8967Y8396
X8967Y7923
X9833Y7215
X9951Y23632
X10148Y7215
X10344Y23632
X12785Y7215
X12864Y23632
X13100Y7215
X13415Y7215
X13730Y7215
X14045Y7215
X14360Y7215
X14675Y7215
X14990Y7215
X15226Y23632
X15305Y7215
X15620Y7215
X15620Y23632
X15935Y7215
X16014Y23632
X16250Y7215
X16407Y23632
X16565Y7215
X16801Y23632
X16880Y7215
X17195Y7215
X17195Y23632
X17510Y7215
X17589Y23632
X17825Y7215
X17982Y23632
X18008Y30443
X18140Y7215
X18376Y23632
X18402Y30443
X18455Y7215
X18770Y7215
X18770Y23632
X19085Y7215
X19163Y23632
X19400Y7215
X19528Y24764
X19557Y23632
X19715Y7215
X19951Y23632
X20000Y24764
X20030Y7215
X20344Y7215
X20344Y23632
X20472Y24764
X20659Y7215
X20738Y23632
X20945Y24764
X20974Y7215
X21289Y7215
X21604Y7215
X21919Y7215
X22126Y30472
X22234Y7215
X22520Y30472
X22549Y7215
X22864Y7215
X23179Y7215
X23494Y7215
X23646Y24793
X24118Y24793
X24518Y23632
X24518Y21270
X24518Y20955
X24518Y20640
X24518Y17569
X24518Y17254
X24518Y16939
X24518Y16624
X24518Y16309
X24518Y14144
X24518Y13829
X24518Y13199
X24518Y12884
X24518Y12569
X24518Y12254
X24518Y11309
X24518Y10994
X24518Y10679
X24518Y10364
X24518Y10049
X24518Y9734
X24518Y9104
X24518Y8789
X24518Y8474
X24518Y8159
X24518Y7215
X24518Y13514
X24518Y11939
X24518Y11624
X24518Y9419
X24518Y7844
X24518Y7530
X24591Y24793
X25063Y24793
T3
X7295Y1067
X7295Y280
X8280Y1067
X8280Y280
T4
X-40620Y22785
X-40620Y22057
X-40620Y20108
X-40620Y15364
X-39173Y11906
X-39173Y10906
X-34518Y22608
X-34518Y20089
X-34518Y19341
X-34518Y17648
X-34518Y15187
X-4715Y19026
X4000Y26370
X4000Y25370
X4000Y24370
X4000Y23370
X4000Y22370
X4000Y21370
X4000Y20370
X4000Y19370
X4000Y18370
X4000Y17370
X4000Y16370
X4000Y15370
X4000Y14370
X4000Y13370
X4000Y12370
X4000Y11370
X4000Y10370
X4000Y9370
X4000Y8370
X4000Y7370
X5000Y26370
X5000Y25370
X5000Y24370
X5000Y23370
X5000Y22370
X5000Y21370
X5000Y20370
X5000Y19370
X5000Y18370
X5000Y17370
X5000Y16370
X5000Y15370
X5000Y14370
X5000Y13370
X5000Y12370
X5000Y11370
X5000Y10370
X5000Y9370
X5000Y8370
X5000Y7370
X34980Y11142
X34980Y10142
T5
X4075Y33780
X4075Y32008
X5256Y33780
X5256Y32008
X6437Y33780
X6437Y32008
X7618Y33780
X7618Y32008
X8799Y33780
X8799Y32008
X9980Y33780
X9980Y32008
X11161Y33780
X11161Y32008
X12343Y33780
X12343Y32008
X14685Y33780
X14705Y32008
X16063Y33780
X16063Y32008
X17283Y33780
X17283Y32008
X18465Y33780
X18465Y32008
X19646Y33780
X19646Y32008
X20827Y33780
X20827Y32008
X22008Y33780
X22008Y32008
X23189Y33780
X23189Y32008
X24370Y33780
X24370Y32008
X25551Y33780
X25551Y32008
X26772Y33780
X26772Y32008
X28150Y33780
X28150Y32008
X29528Y33780
X29528Y32008
T6
X-6890Y7598
X-6890Y5433
X-5236Y7598
X-5236Y5433
X-3583Y7598
X-3583Y5433
X31870Y26496
X31870Y24843
X31870Y23189
X31870Y21535
X31870Y19882
X31870Y18228
X34035Y26496
X34035Y24843
X34035Y23189
X34035Y21535
X34035Y19882
X34035Y18228
T7
X5417Y-787
X10157Y-787
T8
X3917Y36024
X13465Y36024
X29783Y36024
T9
X-31348Y20199
X-28396Y20199
M30
