G04 #@! TF.GenerationSoftware,KiCad,Pcbnew,8.0.9-8.0.9-0~ubuntu24.04.1*
G04 #@! TF.CreationDate,2026-04-02T00:30:11+00:00*
G04 #@! TF.ProjectId,EP91Starlet,45503931-5374-4617-926c-65742e6b6963,rev?*
G04 #@! TF.SameCoordinates,Original*
G04 #@! TF.FileFunction,Paste,Top*
G04 #@! TF.FilePolarity,Positive*
%FSLAX46Y46*%
G04 Gerber Fmt 4.6, Leading zero omitted, Abs format (unit mm)*
G04 Created by KiCad (PCBNEW 8.0.9-8.0.9-0~ubuntu24.04.1) date 2026-04-02 00:30:11*
%MOMM*%
%LPD*%
G01*
G04 APERTURE LIST*
%ADD10R,4.399991X2.299995*%
%ADD11R,3.999992X2.299995*%
%ADD12R,1.160000X1.950000*%
%ADD13R,0.650000X2.000000*%
%ADD14O,0.000001X0.000001*%
G04 APERTURE END LIST*
G04 #@! TO.C,D9*
G36*
G01*
X-60305000Y74975000D02*
X-60305000Y75725000D01*
G75*
G02*
X-60080000Y75950000I225000J0D01*
G01*
X-59630000Y75950000D01*
G75*
G02*
X-59405000Y75725000I0J-225000D01*
G01*
X-59405000Y74975000D01*
G75*
G02*
X-59630000Y74750000I-225000J0D01*
G01*
X-60080000Y74750000D01*
G75*
G02*
X-60305000Y74975000I0J225000D01*
G01*
G37*
G36*
G01*
X-57005000Y74975000D02*
X-57005000Y75725000D01*
G75*
G02*
X-56780000Y75950000I225000J0D01*
G01*
X-56330000Y75950000D01*
G75*
G02*
X-56105000Y75725000I0J-225000D01*
G01*
X-56105000Y74975000D01*
G75*
G02*
X-56330000Y74750000I-225000J0D01*
G01*
X-56780000Y74750000D01*
G75*
G02*
X-57005000Y74975000I0J225000D01*
G01*
G37*
G04 #@! TD*
G04 #@! TO.C,U3*
G36*
G01*
X-2980000Y53995000D02*
X-3430000Y53995000D01*
G75*
G02*
X-3505000Y54070000I0J75000D01*
G01*
X-3505000Y55890000D01*
G75*
G02*
X-3430000Y55965000I75000J0D01*
G01*
X-2980000Y55965000D01*
G75*
G02*
X-2905000Y55890000I0J-75000D01*
G01*
X-2905000Y54070000D01*
G75*
G02*
X-2980000Y53995000I-75000J0D01*
G01*
G37*
G36*
G01*
X-1710000Y53995000D02*
X-2160000Y53995000D01*
G75*
G02*
X-2235000Y54070000I0J75000D01*
G01*
X-2235000Y55890000D01*
G75*
G02*
X-2160000Y55965000I75000J0D01*
G01*
X-1710000Y55965000D01*
G75*
G02*
X-1635000Y55890000I0J-75000D01*
G01*
X-1635000Y54070000D01*
G75*
G02*
X-1710000Y53995000I-75000J0D01*
G01*
G37*
G36*
G01*
X-440000Y53995000D02*
X-890000Y53995000D01*
G75*
G02*
X-965000Y54070000I0J75000D01*
G01*
X-965000Y55890000D01*
G75*
G02*
X-890000Y55965000I75000J0D01*
G01*
X-440000Y55965000D01*
G75*
G02*
X-365000Y55890000I0J-75000D01*
G01*
X-365000Y54070000D01*
G75*
G02*
X-440000Y53995000I-75000J0D01*
G01*
G37*
G36*
G01*
X830000Y53995000D02*
X380000Y53995000D01*
G75*
G02*
X305000Y54070000I0J75000D01*
G01*
X305000Y55890000D01*
G75*
G02*
X380000Y55965000I75000J0D01*
G01*
X830000Y55965000D01*
G75*
G02*
X905000Y55890000I0J-75000D01*
G01*
X905000Y54070000D01*
G75*
G02*
X830000Y53995000I-75000J0D01*
G01*
G37*
G36*
G01*
X830000Y58945000D02*
X380000Y58945000D01*
G75*
G02*
X305000Y59020000I0J75000D01*
G01*
X305000Y60840000D01*
G75*
G02*
X380000Y60915000I75000J0D01*
G01*
X830000Y60915000D01*
G75*
G02*
X905000Y60840000I0J-75000D01*
G01*
X905000Y59020000D01*
G75*
G02*
X830000Y58945000I-75000J0D01*
G01*
G37*
G36*
G01*
X-440000Y58945000D02*
X-890000Y58945000D01*
G75*
G02*
X-965000Y59020000I0J75000D01*
G01*
X-965000Y60840000D01*
G75*
G02*
X-890000Y60915000I75000J0D01*
G01*
X-440000Y60915000D01*
G75*
G02*
X-365000Y60840000I0J-75000D01*
G01*
X-365000Y59020000D01*
G75*
G02*
X-440000Y58945000I-75000J0D01*
G01*
G37*
G36*
G01*
X-1710000Y58945000D02*
X-2160000Y58945000D01*
G75*
G02*
X-2235000Y59020000I0J75000D01*
G01*
X-2235000Y60840000D01*
G75*
G02*
X-2160000Y60915000I75000J0D01*
G01*
X-1710000Y60915000D01*
G75*
G02*
X-1635000Y60840000I0J-75000D01*
G01*
X-1635000Y59020000D01*
G75*
G02*
X-1710000Y58945000I-75000J0D01*
G01*
G37*
G36*
G01*
X-2980000Y58945000D02*
X-3430000Y58945000D01*
G75*
G02*
X-3505000Y59020000I0J75000D01*
G01*
X-3505000Y60840000D01*
G75*
G02*
X-3430000Y60915000I75000J0D01*
G01*
X-2980000Y60915000D01*
G75*
G02*
X-2905000Y60840000I0J-75000D01*
G01*
X-2905000Y59020000D01*
G75*
G02*
X-2980000Y58945000I-75000J0D01*
G01*
G37*
G04 #@! TD*
G04 #@! TO.C,U1*
G36*
G01*
X68415000Y73315000D02*
X68415000Y73765000D01*
G75*
G02*
X68490000Y73840000I75000J0D01*
G01*
X70310000Y73840000D01*
G75*
G02*
X70385000Y73765000I0J-75000D01*
G01*
X70385000Y73315000D01*
G75*
G02*
X70310000Y73240000I-75000J0D01*
G01*
X68490000Y73240000D01*
G75*
G02*
X68415000Y73315000I0J75000D01*
G01*
G37*
G36*
G01*
X68415000Y72045000D02*
X68415000Y72495000D01*
G75*
G02*
X68490000Y72570000I75000J0D01*
G01*
X70310000Y72570000D01*
G75*
G02*
X70385000Y72495000I0J-75000D01*
G01*
X70385000Y72045000D01*
G75*
G02*
X70310000Y71970000I-75000J0D01*
G01*
X68490000Y71970000D01*
G75*
G02*
X68415000Y72045000I0J75000D01*
G01*
G37*
G36*
G01*
X68415000Y70775000D02*
X68415000Y71225000D01*
G75*
G02*
X68490000Y71300000I75000J0D01*
G01*
X70310000Y71300000D01*
G75*
G02*
X70385000Y71225000I0J-75000D01*
G01*
X70385000Y70775000D01*
G75*
G02*
X70310000Y70700000I-75000J0D01*
G01*
X68490000Y70700000D01*
G75*
G02*
X68415000Y70775000I0J75000D01*
G01*
G37*
G36*
G01*
X68415000Y69505000D02*
X68415000Y69955000D01*
G75*
G02*
X68490000Y70030000I75000J0D01*
G01*
X70310000Y70030000D01*
G75*
G02*
X70385000Y69955000I0J-75000D01*
G01*
X70385000Y69505000D01*
G75*
G02*
X70310000Y69430000I-75000J0D01*
G01*
X68490000Y69430000D01*
G75*
G02*
X68415000Y69505000I0J75000D01*
G01*
G37*
G36*
G01*
X73365000Y69505000D02*
X73365000Y69955000D01*
G75*
G02*
X73440000Y70030000I75000J0D01*
G01*
X75260000Y70030000D01*
G75*
G02*
X75335000Y69955000I0J-75000D01*
G01*
X75335000Y69505000D01*
G75*
G02*
X75260000Y69430000I-75000J0D01*
G01*
X73440000Y69430000D01*
G75*
G02*
X73365000Y69505000I0J75000D01*
G01*
G37*
G36*
G01*
X73365000Y70775000D02*
X73365000Y71225000D01*
G75*
G02*
X73440000Y71300000I75000J0D01*
G01*
X75260000Y71300000D01*
G75*
G02*
X75335000Y71225000I0J-75000D01*
G01*
X75335000Y70775000D01*
G75*
G02*
X75260000Y70700000I-75000J0D01*
G01*
X73440000Y70700000D01*
G75*
G02*
X73365000Y70775000I0J75000D01*
G01*
G37*
G36*
G01*
X73365000Y72045000D02*
X73365000Y72495000D01*
G75*
G02*
X73440000Y72570000I75000J0D01*
G01*
X75260000Y72570000D01*
G75*
G02*
X75335000Y72495000I0J-75000D01*
G01*
X75335000Y72045000D01*
G75*
G02*
X75260000Y71970000I-75000J0D01*
G01*
X73440000Y71970000D01*
G75*
G02*
X73365000Y72045000I0J75000D01*
G01*
G37*
G36*
G01*
X73365000Y73315000D02*
X73365000Y73765000D01*
G75*
G02*
X73440000Y73840000I75000J0D01*
G01*
X75260000Y73840000D01*
G75*
G02*
X75335000Y73765000I0J-75000D01*
G01*
X75335000Y73315000D01*
G75*
G02*
X75260000Y73240000I-75000J0D01*
G01*
X73440000Y73240000D01*
G75*
G02*
X73365000Y73315000I0J75000D01*
G01*
G37*
G04 #@! TD*
G04 #@! TO.C,R14*
G36*
G01*
X-48840000Y71225000D02*
X-48840000Y71595000D01*
G75*
G02*
X-48705000Y71730000I135000J0D01*
G01*
X-48435000Y71730000D01*
G75*
G02*
X-48300000Y71595000I0J-135000D01*
G01*
X-48300000Y71225000D01*
G75*
G02*
X-48435000Y71090000I-135000J0D01*
G01*
X-48705000Y71090000D01*
G75*
G02*
X-48840000Y71225000I0J135000D01*
G01*
G37*
G36*
G01*
X-47820000Y71225000D02*
X-47820000Y71595000D01*
G75*
G02*
X-47685000Y71730000I135000J0D01*
G01*
X-47415000Y71730000D01*
G75*
G02*
X-47280000Y71595000I0J-135000D01*
G01*
X-47280000Y71225000D01*
G75*
G02*
X-47415000Y71090000I-135000J0D01*
G01*
X-47685000Y71090000D01*
G75*
G02*
X-47820000Y71225000I0J135000D01*
G01*
G37*
G04 #@! TD*
G04 #@! TO.C,L1*
G36*
G01*
X76405000Y22533750D02*
X76405000Y23046250D01*
G75*
G02*
X76623750Y23265000I218750J0D01*
G01*
X77061250Y23265000D01*
G75*
G02*
X77280000Y23046250I0J-218750D01*
G01*
X77280000Y22533750D01*
G75*
G02*
X77061250Y22315000I-218750J0D01*
G01*
X76623750Y22315000D01*
G75*
G02*
X76405000Y22533750I0J218750D01*
G01*
G37*
G36*
G01*
X77980000Y22533750D02*
X77980000Y23046250D01*
G75*
G02*
X78198750Y23265000I218750J0D01*
G01*
X78636250Y23265000D01*
G75*
G02*
X78855000Y23046250I0J-218750D01*
G01*
X78855000Y22533750D01*
G75*
G02*
X78636250Y22315000I-218750J0D01*
G01*
X78198750Y22315000D01*
G75*
G02*
X77980000Y22533750I0J218750D01*
G01*
G37*
G04 #@! TD*
G04 #@! TO.C,U6*
G36*
G01*
X67040000Y40880000D02*
X67040000Y41330000D01*
G75*
G02*
X67115000Y41405000I75000J0D01*
G01*
X68935000Y41405000D01*
G75*
G02*
X69010000Y41330000I0J-75000D01*
G01*
X69010000Y40880000D01*
G75*
G02*
X68935000Y40805000I-75000J0D01*
G01*
X67115000Y40805000D01*
G75*
G02*
X67040000Y40880000I0J75000D01*
G01*
G37*
G36*
G01*
X67040000Y39610000D02*
X67040000Y40060000D01*
G75*
G02*
X67115000Y40135000I75000J0D01*
G01*
X68935000Y40135000D01*
G75*
G02*
X69010000Y40060000I0J-75000D01*
G01*
X69010000Y39610000D01*
G75*
G02*
X68935000Y39535000I-75000J0D01*
G01*
X67115000Y39535000D01*
G75*
G02*
X67040000Y39610000I0J75000D01*
G01*
G37*
G36*
G01*
X67040000Y38340000D02*
X67040000Y38790000D01*
G75*
G02*
X67115000Y38865000I75000J0D01*
G01*
X68935000Y38865000D01*
G75*
G02*
X69010000Y38790000I0J-75000D01*
G01*
X69010000Y38340000D01*
G75*
G02*
X68935000Y38265000I-75000J0D01*
G01*
X67115000Y38265000D01*
G75*
G02*
X67040000Y38340000I0J75000D01*
G01*
G37*
G36*
G01*
X67040000Y37070000D02*
X67040000Y37520000D01*
G75*
G02*
X67115000Y37595000I75000J0D01*
G01*
X68935000Y37595000D01*
G75*
G02*
X69010000Y37520000I0J-75000D01*
G01*
X69010000Y37070000D01*
G75*
G02*
X68935000Y36995000I-75000J0D01*
G01*
X67115000Y36995000D01*
G75*
G02*
X67040000Y37070000I0J75000D01*
G01*
G37*
G36*
G01*
X71990000Y37070000D02*
X71990000Y37520000D01*
G75*
G02*
X72065000Y37595000I75000J0D01*
G01*
X73885000Y37595000D01*
G75*
G02*
X73960000Y37520000I0J-75000D01*
G01*
X73960000Y37070000D01*
G75*
G02*
X73885000Y36995000I-75000J0D01*
G01*
X72065000Y36995000D01*
G75*
G02*
X71990000Y37070000I0J75000D01*
G01*
G37*
G36*
G01*
X71990000Y38340000D02*
X71990000Y38790000D01*
G75*
G02*
X72065000Y38865000I75000J0D01*
G01*
X73885000Y38865000D01*
G75*
G02*
X73960000Y38790000I0J-75000D01*
G01*
X73960000Y38340000D01*
G75*
G02*
X73885000Y38265000I-75000J0D01*
G01*
X72065000Y38265000D01*
G75*
G02*
X71990000Y38340000I0J75000D01*
G01*
G37*
G36*
G01*
X71990000Y39610000D02*
X71990000Y40060000D01*
G75*
G02*
X72065000Y40135000I75000J0D01*
G01*
X73885000Y40135000D01*
G75*
G02*
X73960000Y40060000I0J-75000D01*
G01*
X73960000Y39610000D01*
G75*
G02*
X73885000Y39535000I-75000J0D01*
G01*
X72065000Y39535000D01*
G75*
G02*
X71990000Y39610000I0J75000D01*
G01*
G37*
G36*
G01*
X71990000Y40880000D02*
X71990000Y41330000D01*
G75*
G02*
X72065000Y41405000I75000J0D01*
G01*
X73885000Y41405000D01*
G75*
G02*
X73960000Y41330000I0J-75000D01*
G01*
X73960000Y40880000D01*
G75*
G02*
X73885000Y40805000I-75000J0D01*
G01*
X72065000Y40805000D01*
G75*
G02*
X71990000Y40880000I0J75000D01*
G01*
G37*
G04 #@! TD*
G04 #@! TO.C,D3*
G36*
G01*
X-60305000Y91725000D02*
X-60305000Y92475000D01*
G75*
G02*
X-60080000Y92700000I225000J0D01*
G01*
X-59630000Y92700000D01*
G75*
G02*
X-59405000Y92475000I0J-225000D01*
G01*
X-59405000Y91725000D01*
G75*
G02*
X-59630000Y91500000I-225000J0D01*
G01*
X-60080000Y91500000D01*
G75*
G02*
X-60305000Y91725000I0J225000D01*
G01*
G37*
G36*
G01*
X-57005000Y91725000D02*
X-57005000Y92475000D01*
G75*
G02*
X-56780000Y92700000I225000J0D01*
G01*
X-56330000Y92700000D01*
G75*
G02*
X-56105000Y92475000I0J-225000D01*
G01*
X-56105000Y91725000D01*
G75*
G02*
X-56330000Y91500000I-225000J0D01*
G01*
X-56780000Y91500000D01*
G75*
G02*
X-57005000Y91725000I0J225000D01*
G01*
G37*
G04 #@! TD*
G04 #@! TO.C,F1*
G36*
G01*
X87300000Y21155001D02*
X87300000Y22404999D01*
G75*
G02*
X87550001Y22655000I250001J0D01*
G01*
X88474999Y22655000D01*
G75*
G02*
X88725000Y22404999I0J-250001D01*
G01*
X88725000Y21155001D01*
G75*
G02*
X88474999Y20905000I-250001J0D01*
G01*
X87550001Y20905000D01*
G75*
G02*
X87300000Y21155001I0J250001D01*
G01*
G37*
G36*
G01*
X90275000Y21155001D02*
X90275000Y22404999D01*
G75*
G02*
X90525001Y22655000I250001J0D01*
G01*
X91449999Y22655000D01*
G75*
G02*
X91700000Y22404999I0J-250001D01*
G01*
X91700000Y21155001D01*
G75*
G02*
X91449999Y20905000I-250001J0D01*
G01*
X90525001Y20905000D01*
G75*
G02*
X90275000Y21155001I0J250001D01*
G01*
G37*
G04 #@! TD*
G04 #@! TO.C,R2*
G36*
G01*
X-54660000Y75205000D02*
X-54660000Y75575000D01*
G75*
G02*
X-54525000Y75710000I135000J0D01*
G01*
X-54255000Y75710000D01*
G75*
G02*
X-54120000Y75575000I0J-135000D01*
G01*
X-54120000Y75205000D01*
G75*
G02*
X-54255000Y75070000I-135000J0D01*
G01*
X-54525000Y75070000D01*
G75*
G02*
X-54660000Y75205000I0J135000D01*
G01*
G37*
G36*
G01*
X-53640000Y75205000D02*
X-53640000Y75575000D01*
G75*
G02*
X-53505000Y75710000I135000J0D01*
G01*
X-53235000Y75710000D01*
G75*
G02*
X-53100000Y75575000I0J-135000D01*
G01*
X-53100000Y75205000D01*
G75*
G02*
X-53235000Y75070000I-135000J0D01*
G01*
X-53505000Y75070000D01*
G75*
G02*
X-53640000Y75205000I0J135000D01*
G01*
G37*
G04 #@! TD*
G04 #@! TO.C,D1*
G36*
G01*
X-60305000Y98425000D02*
X-60305000Y99175000D01*
G75*
G02*
X-60080000Y99400000I225000J0D01*
G01*
X-59630000Y99400000D01*
G75*
G02*
X-59405000Y99175000I0J-225000D01*
G01*
X-59405000Y98425000D01*
G75*
G02*
X-59630000Y98200000I-225000J0D01*
G01*
X-60080000Y98200000D01*
G75*
G02*
X-60305000Y98425000I0J225000D01*
G01*
G37*
G36*
G01*
X-57005000Y98425000D02*
X-57005000Y99175000D01*
G75*
G02*
X-56780000Y99400000I225000J0D01*
G01*
X-56330000Y99400000D01*
G75*
G02*
X-56105000Y99175000I0J-225000D01*
G01*
X-56105000Y98425000D01*
G75*
G02*
X-56330000Y98200000I-225000J0D01*
G01*
X-56780000Y98200000D01*
G75*
G02*
X-57005000Y98425000I0J225000D01*
G01*
G37*
G04 #@! TD*
D10*
G04 #@! TO.C,BT1*
X-83725005Y51304737D03*
D11*
X-67724986Y51304737D03*
G04 #@! TD*
G04 #@! TO.C,R1*
G36*
G01*
X-54660000Y77195000D02*
X-54660000Y77565000D01*
G75*
G02*
X-54525000Y77700000I135000J0D01*
G01*
X-54255000Y77700000D01*
G75*
G02*
X-54120000Y77565000I0J-135000D01*
G01*
X-54120000Y77195000D01*
G75*
G02*
X-54255000Y77060000I-135000J0D01*
G01*
X-54525000Y77060000D01*
G75*
G02*
X-54660000Y77195000I0J135000D01*
G01*
G37*
G36*
G01*
X-53640000Y77195000D02*
X-53640000Y77565000D01*
G75*
G02*
X-53505000Y77700000I135000J0D01*
G01*
X-53235000Y77700000D01*
G75*
G02*
X-53100000Y77565000I0J-135000D01*
G01*
X-53100000Y77195000D01*
G75*
G02*
X-53235000Y77060000I-135000J0D01*
G01*
X-53505000Y77060000D01*
G75*
G02*
X-53640000Y77195000I0J135000D01*
G01*
G37*
G04 #@! TD*
D12*
G04 #@! TO.C,U8*
X52520000Y8900000D03*
X53980000Y8900000D03*
X55440000Y8900000D03*
X56900000Y8900000D03*
X58360000Y8900000D03*
X52520000Y11150000D03*
X53980000Y11150000D03*
X55440000Y11150000D03*
X56900000Y11150000D03*
X58360000Y11150000D03*
D13*
X52940000Y5225000D03*
X53940000Y5225000D03*
X54940000Y5225000D03*
X55940000Y5225000D03*
X56940000Y5225000D03*
X57940000Y5225000D03*
X57940000Y14825000D03*
X56940000Y14825000D03*
X55940000Y14825000D03*
X54940000Y14825000D03*
X53940000Y14825000D03*
X52940000Y14825000D03*
G04 #@! TD*
G04 #@! TO.C,R9*
G36*
G01*
X-51750000Y71225000D02*
X-51750000Y71595000D01*
G75*
G02*
X-51615000Y71730000I135000J0D01*
G01*
X-51345000Y71730000D01*
G75*
G02*
X-51210000Y71595000I0J-135000D01*
G01*
X-51210000Y71225000D01*
G75*
G02*
X-51345000Y71090000I-135000J0D01*
G01*
X-51615000Y71090000D01*
G75*
G02*
X-51750000Y71225000I0J135000D01*
G01*
G37*
G36*
G01*
X-50730000Y71225000D02*
X-50730000Y71595000D01*
G75*
G02*
X-50595000Y71730000I135000J0D01*
G01*
X-50325000Y71730000D01*
G75*
G02*
X-50190000Y71595000I0J-135000D01*
G01*
X-50190000Y71225000D01*
G75*
G02*
X-50325000Y71090000I-135000J0D01*
G01*
X-50595000Y71090000D01*
G75*
G02*
X-50730000Y71225000I0J135000D01*
G01*
G37*
G04 #@! TD*
G04 #@! TO.C,R6*
G36*
G01*
X-51750000Y77195000D02*
X-51750000Y77565000D01*
G75*
G02*
X-51615000Y77700000I135000J0D01*
G01*
X-51345000Y77700000D01*
G75*
G02*
X-51210000Y77565000I0J-135000D01*
G01*
X-51210000Y77195000D01*
G75*
G02*
X-51345000Y77060000I-135000J0D01*
G01*
X-51615000Y77060000D01*
G75*
G02*
X-51750000Y77195000I0J135000D01*
G01*
G37*
G36*
G01*
X-50730000Y77195000D02*
X-50730000Y77565000D01*
G75*
G02*
X-50595000Y77700000I135000J0D01*
G01*
X-50325000Y77700000D01*
G75*
G02*
X-50190000Y77565000I0J-135000D01*
G01*
X-50190000Y77195000D01*
G75*
G02*
X-50325000Y77060000I-135000J0D01*
G01*
X-50595000Y77060000D01*
G75*
G02*
X-50730000Y77195000I0J135000D01*
G01*
G37*
G04 #@! TD*
G04 #@! TO.C,R8*
G36*
G01*
X-51750000Y73215000D02*
X-51750000Y73585000D01*
G75*
G02*
X-51615000Y73720000I135000J0D01*
G01*
X-51345000Y73720000D01*
G75*
G02*
X-51210000Y73585000I0J-135000D01*
G01*
X-51210000Y73215000D01*
G75*
G02*
X-51345000Y73080000I-135000J0D01*
G01*
X-51615000Y73080000D01*
G75*
G02*
X-51750000Y73215000I0J135000D01*
G01*
G37*
G36*
G01*
X-50730000Y73215000D02*
X-50730000Y73585000D01*
G75*
G02*
X-50595000Y73720000I135000J0D01*
G01*
X-50325000Y73720000D01*
G75*
G02*
X-50190000Y73585000I0J-135000D01*
G01*
X-50190000Y73215000D01*
G75*
G02*
X-50325000Y73080000I-135000J0D01*
G01*
X-50595000Y73080000D01*
G75*
G02*
X-50730000Y73215000I0J135000D01*
G01*
G37*
G04 #@! TD*
G04 #@! TO.C,U4*
G36*
G01*
X-3675000Y75220000D02*
X-4125000Y75220000D01*
G75*
G02*
X-4200000Y75295000I0J75000D01*
G01*
X-4200000Y77115000D01*
G75*
G02*
X-4125000Y77190000I75000J0D01*
G01*
X-3675000Y77190000D01*
G75*
G02*
X-3600000Y77115000I0J-75000D01*
G01*
X-3600000Y75295000D01*
G75*
G02*
X-3675000Y75220000I-75000J0D01*
G01*
G37*
G36*
G01*
X-2405000Y75220000D02*
X-2855000Y75220000D01*
G75*
G02*
X-2930000Y75295000I0J75000D01*
G01*
X-2930000Y77115000D01*
G75*
G02*
X-2855000Y77190000I75000J0D01*
G01*
X-2405000Y77190000D01*
G75*
G02*
X-2330000Y77115000I0J-75000D01*
G01*
X-2330000Y75295000D01*
G75*
G02*
X-2405000Y75220000I-75000J0D01*
G01*
G37*
G36*
G01*
X-1135000Y75220000D02*
X-1585000Y75220000D01*
G75*
G02*
X-1660000Y75295000I0J75000D01*
G01*
X-1660000Y77115000D01*
G75*
G02*
X-1585000Y77190000I75000J0D01*
G01*
X-1135000Y77190000D01*
G75*
G02*
X-1060000Y77115000I0J-75000D01*
G01*
X-1060000Y75295000D01*
G75*
G02*
X-1135000Y75220000I-75000J0D01*
G01*
G37*
G36*
G01*
X135000Y75220000D02*
X-315000Y75220000D01*
G75*
G02*
X-390000Y75295000I0J75000D01*
G01*
X-390000Y77115000D01*
G75*
G02*
X-315000Y77190000I75000J0D01*
G01*
X135000Y77190000D01*
G75*
G02*
X210000Y77115000I0J-75000D01*
G01*
X210000Y75295000D01*
G75*
G02*
X135000Y75220000I-75000J0D01*
G01*
G37*
G36*
G01*
X135000Y80170000D02*
X-315000Y80170000D01*
G75*
G02*
X-390000Y80245000I0J75000D01*
G01*
X-390000Y82065000D01*
G75*
G02*
X-315000Y82140000I75000J0D01*
G01*
X135000Y82140000D01*
G75*
G02*
X210000Y82065000I0J-75000D01*
G01*
X210000Y80245000D01*
G75*
G02*
X135000Y80170000I-75000J0D01*
G01*
G37*
G36*
G01*
X-1135000Y80170000D02*
X-1585000Y80170000D01*
G75*
G02*
X-1660000Y80245000I0J75000D01*
G01*
X-1660000Y82065000D01*
G75*
G02*
X-1585000Y82140000I75000J0D01*
G01*
X-1135000Y82140000D01*
G75*
G02*
X-1060000Y82065000I0J-75000D01*
G01*
X-1060000Y80245000D01*
G75*
G02*
X-1135000Y80170000I-75000J0D01*
G01*
G37*
G36*
G01*
X-2405000Y80170000D02*
X-2855000Y80170000D01*
G75*
G02*
X-2930000Y80245000I0J75000D01*
G01*
X-2930000Y82065000D01*
G75*
G02*
X-2855000Y82140000I75000J0D01*
G01*
X-2405000Y82140000D01*
G75*
G02*
X-2330000Y82065000I0J-75000D01*
G01*
X-2330000Y80245000D01*
G75*
G02*
X-2405000Y80170000I-75000J0D01*
G01*
G37*
G36*
G01*
X-3675000Y80170000D02*
X-4125000Y80170000D01*
G75*
G02*
X-4200000Y80245000I0J75000D01*
G01*
X-4200000Y82065000D01*
G75*
G02*
X-4125000Y82140000I75000J0D01*
G01*
X-3675000Y82140000D01*
G75*
G02*
X-3600000Y82065000I0J-75000D01*
G01*
X-3600000Y80245000D01*
G75*
G02*
X-3675000Y80170000I-75000J0D01*
G01*
G37*
G04 #@! TD*
G04 #@! TO.C,D6*
G36*
G01*
X-60305000Y85025000D02*
X-60305000Y85775000D01*
G75*
G02*
X-60080000Y86000000I225000J0D01*
G01*
X-59630000Y86000000D01*
G75*
G02*
X-59405000Y85775000I0J-225000D01*
G01*
X-59405000Y85025000D01*
G75*
G02*
X-59630000Y84800000I-225000J0D01*
G01*
X-60080000Y84800000D01*
G75*
G02*
X-60305000Y85025000I0J225000D01*
G01*
G37*
G36*
G01*
X-57005000Y85025000D02*
X-57005000Y85775000D01*
G75*
G02*
X-56780000Y86000000I225000J0D01*
G01*
X-56330000Y86000000D01*
G75*
G02*
X-56105000Y85775000I0J-225000D01*
G01*
X-56105000Y85025000D01*
G75*
G02*
X-56330000Y84800000I-225000J0D01*
G01*
X-56780000Y84800000D01*
G75*
G02*
X-57005000Y85025000I0J225000D01*
G01*
G37*
G04 #@! TD*
G04 #@! TO.C,D7*
G36*
G01*
X-60305000Y81675000D02*
X-60305000Y82425000D01*
G75*
G02*
X-60080000Y82650000I225000J0D01*
G01*
X-59630000Y82650000D01*
G75*
G02*
X-59405000Y82425000I0J-225000D01*
G01*
X-59405000Y81675000D01*
G75*
G02*
X-59630000Y81450000I-225000J0D01*
G01*
X-60080000Y81450000D01*
G75*
G02*
X-60305000Y81675000I0J225000D01*
G01*
G37*
G36*
G01*
X-57005000Y81675000D02*
X-57005000Y82425000D01*
G75*
G02*
X-56780000Y82650000I225000J0D01*
G01*
X-56330000Y82650000D01*
G75*
G02*
X-56105000Y82425000I0J-225000D01*
G01*
X-56105000Y81675000D01*
G75*
G02*
X-56330000Y81450000I-225000J0D01*
G01*
X-56780000Y81450000D01*
G75*
G02*
X-57005000Y81675000I0J225000D01*
G01*
G37*
G04 #@! TD*
G04 #@! TO.C,D4*
G36*
G01*
X-60305000Y88375000D02*
X-60305000Y89125000D01*
G75*
G02*
X-60080000Y89350000I225000J0D01*
G01*
X-59630000Y89350000D01*
G75*
G02*
X-59405000Y89125000I0J-225000D01*
G01*
X-59405000Y88375000D01*
G75*
G02*
X-59630000Y88150000I-225000J0D01*
G01*
X-60080000Y88150000D01*
G75*
G02*
X-60305000Y88375000I0J225000D01*
G01*
G37*
G36*
G01*
X-57005000Y88375000D02*
X-57005000Y89125000D01*
G75*
G02*
X-56780000Y89350000I225000J0D01*
G01*
X-56330000Y89350000D01*
G75*
G02*
X-56105000Y89125000I0J-225000D01*
G01*
X-56105000Y88375000D01*
G75*
G02*
X-56330000Y88150000I-225000J0D01*
G01*
X-56780000Y88150000D01*
G75*
G02*
X-57005000Y88375000I0J225000D01*
G01*
G37*
G04 #@! TD*
G04 #@! TO.C,R12*
G36*
G01*
X-48840000Y75205000D02*
X-48840000Y75575000D01*
G75*
G02*
X-48705000Y75710000I135000J0D01*
G01*
X-48435000Y75710000D01*
G75*
G02*
X-48300000Y75575000I0J-135000D01*
G01*
X-48300000Y75205000D01*
G75*
G02*
X-48435000Y75070000I-135000J0D01*
G01*
X-48705000Y75070000D01*
G75*
G02*
X-48840000Y75205000I0J135000D01*
G01*
G37*
G36*
G01*
X-47820000Y75205000D02*
X-47820000Y75575000D01*
G75*
G02*
X-47685000Y75710000I135000J0D01*
G01*
X-47415000Y75710000D01*
G75*
G02*
X-47280000Y75575000I0J-135000D01*
G01*
X-47280000Y75205000D01*
G75*
G02*
X-47415000Y75070000I-135000J0D01*
G01*
X-47685000Y75070000D01*
G75*
G02*
X-47820000Y75205000I0J135000D01*
G01*
G37*
G04 #@! TD*
G04 #@! TO.C,U2*
G36*
G01*
X68315000Y63645000D02*
X68315000Y64095000D01*
G75*
G02*
X68390000Y64170000I75000J0D01*
G01*
X70210000Y64170000D01*
G75*
G02*
X70285000Y64095000I0J-75000D01*
G01*
X70285000Y63645000D01*
G75*
G02*
X70210000Y63570000I-75000J0D01*
G01*
X68390000Y63570000D01*
G75*
G02*
X68315000Y63645000I0J75000D01*
G01*
G37*
G36*
G01*
X68315000Y62375000D02*
X68315000Y62825000D01*
G75*
G02*
X68390000Y62900000I75000J0D01*
G01*
X70210000Y62900000D01*
G75*
G02*
X70285000Y62825000I0J-75000D01*
G01*
X70285000Y62375000D01*
G75*
G02*
X70210000Y62300000I-75000J0D01*
G01*
X68390000Y62300000D01*
G75*
G02*
X68315000Y62375000I0J75000D01*
G01*
G37*
G36*
G01*
X68315000Y61105000D02*
X68315000Y61555000D01*
G75*
G02*
X68390000Y61630000I75000J0D01*
G01*
X70210000Y61630000D01*
G75*
G02*
X70285000Y61555000I0J-75000D01*
G01*
X70285000Y61105000D01*
G75*
G02*
X70210000Y61030000I-75000J0D01*
G01*
X68390000Y61030000D01*
G75*
G02*
X68315000Y61105000I0J75000D01*
G01*
G37*
G36*
G01*
X68315000Y59835000D02*
X68315000Y60285000D01*
G75*
G02*
X68390000Y60360000I75000J0D01*
G01*
X70210000Y60360000D01*
G75*
G02*
X70285000Y60285000I0J-75000D01*
G01*
X70285000Y59835000D01*
G75*
G02*
X70210000Y59760000I-75000J0D01*
G01*
X68390000Y59760000D01*
G75*
G02*
X68315000Y59835000I0J75000D01*
G01*
G37*
G36*
G01*
X73265000Y59835000D02*
X73265000Y60285000D01*
G75*
G02*
X73340000Y60360000I75000J0D01*
G01*
X75160000Y60360000D01*
G75*
G02*
X75235000Y60285000I0J-75000D01*
G01*
X75235000Y59835000D01*
G75*
G02*
X75160000Y59760000I-75000J0D01*
G01*
X73340000Y59760000D01*
G75*
G02*
X73265000Y59835000I0J75000D01*
G01*
G37*
G36*
G01*
X73265000Y61105000D02*
X73265000Y61555000D01*
G75*
G02*
X73340000Y61630000I75000J0D01*
G01*
X75160000Y61630000D01*
G75*
G02*
X75235000Y61555000I0J-75000D01*
G01*
X75235000Y61105000D01*
G75*
G02*
X75160000Y61030000I-75000J0D01*
G01*
X73340000Y61030000D01*
G75*
G02*
X73265000Y61105000I0J75000D01*
G01*
G37*
G36*
G01*
X73265000Y62375000D02*
X73265000Y62825000D01*
G75*
G02*
X73340000Y62900000I75000J0D01*
G01*
X75160000Y62900000D01*
G75*
G02*
X75235000Y62825000I0J-75000D01*
G01*
X75235000Y62375000D01*
G75*
G02*
X75160000Y62300000I-75000J0D01*
G01*
X73340000Y62300000D01*
G75*
G02*
X73265000Y62375000I0J75000D01*
G01*
G37*
G36*
G01*
X73265000Y63645000D02*
X73265000Y64095000D01*
G75*
G02*
X73340000Y64170000I75000J0D01*
G01*
X75160000Y64170000D01*
G75*
G02*
X75235000Y64095000I0J-75000D01*
G01*
X75235000Y63645000D01*
G75*
G02*
X75160000Y63570000I-75000J0D01*
G01*
X73340000Y63570000D01*
G75*
G02*
X73265000Y63645000I0J75000D01*
G01*
G37*
G04 #@! TD*
G04 #@! TO.C,R11*
G36*
G01*
X-48840000Y77195000D02*
X-48840000Y77565000D01*
G75*
G02*
X-48705000Y77700000I135000J0D01*
G01*
X-48435000Y77700000D01*
G75*
G02*
X-48300000Y77565000I0J-135000D01*
G01*
X-48300000Y77195000D01*
G75*
G02*
X-48435000Y77060000I-135000J0D01*
G01*
X-48705000Y77060000D01*
G75*
G02*
X-48840000Y77195000I0J135000D01*
G01*
G37*
G36*
G01*
X-47820000Y77195000D02*
X-47820000Y77565000D01*
G75*
G02*
X-47685000Y77700000I135000J0D01*
G01*
X-47415000Y77700000D01*
G75*
G02*
X-47280000Y77565000I0J-135000D01*
G01*
X-47280000Y77195000D01*
G75*
G02*
X-47415000Y77060000I-135000J0D01*
G01*
X-47685000Y77060000D01*
G75*
G02*
X-47820000Y77195000I0J135000D01*
G01*
G37*
G04 #@! TD*
G04 #@! TO.C,L2*
G36*
G01*
X76405000Y20023750D02*
X76405000Y20536250D01*
G75*
G02*
X76623750Y20755000I218750J0D01*
G01*
X77061250Y20755000D01*
G75*
G02*
X77280000Y20536250I0J-218750D01*
G01*
X77280000Y20023750D01*
G75*
G02*
X77061250Y19805000I-218750J0D01*
G01*
X76623750Y19805000D01*
G75*
G02*
X76405000Y20023750I0J218750D01*
G01*
G37*
G36*
G01*
X77980000Y20023750D02*
X77980000Y20536250D01*
G75*
G02*
X78198750Y20755000I218750J0D01*
G01*
X78636250Y20755000D01*
G75*
G02*
X78855000Y20536250I0J-218750D01*
G01*
X78855000Y20023750D01*
G75*
G02*
X78636250Y19805000I-218750J0D01*
G01*
X78198750Y19805000D01*
G75*
G02*
X77980000Y20023750I0J218750D01*
G01*
G37*
G04 #@! TD*
G04 #@! TO.C,R10*
G36*
G01*
X-51750000Y69235000D02*
X-51750000Y69605000D01*
G75*
G02*
X-51615000Y69740000I135000J0D01*
G01*
X-51345000Y69740000D01*
G75*
G02*
X-51210000Y69605000I0J-135000D01*
G01*
X-51210000Y69235000D01*
G75*
G02*
X-51345000Y69100000I-135000J0D01*
G01*
X-51615000Y69100000D01*
G75*
G02*
X-51750000Y69235000I0J135000D01*
G01*
G37*
G36*
G01*
X-50730000Y69235000D02*
X-50730000Y69605000D01*
G75*
G02*
X-50595000Y69740000I135000J0D01*
G01*
X-50325000Y69740000D01*
G75*
G02*
X-50190000Y69605000I0J-135000D01*
G01*
X-50190000Y69235000D01*
G75*
G02*
X-50325000Y69100000I-135000J0D01*
G01*
X-50595000Y69100000D01*
G75*
G02*
X-50730000Y69235000I0J135000D01*
G01*
G37*
G04 #@! TD*
G04 #@! TO.C,D5*
G36*
G01*
X-53855000Y42287500D02*
X-53855000Y42512500D01*
G75*
G02*
X-53742500Y42625000I112500J0D01*
G01*
X-53367500Y42625000D01*
G75*
G02*
X-53255000Y42512500I0J-112500D01*
G01*
X-53255000Y42287500D01*
G75*
G02*
X-53367500Y42175000I-112500J0D01*
G01*
X-53742500Y42175000D01*
G75*
G02*
X-53855000Y42287500I0J112500D01*
G01*
G37*
G36*
G01*
X-51755000Y42287500D02*
X-51755000Y42512500D01*
G75*
G02*
X-51642500Y42625000I112500J0D01*
G01*
X-51267500Y42625000D01*
G75*
G02*
X-51155000Y42512500I0J-112500D01*
G01*
X-51155000Y42287500D01*
G75*
G02*
X-51267500Y42175000I-112500J0D01*
G01*
X-51642500Y42175000D01*
G75*
G02*
X-51755000Y42287500I0J112500D01*
G01*
G37*
G04 #@! TD*
G04 #@! TO.C,D8*
G36*
G01*
X-60305000Y78325000D02*
X-60305000Y79075000D01*
G75*
G02*
X-60080000Y79300000I225000J0D01*
G01*
X-59630000Y79300000D01*
G75*
G02*
X-59405000Y79075000I0J-225000D01*
G01*
X-59405000Y78325000D01*
G75*
G02*
X-59630000Y78100000I-225000J0D01*
G01*
X-60080000Y78100000D01*
G75*
G02*
X-60305000Y78325000I0J225000D01*
G01*
G37*
G36*
G01*
X-57005000Y78325000D02*
X-57005000Y79075000D01*
G75*
G02*
X-56780000Y79300000I225000J0D01*
G01*
X-56330000Y79300000D01*
G75*
G02*
X-56105000Y79075000I0J-225000D01*
G01*
X-56105000Y78325000D01*
G75*
G02*
X-56330000Y78100000I-225000J0D01*
G01*
X-56780000Y78100000D01*
G75*
G02*
X-57005000Y78325000I0J225000D01*
G01*
G37*
G04 #@! TD*
G04 #@! TO.C,R3*
G36*
G01*
X-54660000Y73215000D02*
X-54660000Y73585000D01*
G75*
G02*
X-54525000Y73720000I135000J0D01*
G01*
X-54255000Y73720000D01*
G75*
G02*
X-54120000Y73585000I0J-135000D01*
G01*
X-54120000Y73215000D01*
G75*
G02*
X-54255000Y73080000I-135000J0D01*
G01*
X-54525000Y73080000D01*
G75*
G02*
X-54660000Y73215000I0J135000D01*
G01*
G37*
G36*
G01*
X-53640000Y73215000D02*
X-53640000Y73585000D01*
G75*
G02*
X-53505000Y73720000I135000J0D01*
G01*
X-53235000Y73720000D01*
G75*
G02*
X-53100000Y73585000I0J-135000D01*
G01*
X-53100000Y73215000D01*
G75*
G02*
X-53235000Y73080000I-135000J0D01*
G01*
X-53505000Y73080000D01*
G75*
G02*
X-53640000Y73215000I0J135000D01*
G01*
G37*
G04 #@! TD*
G04 #@! TO.C,R7*
G36*
G01*
X-51750000Y75205000D02*
X-51750000Y75575000D01*
G75*
G02*
X-51615000Y75710000I135000J0D01*
G01*
X-51345000Y75710000D01*
G75*
G02*
X-51210000Y75575000I0J-135000D01*
G01*
X-51210000Y75205000D01*
G75*
G02*
X-51345000Y75070000I-135000J0D01*
G01*
X-51615000Y75070000D01*
G75*
G02*
X-51750000Y75205000I0J135000D01*
G01*
G37*
G36*
G01*
X-50730000Y75205000D02*
X-50730000Y75575000D01*
G75*
G02*
X-50595000Y75710000I135000J0D01*
G01*
X-50325000Y75710000D01*
G75*
G02*
X-50190000Y75575000I0J-135000D01*
G01*
X-50190000Y75205000D01*
G75*
G02*
X-50325000Y75070000I-135000J0D01*
G01*
X-50595000Y75070000D01*
G75*
G02*
X-50730000Y75205000I0J135000D01*
G01*
G37*
G04 #@! TD*
G04 #@! TO.C,U5*
G36*
G01*
X67040000Y51480000D02*
X67040000Y51930000D01*
G75*
G02*
X67115000Y52005000I75000J0D01*
G01*
X68935000Y52005000D01*
G75*
G02*
X69010000Y51930000I0J-75000D01*
G01*
X69010000Y51480000D01*
G75*
G02*
X68935000Y51405000I-75000J0D01*
G01*
X67115000Y51405000D01*
G75*
G02*
X67040000Y51480000I0J75000D01*
G01*
G37*
G36*
G01*
X67040000Y50210000D02*
X67040000Y50660000D01*
G75*
G02*
X67115000Y50735000I75000J0D01*
G01*
X68935000Y50735000D01*
G75*
G02*
X69010000Y50660000I0J-75000D01*
G01*
X69010000Y50210000D01*
G75*
G02*
X68935000Y50135000I-75000J0D01*
G01*
X67115000Y50135000D01*
G75*
G02*
X67040000Y50210000I0J75000D01*
G01*
G37*
G36*
G01*
X67040000Y48940000D02*
X67040000Y49390000D01*
G75*
G02*
X67115000Y49465000I75000J0D01*
G01*
X68935000Y49465000D01*
G75*
G02*
X69010000Y49390000I0J-75000D01*
G01*
X69010000Y48940000D01*
G75*
G02*
X68935000Y48865000I-75000J0D01*
G01*
X67115000Y48865000D01*
G75*
G02*
X67040000Y48940000I0J75000D01*
G01*
G37*
G36*
G01*
X67040000Y47670000D02*
X67040000Y48120000D01*
G75*
G02*
X67115000Y48195000I75000J0D01*
G01*
X68935000Y48195000D01*
G75*
G02*
X69010000Y48120000I0J-75000D01*
G01*
X69010000Y47670000D01*
G75*
G02*
X68935000Y47595000I-75000J0D01*
G01*
X67115000Y47595000D01*
G75*
G02*
X67040000Y47670000I0J75000D01*
G01*
G37*
G36*
G01*
X71990000Y47670000D02*
X71990000Y48120000D01*
G75*
G02*
X72065000Y48195000I75000J0D01*
G01*
X73885000Y48195000D01*
G75*
G02*
X73960000Y48120000I0J-75000D01*
G01*
X73960000Y47670000D01*
G75*
G02*
X73885000Y47595000I-75000J0D01*
G01*
X72065000Y47595000D01*
G75*
G02*
X71990000Y47670000I0J75000D01*
G01*
G37*
G36*
G01*
X71990000Y48940000D02*
X71990000Y49390000D01*
G75*
G02*
X72065000Y49465000I75000J0D01*
G01*
X73885000Y49465000D01*
G75*
G02*
X73960000Y49390000I0J-75000D01*
G01*
X73960000Y48940000D01*
G75*
G02*
X73885000Y48865000I-75000J0D01*
G01*
X72065000Y48865000D01*
G75*
G02*
X71990000Y48940000I0J75000D01*
G01*
G37*
G36*
G01*
X71990000Y50210000D02*
X71990000Y50660000D01*
G75*
G02*
X72065000Y50735000I75000J0D01*
G01*
X73885000Y50735000D01*
G75*
G02*
X73960000Y50660000I0J-75000D01*
G01*
X73960000Y50210000D01*
G75*
G02*
X73885000Y50135000I-75000J0D01*
G01*
X72065000Y50135000D01*
G75*
G02*
X71990000Y50210000I0J75000D01*
G01*
G37*
G36*
G01*
X71990000Y51480000D02*
X71990000Y51930000D01*
G75*
G02*
X72065000Y52005000I75000J0D01*
G01*
X73885000Y52005000D01*
G75*
G02*
X73960000Y51930000I0J-75000D01*
G01*
X73960000Y51480000D01*
G75*
G02*
X73885000Y51405000I-75000J0D01*
G01*
X72065000Y51405000D01*
G75*
G02*
X71990000Y51480000I0J75000D01*
G01*
G37*
G04 #@! TD*
G04 #@! TO.C,U7*
G36*
G01*
X76400000Y29025000D02*
X76400000Y29325000D01*
G75*
G02*
X76550000Y29475000I150000J0D01*
G01*
X78200000Y29475000D01*
G75*
G02*
X78350000Y29325000I0J-150000D01*
G01*
X78350000Y29025000D01*
G75*
G02*
X78200000Y28875000I-150000J0D01*
G01*
X76550000Y28875000D01*
G75*
G02*
X76400000Y29025000I0J150000D01*
G01*
G37*
G36*
G01*
X76400000Y27755000D02*
X76400000Y28055000D01*
G75*
G02*
X76550000Y28205000I150000J0D01*
G01*
X78200000Y28205000D01*
G75*
G02*
X78350000Y28055000I0J-150000D01*
G01*
X78350000Y27755000D01*
G75*
G02*
X78200000Y27605000I-150000J0D01*
G01*
X76550000Y27605000D01*
G75*
G02*
X76400000Y27755000I0J150000D01*
G01*
G37*
G36*
G01*
X76400000Y26485000D02*
X76400000Y26785000D01*
G75*
G02*
X76550000Y26935000I150000J0D01*
G01*
X78200000Y26935000D01*
G75*
G02*
X78350000Y26785000I0J-150000D01*
G01*
X78350000Y26485000D01*
G75*
G02*
X78200000Y26335000I-150000J0D01*
G01*
X76550000Y26335000D01*
G75*
G02*
X76400000Y26485000I0J150000D01*
G01*
G37*
G36*
G01*
X76400000Y25215000D02*
X76400000Y25515000D01*
G75*
G02*
X76550000Y25665000I150000J0D01*
G01*
X78200000Y25665000D01*
G75*
G02*
X78350000Y25515000I0J-150000D01*
G01*
X78350000Y25215000D01*
G75*
G02*
X78200000Y25065000I-150000J0D01*
G01*
X76550000Y25065000D01*
G75*
G02*
X76400000Y25215000I0J150000D01*
G01*
G37*
G36*
G01*
X81350000Y25215000D02*
X81350000Y25515000D01*
G75*
G02*
X81500000Y25665000I150000J0D01*
G01*
X83150000Y25665000D01*
G75*
G02*
X83300000Y25515000I0J-150000D01*
G01*
X83300000Y25215000D01*
G75*
G02*
X83150000Y25065000I-150000J0D01*
G01*
X81500000Y25065000D01*
G75*
G02*
X81350000Y25215000I0J150000D01*
G01*
G37*
G36*
G01*
X81350000Y26485000D02*
X81350000Y26785000D01*
G75*
G02*
X81500000Y26935000I150000J0D01*
G01*
X83150000Y26935000D01*
G75*
G02*
X83300000Y26785000I0J-150000D01*
G01*
X83300000Y26485000D01*
G75*
G02*
X83150000Y26335000I-150000J0D01*
G01*
X81500000Y26335000D01*
G75*
G02*
X81350000Y26485000I0J150000D01*
G01*
G37*
G36*
G01*
X81350000Y27755000D02*
X81350000Y28055000D01*
G75*
G02*
X81500000Y28205000I150000J0D01*
G01*
X83150000Y28205000D01*
G75*
G02*
X83300000Y28055000I0J-150000D01*
G01*
X83300000Y27755000D01*
G75*
G02*
X83150000Y27605000I-150000J0D01*
G01*
X81500000Y27605000D01*
G75*
G02*
X81350000Y27755000I0J150000D01*
G01*
G37*
G36*
G01*
X81350000Y29025000D02*
X81350000Y29325000D01*
G75*
G02*
X81500000Y29475000I150000J0D01*
G01*
X83150000Y29475000D01*
G75*
G02*
X83300000Y29325000I0J-150000D01*
G01*
X83300000Y29025000D01*
G75*
G02*
X83150000Y28875000I-150000J0D01*
G01*
X81500000Y28875000D01*
G75*
G02*
X81350000Y29025000I0J150000D01*
G01*
G37*
G04 #@! TD*
G04 #@! TO.C,Q2*
G36*
G01*
X-45835000Y76775000D02*
X-45835000Y77075000D01*
G75*
G02*
X-45685000Y77225000I150000J0D01*
G01*
X-44510000Y77225000D01*
G75*
G02*
X-44360000Y77075000I0J-150000D01*
G01*
X-44360000Y76775000D01*
G75*
G02*
X-44510000Y76625000I-150000J0D01*
G01*
X-45685000Y76625000D01*
G75*
G02*
X-45835000Y76775000I0J150000D01*
G01*
G37*
G36*
G01*
X-45835000Y74875000D02*
X-45835000Y75175000D01*
G75*
G02*
X-45685000Y75325000I150000J0D01*
G01*
X-44510000Y75325000D01*
G75*
G02*
X-44360000Y75175000I0J-150000D01*
G01*
X-44360000Y74875000D01*
G75*
G02*
X-44510000Y74725000I-150000J0D01*
G01*
X-45685000Y74725000D01*
G75*
G02*
X-45835000Y74875000I0J150000D01*
G01*
G37*
G36*
G01*
X-43960000Y75825000D02*
X-43960000Y76125000D01*
G75*
G02*
X-43810000Y76275000I150000J0D01*
G01*
X-42635000Y76275000D01*
G75*
G02*
X-42485000Y76125000I0J-150000D01*
G01*
X-42485000Y75825000D01*
G75*
G02*
X-42635000Y75675000I-150000J0D01*
G01*
X-43810000Y75675000D01*
G75*
G02*
X-43960000Y75825000I0J150000D01*
G01*
G37*
G04 #@! TD*
G04 #@! TO.C,R4*
G36*
G01*
X-54660000Y71225000D02*
X-54660000Y71595000D01*
G75*
G02*
X-54525000Y71730000I135000J0D01*
G01*
X-54255000Y71730000D01*
G75*
G02*
X-54120000Y71595000I0J-135000D01*
G01*
X-54120000Y71225000D01*
G75*
G02*
X-54255000Y71090000I-135000J0D01*
G01*
X-54525000Y71090000D01*
G75*
G02*
X-54660000Y71225000I0J135000D01*
G01*
G37*
G36*
G01*
X-53640000Y71225000D02*
X-53640000Y71595000D01*
G75*
G02*
X-53505000Y71730000I135000J0D01*
G01*
X-53235000Y71730000D01*
G75*
G02*
X-53100000Y71595000I0J-135000D01*
G01*
X-53100000Y71225000D01*
G75*
G02*
X-53235000Y71090000I-135000J0D01*
G01*
X-53505000Y71090000D01*
G75*
G02*
X-53640000Y71225000I0J135000D01*
G01*
G37*
G04 #@! TD*
G04 #@! TO.C,R5*
G36*
G01*
X-54660000Y69235000D02*
X-54660000Y69605000D01*
G75*
G02*
X-54525000Y69740000I135000J0D01*
G01*
X-54255000Y69740000D01*
G75*
G02*
X-54120000Y69605000I0J-135000D01*
G01*
X-54120000Y69235000D01*
G75*
G02*
X-54255000Y69100000I-135000J0D01*
G01*
X-54525000Y69100000D01*
G75*
G02*
X-54660000Y69235000I0J135000D01*
G01*
G37*
G36*
G01*
X-53640000Y69235000D02*
X-53640000Y69605000D01*
G75*
G02*
X-53505000Y69740000I135000J0D01*
G01*
X-53235000Y69740000D01*
G75*
G02*
X-53100000Y69605000I0J-135000D01*
G01*
X-53100000Y69235000D01*
G75*
G02*
X-53235000Y69100000I-135000J0D01*
G01*
X-53505000Y69100000D01*
G75*
G02*
X-53640000Y69235000I0J135000D01*
G01*
G37*
G04 #@! TD*
G04 #@! TO.C,D10*
G36*
G01*
X80405000Y22445000D02*
X80405000Y22745000D01*
G75*
G02*
X80555000Y22895000I150000J0D01*
G01*
X81730000Y22895000D01*
G75*
G02*
X81880000Y22745000I0J-150000D01*
G01*
X81880000Y22445000D01*
G75*
G02*
X81730000Y22295000I-150000J0D01*
G01*
X80555000Y22295000D01*
G75*
G02*
X80405000Y22445000I0J150000D01*
G01*
G37*
G36*
G01*
X80405000Y20545000D02*
X80405000Y20845000D01*
G75*
G02*
X80555000Y20995000I150000J0D01*
G01*
X81730000Y20995000D01*
G75*
G02*
X81880000Y20845000I0J-150000D01*
G01*
X81880000Y20545000D01*
G75*
G02*
X81730000Y20395000I-150000J0D01*
G01*
X80555000Y20395000D01*
G75*
G02*
X80405000Y20545000I0J150000D01*
G01*
G37*
G36*
G01*
X82280000Y21495000D02*
X82280000Y21795000D01*
G75*
G02*
X82430000Y21945000I150000J0D01*
G01*
X83605000Y21945000D01*
G75*
G02*
X83755000Y21795000I0J-150000D01*
G01*
X83755000Y21495000D01*
G75*
G02*
X83605000Y21345000I-150000J0D01*
G01*
X82430000Y21345000D01*
G75*
G02*
X82280000Y21495000I0J150000D01*
G01*
G37*
G04 #@! TD*
G04 #@! TO.C,R13*
G36*
G01*
X-48840000Y73215000D02*
X-48840000Y73585000D01*
G75*
G02*
X-48705000Y73720000I135000J0D01*
G01*
X-48435000Y73720000D01*
G75*
G02*
X-48300000Y73585000I0J-135000D01*
G01*
X-48300000Y73215000D01*
G75*
G02*
X-48435000Y73080000I-135000J0D01*
G01*
X-48705000Y73080000D01*
G75*
G02*
X-48840000Y73215000I0J135000D01*
G01*
G37*
G36*
G01*
X-47820000Y73215000D02*
X-47820000Y73585000D01*
G75*
G02*
X-47685000Y73720000I135000J0D01*
G01*
X-47415000Y73720000D01*
G75*
G02*
X-47280000Y73585000I0J-135000D01*
G01*
X-47280000Y73215000D01*
G75*
G02*
X-47415000Y73080000I-135000J0D01*
G01*
X-47685000Y73080000D01*
G75*
G02*
X-47820000Y73215000I0J135000D01*
G01*
G37*
G04 #@! TD*
D14*
G04 #@! TO.C,M7*
X43912501Y3756666D03*
G04 #@! TD*
G04 #@! TO.C,D2*
G36*
G01*
X-60305000Y95075000D02*
X-60305000Y95825000D01*
G75*
G02*
X-60080000Y96050000I225000J0D01*
G01*
X-59630000Y96050000D01*
G75*
G02*
X-59405000Y95825000I0J-225000D01*
G01*
X-59405000Y95075000D01*
G75*
G02*
X-59630000Y94850000I-225000J0D01*
G01*
X-60080000Y94850000D01*
G75*
G02*
X-60305000Y95075000I0J225000D01*
G01*
G37*
G36*
G01*
X-57005000Y95075000D02*
X-57005000Y95825000D01*
G75*
G02*
X-56780000Y96050000I225000J0D01*
G01*
X-56330000Y96050000D01*
G75*
G02*
X-56105000Y95825000I0J-225000D01*
G01*
X-56105000Y95075000D01*
G75*
G02*
X-56330000Y94850000I-225000J0D01*
G01*
X-56780000Y94850000D01*
G75*
G02*
X-57005000Y95075000I0J225000D01*
G01*
G37*
G04 #@! TD*
M02*
