G04 #@! TF.GenerationSoftware,KiCad,Pcbnew,8.0.9-8.0.9-0~ubuntu24.04.1*
G04 #@! TF.CreationDate,2026-03-20T10:57:59+00:00*
G04 #@! TF.ProjectId,EP91Starlet,45503931-5374-4617-926c-65742e6b6963,rev?*
G04 #@! TF.SameCoordinates,Original*
G04 #@! TF.FileFunction,Copper,L1,Top*
G04 #@! TF.FilePolarity,Positive*
%FSLAX46Y46*%
G04 Gerber Fmt 4.6, Leading zero omitted, Abs format (unit mm)*
G04 Created by KiCad (PCBNEW 8.0.9-8.0.9-0~ubuntu24.04.1) date 2026-03-20 10:57:59*
%MOMM*%
%LPD*%
G01*
G04 APERTURE LIST*
G04 #@! TA.AperFunction,ComponentPad*
%ADD10R,1.650000X1.650000*%
G04 #@! TD*
G04 #@! TA.AperFunction,ComponentPad*
%ADD11C,1.650000*%
G04 #@! TD*
G04 #@! TA.AperFunction,ComponentPad*
%ADD12C,5.250000*%
G04 #@! TD*
G04 #@! TA.AperFunction,ComponentPad*
%ADD13C,0.700000*%
G04 #@! TD*
G04 #@! TA.AperFunction,SMDPad,CuDef*
%ADD14C,3.000000*%
G04 #@! TD*
G04 #@! TA.AperFunction,SMDPad,CuDef*
%ADD15R,0.250000X3.000000*%
G04 #@! TD*
G04 #@! TA.AperFunction,SMDPad,CuDef*
%ADD16R,0.250000X1.100000*%
G04 #@! TD*
G04 #@! TA.AperFunction,SMDPad,CuDef*
%ADD17R,0.250000X0.980000*%
G04 #@! TD*
G04 #@! TA.AperFunction,SMDPad,CuDef*
%ADD18R,0.250000X1.450000*%
G04 #@! TD*
G04 #@! TA.AperFunction,SMDPad,CuDef*
%ADD19R,27.600000X0.250000*%
G04 #@! TD*
G04 #@! TA.AperFunction,SMDPad,CuDef*
%ADD20R,0.250000X1.950000*%
G04 #@! TD*
G04 #@! TA.AperFunction,SMDPad,CuDef*
%ADD21R,0.250000X0.950000*%
G04 #@! TD*
G04 #@! TA.AperFunction,ComponentPad*
%ADD22C,0.600000*%
G04 #@! TD*
G04 #@! TA.AperFunction,SMDPad,CuDef*
%ADD23R,0.200000X2.300000*%
G04 #@! TD*
G04 #@! TA.AperFunction,SMDPad,CuDef*
%ADD24R,0.200000X5.400000*%
G04 #@! TD*
G04 #@! TA.AperFunction,SMDPad,CuDef*
%ADD25R,0.200000X8.600000*%
G04 #@! TD*
G04 #@! TA.AperFunction,SMDPad,CuDef*
%ADD26R,0.200000X5.000000*%
G04 #@! TD*
G04 #@! TA.AperFunction,SMDPad,CuDef*
%ADD27R,1.400000X0.200000*%
G04 #@! TD*
G04 #@! TA.AperFunction,SMDPad,CuDef*
%ADD28R,5.000000X0.200000*%
G04 #@! TD*
G04 #@! TA.AperFunction,SMDPad,CuDef*
%ADD29R,6.800000X0.200000*%
G04 #@! TD*
G04 #@! TA.AperFunction,SMDPad,CuDef*
%ADD30R,4.500000X0.200000*%
G04 #@! TD*
G04 #@! TA.AperFunction,SMDPad,CuDef*
%ADD31R,0.200000X1.600000*%
G04 #@! TD*
G04 #@! TA.AperFunction,SMDPad,CuDef*
%ADD32R,0.200000X5.700000*%
G04 #@! TD*
G04 #@! TA.AperFunction,SMDPad,CuDef*
%ADD33R,0.200000X2.000000*%
G04 #@! TD*
G04 #@! TA.AperFunction,ComponentPad*
%ADD34R,1.700000X1.700000*%
G04 #@! TD*
G04 #@! TA.AperFunction,ComponentPad*
%ADD35O,1.700000X1.700000*%
G04 #@! TD*
G04 #@! TA.AperFunction,SMDPad,CuDef*
%ADD36R,0.250000X6.185000*%
G04 #@! TD*
G04 #@! TA.AperFunction,SMDPad,CuDef*
%ADD37R,0.250000X1.115000*%
G04 #@! TD*
G04 #@! TA.AperFunction,SMDPad,CuDef*
%ADD38R,14.275000X0.250000*%
G04 #@! TD*
G04 #@! TA.AperFunction,SMDPad,CuDef*
%ADD39R,15.100000X0.250000*%
G04 #@! TD*
G04 #@! TA.AperFunction,SMDPad,CuDef*
%ADD40R,0.250000X5.175000*%
G04 #@! TD*
G04 #@! TA.AperFunction,ComponentPad*
%ADD41C,1.500000*%
G04 #@! TD*
G04 #@! TA.AperFunction,SMDPad,CuDef*
%ADD42O,0.200000X3.300000*%
G04 #@! TD*
G04 #@! TA.AperFunction,SMDPad,CuDef*
%ADD43O,0.200000X10.200000*%
G04 #@! TD*
G04 #@! TA.AperFunction,SMDPad,CuDef*
%ADD44O,0.200000X0.300000*%
G04 #@! TD*
G04 #@! TA.AperFunction,SMDPad,CuDef*
%ADD45O,17.000000X0.200000*%
G04 #@! TD*
G04 #@! TA.AperFunction,SMDPad,CuDef*
%ADD46O,15.400000X0.200000*%
G04 #@! TD*
G04 #@! TA.AperFunction,SMDPad,CuDef*
%ADD47O,0.200000X4.800000*%
G04 #@! TD*
G04 #@! TA.AperFunction,SMDPad,CuDef*
%ADD48O,0.200000X2.600000*%
G04 #@! TD*
G04 #@! TA.AperFunction,SMDPad,CuDef*
%ADD49O,0.200000X1.000000*%
G04 #@! TD*
G04 #@! TA.AperFunction,SMDPad,CuDef*
%ADD50O,0.200000X1.500000*%
G04 #@! TD*
G04 APERTURE END LIST*
D10*
G04 #@! TO.P,J1,1,NC*
G04 #@! TO.N,unconnected-(J1-NC-Pad1)*
X-6168944Y109252000D03*
D11*
G04 #@! TO.P,J1,2,BATT*
G04 #@! TO.N,+12V_PERM*
X-3168944Y109252000D03*
G04 #@! TO.P,J1,3,CCO*
G04 #@! TO.N,unconnected-(J1-CCO-Pad3)*
X-168944Y109252000D03*
G04 #@! TO.P,J1,4,FC*
G04 #@! TO.N,unconnected-(J1-FC-Pad4)*
X2831056Y109252000D03*
G04 #@! TO.P,J1,5,ELS*
G04 #@! TO.N,unconnected-(J1-ELS-Pad5)*
X5831056Y109252000D03*
G04 #@! TO.P,J1,6,AC2*
G04 #@! TO.N,unconnected-(J1-AC2-Pad6)*
X8831056Y109252000D03*
G04 #@! TO.P,J1,7,TE2*
G04 #@! TO.N,unconnected-(J1-TE2-Pad7)*
X11831056Y109252000D03*
G04 #@! TO.P,J1,8,TE1*
G04 #@! TO.N,unconnected-(J1-TE1-Pad8)*
X14831056Y109252000D03*
G04 #@! TO.P,J1,9,+B*
G04 #@! TO.N,+12V_RAW*
X-6168944Y113752000D03*
G04 #@! TO.P,J1,10,W*
G04 #@! TO.N,/CHECKENGINELIGHT*
X-3168944Y113752000D03*
G04 #@! TO.P,J1,11,EGW*
G04 #@! TO.N,/CATCONVERTLIGHT*
X-168944Y113752000D03*
G04 #@! TO.P,J1,12,AC1*
G04 #@! TO.N,unconnected-(J1-AC1-Pad12)*
X2831056Y113752000D03*
G04 #@! TO.P,J1,13,SPD*
G04 #@! TO.N,unconnected-(J1-SPD-Pad13)*
X5831056Y113752000D03*
G04 #@! TO.P,J1,14,ACT*
G04 #@! TO.N,unconnected-(J1-ACT-Pad14)*
X8831056Y113752000D03*
G04 #@! TO.P,J1,15,ELS2*
G04 #@! TO.N,unconnected-(J1-ELS2-Pad15)*
X11831056Y113752000D03*
G04 #@! TO.P,J1,16,VF*
G04 #@! TO.N,unconnected-(J1-VF-Pad16)*
X14831056Y113752000D03*
G04 #@! TO.P,J1,101,RSC*
G04 #@! TO.N,/IACCLOSE*
X20831056Y109252000D03*
G04 #@! TO.P,J1,102,NSW*
G04 #@! TO.N,unconnected-(J1-NSW-Pad102)*
X24281056Y109252000D03*
G04 #@! TO.P,J1,103,THW*
G04 #@! TO.N,/COOLANT*
X27381056Y109252000D03*
G04 #@! TO.P,J1,104,PIM*
G04 #@! TO.N,/MAP*
X30381056Y109252000D03*
G04 #@! TO.P,J1,105,THA*
G04 #@! TO.N,/AIR*
X33381056Y109252000D03*
G04 #@! TO.P,J1,106,IGT*
G04 #@! TO.N,/SPARK1*
X36381056Y109252000D03*
G04 #@! TO.P,J1,107,IGF*
G04 #@! TO.N,unconnected-(J1-IGF-Pad107)*
X39381056Y109252000D03*
G04 #@! TO.P,J1,108,I0F*
G04 #@! TO.N,unconnected-(J1-I0F-Pad108)*
X42381056Y109252000D03*
G04 #@! TO.P,J1,109,NE-*
G04 #@! TO.N,/VR-*
X45381056Y109252000D03*
G04 #@! TO.P,J1,110,OX*
G04 #@! TO.N,/O2SENS*
X48381056Y109252000D03*
G04 #@! TO.P,J1,111,STA*
G04 #@! TO.N,unconnected-(J1-STA-Pad111)*
X51481056Y109252000D03*
G04 #@! TO.P,J1,112,#10*
G04 #@! TO.N,/INJ1*
X54981056Y109252000D03*
G04 #@! TO.P,J1,113,E01*
G04 #@! TO.N,GND*
X58481056Y109252000D03*
G04 #@! TO.P,J1,114,RSO*
G04 #@! TO.N,/IACOPEN*
X20781056Y113752000D03*
G04 #@! TO.P,J1,115,HT*
G04 #@! TO.N,/O2HEAT*
X24281056Y113752000D03*
G04 #@! TO.P,J1,116,E2*
G04 #@! TO.N,GNDA*
X27381056Y113752000D03*
G04 #@! TO.P,J1,117,PSW*
G04 #@! TO.N,/TPS*
X30381056Y113752000D03*
G04 #@! TO.P,J1,118,VCC*
G04 #@! TO.N,+5VP*
X33381056Y113752000D03*
G04 #@! TO.P,J1,119,IDL*
G04 #@! TO.N,/IDLESWITCH*
X36381056Y113752000D03*
G04 #@! TO.P,J1,120,FAN*
G04 #@! TO.N,unconnected-(J1-FAN-Pad120)*
X39381056Y113752000D03*
G04 #@! TO.P,J1,121,NE*
G04 #@! TO.N,/VRCRANK+*
X42381056Y113752000D03*
G04 #@! TO.P,J1,122,ELS3*
G04 #@! TO.N,unconnected-(J1-ELS3-Pad122)*
X45381056Y113752000D03*
G04 #@! TO.P,J1,123,IPV*
G04 #@! TO.N,unconnected-(J1-IPV-Pad123)*
X48381056Y113752000D03*
G04 #@! TO.P,J1,124,E1*
G04 #@! TO.N,GND*
X51481056Y113752000D03*
G04 #@! TO.P,J1,125,#20*
G04 #@! TO.N,/INJ2*
X54981056Y113752000D03*
G04 #@! TO.P,J1,126,NC*
G04 #@! TO.N,unconnected-(J1-NC-Pad126)*
X58481056Y113752000D03*
D12*
G04 #@! TO.P,J1,MH1,MH1*
G04 #@! TO.N,GND*
X-6568944Y119452000D03*
G04 #@! TO.P,J1,MH2,MH2*
X17681056Y119452000D03*
G04 #@! TO.P,J1,MH3,MH3*
X59131056Y119452000D03*
G04 #@! TD*
D13*
G04 #@! TO.P,M5,E1,LSU_Un*
G04 #@! TO.N,unconnected-(M5-LSU_Un-PadE1)*
X23781060Y45352002D03*
G04 #@! TO.P,M5,E2,LSU_Vm*
G04 #@! TO.N,unconnected-(M5-LSU_Vm-PadE2)*
X23781060Y48352002D03*
G04 #@! TO.P,M5,E3,LSU_Ip*
G04 #@! TO.N,unconnected-(M5-LSU_Ip-PadE3)*
X23781060Y47352002D03*
G04 #@! TO.P,M5,E4,LSU_Rtrim*
G04 #@! TO.N,unconnected-(M5-LSU_Rtrim-PadE4)*
X23781060Y46352002D03*
D14*
G04 #@! TO.P,M5,E5,LSU_H+*
G04 #@! TO.N,unconnected-(M5-LSU_H+-PadE5)*
X22531060Y50502002D03*
D15*
G04 #@! TO.P,M5,E6,LSU_H-*
G04 #@! TO.N,unconnected-(M5-LSU_H--PadE6)*
X24156060Y54002002D03*
D16*
G04 #@! TO.P,M5,G,GND*
G04 #@! TO.N,unconnected-(M5-GND-PadG)*
X-3193940Y57202002D03*
D17*
X-3193940Y52862002D03*
X-3193940Y49562002D03*
D18*
X-3193940Y44477002D03*
D19*
X10481060Y57627002D03*
X10481060Y43877002D03*
D20*
X24156060Y56777002D03*
D21*
X24156060Y44227002D03*
G04 #@! TO.P,M5,J1,SEL1*
G04 #@! TO.N,unconnected-(M5-SEL1-PadJ1)*
G04 #@! TA.AperFunction,SMDPad,CuDef*
G36*
G01*
X6231060Y56602002D02*
X6231060Y55352002D01*
G75*
G02*
X6106060Y55227002I-125000J0D01*
G01*
X5856060Y55227002D01*
G75*
G02*
X5731060Y55352002I0J125000D01*
G01*
X5731060Y56602002D01*
G75*
G02*
X5856060Y56727002I125000J0D01*
G01*
X6106060Y56727002D01*
G75*
G02*
X6231060Y56602002I0J-125000D01*
G01*
G37*
G04 #@! TD.AperFunction*
G04 #@! TO.P,M5,J2,SEL2*
G04 #@! TO.N,unconnected-(M5-SEL2-PadJ2)*
G04 #@! TA.AperFunction,SMDPad,CuDef*
G36*
G01*
X4556060Y53927002D02*
X4556060Y53677002D01*
G75*
G02*
X4431060Y53552002I-125000J0D01*
G01*
X3181060Y53552002D01*
G75*
G02*
X3056060Y53677002I0J125000D01*
G01*
X3056060Y53927002D01*
G75*
G02*
X3181060Y54052002I125000J0D01*
G01*
X4431060Y54052002D01*
G75*
G02*
X4556060Y53927002I0J-125000D01*
G01*
G37*
G04 #@! TD.AperFunction*
G04 #@! TO.P,M5,J_GND1,PULL_DOWN1*
G04 #@! TO.N,unconnected-(M5-PULL_DOWN1-PadJ_GND1)*
G04 #@! TA.AperFunction,SMDPad,CuDef*
G36*
G01*
X5431060Y56602002D02*
X5431060Y55352002D01*
G75*
G02*
X5306060Y55227002I-125000J0D01*
G01*
X5056060Y55227002D01*
G75*
G02*
X4931060Y55352002I0J125000D01*
G01*
X4931060Y56602002D01*
G75*
G02*
X5056060Y56727002I125000J0D01*
G01*
X5306060Y56727002D01*
G75*
G02*
X5431060Y56602002I0J-125000D01*
G01*
G37*
G04 #@! TD.AperFunction*
G04 #@! TO.P,M5,J_GND2,PULL_DOWN2*
G04 #@! TO.N,unconnected-(M5-PULL_DOWN2-PadJ_GND2)*
G04 #@! TA.AperFunction,SMDPad,CuDef*
G36*
G01*
X5106060Y54052002D02*
X5356060Y54052002D01*
G75*
G02*
X5481060Y53927002I0J-125000D01*
G01*
X5481060Y53677002D01*
G75*
G02*
X5356060Y53552002I-125000J0D01*
G01*
X5106060Y53552002D01*
G75*
G02*
X4981060Y53677002I0J125000D01*
G01*
X4981060Y53927002D01*
G75*
G02*
X5106060Y54052002I125000J0D01*
G01*
G37*
G04 #@! TD.AperFunction*
G04 #@! TO.P,M5,J_VCC1,PULL_UP1*
G04 #@! TO.N,unconnected-(M5-PULL_UP1-PadJ_VCC1)*
G04 #@! TA.AperFunction,SMDPad,CuDef*
G36*
G01*
X6231060Y54727002D02*
X6231060Y54477002D01*
G75*
G02*
X6106060Y54352002I-125000J0D01*
G01*
X5856060Y54352002D01*
G75*
G02*
X5731060Y54477002I0J125000D01*
G01*
X5731060Y54727002D01*
G75*
G02*
X5856060Y54852002I125000J0D01*
G01*
X6106060Y54852002D01*
G75*
G02*
X6231060Y54727002I0J-125000D01*
G01*
G37*
G04 #@! TD.AperFunction*
G04 #@! TO.P,M5,J_VCC2,PULL_UP2*
G04 #@! TO.N,unconnected-(M5-PULL_UP2-PadJ_VCC2)*
G04 #@! TA.AperFunction,SMDPad,CuDef*
G36*
G01*
X4556060Y54727002D02*
X4556060Y54477002D01*
G75*
G02*
X4431060Y54352002I-125000J0D01*
G01*
X3181060Y54352002D01*
G75*
G02*
X3056060Y54477002I0J125000D01*
G01*
X3056060Y54727002D01*
G75*
G02*
X3181060Y54852002I125000J0D01*
G01*
X4431060Y54852002D01*
G75*
G02*
X4556060Y54727002I0J-125000D01*
G01*
G37*
G04 #@! TD.AperFunction*
D13*
G04 #@! TO.P,M5,W1,V5_IN*
G04 #@! TO.N,unconnected-(M5-V5_IN-PadW1)*
X-2810140Y55002002D03*
G04 #@! TO.P,M5,W2,CAN_VIO*
G04 #@! TO.N,unconnected-(M5-CAN_VIO-PadW2)*
X-2810140Y54002002D03*
G04 #@! TO.P,M5,W3,CANL*
G04 #@! TO.N,unconnected-(M5-CANL-PadW3)*
X-2810140Y50706002D03*
G04 #@! TO.P,M5,W4,CANH*
G04 #@! TO.N,unconnected-(M5-CANH-PadW4)*
X-2810140Y51722002D03*
G04 #@! TO.P,M5,W5,nReset*
G04 #@! TO.N,unconnected-(M5-nReset-PadW5)*
G04 #@! TA.AperFunction,SMDPad,CuDef*
G36*
G01*
X-3318940Y48702002D02*
X-3318940Y48702002D01*
G75*
G02*
X-3193940Y48827002I125000J0D01*
G01*
X-2943940Y48827002D01*
G75*
G02*
X-2818940Y48702002I0J-125000D01*
G01*
X-2818940Y48702002D01*
G75*
G02*
X-2943940Y48577002I-125000J0D01*
G01*
X-3193940Y48577002D01*
G75*
G02*
X-3318940Y48702002I0J125000D01*
G01*
G37*
G04 #@! TD.AperFunction*
G04 #@! TO.P,M5,W6,SWDIO*
G04 #@! TO.N,unconnected-(M5-SWDIO-PadW6)*
G04 #@! TA.AperFunction,SMDPad,CuDef*
G36*
G01*
X-3318940Y48202002D02*
X-3318940Y48202002D01*
G75*
G02*
X-3193940Y48327002I125000J0D01*
G01*
X-2943940Y48327002D01*
G75*
G02*
X-2818940Y48202002I0J-125000D01*
G01*
X-2818940Y48202002D01*
G75*
G02*
X-2943940Y48077002I-125000J0D01*
G01*
X-3193940Y48077002D01*
G75*
G02*
X-3318940Y48202002I0J125000D01*
G01*
G37*
G04 #@! TD.AperFunction*
G04 #@! TO.P,M5,W7,SWCLK*
G04 #@! TO.N,unconnected-(M5-SWCLK-PadW7)*
G04 #@! TA.AperFunction,SMDPad,CuDef*
G36*
G01*
X-3318940Y47702002D02*
X-3318940Y47702002D01*
G75*
G02*
X-3193940Y47827002I125000J0D01*
G01*
X-2943940Y47827002D01*
G75*
G02*
X-2818940Y47702002I0J-125000D01*
G01*
X-2818940Y47702002D01*
G75*
G02*
X-2943940Y47577002I-125000J0D01*
G01*
X-3193940Y47577002D01*
G75*
G02*
X-3318940Y47702002I0J125000D01*
G01*
G37*
G04 #@! TD.AperFunction*
G04 #@! TO.P,M5,W8,V33_OUT*
G04 #@! TO.N,unconnected-(M5-V33_OUT-PadW8)*
G04 #@! TA.AperFunction,SMDPad,CuDef*
G36*
G01*
X-3318940Y45602002D02*
X-3318940Y45602002D01*
G75*
G02*
X-3193940Y45727002I125000J0D01*
G01*
X-2943940Y45727002D01*
G75*
G02*
X-2818940Y45602002I0J-125000D01*
G01*
X-2818940Y45602002D01*
G75*
G02*
X-2943940Y45477002I-125000J0D01*
G01*
X-3193940Y45477002D01*
G75*
G02*
X-3318940Y45602002I0J125000D01*
G01*
G37*
G04 #@! TD.AperFunction*
G04 #@! TO.P,M5,W9,VDDA*
G04 #@! TO.N,unconnected-(M5-VDDA-PadW9)*
X-2810140Y56002002D03*
G04 #@! TD*
D22*
G04 #@! TO.P,M1,E1,SPI2_SCK/CAN2_TX*
G04 #@! TO.N,unconnected-(M1-SPI2_SCK{slash}CAN2_TX-PadE1)*
X38631061Y96251997D03*
G04 #@! TO.P,M1,E2,SPI2_MISO*
G04 #@! TO.N,unconnected-(M1-SPI2_MISO-PadE2)*
X38631061Y95451996D03*
G04 #@! TO.P,M1,E3,SPI2_MOSI*
G04 #@! TO.N,unconnected-(M1-SPI2_MOSI-PadE3)*
X38631061Y94651998D03*
G04 #@! TO.P,M1,E4,SPI2_CS/CAN2_RX*
G04 #@! TO.N,unconnected-(M1-SPI2_CS{slash}CAN2_RX-PadE4)*
X38631061Y93851997D03*
G04 #@! TO.P,M1,E6,OUT_IO3*
G04 #@! TO.N,unconnected-(M1-OUT_IO3-PadE6)*
X38631061Y93051996D03*
G04 #@! TO.P,M1,E7,OUT_IO5*
G04 #@! TO.N,unconnected-(M1-OUT_IO5-PadE7)*
X38631058Y92251998D03*
G04 #@! TO.P,M1,E8,OUT_IO1*
G04 #@! TO.N,unconnected-(M1-OUT_IO1-PadE8)*
X38631058Y91451997D03*
G04 #@! TO.P,M1,E9,OUT_IO6*
G04 #@! TO.N,unconnected-(M1-OUT_IO6-PadE9)*
X38631061Y90651993D03*
G04 #@! TO.P,M1,E10,OUT_IO10*
G04 #@! TO.N,unconnected-(M1-OUT_IO10-PadE10)*
X38631061Y89851997D03*
G04 #@! TO.P,M1,E11,OUT_IO9*
G04 #@! TO.N,unconnected-(M1-OUT_IO9-PadE11)*
X38631061Y89051997D03*
G04 #@! TO.P,M1,E12,OUT_IO2*
G04 #@! TO.N,unconnected-(M1-OUT_IO2-PadE12)*
X38631061Y88251996D03*
G04 #@! TO.P,M1,E13,OUT_IO12*
G04 #@! TO.N,unconnected-(M1-OUT_IO12-PadE13)*
X38631058Y87451997D03*
G04 #@! TO.P,M1,E14,OUT_PWM5*
G04 #@! TO.N,unconnected-(M1-OUT_PWM5-PadE14)*
X38631058Y86651996D03*
G04 #@! TO.P,M1,E15,OUT_PWM4*
G04 #@! TO.N,unconnected-(M1-OUT_PWM4-PadE15)*
X38631058Y85851995D03*
G04 #@! TO.P,M1,E16,OUT_PWM3*
G04 #@! TO.N,unconnected-(M1-OUT_PWM3-PadE16)*
X38631061Y85051997D03*
G04 #@! TO.P,M1,E17,OUT_PWM2*
G04 #@! TO.N,unconnected-(M1-OUT_PWM2-PadE17)*
X38631061Y84251996D03*
G04 #@! TO.P,M1,E18,OUT_INJ2*
G04 #@! TO.N,/INJ2_IN*
X38631061Y83451998D03*
G04 #@! TO.P,M1,E19,OUT_INJ1*
G04 #@! TO.N,/INJ1_IN*
X38631058Y82651997D03*
G04 #@! TO.P,M1,E20,OUT_IO13*
G04 #@! TO.N,unconnected-(M1-OUT_IO13-PadE20)*
X38631058Y81851996D03*
G04 #@! TO.P,M1,E21,OUT_IO4*
G04 #@! TO.N,unconnected-(M1-OUT_IO4-PadE21)*
X38631061Y81051997D03*
G04 #@! TO.P,M1,E22,OUT_IO8*
G04 #@! TO.N,unconnected-(M1-OUT_IO8-PadE22)*
X38631061Y80251996D03*
G04 #@! TO.P,M1,E23,OUT_IO7*
G04 #@! TO.N,unconnected-(M1-OUT_IO7-PadE23)*
X38631061Y79451995D03*
G04 #@! TO.P,M1,E24,OUT_IO11*
G04 #@! TO.N,unconnected-(M1-OUT_IO11-PadE24)*
X38631061Y78651997D03*
G04 #@! TO.P,M1,E25,OUT_PWM7*
G04 #@! TO.N,unconnected-(M1-OUT_PWM7-PadE25)*
X38631061Y77851996D03*
G04 #@! TO.P,M1,E26,OUT_PWM6*
G04 #@! TO.N,unconnected-(M1-OUT_PWM6-PadE26)*
X38631061Y77051998D03*
G04 #@! TO.P,M1,E27,OUT_PWM1*
G04 #@! TO.N,unconnected-(M1-OUT_PWM1-PadE27)*
X38631061Y76251997D03*
G04 #@! TO.P,M1,E28,OUT_PWM8*
G04 #@! TO.N,unconnected-(M1-OUT_PWM8-PadE28)*
X38631061Y75451996D03*
G04 #@! TO.P,M1,E29,OUT_INJ3*
G04 #@! TO.N,/INJ3_IN*
X38631061Y74651997D03*
G04 #@! TO.P,M1,E30,OUT_INJ4*
G04 #@! TO.N,/INJ4_IN*
X38631061Y73851996D03*
G04 #@! TO.P,M1,E31,OUT_INJ5*
G04 #@! TO.N,unconnected-(M1-OUT_INJ5-PadE31)*
X38631058Y73051998D03*
G04 #@! TO.P,M1,E32,OUT_INJ6*
G04 #@! TO.N,unconnected-(M1-OUT_INJ6-PadE32)*
X38631061Y72251995D03*
G04 #@! TO.P,M1,E33,OUT_INJ7*
G04 #@! TO.N,unconnected-(M1-OUT_INJ7-PadE33)*
X38631061Y71451996D03*
G04 #@! TO.P,M1,E34,OUT_INJ8*
G04 #@! TO.N,unconnected-(M1-OUT_INJ8-PadE34)*
X38631061Y70651998D03*
G04 #@! TO.P,M1,E35,IO6*
G04 #@! TO.N,unconnected-(M1-IO6-PadE35)*
X38631061Y69851997D03*
G04 #@! TO.P,M1,E36,IO7*
G04 #@! TO.N,unconnected-(M1-IO7-PadE36)*
X38631061Y69051996D03*
G04 #@! TO.P,M1,E38,V5A_SWITCHABLE*
G04 #@! TO.N,unconnected-(M1-V5A_SWITCHABLE-PadE38)*
X38631058Y62352002D03*
G04 #@! TO.P,M1,E39,GNDA*
G04 #@! TO.N,unconnected-(M1-GNDA-PadE39)*
X38631061Y61552001D03*
D23*
G04 #@! TO.P,M1,G,GND*
G04 #@! TO.N,unconnected-(M1-GND-PadG)*
X-3268944Y60202001D03*
D24*
X-3268942Y66052004D03*
D25*
X-3268941Y94052001D03*
D26*
X-3268941Y72252001D03*
D27*
X-1468935Y59151998D03*
D28*
X-68940Y99051999D03*
D29*
X8431063Y99051999D03*
D30*
X18281066Y99051999D03*
D31*
X38831061Y97552000D03*
D32*
X38831061Y65701997D03*
D33*
X38831061Y60052004D03*
D22*
G04 #@! TO.P,M1,N1,USBID*
G04 #@! TO.N,unconnected-(M1-USBID-PadN1)*
X38631061Y98852000D03*
G04 #@! TO.P,M1,N2,USBM*
G04 #@! TO.N,unconnected-(M1-USBM-PadN2)*
X37831063Y98852002D03*
G04 #@! TO.P,M1,N3,USBP*
G04 #@! TO.N,unconnected-(M1-USBP-PadN3)*
X37031062Y98852002D03*
G04 #@! TO.P,M1,N4,VBUS*
G04 #@! TO.N,unconnected-(M1-VBUS-PadN4)*
X36231063Y98852000D03*
G04 #@! TO.P,M1,N5,BOOT0*
G04 #@! TO.N,unconnected-(M1-BOOT0-PadN5)*
X35431062Y98852000D03*
G04 #@! TO.P,M1,N6,SWO*
G04 #@! TO.N,unconnected-(M1-SWO-PadN6)*
X34631061Y98852000D03*
G04 #@! TO.P,M1,N7,SWDIO*
G04 #@! TO.N,unconnected-(M1-SWDIO-PadN7)*
X33831063Y98852000D03*
G04 #@! TO.P,M1,N8,SWCLK*
G04 #@! TO.N,unconnected-(M1-SWCLK-PadN8)*
X33031062Y98852002D03*
G04 #@! TO.P,M1,N9,nReset*
G04 #@! TO.N,unconnected-(M1-nReset-PadN9)*
X32231064Y98852000D03*
G04 #@! TO.P,M1,N10,SPI3_CS*
G04 #@! TO.N,unconnected-(M1-SPI3_CS-PadN10)*
X31431063Y98852000D03*
G04 #@! TO.P,M1,N11,SPI3_SCK*
G04 #@! TO.N,unconnected-(M1-SPI3_SCK-PadN11)*
X30631062Y98852000D03*
G04 #@! TO.P,M1,N12,SPI3_MISO*
G04 #@! TO.N,unconnected-(M1-SPI3_MISO-PadN12)*
X29831061Y98852000D03*
G04 #@! TO.P,M1,N13,SPI3_MOSI*
G04 #@! TO.N,unconnected-(M1-SPI3_MOSI-PadN13)*
X29031062Y98852000D03*
G04 #@! TO.P,M1,N14,I2C_SCL*
G04 #@! TO.N,unconnected-(M1-I2C_SCL-PadN14)*
X28231061Y98852000D03*
G04 #@! TO.P,M1,N15,I2C_SDA*
G04 #@! TO.N,unconnected-(M1-I2C_SDA-PadN15)*
X27431060Y98852002D03*
G04 #@! TO.P,M1,N16,IO1*
G04 #@! TO.N,unconnected-(M1-IO1-PadN16)*
X26631060Y98852002D03*
G04 #@! TO.P,M1,N17,UART2_TX*
G04 #@! TO.N,unconnected-(M1-UART2_TX-PadN17)*
X25831061Y98852000D03*
G04 #@! TO.P,M1,N18,UART2_RX*
G04 #@! TO.N,unconnected-(M1-UART2_RX-PadN18)*
X25031060Y98852000D03*
G04 #@! TO.P,M1,N19,IO2*
G04 #@! TO.N,unconnected-(M1-IO2-PadN19)*
X24231062Y98852000D03*
G04 #@! TO.P,M1,N20,IO4*
G04 #@! TO.N,unconnected-(M1-IO4-PadN20)*
X23431061Y98852000D03*
G04 #@! TO.P,M1,N21,IO3*
G04 #@! TO.N,unconnected-(M1-IO3-PadN21)*
X22631062Y98852002D03*
G04 #@! TO.P,M1,N22,V33*
G04 #@! TO.N,unconnected-(M1-V33-PadN22)*
X21831061Y98852000D03*
G04 #@! TO.P,M1,N23,IO5*
G04 #@! TO.N,unconnected-(M1-IO5-PadN23)*
X21031061Y98852000D03*
G04 #@! TO.P,M1,N24,UART8_RX*
G04 #@! TO.N,unconnected-(M1-UART8_RX-PadN24)*
X15531061Y98852000D03*
G04 #@! TO.P,M1,N25,UART8_TX*
G04 #@! TO.N,unconnected-(M1-UART8_TX-PadN25)*
X14731060Y98852000D03*
G04 #@! TO.P,M1,N26,IN_VIGN*
G04 #@! TO.N,unconnected-(M1-IN_VIGN-PadN26)*
X13931062Y98852000D03*
G04 #@! TO.P,M1,N27,VBAT*
G04 #@! TO.N,unconnected-(M1-VBAT-PadN27)*
X13131064Y98852000D03*
G04 #@! TO.P,M1,N28,V33_SWITCHABLE*
G04 #@! TO.N,unconnected-(M1-V33_SWITCHABLE-PadN28)*
X12331065Y98852000D03*
G04 #@! TO.P,M1,N29,OUT_PWR_EN*
G04 #@! TO.N,unconnected-(M1-OUT_PWR_EN-PadN29)*
X4531061Y98852000D03*
G04 #@! TO.P,M1,N30,V5A_SWITCHABLE*
G04 #@! TO.N,unconnected-(M1-V5A_SWITCHABLE-PadN30)*
X3731062Y98852000D03*
G04 #@! TO.P,M1,N31,VCC*
G04 #@! TO.N,unconnected-(M1-VCC-PadN31)*
X2931064Y98852000D03*
G04 #@! TO.P,M1,N32,V33*
G04 #@! TO.N,unconnected-(M1-V33-PadN32)*
X-3068940Y98852000D03*
G04 #@! TO.P,M1,S1,IN_D4*
G04 #@! TO.N,unconnected-(M1-IN_D4-PadS1)*
X38031060Y59351995D03*
G04 #@! TO.P,M1,S2,IN_D3*
G04 #@! TO.N,unconnected-(M1-IN_D3-PadS2)*
X36831059Y59351997D03*
G04 #@! TO.P,M1,S3,IN_D2*
G04 #@! TO.N,unconnected-(M1-IN_D2-PadS3)*
X35631062Y59351997D03*
G04 #@! TO.P,M1,S4,IN_D1*
G04 #@! TO.N,unconnected-(M1-IN_D1-PadS4)*
X34431062Y59351995D03*
G04 #@! TO.P,M1,S5,VREF2*
G04 #@! TO.N,unconnected-(M1-VREF2-PadS5)*
X33231062Y59351997D03*
G04 #@! TO.P,M1,S6,IN_SENS4*
G04 #@! TO.N,unconnected-(M1-IN_SENS4-PadS6)*
X32131074Y59351997D03*
G04 #@! TO.P,M1,S7,IN_SENS3*
G04 #@! TO.N,unconnected-(M1-IN_SENS3-PadS7)*
X30931074Y59351997D03*
G04 #@! TO.P,M1,S8,IN_SENS2*
G04 #@! TO.N,unconnected-(M1-IN_SENS2-PadS8)*
X29731076Y59351995D03*
G04 #@! TO.P,M1,S9,IN_SENS1*
G04 #@! TO.N,unconnected-(M1-IN_SENS1-PadS9)*
X28531076Y59351997D03*
G04 #@! TO.P,M1,S10,IN_AUX4*
G04 #@! TO.N,unconnected-(M1-IN_AUX4-PadS10)*
X27331073Y59351997D03*
G04 #@! TO.P,M1,S11,IN_AUX3*
G04 #@! TO.N,unconnected-(M1-IN_AUX3-PadS11)*
X26131071Y59351995D03*
G04 #@! TO.P,M1,S12,IN_AUX2*
G04 #@! TO.N,unconnected-(M1-IN_AUX2-PadS12)*
X24931073Y59351997D03*
G04 #@! TO.P,M1,S13,IN_AUX1*
G04 #@! TO.N,unconnected-(M1-IN_AUX1-PadS13)*
X23731075Y59351997D03*
G04 #@! TO.P,M1,S14,IN_RES2*
G04 #@! TO.N,unconnected-(M1-IN_RES2-PadS14)*
X22531068Y59351997D03*
G04 #@! TO.P,M1,S15,IN_O2S2*
G04 #@! TO.N,unconnected-(M1-IN_O2S2-PadS15)*
X21331068Y59351997D03*
G04 #@! TO.P,M1,S16,IN_O2S*
G04 #@! TO.N,unconnected-(M1-IN_O2S-PadS16)*
X20131070Y59351997D03*
G04 #@! TO.P,M1,S17,IN_RES1*
G04 #@! TO.N,unconnected-(M1-IN_RES1-PadS17)*
X18931070Y59351997D03*
G04 #@! TO.P,M1,S18,IN_RES3*
G04 #@! TO.N,unconnected-(M1-IN_RES3-PadS18)*
X17731065Y59351997D03*
G04 #@! TO.P,M1,S19,IN_MAP3*
G04 #@! TO.N,unconnected-(M1-IN_MAP3-PadS19)*
X16531064Y59351997D03*
G04 #@! TO.P,M1,S20,IN_MAP2*
G04 #@! TO.N,unconnected-(M1-IN_MAP2-PadS20)*
X15331067Y59351995D03*
G04 #@! TO.P,M1,S21,IN_MAP1*
G04 #@! TO.N,/MAP*
X14131067Y59351997D03*
G04 #@! TO.P,M1,S22,IN_CRANK*
G04 #@! TO.N,/IN_CRANK*
X12931064Y59351995D03*
G04 #@! TO.P,M1,S23,IN_KNOCK*
G04 #@! TO.N,unconnected-(M1-IN_KNOCK-PadS23)*
X11731064Y59351997D03*
G04 #@! TO.P,M1,S24,IN_CAM*
G04 #@! TO.N,/IN_CAM*
X10531069Y59351997D03*
G04 #@! TO.P,M1,S25,IN_VSS*
G04 #@! TO.N,unconnected-(M1-IN_VSS-PadS25)*
X9331066Y59351995D03*
G04 #@! TO.P,M1,S26,IN_IAT*
G04 #@! TO.N,/AIR*
X8131061Y59351997D03*
G04 #@! TO.P,M1,S27,IN_AT1*
G04 #@! TO.N,unconnected-(M1-IN_AT1-PadS27)*
X6931061Y59351995D03*
G04 #@! TO.P,M1,S28,IN_CLT*
G04 #@! TO.N,/COOLANT*
X5731063Y59351997D03*
G04 #@! TO.P,M1,S29,IN_AT2*
G04 #@! TO.N,unconnected-(M1-IN_AT2-PadS29)*
X4531063Y59351997D03*
G04 #@! TO.P,M1,S30,IN_TPS*
G04 #@! TO.N,/TPS*
X3331058Y59351997D03*
G04 #@! TO.P,M1,S31,IN_PPS*
G04 #@! TO.N,unconnected-(M1-IN_PPS-PadS31)*
X2131058Y59351997D03*
G04 #@! TO.P,M1,S32,IN_TPS2*
G04 #@! TO.N,unconnected-(M1-IN_TPS2-PadS32)*
X931060Y59351997D03*
G04 #@! TO.P,M1,S33,IN_PPS2*
G04 #@! TO.N,unconnected-(M1-IN_PPS2-PadS33)*
X-268940Y59351997D03*
G04 #@! TO.P,M1,S35,VREF1*
G04 #@! TO.N,unconnected-(M1-VREF1-PadS35)*
X-2668940Y59351997D03*
G04 #@! TO.P,M1,W1,GNDA*
G04 #@! TO.N,unconnected-(M1-GNDA-PadW1)*
X-3068942Y61852000D03*
G04 #@! TO.P,M1,W2,V5A_SWITCHABLE*
G04 #@! TO.N,unconnected-(M1-V5A_SWITCHABLE-PadW2)*
X-3068942Y62852001D03*
G04 #@! TO.P,M1,W3,V33_REF*
G04 #@! TO.N,unconnected-(M1-V33_REF-PadW3)*
X-3068940Y69252003D03*
G04 #@! TO.P,M1,W3a,BOOT1*
G04 #@! TO.N,unconnected-(M1-BOOT1-PadW3a)*
X-3068941Y75252001D03*
G04 #@! TO.P,M1,W4,IGN8*
G04 #@! TO.N,unconnected-(M1-IGN8-PadW4)*
X-3068940Y76251999D03*
G04 #@! TO.P,M1,W5,IGN7*
G04 #@! TO.N,unconnected-(M1-IGN7-PadW5)*
X-3068940Y77252000D03*
G04 #@! TO.P,M1,W6,IGN6*
G04 #@! TO.N,unconnected-(M1-IGN6-PadW6)*
X-3068940Y78251998D03*
G04 #@! TO.P,M1,W7,IGN5*
G04 #@! TO.N,unconnected-(M1-IGN5-PadW7)*
X-3068940Y79251998D03*
G04 #@! TO.P,M1,W8,IGN4*
G04 #@! TO.N,/SPARK4_OUT*
X-3068940Y80251999D03*
G04 #@! TO.P,M1,W9,IGN3*
G04 #@! TO.N,/SPARK3_OUT*
X-3068940Y81251997D03*
G04 #@! TO.P,M1,W10,IGN2*
G04 #@! TO.N,/SPARK2_OUT*
X-3068940Y82251997D03*
G04 #@! TO.P,M1,W11,IGN1*
G04 #@! TO.N,/SPARK1_OUT*
X-3068940Y83251995D03*
G04 #@! TO.P,M1,W11a,LED_RED*
G04 #@! TO.N,unconnected-(M1-LED_RED-PadW11a)*
X-3068941Y84252001D03*
G04 #@! TO.P,M1,W11b,LED_GREEN*
G04 #@! TO.N,unconnected-(M1-LED_GREEN-PadW11b)*
X-3068941Y85252001D03*
G04 #@! TO.P,M1,W11c,LED_BLUE*
G04 #@! TO.N,unconnected-(M1-LED_BLUE-PadW11c)*
X-3068941Y86252001D03*
G04 #@! TO.P,M1,W11d,LED_YELLOW*
G04 #@! TO.N,unconnected-(M1-LED_YELLOW-PadW11d)*
X-3068941Y87252001D03*
G04 #@! TO.P,M1,W12,CANH*
G04 #@! TO.N,unconnected-(M1-CANH-PadW12)*
X-3068941Y88252001D03*
G04 #@! TO.P,M1,W13,CANL*
G04 #@! TO.N,unconnected-(M1-CANL-PadW13)*
X-3068941Y89252001D03*
G04 #@! TD*
D34*
G04 #@! TO.P,J2,1,Pin_1*
G04 #@! TO.N,unconnected-(J2-Pin_1-Pad1)*
X41691056Y31252000D03*
D35*
G04 #@! TO.P,J2,2,Pin_2*
G04 #@! TO.N,unconnected-(J2-Pin_2-Pad2)*
X41691056Y28712000D03*
G04 #@! TO.P,J2,3,Pin_3*
G04 #@! TO.N,unconnected-(J2-Pin_3-Pad3)*
X39151056Y31252000D03*
G04 #@! TO.P,J2,4,Pin_4*
G04 #@! TO.N,unconnected-(J2-Pin_4-Pad4)*
X39151056Y28712000D03*
G04 #@! TO.P,J2,5,Pin_5*
G04 #@! TO.N,unconnected-(J2-Pin_5-Pad5)*
X36611056Y31252000D03*
G04 #@! TO.P,J2,6,Pin_6*
G04 #@! TO.N,unconnected-(J2-Pin_6-Pad6)*
X36611056Y28712000D03*
G04 #@! TO.P,J2,7,Pin_7*
G04 #@! TO.N,unconnected-(J2-Pin_7-Pad7)*
X34071056Y31252000D03*
G04 #@! TO.P,J2,8,Pin_8*
G04 #@! TO.N,unconnected-(J2-Pin_8-Pad8)*
X34071056Y28712000D03*
G04 #@! TO.P,J2,9,Pin_9*
G04 #@! TO.N,unconnected-(J2-Pin_9-Pad9)*
X31531056Y31252000D03*
G04 #@! TO.P,J2,10,Pin_10*
G04 #@! TO.N,unconnected-(J2-Pin_10-Pad10)*
X31531056Y28712000D03*
G04 #@! TO.P,J2,11,Pin_11*
G04 #@! TO.N,unconnected-(J2-Pin_11-Pad11)*
X28991056Y31252000D03*
G04 #@! TO.P,J2,12,Pin_12*
G04 #@! TO.N,unconnected-(J2-Pin_12-Pad12)*
X28991056Y28712000D03*
G04 #@! TO.P,J2,13,Pin_13*
G04 #@! TO.N,unconnected-(J2-Pin_13-Pad13)*
X26451056Y31252000D03*
G04 #@! TO.P,J2,14,Pin_14*
G04 #@! TO.N,unconnected-(J2-Pin_14-Pad14)*
X26451056Y28712000D03*
G04 #@! TO.P,J2,15,Pin_15*
G04 #@! TO.N,unconnected-(J2-Pin_15-Pad15)*
X23911056Y31252000D03*
G04 #@! TO.P,J2,16,Pin_16*
G04 #@! TO.N,unconnected-(J2-Pin_16-Pad16)*
X23911056Y28712000D03*
G04 #@! TO.P,J2,17,Pin_17*
G04 #@! TO.N,unconnected-(J2-Pin_17-Pad17)*
X21371056Y31252000D03*
G04 #@! TO.P,J2,18,Pin_18*
G04 #@! TO.N,unconnected-(J2-Pin_18-Pad18)*
X21371056Y28712000D03*
G04 #@! TO.P,J2,19,Pin_19*
G04 #@! TO.N,unconnected-(J2-Pin_19-Pad19)*
X18831056Y31252000D03*
G04 #@! TO.P,J2,20,Pin_20*
G04 #@! TO.N,unconnected-(J2-Pin_20-Pad20)*
X18831056Y28712000D03*
G04 #@! TO.P,J2,21,Pin_21*
G04 #@! TO.N,unconnected-(J2-Pin_21-Pad21)*
X16291056Y31252000D03*
G04 #@! TO.P,J2,22,Pin_22*
G04 #@! TO.N,unconnected-(J2-Pin_22-Pad22)*
X16291056Y28712000D03*
G04 #@! TO.P,J2,23,Pin_23*
G04 #@! TO.N,unconnected-(J2-Pin_23-Pad23)*
X13751056Y31252000D03*
G04 #@! TO.P,J2,24,Pin_24*
G04 #@! TO.N,unconnected-(J2-Pin_24-Pad24)*
X13751056Y28712000D03*
G04 #@! TO.P,J2,25,Pin_25*
G04 #@! TO.N,unconnected-(J2-Pin_25-Pad25)*
X11211056Y31252000D03*
G04 #@! TO.P,J2,26,Pin_26*
G04 #@! TO.N,unconnected-(J2-Pin_26-Pad26)*
X11211056Y28712000D03*
G04 #@! TO.P,J2,27,Pin_27*
G04 #@! TO.N,unconnected-(J2-Pin_27-Pad27)*
X8671056Y31252000D03*
G04 #@! TO.P,J2,28,Pin_28*
G04 #@! TO.N,unconnected-(J2-Pin_28-Pad28)*
X8671056Y28712000D03*
G04 #@! TO.P,J2,29,Pin_29*
G04 #@! TO.N,unconnected-(J2-Pin_29-Pad29)*
X6131056Y31252000D03*
G04 #@! TO.P,J2,30,Pin_30*
G04 #@! TO.N,unconnected-(J2-Pin_30-Pad30)*
X6131056Y28712000D03*
G04 #@! TD*
D22*
G04 #@! TO.P,M2,E1,HALL_EN*
G04 #@! TO.N,unconnected-(M2-HALL_EN-PadE1)*
X54981060Y96252002D03*
G04 #@! TO.P,M2,E2,NC*
G04 #@! TO.N,unconnected-(M2-NC-PadE2)*
X54981060Y95052002D03*
G04 #@! TO.P,M2,E3,OUT*
G04 #@! TO.N,/IN_CRANK*
X54981060Y97452002D03*
G04 #@! TO.P,M2,E4,V5_IN*
G04 #@! TO.N,unconnected-(M2-V5_IN-PadE4)*
X54981060Y98652002D03*
D36*
G04 #@! TO.P,M2,G,GND*
G04 #@! TO.N,unconnected-(M2-GND-PadG)*
X40331060Y95984502D03*
D37*
X40331060Y89934502D03*
D38*
X47343560Y98952002D03*
D39*
X47756060Y89502002D03*
D40*
X55181060Y91964502D03*
D22*
G04 #@! TO.P,M2,W1,VR-/HALL*
G04 #@! TO.N,/VR-*
X40556060Y92192002D03*
G04 #@! TO.P,M2,W2,VR+*
G04 #@! TO.N,/VRCRANK+*
X40556060Y91192002D03*
G04 #@! TD*
D41*
G04 #@! TO.P,M4,E1,VBAT*
G04 #@! TO.N,unconnected-(M4-VBAT-PadE1)*
X41831056Y56602000D03*
G04 #@! TO.P,M4,E2,V12*
G04 #@! TO.N,unconnected-(M4-V12-PadE2)*
X41831056Y50202003D03*
G04 #@! TO.P,M4,E3,VIGN*
G04 #@! TO.N,unconnected-(M4-VIGN-PadE3)*
X41831056Y48302000D03*
G04 #@! TO.P,M4,E4,V5*
G04 #@! TO.N,unconnected-(M4-V5-PadE4)*
X41831056Y44002000D03*
D22*
G04 #@! TO.P,M4,E5,EN_5VP*
G04 #@! TO.N,unconnected-(M4-EN_5VP-PadE5)*
X42281055Y41602003D03*
G04 #@! TO.P,M4,E6,PG_5VP*
G04 #@! TO.N,unconnected-(M4-PG_5VP-PadE6)*
X42281055Y40602002D03*
D42*
G04 #@! TO.P,M4,S1,GND*
G04 #@! TO.N,GND*
X25681060Y52752000D03*
D43*
X25681060Y44252002D03*
D44*
X25681060Y37152000D03*
D45*
X34081058Y37102000D03*
D46*
X34881059Y57702000D03*
D41*
X41831056Y37752000D03*
D44*
X42481057Y57652000D03*
D47*
X42481057Y53452002D03*
D48*
X42481057Y46102000D03*
D49*
X42481057Y42602003D03*
D50*
X42481057Y39302002D03*
D41*
G04 #@! TO.P,M4,V1,V12_PERM*
G04 #@! TO.N,+12V_PERM*
X26331059Y57052002D03*
G04 #@! TO.P,M4,V2,IN_VIGN*
G04 #@! TO.N,+12V_RAW*
X26331059Y55202003D03*
G04 #@! TO.P,M4,V3,V12_RAW*
X26331059Y50252000D03*
G04 #@! TO.P,M4,V4,5VP*
G04 #@! TO.N,unconnected-(M4-5VP-PadV4)*
X26331059Y38202002D03*
G04 #@! TD*
D22*
G04 #@! TO.P,M3,E1,Thresh_IN*
G04 #@! TO.N,unconnected-(M3-Thresh_IN-PadE1)*
X54981060Y85202002D03*
G04 #@! TO.P,M3,E2,OUT_A*
G04 #@! TO.N,unconnected-(M3-OUT_A-PadE2)*
X54981060Y84002002D03*
G04 #@! TO.P,M3,E3,OUT*
G04 #@! TO.N,/IN_CAM*
X54981060Y86402002D03*
G04 #@! TO.P,M3,E4,V5_IN*
G04 #@! TO.N,unconnected-(M3-V5_IN-PadE4)*
X54981060Y87602002D03*
D36*
G04 #@! TO.P,M3,G,GND*
G04 #@! TO.N,unconnected-(M3-GND-PadG)*
X40331060Y84934502D03*
D37*
X40331060Y78884502D03*
D38*
X47343560Y87902002D03*
D39*
X47756060Y78452002D03*
D40*
X55181060Y80914502D03*
D22*
G04 #@! TO.P,M3,W1,VR-*
G04 #@! TO.N,/VR-*
X40556060Y81142002D03*
G04 #@! TO.P,M3,W2,VR+*
G04 #@! TO.N,unconnected-(M3-VR+-PadW2)*
X40556060Y80142002D03*
G04 #@! TD*
M02*
