G04 #@! TF.GenerationSoftware,KiCad,Pcbnew,8.0.9-8.0.9-0~ubuntu24.04.1*
G04 #@! TF.CreationDate,2026-03-30T23:48:31+00:00*
G04 #@! TF.ProjectId,EP91Starlet,45503931-5374-4617-926c-65742e6b6963,rev?*
G04 #@! TF.SameCoordinates,Original*
G04 #@! TF.FileFunction,Copper,L1,Top*
G04 #@! TF.FilePolarity,Positive*
%FSLAX46Y46*%
G04 Gerber Fmt 4.6, Leading zero omitted, Abs format (unit mm)*
G04 Created by KiCad (PCBNEW 8.0.9-8.0.9-0~ubuntu24.04.1) date 2026-03-30 23:48:31*
%MOMM*%
%LPD*%
G01*
G04 APERTURE LIST*
G04 #@! TA.AperFunction,ComponentPad*
%ADD10C,0.600000*%
G04 #@! TD*
G04 #@! TA.AperFunction,SMDPad,CuDef*
%ADD11R,6.185000X0.250000*%
G04 #@! TD*
G04 #@! TA.AperFunction,SMDPad,CuDef*
%ADD12R,1.115000X0.250000*%
G04 #@! TD*
G04 #@! TA.AperFunction,SMDPad,CuDef*
%ADD13R,0.250000X14.275000*%
G04 #@! TD*
G04 #@! TA.AperFunction,SMDPad,CuDef*
%ADD14R,0.250000X15.100000*%
G04 #@! TD*
G04 #@! TA.AperFunction,SMDPad,CuDef*
%ADD15R,5.175000X0.250000*%
G04 #@! TD*
G04 #@! TA.AperFunction,SMDPad,CuDef*
%ADD16R,0.200000X2.300000*%
G04 #@! TD*
G04 #@! TA.AperFunction,SMDPad,CuDef*
%ADD17R,0.200000X5.400000*%
G04 #@! TD*
G04 #@! TA.AperFunction,SMDPad,CuDef*
%ADD18R,0.200000X8.600000*%
G04 #@! TD*
G04 #@! TA.AperFunction,SMDPad,CuDef*
%ADD19R,0.200000X5.000000*%
G04 #@! TD*
G04 #@! TA.AperFunction,SMDPad,CuDef*
%ADD20R,1.400000X0.200000*%
G04 #@! TD*
G04 #@! TA.AperFunction,SMDPad,CuDef*
%ADD21R,5.000000X0.200000*%
G04 #@! TD*
G04 #@! TA.AperFunction,SMDPad,CuDef*
%ADD22R,6.800000X0.200000*%
G04 #@! TD*
G04 #@! TA.AperFunction,SMDPad,CuDef*
%ADD23R,4.500000X0.200000*%
G04 #@! TD*
G04 #@! TA.AperFunction,SMDPad,CuDef*
%ADD24R,0.200000X1.600000*%
G04 #@! TD*
G04 #@! TA.AperFunction,SMDPad,CuDef*
%ADD25R,0.200000X5.700000*%
G04 #@! TD*
G04 #@! TA.AperFunction,SMDPad,CuDef*
%ADD26R,0.200000X2.000000*%
G04 #@! TD*
G04 #@! TA.AperFunction,SMDPad,CuDef*
%ADD27O,0.200000X1.225000*%
G04 #@! TD*
G04 #@! TA.AperFunction,SMDPad,CuDef*
%ADD28O,9.300000X0.200000*%
G04 #@! TD*
G04 #@! TA.AperFunction,ComponentPad*
%ADD29R,1.700000X1.700000*%
G04 #@! TD*
G04 #@! TA.AperFunction,ComponentPad*
%ADD30O,1.700000X1.700000*%
G04 #@! TD*
G04 #@! TA.AperFunction,ComponentPad*
%ADD31R,1.650000X1.650000*%
G04 #@! TD*
G04 #@! TA.AperFunction,ComponentPad*
%ADD32C,1.650000*%
G04 #@! TD*
G04 #@! TA.AperFunction,ComponentPad*
%ADD33C,5.250000*%
G04 #@! TD*
G04 #@! TA.AperFunction,ComponentPad*
%ADD34C,1.400000*%
G04 #@! TD*
G04 #@! TA.AperFunction,SMDPad,CuDef*
%ADD35R,1.900000X0.250000*%
G04 #@! TD*
G04 #@! TA.AperFunction,SMDPad,CuDef*
%ADD36R,2.650000X0.250000*%
G04 #@! TD*
G04 #@! TA.AperFunction,SMDPad,CuDef*
%ADD37R,1.600000X0.250000*%
G04 #@! TD*
G04 #@! TA.AperFunction,SMDPad,CuDef*
%ADD38R,0.250000X24.600000*%
G04 #@! TD*
G04 #@! TA.AperFunction,SMDPad,CuDef*
%ADD39R,8.050000X0.250000*%
G04 #@! TD*
G04 #@! TA.AperFunction,SMDPad,CuDef*
%ADD40R,0.950000X0.250000*%
G04 #@! TD*
G04 #@! TA.AperFunction,ComponentPad*
%ADD41C,1.500000*%
G04 #@! TD*
G04 #@! TA.AperFunction,SMDPad,CuDef*
%ADD42O,0.200000X3.300000*%
G04 #@! TD*
G04 #@! TA.AperFunction,SMDPad,CuDef*
%ADD43O,0.200000X10.200000*%
G04 #@! TD*
G04 #@! TA.AperFunction,SMDPad,CuDef*
%ADD44O,0.200000X0.300000*%
G04 #@! TD*
G04 #@! TA.AperFunction,SMDPad,CuDef*
%ADD45O,17.000000X0.200000*%
G04 #@! TD*
G04 #@! TA.AperFunction,SMDPad,CuDef*
%ADD46O,15.400000X0.200000*%
G04 #@! TD*
G04 #@! TA.AperFunction,SMDPad,CuDef*
%ADD47O,0.200000X4.800000*%
G04 #@! TD*
G04 #@! TA.AperFunction,SMDPad,CuDef*
%ADD48O,0.200000X2.600000*%
G04 #@! TD*
G04 #@! TA.AperFunction,SMDPad,CuDef*
%ADD49O,0.200000X1.000000*%
G04 #@! TD*
G04 #@! TA.AperFunction,SMDPad,CuDef*
%ADD50O,0.200000X1.500000*%
G04 #@! TD*
G04 APERTURE END LIST*
G04 #@! TO.P,R2,1*
G04 #@! TO.N,/INJ2_IN*
G04 #@! TA.AperFunction,SMDPad,CuDef*
G36*
G01*
X-32925000Y54400000D02*
X-32925000Y54770000D01*
G75*
G02*
X-32790000Y54905000I135000J0D01*
G01*
X-32520000Y54905000D01*
G75*
G02*
X-32385000Y54770000I0J-135000D01*
G01*
X-32385000Y54400000D01*
G75*
G02*
X-32520000Y54265000I-135000J0D01*
G01*
X-32790000Y54265000D01*
G75*
G02*
X-32925000Y54400000I0J135000D01*
G01*
G37*
G04 #@! TD.AperFunction*
G04 #@! TO.P,R2,2*
G04 #@! TO.N,GND*
G04 #@! TA.AperFunction,SMDPad,CuDef*
G36*
G01*
X-31905000Y54400000D02*
X-31905000Y54770000D01*
G75*
G02*
X-31770000Y54905000I135000J0D01*
G01*
X-31500000Y54905000D01*
G75*
G02*
X-31365000Y54770000I0J-135000D01*
G01*
X-31365000Y54400000D01*
G75*
G02*
X-31500000Y54265000I-135000J0D01*
G01*
X-31770000Y54265000D01*
G75*
G02*
X-31905000Y54400000I0J135000D01*
G01*
G37*
G04 #@! TD.AperFunction*
G04 #@! TD*
D10*
G04 #@! TO.P,M2,E1,HALL_EN*
G04 #@! TO.N,unconnected-(M2-HALL_EN-PadE1)*
X78125000Y66775000D03*
G04 #@! TO.P,M2,E2,NC*
G04 #@! TO.N,unconnected-(M2-NC-PadE2)*
X76925000Y66775000D03*
G04 #@! TO.P,M2,E3,OUT*
G04 #@! TO.N,/CRANK*
X79325000Y66775000D03*
G04 #@! TO.P,M2,E4,V5_IN*
G04 #@! TO.N,+5VA*
X80525000Y66775000D03*
D11*
G04 #@! TO.P,M2,G,GND*
G04 #@! TO.N,GND*
X77857500Y81425000D03*
D12*
X71807500Y81425000D03*
D13*
X80825000Y74412500D03*
D14*
X71375000Y74000000D03*
D15*
X73837500Y66575000D03*
D10*
G04 #@! TO.P,M2,W1,VR-/HALL*
G04 #@! TO.N,/VR-*
X74065000Y81200000D03*
G04 #@! TO.P,M2,W2,VR+*
G04 #@! TO.N,/VRCRANK+*
X73065000Y81200000D03*
G04 #@! TD*
G04 #@! TO.P,R14,1*
G04 #@! TO.N,/LS3_IN*
G04 #@! TA.AperFunction,SMDPad,CuDef*
G36*
G01*
X-27105000Y50420000D02*
X-27105000Y50790000D01*
G75*
G02*
X-26970000Y50925000I135000J0D01*
G01*
X-26700000Y50925000D01*
G75*
G02*
X-26565000Y50790000I0J-135000D01*
G01*
X-26565000Y50420000D01*
G75*
G02*
X-26700000Y50285000I-135000J0D01*
G01*
X-26970000Y50285000D01*
G75*
G02*
X-27105000Y50420000I0J135000D01*
G01*
G37*
G04 #@! TD.AperFunction*
G04 #@! TO.P,R14,2*
G04 #@! TO.N,GND*
G04 #@! TA.AperFunction,SMDPad,CuDef*
G36*
G01*
X-26085000Y50420000D02*
X-26085000Y50790000D01*
G75*
G02*
X-25950000Y50925000I135000J0D01*
G01*
X-25680000Y50925000D01*
G75*
G02*
X-25545000Y50790000I0J-135000D01*
G01*
X-25545000Y50420000D01*
G75*
G02*
X-25680000Y50285000I-135000J0D01*
G01*
X-25950000Y50285000D01*
G75*
G02*
X-26085000Y50420000I0J135000D01*
G01*
G37*
G04 #@! TD.AperFunction*
G04 #@! TD*
G04 #@! TO.P,M3,E1,Thresh_IN*
G04 #@! TO.N,/THRESH*
X88500000Y66775000D03*
G04 #@! TO.P,M3,E2,OUT_A*
G04 #@! TO.N,unconnected-(M3-OUT_A-PadE2)*
X87300000Y66775000D03*
G04 #@! TO.P,M3,E3,OUT*
G04 #@! TO.N,/CAM*
X89700000Y66775000D03*
G04 #@! TO.P,M3,E4,V5_IN*
G04 #@! TO.N,+5VA*
X90900000Y66775000D03*
D11*
G04 #@! TO.P,M3,G,GND*
G04 #@! TO.N,GND*
X88232500Y81425000D03*
D12*
X82182500Y81425000D03*
D13*
X91200000Y74412500D03*
D14*
X81750000Y74000000D03*
D15*
X84212500Y66575000D03*
D10*
G04 #@! TO.P,M3,W1,VR-*
G04 #@! TO.N,/VR-*
X84440000Y81200000D03*
G04 #@! TO.P,M3,W2,VR+*
G04 #@! TO.N,unconnected-(M3-VR+-PadW2)*
X83440000Y81200000D03*
G04 #@! TD*
G04 #@! TO.P,M1,E1,SPI2_SCK/CAN2_TX*
G04 #@! TO.N,Net-(M1-SPI2_SCK{slash}CAN2_TX)*
X66599993Y69400000D03*
G04 #@! TO.P,M1,E2,SPI2_MISO*
G04 #@! TO.N,unconnected-(M1-SPI2_MISO-PadE2)*
X66599993Y68599999D03*
G04 #@! TO.P,M1,E3,SPI2_MOSI*
G04 #@! TO.N,unconnected-(M1-SPI2_MOSI-PadE3)*
X66599993Y67800001D03*
G04 #@! TO.P,M1,E4,SPI2_CS/CAN2_RX*
G04 #@! TO.N,Net-(M1-SPI2_CS{slash}CAN2_RX)*
X66599993Y67000000D03*
G04 #@! TO.P,M1,E6,OUT_IO3*
G04 #@! TO.N,/CHECKCAT_IN*
X66599993Y66199999D03*
G04 #@! TO.P,M1,E7,OUT_IO5*
G04 #@! TO.N,unconnected-(M1-OUT_IO5-PadE7)*
X66599990Y65400001D03*
G04 #@! TO.P,M1,E8,OUT_IO1*
G04 #@! TO.N,/FUELRELAY_IN*
X66599990Y64600000D03*
G04 #@! TO.P,M1,E9,OUT_IO6*
G04 #@! TO.N,unconnected-(M1-OUT_IO6-PadE9)*
X66599993Y63799996D03*
G04 #@! TO.P,M1,E10,OUT_IO10*
G04 #@! TO.N,unconnected-(M1-OUT_IO10-PadE10)*
X66599993Y63000000D03*
G04 #@! TO.P,M1,E11,OUT_IO9*
G04 #@! TO.N,unconnected-(M1-OUT_IO9-PadE11)*
X66599993Y62200000D03*
G04 #@! TO.P,M1,E12,OUT_IO2*
G04 #@! TO.N,/CHECKENGINE_IN*
X66599993Y61399999D03*
G04 #@! TO.P,M1,E13,OUT_IO12*
G04 #@! TO.N,unconnected-(M1-OUT_IO12-PadE13)*
X66599990Y60600000D03*
G04 #@! TO.P,M1,E14,OUT_PWM5*
G04 #@! TO.N,unconnected-(M1-OUT_PWM5-PadE14)*
X66599990Y59799999D03*
G04 #@! TO.P,M1,E15,OUT_PWM4*
G04 #@! TO.N,unconnected-(M1-OUT_PWM4-PadE15)*
X66599990Y58999998D03*
G04 #@! TO.P,M1,E16,OUT_PWM3*
G04 #@! TO.N,unconnected-(M1-OUT_PWM3-PadE16)*
X66599993Y58200000D03*
G04 #@! TO.P,M1,E17,OUT_PWM2*
G04 #@! TO.N,/IACOPEN_IN*
X66599993Y57399999D03*
G04 #@! TO.P,M1,E18,OUT_INJ2*
G04 #@! TO.N,/INJ2_IN*
X66599993Y56600001D03*
G04 #@! TO.P,M1,E19,OUT_INJ1*
G04 #@! TO.N,/INJ1_IN*
X66599990Y55800000D03*
G04 #@! TO.P,M1,E20,OUT_IO13*
G04 #@! TO.N,unconnected-(M1-OUT_IO13-PadE20)*
X66599990Y54999999D03*
G04 #@! TO.P,M1,E21,OUT_IO4*
G04 #@! TO.N,/FANRELAY_IN*
X66599993Y54200000D03*
G04 #@! TO.P,M1,E22,OUT_IO8*
G04 #@! TO.N,unconnected-(M1-OUT_IO8-PadE22)*
X66599993Y53399999D03*
G04 #@! TO.P,M1,E23,OUT_IO7*
G04 #@! TO.N,unconnected-(M1-OUT_IO7-PadE23)*
X66599993Y52599998D03*
G04 #@! TO.P,M1,E24,OUT_IO11*
G04 #@! TO.N,unconnected-(M1-OUT_IO11-PadE24)*
X66599993Y51800000D03*
G04 #@! TO.P,M1,E25,OUT_PWM7*
G04 #@! TO.N,unconnected-(M1-OUT_PWM7-PadE25)*
X66599993Y50999999D03*
G04 #@! TO.P,M1,E26,OUT_PWM6*
G04 #@! TO.N,unconnected-(M1-OUT_PWM6-PadE26)*
X66599993Y50200001D03*
G04 #@! TO.P,M1,E27,OUT_PWM1*
G04 #@! TO.N,/IACCLOSE_IN*
X66599993Y49400000D03*
G04 #@! TO.P,M1,E28,OUT_PWM8*
G04 #@! TO.N,/THRESH*
X66599993Y48599999D03*
G04 #@! TO.P,M1,E29,OUT_INJ3*
G04 #@! TO.N,/INJ3_IN*
X66599993Y47800000D03*
G04 #@! TO.P,M1,E30,OUT_INJ4*
G04 #@! TO.N,/INJ4_IN*
X66599993Y46999999D03*
G04 #@! TO.P,M1,E31,OUT_INJ5*
G04 #@! TO.N,/LS1_IN*
X66599990Y46200001D03*
G04 #@! TO.P,M1,E32,OUT_INJ6*
G04 #@! TO.N,/LS2_IN*
X66599993Y45399998D03*
G04 #@! TO.P,M1,E33,OUT_INJ7*
G04 #@! TO.N,/LS3_IN*
X66599993Y44599999D03*
G04 #@! TO.P,M1,E34,OUT_INJ8*
G04 #@! TO.N,/LS4_IN*
X66599993Y43800001D03*
G04 #@! TO.P,M1,E35,IO6*
G04 #@! TO.N,/IO6*
X66599993Y43000000D03*
G04 #@! TO.P,M1,E36,IO7*
G04 #@! TO.N,unconnected-(M1-IO7-PadE36)*
X66599993Y42199999D03*
G04 #@! TO.P,M1,E38,V5A_SWITCHABLE*
G04 #@! TO.N,+5VA*
X66599990Y35500005D03*
G04 #@! TO.P,M1,E39,GNDA*
G04 #@! TO.N,GNDA*
X66599993Y34700004D03*
D16*
G04 #@! TO.P,M1,G,GND*
G04 #@! TO.N,GND*
X24699988Y33350004D03*
D17*
X24699990Y39200007D03*
D18*
X24699991Y67200004D03*
D19*
X24699991Y45400004D03*
D20*
X26499997Y32300001D03*
D21*
X27899992Y72200002D03*
D22*
X36399995Y72200002D03*
D23*
X46249998Y72200002D03*
D24*
X66799993Y70700003D03*
D25*
X66799993Y38850000D03*
D26*
X66799993Y33200007D03*
D10*
G04 #@! TO.P,M1,N1,USBID*
G04 #@! TO.N,unconnected-(M1-USBID-PadN1)*
X66599993Y72000003D03*
G04 #@! TO.P,M1,N2,USBM*
G04 #@! TO.N,unconnected-(M1-USBM-PadN2)*
X65799995Y72000005D03*
G04 #@! TO.P,M1,N3,USBP*
G04 #@! TO.N,unconnected-(M1-USBP-PadN3)*
X64999994Y72000005D03*
G04 #@! TO.P,M1,N4,VBUS*
G04 #@! TO.N,unconnected-(M1-VBUS-PadN4)*
X64199995Y72000003D03*
G04 #@! TO.P,M1,N5,BOOT0*
G04 #@! TO.N,unconnected-(M1-BOOT0-PadN5)*
X63399994Y72000003D03*
G04 #@! TO.P,M1,N6,SWO*
G04 #@! TO.N,unconnected-(M1-SWO-PadN6)*
X62599993Y72000003D03*
G04 #@! TO.P,M1,N7,SWDIO*
G04 #@! TO.N,unconnected-(M1-SWDIO-PadN7)*
X61799995Y72000003D03*
G04 #@! TO.P,M1,N8,SWCLK*
G04 #@! TO.N,unconnected-(M1-SWCLK-PadN8)*
X60999994Y72000005D03*
G04 #@! TO.P,M1,N9,nReset*
G04 #@! TO.N,unconnected-(M1-nReset-PadN9)*
X60199996Y72000003D03*
G04 #@! TO.P,M1,N10,SPI3_CS*
G04 #@! TO.N,unconnected-(M1-SPI3_CS-PadN10)*
X59399995Y72000003D03*
G04 #@! TO.P,M1,N11,SPI3_SCK*
G04 #@! TO.N,unconnected-(M1-SPI3_SCK-PadN11)*
X58599994Y72000003D03*
G04 #@! TO.P,M1,N12,SPI3_MISO*
G04 #@! TO.N,unconnected-(M1-SPI3_MISO-PadN12)*
X57799993Y72000003D03*
G04 #@! TO.P,M1,N13,SPI3_MOSI*
G04 #@! TO.N,unconnected-(M1-SPI3_MOSI-PadN13)*
X56999994Y72000003D03*
G04 #@! TO.P,M1,N14,I2C_SCL*
G04 #@! TO.N,unconnected-(M1-I2C_SCL-PadN14)*
X56199993Y72000003D03*
G04 #@! TO.P,M1,N15,I2C_SDA*
G04 #@! TO.N,unconnected-(M1-I2C_SDA-PadN15)*
X55399992Y72000005D03*
G04 #@! TO.P,M1,N16,IO1*
G04 #@! TO.N,/IO1*
X54599992Y72000005D03*
G04 #@! TO.P,M1,N17,UART2_TX*
G04 #@! TO.N,unconnected-(M1-UART2_TX-PadN17)*
X53799993Y72000003D03*
G04 #@! TO.P,M1,N18,UART2_RX*
G04 #@! TO.N,unconnected-(M1-UART2_RX-PadN18)*
X52999992Y72000003D03*
G04 #@! TO.P,M1,N19,IO2*
G04 #@! TO.N,/IO2*
X52199994Y72000003D03*
G04 #@! TO.P,M1,N20,IO4*
G04 #@! TO.N,/IO4*
X51399993Y72000003D03*
G04 #@! TO.P,M1,N21,IO3*
G04 #@! TO.N,/IO3*
X50599994Y72000005D03*
G04 #@! TO.P,M1,N22,V33*
G04 #@! TO.N,+3.3V*
X49799993Y72000003D03*
G04 #@! TO.P,M1,N23,IO5*
G04 #@! TO.N,/IO5*
X48999993Y72000003D03*
G04 #@! TO.P,M1,N24,UART8_RX*
G04 #@! TO.N,unconnected-(M1-UART8_RX-PadN24)*
X43499993Y72000003D03*
G04 #@! TO.P,M1,N25,UART8_TX*
G04 #@! TO.N,unconnected-(M1-UART8_TX-PadN25)*
X42699992Y72000003D03*
G04 #@! TO.P,M1,N26,IN_VIGN*
G04 #@! TO.N,/VIGN*
X41899994Y72000003D03*
G04 #@! TO.P,M1,N27,VBAT*
G04 #@! TO.N,/VBAT*
X41099996Y72000003D03*
G04 #@! TO.P,M1,N28,V33_SWITCHABLE*
G04 #@! TO.N,+3.3VA*
X40299997Y72000003D03*
G04 #@! TO.P,M1,N29,OUT_PWR_EN*
G04 #@! TO.N,/PWR_EN*
X32499993Y72000003D03*
G04 #@! TO.P,M1,N30,V5A_SWITCHABLE*
G04 #@! TO.N,+5VA*
X31699994Y72000003D03*
G04 #@! TO.P,M1,N31,VCC*
G04 #@! TO.N,+5V*
X30899996Y72000003D03*
G04 #@! TO.P,M1,N32,V33*
G04 #@! TO.N,+3.3V*
X24899992Y72000003D03*
G04 #@! TO.P,M1,S1,IN_D4*
G04 #@! TO.N,/D4_IN*
X65999992Y32499998D03*
G04 #@! TO.P,M1,S2,IN_D3*
G04 #@! TO.N,/D3_IN*
X64799991Y32500000D03*
G04 #@! TO.P,M1,S3,IN_D2*
G04 #@! TO.N,/D2_IN*
X63599994Y32500000D03*
G04 #@! TO.P,M1,S4,IN_D1*
G04 #@! TO.N,/D1_IN*
X62399994Y32499998D03*
G04 #@! TO.P,M1,S5,VREF2*
G04 #@! TO.N,unconnected-(M1-VREF2-PadS5)*
X61199994Y32500000D03*
G04 #@! TO.P,M1,S6,IN_SENS4*
G04 #@! TO.N,/SENS4*
X60100006Y32500000D03*
G04 #@! TO.P,M1,S7,IN_SENS3*
G04 #@! TO.N,/SENS3*
X58900006Y32500000D03*
G04 #@! TO.P,M1,S8,IN_SENS2*
G04 #@! TO.N,/SENS2*
X57700008Y32499998D03*
G04 #@! TO.P,M1,S9,IN_SENS1*
G04 #@! TO.N,/SENS1*
X56500008Y32500000D03*
G04 #@! TO.P,M1,S10,IN_AUX4*
G04 #@! TO.N,/AUX4*
X55300005Y32500000D03*
G04 #@! TO.P,M1,S11,IN_AUX3*
G04 #@! TO.N,/AUX3*
X54100003Y32499998D03*
G04 #@! TO.P,M1,S12,IN_AUX2*
G04 #@! TO.N,/AUX2*
X52900005Y32500000D03*
G04 #@! TO.P,M1,S13,IN_AUX1*
G04 #@! TO.N,/AUX1*
X51700007Y32500000D03*
G04 #@! TO.P,M1,S14,IN_RES2*
G04 #@! TO.N,/RES2*
X50500000Y32500000D03*
G04 #@! TO.P,M1,S15,IN_O2S2*
G04 #@! TO.N,/O2S2*
X49300000Y32500000D03*
G04 #@! TO.P,M1,S16,IN_O2S*
G04 #@! TO.N,/O2SENS*
X48100002Y32500000D03*
G04 #@! TO.P,M1,S17,IN_RES1*
G04 #@! TO.N,/RES1*
X46900002Y32500000D03*
G04 #@! TO.P,M1,S18,IN_RES3*
G04 #@! TO.N,/RES3*
X45699997Y32500000D03*
G04 #@! TO.P,M1,S19,IN_MAP3*
G04 #@! TO.N,/MAP3*
X44499996Y32500000D03*
G04 #@! TO.P,M1,S20,IN_MAP2*
G04 #@! TO.N,/MAP2*
X43299999Y32499998D03*
G04 #@! TO.P,M1,S21,IN_MAP1*
G04 #@! TO.N,/MAP*
X42099999Y32500000D03*
G04 #@! TO.P,M1,S22,IN_CRANK*
G04 #@! TO.N,/CRANK*
X40899996Y32499998D03*
G04 #@! TO.P,M1,S23,IN_KNOCK*
G04 #@! TO.N,/KNOCK_PROCESSED*
X39699996Y32500000D03*
G04 #@! TO.P,M1,S24,IN_CAM*
G04 #@! TO.N,/CAM*
X38500001Y32500000D03*
G04 #@! TO.P,M1,S25,IN_VSS*
G04 #@! TO.N,/VSS*
X37299998Y32499998D03*
G04 #@! TO.P,M1,S26,IN_IAT*
G04 #@! TO.N,/AIR*
X36099993Y32500000D03*
G04 #@! TO.P,M1,S27,IN_AT1*
G04 #@! TO.N,/AT1*
X34899993Y32499998D03*
G04 #@! TO.P,M1,S28,IN_CLT*
G04 #@! TO.N,/COOLANT*
X33699995Y32500000D03*
G04 #@! TO.P,M1,S29,IN_AT2*
G04 #@! TO.N,/AT2*
X32499995Y32500000D03*
G04 #@! TO.P,M1,S30,IN_TPS*
G04 #@! TO.N,/TPS*
X31299990Y32500000D03*
G04 #@! TO.P,M1,S31,IN_PPS*
G04 #@! TO.N,/PPS*
X30099990Y32500000D03*
G04 #@! TO.P,M1,S32,IN_TPS2*
G04 #@! TO.N,/TPS2*
X28899992Y32500000D03*
G04 #@! TO.P,M1,S33,IN_PPS2*
G04 #@! TO.N,/PPS2*
X27699992Y32500000D03*
G04 #@! TO.P,M1,S35,VREF1*
G04 #@! TO.N,/VREF1*
X25299992Y32500000D03*
G04 #@! TO.P,M1,W1,GNDA*
G04 #@! TO.N,GNDA*
X24899990Y35000003D03*
G04 #@! TO.P,M1,W2,V5A_SWITCHABLE*
G04 #@! TO.N,+5VA*
X24899990Y36000004D03*
G04 #@! TO.P,M1,W3,V33_REF*
G04 #@! TO.N,unconnected-(M1-V33_REF-PadW3)*
X24899992Y42400006D03*
G04 #@! TO.P,M1,W3a,BOOT1*
G04 #@! TO.N,unconnected-(M1-BOOT1-PadW3a)*
X24899991Y48400004D03*
G04 #@! TO.P,M1,W4,IGN8*
G04 #@! TO.N,unconnected-(M1-IGN8-PadW4)*
X24899992Y49400002D03*
G04 #@! TO.P,M1,W5,IGN7*
G04 #@! TO.N,unconnected-(M1-IGN7-PadW5)*
X24899992Y50400003D03*
G04 #@! TO.P,M1,W6,IGN6*
G04 #@! TO.N,unconnected-(M1-IGN6-PadW6)*
X24899992Y51400001D03*
G04 #@! TO.P,M1,W7,IGN5*
G04 #@! TO.N,unconnected-(M1-IGN5-PadW7)*
X24899992Y52400001D03*
G04 #@! TO.P,M1,W8,IGN4*
G04 #@! TO.N,/SPARK4_OUT*
X24899992Y53400002D03*
G04 #@! TO.P,M1,W9,IGN3*
G04 #@! TO.N,/SPARK3_OUT*
X24899992Y54400000D03*
G04 #@! TO.P,M1,W10,IGN2*
G04 #@! TO.N,/SPARK2_OUT*
X24899992Y55400000D03*
G04 #@! TO.P,M1,W11,IGN1*
G04 #@! TO.N,/SPARK1_OUT*
X24899992Y56399998D03*
G04 #@! TO.P,M1,W11a,LED_RED*
G04 #@! TO.N,unconnected-(M1-LED_RED-PadW11a)*
X24899991Y57400004D03*
G04 #@! TO.P,M1,W11b,LED_GREEN*
G04 #@! TO.N,unconnected-(M1-LED_GREEN-PadW11b)*
X24899991Y58400004D03*
G04 #@! TO.P,M1,W11c,LED_BLUE*
G04 #@! TO.N,unconnected-(M1-LED_BLUE-PadW11c)*
X24899991Y59400004D03*
G04 #@! TO.P,M1,W11d,LED_YELLOW*
G04 #@! TO.N,unconnected-(M1-LED_YELLOW-PadW11d)*
X24899991Y60400004D03*
G04 #@! TO.P,M1,W12,CANH*
G04 #@! TO.N,/CAN1+*
X24899991Y61400004D03*
G04 #@! TO.P,M1,W13,CANL*
G04 #@! TO.N,/CAN1-*
X24899991Y62400004D03*
G04 #@! TD*
G04 #@! TO.P,M6,E1,V5A*
G04 #@! TO.N,+5VA*
X-29000000Y72000000D03*
D27*
G04 #@! TO.P,M6,E2,GND*
G04 #@! TO.N,GND*
X-37900000Y70025000D03*
D28*
X-33350000Y72600000D03*
X-33350000Y69500000D03*
D10*
X-29000000Y71050000D03*
G04 #@! TO.P,M6,E3,OUT_KNOCK*
G04 #@! TO.N,/KNOCK_PROCESSED*
X-29000000Y70100002D03*
G04 #@! TO.P,M6,W1,IN_KNOCK*
G04 #@! TO.N,/KNOCK_RAW*
X-37700000Y71100000D03*
G04 #@! TO.P,M6,W2,VREF*
G04 #@! TO.N,/VREF1*
X-37700000Y72000000D03*
G04 #@! TD*
G04 #@! TO.P,U1,1,IN1*
G04 #@! TO.N,/INJ1_IN*
G04 #@! TA.AperFunction,SMDPad,CuDef*
G36*
G01*
X-9015000Y53625000D02*
X-9015000Y53175000D01*
G75*
G02*
X-9090000Y53100000I-75000J0D01*
G01*
X-10910000Y53100000D01*
G75*
G02*
X-10985000Y53175000I0J75000D01*
G01*
X-10985000Y53625000D01*
G75*
G02*
X-10910000Y53700000I75000J0D01*
G01*
X-9090000Y53700000D01*
G75*
G02*
X-9015000Y53625000I0J-75000D01*
G01*
G37*
G04 #@! TD.AperFunction*
G04 #@! TO.P,U1,2,S1*
G04 #@! TO.N,unconnected-(U1-S1-Pad2)*
G04 #@! TA.AperFunction,SMDPad,CuDef*
G36*
G01*
X-9015000Y54895000D02*
X-9015000Y54445000D01*
G75*
G02*
X-9090000Y54370000I-75000J0D01*
G01*
X-10910000Y54370000D01*
G75*
G02*
X-10985000Y54445000I0J75000D01*
G01*
X-10985000Y54895000D01*
G75*
G02*
X-10910000Y54970000I75000J0D01*
G01*
X-9090000Y54970000D01*
G75*
G02*
X-9015000Y54895000I0J-75000D01*
G01*
G37*
G04 #@! TD.AperFunction*
G04 #@! TO.P,U1,3,IN2*
G04 #@! TO.N,/INJ2_IN*
G04 #@! TA.AperFunction,SMDPad,CuDef*
G36*
G01*
X-9015000Y56165000D02*
X-9015000Y55715000D01*
G75*
G02*
X-9090000Y55640000I-75000J0D01*
G01*
X-10910000Y55640000D01*
G75*
G02*
X-10985000Y55715000I0J75000D01*
G01*
X-10985000Y56165000D01*
G75*
G02*
X-10910000Y56240000I75000J0D01*
G01*
X-9090000Y56240000D01*
G75*
G02*
X-9015000Y56165000I0J-75000D01*
G01*
G37*
G04 #@! TD.AperFunction*
G04 #@! TO.P,U1,4,S2*
G04 #@! TO.N,unconnected-(U1-S2-Pad4)*
G04 #@! TA.AperFunction,SMDPad,CuDef*
G36*
G01*
X-9015000Y57435000D02*
X-9015000Y56985000D01*
G75*
G02*
X-9090000Y56910000I-75000J0D01*
G01*
X-10910000Y56910000D01*
G75*
G02*
X-10985000Y56985000I0J75000D01*
G01*
X-10985000Y57435000D01*
G75*
G02*
X-10910000Y57510000I75000J0D01*
G01*
X-9090000Y57510000D01*
G75*
G02*
X-9015000Y57435000I0J-75000D01*
G01*
G37*
G04 #@! TD.AperFunction*
G04 #@! TO.P,U1,5,SOURCE2*
G04 #@! TO.N,GND*
G04 #@! TA.AperFunction,SMDPad,CuDef*
G36*
G01*
X-13965000Y57435000D02*
X-13965000Y56985000D01*
G75*
G02*
X-14040000Y56910000I-75000J0D01*
G01*
X-15860000Y56910000D01*
G75*
G02*
X-15935000Y56985000I0J75000D01*
G01*
X-15935000Y57435000D01*
G75*
G02*
X-15860000Y57510000I75000J0D01*
G01*
X-14040000Y57510000D01*
G75*
G02*
X-13965000Y57435000I0J-75000D01*
G01*
G37*
G04 #@! TD.AperFunction*
G04 #@! TO.P,U1,6,DRAIN2*
G04 #@! TO.N,/INJ2_OUT*
G04 #@! TA.AperFunction,SMDPad,CuDef*
G36*
G01*
X-13965000Y56165000D02*
X-13965000Y55715000D01*
G75*
G02*
X-14040000Y55640000I-75000J0D01*
G01*
X-15860000Y55640000D01*
G75*
G02*
X-15935000Y55715000I0J75000D01*
G01*
X-15935000Y56165000D01*
G75*
G02*
X-15860000Y56240000I75000J0D01*
G01*
X-14040000Y56240000D01*
G75*
G02*
X-13965000Y56165000I0J-75000D01*
G01*
G37*
G04 #@! TD.AperFunction*
G04 #@! TO.P,U1,7,SOURCE1*
G04 #@! TO.N,GND*
G04 #@! TA.AperFunction,SMDPad,CuDef*
G36*
G01*
X-13965000Y54895000D02*
X-13965000Y54445000D01*
G75*
G02*
X-14040000Y54370000I-75000J0D01*
G01*
X-15860000Y54370000D01*
G75*
G02*
X-15935000Y54445000I0J75000D01*
G01*
X-15935000Y54895000D01*
G75*
G02*
X-15860000Y54970000I75000J0D01*
G01*
X-14040000Y54970000D01*
G75*
G02*
X-13965000Y54895000I0J-75000D01*
G01*
G37*
G04 #@! TD.AperFunction*
G04 #@! TO.P,U1,8,DRAIN1*
G04 #@! TO.N,/INJ1_OUT*
G04 #@! TA.AperFunction,SMDPad,CuDef*
G36*
G01*
X-13965000Y53625000D02*
X-13965000Y53175000D01*
G75*
G02*
X-14040000Y53100000I-75000J0D01*
G01*
X-15860000Y53100000D01*
G75*
G02*
X-15935000Y53175000I0J75000D01*
G01*
X-15935000Y53625000D01*
G75*
G02*
X-15860000Y53700000I75000J0D01*
G01*
X-14040000Y53700000D01*
G75*
G02*
X-13965000Y53625000I0J-75000D01*
G01*
G37*
G04 #@! TD.AperFunction*
G04 #@! TD*
G04 #@! TO.P,R8,1*
G04 #@! TO.N,/IACCLOSE_IN*
G04 #@! TA.AperFunction,SMDPad,CuDef*
G36*
G01*
X-30015000Y52410000D02*
X-30015000Y52780000D01*
G75*
G02*
X-29880000Y52915000I135000J0D01*
G01*
X-29610000Y52915000D01*
G75*
G02*
X-29475000Y52780000I0J-135000D01*
G01*
X-29475000Y52410000D01*
G75*
G02*
X-29610000Y52275000I-135000J0D01*
G01*
X-29880000Y52275000D01*
G75*
G02*
X-30015000Y52410000I0J135000D01*
G01*
G37*
G04 #@! TD.AperFunction*
G04 #@! TO.P,R8,2*
G04 #@! TO.N,GND*
G04 #@! TA.AperFunction,SMDPad,CuDef*
G36*
G01*
X-28995000Y52410000D02*
X-28995000Y52780000D01*
G75*
G02*
X-28860000Y52915000I135000J0D01*
G01*
X-28590000Y52915000D01*
G75*
G02*
X-28455000Y52780000I0J-135000D01*
G01*
X-28455000Y52410000D01*
G75*
G02*
X-28590000Y52275000I-135000J0D01*
G01*
X-28860000Y52275000D01*
G75*
G02*
X-28995000Y52410000I0J135000D01*
G01*
G37*
G04 #@! TD.AperFunction*
G04 #@! TD*
G04 #@! TO.P,Q2,1,G*
G04 #@! TO.N,Net-(Q2-G)*
G04 #@! TA.AperFunction,SMDPad,CuDef*
G36*
G01*
X-32830000Y46020000D02*
X-32830000Y46320000D01*
G75*
G02*
X-32680000Y46470000I150000J0D01*
G01*
X-31505000Y46470000D01*
G75*
G02*
X-31355000Y46320000I0J-150000D01*
G01*
X-31355000Y46020000D01*
G75*
G02*
X-31505000Y45870000I-150000J0D01*
G01*
X-32680000Y45870000D01*
G75*
G02*
X-32830000Y46020000I0J150000D01*
G01*
G37*
G04 #@! TD.AperFunction*
G04 #@! TO.P,Q2,2,S*
G04 #@! TO.N,GND*
G04 #@! TA.AperFunction,SMDPad,CuDef*
G36*
G01*
X-32830000Y44120000D02*
X-32830000Y44420000D01*
G75*
G02*
X-32680000Y44570000I150000J0D01*
G01*
X-31505000Y44570000D01*
G75*
G02*
X-31355000Y44420000I0J-150000D01*
G01*
X-31355000Y44120000D01*
G75*
G02*
X-31505000Y43970000I-150000J0D01*
G01*
X-32680000Y43970000D01*
G75*
G02*
X-32830000Y44120000I0J150000D01*
G01*
G37*
G04 #@! TD.AperFunction*
G04 #@! TO.P,Q2,3,D*
G04 #@! TO.N,/CHECKENGINE_OUT*
G04 #@! TA.AperFunction,SMDPad,CuDef*
G36*
G01*
X-30955000Y45070000D02*
X-30955000Y45370000D01*
G75*
G02*
X-30805000Y45520000I150000J0D01*
G01*
X-29630000Y45520000D01*
G75*
G02*
X-29480000Y45370000I0J-150000D01*
G01*
X-29480000Y45070000D01*
G75*
G02*
X-29630000Y44920000I-150000J0D01*
G01*
X-30805000Y44920000D01*
G75*
G02*
X-30955000Y45070000I0J150000D01*
G01*
G37*
G04 #@! TD.AperFunction*
G04 #@! TD*
D29*
G04 #@! TO.P,J2,1,Pin_1*
G04 #@! TO.N,/IO1*
X32800000Y19000000D03*
D30*
G04 #@! TO.P,J2,2,Pin_2*
G04 #@! TO.N,/IO2*
X32800000Y21540000D03*
G04 #@! TO.P,J2,3,Pin_3*
G04 #@! TO.N,/IO3*
X35340000Y19000000D03*
G04 #@! TO.P,J2,4,Pin_4*
G04 #@! TO.N,/IO4*
X35340000Y21540000D03*
G04 #@! TO.P,J2,5,Pin_5*
G04 #@! TO.N,/RES1*
X37880000Y19000000D03*
G04 #@! TO.P,J2,6,Pin_6*
G04 #@! TO.N,/RES2*
X37880000Y21540000D03*
G04 #@! TO.P,J2,7,Pin_7*
G04 #@! TO.N,/RES3*
X40420000Y19000000D03*
G04 #@! TO.P,J2,8,Pin_8*
G04 #@! TO.N,/AUX1*
X40420000Y21540000D03*
G04 #@! TO.P,J2,9,Pin_9*
G04 #@! TO.N,/AUX2*
X42960000Y19000000D03*
G04 #@! TO.P,J2,10,Pin_10*
G04 #@! TO.N,/AUX3*
X42960000Y21540000D03*
G04 #@! TO.P,J2,11,Pin_11*
G04 #@! TO.N,/AUX4*
X45500000Y19000000D03*
G04 #@! TO.P,J2,12,Pin_12*
G04 #@! TO.N,/D1_IN*
X45500000Y21540000D03*
G04 #@! TO.P,J2,13,Pin_13*
G04 #@! TO.N,/D2_IN*
X48040000Y19000000D03*
G04 #@! TO.P,J2,14,Pin_14*
G04 #@! TO.N,/D3_IN*
X48040000Y21540000D03*
G04 #@! TO.P,J2,15,Pin_15*
G04 #@! TO.N,/D4_IN*
X50580000Y19000000D03*
G04 #@! TO.P,J2,16,Pin_16*
G04 #@! TO.N,/IO5*
X50580000Y21540000D03*
G04 #@! TO.P,J2,17,Pin_17*
G04 #@! TO.N,/IO6*
X53120000Y19000000D03*
G04 #@! TO.P,J2,18,Pin_18*
G04 #@! TO.N,/MAP2*
X53120000Y21540000D03*
G04 #@! TO.P,J2,19,Pin_19*
G04 #@! TO.N,/MAP3*
X55660000Y19000000D03*
G04 #@! TO.P,J2,20,Pin_20*
G04 #@! TO.N,/PPS*
X55660000Y21540000D03*
G04 #@! TO.P,J2,21,Pin_21*
G04 #@! TO.N,/PPS2*
X58200000Y19000000D03*
G04 #@! TO.P,J2,22,Pin_22*
G04 #@! TO.N,/TPS2*
X58200000Y21540000D03*
G04 #@! TO.P,J2,23,Pin_23*
G04 #@! TO.N,/AT1*
X60740000Y19000000D03*
G04 #@! TO.P,J2,24,Pin_24*
G04 #@! TO.N,/AT2*
X60740000Y21540000D03*
G04 #@! TO.P,J2,25,Pin_25*
G04 #@! TO.N,/O2S2*
X63280000Y19000000D03*
G04 #@! TO.P,J2,26,Pin_26*
G04 #@! TO.N,/SENS1*
X63280000Y21540000D03*
G04 #@! TO.P,J2,27,Pin_27*
G04 #@! TO.N,/SENS2*
X65820000Y19000000D03*
G04 #@! TO.P,J2,28,Pin_28*
G04 #@! TO.N,/SENS3*
X65820000Y21540000D03*
G04 #@! TO.P,J2,29,Pin_29*
G04 #@! TO.N,/SENS4*
X68360000Y19000000D03*
G04 #@! TO.P,J2,30,Pin_30*
G04 #@! TO.N,/KNOCK_RAW*
X68360000Y21540000D03*
G04 #@! TD*
G04 #@! TO.P,R6,1*
G04 #@! TO.N,/FANRELAY_IN*
G04 #@! TA.AperFunction,SMDPad,CuDef*
G36*
G01*
X-30015000Y56390000D02*
X-30015000Y56760000D01*
G75*
G02*
X-29880000Y56895000I135000J0D01*
G01*
X-29610000Y56895000D01*
G75*
G02*
X-29475000Y56760000I0J-135000D01*
G01*
X-29475000Y56390000D01*
G75*
G02*
X-29610000Y56255000I-135000J0D01*
G01*
X-29880000Y56255000D01*
G75*
G02*
X-30015000Y56390000I0J135000D01*
G01*
G37*
G04 #@! TD.AperFunction*
G04 #@! TO.P,R6,2*
G04 #@! TO.N,GND*
G04 #@! TA.AperFunction,SMDPad,CuDef*
G36*
G01*
X-28995000Y56390000D02*
X-28995000Y56760000D01*
G75*
G02*
X-28860000Y56895000I135000J0D01*
G01*
X-28590000Y56895000D01*
G75*
G02*
X-28455000Y56760000I0J-135000D01*
G01*
X-28455000Y56390000D01*
G75*
G02*
X-28590000Y56255000I-135000J0D01*
G01*
X-28860000Y56255000D01*
G75*
G02*
X-28995000Y56390000I0J135000D01*
G01*
G37*
G04 #@! TD.AperFunction*
G04 #@! TD*
G04 #@! TO.P,R11,1*
G04 #@! TO.N,/LS2_IN*
G04 #@! TA.AperFunction,SMDPad,CuDef*
G36*
G01*
X-27105000Y56390000D02*
X-27105000Y56760000D01*
G75*
G02*
X-26970000Y56895000I135000J0D01*
G01*
X-26700000Y56895000D01*
G75*
G02*
X-26565000Y56760000I0J-135000D01*
G01*
X-26565000Y56390000D01*
G75*
G02*
X-26700000Y56255000I-135000J0D01*
G01*
X-26970000Y56255000D01*
G75*
G02*
X-27105000Y56390000I0J135000D01*
G01*
G37*
G04 #@! TD.AperFunction*
G04 #@! TO.P,R11,2*
G04 #@! TO.N,GND*
G04 #@! TA.AperFunction,SMDPad,CuDef*
G36*
G01*
X-26085000Y56390000D02*
X-26085000Y56760000D01*
G75*
G02*
X-25950000Y56895000I135000J0D01*
G01*
X-25680000Y56895000D01*
G75*
G02*
X-25545000Y56760000I0J-135000D01*
G01*
X-25545000Y56390000D01*
G75*
G02*
X-25680000Y56255000I-135000J0D01*
G01*
X-25950000Y56255000D01*
G75*
G02*
X-26085000Y56390000I0J135000D01*
G01*
G37*
G04 #@! TD.AperFunction*
G04 #@! TD*
G04 #@! TO.P,R9,1*
G04 #@! TO.N,Net-(Q2-G)*
G04 #@! TA.AperFunction,SMDPad,CuDef*
G36*
G01*
X-30015000Y50420000D02*
X-30015000Y50790000D01*
G75*
G02*
X-29880000Y50925000I135000J0D01*
G01*
X-29610000Y50925000D01*
G75*
G02*
X-29475000Y50790000I0J-135000D01*
G01*
X-29475000Y50420000D01*
G75*
G02*
X-29610000Y50285000I-135000J0D01*
G01*
X-29880000Y50285000D01*
G75*
G02*
X-30015000Y50420000I0J135000D01*
G01*
G37*
G04 #@! TD.AperFunction*
G04 #@! TO.P,R9,2*
G04 #@! TO.N,GND*
G04 #@! TA.AperFunction,SMDPad,CuDef*
G36*
G01*
X-28995000Y50420000D02*
X-28995000Y50790000D01*
G75*
G02*
X-28860000Y50925000I135000J0D01*
G01*
X-28590000Y50925000D01*
G75*
G02*
X-28455000Y50790000I0J-135000D01*
G01*
X-28455000Y50420000D01*
G75*
G02*
X-28590000Y50285000I-135000J0D01*
G01*
X-28860000Y50285000D01*
G75*
G02*
X-28995000Y50420000I0J135000D01*
G01*
G37*
G04 #@! TD.AperFunction*
G04 #@! TD*
D31*
G04 #@! TO.P,J1,1,NC*
G04 #@! TO.N,unconnected-(J1-NC-Pad1)*
X18950000Y85500000D03*
D32*
G04 #@! TO.P,J1,2,BATT*
G04 #@! TO.N,+12V_PERM*
X21950000Y85500000D03*
G04 #@! TO.P,J1,3,CCO*
G04 #@! TO.N,unconnected-(J1-CCO-Pad3)*
X24950000Y85500000D03*
G04 #@! TO.P,J1,4,FC*
G04 #@! TO.N,/FUELRELAY_OUT*
X27950000Y85500000D03*
G04 #@! TO.P,J1,5,ELS*
G04 #@! TO.N,unconnected-(J1-ELS-Pad5)*
X30950000Y85500000D03*
G04 #@! TO.P,J1,6,AC2*
G04 #@! TO.N,unconnected-(J1-AC2-Pad6)*
X33950000Y85500000D03*
G04 #@! TO.P,J1,7,TE2*
G04 #@! TO.N,unconnected-(J1-TE2-Pad7)*
X36950000Y85500000D03*
G04 #@! TO.P,J1,8,TE1*
G04 #@! TO.N,unconnected-(J1-TE1-Pad8)*
X39950000Y85500000D03*
G04 #@! TO.P,J1,9,+B*
G04 #@! TO.N,+12V_RAW*
X18950000Y90000000D03*
G04 #@! TO.P,J1,10,W*
G04 #@! TO.N,/CHECKENGINE_OUT*
X21950000Y90000000D03*
G04 #@! TO.P,J1,11,EGW*
G04 #@! TO.N,unconnected-(J1-EGW-Pad11)*
X24950000Y90000000D03*
G04 #@! TO.P,J1,12,AC1*
G04 #@! TO.N,unconnected-(J1-AC1-Pad12)*
X27950000Y90000000D03*
G04 #@! TO.P,J1,13,SPD*
G04 #@! TO.N,/VSS*
X30950000Y90000000D03*
G04 #@! TO.P,J1,14,ACT*
G04 #@! TO.N,unconnected-(J1-ACT-Pad14)*
X33950000Y90000000D03*
G04 #@! TO.P,J1,15,ELS2*
G04 #@! TO.N,unconnected-(J1-ELS2-Pad15)*
X36950000Y90000000D03*
G04 #@! TO.P,J1,16,VF*
G04 #@! TO.N,unconnected-(J1-VF-Pad16)*
X39950000Y90000000D03*
G04 #@! TO.P,J1,101,RSC*
G04 #@! TO.N,/IACCLOSE_OUT*
X45950000Y85500000D03*
G04 #@! TO.P,J1,102,NSW*
G04 #@! TO.N,unconnected-(J1-NSW-Pad102)*
X49400000Y85500000D03*
G04 #@! TO.P,J1,103,THW*
G04 #@! TO.N,/COOLANT*
X52500000Y85500000D03*
G04 #@! TO.P,J1,104,PIM*
G04 #@! TO.N,/MAP*
X55500000Y85500000D03*
G04 #@! TO.P,J1,105,THA*
G04 #@! TO.N,/AIR*
X58500000Y85500000D03*
G04 #@! TO.P,J1,106,IGT*
G04 #@! TO.N,/SPARK1*
X61500000Y85500000D03*
G04 #@! TO.P,J1,107,IGF*
G04 #@! TO.N,unconnected-(J1-IGF-Pad107)*
X64500000Y85500000D03*
G04 #@! TO.P,J1,108,I0F*
G04 #@! TO.N,unconnected-(J1-I0F-Pad108)*
X67500000Y85500000D03*
G04 #@! TO.P,J1,109,NE-*
G04 #@! TO.N,/VR-*
X70500000Y85500000D03*
G04 #@! TO.P,J1,110,OX*
G04 #@! TO.N,/O2SENS*
X73500000Y85500000D03*
G04 #@! TO.P,J1,111,STA*
G04 #@! TO.N,unconnected-(J1-STA-Pad111)*
X76600000Y85500000D03*
G04 #@! TO.P,J1,112,#10*
G04 #@! TO.N,/INJ1*
X80100000Y85500000D03*
G04 #@! TO.P,J1,113,E01*
G04 #@! TO.N,GND*
X83600000Y85500000D03*
G04 #@! TO.P,J1,114,RSO*
G04 #@! TO.N,/IACOPEN_OUT*
X45900000Y90000000D03*
G04 #@! TO.P,J1,115,HT*
G04 #@! TO.N,/O2HEAT_OUT*
X49400000Y90000000D03*
G04 #@! TO.P,J1,116,E2*
G04 #@! TO.N,GNDA*
X52500000Y90000000D03*
G04 #@! TO.P,J1,117,PSW*
G04 #@! TO.N,/TPS*
X55500000Y90000000D03*
G04 #@! TO.P,J1,118,VCC*
G04 #@! TO.N,+5VP*
X58500000Y90000000D03*
G04 #@! TO.P,J1,119,IDL*
G04 #@! TO.N,/IDLESWITCH*
X61500000Y90000000D03*
G04 #@! TO.P,J1,120,FAN*
G04 #@! TO.N,/FANRELAY_OUT*
X64500000Y90000000D03*
G04 #@! TO.P,J1,121,NE*
G04 #@! TO.N,/VRCRANK+*
X67500000Y90000000D03*
G04 #@! TO.P,J1,122,ELS3*
G04 #@! TO.N,unconnected-(J1-ELS3-Pad122)*
X70500000Y90000000D03*
G04 #@! TO.P,J1,123,IPV*
G04 #@! TO.N,unconnected-(J1-IPV-Pad123)*
X73500000Y90000000D03*
G04 #@! TO.P,J1,124,E1*
G04 #@! TO.N,GND*
X76600000Y90000000D03*
G04 #@! TO.P,J1,125,#20*
G04 #@! TO.N,/INJ2*
X80100000Y90000000D03*
G04 #@! TO.P,J1,126,NC*
G04 #@! TO.N,unconnected-(J1-NC-Pad126)*
X83600000Y90000000D03*
D33*
G04 #@! TO.P,J1,MH1,MH1*
G04 #@! TO.N,GND*
X18550000Y95700000D03*
G04 #@! TO.P,J1,MH2,MH2*
X42800000Y95700000D03*
G04 #@! TO.P,J1,MH3,MH3*
X84250000Y95700000D03*
G04 #@! TD*
G04 #@! TO.P,R13,1*
G04 #@! TO.N,/LS4_IN*
G04 #@! TA.AperFunction,SMDPad,CuDef*
G36*
G01*
X-27105000Y52410000D02*
X-27105000Y52780000D01*
G75*
G02*
X-26970000Y52915000I135000J0D01*
G01*
X-26700000Y52915000D01*
G75*
G02*
X-26565000Y52780000I0J-135000D01*
G01*
X-26565000Y52410000D01*
G75*
G02*
X-26700000Y52275000I-135000J0D01*
G01*
X-26970000Y52275000D01*
G75*
G02*
X-27105000Y52410000I0J135000D01*
G01*
G37*
G04 #@! TD.AperFunction*
G04 #@! TO.P,R13,2*
G04 #@! TO.N,GND*
G04 #@! TA.AperFunction,SMDPad,CuDef*
G36*
G01*
X-26085000Y52410000D02*
X-26085000Y52780000D01*
G75*
G02*
X-25950000Y52915000I135000J0D01*
G01*
X-25680000Y52915000D01*
G75*
G02*
X-25545000Y52780000I0J-135000D01*
G01*
X-25545000Y52410000D01*
G75*
G02*
X-25680000Y52275000I-135000J0D01*
G01*
X-25950000Y52275000D01*
G75*
G02*
X-26085000Y52410000I0J135000D01*
G01*
G37*
G04 #@! TD.AperFunction*
G04 #@! TD*
G04 #@! TO.P,U4,1,IN1*
G04 #@! TO.N,/IACCLOSE_IN*
G04 #@! TA.AperFunction,SMDPad,CuDef*
G36*
G01*
X44320000Y76040000D02*
X43870000Y76040000D01*
G75*
G02*
X43795000Y76115000I0J75000D01*
G01*
X43795000Y77935000D01*
G75*
G02*
X43870000Y78010000I75000J0D01*
G01*
X44320000Y78010000D01*
G75*
G02*
X44395000Y77935000I0J-75000D01*
G01*
X44395000Y76115000D01*
G75*
G02*
X44320000Y76040000I-75000J0D01*
G01*
G37*
G04 #@! TD.AperFunction*
G04 #@! TO.P,U4,2,S1*
G04 #@! TO.N,unconnected-(U4-S1-Pad2)*
G04 #@! TA.AperFunction,SMDPad,CuDef*
G36*
G01*
X45590000Y76040000D02*
X45140000Y76040000D01*
G75*
G02*
X45065000Y76115000I0J75000D01*
G01*
X45065000Y77935000D01*
G75*
G02*
X45140000Y78010000I75000J0D01*
G01*
X45590000Y78010000D01*
G75*
G02*
X45665000Y77935000I0J-75000D01*
G01*
X45665000Y76115000D01*
G75*
G02*
X45590000Y76040000I-75000J0D01*
G01*
G37*
G04 #@! TD.AperFunction*
G04 #@! TO.P,U4,3,IN2*
G04 #@! TO.N,/IACOPEN_IN*
G04 #@! TA.AperFunction,SMDPad,CuDef*
G36*
G01*
X46860000Y76040000D02*
X46410000Y76040000D01*
G75*
G02*
X46335000Y76115000I0J75000D01*
G01*
X46335000Y77935000D01*
G75*
G02*
X46410000Y78010000I75000J0D01*
G01*
X46860000Y78010000D01*
G75*
G02*
X46935000Y77935000I0J-75000D01*
G01*
X46935000Y76115000D01*
G75*
G02*
X46860000Y76040000I-75000J0D01*
G01*
G37*
G04 #@! TD.AperFunction*
G04 #@! TO.P,U4,4,S2*
G04 #@! TO.N,unconnected-(U4-S2-Pad4)*
G04 #@! TA.AperFunction,SMDPad,CuDef*
G36*
G01*
X48130000Y76040000D02*
X47680000Y76040000D01*
G75*
G02*
X47605000Y76115000I0J75000D01*
G01*
X47605000Y77935000D01*
G75*
G02*
X47680000Y78010000I75000J0D01*
G01*
X48130000Y78010000D01*
G75*
G02*
X48205000Y77935000I0J-75000D01*
G01*
X48205000Y76115000D01*
G75*
G02*
X48130000Y76040000I-75000J0D01*
G01*
G37*
G04 #@! TD.AperFunction*
G04 #@! TO.P,U4,5,SOURCE2*
G04 #@! TO.N,GND*
G04 #@! TA.AperFunction,SMDPad,CuDef*
G36*
G01*
X48130000Y80990000D02*
X47680000Y80990000D01*
G75*
G02*
X47605000Y81065000I0J75000D01*
G01*
X47605000Y82885000D01*
G75*
G02*
X47680000Y82960000I75000J0D01*
G01*
X48130000Y82960000D01*
G75*
G02*
X48205000Y82885000I0J-75000D01*
G01*
X48205000Y81065000D01*
G75*
G02*
X48130000Y80990000I-75000J0D01*
G01*
G37*
G04 #@! TD.AperFunction*
G04 #@! TO.P,U4,6,DRAIN2*
G04 #@! TO.N,/IACOPEN_OUT*
G04 #@! TA.AperFunction,SMDPad,CuDef*
G36*
G01*
X46860000Y80990000D02*
X46410000Y80990000D01*
G75*
G02*
X46335000Y81065000I0J75000D01*
G01*
X46335000Y82885000D01*
G75*
G02*
X46410000Y82960000I75000J0D01*
G01*
X46860000Y82960000D01*
G75*
G02*
X46935000Y82885000I0J-75000D01*
G01*
X46935000Y81065000D01*
G75*
G02*
X46860000Y80990000I-75000J0D01*
G01*
G37*
G04 #@! TD.AperFunction*
G04 #@! TO.P,U4,7,SOURCE1*
G04 #@! TO.N,GND*
G04 #@! TA.AperFunction,SMDPad,CuDef*
G36*
G01*
X45590000Y80990000D02*
X45140000Y80990000D01*
G75*
G02*
X45065000Y81065000I0J75000D01*
G01*
X45065000Y82885000D01*
G75*
G02*
X45140000Y82960000I75000J0D01*
G01*
X45590000Y82960000D01*
G75*
G02*
X45665000Y82885000I0J-75000D01*
G01*
X45665000Y81065000D01*
G75*
G02*
X45590000Y80990000I-75000J0D01*
G01*
G37*
G04 #@! TD.AperFunction*
G04 #@! TO.P,U4,8,DRAIN1*
G04 #@! TO.N,/IACCLOSE_OUT*
G04 #@! TA.AperFunction,SMDPad,CuDef*
G36*
G01*
X44320000Y80990000D02*
X43870000Y80990000D01*
G75*
G02*
X43795000Y81065000I0J75000D01*
G01*
X43795000Y82885000D01*
G75*
G02*
X43870000Y82960000I75000J0D01*
G01*
X44320000Y82960000D01*
G75*
G02*
X44395000Y82885000I0J-75000D01*
G01*
X44395000Y81065000D01*
G75*
G02*
X44320000Y80990000I-75000J0D01*
G01*
G37*
G04 #@! TD.AperFunction*
G04 #@! TD*
G04 #@! TO.P,R12,1*
G04 #@! TO.N,/LS1_IN*
G04 #@! TA.AperFunction,SMDPad,CuDef*
G36*
G01*
X-27105000Y54400000D02*
X-27105000Y54770000D01*
G75*
G02*
X-26970000Y54905000I135000J0D01*
G01*
X-26700000Y54905000D01*
G75*
G02*
X-26565000Y54770000I0J-135000D01*
G01*
X-26565000Y54400000D01*
G75*
G02*
X-26700000Y54265000I-135000J0D01*
G01*
X-26970000Y54265000D01*
G75*
G02*
X-27105000Y54400000I0J135000D01*
G01*
G37*
G04 #@! TD.AperFunction*
G04 #@! TO.P,R12,2*
G04 #@! TO.N,GND*
G04 #@! TA.AperFunction,SMDPad,CuDef*
G36*
G01*
X-26085000Y54400000D02*
X-26085000Y54770000D01*
G75*
G02*
X-25950000Y54905000I135000J0D01*
G01*
X-25680000Y54905000D01*
G75*
G02*
X-25545000Y54770000I0J-135000D01*
G01*
X-25545000Y54400000D01*
G75*
G02*
X-25680000Y54265000I-135000J0D01*
G01*
X-25950000Y54265000D01*
G75*
G02*
X-26085000Y54400000I0J135000D01*
G01*
G37*
G04 #@! TD.AperFunction*
G04 #@! TD*
G04 #@! TO.P,D9,1,K*
G04 #@! TO.N,+12V_RAW*
G04 #@! TA.AperFunction,SMDPad,CuDef*
G36*
G01*
X-64420000Y32070000D02*
X-64420000Y32820000D01*
G75*
G02*
X-64195000Y33045000I225000J0D01*
G01*
X-63745000Y33045000D01*
G75*
G02*
X-63520000Y32820000I0J-225000D01*
G01*
X-63520000Y32070000D01*
G75*
G02*
X-63745000Y31845000I-225000J0D01*
G01*
X-64195000Y31845000D01*
G75*
G02*
X-64420000Y32070000I0J225000D01*
G01*
G37*
G04 #@! TD.AperFunction*
G04 #@! TO.P,D9,2,A*
G04 #@! TO.N,/LS4_OUT*
G04 #@! TA.AperFunction,SMDPad,CuDef*
G36*
G01*
X-61120000Y32070000D02*
X-61120000Y32820000D01*
G75*
G02*
X-60895000Y33045000I225000J0D01*
G01*
X-60445000Y33045000D01*
G75*
G02*
X-60220000Y32820000I0J-225000D01*
G01*
X-60220000Y32070000D01*
G75*
G02*
X-60445000Y31845000I-225000J0D01*
G01*
X-60895000Y31845000D01*
G75*
G02*
X-61120000Y32070000I0J225000D01*
G01*
G37*
G04 #@! TD.AperFunction*
G04 #@! TD*
D10*
G04 #@! TO.P,M5,E1,LSU_Un*
G04 #@! TO.N,unconnected-(M5-LSU_Un-PadE1)*
X93925000Y60625000D03*
G04 #@! TO.P,M5,E2,LSU_Vm*
G04 #@! TO.N,unconnected-(M5-LSU_Vm-PadE2)*
X91525000Y60625000D03*
G04 #@! TO.P,M5,E3,LSU_Ip*
G04 #@! TO.N,unconnected-(M5-LSU_Ip-PadE3)*
X92325000Y60625000D03*
G04 #@! TO.P,M5,E4,LSU_Rtrim*
G04 #@! TO.N,unconnected-(M5-LSU_Rtrim-PadE4)*
X93125000Y60625000D03*
D34*
G04 #@! TO.P,M5,E5,LSU_Htr*
G04 #@! TO.N,unconnected-(M5-LSU_Htr-PadE5)*
X90325000Y60225000D03*
D35*
G04 #@! TO.P,M5,G,GND*
G04 #@! TO.N,GND*
X82325000Y36450000D03*
D36*
X88800000Y36450000D03*
D37*
X94575000Y36450000D03*
D38*
X81500000Y48625000D03*
X95250000Y48625000D03*
D39*
X85400000Y60800000D03*
D40*
X94900000Y60800000D03*
G04 #@! TO.P,M5,J1,SEL1*
G04 #@! TO.N,unconnected-(M5-SEL1-PadJ1)*
G04 #@! TA.AperFunction,SMDPad,CuDef*
G36*
G01*
X82525000Y45875000D02*
X83775000Y45875000D01*
G75*
G02*
X83900000Y45750000I0J-125000D01*
G01*
X83900000Y45500000D01*
G75*
G02*
X83775000Y45375000I-125000J0D01*
G01*
X82525000Y45375000D01*
G75*
G02*
X82400000Y45500000I0J125000D01*
G01*
X82400000Y45750000D01*
G75*
G02*
X82525000Y45875000I125000J0D01*
G01*
G37*
G04 #@! TD.AperFunction*
G04 #@! TO.P,M5,J2,SEL2*
G04 #@! TO.N,unconnected-(M5-SEL2-PadJ2)*
G04 #@! TA.AperFunction,SMDPad,CuDef*
G36*
G01*
X85200000Y44200000D02*
X85450000Y44200000D01*
G75*
G02*
X85575000Y44075000I0J-125000D01*
G01*
X85575000Y42825000D01*
G75*
G02*
X85450000Y42700000I-125000J0D01*
G01*
X85200000Y42700000D01*
G75*
G02*
X85075000Y42825000I0J125000D01*
G01*
X85075000Y44075000D01*
G75*
G02*
X85200000Y44200000I125000J0D01*
G01*
G37*
G04 #@! TD.AperFunction*
G04 #@! TO.P,M5,J_GND1,PULL_DOWN1*
G04 #@! TO.N,unconnected-(M5-PULL_DOWN1-PadJ_GND1)*
G04 #@! TA.AperFunction,SMDPad,CuDef*
G36*
G01*
X82525000Y45075000D02*
X83775000Y45075000D01*
G75*
G02*
X83900000Y44950000I0J-125000D01*
G01*
X83900000Y44700000D01*
G75*
G02*
X83775000Y44575000I-125000J0D01*
G01*
X82525000Y44575000D01*
G75*
G02*
X82400000Y44700000I0J125000D01*
G01*
X82400000Y44950000D01*
G75*
G02*
X82525000Y45075000I125000J0D01*
G01*
G37*
G04 #@! TD.AperFunction*
G04 #@! TO.P,M5,J_GND2,PULL_DOWN2*
G04 #@! TO.N,unconnected-(M5-PULL_DOWN2-PadJ_GND2)*
G04 #@! TA.AperFunction,SMDPad,CuDef*
G36*
G01*
X85075000Y44750000D02*
X85075000Y45000000D01*
G75*
G02*
X85200000Y45125000I125000J0D01*
G01*
X85450000Y45125000D01*
G75*
G02*
X85575000Y45000000I0J-125000D01*
G01*
X85575000Y44750000D01*
G75*
G02*
X85450000Y44625000I-125000J0D01*
G01*
X85200000Y44625000D01*
G75*
G02*
X85075000Y44750000I0J125000D01*
G01*
G37*
G04 #@! TD.AperFunction*
G04 #@! TO.P,M5,J_VCC1,PULL_UP1*
G04 #@! TO.N,unconnected-(M5-PULL_UP1-PadJ_VCC1)*
G04 #@! TA.AperFunction,SMDPad,CuDef*
G36*
G01*
X84400000Y45875000D02*
X84650000Y45875000D01*
G75*
G02*
X84775000Y45750000I0J-125000D01*
G01*
X84775000Y45500000D01*
G75*
G02*
X84650000Y45375000I-125000J0D01*
G01*
X84400000Y45375000D01*
G75*
G02*
X84275000Y45500000I0J125000D01*
G01*
X84275000Y45750000D01*
G75*
G02*
X84400000Y45875000I125000J0D01*
G01*
G37*
G04 #@! TD.AperFunction*
G04 #@! TO.P,M5,J_VCC2,PULL_UP2*
G04 #@! TO.N,unconnected-(M5-PULL_UP2-PadJ_VCC2)*
G04 #@! TA.AperFunction,SMDPad,CuDef*
G36*
G01*
X84400000Y44200000D02*
X84650000Y44200000D01*
G75*
G02*
X84775000Y44075000I0J-125000D01*
G01*
X84775000Y42825000D01*
G75*
G02*
X84650000Y42700000I-125000J0D01*
G01*
X84400000Y42700000D01*
G75*
G02*
X84275000Y42825000I0J125000D01*
G01*
X84275000Y44075000D01*
G75*
G02*
X84400000Y44200000I125000J0D01*
G01*
G37*
G04 #@! TD.AperFunction*
D10*
G04 #@! TO.P,M5,W1,V5_IN*
G04 #@! TO.N,+5VA*
X84575000Y36625000D03*
G04 #@! TO.P,M5,W2,CAN_VIO*
G04 #@! TO.N,unconnected-(M5-CAN_VIO-PadW2)*
X85375000Y36625000D03*
G04 #@! TO.P,M5,W3,CANL*
G04 #@! TO.N,/CAN1-*
X86975000Y36625000D03*
G04 #@! TO.P,M5,W4,CANH*
G04 #@! TO.N,/CAN1+*
X86175000Y36625000D03*
G04 #@! TO.P,M5,W5,nReset*
G04 #@! TO.N,unconnected-(M5-nReset-PadW5)*
G04 #@! TA.AperFunction,SMDPad,CuDef*
G36*
G01*
X90425000Y36325000D02*
X90425000Y36325000D01*
G75*
G02*
X90325000Y36425000I0J100000D01*
G01*
X90325000Y36725000D01*
G75*
G02*
X90425000Y36825000I100000J0D01*
G01*
X90425000Y36825000D01*
G75*
G02*
X90525000Y36725000I0J-100000D01*
G01*
X90525000Y36425000D01*
G75*
G02*
X90425000Y36325000I-100000J0D01*
G01*
G37*
G04 #@! TD.AperFunction*
G04 #@! TO.P,M5,W6,SWDIO*
G04 #@! TO.N,unconnected-(M5-SWDIO-PadW6)*
G04 #@! TA.AperFunction,SMDPad,CuDef*
G36*
G01*
X90825000Y36325000D02*
X90825000Y36325000D01*
G75*
G02*
X90725000Y36425000I0J100000D01*
G01*
X90725000Y36725000D01*
G75*
G02*
X90825000Y36825000I100000J0D01*
G01*
X90825000Y36825000D01*
G75*
G02*
X90925000Y36725000I0J-100000D01*
G01*
X90925000Y36425000D01*
G75*
G02*
X90825000Y36325000I-100000J0D01*
G01*
G37*
G04 #@! TD.AperFunction*
G04 #@! TO.P,M5,W7,SWCLK*
G04 #@! TO.N,unconnected-(M5-SWCLK-PadW7)*
G04 #@! TA.AperFunction,SMDPad,CuDef*
G36*
G01*
X91225000Y36325000D02*
X91225000Y36325000D01*
G75*
G02*
X91125000Y36425000I0J100000D01*
G01*
X91125000Y36725000D01*
G75*
G02*
X91225000Y36825000I100000J0D01*
G01*
X91225000Y36825000D01*
G75*
G02*
X91325000Y36725000I0J-100000D01*
G01*
X91325000Y36425000D01*
G75*
G02*
X91225000Y36325000I-100000J0D01*
G01*
G37*
G04 #@! TD.AperFunction*
G04 #@! TO.P,M5,W8,V33_OUT*
G04 #@! TO.N,unconnected-(M5-V33_OUT-PadW8)*
G04 #@! TA.AperFunction,SMDPad,CuDef*
G36*
G01*
X93475000Y36325000D02*
X93475000Y36325000D01*
G75*
G02*
X93375000Y36425000I0J100000D01*
G01*
X93375000Y36725000D01*
G75*
G02*
X93475000Y36825000I100000J0D01*
G01*
X93475000Y36825000D01*
G75*
G02*
X93575000Y36725000I0J-100000D01*
G01*
X93575000Y36425000D01*
G75*
G02*
X93475000Y36325000I-100000J0D01*
G01*
G37*
G04 #@! TD.AperFunction*
G04 #@! TO.P,M5,W9,VDDA*
G04 #@! TO.N,unconnected-(M5-VDDA-PadW9)*
X83775000Y36625000D03*
G04 #@! TD*
G04 #@! TO.P,D7,1,K*
G04 #@! TO.N,+12V_RAW*
G04 #@! TA.AperFunction,SMDPad,CuDef*
G36*
G01*
X-64420000Y38770000D02*
X-64420000Y39520000D01*
G75*
G02*
X-64195000Y39745000I225000J0D01*
G01*
X-63745000Y39745000D01*
G75*
G02*
X-63520000Y39520000I0J-225000D01*
G01*
X-63520000Y38770000D01*
G75*
G02*
X-63745000Y38545000I-225000J0D01*
G01*
X-64195000Y38545000D01*
G75*
G02*
X-64420000Y38770000I0J225000D01*
G01*
G37*
G04 #@! TD.AperFunction*
G04 #@! TO.P,D7,2,A*
G04 #@! TO.N,/LS2_OUT*
G04 #@! TA.AperFunction,SMDPad,CuDef*
G36*
G01*
X-61120000Y38770000D02*
X-61120000Y39520000D01*
G75*
G02*
X-60895000Y39745000I225000J0D01*
G01*
X-60445000Y39745000D01*
G75*
G02*
X-60220000Y39520000I0J-225000D01*
G01*
X-60220000Y38770000D01*
G75*
G02*
X-60445000Y38545000I-225000J0D01*
G01*
X-60895000Y38545000D01*
G75*
G02*
X-61120000Y38770000I0J225000D01*
G01*
G37*
G04 #@! TD.AperFunction*
G04 #@! TD*
G04 #@! TO.P,R4,1*
G04 #@! TO.N,/INJ3_IN*
G04 #@! TA.AperFunction,SMDPad,CuDef*
G36*
G01*
X-32925000Y50420000D02*
X-32925000Y50790000D01*
G75*
G02*
X-32790000Y50925000I135000J0D01*
G01*
X-32520000Y50925000D01*
G75*
G02*
X-32385000Y50790000I0J-135000D01*
G01*
X-32385000Y50420000D01*
G75*
G02*
X-32520000Y50285000I-135000J0D01*
G01*
X-32790000Y50285000D01*
G75*
G02*
X-32925000Y50420000I0J135000D01*
G01*
G37*
G04 #@! TD.AperFunction*
G04 #@! TO.P,R4,2*
G04 #@! TO.N,GND*
G04 #@! TA.AperFunction,SMDPad,CuDef*
G36*
G01*
X-31905000Y50420000D02*
X-31905000Y50790000D01*
G75*
G02*
X-31770000Y50925000I135000J0D01*
G01*
X-31500000Y50925000D01*
G75*
G02*
X-31365000Y50790000I0J-135000D01*
G01*
X-31365000Y50420000D01*
G75*
G02*
X-31500000Y50285000I-135000J0D01*
G01*
X-31770000Y50285000D01*
G75*
G02*
X-31905000Y50420000I0J135000D01*
G01*
G37*
G04 #@! TD.AperFunction*
G04 #@! TD*
G04 #@! TO.P,D3,1,K*
G04 #@! TO.N,+12V_RAW*
G04 #@! TA.AperFunction,SMDPad,CuDef*
G36*
G01*
X-64420000Y48820000D02*
X-64420000Y49570000D01*
G75*
G02*
X-64195000Y49795000I225000J0D01*
G01*
X-63745000Y49795000D01*
G75*
G02*
X-63520000Y49570000I0J-225000D01*
G01*
X-63520000Y48820000D01*
G75*
G02*
X-63745000Y48595000I-225000J0D01*
G01*
X-64195000Y48595000D01*
G75*
G02*
X-64420000Y48820000I0J225000D01*
G01*
G37*
G04 #@! TD.AperFunction*
G04 #@! TO.P,D3,2,A*
G04 #@! TO.N,/IACOPEN_OUT*
G04 #@! TA.AperFunction,SMDPad,CuDef*
G36*
G01*
X-61120000Y48820000D02*
X-61120000Y49570000D01*
G75*
G02*
X-60895000Y49795000I225000J0D01*
G01*
X-60445000Y49795000D01*
G75*
G02*
X-60220000Y49570000I0J-225000D01*
G01*
X-60220000Y48820000D01*
G75*
G02*
X-60445000Y48595000I-225000J0D01*
G01*
X-60895000Y48595000D01*
G75*
G02*
X-61120000Y48820000I0J225000D01*
G01*
G37*
G04 #@! TD.AperFunction*
G04 #@! TD*
G04 #@! TO.P,D2,1,K*
G04 #@! TO.N,+12V_RAW*
G04 #@! TA.AperFunction,SMDPad,CuDef*
G36*
G01*
X-64420000Y52170000D02*
X-64420000Y52920000D01*
G75*
G02*
X-64195000Y53145000I225000J0D01*
G01*
X-63745000Y53145000D01*
G75*
G02*
X-63520000Y52920000I0J-225000D01*
G01*
X-63520000Y52170000D01*
G75*
G02*
X-63745000Y51945000I-225000J0D01*
G01*
X-64195000Y51945000D01*
G75*
G02*
X-64420000Y52170000I0J225000D01*
G01*
G37*
G04 #@! TD.AperFunction*
G04 #@! TO.P,D2,2,A*
G04 #@! TO.N,/FANRELAY_OUT*
G04 #@! TA.AperFunction,SMDPad,CuDef*
G36*
G01*
X-61120000Y52170000D02*
X-61120000Y52920000D01*
G75*
G02*
X-60895000Y53145000I225000J0D01*
G01*
X-60445000Y53145000D01*
G75*
G02*
X-60220000Y52920000I0J-225000D01*
G01*
X-60220000Y52170000D01*
G75*
G02*
X-60445000Y51945000I-225000J0D01*
G01*
X-60895000Y51945000D01*
G75*
G02*
X-61120000Y52170000I0J225000D01*
G01*
G37*
G04 #@! TD.AperFunction*
G04 #@! TD*
G04 #@! TO.P,U3,1,IN1*
G04 #@! TO.N,/FANRELAY_IN*
G04 #@! TA.AperFunction,SMDPad,CuDef*
G36*
G01*
X28320000Y76040000D02*
X27870000Y76040000D01*
G75*
G02*
X27795000Y76115000I0J75000D01*
G01*
X27795000Y77935000D01*
G75*
G02*
X27870000Y78010000I75000J0D01*
G01*
X28320000Y78010000D01*
G75*
G02*
X28395000Y77935000I0J-75000D01*
G01*
X28395000Y76115000D01*
G75*
G02*
X28320000Y76040000I-75000J0D01*
G01*
G37*
G04 #@! TD.AperFunction*
G04 #@! TO.P,U3,2,S1*
G04 #@! TO.N,unconnected-(U3-S1-Pad2)*
G04 #@! TA.AperFunction,SMDPad,CuDef*
G36*
G01*
X29590000Y76040000D02*
X29140000Y76040000D01*
G75*
G02*
X29065000Y76115000I0J75000D01*
G01*
X29065000Y77935000D01*
G75*
G02*
X29140000Y78010000I75000J0D01*
G01*
X29590000Y78010000D01*
G75*
G02*
X29665000Y77935000I0J-75000D01*
G01*
X29665000Y76115000D01*
G75*
G02*
X29590000Y76040000I-75000J0D01*
G01*
G37*
G04 #@! TD.AperFunction*
G04 #@! TO.P,U3,3,IN2*
G04 #@! TO.N,/FUELRELAY_IN*
G04 #@! TA.AperFunction,SMDPad,CuDef*
G36*
G01*
X30860000Y76040000D02*
X30410000Y76040000D01*
G75*
G02*
X30335000Y76115000I0J75000D01*
G01*
X30335000Y77935000D01*
G75*
G02*
X30410000Y78010000I75000J0D01*
G01*
X30860000Y78010000D01*
G75*
G02*
X30935000Y77935000I0J-75000D01*
G01*
X30935000Y76115000D01*
G75*
G02*
X30860000Y76040000I-75000J0D01*
G01*
G37*
G04 #@! TD.AperFunction*
G04 #@! TO.P,U3,4,S2*
G04 #@! TO.N,unconnected-(U3-S2-Pad4)*
G04 #@! TA.AperFunction,SMDPad,CuDef*
G36*
G01*
X32130000Y76040000D02*
X31680000Y76040000D01*
G75*
G02*
X31605000Y76115000I0J75000D01*
G01*
X31605000Y77935000D01*
G75*
G02*
X31680000Y78010000I75000J0D01*
G01*
X32130000Y78010000D01*
G75*
G02*
X32205000Y77935000I0J-75000D01*
G01*
X32205000Y76115000D01*
G75*
G02*
X32130000Y76040000I-75000J0D01*
G01*
G37*
G04 #@! TD.AperFunction*
G04 #@! TO.P,U3,5,SOURCE2*
G04 #@! TO.N,GND*
G04 #@! TA.AperFunction,SMDPad,CuDef*
G36*
G01*
X32130000Y80990000D02*
X31680000Y80990000D01*
G75*
G02*
X31605000Y81065000I0J75000D01*
G01*
X31605000Y82885000D01*
G75*
G02*
X31680000Y82960000I75000J0D01*
G01*
X32130000Y82960000D01*
G75*
G02*
X32205000Y82885000I0J-75000D01*
G01*
X32205000Y81065000D01*
G75*
G02*
X32130000Y80990000I-75000J0D01*
G01*
G37*
G04 #@! TD.AperFunction*
G04 #@! TO.P,U3,6,DRAIN2*
G04 #@! TO.N,/FANRELAY_OUT*
G04 #@! TA.AperFunction,SMDPad,CuDef*
G36*
G01*
X30860000Y80990000D02*
X30410000Y80990000D01*
G75*
G02*
X30335000Y81065000I0J75000D01*
G01*
X30335000Y82885000D01*
G75*
G02*
X30410000Y82960000I75000J0D01*
G01*
X30860000Y82960000D01*
G75*
G02*
X30935000Y82885000I0J-75000D01*
G01*
X30935000Y81065000D01*
G75*
G02*
X30860000Y80990000I-75000J0D01*
G01*
G37*
G04 #@! TD.AperFunction*
G04 #@! TO.P,U3,7,SOURCE1*
G04 #@! TO.N,GND*
G04 #@! TA.AperFunction,SMDPad,CuDef*
G36*
G01*
X29590000Y80990000D02*
X29140000Y80990000D01*
G75*
G02*
X29065000Y81065000I0J75000D01*
G01*
X29065000Y82885000D01*
G75*
G02*
X29140000Y82960000I75000J0D01*
G01*
X29590000Y82960000D01*
G75*
G02*
X29665000Y82885000I0J-75000D01*
G01*
X29665000Y81065000D01*
G75*
G02*
X29590000Y80990000I-75000J0D01*
G01*
G37*
G04 #@! TD.AperFunction*
G04 #@! TO.P,U3,8,DRAIN1*
G04 #@! TO.N,/FUELRELAY_OUT*
G04 #@! TA.AperFunction,SMDPad,CuDef*
G36*
G01*
X28320000Y80990000D02*
X27870000Y80990000D01*
G75*
G02*
X27795000Y81065000I0J75000D01*
G01*
X27795000Y82885000D01*
G75*
G02*
X27870000Y82960000I75000J0D01*
G01*
X28320000Y82960000D01*
G75*
G02*
X28395000Y82885000I0J-75000D01*
G01*
X28395000Y81065000D01*
G75*
G02*
X28320000Y80990000I-75000J0D01*
G01*
G37*
G04 #@! TD.AperFunction*
G04 #@! TD*
G04 #@! TO.P,D1,1,K*
G04 #@! TO.N,+12V_RAW*
G04 #@! TA.AperFunction,SMDPad,CuDef*
G36*
G01*
X-64420000Y55520000D02*
X-64420000Y56270000D01*
G75*
G02*
X-64195000Y56495000I225000J0D01*
G01*
X-63745000Y56495000D01*
G75*
G02*
X-63520000Y56270000I0J-225000D01*
G01*
X-63520000Y55520000D01*
G75*
G02*
X-63745000Y55295000I-225000J0D01*
G01*
X-64195000Y55295000D01*
G75*
G02*
X-64420000Y55520000I0J225000D01*
G01*
G37*
G04 #@! TD.AperFunction*
G04 #@! TO.P,D1,2,A*
G04 #@! TO.N,/FANRELAY_OUT*
G04 #@! TA.AperFunction,SMDPad,CuDef*
G36*
G01*
X-61120000Y55520000D02*
X-61120000Y56270000D01*
G75*
G02*
X-60895000Y56495000I225000J0D01*
G01*
X-60445000Y56495000D01*
G75*
G02*
X-60220000Y56270000I0J-225000D01*
G01*
X-60220000Y55520000D01*
G75*
G02*
X-60445000Y55295000I-225000J0D01*
G01*
X-60895000Y55295000D01*
G75*
G02*
X-61120000Y55520000I0J225000D01*
G01*
G37*
G04 #@! TD.AperFunction*
G04 #@! TD*
D41*
G04 #@! TO.P,M4,E1,VBAT*
G04 #@! TO.N,/VBAT*
X25749998Y24500000D03*
G04 #@! TO.P,M4,E2,V12*
G04 #@! TO.N,unconnected-(M4-V12-PadE2)*
X25749998Y18100003D03*
G04 #@! TO.P,M4,E3,VIGN*
G04 #@! TO.N,/VIGN*
X25749998Y16200000D03*
G04 #@! TO.P,M4,E4,V5*
G04 #@! TO.N,+5V*
X25749998Y11900000D03*
D10*
G04 #@! TO.P,M4,E5,EN_5VP*
G04 #@! TO.N,/PWR_EN*
X26199997Y9500003D03*
G04 #@! TO.P,M4,E6,PG_5VP*
G04 #@! TO.N,Net-(M4-PG_5VP)*
X26199997Y8500002D03*
D42*
G04 #@! TO.P,M4,S1,GND*
G04 #@! TO.N,GND*
X9600002Y20650000D03*
D43*
X9600002Y12150002D03*
D44*
X9600002Y5050000D03*
D45*
X18000000Y5000000D03*
D46*
X18800001Y25600000D03*
D41*
X25749998Y5650000D03*
D44*
X26399999Y25550000D03*
D47*
X26399999Y21350002D03*
D48*
X26399999Y14000000D03*
D49*
X26399999Y10500003D03*
D50*
X26399999Y7200002D03*
D41*
G04 #@! TO.P,M4,V1,V12_PERM*
G04 #@! TO.N,+12V_PERM*
X10250001Y24950002D03*
G04 #@! TO.P,M4,V2,IN_VIGN*
G04 #@! TO.N,+12V_RAW*
X10250001Y23100003D03*
G04 #@! TO.P,M4,V3,V12_RAW*
X10250001Y18150000D03*
G04 #@! TO.P,M4,V4,5VP*
G04 #@! TO.N,+5VP*
X10250001Y6100002D03*
G04 #@! TD*
G04 #@! TO.P,R5,1*
G04 #@! TO.N,/FUELRELAY_IN*
G04 #@! TA.AperFunction,SMDPad,CuDef*
G36*
G01*
X-32925000Y48430000D02*
X-32925000Y48800000D01*
G75*
G02*
X-32790000Y48935000I135000J0D01*
G01*
X-32520000Y48935000D01*
G75*
G02*
X-32385000Y48800000I0J-135000D01*
G01*
X-32385000Y48430000D01*
G75*
G02*
X-32520000Y48295000I-135000J0D01*
G01*
X-32790000Y48295000D01*
G75*
G02*
X-32925000Y48430000I0J135000D01*
G01*
G37*
G04 #@! TD.AperFunction*
G04 #@! TO.P,R5,2*
G04 #@! TO.N,GND*
G04 #@! TA.AperFunction,SMDPad,CuDef*
G36*
G01*
X-31905000Y48430000D02*
X-31905000Y48800000D01*
G75*
G02*
X-31770000Y48935000I135000J0D01*
G01*
X-31500000Y48935000D01*
G75*
G02*
X-31365000Y48800000I0J-135000D01*
G01*
X-31365000Y48430000D01*
G75*
G02*
X-31500000Y48295000I-135000J0D01*
G01*
X-31770000Y48295000D01*
G75*
G02*
X-31905000Y48430000I0J135000D01*
G01*
G37*
G04 #@! TD.AperFunction*
G04 #@! TD*
G04 #@! TO.P,D5,1,K*
G04 #@! TO.N,/VBAT*
G04 #@! TA.AperFunction,SMDPad,CuDef*
G36*
G01*
X-27890000Y46032500D02*
X-27890000Y46257500D01*
G75*
G02*
X-27777500Y46370000I112500J0D01*
G01*
X-27402500Y46370000D01*
G75*
G02*
X-27290000Y46257500I0J-112500D01*
G01*
X-27290000Y46032500D01*
G75*
G02*
X-27402500Y45920000I-112500J0D01*
G01*
X-27777500Y45920000D01*
G75*
G02*
X-27890000Y46032500I0J112500D01*
G01*
G37*
G04 #@! TD.AperFunction*
G04 #@! TO.P,D5,2,A*
G04 #@! TO.N,Net-(BT1-+)*
G04 #@! TA.AperFunction,SMDPad,CuDef*
G36*
G01*
X-25790000Y46032500D02*
X-25790000Y46257500D01*
G75*
G02*
X-25677500Y46370000I112500J0D01*
G01*
X-25302500Y46370000D01*
G75*
G02*
X-25190000Y46257500I0J-112500D01*
G01*
X-25190000Y46032500D01*
G75*
G02*
X-25302500Y45920000I-112500J0D01*
G01*
X-25677500Y45920000D01*
G75*
G02*
X-25790000Y46032500I0J112500D01*
G01*
G37*
G04 #@! TD.AperFunction*
G04 #@! TD*
G04 #@! TO.P,U5,1,IN1*
G04 #@! TO.N,/LS1_IN*
G04 #@! TA.AperFunction,SMDPad,CuDef*
G36*
G01*
X1635000Y44065000D02*
X1185000Y44065000D01*
G75*
G02*
X1110000Y44140000I0J75000D01*
G01*
X1110000Y45960000D01*
G75*
G02*
X1185000Y46035000I75000J0D01*
G01*
X1635000Y46035000D01*
G75*
G02*
X1710000Y45960000I0J-75000D01*
G01*
X1710000Y44140000D01*
G75*
G02*
X1635000Y44065000I-75000J0D01*
G01*
G37*
G04 #@! TD.AperFunction*
G04 #@! TO.P,U5,2,S1*
G04 #@! TO.N,unconnected-(U5-S1-Pad2)*
G04 #@! TA.AperFunction,SMDPad,CuDef*
G36*
G01*
X2905000Y44065000D02*
X2455000Y44065000D01*
G75*
G02*
X2380000Y44140000I0J75000D01*
G01*
X2380000Y45960000D01*
G75*
G02*
X2455000Y46035000I75000J0D01*
G01*
X2905000Y46035000D01*
G75*
G02*
X2980000Y45960000I0J-75000D01*
G01*
X2980000Y44140000D01*
G75*
G02*
X2905000Y44065000I-75000J0D01*
G01*
G37*
G04 #@! TD.AperFunction*
G04 #@! TO.P,U5,3,IN2*
G04 #@! TO.N,/LS2_IN*
G04 #@! TA.AperFunction,SMDPad,CuDef*
G36*
G01*
X4175000Y44065000D02*
X3725000Y44065000D01*
G75*
G02*
X3650000Y44140000I0J75000D01*
G01*
X3650000Y45960000D01*
G75*
G02*
X3725000Y46035000I75000J0D01*
G01*
X4175000Y46035000D01*
G75*
G02*
X4250000Y45960000I0J-75000D01*
G01*
X4250000Y44140000D01*
G75*
G02*
X4175000Y44065000I-75000J0D01*
G01*
G37*
G04 #@! TD.AperFunction*
G04 #@! TO.P,U5,4,S2*
G04 #@! TO.N,unconnected-(U5-S2-Pad4)*
G04 #@! TA.AperFunction,SMDPad,CuDef*
G36*
G01*
X5445000Y44065000D02*
X4995000Y44065000D01*
G75*
G02*
X4920000Y44140000I0J75000D01*
G01*
X4920000Y45960000D01*
G75*
G02*
X4995000Y46035000I75000J0D01*
G01*
X5445000Y46035000D01*
G75*
G02*
X5520000Y45960000I0J-75000D01*
G01*
X5520000Y44140000D01*
G75*
G02*
X5445000Y44065000I-75000J0D01*
G01*
G37*
G04 #@! TD.AperFunction*
G04 #@! TO.P,U5,5,SOURCE2*
G04 #@! TO.N,GND*
G04 #@! TA.AperFunction,SMDPad,CuDef*
G36*
G01*
X5445000Y49015000D02*
X4995000Y49015000D01*
G75*
G02*
X4920000Y49090000I0J75000D01*
G01*
X4920000Y50910000D01*
G75*
G02*
X4995000Y50985000I75000J0D01*
G01*
X5445000Y50985000D01*
G75*
G02*
X5520000Y50910000I0J-75000D01*
G01*
X5520000Y49090000D01*
G75*
G02*
X5445000Y49015000I-75000J0D01*
G01*
G37*
G04 #@! TD.AperFunction*
G04 #@! TO.P,U5,6,DRAIN2*
G04 #@! TO.N,/LS2_OUT*
G04 #@! TA.AperFunction,SMDPad,CuDef*
G36*
G01*
X4175000Y49015000D02*
X3725000Y49015000D01*
G75*
G02*
X3650000Y49090000I0J75000D01*
G01*
X3650000Y50910000D01*
G75*
G02*
X3725000Y50985000I75000J0D01*
G01*
X4175000Y50985000D01*
G75*
G02*
X4250000Y50910000I0J-75000D01*
G01*
X4250000Y49090000D01*
G75*
G02*
X4175000Y49015000I-75000J0D01*
G01*
G37*
G04 #@! TD.AperFunction*
G04 #@! TO.P,U5,7,SOURCE1*
G04 #@! TO.N,GND*
G04 #@! TA.AperFunction,SMDPad,CuDef*
G36*
G01*
X2905000Y49015000D02*
X2455000Y49015000D01*
G75*
G02*
X2380000Y49090000I0J75000D01*
G01*
X2380000Y50910000D01*
G75*
G02*
X2455000Y50985000I75000J0D01*
G01*
X2905000Y50985000D01*
G75*
G02*
X2980000Y50910000I0J-75000D01*
G01*
X2980000Y49090000D01*
G75*
G02*
X2905000Y49015000I-75000J0D01*
G01*
G37*
G04 #@! TD.AperFunction*
G04 #@! TO.P,U5,8,DRAIN1*
G04 #@! TO.N,/LS1_OUT*
G04 #@! TA.AperFunction,SMDPad,CuDef*
G36*
G01*
X1635000Y49015000D02*
X1185000Y49015000D01*
G75*
G02*
X1110000Y49090000I0J75000D01*
G01*
X1110000Y50910000D01*
G75*
G02*
X1185000Y50985000I75000J0D01*
G01*
X1635000Y50985000D01*
G75*
G02*
X1710000Y50910000I0J-75000D01*
G01*
X1710000Y49090000D01*
G75*
G02*
X1635000Y49015000I-75000J0D01*
G01*
G37*
G04 #@! TD.AperFunction*
G04 #@! TD*
G04 #@! TO.P,D6,1,K*
G04 #@! TO.N,+12V_RAW*
G04 #@! TA.AperFunction,SMDPad,CuDef*
G36*
G01*
X-64420000Y42120000D02*
X-64420000Y42870000D01*
G75*
G02*
X-64195000Y43095000I225000J0D01*
G01*
X-63745000Y43095000D01*
G75*
G02*
X-63520000Y42870000I0J-225000D01*
G01*
X-63520000Y42120000D01*
G75*
G02*
X-63745000Y41895000I-225000J0D01*
G01*
X-64195000Y41895000D01*
G75*
G02*
X-64420000Y42120000I0J225000D01*
G01*
G37*
G04 #@! TD.AperFunction*
G04 #@! TO.P,D6,2,A*
G04 #@! TO.N,/LS2_OUT*
G04 #@! TA.AperFunction,SMDPad,CuDef*
G36*
G01*
X-61120000Y42120000D02*
X-61120000Y42870000D01*
G75*
G02*
X-60895000Y43095000I225000J0D01*
G01*
X-60445000Y43095000D01*
G75*
G02*
X-60220000Y42870000I0J-225000D01*
G01*
X-60220000Y42120000D01*
G75*
G02*
X-60445000Y41895000I-225000J0D01*
G01*
X-60895000Y41895000D01*
G75*
G02*
X-61120000Y42120000I0J225000D01*
G01*
G37*
G04 #@! TD.AperFunction*
G04 #@! TD*
G04 #@! TO.P,R1,1*
G04 #@! TO.N,/INJ1_IN*
G04 #@! TA.AperFunction,SMDPad,CuDef*
G36*
G01*
X-32925000Y56390000D02*
X-32925000Y56760000D01*
G75*
G02*
X-32790000Y56895000I135000J0D01*
G01*
X-32520000Y56895000D01*
G75*
G02*
X-32385000Y56760000I0J-135000D01*
G01*
X-32385000Y56390000D01*
G75*
G02*
X-32520000Y56255000I-135000J0D01*
G01*
X-32790000Y56255000D01*
G75*
G02*
X-32925000Y56390000I0J135000D01*
G01*
G37*
G04 #@! TD.AperFunction*
G04 #@! TO.P,R1,2*
G04 #@! TO.N,GND*
G04 #@! TA.AperFunction,SMDPad,CuDef*
G36*
G01*
X-31905000Y56390000D02*
X-31905000Y56760000D01*
G75*
G02*
X-31770000Y56895000I135000J0D01*
G01*
X-31500000Y56895000D01*
G75*
G02*
X-31365000Y56760000I0J-135000D01*
G01*
X-31365000Y56390000D01*
G75*
G02*
X-31500000Y56255000I-135000J0D01*
G01*
X-31770000Y56255000D01*
G75*
G02*
X-31905000Y56390000I0J135000D01*
G01*
G37*
G04 #@! TD.AperFunction*
G04 #@! TD*
G04 #@! TO.P,R3,1*
G04 #@! TO.N,/INJ4_IN*
G04 #@! TA.AperFunction,SMDPad,CuDef*
G36*
G01*
X-32925000Y52410000D02*
X-32925000Y52780000D01*
G75*
G02*
X-32790000Y52915000I135000J0D01*
G01*
X-32520000Y52915000D01*
G75*
G02*
X-32385000Y52780000I0J-135000D01*
G01*
X-32385000Y52410000D01*
G75*
G02*
X-32520000Y52275000I-135000J0D01*
G01*
X-32790000Y52275000D01*
G75*
G02*
X-32925000Y52410000I0J135000D01*
G01*
G37*
G04 #@! TD.AperFunction*
G04 #@! TO.P,R3,2*
G04 #@! TO.N,GND*
G04 #@! TA.AperFunction,SMDPad,CuDef*
G36*
G01*
X-31905000Y52410000D02*
X-31905000Y52780000D01*
G75*
G02*
X-31770000Y52915000I135000J0D01*
G01*
X-31500000Y52915000D01*
G75*
G02*
X-31365000Y52780000I0J-135000D01*
G01*
X-31365000Y52410000D01*
G75*
G02*
X-31500000Y52275000I-135000J0D01*
G01*
X-31770000Y52275000D01*
G75*
G02*
X-31905000Y52410000I0J135000D01*
G01*
G37*
G04 #@! TD.AperFunction*
G04 #@! TD*
G04 #@! TO.P,R10,1*
G04 #@! TO.N,Net-(Q2-G)*
G04 #@! TA.AperFunction,SMDPad,CuDef*
G36*
G01*
X-30015000Y48430000D02*
X-30015000Y48800000D01*
G75*
G02*
X-29880000Y48935000I135000J0D01*
G01*
X-29610000Y48935000D01*
G75*
G02*
X-29475000Y48800000I0J-135000D01*
G01*
X-29475000Y48430000D01*
G75*
G02*
X-29610000Y48295000I-135000J0D01*
G01*
X-29880000Y48295000D01*
G75*
G02*
X-30015000Y48430000I0J135000D01*
G01*
G37*
G04 #@! TD.AperFunction*
G04 #@! TO.P,R10,2*
G04 #@! TO.N,/CHECKENGINE_IN*
G04 #@! TA.AperFunction,SMDPad,CuDef*
G36*
G01*
X-28995000Y48430000D02*
X-28995000Y48800000D01*
G75*
G02*
X-28860000Y48935000I135000J0D01*
G01*
X-28590000Y48935000D01*
G75*
G02*
X-28455000Y48800000I0J-135000D01*
G01*
X-28455000Y48430000D01*
G75*
G02*
X-28590000Y48295000I-135000J0D01*
G01*
X-28860000Y48295000D01*
G75*
G02*
X-28995000Y48430000I0J135000D01*
G01*
G37*
G04 #@! TD.AperFunction*
G04 #@! TD*
G04 #@! TO.P,U6,1,IN1*
G04 #@! TO.N,/LS3_IN*
G04 #@! TA.AperFunction,SMDPad,CuDef*
G36*
G01*
X8185000Y44065000D02*
X7735000Y44065000D01*
G75*
G02*
X7660000Y44140000I0J75000D01*
G01*
X7660000Y45960000D01*
G75*
G02*
X7735000Y46035000I75000J0D01*
G01*
X8185000Y46035000D01*
G75*
G02*
X8260000Y45960000I0J-75000D01*
G01*
X8260000Y44140000D01*
G75*
G02*
X8185000Y44065000I-75000J0D01*
G01*
G37*
G04 #@! TD.AperFunction*
G04 #@! TO.P,U6,2,S1*
G04 #@! TO.N,unconnected-(U6-S1-Pad2)*
G04 #@! TA.AperFunction,SMDPad,CuDef*
G36*
G01*
X9455000Y44065000D02*
X9005000Y44065000D01*
G75*
G02*
X8930000Y44140000I0J75000D01*
G01*
X8930000Y45960000D01*
G75*
G02*
X9005000Y46035000I75000J0D01*
G01*
X9455000Y46035000D01*
G75*
G02*
X9530000Y45960000I0J-75000D01*
G01*
X9530000Y44140000D01*
G75*
G02*
X9455000Y44065000I-75000J0D01*
G01*
G37*
G04 #@! TD.AperFunction*
G04 #@! TO.P,U6,3,IN2*
G04 #@! TO.N,/LS4_IN*
G04 #@! TA.AperFunction,SMDPad,CuDef*
G36*
G01*
X10725000Y44065000D02*
X10275000Y44065000D01*
G75*
G02*
X10200000Y44140000I0J75000D01*
G01*
X10200000Y45960000D01*
G75*
G02*
X10275000Y46035000I75000J0D01*
G01*
X10725000Y46035000D01*
G75*
G02*
X10800000Y45960000I0J-75000D01*
G01*
X10800000Y44140000D01*
G75*
G02*
X10725000Y44065000I-75000J0D01*
G01*
G37*
G04 #@! TD.AperFunction*
G04 #@! TO.P,U6,4,S2*
G04 #@! TO.N,unconnected-(U6-S2-Pad4)*
G04 #@! TA.AperFunction,SMDPad,CuDef*
G36*
G01*
X11995000Y44065000D02*
X11545000Y44065000D01*
G75*
G02*
X11470000Y44140000I0J75000D01*
G01*
X11470000Y45960000D01*
G75*
G02*
X11545000Y46035000I75000J0D01*
G01*
X11995000Y46035000D01*
G75*
G02*
X12070000Y45960000I0J-75000D01*
G01*
X12070000Y44140000D01*
G75*
G02*
X11995000Y44065000I-75000J0D01*
G01*
G37*
G04 #@! TD.AperFunction*
G04 #@! TO.P,U6,5,SOURCE2*
G04 #@! TO.N,GND*
G04 #@! TA.AperFunction,SMDPad,CuDef*
G36*
G01*
X11995000Y49015000D02*
X11545000Y49015000D01*
G75*
G02*
X11470000Y49090000I0J75000D01*
G01*
X11470000Y50910000D01*
G75*
G02*
X11545000Y50985000I75000J0D01*
G01*
X11995000Y50985000D01*
G75*
G02*
X12070000Y50910000I0J-75000D01*
G01*
X12070000Y49090000D01*
G75*
G02*
X11995000Y49015000I-75000J0D01*
G01*
G37*
G04 #@! TD.AperFunction*
G04 #@! TO.P,U6,6,DRAIN2*
G04 #@! TO.N,/LS4_OUT*
G04 #@! TA.AperFunction,SMDPad,CuDef*
G36*
G01*
X10725000Y49015000D02*
X10275000Y49015000D01*
G75*
G02*
X10200000Y49090000I0J75000D01*
G01*
X10200000Y50910000D01*
G75*
G02*
X10275000Y50985000I75000J0D01*
G01*
X10725000Y50985000D01*
G75*
G02*
X10800000Y50910000I0J-75000D01*
G01*
X10800000Y49090000D01*
G75*
G02*
X10725000Y49015000I-75000J0D01*
G01*
G37*
G04 #@! TD.AperFunction*
G04 #@! TO.P,U6,7,SOURCE1*
G04 #@! TO.N,GND*
G04 #@! TA.AperFunction,SMDPad,CuDef*
G36*
G01*
X9455000Y49015000D02*
X9005000Y49015000D01*
G75*
G02*
X8930000Y49090000I0J75000D01*
G01*
X8930000Y50910000D01*
G75*
G02*
X9005000Y50985000I75000J0D01*
G01*
X9455000Y50985000D01*
G75*
G02*
X9530000Y50910000I0J-75000D01*
G01*
X9530000Y49090000D01*
G75*
G02*
X9455000Y49015000I-75000J0D01*
G01*
G37*
G04 #@! TD.AperFunction*
G04 #@! TO.P,U6,8,DRAIN1*
G04 #@! TO.N,/LS3_OUT*
G04 #@! TA.AperFunction,SMDPad,CuDef*
G36*
G01*
X8185000Y49015000D02*
X7735000Y49015000D01*
G75*
G02*
X7660000Y49090000I0J75000D01*
G01*
X7660000Y50910000D01*
G75*
G02*
X7735000Y50985000I75000J0D01*
G01*
X8185000Y50985000D01*
G75*
G02*
X8260000Y50910000I0J-75000D01*
G01*
X8260000Y49090000D01*
G75*
G02*
X8185000Y49015000I-75000J0D01*
G01*
G37*
G04 #@! TD.AperFunction*
G04 #@! TD*
G04 #@! TO.P,R7,1*
G04 #@! TO.N,/IACOPEN_IN*
G04 #@! TA.AperFunction,SMDPad,CuDef*
G36*
G01*
X-30015000Y54400000D02*
X-30015000Y54770000D01*
G75*
G02*
X-29880000Y54905000I135000J0D01*
G01*
X-29610000Y54905000D01*
G75*
G02*
X-29475000Y54770000I0J-135000D01*
G01*
X-29475000Y54400000D01*
G75*
G02*
X-29610000Y54265000I-135000J0D01*
G01*
X-29880000Y54265000D01*
G75*
G02*
X-30015000Y54400000I0J135000D01*
G01*
G37*
G04 #@! TD.AperFunction*
G04 #@! TO.P,R7,2*
G04 #@! TO.N,GND*
G04 #@! TA.AperFunction,SMDPad,CuDef*
G36*
G01*
X-28995000Y54400000D02*
X-28995000Y54770000D01*
G75*
G02*
X-28860000Y54905000I135000J0D01*
G01*
X-28590000Y54905000D01*
G75*
G02*
X-28455000Y54770000I0J-135000D01*
G01*
X-28455000Y54400000D01*
G75*
G02*
X-28590000Y54265000I-135000J0D01*
G01*
X-28860000Y54265000D01*
G75*
G02*
X-28995000Y54400000I0J135000D01*
G01*
G37*
G04 #@! TD.AperFunction*
G04 #@! TD*
G04 #@! TO.P,U2,1,IN1*
G04 #@! TO.N,/INJ3_IN*
G04 #@! TA.AperFunction,SMDPad,CuDef*
G36*
G01*
X-9015000Y60175000D02*
X-9015000Y59725000D01*
G75*
G02*
X-9090000Y59650000I-75000J0D01*
G01*
X-10910000Y59650000D01*
G75*
G02*
X-10985000Y59725000I0J75000D01*
G01*
X-10985000Y60175000D01*
G75*
G02*
X-10910000Y60250000I75000J0D01*
G01*
X-9090000Y60250000D01*
G75*
G02*
X-9015000Y60175000I0J-75000D01*
G01*
G37*
G04 #@! TD.AperFunction*
G04 #@! TO.P,U2,2,S1*
G04 #@! TO.N,unconnected-(U2-S1-Pad2)*
G04 #@! TA.AperFunction,SMDPad,CuDef*
G36*
G01*
X-9015000Y61445000D02*
X-9015000Y60995000D01*
G75*
G02*
X-9090000Y60920000I-75000J0D01*
G01*
X-10910000Y60920000D01*
G75*
G02*
X-10985000Y60995000I0J75000D01*
G01*
X-10985000Y61445000D01*
G75*
G02*
X-10910000Y61520000I75000J0D01*
G01*
X-9090000Y61520000D01*
G75*
G02*
X-9015000Y61445000I0J-75000D01*
G01*
G37*
G04 #@! TD.AperFunction*
G04 #@! TO.P,U2,3,IN2*
G04 #@! TO.N,/INJ4_IN*
G04 #@! TA.AperFunction,SMDPad,CuDef*
G36*
G01*
X-9015000Y62715000D02*
X-9015000Y62265000D01*
G75*
G02*
X-9090000Y62190000I-75000J0D01*
G01*
X-10910000Y62190000D01*
G75*
G02*
X-10985000Y62265000I0J75000D01*
G01*
X-10985000Y62715000D01*
G75*
G02*
X-10910000Y62790000I75000J0D01*
G01*
X-9090000Y62790000D01*
G75*
G02*
X-9015000Y62715000I0J-75000D01*
G01*
G37*
G04 #@! TD.AperFunction*
G04 #@! TO.P,U2,4,S2*
G04 #@! TO.N,unconnected-(U2-S2-Pad4)*
G04 #@! TA.AperFunction,SMDPad,CuDef*
G36*
G01*
X-9015000Y63985000D02*
X-9015000Y63535000D01*
G75*
G02*
X-9090000Y63460000I-75000J0D01*
G01*
X-10910000Y63460000D01*
G75*
G02*
X-10985000Y63535000I0J75000D01*
G01*
X-10985000Y63985000D01*
G75*
G02*
X-10910000Y64060000I75000J0D01*
G01*
X-9090000Y64060000D01*
G75*
G02*
X-9015000Y63985000I0J-75000D01*
G01*
G37*
G04 #@! TD.AperFunction*
G04 #@! TO.P,U2,5,SOURCE2*
G04 #@! TO.N,GND*
G04 #@! TA.AperFunction,SMDPad,CuDef*
G36*
G01*
X-13965000Y63985000D02*
X-13965000Y63535000D01*
G75*
G02*
X-14040000Y63460000I-75000J0D01*
G01*
X-15860000Y63460000D01*
G75*
G02*
X-15935000Y63535000I0J75000D01*
G01*
X-15935000Y63985000D01*
G75*
G02*
X-15860000Y64060000I75000J0D01*
G01*
X-14040000Y64060000D01*
G75*
G02*
X-13965000Y63985000I0J-75000D01*
G01*
G37*
G04 #@! TD.AperFunction*
G04 #@! TO.P,U2,6,DRAIN2*
G04 #@! TO.N,/INJ4_OUT*
G04 #@! TA.AperFunction,SMDPad,CuDef*
G36*
G01*
X-13965000Y62715000D02*
X-13965000Y62265000D01*
G75*
G02*
X-14040000Y62190000I-75000J0D01*
G01*
X-15860000Y62190000D01*
G75*
G02*
X-15935000Y62265000I0J75000D01*
G01*
X-15935000Y62715000D01*
G75*
G02*
X-15860000Y62790000I75000J0D01*
G01*
X-14040000Y62790000D01*
G75*
G02*
X-13965000Y62715000I0J-75000D01*
G01*
G37*
G04 #@! TD.AperFunction*
G04 #@! TO.P,U2,7,SOURCE1*
G04 #@! TO.N,GND*
G04 #@! TA.AperFunction,SMDPad,CuDef*
G36*
G01*
X-13965000Y61445000D02*
X-13965000Y60995000D01*
G75*
G02*
X-14040000Y60920000I-75000J0D01*
G01*
X-15860000Y60920000D01*
G75*
G02*
X-15935000Y60995000I0J75000D01*
G01*
X-15935000Y61445000D01*
G75*
G02*
X-15860000Y61520000I75000J0D01*
G01*
X-14040000Y61520000D01*
G75*
G02*
X-13965000Y61445000I0J-75000D01*
G01*
G37*
G04 #@! TD.AperFunction*
G04 #@! TO.P,U2,8,DRAIN1*
G04 #@! TO.N,/INJ3_OUT*
G04 #@! TA.AperFunction,SMDPad,CuDef*
G36*
G01*
X-13965000Y60175000D02*
X-13965000Y59725000D01*
G75*
G02*
X-14040000Y59650000I-75000J0D01*
G01*
X-15860000Y59650000D01*
G75*
G02*
X-15935000Y59725000I0J75000D01*
G01*
X-15935000Y60175000D01*
G75*
G02*
X-15860000Y60250000I75000J0D01*
G01*
X-14040000Y60250000D01*
G75*
G02*
X-13965000Y60175000I0J-75000D01*
G01*
G37*
G04 #@! TD.AperFunction*
G04 #@! TD*
G04 #@! TO.P,D4,1,K*
G04 #@! TO.N,+12V_RAW*
G04 #@! TA.AperFunction,SMDPad,CuDef*
G36*
G01*
X-64420000Y45470000D02*
X-64420000Y46220000D01*
G75*
G02*
X-64195000Y46445000I225000J0D01*
G01*
X-63745000Y46445000D01*
G75*
G02*
X-63520000Y46220000I0J-225000D01*
G01*
X-63520000Y45470000D01*
G75*
G02*
X-63745000Y45245000I-225000J0D01*
G01*
X-64195000Y45245000D01*
G75*
G02*
X-64420000Y45470000I0J225000D01*
G01*
G37*
G04 #@! TD.AperFunction*
G04 #@! TO.P,D4,2,A*
G04 #@! TO.N,/IACOPEN_OUT*
G04 #@! TA.AperFunction,SMDPad,CuDef*
G36*
G01*
X-61120000Y45470000D02*
X-61120000Y46220000D01*
G75*
G02*
X-60895000Y46445000I225000J0D01*
G01*
X-60445000Y46445000D01*
G75*
G02*
X-60220000Y46220000I0J-225000D01*
G01*
X-60220000Y45470000D01*
G75*
G02*
X-60445000Y45245000I-225000J0D01*
G01*
X-60895000Y45245000D01*
G75*
G02*
X-61120000Y45470000I0J225000D01*
G01*
G37*
G04 #@! TD.AperFunction*
G04 #@! TD*
G04 #@! TO.P,D8,1,K*
G04 #@! TO.N,+12V_RAW*
G04 #@! TA.AperFunction,SMDPad,CuDef*
G36*
G01*
X-64420000Y35420000D02*
X-64420000Y36170000D01*
G75*
G02*
X-64195000Y36395000I225000J0D01*
G01*
X-63745000Y36395000D01*
G75*
G02*
X-63520000Y36170000I0J-225000D01*
G01*
X-63520000Y35420000D01*
G75*
G02*
X-63745000Y35195000I-225000J0D01*
G01*
X-64195000Y35195000D01*
G75*
G02*
X-64420000Y35420000I0J225000D01*
G01*
G37*
G04 #@! TD.AperFunction*
G04 #@! TO.P,D8,2,A*
G04 #@! TO.N,/LS4_OUT*
G04 #@! TA.AperFunction,SMDPad,CuDef*
G36*
G01*
X-61120000Y35420000D02*
X-61120000Y36170000D01*
G75*
G02*
X-60895000Y36395000I225000J0D01*
G01*
X-60445000Y36395000D01*
G75*
G02*
X-60220000Y36170000I0J-225000D01*
G01*
X-60220000Y35420000D01*
G75*
G02*
X-60445000Y35195000I-225000J0D01*
G01*
X-60895000Y35195000D01*
G75*
G02*
X-61120000Y35420000I0J225000D01*
G01*
G37*
G04 #@! TD.AperFunction*
G04 #@! TD*
M02*
