G04 #@! TF.GenerationSoftware,KiCad,Pcbnew,8.0.9-8.0.9-0~ubuntu24.04.1*
G04 #@! TF.CreationDate,2025-06-16T01:12:59+00:00*
G04 #@! TF.ProjectId,EP91Starlet,45503931-5374-4617-926c-65742e6b6963,rev?*
G04 #@! TF.SameCoordinates,Original*
G04 #@! TF.FileFunction,Copper,L1,Top*
G04 #@! TF.FilePolarity,Positive*
%FSLAX46Y46*%
G04 Gerber Fmt 4.6, Leading zero omitted, Abs format (unit mm)*
G04 Created by KiCad (PCBNEW 8.0.9-8.0.9-0~ubuntu24.04.1) date 2025-06-16 01:12:59*
%MOMM*%
%LPD*%
G01*
G04 APERTURE LIST*
G04 #@! TA.AperFunction,ComponentPad*
%ADD10C,0.600000*%
G04 #@! TD*
G04 #@! TA.AperFunction,SMDPad,CuDef*
%ADD11O,0.200000X1.225000*%
G04 #@! TD*
G04 #@! TA.AperFunction,SMDPad,CuDef*
%ADD12O,9.300000X0.200000*%
G04 #@! TD*
G04 #@! TA.AperFunction,ComponentPad*
%ADD13O,1.800000X2.000000*%
G04 #@! TD*
G04 #@! TA.AperFunction,SMDPad,CuDef*
%ADD14R,0.200000X2.300000*%
G04 #@! TD*
G04 #@! TA.AperFunction,SMDPad,CuDef*
%ADD15R,0.200000X5.400000*%
G04 #@! TD*
G04 #@! TA.AperFunction,SMDPad,CuDef*
%ADD16R,0.200000X8.600000*%
G04 #@! TD*
G04 #@! TA.AperFunction,SMDPad,CuDef*
%ADD17R,0.200000X5.000000*%
G04 #@! TD*
G04 #@! TA.AperFunction,SMDPad,CuDef*
%ADD18R,1.400000X0.200000*%
G04 #@! TD*
G04 #@! TA.AperFunction,SMDPad,CuDef*
%ADD19R,5.000000X0.200000*%
G04 #@! TD*
G04 #@! TA.AperFunction,SMDPad,CuDef*
%ADD20R,6.800000X0.200000*%
G04 #@! TD*
G04 #@! TA.AperFunction,SMDPad,CuDef*
%ADD21R,4.500000X0.200000*%
G04 #@! TD*
G04 #@! TA.AperFunction,SMDPad,CuDef*
%ADD22R,0.200000X1.600000*%
G04 #@! TD*
G04 #@! TA.AperFunction,SMDPad,CuDef*
%ADD23R,0.200000X5.700000*%
G04 #@! TD*
G04 #@! TA.AperFunction,SMDPad,CuDef*
%ADD24R,0.200000X2.000000*%
G04 #@! TD*
G04 #@! TA.AperFunction,ComponentPad*
%ADD25C,1.500000*%
G04 #@! TD*
G04 #@! TA.AperFunction,SMDPad,CuDef*
%ADD26O,3.300000X0.200000*%
G04 #@! TD*
G04 #@! TA.AperFunction,SMDPad,CuDef*
%ADD27O,10.200000X0.200000*%
G04 #@! TD*
G04 #@! TA.AperFunction,SMDPad,CuDef*
%ADD28O,0.300000X0.200000*%
G04 #@! TD*
G04 #@! TA.AperFunction,SMDPad,CuDef*
%ADD29O,0.200000X17.000000*%
G04 #@! TD*
G04 #@! TA.AperFunction,SMDPad,CuDef*
%ADD30O,0.200000X15.400000*%
G04 #@! TD*
G04 #@! TA.AperFunction,SMDPad,CuDef*
%ADD31O,4.800000X0.200000*%
G04 #@! TD*
G04 #@! TA.AperFunction,SMDPad,CuDef*
%ADD32O,2.600000X0.200000*%
G04 #@! TD*
G04 #@! TA.AperFunction,SMDPad,CuDef*
%ADD33O,1.000000X0.200000*%
G04 #@! TD*
G04 #@! TA.AperFunction,SMDPad,CuDef*
%ADD34O,1.500000X0.200000*%
G04 #@! TD*
G04 #@! TA.AperFunction,ComponentPad*
%ADD35C,0.700000*%
G04 #@! TD*
G04 #@! TA.AperFunction,SMDPad,CuDef*
%ADD36C,3.000000*%
G04 #@! TD*
G04 #@! TA.AperFunction,SMDPad,CuDef*
%ADD37R,0.250000X3.000000*%
G04 #@! TD*
G04 #@! TA.AperFunction,SMDPad,CuDef*
%ADD38R,0.250000X1.100000*%
G04 #@! TD*
G04 #@! TA.AperFunction,SMDPad,CuDef*
%ADD39R,0.250000X0.980000*%
G04 #@! TD*
G04 #@! TA.AperFunction,SMDPad,CuDef*
%ADD40R,0.250000X1.450000*%
G04 #@! TD*
G04 #@! TA.AperFunction,SMDPad,CuDef*
%ADD41R,27.600000X0.250000*%
G04 #@! TD*
G04 #@! TA.AperFunction,SMDPad,CuDef*
%ADD42R,0.250000X1.950000*%
G04 #@! TD*
G04 #@! TA.AperFunction,SMDPad,CuDef*
%ADD43R,0.250000X0.950000*%
G04 #@! TD*
G04 #@! TA.AperFunction,SMDPad,CuDef*
%ADD44R,0.250000X6.185000*%
G04 #@! TD*
G04 #@! TA.AperFunction,SMDPad,CuDef*
%ADD45R,0.250000X1.115000*%
G04 #@! TD*
G04 #@! TA.AperFunction,SMDPad,CuDef*
%ADD46R,14.275000X0.250000*%
G04 #@! TD*
G04 #@! TA.AperFunction,SMDPad,CuDef*
%ADD47R,15.100000X0.250000*%
G04 #@! TD*
G04 #@! TA.AperFunction,SMDPad,CuDef*
%ADD48R,0.250000X5.175000*%
G04 #@! TD*
G04 APERTURE END LIST*
G04 #@! TO.P,R13,1*
G04 #@! TO.N,Net-(Q3-G)*
G04 #@! TA.AperFunction,SMDPad,CuDef*
G36*
G01*
X92286000Y68326954D02*
X92286000Y69106954D01*
G75*
G02*
X92356000Y69176954I70000J0D01*
G01*
X92916000Y69176954D01*
G75*
G02*
X92986000Y69106954I0J-70000D01*
G01*
X92986000Y68326954D01*
G75*
G02*
X92916000Y68256954I-70000J0D01*
G01*
X92356000Y68256954D01*
G75*
G02*
X92286000Y68326954I0J70000D01*
G01*
G37*
G04 #@! TD.AperFunction*
G04 #@! TO.P,R13,2*
G04 #@! TO.N,Net-(F3-Pad1)*
G04 #@! TA.AperFunction,SMDPad,CuDef*
G36*
G01*
X93886000Y68326954D02*
X93886000Y69106954D01*
G75*
G02*
X93956000Y69176954I70000J0D01*
G01*
X94516000Y69176954D01*
G75*
G02*
X94586000Y69106954I0J-70000D01*
G01*
X94586000Y68326954D01*
G75*
G02*
X94516000Y68256954I-70000J0D01*
G01*
X93956000Y68256954D01*
G75*
G02*
X93886000Y68326954I0J70000D01*
G01*
G37*
G04 #@! TD.AperFunction*
G04 #@! TD*
G04 #@! TO.P,R11,1*
G04 #@! TO.N,Net-(F1-Pad1)*
G04 #@! TA.AperFunction,SMDPad,CuDef*
G36*
G01*
X88546000Y89281641D02*
X88546000Y92131641D01*
G75*
G02*
X88796000Y92381641I250000J0D01*
G01*
X89521000Y92381641D01*
G75*
G02*
X89771000Y92131641I0J-250000D01*
G01*
X89771000Y89281641D01*
G75*
G02*
X89521000Y89031641I-250000J0D01*
G01*
X88796000Y89031641D01*
G75*
G02*
X88546000Y89281641I0J250000D01*
G01*
G37*
G04 #@! TD.AperFunction*
G04 #@! TO.P,R11,2*
G04 #@! TO.N,/IGN4/OUT1*
G04 #@! TA.AperFunction,SMDPad,CuDef*
G36*
G01*
X94471000Y89281641D02*
X94471000Y92131641D01*
G75*
G02*
X94721000Y92381641I250000J0D01*
G01*
X95446000Y92381641D01*
G75*
G02*
X95696000Y92131641I0J-250000D01*
G01*
X95696000Y89281641D01*
G75*
G02*
X95446000Y89031641I-250000J0D01*
G01*
X94721000Y89031641D01*
G75*
G02*
X94471000Y89281641I0J250000D01*
G01*
G37*
G04 #@! TD.AperFunction*
G04 #@! TD*
G04 #@! TO.P,D1,1,K*
G04 #@! TO.N,+12V_RAW*
G04 #@! TA.AperFunction,SMDPad,CuDef*
G36*
G01*
X87046000Y34561641D02*
X87046000Y35581641D01*
G75*
G02*
X87136000Y35671641I90000J0D01*
G01*
X87856000Y35671641D01*
G75*
G02*
X87946000Y35581641I0J-90000D01*
G01*
X87946000Y34561641D01*
G75*
G02*
X87856000Y34471641I-90000J0D01*
G01*
X87136000Y34471641D01*
G75*
G02*
X87046000Y34561641I0J90000D01*
G01*
G37*
G04 #@! TD.AperFunction*
G04 #@! TO.P,D1,2,A*
G04 #@! TO.N,/LS_PROTECTED_2/OUT1*
G04 #@! TA.AperFunction,SMDPad,CuDef*
G36*
G01*
X90346000Y34561641D02*
X90346000Y35581641D01*
G75*
G02*
X90436000Y35671641I90000J0D01*
G01*
X91156000Y35671641D01*
G75*
G02*
X91246000Y35581641I0J-90000D01*
G01*
X91246000Y34561641D01*
G75*
G02*
X91156000Y34471641I-90000J0D01*
G01*
X90436000Y34471641D01*
G75*
G02*
X90346000Y34561641I0J90000D01*
G01*
G37*
G04 #@! TD.AperFunction*
G04 #@! TD*
G04 #@! TO.P,U5,1,IN1*
G04 #@! TO.N,/LS_PROTECTED_2/IN1*
G04 #@! TA.AperFunction,SMDPad,CuDef*
G36*
G01*
X76401000Y41611641D02*
X76401000Y41911641D01*
G75*
G02*
X76551000Y42061641I150000J0D01*
G01*
X78201000Y42061641D01*
G75*
G02*
X78351000Y41911641I0J-150000D01*
G01*
X78351000Y41611641D01*
G75*
G02*
X78201000Y41461641I-150000J0D01*
G01*
X76551000Y41461641D01*
G75*
G02*
X76401000Y41611641I0J150000D01*
G01*
G37*
G04 #@! TD.AperFunction*
G04 #@! TO.P,U5,2,STATUS1*
G04 #@! TO.N,unconnected-(U5-STATUS1-Pad2)*
G04 #@! TA.AperFunction,SMDPad,CuDef*
G36*
G01*
X76401000Y40341641D02*
X76401000Y40641641D01*
G75*
G02*
X76551000Y40791641I150000J0D01*
G01*
X78201000Y40791641D01*
G75*
G02*
X78351000Y40641641I0J-150000D01*
G01*
X78351000Y40341641D01*
G75*
G02*
X78201000Y40191641I-150000J0D01*
G01*
X76551000Y40191641D01*
G75*
G02*
X76401000Y40341641I0J150000D01*
G01*
G37*
G04 #@! TD.AperFunction*
G04 #@! TO.P,U5,3,IN2*
G04 #@! TO.N,/LS_PROTECTED_2/IN2*
G04 #@! TA.AperFunction,SMDPad,CuDef*
G36*
G01*
X76401000Y39071641D02*
X76401000Y39371641D01*
G75*
G02*
X76551000Y39521641I150000J0D01*
G01*
X78201000Y39521641D01*
G75*
G02*
X78351000Y39371641I0J-150000D01*
G01*
X78351000Y39071641D01*
G75*
G02*
X78201000Y38921641I-150000J0D01*
G01*
X76551000Y38921641D01*
G75*
G02*
X76401000Y39071641I0J150000D01*
G01*
G37*
G04 #@! TD.AperFunction*
G04 #@! TO.P,U5,4,STATUS2*
G04 #@! TO.N,unconnected-(U5-STATUS2-Pad4)*
G04 #@! TA.AperFunction,SMDPad,CuDef*
G36*
G01*
X76401000Y37801641D02*
X76401000Y38101641D01*
G75*
G02*
X76551000Y38251641I150000J0D01*
G01*
X78201000Y38251641D01*
G75*
G02*
X78351000Y38101641I0J-150000D01*
G01*
X78351000Y37801641D01*
G75*
G02*
X78201000Y37651641I-150000J0D01*
G01*
X76551000Y37651641D01*
G75*
G02*
X76401000Y37801641I0J150000D01*
G01*
G37*
G04 #@! TD.AperFunction*
G04 #@! TO.P,U5,5,S2*
G04 #@! TO.N,GND*
G04 #@! TA.AperFunction,SMDPad,CuDef*
G36*
G01*
X81351000Y37801641D02*
X81351000Y38101641D01*
G75*
G02*
X81501000Y38251641I150000J0D01*
G01*
X83151000Y38251641D01*
G75*
G02*
X83301000Y38101641I0J-150000D01*
G01*
X83301000Y37801641D01*
G75*
G02*
X83151000Y37651641I-150000J0D01*
G01*
X81501000Y37651641D01*
G75*
G02*
X81351000Y37801641I0J150000D01*
G01*
G37*
G04 #@! TD.AperFunction*
G04 #@! TO.P,U5,6,D2*
G04 #@! TO.N,/LS_PROTECTED_2/OUT2*
G04 #@! TA.AperFunction,SMDPad,CuDef*
G36*
G01*
X81351000Y39071641D02*
X81351000Y39371641D01*
G75*
G02*
X81501000Y39521641I150000J0D01*
G01*
X83151000Y39521641D01*
G75*
G02*
X83301000Y39371641I0J-150000D01*
G01*
X83301000Y39071641D01*
G75*
G02*
X83151000Y38921641I-150000J0D01*
G01*
X81501000Y38921641D01*
G75*
G02*
X81351000Y39071641I0J150000D01*
G01*
G37*
G04 #@! TD.AperFunction*
G04 #@! TO.P,U5,7,S1*
G04 #@! TO.N,GND*
G04 #@! TA.AperFunction,SMDPad,CuDef*
G36*
G01*
X81351000Y40341641D02*
X81351000Y40641641D01*
G75*
G02*
X81501000Y40791641I150000J0D01*
G01*
X83151000Y40791641D01*
G75*
G02*
X83301000Y40641641I0J-150000D01*
G01*
X83301000Y40341641D01*
G75*
G02*
X83151000Y40191641I-150000J0D01*
G01*
X81501000Y40191641D01*
G75*
G02*
X81351000Y40341641I0J150000D01*
G01*
G37*
G04 #@! TD.AperFunction*
G04 #@! TO.P,U5,8,D1*
G04 #@! TO.N,/LS_PROTECTED_2/OUT1*
G04 #@! TA.AperFunction,SMDPad,CuDef*
G36*
G01*
X81351000Y41611641D02*
X81351000Y41911641D01*
G75*
G02*
X81501000Y42061641I150000J0D01*
G01*
X83151000Y42061641D01*
G75*
G02*
X83301000Y41911641I0J-150000D01*
G01*
X83301000Y41611641D01*
G75*
G02*
X83151000Y41461641I-150000J0D01*
G01*
X81501000Y41461641D01*
G75*
G02*
X81351000Y41611641I0J150000D01*
G01*
G37*
G04 #@! TD.AperFunction*
G04 #@! TD*
G04 #@! TO.P,F2,1*
G04 #@! TO.N,Net-(F2-Pad1)*
G04 #@! TA.AperFunction,SMDPad,CuDef*
G36*
G01*
X88556000Y69570391D02*
X88556000Y70082891D01*
G75*
G02*
X88774750Y70301641I218750J0D01*
G01*
X89212250Y70301641D01*
G75*
G02*
X89431000Y70082891I0J-218750D01*
G01*
X89431000Y69570391D01*
G75*
G02*
X89212250Y69351641I-218750J0D01*
G01*
X88774750Y69351641D01*
G75*
G02*
X88556000Y69570391I0J218750D01*
G01*
G37*
G04 #@! TD.AperFunction*
G04 #@! TO.P,F2,2*
G04 #@! TO.N,/IGN4/IN2*
G04 #@! TA.AperFunction,SMDPad,CuDef*
G36*
G01*
X90131000Y69570391D02*
X90131000Y70082891D01*
G75*
G02*
X90349750Y70301641I218750J0D01*
G01*
X90787250Y70301641D01*
G75*
G02*
X91006000Y70082891I0J-218750D01*
G01*
X91006000Y69570391D01*
G75*
G02*
X90787250Y69351641I-218750J0D01*
G01*
X90349750Y69351641D01*
G75*
G02*
X90131000Y69570391I0J218750D01*
G01*
G37*
G04 #@! TD.AperFunction*
G04 #@! TD*
G04 #@! TO.P,R15,1*
G04 #@! TO.N,Net-(F3-Pad1)*
G04 #@! TA.AperFunction,SMDPad,CuDef*
G36*
G01*
X88546000Y79501641D02*
X88546000Y82351641D01*
G75*
G02*
X88796000Y82601641I250000J0D01*
G01*
X89521000Y82601641D01*
G75*
G02*
X89771000Y82351641I0J-250000D01*
G01*
X89771000Y79501641D01*
G75*
G02*
X89521000Y79251641I-250000J0D01*
G01*
X88796000Y79251641D01*
G75*
G02*
X88546000Y79501641I0J250000D01*
G01*
G37*
G04 #@! TD.AperFunction*
G04 #@! TO.P,R15,2*
G04 #@! TO.N,/IGN4/OUT3*
G04 #@! TA.AperFunction,SMDPad,CuDef*
G36*
G01*
X94471000Y79501641D02*
X94471000Y82351641D01*
G75*
G02*
X94721000Y82601641I250000J0D01*
G01*
X95446000Y82601641D01*
G75*
G02*
X95696000Y82351641I0J-250000D01*
G01*
X95696000Y79501641D01*
G75*
G02*
X95446000Y79251641I-250000J0D01*
G01*
X94721000Y79251641D01*
G75*
G02*
X94471000Y79501641I0J250000D01*
G01*
G37*
G04 #@! TD.AperFunction*
G04 #@! TD*
D10*
G04 #@! TO.P,M3,E1,V5A*
G04 #@! TO.N,unconnected-(M3-V5A-PadE1)*
X56526000Y33191638D03*
D11*
G04 #@! TO.P,M3,E2,GND*
G04 #@! TO.N,unconnected-(M3-GND-PadE2)*
X47626000Y31216638D03*
D12*
X52176000Y33791638D03*
X52176000Y30691638D03*
D10*
X56526000Y32241638D03*
G04 #@! TO.P,M3,E3,OUT_KNOCK*
G04 #@! TO.N,unconnected-(M3-OUT_KNOCK-PadE3)*
X56526000Y31291640D03*
G04 #@! TO.P,M3,W1,IN_KNOCK*
G04 #@! TO.N,unconnected-(M3-IN_KNOCK-PadW1)*
X47826000Y32291638D03*
G04 #@! TO.P,M3,W2,VREF*
G04 #@! TO.N,unconnected-(M3-VREF-PadW2)*
X47826000Y33191638D03*
G04 #@! TD*
D13*
G04 #@! TO.P,U1,1*
G04 #@! TO.N,unconnected-(U1-Pad1)*
X5976000Y80601641D03*
G04 #@! TO.P,U1,2,#20*
G04 #@! TO.N,/INJ4/OUT1*
X8976000Y80601641D03*
G04 #@! TO.P,U1,3,E1*
G04 #@! TO.N,unconnected-(U1-E1-Pad3)*
X11976000Y80601641D03*
G04 #@! TO.P,U1,4,IPV*
G04 #@! TO.N,unconnected-(U1-IPV-Pad4)*
X14976000Y80601641D03*
G04 #@! TO.P,U1,5,ELS3*
G04 #@! TO.N,unconnected-(U1-ELS3-Pad5)*
X17976000Y80601641D03*
G04 #@! TO.P,U1,6,NE*
G04 #@! TO.N,unconnected-(U1-NE-Pad6)*
X20976000Y80601641D03*
G04 #@! TO.P,U1,7,FAN*
G04 #@! TO.N,unconnected-(U1-FAN-Pad7)*
X23976000Y80601641D03*
G04 #@! TO.P,U1,8,IDL*
G04 #@! TO.N,unconnected-(U1-IDL-Pad8)*
X26976000Y80601641D03*
G04 #@! TO.P,U1,9,VCC*
G04 #@! TO.N,unconnected-(U1-VCC-Pad9)*
X34976000Y80601641D03*
G04 #@! TO.P,U1,10,PSW*
G04 #@! TO.N,unconnected-(U1-PSW-Pad10)*
X37976000Y80601641D03*
G04 #@! TO.P,U1,11,E2*
G04 #@! TO.N,unconnected-(U1-E2-Pad11)*
X40976000Y80601641D03*
G04 #@! TO.P,U1,12,HT*
G04 #@! TO.N,unconnected-(U1-HT-Pad12)*
X43976000Y80601641D03*
G04 #@! TO.P,U1,13,RSO*
G04 #@! TO.N,unconnected-(U1-RSO-Pad13)*
X46976000Y80601641D03*
G04 #@! TO.P,U1,14,VF*
G04 #@! TO.N,unconnected-(U1-VF-Pad14)*
X49976000Y80601641D03*
G04 #@! TO.P,U1,15,ELS2*
G04 #@! TO.N,unconnected-(U1-ELS2-Pad15)*
X52976000Y80601641D03*
G04 #@! TO.P,U1,16,ACT*
G04 #@! TO.N,unconnected-(U1-ACT-Pad16)*
X55976000Y80601641D03*
G04 #@! TO.P,U1,17,SPD*
G04 #@! TO.N,unconnected-(U1-SPD-Pad17)*
X58976000Y80601641D03*
G04 #@! TO.P,U1,18,AC1*
G04 #@! TO.N,unconnected-(U1-AC1-Pad18)*
X61976000Y80601641D03*
G04 #@! TO.P,U1,19,EGW*
G04 #@! TO.N,unconnected-(U1-EGW-Pad19)*
X64976000Y80601641D03*
G04 #@! TO.P,U1,20,W*
G04 #@! TO.N,unconnected-(U1-W-Pad20)*
X67976000Y80601641D03*
G04 #@! TO.P,U1,21,+B*
G04 #@! TO.N,unconnected-(U1-+B-Pad21)*
X70976000Y80601641D03*
G04 #@! TO.P,U1,22*
G04 #@! TO.N,unconnected-(U1-Pad22)*
X70976000Y85101641D03*
G04 #@! TO.P,U1,23,BATT*
G04 #@! TO.N,Net-(M6-IN_VIGN)*
X67976000Y85101641D03*
G04 #@! TO.P,U1,24,CCO*
G04 #@! TO.N,unconnected-(U1-CCO-Pad24)*
X64976000Y85101641D03*
G04 #@! TO.P,U1,25,FC*
G04 #@! TO.N,unconnected-(U1-FC-Pad25)*
X61976000Y85101641D03*
G04 #@! TO.P,U1,26,ELS1*
G04 #@! TO.N,unconnected-(U1-ELS1-Pad26)*
X58976000Y85101641D03*
G04 #@! TO.P,U1,27,AC2*
G04 #@! TO.N,unconnected-(U1-AC2-Pad27)*
X55976000Y85101641D03*
G04 #@! TO.P,U1,28,TE2*
G04 #@! TO.N,unconnected-(U1-TE2-Pad28)*
X52976000Y85101641D03*
G04 #@! TO.P,U1,29,TE1*
G04 #@! TO.N,unconnected-(U1-TE1-Pad29)*
X49976000Y85101641D03*
G04 #@! TO.P,U1,30,RSC*
G04 #@! TO.N,unconnected-(U1-RSC-Pad30)*
X46976000Y85101641D03*
G04 #@! TO.P,U1,31,NSW*
G04 #@! TO.N,unconnected-(U1-NSW-Pad31)*
X43976000Y85101641D03*
G04 #@! TO.P,U1,32,THW*
G04 #@! TO.N,unconnected-(U1-THW-Pad32)*
X40976000Y85101641D03*
G04 #@! TO.P,U1,33,PIM*
G04 #@! TO.N,unconnected-(U1-PIM-Pad33)*
X37976000Y85101641D03*
G04 #@! TO.P,U1,34,THA*
G04 #@! TO.N,unconnected-(U1-THA-Pad34)*
X34976000Y85101641D03*
G04 #@! TO.P,U1,35,IGT*
G04 #@! TO.N,unconnected-(U1-IGT-Pad35)*
X26976000Y85101641D03*
G04 #@! TO.P,U1,36,IGF*
G04 #@! TO.N,unconnected-(U1-IGF-Pad36)*
X23976000Y85101641D03*
G04 #@! TO.P,U1,37,G2*
G04 #@! TO.N,unconnected-(U1-G2-Pad37)*
X20976000Y85101641D03*
G04 #@! TO.P,U1,38,G-*
G04 #@! TO.N,unconnected-(U1-G--Pad38)*
X17976000Y85101641D03*
G04 #@! TO.P,U1,39,OX*
G04 #@! TO.N,unconnected-(U1-OX-Pad39)*
X14976000Y85101641D03*
G04 #@! TO.P,U1,40,STA*
G04 #@! TO.N,unconnected-(U1-STA-Pad40)*
X11976000Y85101641D03*
G04 #@! TO.P,U1,41,#10*
G04 #@! TO.N,/INJ4/OUT2*
X8976000Y85101641D03*
G04 #@! TO.P,U1,42,E01*
G04 #@! TO.N,unconnected-(U1-E01-Pad42)*
X5976000Y85101641D03*
G04 #@! TD*
G04 #@! TO.P,Q2,1,G*
G04 #@! TO.N,Net-(Q2-G)*
G04 #@! TA.AperFunction,SMDPad,CuDef*
G36*
G01*
X76401000Y82716641D02*
X76401000Y83416641D01*
G75*
G02*
X76651000Y83666641I250000J0D01*
G01*
X78351000Y83666641D01*
G75*
G02*
X78601000Y83416641I0J-250000D01*
G01*
X78601000Y82716641D01*
G75*
G02*
X78351000Y82466641I-250000J0D01*
G01*
X76651000Y82466641D01*
G75*
G02*
X76401000Y82716641I0J250000D01*
G01*
G37*
G04 #@! TD.AperFunction*
G04 #@! TO.P,Q2,2,C*
G04 #@! TO.N,/IGN4/OUT2*
G04 #@! TA.AperFunction,SMDPad,CuDef*
G36*
G01*
X80601000Y81186641D02*
X80601000Y83436641D01*
G75*
G02*
X80851000Y83686641I250000J0D01*
G01*
X83401000Y83686641D01*
G75*
G02*
X83651000Y83436641I0J-250000D01*
G01*
X83651000Y81186641D01*
G75*
G02*
X83401000Y80936641I-250000J0D01*
G01*
X80851000Y80936641D01*
G75*
G02*
X80601000Y81186641I0J250000D01*
G01*
G37*
G04 #@! TD.AperFunction*
G04 #@! TA.AperFunction,SMDPad,CuDef*
G36*
G01*
X80601000Y78136641D02*
X80601000Y80386641D01*
G75*
G02*
X80851000Y80636641I250000J0D01*
G01*
X83401000Y80636641D01*
G75*
G02*
X83651000Y80386641I0J-250000D01*
G01*
X83651000Y78136641D01*
G75*
G02*
X83401000Y77886641I-250000J0D01*
G01*
X80851000Y77886641D01*
G75*
G02*
X80601000Y78136641I0J250000D01*
G01*
G37*
G04 #@! TD.AperFunction*
G04 #@! TA.AperFunction,SMDPad,CuDef*
G36*
G01*
X80601000Y78136638D02*
X80601000Y83436644D01*
G75*
G02*
X80850997Y83686641I249997J0D01*
G01*
X86751003Y83686641D01*
G75*
G02*
X87001000Y83436644I0J-249997D01*
G01*
X87001000Y78136638D01*
G75*
G02*
X86751003Y77886641I-249997J0D01*
G01*
X80850997Y77886641D01*
G75*
G02*
X80601000Y78136638I0J249997D01*
G01*
G37*
G04 #@! TD.AperFunction*
G04 #@! TA.AperFunction,SMDPad,CuDef*
G36*
G01*
X83951000Y81186641D02*
X83951000Y83436641D01*
G75*
G02*
X84201000Y83686641I250000J0D01*
G01*
X86751000Y83686641D01*
G75*
G02*
X87001000Y83436641I0J-250000D01*
G01*
X87001000Y81186641D01*
G75*
G02*
X86751000Y80936641I-250000J0D01*
G01*
X84201000Y80936641D01*
G75*
G02*
X83951000Y81186641I0J250000D01*
G01*
G37*
G04 #@! TD.AperFunction*
G04 #@! TA.AperFunction,SMDPad,CuDef*
G36*
G01*
X83951000Y78136641D02*
X83951000Y80386641D01*
G75*
G02*
X84201000Y80636641I250000J0D01*
G01*
X86751000Y80636641D01*
G75*
G02*
X87001000Y80386641I0J-250000D01*
G01*
X87001000Y78136641D01*
G75*
G02*
X86751000Y77886641I-250000J0D01*
G01*
X84201000Y77886641D01*
G75*
G02*
X83951000Y78136641I0J250000D01*
G01*
G37*
G04 #@! TD.AperFunction*
G04 #@! TO.P,Q2,3,E*
G04 #@! TO.N,GND*
G04 #@! TA.AperFunction,SMDPad,CuDef*
G36*
G01*
X76401000Y78156641D02*
X76401000Y78856641D01*
G75*
G02*
X76651000Y79106641I250000J0D01*
G01*
X78351000Y79106641D01*
G75*
G02*
X78601000Y78856641I0J-250000D01*
G01*
X78601000Y78156641D01*
G75*
G02*
X78351000Y77906641I-250000J0D01*
G01*
X76651000Y77906641D01*
G75*
G02*
X76401000Y78156641I0J250000D01*
G01*
G37*
G04 #@! TD.AperFunction*
G04 #@! TD*
G04 #@! TO.P,R5,1*
G04 #@! TO.N,GND*
G04 #@! TA.AperFunction,SMDPad,CuDef*
G36*
G01*
X92246000Y35265046D02*
X92246000Y36045046D01*
G75*
G02*
X92316000Y36115046I70000J0D01*
G01*
X92876000Y36115046D01*
G75*
G02*
X92946000Y36045046I0J-70000D01*
G01*
X92946000Y35265046D01*
G75*
G02*
X92876000Y35195046I-70000J0D01*
G01*
X92316000Y35195046D01*
G75*
G02*
X92246000Y35265046I0J70000D01*
G01*
G37*
G04 #@! TD.AperFunction*
G04 #@! TO.P,R5,2*
G04 #@! TO.N,/LS_PROTECTED_2/IN2*
G04 #@! TA.AperFunction,SMDPad,CuDef*
G36*
G01*
X93846000Y35265046D02*
X93846000Y36045046D01*
G75*
G02*
X93916000Y36115046I70000J0D01*
G01*
X94476000Y36115046D01*
G75*
G02*
X94546000Y36045046I0J-70000D01*
G01*
X94546000Y35265046D01*
G75*
G02*
X94476000Y35195046I-70000J0D01*
G01*
X93916000Y35195046D01*
G75*
G02*
X93846000Y35265046I0J70000D01*
G01*
G37*
G04 #@! TD.AperFunction*
G04 #@! TD*
G04 #@! TO.P,R2,1*
G04 #@! TO.N,GND*
G04 #@! TA.AperFunction,SMDPad,CuDef*
G36*
G01*
X84576000Y55056000D02*
X84576000Y55836000D01*
G75*
G02*
X84646000Y55906000I70000J0D01*
G01*
X85206000Y55906000D01*
G75*
G02*
X85276000Y55836000I0J-70000D01*
G01*
X85276000Y55056000D01*
G75*
G02*
X85206000Y54986000I-70000J0D01*
G01*
X84646000Y54986000D01*
G75*
G02*
X84576000Y55056000I0J70000D01*
G01*
G37*
G04 #@! TD.AperFunction*
G04 #@! TO.P,R2,2*
G04 #@! TO.N,/INJ4/IN4*
G04 #@! TA.AperFunction,SMDPad,CuDef*
G36*
G01*
X86176000Y55056000D02*
X86176000Y55836000D01*
G75*
G02*
X86246000Y55906000I70000J0D01*
G01*
X86806000Y55906000D01*
G75*
G02*
X86876000Y55836000I0J-70000D01*
G01*
X86876000Y55056000D01*
G75*
G02*
X86806000Y54986000I-70000J0D01*
G01*
X86246000Y54986000D01*
G75*
G02*
X86176000Y55056000I0J70000D01*
G01*
G37*
G04 #@! TD.AperFunction*
G04 #@! TD*
G04 #@! TO.P,R1,1*
G04 #@! TO.N,GND*
G04 #@! TA.AperFunction,SMDPad,CuDef*
G36*
G01*
X84576000Y57005046D02*
X84576000Y57785046D01*
G75*
G02*
X84646000Y57855046I70000J0D01*
G01*
X85206000Y57855046D01*
G75*
G02*
X85276000Y57785046I0J-70000D01*
G01*
X85276000Y57005046D01*
G75*
G02*
X85206000Y56935046I-70000J0D01*
G01*
X84646000Y56935046D01*
G75*
G02*
X84576000Y57005046I0J70000D01*
G01*
G37*
G04 #@! TD.AperFunction*
G04 #@! TO.P,R1,2*
G04 #@! TO.N,/INJ4/IN2*
G04 #@! TA.AperFunction,SMDPad,CuDef*
G36*
G01*
X86176000Y57005046D02*
X86176000Y57785046D01*
G75*
G02*
X86246000Y57855046I70000J0D01*
G01*
X86806000Y57855046D01*
G75*
G02*
X86876000Y57785046I0J-70000D01*
G01*
X86876000Y57005046D01*
G75*
G02*
X86806000Y56935046I-70000J0D01*
G01*
X86246000Y56935046D01*
G75*
G02*
X86176000Y57005046I0J70000D01*
G01*
G37*
G04 #@! TD.AperFunction*
G04 #@! TD*
G04 #@! TO.P,D2,1,K*
G04 #@! TO.N,+12V_RAW*
G04 #@! TA.AperFunction,SMDPad,CuDef*
G36*
G01*
X87046000Y31441641D02*
X87046000Y32461641D01*
G75*
G02*
X87136000Y32551641I90000J0D01*
G01*
X87856000Y32551641D01*
G75*
G02*
X87946000Y32461641I0J-90000D01*
G01*
X87946000Y31441641D01*
G75*
G02*
X87856000Y31351641I-90000J0D01*
G01*
X87136000Y31351641D01*
G75*
G02*
X87046000Y31441641I0J90000D01*
G01*
G37*
G04 #@! TD.AperFunction*
G04 #@! TO.P,D2,2,A*
G04 #@! TO.N,/LS_PROTECTED_2/OUT2*
G04 #@! TA.AperFunction,SMDPad,CuDef*
G36*
G01*
X90346000Y31441641D02*
X90346000Y32461641D01*
G75*
G02*
X90436000Y32551641I90000J0D01*
G01*
X91156000Y32551641D01*
G75*
G02*
X91246000Y32461641I0J-90000D01*
G01*
X91246000Y31441641D01*
G75*
G02*
X91156000Y31351641I-90000J0D01*
G01*
X90436000Y31351641D01*
G75*
G02*
X90346000Y31441641I0J90000D01*
G01*
G37*
G04 #@! TD.AperFunction*
G04 #@! TD*
G04 #@! TO.P,R16,1*
G04 #@! TO.N,Net-(F4-Pad1)*
G04 #@! TA.AperFunction,SMDPad,CuDef*
G36*
G01*
X88546000Y74611641D02*
X88546000Y77461641D01*
G75*
G02*
X88796000Y77711641I250000J0D01*
G01*
X89521000Y77711641D01*
G75*
G02*
X89771000Y77461641I0J-250000D01*
G01*
X89771000Y74611641D01*
G75*
G02*
X89521000Y74361641I-250000J0D01*
G01*
X88796000Y74361641D01*
G75*
G02*
X88546000Y74611641I0J250000D01*
G01*
G37*
G04 #@! TD.AperFunction*
G04 #@! TO.P,R16,2*
G04 #@! TO.N,/IGN4/OUT4*
G04 #@! TA.AperFunction,SMDPad,CuDef*
G36*
G01*
X94471000Y74611641D02*
X94471000Y77461641D01*
G75*
G02*
X94721000Y77711641I250000J0D01*
G01*
X95446000Y77711641D01*
G75*
G02*
X95696000Y77461641I0J-250000D01*
G01*
X95696000Y74611641D01*
G75*
G02*
X95446000Y74361641I-250000J0D01*
G01*
X94721000Y74361641D01*
G75*
G02*
X94471000Y74611641I0J250000D01*
G01*
G37*
G04 #@! TD.AperFunction*
G04 #@! TD*
G04 #@! TO.P,R3,1*
G04 #@! TO.N,GND*
G04 #@! TA.AperFunction,SMDPad,CuDef*
G36*
G01*
X84576000Y53106954D02*
X84576000Y53886954D01*
G75*
G02*
X84646000Y53956954I70000J0D01*
G01*
X85206000Y53956954D01*
G75*
G02*
X85276000Y53886954I0J-70000D01*
G01*
X85276000Y53106954D01*
G75*
G02*
X85206000Y53036954I-70000J0D01*
G01*
X84646000Y53036954D01*
G75*
G02*
X84576000Y53106954I0J70000D01*
G01*
G37*
G04 #@! TD.AperFunction*
G04 #@! TO.P,R3,2*
G04 #@! TO.N,/INJ4/IN1*
G04 #@! TA.AperFunction,SMDPad,CuDef*
G36*
G01*
X86176000Y53106954D02*
X86176000Y53886954D01*
G75*
G02*
X86246000Y53956954I70000J0D01*
G01*
X86806000Y53956954D01*
G75*
G02*
X86876000Y53886954I0J-70000D01*
G01*
X86876000Y53106954D01*
G75*
G02*
X86806000Y53036954I-70000J0D01*
G01*
X86246000Y53036954D01*
G75*
G02*
X86176000Y53106954I0J70000D01*
G01*
G37*
G04 #@! TD.AperFunction*
G04 #@! TD*
D10*
G04 #@! TO.P,M2,E1,SPI2_SCK/CAN2_TX*
G04 #@! TO.N,unconnected-(M2-SPI2_SCK{slash}CAN2_TX-PadE1)*
X44412000Y54646001D03*
G04 #@! TO.P,M2,E2,SPI2_MISO*
G04 #@! TO.N,unconnected-(M2-SPI2_MISO-PadE2)*
X44412000Y53846000D03*
G04 #@! TO.P,M2,E3,SPI2_MOSI*
G04 #@! TO.N,unconnected-(M2-SPI2_MOSI-PadE3)*
X44412000Y53046002D03*
G04 #@! TO.P,M2,E4,SPI2_CS/CAN2_RX*
G04 #@! TO.N,unconnected-(M2-SPI2_CS{slash}CAN2_RX-PadE4)*
X44412000Y52246001D03*
G04 #@! TO.P,M2,E6,OUT_IO3*
G04 #@! TO.N,unconnected-(M2-OUT_IO3-PadE6)*
X44412000Y51446000D03*
G04 #@! TO.P,M2,E7,OUT_IO5*
G04 #@! TO.N,unconnected-(M2-OUT_IO5-PadE7)*
X44411997Y50646002D03*
G04 #@! TO.P,M2,E8,OUT_IO1*
G04 #@! TO.N,unconnected-(M2-OUT_IO1-PadE8)*
X44411997Y49846001D03*
G04 #@! TO.P,M2,E9,OUT_IO6*
G04 #@! TO.N,unconnected-(M2-OUT_IO6-PadE9)*
X44412000Y49045997D03*
G04 #@! TO.P,M2,E10,OUT_IO10*
G04 #@! TO.N,unconnected-(M2-OUT_IO10-PadE10)*
X44412000Y48246001D03*
G04 #@! TO.P,M2,E11,OUT_IO9*
G04 #@! TO.N,unconnected-(M2-OUT_IO9-PadE11)*
X44412000Y47446001D03*
G04 #@! TO.P,M2,E12,OUT_IO2*
G04 #@! TO.N,unconnected-(M2-OUT_IO2-PadE12)*
X44412000Y46646000D03*
G04 #@! TO.P,M2,E13,OUT_IO12*
G04 #@! TO.N,unconnected-(M2-OUT_IO12-PadE13)*
X44411997Y45846001D03*
G04 #@! TO.P,M2,E14,OUT_PWM5*
G04 #@! TO.N,unconnected-(M2-OUT_PWM5-PadE14)*
X44411997Y45046000D03*
G04 #@! TO.P,M2,E15,OUT_PWM4*
G04 #@! TO.N,unconnected-(M2-OUT_PWM4-PadE15)*
X44411997Y44245999D03*
G04 #@! TO.P,M2,E16,OUT_PWM3*
G04 #@! TO.N,unconnected-(M2-OUT_PWM3-PadE16)*
X44412000Y43446001D03*
G04 #@! TO.P,M2,E17,OUT_PWM2*
G04 #@! TO.N,unconnected-(M2-OUT_PWM2-PadE17)*
X44412000Y42646000D03*
G04 #@! TO.P,M2,E18,OUT_INJ2*
G04 #@! TO.N,/INJ4/IN2*
X44412000Y41846002D03*
G04 #@! TO.P,M2,E19,OUT_INJ1*
G04 #@! TO.N,/INJ4/IN1*
X44411997Y41046001D03*
G04 #@! TO.P,M2,E20,OUT_IO13*
G04 #@! TO.N,unconnected-(M2-OUT_IO13-PadE20)*
X44411997Y40246000D03*
G04 #@! TO.P,M2,E21,OUT_IO4*
G04 #@! TO.N,unconnected-(M2-OUT_IO4-PadE21)*
X44412000Y39446001D03*
G04 #@! TO.P,M2,E22,OUT_IO8*
G04 #@! TO.N,unconnected-(M2-OUT_IO8-PadE22)*
X44412000Y38646000D03*
G04 #@! TO.P,M2,E23,OUT_IO7*
G04 #@! TO.N,unconnected-(M2-OUT_IO7-PadE23)*
X44412000Y37845999D03*
G04 #@! TO.P,M2,E24,OUT_IO11*
G04 #@! TO.N,unconnected-(M2-OUT_IO11-PadE24)*
X44412000Y37046001D03*
G04 #@! TO.P,M2,E25,OUT_PWM7*
G04 #@! TO.N,unconnected-(M2-OUT_PWM7-PadE25)*
X44412000Y36246000D03*
G04 #@! TO.P,M2,E26,OUT_PWM6*
G04 #@! TO.N,unconnected-(M2-OUT_PWM6-PadE26)*
X44412000Y35446002D03*
G04 #@! TO.P,M2,E27,OUT_PWM1*
G04 #@! TO.N,unconnected-(M2-OUT_PWM1-PadE27)*
X44412000Y34646001D03*
G04 #@! TO.P,M2,E28,OUT_PWM8*
G04 #@! TO.N,unconnected-(M2-OUT_PWM8-PadE28)*
X44412000Y33846000D03*
G04 #@! TO.P,M2,E29,OUT_INJ3*
G04 #@! TO.N,/INJ4/IN3*
X44412000Y33046001D03*
G04 #@! TO.P,M2,E30,OUT_INJ4*
G04 #@! TO.N,/INJ4/IN4*
X44412000Y32246000D03*
G04 #@! TO.P,M2,E31,OUT_INJ5*
G04 #@! TO.N,/LS_PROTECTED_2/IN1*
X44411997Y31446002D03*
G04 #@! TO.P,M2,E32,OUT_INJ6*
G04 #@! TO.N,/LS_PROTECTED_2/IN2*
X44412000Y30645999D03*
G04 #@! TO.P,M2,E33,OUT_INJ7*
G04 #@! TO.N,/LS_PROTECTED_2/IN1*
X44412000Y29846000D03*
G04 #@! TO.P,M2,E34,OUT_INJ8*
G04 #@! TO.N,/LS_PROTECTED_2/IN2*
X44412000Y29046002D03*
G04 #@! TO.P,M2,E35,IO6*
G04 #@! TO.N,unconnected-(M2-IO6-PadE35)*
X44412000Y28246001D03*
G04 #@! TO.P,M2,E36,IO7*
G04 #@! TO.N,unconnected-(M2-IO7-PadE36)*
X44412000Y27446000D03*
G04 #@! TO.P,M2,E38,V5A_SWITCHABLE*
G04 #@! TO.N,unconnected-(M2-V5A_SWITCHABLE-PadE38)*
X44411997Y20746006D03*
G04 #@! TO.P,M2,E39,GNDA*
G04 #@! TO.N,unconnected-(M2-GNDA-PadE39)*
X44412000Y19946005D03*
D14*
G04 #@! TO.P,M2,G,GND*
G04 #@! TO.N,GND*
X2511995Y18596005D03*
D15*
X2511997Y24446008D03*
D16*
X2511998Y52446005D03*
D17*
X2511998Y30646005D03*
D18*
X4312004Y17546002D03*
D19*
X5711999Y57446003D03*
D20*
X14212002Y57446003D03*
D21*
X24062005Y57446003D03*
D22*
X44612000Y55946004D03*
D23*
X44612000Y24096001D03*
D24*
X44612000Y18446008D03*
D10*
G04 #@! TO.P,M2,N1,USBID*
G04 #@! TO.N,unconnected-(M2-USBID-PadN1)*
X44412000Y57246004D03*
G04 #@! TO.P,M2,N2,USBM*
G04 #@! TO.N,unconnected-(M2-USBM-PadN2)*
X43612002Y57246006D03*
G04 #@! TO.P,M2,N3,USBP*
G04 #@! TO.N,unconnected-(M2-USBP-PadN3)*
X42812001Y57246006D03*
G04 #@! TO.P,M2,N4,VBUS*
G04 #@! TO.N,unconnected-(M2-VBUS-PadN4)*
X42012002Y57246004D03*
G04 #@! TO.P,M2,N5,BOOT0*
G04 #@! TO.N,unconnected-(M2-BOOT0-PadN5)*
X41212001Y57246004D03*
G04 #@! TO.P,M2,N6,SWO*
G04 #@! TO.N,unconnected-(M2-SWO-PadN6)*
X40412000Y57246004D03*
G04 #@! TO.P,M2,N7,SWDIO*
G04 #@! TO.N,unconnected-(M2-SWDIO-PadN7)*
X39612002Y57246004D03*
G04 #@! TO.P,M2,N8,SWCLK*
G04 #@! TO.N,unconnected-(M2-SWCLK-PadN8)*
X38812001Y57246006D03*
G04 #@! TO.P,M2,N9,nReset*
G04 #@! TO.N,unconnected-(M2-nReset-PadN9)*
X38012003Y57246004D03*
G04 #@! TO.P,M2,N10,SPI3_CS*
G04 #@! TO.N,unconnected-(M2-SPI3_CS-PadN10)*
X37212002Y57246004D03*
G04 #@! TO.P,M2,N11,SPI3_SCK*
G04 #@! TO.N,unconnected-(M2-SPI3_SCK-PadN11)*
X36412001Y57246004D03*
G04 #@! TO.P,M2,N12,SPI3_MISO*
G04 #@! TO.N,unconnected-(M2-SPI3_MISO-PadN12)*
X35612000Y57246004D03*
G04 #@! TO.P,M2,N13,SPI3_MOSI*
G04 #@! TO.N,unconnected-(M2-SPI3_MOSI-PadN13)*
X34812001Y57246004D03*
G04 #@! TO.P,M2,N14,I2C_SCL*
G04 #@! TO.N,unconnected-(M2-I2C_SCL-PadN14)*
X34012000Y57246004D03*
G04 #@! TO.P,M2,N15,I2C_SDA*
G04 #@! TO.N,unconnected-(M2-I2C_SDA-PadN15)*
X33211999Y57246006D03*
G04 #@! TO.P,M2,N16,IO1*
G04 #@! TO.N,unconnected-(M2-IO1-PadN16)*
X32411999Y57246006D03*
G04 #@! TO.P,M2,N17,UART2_TX*
G04 #@! TO.N,unconnected-(M2-UART2_TX-PadN17)*
X31612000Y57246004D03*
G04 #@! TO.P,M2,N18,UART2_RX*
G04 #@! TO.N,unconnected-(M2-UART2_RX-PadN18)*
X30811999Y57246004D03*
G04 #@! TO.P,M2,N19,IO2*
G04 #@! TO.N,unconnected-(M2-IO2-PadN19)*
X30012001Y57246004D03*
G04 #@! TO.P,M2,N20,IO4*
G04 #@! TO.N,unconnected-(M2-IO4-PadN20)*
X29212000Y57246004D03*
G04 #@! TO.P,M2,N21,IO3*
G04 #@! TO.N,unconnected-(M2-IO3-PadN21)*
X28412001Y57246006D03*
G04 #@! TO.P,M2,N22,V33*
G04 #@! TO.N,unconnected-(M2-V33-PadN22)*
X27612000Y57246004D03*
G04 #@! TO.P,M2,N23,IO5*
G04 #@! TO.N,unconnected-(M2-IO5-PadN23)*
X26812000Y57246004D03*
G04 #@! TO.P,M2,N24,UART8_RX*
G04 #@! TO.N,unconnected-(M2-UART8_RX-PadN24)*
X21312000Y57246004D03*
G04 #@! TO.P,M2,N25,UART8_TX*
G04 #@! TO.N,unconnected-(M2-UART8_TX-PadN25)*
X20511999Y57246004D03*
G04 #@! TO.P,M2,N26,IN_VIGN*
G04 #@! TO.N,Net-(M2-IN_VIGN)*
X19712001Y57246004D03*
G04 #@! TO.P,M2,N27,VBAT*
G04 #@! TO.N,Net-(M2-VBAT)*
X18912003Y57246004D03*
G04 #@! TO.P,M2,N28,V33_SWITCHABLE*
G04 #@! TO.N,unconnected-(M2-V33_SWITCHABLE-PadN28)*
X18112004Y57246004D03*
G04 #@! TO.P,M2,N29,OUT_PWR_EN*
G04 #@! TO.N,Net-(M2-OUT_PWR_EN)*
X10312000Y57246004D03*
G04 #@! TO.P,M2,N30,V5A_SWITCHABLE*
G04 #@! TO.N,unconnected-(M2-V5A_SWITCHABLE-PadN30)*
X9512001Y57246004D03*
G04 #@! TO.P,M2,N31,VCC*
G04 #@! TO.N,+5V*
X8712003Y57246004D03*
G04 #@! TO.P,M2,N32,V33*
G04 #@! TO.N,unconnected-(M2-V33-PadN32)*
X2711999Y57246004D03*
G04 #@! TO.P,M2,S1,IN_D4*
G04 #@! TO.N,unconnected-(M2-IN_D4-PadS1)*
X43811999Y17745999D03*
G04 #@! TO.P,M2,S2,IN_D3*
G04 #@! TO.N,unconnected-(M2-IN_D3-PadS2)*
X42611998Y17746001D03*
G04 #@! TO.P,M2,S3,IN_D2*
G04 #@! TO.N,unconnected-(M2-IN_D2-PadS3)*
X41412001Y17746001D03*
G04 #@! TO.P,M2,S4,IN_D1*
G04 #@! TO.N,unconnected-(M2-IN_D1-PadS4)*
X40212001Y17745999D03*
G04 #@! TO.P,M2,S5,VREF2*
G04 #@! TO.N,unconnected-(M2-VREF2-PadS5)*
X39012001Y17746001D03*
G04 #@! TO.P,M2,S6,IN_SENS4*
G04 #@! TO.N,unconnected-(M2-IN_SENS4-PadS6)*
X37912013Y17746001D03*
G04 #@! TO.P,M2,S7,IN_SENS3*
G04 #@! TO.N,unconnected-(M2-IN_SENS3-PadS7)*
X36712013Y17746001D03*
G04 #@! TO.P,M2,S8,IN_SENS2*
G04 #@! TO.N,unconnected-(M2-IN_SENS2-PadS8)*
X35512015Y17745999D03*
G04 #@! TO.P,M2,S9,IN_SENS1*
G04 #@! TO.N,unconnected-(M2-IN_SENS1-PadS9)*
X34312015Y17746001D03*
G04 #@! TO.P,M2,S10,IN_AUX4*
G04 #@! TO.N,unconnected-(M2-IN_AUX4-PadS10)*
X33112012Y17746001D03*
G04 #@! TO.P,M2,S11,IN_AUX3*
G04 #@! TO.N,unconnected-(M2-IN_AUX3-PadS11)*
X31912010Y17745999D03*
G04 #@! TO.P,M2,S12,IN_AUX2*
G04 #@! TO.N,unconnected-(M2-IN_AUX2-PadS12)*
X30712012Y17746001D03*
G04 #@! TO.P,M2,S13,IN_AUX1*
G04 #@! TO.N,unconnected-(M2-IN_AUX1-PadS13)*
X29512014Y17746001D03*
G04 #@! TO.P,M2,S14,IN_RES2*
G04 #@! TO.N,unconnected-(M2-IN_RES2-PadS14)*
X28312007Y17746001D03*
G04 #@! TO.P,M2,S15,IN_O2S2*
G04 #@! TO.N,unconnected-(M2-IN_O2S2-PadS15)*
X27112007Y17746001D03*
G04 #@! TO.P,M2,S16,IN_O2S*
G04 #@! TO.N,unconnected-(M2-IN_O2S-PadS16)*
X25912009Y17746001D03*
G04 #@! TO.P,M2,S17,IN_RES1*
G04 #@! TO.N,unconnected-(M2-IN_RES1-PadS17)*
X24712009Y17746001D03*
G04 #@! TO.P,M2,S18,IN_RES3*
G04 #@! TO.N,unconnected-(M2-IN_RES3-PadS18)*
X23512004Y17746001D03*
G04 #@! TO.P,M2,S19,IN_MAP3*
G04 #@! TO.N,unconnected-(M2-IN_MAP3-PadS19)*
X22312003Y17746001D03*
G04 #@! TO.P,M2,S20,IN_MAP2*
G04 #@! TO.N,unconnected-(M2-IN_MAP2-PadS20)*
X21112006Y17745999D03*
G04 #@! TO.P,M2,S21,IN_MAP1*
G04 #@! TO.N,unconnected-(M2-IN_MAP1-PadS21)*
X19912006Y17746001D03*
G04 #@! TO.P,M2,S22,IN_CRANK*
G04 #@! TO.N,Net-(M1-OUT)*
X18712003Y17745999D03*
G04 #@! TO.P,M2,S23,IN_KNOCK*
G04 #@! TO.N,unconnected-(M2-IN_KNOCK-PadS23)*
X17512003Y17746001D03*
G04 #@! TO.P,M2,S24,IN_CAM*
G04 #@! TO.N,Net-(M2-IN_CAM)*
X16312008Y17746001D03*
G04 #@! TO.P,M2,S25,IN_VSS*
G04 #@! TO.N,unconnected-(M2-IN_VSS-PadS25)*
X15112005Y17745999D03*
G04 #@! TO.P,M2,S26,IN_IAT*
G04 #@! TO.N,unconnected-(M2-IN_IAT-PadS26)*
X13912000Y17746001D03*
G04 #@! TO.P,M2,S27,IN_AT1*
G04 #@! TO.N,unconnected-(M2-IN_AT1-PadS27)*
X12712000Y17745999D03*
G04 #@! TO.P,M2,S28,IN_CLT*
G04 #@! TO.N,unconnected-(M2-IN_CLT-PadS28)*
X11512002Y17746001D03*
G04 #@! TO.P,M2,S29,IN_AT2*
G04 #@! TO.N,unconnected-(M2-IN_AT2-PadS29)*
X10312002Y17746001D03*
G04 #@! TO.P,M2,S30,IN_TPS*
G04 #@! TO.N,unconnected-(M2-IN_TPS-PadS30)*
X9111997Y17746001D03*
G04 #@! TO.P,M2,S31,IN_PPS*
G04 #@! TO.N,unconnected-(M2-IN_PPS-PadS31)*
X7911997Y17746001D03*
G04 #@! TO.P,M2,S32,IN_TPS2*
G04 #@! TO.N,unconnected-(M2-IN_TPS2-PadS32)*
X6711999Y17746001D03*
G04 #@! TO.P,M2,S33,IN_PPS2*
G04 #@! TO.N,unconnected-(M2-IN_PPS2-PadS33)*
X5511999Y17746001D03*
G04 #@! TO.P,M2,S35,VREF1*
G04 #@! TO.N,unconnected-(M2-VREF1-PadS35)*
X3111999Y17746001D03*
G04 #@! TO.P,M2,W1,GNDA*
G04 #@! TO.N,unconnected-(M2-GNDA-PadW1)*
X2711997Y20246004D03*
G04 #@! TO.P,M2,W2,V5A_SWITCHABLE*
G04 #@! TO.N,unconnected-(M2-V5A_SWITCHABLE-PadW2)*
X2711997Y21246005D03*
G04 #@! TO.P,M2,W3,V33_REF*
G04 #@! TO.N,unconnected-(M2-V33_REF-PadW3)*
X2711999Y27646007D03*
G04 #@! TO.P,M2,W3a,BOOT1*
G04 #@! TO.N,unconnected-(M2-BOOT1-PadW3a)*
X2711998Y33646005D03*
G04 #@! TO.P,M2,W4,IGN8*
G04 #@! TO.N,unconnected-(M2-IGN8-PadW4)*
X2711999Y34646003D03*
G04 #@! TO.P,M2,W5,IGN7*
G04 #@! TO.N,unconnected-(M2-IGN7-PadW5)*
X2711999Y35646004D03*
G04 #@! TO.P,M2,W6,IGN6*
G04 #@! TO.N,unconnected-(M2-IGN6-PadW6)*
X2711999Y36646002D03*
G04 #@! TO.P,M2,W7,IGN5*
G04 #@! TO.N,unconnected-(M2-IGN5-PadW7)*
X2711999Y37646002D03*
G04 #@! TO.P,M2,W8,IGN4*
G04 #@! TO.N,/IGN4/IN4*
X2711999Y38646003D03*
G04 #@! TO.P,M2,W9,IGN3*
G04 #@! TO.N,/IGN4/IN3*
X2711999Y39646001D03*
G04 #@! TO.P,M2,W10,IGN2*
G04 #@! TO.N,/IGN4/IN2*
X2711999Y40646001D03*
G04 #@! TO.P,M2,W11,IGN1*
G04 #@! TO.N,/IGN4/IN1*
X2711999Y41645999D03*
G04 #@! TO.P,M2,W11a,LED_RED*
G04 #@! TO.N,unconnected-(M2-LED_RED-PadW11a)*
X2711998Y42646005D03*
G04 #@! TO.P,M2,W11b,LED_GREEN*
G04 #@! TO.N,unconnected-(M2-LED_GREEN-PadW11b)*
X2711998Y43646005D03*
G04 #@! TO.P,M2,W11c,LED_BLUE*
G04 #@! TO.N,unconnected-(M2-LED_BLUE-PadW11c)*
X2711998Y44646005D03*
G04 #@! TO.P,M2,W11d,LED_YELLOW*
G04 #@! TO.N,unconnected-(M2-LED_YELLOW-PadW11d)*
X2711998Y45646005D03*
G04 #@! TO.P,M2,W12,CANH*
G04 #@! TO.N,unconnected-(M2-CANH-PadW12)*
X2711998Y46646005D03*
G04 #@! TO.P,M2,W13,CANL*
G04 #@! TO.N,unconnected-(M2-CANL-PadW13)*
X2711998Y47646005D03*
G04 #@! TD*
G04 #@! TO.P,R8,1*
G04 #@! TO.N,GND*
G04 #@! TA.AperFunction,SMDPad,CuDef*
G36*
G01*
X81536000Y33316000D02*
X81536000Y34096000D01*
G75*
G02*
X81606000Y34166000I70000J0D01*
G01*
X82166000Y34166000D01*
G75*
G02*
X82236000Y34096000I0J-70000D01*
G01*
X82236000Y33316000D01*
G75*
G02*
X82166000Y33246000I-70000J0D01*
G01*
X81606000Y33246000D01*
G75*
G02*
X81536000Y33316000I0J70000D01*
G01*
G37*
G04 #@! TD.AperFunction*
G04 #@! TO.P,R8,2*
G04 #@! TO.N,/LS_PROTECTED_2/IN1*
G04 #@! TA.AperFunction,SMDPad,CuDef*
G36*
G01*
X83136000Y33316000D02*
X83136000Y34096000D01*
G75*
G02*
X83206000Y34166000I70000J0D01*
G01*
X83766000Y34166000D01*
G75*
G02*
X83836000Y34096000I0J-70000D01*
G01*
X83836000Y33316000D01*
G75*
G02*
X83766000Y33246000I-70000J0D01*
G01*
X83206000Y33246000D01*
G75*
G02*
X83136000Y33316000I0J70000D01*
G01*
G37*
G04 #@! TD.AperFunction*
G04 #@! TD*
G04 #@! TO.P,Q3,1,G*
G04 #@! TO.N,Net-(Q3-G)*
G04 #@! TA.AperFunction,SMDPad,CuDef*
G36*
G01*
X76401000Y74521641D02*
X76401000Y75221641D01*
G75*
G02*
X76651000Y75471641I250000J0D01*
G01*
X78351000Y75471641D01*
G75*
G02*
X78601000Y75221641I0J-250000D01*
G01*
X78601000Y74521641D01*
G75*
G02*
X78351000Y74271641I-250000J0D01*
G01*
X76651000Y74271641D01*
G75*
G02*
X76401000Y74521641I0J250000D01*
G01*
G37*
G04 #@! TD.AperFunction*
G04 #@! TO.P,Q3,2,C*
G04 #@! TO.N,/IGN4/OUT3*
G04 #@! TA.AperFunction,SMDPad,CuDef*
G36*
G01*
X80601000Y72991641D02*
X80601000Y75241641D01*
G75*
G02*
X80851000Y75491641I250000J0D01*
G01*
X83401000Y75491641D01*
G75*
G02*
X83651000Y75241641I0J-250000D01*
G01*
X83651000Y72991641D01*
G75*
G02*
X83401000Y72741641I-250000J0D01*
G01*
X80851000Y72741641D01*
G75*
G02*
X80601000Y72991641I0J250000D01*
G01*
G37*
G04 #@! TD.AperFunction*
G04 #@! TA.AperFunction,SMDPad,CuDef*
G36*
G01*
X80601000Y69941641D02*
X80601000Y72191641D01*
G75*
G02*
X80851000Y72441641I250000J0D01*
G01*
X83401000Y72441641D01*
G75*
G02*
X83651000Y72191641I0J-250000D01*
G01*
X83651000Y69941641D01*
G75*
G02*
X83401000Y69691641I-250000J0D01*
G01*
X80851000Y69691641D01*
G75*
G02*
X80601000Y69941641I0J250000D01*
G01*
G37*
G04 #@! TD.AperFunction*
G04 #@! TA.AperFunction,SMDPad,CuDef*
G36*
G01*
X80601000Y69941638D02*
X80601000Y75241644D01*
G75*
G02*
X80850997Y75491641I249997J0D01*
G01*
X86751003Y75491641D01*
G75*
G02*
X87001000Y75241644I0J-249997D01*
G01*
X87001000Y69941638D01*
G75*
G02*
X86751003Y69691641I-249997J0D01*
G01*
X80850997Y69691641D01*
G75*
G02*
X80601000Y69941638I0J249997D01*
G01*
G37*
G04 #@! TD.AperFunction*
G04 #@! TA.AperFunction,SMDPad,CuDef*
G36*
G01*
X83951000Y72991641D02*
X83951000Y75241641D01*
G75*
G02*
X84201000Y75491641I250000J0D01*
G01*
X86751000Y75491641D01*
G75*
G02*
X87001000Y75241641I0J-250000D01*
G01*
X87001000Y72991641D01*
G75*
G02*
X86751000Y72741641I-250000J0D01*
G01*
X84201000Y72741641D01*
G75*
G02*
X83951000Y72991641I0J250000D01*
G01*
G37*
G04 #@! TD.AperFunction*
G04 #@! TA.AperFunction,SMDPad,CuDef*
G36*
G01*
X83951000Y69941641D02*
X83951000Y72191641D01*
G75*
G02*
X84201000Y72441641I250000J0D01*
G01*
X86751000Y72441641D01*
G75*
G02*
X87001000Y72191641I0J-250000D01*
G01*
X87001000Y69941641D01*
G75*
G02*
X86751000Y69691641I-250000J0D01*
G01*
X84201000Y69691641D01*
G75*
G02*
X83951000Y69941641I0J250000D01*
G01*
G37*
G04 #@! TD.AperFunction*
G04 #@! TO.P,Q3,3,E*
G04 #@! TO.N,GND*
G04 #@! TA.AperFunction,SMDPad,CuDef*
G36*
G01*
X76401000Y69961641D02*
X76401000Y70661641D01*
G75*
G02*
X76651000Y70911641I250000J0D01*
G01*
X78351000Y70911641D01*
G75*
G02*
X78601000Y70661641I0J-250000D01*
G01*
X78601000Y69961641D01*
G75*
G02*
X78351000Y69711641I-250000J0D01*
G01*
X76651000Y69711641D01*
G75*
G02*
X76401000Y69961641I0J250000D01*
G01*
G37*
G04 #@! TD.AperFunction*
G04 #@! TD*
G04 #@! TO.P,R6,1*
G04 #@! TO.N,GND*
G04 #@! TA.AperFunction,SMDPad,CuDef*
G36*
G01*
X92246000Y33316000D02*
X92246000Y34096000D01*
G75*
G02*
X92316000Y34166000I70000J0D01*
G01*
X92876000Y34166000D01*
G75*
G02*
X92946000Y34096000I0J-70000D01*
G01*
X92946000Y33316000D01*
G75*
G02*
X92876000Y33246000I-70000J0D01*
G01*
X92316000Y33246000D01*
G75*
G02*
X92246000Y33316000I0J70000D01*
G01*
G37*
G04 #@! TD.AperFunction*
G04 #@! TO.P,R6,2*
G04 #@! TO.N,/LS_PROTECTED_2/IN1*
G04 #@! TA.AperFunction,SMDPad,CuDef*
G36*
G01*
X93846000Y33316000D02*
X93846000Y34096000D01*
G75*
G02*
X93916000Y34166000I70000J0D01*
G01*
X94476000Y34166000D01*
G75*
G02*
X94546000Y34096000I0J-70000D01*
G01*
X94546000Y33316000D01*
G75*
G02*
X94476000Y33246000I-70000J0D01*
G01*
X93916000Y33246000D01*
G75*
G02*
X93846000Y33316000I0J70000D01*
G01*
G37*
G04 #@! TD.AperFunction*
G04 #@! TD*
G04 #@! TO.P,R7,1*
G04 #@! TO.N,GND*
G04 #@! TA.AperFunction,SMDPad,CuDef*
G36*
G01*
X81536000Y35265046D02*
X81536000Y36045046D01*
G75*
G02*
X81606000Y36115046I70000J0D01*
G01*
X82166000Y36115046D01*
G75*
G02*
X82236000Y36045046I0J-70000D01*
G01*
X82236000Y35265046D01*
G75*
G02*
X82166000Y35195046I-70000J0D01*
G01*
X81606000Y35195046D01*
G75*
G02*
X81536000Y35265046I0J70000D01*
G01*
G37*
G04 #@! TD.AperFunction*
G04 #@! TO.P,R7,2*
G04 #@! TO.N,/LS_PROTECTED_2/IN2*
G04 #@! TA.AperFunction,SMDPad,CuDef*
G36*
G01*
X83136000Y35265046D02*
X83136000Y36045046D01*
G75*
G02*
X83206000Y36115046I70000J0D01*
G01*
X83766000Y36115046D01*
G75*
G02*
X83836000Y36045046I0J-70000D01*
G01*
X83836000Y35265046D01*
G75*
G02*
X83766000Y35195046I-70000J0D01*
G01*
X83206000Y35195046D01*
G75*
G02*
X83136000Y35265046I0J70000D01*
G01*
G37*
G04 #@! TD.AperFunction*
G04 #@! TD*
G04 #@! TO.P,R4,1*
G04 #@! TO.N,GND*
G04 #@! TA.AperFunction,SMDPad,CuDef*
G36*
G01*
X84576000Y51157908D02*
X84576000Y51937908D01*
G75*
G02*
X84646000Y52007908I70000J0D01*
G01*
X85206000Y52007908D01*
G75*
G02*
X85276000Y51937908I0J-70000D01*
G01*
X85276000Y51157908D01*
G75*
G02*
X85206000Y51087908I-70000J0D01*
G01*
X84646000Y51087908D01*
G75*
G02*
X84576000Y51157908I0J70000D01*
G01*
G37*
G04 #@! TD.AperFunction*
G04 #@! TO.P,R4,2*
G04 #@! TO.N,/INJ4/IN3*
G04 #@! TA.AperFunction,SMDPad,CuDef*
G36*
G01*
X86176000Y51157908D02*
X86176000Y51937908D01*
G75*
G02*
X86246000Y52007908I70000J0D01*
G01*
X86806000Y52007908D01*
G75*
G02*
X86876000Y51937908I0J-70000D01*
G01*
X86876000Y51157908D01*
G75*
G02*
X86806000Y51087908I-70000J0D01*
G01*
X86246000Y51087908D01*
G75*
G02*
X86176000Y51157908I0J70000D01*
G01*
G37*
G04 #@! TD.AperFunction*
G04 #@! TD*
G04 #@! TO.P,R14,1*
G04 #@! TO.N,Net-(Q4-G)*
G04 #@! TA.AperFunction,SMDPad,CuDef*
G36*
G01*
X92286000Y66377908D02*
X92286000Y67157908D01*
G75*
G02*
X92356000Y67227908I70000J0D01*
G01*
X92916000Y67227908D01*
G75*
G02*
X92986000Y67157908I0J-70000D01*
G01*
X92986000Y66377908D01*
G75*
G02*
X92916000Y66307908I-70000J0D01*
G01*
X92356000Y66307908D01*
G75*
G02*
X92286000Y66377908I0J70000D01*
G01*
G37*
G04 #@! TD.AperFunction*
G04 #@! TO.P,R14,2*
G04 #@! TO.N,Net-(F4-Pad1)*
G04 #@! TA.AperFunction,SMDPad,CuDef*
G36*
G01*
X93886000Y66377908D02*
X93886000Y67157908D01*
G75*
G02*
X93956000Y67227908I70000J0D01*
G01*
X94516000Y67227908D01*
G75*
G02*
X94586000Y67157908I0J-70000D01*
G01*
X94586000Y66377908D01*
G75*
G02*
X94516000Y66307908I-70000J0D01*
G01*
X93956000Y66307908D01*
G75*
G02*
X93886000Y66377908I0J70000D01*
G01*
G37*
G04 #@! TD.AperFunction*
G04 #@! TD*
G04 #@! TO.P,Q1,1,G*
G04 #@! TO.N,Net-(Q1-G)*
G04 #@! TA.AperFunction,SMDPad,CuDef*
G36*
G01*
X76279000Y91007000D02*
X76279000Y91707000D01*
G75*
G02*
X76529000Y91957000I250000J0D01*
G01*
X78229000Y91957000D01*
G75*
G02*
X78479000Y91707000I0J-250000D01*
G01*
X78479000Y91007000D01*
G75*
G02*
X78229000Y90757000I-250000J0D01*
G01*
X76529000Y90757000D01*
G75*
G02*
X76279000Y91007000I0J250000D01*
G01*
G37*
G04 #@! TD.AperFunction*
G04 #@! TO.P,Q1,2,C*
G04 #@! TO.N,/IGN4/OUT1*
G04 #@! TA.AperFunction,SMDPad,CuDef*
G36*
G01*
X80479000Y89477000D02*
X80479000Y91727000D01*
G75*
G02*
X80729000Y91977000I250000J0D01*
G01*
X83279000Y91977000D01*
G75*
G02*
X83529000Y91727000I0J-250000D01*
G01*
X83529000Y89477000D01*
G75*
G02*
X83279000Y89227000I-250000J0D01*
G01*
X80729000Y89227000D01*
G75*
G02*
X80479000Y89477000I0J250000D01*
G01*
G37*
G04 #@! TD.AperFunction*
G04 #@! TA.AperFunction,SMDPad,CuDef*
G36*
G01*
X80479000Y86427000D02*
X80479000Y88677000D01*
G75*
G02*
X80729000Y88927000I250000J0D01*
G01*
X83279000Y88927000D01*
G75*
G02*
X83529000Y88677000I0J-250000D01*
G01*
X83529000Y86427000D01*
G75*
G02*
X83279000Y86177000I-250000J0D01*
G01*
X80729000Y86177000D01*
G75*
G02*
X80479000Y86427000I0J250000D01*
G01*
G37*
G04 #@! TD.AperFunction*
G04 #@! TA.AperFunction,SMDPad,CuDef*
G36*
G01*
X80479000Y86426997D02*
X80479000Y91727003D01*
G75*
G02*
X80728997Y91977000I249997J0D01*
G01*
X86629003Y91977000D01*
G75*
G02*
X86879000Y91727003I0J-249997D01*
G01*
X86879000Y86426997D01*
G75*
G02*
X86629003Y86177000I-249997J0D01*
G01*
X80728997Y86177000D01*
G75*
G02*
X80479000Y86426997I0J249997D01*
G01*
G37*
G04 #@! TD.AperFunction*
G04 #@! TA.AperFunction,SMDPad,CuDef*
G36*
G01*
X83829000Y89477000D02*
X83829000Y91727000D01*
G75*
G02*
X84079000Y91977000I250000J0D01*
G01*
X86629000Y91977000D01*
G75*
G02*
X86879000Y91727000I0J-250000D01*
G01*
X86879000Y89477000D01*
G75*
G02*
X86629000Y89227000I-250000J0D01*
G01*
X84079000Y89227000D01*
G75*
G02*
X83829000Y89477000I0J250000D01*
G01*
G37*
G04 #@! TD.AperFunction*
G04 #@! TA.AperFunction,SMDPad,CuDef*
G36*
G01*
X83829000Y86427000D02*
X83829000Y88677000D01*
G75*
G02*
X84079000Y88927000I250000J0D01*
G01*
X86629000Y88927000D01*
G75*
G02*
X86879000Y88677000I0J-250000D01*
G01*
X86879000Y86427000D01*
G75*
G02*
X86629000Y86177000I-250000J0D01*
G01*
X84079000Y86177000D01*
G75*
G02*
X83829000Y86427000I0J250000D01*
G01*
G37*
G04 #@! TD.AperFunction*
G04 #@! TO.P,Q1,3,E*
G04 #@! TO.N,GND*
G04 #@! TA.AperFunction,SMDPad,CuDef*
G36*
G01*
X76279000Y86447000D02*
X76279000Y87147000D01*
G75*
G02*
X76529000Y87397000I250000J0D01*
G01*
X78229000Y87397000D01*
G75*
G02*
X78479000Y87147000I0J-250000D01*
G01*
X78479000Y86447000D01*
G75*
G02*
X78229000Y86197000I-250000J0D01*
G01*
X76529000Y86197000D01*
G75*
G02*
X76279000Y86447000I0J250000D01*
G01*
G37*
G04 #@! TD.AperFunction*
G04 #@! TD*
G04 #@! TO.P,U3,1,IN1*
G04 #@! TO.N,/INJ4/IN3*
G04 #@! TA.AperFunction,SMDPad,CuDef*
G36*
G01*
X76401000Y50191641D02*
X76401000Y50491641D01*
G75*
G02*
X76551000Y50641641I150000J0D01*
G01*
X78201000Y50641641D01*
G75*
G02*
X78351000Y50491641I0J-150000D01*
G01*
X78351000Y50191641D01*
G75*
G02*
X78201000Y50041641I-150000J0D01*
G01*
X76551000Y50041641D01*
G75*
G02*
X76401000Y50191641I0J150000D01*
G01*
G37*
G04 #@! TD.AperFunction*
G04 #@! TO.P,U3,2,STATUS1*
G04 #@! TO.N,unconnected-(U3-STATUS1-Pad2)*
G04 #@! TA.AperFunction,SMDPad,CuDef*
G36*
G01*
X76401000Y48921641D02*
X76401000Y49221641D01*
G75*
G02*
X76551000Y49371641I150000J0D01*
G01*
X78201000Y49371641D01*
G75*
G02*
X78351000Y49221641I0J-150000D01*
G01*
X78351000Y48921641D01*
G75*
G02*
X78201000Y48771641I-150000J0D01*
G01*
X76551000Y48771641D01*
G75*
G02*
X76401000Y48921641I0J150000D01*
G01*
G37*
G04 #@! TD.AperFunction*
G04 #@! TO.P,U3,3,IN2*
G04 #@! TO.N,/INJ4/IN4*
G04 #@! TA.AperFunction,SMDPad,CuDef*
G36*
G01*
X76401000Y47651641D02*
X76401000Y47951641D01*
G75*
G02*
X76551000Y48101641I150000J0D01*
G01*
X78201000Y48101641D01*
G75*
G02*
X78351000Y47951641I0J-150000D01*
G01*
X78351000Y47651641D01*
G75*
G02*
X78201000Y47501641I-150000J0D01*
G01*
X76551000Y47501641D01*
G75*
G02*
X76401000Y47651641I0J150000D01*
G01*
G37*
G04 #@! TD.AperFunction*
G04 #@! TO.P,U3,4,STATUS2*
G04 #@! TO.N,unconnected-(U3-STATUS2-Pad4)*
G04 #@! TA.AperFunction,SMDPad,CuDef*
G36*
G01*
X76401000Y46381641D02*
X76401000Y46681641D01*
G75*
G02*
X76551000Y46831641I150000J0D01*
G01*
X78201000Y46831641D01*
G75*
G02*
X78351000Y46681641I0J-150000D01*
G01*
X78351000Y46381641D01*
G75*
G02*
X78201000Y46231641I-150000J0D01*
G01*
X76551000Y46231641D01*
G75*
G02*
X76401000Y46381641I0J150000D01*
G01*
G37*
G04 #@! TD.AperFunction*
G04 #@! TO.P,U3,5,S2*
G04 #@! TO.N,GND*
G04 #@! TA.AperFunction,SMDPad,CuDef*
G36*
G01*
X81351000Y46381641D02*
X81351000Y46681641D01*
G75*
G02*
X81501000Y46831641I150000J0D01*
G01*
X83151000Y46831641D01*
G75*
G02*
X83301000Y46681641I0J-150000D01*
G01*
X83301000Y46381641D01*
G75*
G02*
X83151000Y46231641I-150000J0D01*
G01*
X81501000Y46231641D01*
G75*
G02*
X81351000Y46381641I0J150000D01*
G01*
G37*
G04 #@! TD.AperFunction*
G04 #@! TO.P,U3,6,D2*
G04 #@! TO.N,/INJ4/OUT4*
G04 #@! TA.AperFunction,SMDPad,CuDef*
G36*
G01*
X81351000Y47651641D02*
X81351000Y47951641D01*
G75*
G02*
X81501000Y48101641I150000J0D01*
G01*
X83151000Y48101641D01*
G75*
G02*
X83301000Y47951641I0J-150000D01*
G01*
X83301000Y47651641D01*
G75*
G02*
X83151000Y47501641I-150000J0D01*
G01*
X81501000Y47501641D01*
G75*
G02*
X81351000Y47651641I0J150000D01*
G01*
G37*
G04 #@! TD.AperFunction*
G04 #@! TO.P,U3,7,S1*
G04 #@! TO.N,GND*
G04 #@! TA.AperFunction,SMDPad,CuDef*
G36*
G01*
X81351000Y48921641D02*
X81351000Y49221641D01*
G75*
G02*
X81501000Y49371641I150000J0D01*
G01*
X83151000Y49371641D01*
G75*
G02*
X83301000Y49221641I0J-150000D01*
G01*
X83301000Y48921641D01*
G75*
G02*
X83151000Y48771641I-150000J0D01*
G01*
X81501000Y48771641D01*
G75*
G02*
X81351000Y48921641I0J150000D01*
G01*
G37*
G04 #@! TD.AperFunction*
G04 #@! TO.P,U3,8,D1*
G04 #@! TO.N,/INJ4/OUT3*
G04 #@! TA.AperFunction,SMDPad,CuDef*
G36*
G01*
X81351000Y50191641D02*
X81351000Y50491641D01*
G75*
G02*
X81501000Y50641641I150000J0D01*
G01*
X83151000Y50641641D01*
G75*
G02*
X83301000Y50491641I0J-150000D01*
G01*
X83301000Y50191641D01*
G75*
G02*
X83151000Y50041641I-150000J0D01*
G01*
X81501000Y50041641D01*
G75*
G02*
X81351000Y50191641I0J150000D01*
G01*
G37*
G04 #@! TD.AperFunction*
G04 #@! TD*
D25*
G04 #@! TO.P,M6,E1,VBAT*
G04 #@! TO.N,Net-(M2-VBAT)*
X24018999Y60375005D03*
G04 #@! TO.P,M6,E2,V12*
G04 #@! TO.N,unconnected-(M6-V12-PadE2)*
X17619002Y60375005D03*
G04 #@! TO.P,M6,E3,VIGN*
G04 #@! TO.N,Net-(M2-IN_VIGN)*
X15718999Y60375005D03*
G04 #@! TO.P,M6,E4,V5*
G04 #@! TO.N,+5V*
X11418999Y60375005D03*
D10*
G04 #@! TO.P,M6,E5,EN_5VP*
G04 #@! TO.N,Net-(M2-OUT_PWR_EN)*
X9019002Y59925006D03*
G04 #@! TO.P,M6,E6,PG_5VP*
G04 #@! TO.N,unconnected-(M6-PG_5VP-PadE6)*
X8019001Y59925006D03*
D26*
G04 #@! TO.P,M6,S1,GND*
G04 #@! TO.N,GND*
X20168999Y76525001D03*
D27*
X11669001Y76525001D03*
D28*
X4568999Y76525001D03*
D29*
X4518999Y68125003D03*
D30*
X25118999Y67325002D03*
D25*
X5168999Y60375005D03*
D28*
X25068999Y59725004D03*
D31*
X20869001Y59725004D03*
D32*
X13518999Y59725004D03*
D33*
X10019002Y59725004D03*
D34*
X6719001Y59725004D03*
D25*
G04 #@! TO.P,M6,V1,V12_PERM*
G04 #@! TO.N,Net-(M6-IN_VIGN)*
X24469001Y75875002D03*
G04 #@! TO.P,M6,V2,IN_VIGN*
X22619002Y75875002D03*
G04 #@! TO.P,M6,V3,V12_RAW*
X17668999Y75875002D03*
G04 #@! TO.P,M6,V4,5VP*
G04 #@! TO.N,+5VP*
X5619001Y75875002D03*
G04 #@! TD*
G04 #@! TO.P,R10,1*
G04 #@! TO.N,Net-(Q2-G)*
G04 #@! TA.AperFunction,SMDPad,CuDef*
G36*
G01*
X92286000Y70276000D02*
X92286000Y71056000D01*
G75*
G02*
X92356000Y71126000I70000J0D01*
G01*
X92916000Y71126000D01*
G75*
G02*
X92986000Y71056000I0J-70000D01*
G01*
X92986000Y70276000D01*
G75*
G02*
X92916000Y70206000I-70000J0D01*
G01*
X92356000Y70206000D01*
G75*
G02*
X92286000Y70276000I0J70000D01*
G01*
G37*
G04 #@! TD.AperFunction*
G04 #@! TO.P,R10,2*
G04 #@! TO.N,Net-(F2-Pad1)*
G04 #@! TA.AperFunction,SMDPad,CuDef*
G36*
G01*
X93886000Y70276000D02*
X93886000Y71056000D01*
G75*
G02*
X93956000Y71126000I70000J0D01*
G01*
X94516000Y71126000D01*
G75*
G02*
X94586000Y71056000I0J-70000D01*
G01*
X94586000Y70276000D01*
G75*
G02*
X94516000Y70206000I-70000J0D01*
G01*
X93956000Y70206000D01*
G75*
G02*
X93886000Y70276000I0J70000D01*
G01*
G37*
G04 #@! TD.AperFunction*
G04 #@! TD*
D35*
G04 #@! TO.P,M4,E1,LSU_Un*
G04 #@! TO.N,unconnected-(M4-LSU_Un-PadE1)*
X27865000Y3539000D03*
G04 #@! TO.P,M4,E2,LSU_Vm*
G04 #@! TO.N,unconnected-(M4-LSU_Vm-PadE2)*
X27865000Y6539000D03*
G04 #@! TO.P,M4,E3,LSU_Ip*
G04 #@! TO.N,unconnected-(M4-LSU_Ip-PadE3)*
X27865000Y5539000D03*
G04 #@! TO.P,M4,E4,LSU_Rtrim*
G04 #@! TO.N,unconnected-(M4-LSU_Rtrim-PadE4)*
X27865000Y4539000D03*
D36*
G04 #@! TO.P,M4,E5,LSU_H+*
G04 #@! TO.N,unconnected-(M4-LSU_H+-PadE5)*
X26615000Y8689000D03*
D37*
G04 #@! TO.P,M4,E6,LSU_H-*
G04 #@! TO.N,unconnected-(M4-LSU_H--PadE6)*
X28240000Y12189000D03*
D38*
G04 #@! TO.P,M4,G,GND*
G04 #@! TO.N,unconnected-(M4-GND-PadG)*
X890000Y15389000D03*
D39*
X890000Y11049000D03*
X890000Y7749000D03*
D40*
X890000Y2664000D03*
D41*
X14565000Y15814000D03*
X14565000Y2064000D03*
D42*
X28240000Y14964000D03*
D43*
X28240000Y2414000D03*
G04 #@! TO.P,M4,J1,SEL1*
G04 #@! TO.N,unconnected-(M4-SEL1-PadJ1)*
G04 #@! TA.AperFunction,SMDPad,CuDef*
G36*
G01*
X10315000Y14789000D02*
X10315000Y13539000D01*
G75*
G02*
X10190000Y13414000I-125000J0D01*
G01*
X9940000Y13414000D01*
G75*
G02*
X9815000Y13539000I0J125000D01*
G01*
X9815000Y14789000D01*
G75*
G02*
X9940000Y14914000I125000J0D01*
G01*
X10190000Y14914000D01*
G75*
G02*
X10315000Y14789000I0J-125000D01*
G01*
G37*
G04 #@! TD.AperFunction*
G04 #@! TO.P,M4,J2,SEL2*
G04 #@! TO.N,unconnected-(M4-SEL2-PadJ2)*
G04 #@! TA.AperFunction,SMDPad,CuDef*
G36*
G01*
X8640000Y12114000D02*
X8640000Y11864000D01*
G75*
G02*
X8515000Y11739000I-125000J0D01*
G01*
X7265000Y11739000D01*
G75*
G02*
X7140000Y11864000I0J125000D01*
G01*
X7140000Y12114000D01*
G75*
G02*
X7265000Y12239000I125000J0D01*
G01*
X8515000Y12239000D01*
G75*
G02*
X8640000Y12114000I0J-125000D01*
G01*
G37*
G04 #@! TD.AperFunction*
G04 #@! TO.P,M4,J_GND1,PULL_DOWN1*
G04 #@! TO.N,unconnected-(M4-PULL_DOWN1-PadJ_GND1)*
G04 #@! TA.AperFunction,SMDPad,CuDef*
G36*
G01*
X9515000Y14789000D02*
X9515000Y13539000D01*
G75*
G02*
X9390000Y13414000I-125000J0D01*
G01*
X9140000Y13414000D01*
G75*
G02*
X9015000Y13539000I0J125000D01*
G01*
X9015000Y14789000D01*
G75*
G02*
X9140000Y14914000I125000J0D01*
G01*
X9390000Y14914000D01*
G75*
G02*
X9515000Y14789000I0J-125000D01*
G01*
G37*
G04 #@! TD.AperFunction*
G04 #@! TO.P,M4,J_GND2,PULL_DOWN2*
G04 #@! TO.N,unconnected-(M4-PULL_DOWN2-PadJ_GND2)*
G04 #@! TA.AperFunction,SMDPad,CuDef*
G36*
G01*
X9190000Y12239000D02*
X9440000Y12239000D01*
G75*
G02*
X9565000Y12114000I0J-125000D01*
G01*
X9565000Y11864000D01*
G75*
G02*
X9440000Y11739000I-125000J0D01*
G01*
X9190000Y11739000D01*
G75*
G02*
X9065000Y11864000I0J125000D01*
G01*
X9065000Y12114000D01*
G75*
G02*
X9190000Y12239000I125000J0D01*
G01*
G37*
G04 #@! TD.AperFunction*
G04 #@! TO.P,M4,J_VCC1,PULL_UP1*
G04 #@! TO.N,unconnected-(M4-PULL_UP1-PadJ_VCC1)*
G04 #@! TA.AperFunction,SMDPad,CuDef*
G36*
G01*
X10315000Y12914000D02*
X10315000Y12664000D01*
G75*
G02*
X10190000Y12539000I-125000J0D01*
G01*
X9940000Y12539000D01*
G75*
G02*
X9815000Y12664000I0J125000D01*
G01*
X9815000Y12914000D01*
G75*
G02*
X9940000Y13039000I125000J0D01*
G01*
X10190000Y13039000D01*
G75*
G02*
X10315000Y12914000I0J-125000D01*
G01*
G37*
G04 #@! TD.AperFunction*
G04 #@! TO.P,M4,J_VCC2,PULL_UP2*
G04 #@! TO.N,unconnected-(M4-PULL_UP2-PadJ_VCC2)*
G04 #@! TA.AperFunction,SMDPad,CuDef*
G36*
G01*
X8640000Y12914000D02*
X8640000Y12664000D01*
G75*
G02*
X8515000Y12539000I-125000J0D01*
G01*
X7265000Y12539000D01*
G75*
G02*
X7140000Y12664000I0J125000D01*
G01*
X7140000Y12914000D01*
G75*
G02*
X7265000Y13039000I125000J0D01*
G01*
X8515000Y13039000D01*
G75*
G02*
X8640000Y12914000I0J-125000D01*
G01*
G37*
G04 #@! TD.AperFunction*
D35*
G04 #@! TO.P,M4,W1,V5_IN*
G04 #@! TO.N,unconnected-(M4-V5_IN-PadW1)*
X1273800Y13189000D03*
G04 #@! TO.P,M4,W2,CAN_VIO*
G04 #@! TO.N,unconnected-(M4-CAN_VIO-PadW2)*
X1273800Y12189000D03*
G04 #@! TO.P,M4,W3,CANL*
G04 #@! TO.N,unconnected-(M4-CANL-PadW3)*
X1273800Y8893000D03*
G04 #@! TO.P,M4,W4,CANH*
G04 #@! TO.N,unconnected-(M4-CANH-PadW4)*
X1273800Y9909000D03*
G04 #@! TO.P,M4,W5,nReset*
G04 #@! TO.N,unconnected-(M4-nReset-PadW5)*
G04 #@! TA.AperFunction,SMDPad,CuDef*
G36*
G01*
X765000Y6889000D02*
X765000Y6889000D01*
G75*
G02*
X890000Y7014000I125000J0D01*
G01*
X1140000Y7014000D01*
G75*
G02*
X1265000Y6889000I0J-125000D01*
G01*
X1265000Y6889000D01*
G75*
G02*
X1140000Y6764000I-125000J0D01*
G01*
X890000Y6764000D01*
G75*
G02*
X765000Y6889000I0J125000D01*
G01*
G37*
G04 #@! TD.AperFunction*
G04 #@! TO.P,M4,W6,SWDIO*
G04 #@! TO.N,unconnected-(M4-SWDIO-PadW6)*
G04 #@! TA.AperFunction,SMDPad,CuDef*
G36*
G01*
X765000Y6389000D02*
X765000Y6389000D01*
G75*
G02*
X890000Y6514000I125000J0D01*
G01*
X1140000Y6514000D01*
G75*
G02*
X1265000Y6389000I0J-125000D01*
G01*
X1265000Y6389000D01*
G75*
G02*
X1140000Y6264000I-125000J0D01*
G01*
X890000Y6264000D01*
G75*
G02*
X765000Y6389000I0J125000D01*
G01*
G37*
G04 #@! TD.AperFunction*
G04 #@! TO.P,M4,W7,SWCLK*
G04 #@! TO.N,unconnected-(M4-SWCLK-PadW7)*
G04 #@! TA.AperFunction,SMDPad,CuDef*
G36*
G01*
X765000Y5889000D02*
X765000Y5889000D01*
G75*
G02*
X890000Y6014000I125000J0D01*
G01*
X1140000Y6014000D01*
G75*
G02*
X1265000Y5889000I0J-125000D01*
G01*
X1265000Y5889000D01*
G75*
G02*
X1140000Y5764000I-125000J0D01*
G01*
X890000Y5764000D01*
G75*
G02*
X765000Y5889000I0J125000D01*
G01*
G37*
G04 #@! TD.AperFunction*
G04 #@! TO.P,M4,W8,V33_OUT*
G04 #@! TO.N,unconnected-(M4-V33_OUT-PadW8)*
G04 #@! TA.AperFunction,SMDPad,CuDef*
G36*
G01*
X765000Y3789000D02*
X765000Y3789000D01*
G75*
G02*
X890000Y3914000I125000J0D01*
G01*
X1140000Y3914000D01*
G75*
G02*
X1265000Y3789000I0J-125000D01*
G01*
X1265000Y3789000D01*
G75*
G02*
X1140000Y3664000I-125000J0D01*
G01*
X890000Y3664000D01*
G75*
G02*
X765000Y3789000I0J125000D01*
G01*
G37*
G04 #@! TD.AperFunction*
G04 #@! TO.P,M4,W9,VDDA*
G04 #@! TO.N,unconnected-(M4-VDDA-PadW9)*
X1273800Y14189000D03*
G04 #@! TD*
G04 #@! TO.P,R9,1*
G04 #@! TO.N,Net-(Q1-G)*
G04 #@! TA.AperFunction,SMDPad,CuDef*
G36*
G01*
X92286000Y72225046D02*
X92286000Y73005046D01*
G75*
G02*
X92356000Y73075046I70000J0D01*
G01*
X92916000Y73075046D01*
G75*
G02*
X92986000Y73005046I0J-70000D01*
G01*
X92986000Y72225046D01*
G75*
G02*
X92916000Y72155046I-70000J0D01*
G01*
X92356000Y72155046D01*
G75*
G02*
X92286000Y72225046I0J70000D01*
G01*
G37*
G04 #@! TD.AperFunction*
G04 #@! TO.P,R9,2*
G04 #@! TO.N,Net-(F1-Pad1)*
G04 #@! TA.AperFunction,SMDPad,CuDef*
G36*
G01*
X93886000Y72225046D02*
X93886000Y73005046D01*
G75*
G02*
X93956000Y73075046I70000J0D01*
G01*
X94516000Y73075046D01*
G75*
G02*
X94586000Y73005046I0J-70000D01*
G01*
X94586000Y72225046D01*
G75*
G02*
X94516000Y72155046I-70000J0D01*
G01*
X93956000Y72155046D01*
G75*
G02*
X93886000Y72225046I0J70000D01*
G01*
G37*
G04 #@! TD.AperFunction*
G04 #@! TD*
G04 #@! TO.P,F1,1*
G04 #@! TO.N,Net-(F1-Pad1)*
G04 #@! TA.AperFunction,SMDPad,CuDef*
G36*
G01*
X88556000Y72080391D02*
X88556000Y72592891D01*
G75*
G02*
X88774750Y72811641I218750J0D01*
G01*
X89212250Y72811641D01*
G75*
G02*
X89431000Y72592891I0J-218750D01*
G01*
X89431000Y72080391D01*
G75*
G02*
X89212250Y71861641I-218750J0D01*
G01*
X88774750Y71861641D01*
G75*
G02*
X88556000Y72080391I0J218750D01*
G01*
G37*
G04 #@! TD.AperFunction*
G04 #@! TO.P,F1,2*
G04 #@! TO.N,/IGN4/IN1*
G04 #@! TA.AperFunction,SMDPad,CuDef*
G36*
G01*
X90131000Y72080391D02*
X90131000Y72592891D01*
G75*
G02*
X90349750Y72811641I218750J0D01*
G01*
X90787250Y72811641D01*
G75*
G02*
X91006000Y72592891I0J-218750D01*
G01*
X91006000Y72080391D01*
G75*
G02*
X90787250Y71861641I-218750J0D01*
G01*
X90349750Y71861641D01*
G75*
G02*
X90131000Y72080391I0J218750D01*
G01*
G37*
G04 #@! TD.AperFunction*
G04 #@! TD*
G04 #@! TO.P,R12,1*
G04 #@! TO.N,Net-(F2-Pad1)*
G04 #@! TA.AperFunction,SMDPad,CuDef*
G36*
G01*
X88546000Y84391641D02*
X88546000Y87241641D01*
G75*
G02*
X88796000Y87491641I250000J0D01*
G01*
X89521000Y87491641D01*
G75*
G02*
X89771000Y87241641I0J-250000D01*
G01*
X89771000Y84391641D01*
G75*
G02*
X89521000Y84141641I-250000J0D01*
G01*
X88796000Y84141641D01*
G75*
G02*
X88546000Y84391641I0J250000D01*
G01*
G37*
G04 #@! TD.AperFunction*
G04 #@! TO.P,R12,2*
G04 #@! TO.N,/IGN4/OUT2*
G04 #@! TA.AperFunction,SMDPad,CuDef*
G36*
G01*
X94471000Y84391641D02*
X94471000Y87241641D01*
G75*
G02*
X94721000Y87491641I250000J0D01*
G01*
X95446000Y87491641D01*
G75*
G02*
X95696000Y87241641I0J-250000D01*
G01*
X95696000Y84391641D01*
G75*
G02*
X95446000Y84141641I-250000J0D01*
G01*
X94721000Y84141641D01*
G75*
G02*
X94471000Y84391641I0J250000D01*
G01*
G37*
G04 #@! TD.AperFunction*
G04 #@! TD*
G04 #@! TO.P,U4,1,IN1*
G04 #@! TO.N,/LS_PROTECTED_2/IN1*
G04 #@! TA.AperFunction,SMDPad,CuDef*
G36*
G01*
X87111000Y41611641D02*
X87111000Y41911641D01*
G75*
G02*
X87261000Y42061641I150000J0D01*
G01*
X88911000Y42061641D01*
G75*
G02*
X89061000Y41911641I0J-150000D01*
G01*
X89061000Y41611641D01*
G75*
G02*
X88911000Y41461641I-150000J0D01*
G01*
X87261000Y41461641D01*
G75*
G02*
X87111000Y41611641I0J150000D01*
G01*
G37*
G04 #@! TD.AperFunction*
G04 #@! TO.P,U4,2,STATUS1*
G04 #@! TO.N,unconnected-(U4-STATUS1-Pad2)*
G04 #@! TA.AperFunction,SMDPad,CuDef*
G36*
G01*
X87111000Y40341641D02*
X87111000Y40641641D01*
G75*
G02*
X87261000Y40791641I150000J0D01*
G01*
X88911000Y40791641D01*
G75*
G02*
X89061000Y40641641I0J-150000D01*
G01*
X89061000Y40341641D01*
G75*
G02*
X88911000Y40191641I-150000J0D01*
G01*
X87261000Y40191641D01*
G75*
G02*
X87111000Y40341641I0J150000D01*
G01*
G37*
G04 #@! TD.AperFunction*
G04 #@! TO.P,U4,3,IN2*
G04 #@! TO.N,/LS_PROTECTED_2/IN2*
G04 #@! TA.AperFunction,SMDPad,CuDef*
G36*
G01*
X87111000Y39071641D02*
X87111000Y39371641D01*
G75*
G02*
X87261000Y39521641I150000J0D01*
G01*
X88911000Y39521641D01*
G75*
G02*
X89061000Y39371641I0J-150000D01*
G01*
X89061000Y39071641D01*
G75*
G02*
X88911000Y38921641I-150000J0D01*
G01*
X87261000Y38921641D01*
G75*
G02*
X87111000Y39071641I0J150000D01*
G01*
G37*
G04 #@! TD.AperFunction*
G04 #@! TO.P,U4,4,STATUS2*
G04 #@! TO.N,unconnected-(U4-STATUS2-Pad4)*
G04 #@! TA.AperFunction,SMDPad,CuDef*
G36*
G01*
X87111000Y37801641D02*
X87111000Y38101641D01*
G75*
G02*
X87261000Y38251641I150000J0D01*
G01*
X88911000Y38251641D01*
G75*
G02*
X89061000Y38101641I0J-150000D01*
G01*
X89061000Y37801641D01*
G75*
G02*
X88911000Y37651641I-150000J0D01*
G01*
X87261000Y37651641D01*
G75*
G02*
X87111000Y37801641I0J150000D01*
G01*
G37*
G04 #@! TD.AperFunction*
G04 #@! TO.P,U4,5,S2*
G04 #@! TO.N,GND*
G04 #@! TA.AperFunction,SMDPad,CuDef*
G36*
G01*
X92061000Y37801641D02*
X92061000Y38101641D01*
G75*
G02*
X92211000Y38251641I150000J0D01*
G01*
X93861000Y38251641D01*
G75*
G02*
X94011000Y38101641I0J-150000D01*
G01*
X94011000Y37801641D01*
G75*
G02*
X93861000Y37651641I-150000J0D01*
G01*
X92211000Y37651641D01*
G75*
G02*
X92061000Y37801641I0J150000D01*
G01*
G37*
G04 #@! TD.AperFunction*
G04 #@! TO.P,U4,6,D2*
G04 #@! TO.N,/LS_PROTECTED_2/OUT2*
G04 #@! TA.AperFunction,SMDPad,CuDef*
G36*
G01*
X92061000Y39071641D02*
X92061000Y39371641D01*
G75*
G02*
X92211000Y39521641I150000J0D01*
G01*
X93861000Y39521641D01*
G75*
G02*
X94011000Y39371641I0J-150000D01*
G01*
X94011000Y39071641D01*
G75*
G02*
X93861000Y38921641I-150000J0D01*
G01*
X92211000Y38921641D01*
G75*
G02*
X92061000Y39071641I0J150000D01*
G01*
G37*
G04 #@! TD.AperFunction*
G04 #@! TO.P,U4,7,S1*
G04 #@! TO.N,GND*
G04 #@! TA.AperFunction,SMDPad,CuDef*
G36*
G01*
X92061000Y40341641D02*
X92061000Y40641641D01*
G75*
G02*
X92211000Y40791641I150000J0D01*
G01*
X93861000Y40791641D01*
G75*
G02*
X94011000Y40641641I0J-150000D01*
G01*
X94011000Y40341641D01*
G75*
G02*
X93861000Y40191641I-150000J0D01*
G01*
X92211000Y40191641D01*
G75*
G02*
X92061000Y40341641I0J150000D01*
G01*
G37*
G04 #@! TD.AperFunction*
G04 #@! TO.P,U4,8,D1*
G04 #@! TO.N,/LS_PROTECTED_2/OUT1*
G04 #@! TA.AperFunction,SMDPad,CuDef*
G36*
G01*
X92061000Y41611641D02*
X92061000Y41911641D01*
G75*
G02*
X92211000Y42061641I150000J0D01*
G01*
X93861000Y42061641D01*
G75*
G02*
X94011000Y41911641I0J-150000D01*
G01*
X94011000Y41611641D01*
G75*
G02*
X93861000Y41461641I-150000J0D01*
G01*
X92211000Y41461641D01*
G75*
G02*
X92061000Y41611641I0J150000D01*
G01*
G37*
G04 #@! TD.AperFunction*
G04 #@! TD*
G04 #@! TO.P,D3,1,K*
G04 #@! TO.N,+12V_RAW*
G04 #@! TA.AperFunction,SMDPad,CuDef*
G36*
G01*
X76336000Y34561641D02*
X76336000Y35581641D01*
G75*
G02*
X76426000Y35671641I90000J0D01*
G01*
X77146000Y35671641D01*
G75*
G02*
X77236000Y35581641I0J-90000D01*
G01*
X77236000Y34561641D01*
G75*
G02*
X77146000Y34471641I-90000J0D01*
G01*
X76426000Y34471641D01*
G75*
G02*
X76336000Y34561641I0J90000D01*
G01*
G37*
G04 #@! TD.AperFunction*
G04 #@! TO.P,D3,2,A*
G04 #@! TO.N,/LS_PROTECTED_2/OUT1*
G04 #@! TA.AperFunction,SMDPad,CuDef*
G36*
G01*
X79636000Y34561641D02*
X79636000Y35581641D01*
G75*
G02*
X79726000Y35671641I90000J0D01*
G01*
X80446000Y35671641D01*
G75*
G02*
X80536000Y35581641I0J-90000D01*
G01*
X80536000Y34561641D01*
G75*
G02*
X80446000Y34471641I-90000J0D01*
G01*
X79726000Y34471641D01*
G75*
G02*
X79636000Y34561641I0J90000D01*
G01*
G37*
G04 #@! TD.AperFunction*
G04 #@! TD*
D10*
G04 #@! TO.P,M5,E1,HALL_EN*
G04 #@! TO.N,unconnected-(M5-HALL_EN-PadE1)*
X41618000Y73514000D03*
G04 #@! TO.P,M5,E2,NC*
G04 #@! TO.N,unconnected-(M5-NC-PadE2)*
X41618000Y72314000D03*
G04 #@! TO.P,M5,E3,OUT*
G04 #@! TO.N,Net-(M2-IN_CAM)*
X41618000Y74714000D03*
G04 #@! TO.P,M5,E4,V5_IN*
G04 #@! TO.N,+5VP*
X41618000Y75914000D03*
D44*
G04 #@! TO.P,M5,G,GND*
G04 #@! TO.N,GND*
X26968000Y73246500D03*
D45*
X26968000Y67196500D03*
D46*
X33980500Y76214000D03*
D47*
X34393000Y66764000D03*
D48*
X41818000Y69226500D03*
D10*
G04 #@! TO.P,M5,W1,VR-/HALL*
G04 #@! TO.N,unconnected-(M5-VR-{slash}HALL-PadW1)*
X27193000Y69454000D03*
G04 #@! TO.P,M5,W2,VR+*
G04 #@! TO.N,unconnected-(M5-VR+-PadW2)*
X27193000Y68454000D03*
G04 #@! TD*
G04 #@! TO.P,D4,1,K*
G04 #@! TO.N,+12V_RAW*
G04 #@! TA.AperFunction,SMDPad,CuDef*
G36*
G01*
X76336000Y31441641D02*
X76336000Y32461641D01*
G75*
G02*
X76426000Y32551641I90000J0D01*
G01*
X77146000Y32551641D01*
G75*
G02*
X77236000Y32461641I0J-90000D01*
G01*
X77236000Y31441641D01*
G75*
G02*
X77146000Y31351641I-90000J0D01*
G01*
X76426000Y31351641D01*
G75*
G02*
X76336000Y31441641I0J90000D01*
G01*
G37*
G04 #@! TD.AperFunction*
G04 #@! TO.P,D4,2,A*
G04 #@! TO.N,/LS_PROTECTED_2/OUT2*
G04 #@! TA.AperFunction,SMDPad,CuDef*
G36*
G01*
X79636000Y31441641D02*
X79636000Y32461641D01*
G75*
G02*
X79726000Y32551641I90000J0D01*
G01*
X80446000Y32551641D01*
G75*
G02*
X80536000Y32461641I0J-90000D01*
G01*
X80536000Y31441641D01*
G75*
G02*
X80446000Y31351641I-90000J0D01*
G01*
X79726000Y31351641D01*
G75*
G02*
X79636000Y31441641I0J90000D01*
G01*
G37*
G04 #@! TD.AperFunction*
G04 #@! TD*
G04 #@! TO.P,F4,1*
G04 #@! TO.N,Net-(F4-Pad1)*
G04 #@! TA.AperFunction,SMDPad,CuDef*
G36*
G01*
X88556000Y64550391D02*
X88556000Y65062891D01*
G75*
G02*
X88774750Y65281641I218750J0D01*
G01*
X89212250Y65281641D01*
G75*
G02*
X89431000Y65062891I0J-218750D01*
G01*
X89431000Y64550391D01*
G75*
G02*
X89212250Y64331641I-218750J0D01*
G01*
X88774750Y64331641D01*
G75*
G02*
X88556000Y64550391I0J218750D01*
G01*
G37*
G04 #@! TD.AperFunction*
G04 #@! TO.P,F4,2*
G04 #@! TO.N,/IGN4/IN4*
G04 #@! TA.AperFunction,SMDPad,CuDef*
G36*
G01*
X90131000Y64550391D02*
X90131000Y65062891D01*
G75*
G02*
X90349750Y65281641I218750J0D01*
G01*
X90787250Y65281641D01*
G75*
G02*
X91006000Y65062891I0J-218750D01*
G01*
X91006000Y64550391D01*
G75*
G02*
X90787250Y64331641I-218750J0D01*
G01*
X90349750Y64331641D01*
G75*
G02*
X90131000Y64550391I0J218750D01*
G01*
G37*
G04 #@! TD.AperFunction*
G04 #@! TD*
G04 #@! TO.P,M1,E1,HALL_EN*
G04 #@! TO.N,unconnected-(M1-HALL_EN-PadE1)*
X67485000Y48785000D03*
G04 #@! TO.P,M1,E2,NC*
G04 #@! TO.N,unconnected-(M1-NC-PadE2)*
X67485000Y47585000D03*
G04 #@! TO.P,M1,E3,OUT*
G04 #@! TO.N,Net-(M1-OUT)*
X67485000Y49985000D03*
G04 #@! TO.P,M1,E4,V5_IN*
G04 #@! TO.N,+5VP*
X67485000Y51185000D03*
D44*
G04 #@! TO.P,M1,G,GND*
G04 #@! TO.N,GND*
X52835000Y48517500D03*
D45*
X52835000Y42467500D03*
D46*
X59847500Y51485000D03*
D47*
X60260000Y42035000D03*
D48*
X67685000Y44497500D03*
D10*
G04 #@! TO.P,M1,W1,VR-/HALL*
G04 #@! TO.N,unconnected-(M1-VR-{slash}HALL-PadW1)*
X53060000Y44725000D03*
G04 #@! TO.P,M1,W2,VR+*
G04 #@! TO.N,unconnected-(M1-VR+-PadW2)*
X53060000Y43725000D03*
G04 #@! TD*
G04 #@! TO.P,F3,1*
G04 #@! TO.N,Net-(F3-Pad1)*
G04 #@! TA.AperFunction,SMDPad,CuDef*
G36*
G01*
X88556000Y67060391D02*
X88556000Y67572891D01*
G75*
G02*
X88774750Y67791641I218750J0D01*
G01*
X89212250Y67791641D01*
G75*
G02*
X89431000Y67572891I0J-218750D01*
G01*
X89431000Y67060391D01*
G75*
G02*
X89212250Y66841641I-218750J0D01*
G01*
X88774750Y66841641D01*
G75*
G02*
X88556000Y67060391I0J218750D01*
G01*
G37*
G04 #@! TD.AperFunction*
G04 #@! TO.P,F3,2*
G04 #@! TO.N,/IGN4/IN3*
G04 #@! TA.AperFunction,SMDPad,CuDef*
G36*
G01*
X90131000Y67060391D02*
X90131000Y67572891D01*
G75*
G02*
X90349750Y67791641I218750J0D01*
G01*
X90787250Y67791641D01*
G75*
G02*
X91006000Y67572891I0J-218750D01*
G01*
X91006000Y67060391D01*
G75*
G02*
X90787250Y66841641I-218750J0D01*
G01*
X90349750Y66841641D01*
G75*
G02*
X90131000Y67060391I0J218750D01*
G01*
G37*
G04 #@! TD.AperFunction*
G04 #@! TD*
G04 #@! TO.P,U2,1,IN1*
G04 #@! TO.N,/INJ4/IN1*
G04 #@! TA.AperFunction,SMDPad,CuDef*
G36*
G01*
X76401000Y56771641D02*
X76401000Y57071641D01*
G75*
G02*
X76551000Y57221641I150000J0D01*
G01*
X78201000Y57221641D01*
G75*
G02*
X78351000Y57071641I0J-150000D01*
G01*
X78351000Y56771641D01*
G75*
G02*
X78201000Y56621641I-150000J0D01*
G01*
X76551000Y56621641D01*
G75*
G02*
X76401000Y56771641I0J150000D01*
G01*
G37*
G04 #@! TD.AperFunction*
G04 #@! TO.P,U2,2,STATUS1*
G04 #@! TO.N,unconnected-(U2-STATUS1-Pad2)*
G04 #@! TA.AperFunction,SMDPad,CuDef*
G36*
G01*
X76401000Y55501641D02*
X76401000Y55801641D01*
G75*
G02*
X76551000Y55951641I150000J0D01*
G01*
X78201000Y55951641D01*
G75*
G02*
X78351000Y55801641I0J-150000D01*
G01*
X78351000Y55501641D01*
G75*
G02*
X78201000Y55351641I-150000J0D01*
G01*
X76551000Y55351641D01*
G75*
G02*
X76401000Y55501641I0J150000D01*
G01*
G37*
G04 #@! TD.AperFunction*
G04 #@! TO.P,U2,3,IN2*
G04 #@! TO.N,/INJ4/IN2*
G04 #@! TA.AperFunction,SMDPad,CuDef*
G36*
G01*
X76401000Y54231641D02*
X76401000Y54531641D01*
G75*
G02*
X76551000Y54681641I150000J0D01*
G01*
X78201000Y54681641D01*
G75*
G02*
X78351000Y54531641I0J-150000D01*
G01*
X78351000Y54231641D01*
G75*
G02*
X78201000Y54081641I-150000J0D01*
G01*
X76551000Y54081641D01*
G75*
G02*
X76401000Y54231641I0J150000D01*
G01*
G37*
G04 #@! TD.AperFunction*
G04 #@! TO.P,U2,4,STATUS2*
G04 #@! TO.N,unconnected-(U2-STATUS2-Pad4)*
G04 #@! TA.AperFunction,SMDPad,CuDef*
G36*
G01*
X76401000Y52961641D02*
X76401000Y53261641D01*
G75*
G02*
X76551000Y53411641I150000J0D01*
G01*
X78201000Y53411641D01*
G75*
G02*
X78351000Y53261641I0J-150000D01*
G01*
X78351000Y52961641D01*
G75*
G02*
X78201000Y52811641I-150000J0D01*
G01*
X76551000Y52811641D01*
G75*
G02*
X76401000Y52961641I0J150000D01*
G01*
G37*
G04 #@! TD.AperFunction*
G04 #@! TO.P,U2,5,S2*
G04 #@! TO.N,GND*
G04 #@! TA.AperFunction,SMDPad,CuDef*
G36*
G01*
X81351000Y52961641D02*
X81351000Y53261641D01*
G75*
G02*
X81501000Y53411641I150000J0D01*
G01*
X83151000Y53411641D01*
G75*
G02*
X83301000Y53261641I0J-150000D01*
G01*
X83301000Y52961641D01*
G75*
G02*
X83151000Y52811641I-150000J0D01*
G01*
X81501000Y52811641D01*
G75*
G02*
X81351000Y52961641I0J150000D01*
G01*
G37*
G04 #@! TD.AperFunction*
G04 #@! TO.P,U2,6,D2*
G04 #@! TO.N,/INJ4/OUT2*
G04 #@! TA.AperFunction,SMDPad,CuDef*
G36*
G01*
X81351000Y54231641D02*
X81351000Y54531641D01*
G75*
G02*
X81501000Y54681641I150000J0D01*
G01*
X83151000Y54681641D01*
G75*
G02*
X83301000Y54531641I0J-150000D01*
G01*
X83301000Y54231641D01*
G75*
G02*
X83151000Y54081641I-150000J0D01*
G01*
X81501000Y54081641D01*
G75*
G02*
X81351000Y54231641I0J150000D01*
G01*
G37*
G04 #@! TD.AperFunction*
G04 #@! TO.P,U2,7,S1*
G04 #@! TO.N,GND*
G04 #@! TA.AperFunction,SMDPad,CuDef*
G36*
G01*
X81351000Y55501641D02*
X81351000Y55801641D01*
G75*
G02*
X81501000Y55951641I150000J0D01*
G01*
X83151000Y55951641D01*
G75*
G02*
X83301000Y55801641I0J-150000D01*
G01*
X83301000Y55501641D01*
G75*
G02*
X83151000Y55351641I-150000J0D01*
G01*
X81501000Y55351641D01*
G75*
G02*
X81351000Y55501641I0J150000D01*
G01*
G37*
G04 #@! TD.AperFunction*
G04 #@! TO.P,U2,8,D1*
G04 #@! TO.N,/INJ4/OUT1*
G04 #@! TA.AperFunction,SMDPad,CuDef*
G36*
G01*
X81351000Y56771641D02*
X81351000Y57071641D01*
G75*
G02*
X81501000Y57221641I150000J0D01*
G01*
X83151000Y57221641D01*
G75*
G02*
X83301000Y57071641I0J-150000D01*
G01*
X83301000Y56771641D01*
G75*
G02*
X83151000Y56621641I-150000J0D01*
G01*
X81501000Y56621641D01*
G75*
G02*
X81351000Y56771641I0J150000D01*
G01*
G37*
G04 #@! TD.AperFunction*
G04 #@! TD*
G04 #@! TO.P,Q4,1,G*
G04 #@! TO.N,Net-(Q4-G)*
G04 #@! TA.AperFunction,SMDPad,CuDef*
G36*
G01*
X76401000Y66326641D02*
X76401000Y67026641D01*
G75*
G02*
X76651000Y67276641I250000J0D01*
G01*
X78351000Y67276641D01*
G75*
G02*
X78601000Y67026641I0J-250000D01*
G01*
X78601000Y66326641D01*
G75*
G02*
X78351000Y66076641I-250000J0D01*
G01*
X76651000Y66076641D01*
G75*
G02*
X76401000Y66326641I0J250000D01*
G01*
G37*
G04 #@! TD.AperFunction*
G04 #@! TO.P,Q4,2,C*
G04 #@! TO.N,/IGN4/OUT4*
G04 #@! TA.AperFunction,SMDPad,CuDef*
G36*
G01*
X80601000Y64796641D02*
X80601000Y67046641D01*
G75*
G02*
X80851000Y67296641I250000J0D01*
G01*
X83401000Y67296641D01*
G75*
G02*
X83651000Y67046641I0J-250000D01*
G01*
X83651000Y64796641D01*
G75*
G02*
X83401000Y64546641I-250000J0D01*
G01*
X80851000Y64546641D01*
G75*
G02*
X80601000Y64796641I0J250000D01*
G01*
G37*
G04 #@! TD.AperFunction*
G04 #@! TA.AperFunction,SMDPad,CuDef*
G36*
G01*
X80601000Y61746641D02*
X80601000Y63996641D01*
G75*
G02*
X80851000Y64246641I250000J0D01*
G01*
X83401000Y64246641D01*
G75*
G02*
X83651000Y63996641I0J-250000D01*
G01*
X83651000Y61746641D01*
G75*
G02*
X83401000Y61496641I-250000J0D01*
G01*
X80851000Y61496641D01*
G75*
G02*
X80601000Y61746641I0J250000D01*
G01*
G37*
G04 #@! TD.AperFunction*
G04 #@! TA.AperFunction,SMDPad,CuDef*
G36*
G01*
X80601000Y61746638D02*
X80601000Y67046644D01*
G75*
G02*
X80850997Y67296641I249997J0D01*
G01*
X86751003Y67296641D01*
G75*
G02*
X87001000Y67046644I0J-249997D01*
G01*
X87001000Y61746638D01*
G75*
G02*
X86751003Y61496641I-249997J0D01*
G01*
X80850997Y61496641D01*
G75*
G02*
X80601000Y61746638I0J249997D01*
G01*
G37*
G04 #@! TD.AperFunction*
G04 #@! TA.AperFunction,SMDPad,CuDef*
G36*
G01*
X83951000Y64796641D02*
X83951000Y67046641D01*
G75*
G02*
X84201000Y67296641I250000J0D01*
G01*
X86751000Y67296641D01*
G75*
G02*
X87001000Y67046641I0J-250000D01*
G01*
X87001000Y64796641D01*
G75*
G02*
X86751000Y64546641I-250000J0D01*
G01*
X84201000Y64546641D01*
G75*
G02*
X83951000Y64796641I0J250000D01*
G01*
G37*
G04 #@! TD.AperFunction*
G04 #@! TA.AperFunction,SMDPad,CuDef*
G36*
G01*
X83951000Y61746641D02*
X83951000Y63996641D01*
G75*
G02*
X84201000Y64246641I250000J0D01*
G01*
X86751000Y64246641D01*
G75*
G02*
X87001000Y63996641I0J-250000D01*
G01*
X87001000Y61746641D01*
G75*
G02*
X86751000Y61496641I-250000J0D01*
G01*
X84201000Y61496641D01*
G75*
G02*
X83951000Y61746641I0J250000D01*
G01*
G37*
G04 #@! TD.AperFunction*
G04 #@! TO.P,Q4,3,E*
G04 #@! TO.N,GND*
G04 #@! TA.AperFunction,SMDPad,CuDef*
G36*
G01*
X76401000Y61766641D02*
X76401000Y62466641D01*
G75*
G02*
X76651000Y62716641I250000J0D01*
G01*
X78351000Y62716641D01*
G75*
G02*
X78601000Y62466641I0J-250000D01*
G01*
X78601000Y61766641D01*
G75*
G02*
X78351000Y61516641I-250000J0D01*
G01*
X76651000Y61516641D01*
G75*
G02*
X76401000Y61766641I0J250000D01*
G01*
G37*
G04 #@! TD.AperFunction*
G04 #@! TD*
M02*
