M48
; DRILL file {KiCad 8.0.9-8.0.9-0~ubuntu24.04.1} date 2026-03-30T23:48:31+0000
; FORMAT={2:4/ absolute / inch / suppress leading zeros}
; #@! TF.CreationDate,2026-03-30T23:48:31+00:00
; #@! TF.GenerationSoftware,Kicad,Pcbnew,8.0.9-8.0.9-0~ubuntu24.04.1
; #@! TF.FileFunction,MixedPlating,1,4
FMAT,2
INCH,TZ
; #@! TA.AperFunction,Plated,PTH,ComponentDrill
T1C0.0118
; #@! TA.AperFunction,Plated,PTH,ComponentDrill
T2C0.0394
; #@! TA.AperFunction,Plated,PTH,ComponentDrill
T3C0.0433
; #@! TA.AperFunction,Plated,PTH,ComponentDrill
T4C0.1378
%
G90
G05
T1
X-14843Y28346
X-14843Y27992
X-11417Y28346
X-11417Y27972
X-11417Y27598
X9803Y14173
X9803Y13780
X9803Y24567
X9803Y24173
X9803Y23780
X9803Y23386
X9803Y22992
X9803Y22598
X9803Y19055
X9803Y28346
X9803Y22205
X9803Y21811
X9803Y21417
X9803Y21024
X9803Y20630
X9803Y20236
X9803Y19843
X9803Y19449
X9803Y16693
X9961Y12795
X10315Y3740
X10315Y3346
X10906Y12795
X11378Y12795
X11850Y12795
X12165Y28346
X12323Y12795
X12480Y28346
X12795Y28346
X12795Y12795
X13268Y12795
X13740Y12795
X14213Y12795
X14685Y12795
X15157Y12795
X15630Y12795
X15866Y28346
X16102Y12795
X16181Y28346
X16496Y28346
X16575Y12795
X16811Y28346
X17047Y12795
X17126Y28346
X17520Y12795
X17992Y12795
X18465Y12795
X18937Y12795
X19291Y28346
X19409Y12795
X19606Y28346
X19882Y12795
X19921Y28346
X20236Y28346
X20354Y12795
X20551Y28346
X20827Y12795
X20866Y28346
X21181Y28346
X21299Y12795
X21496Y28346
X21772Y12795
X21811Y28346
X22126Y28346
X22244Y12795
X22441Y28346
X22717Y12795
X22756Y28346
X23071Y28346
X23189Y12795
X23386Y28346
X23661Y12795
X23701Y28346
X24016Y28346
X24094Y12795
X24331Y28346
X24567Y12795
X24646Y28346
X24961Y28346
X25039Y12795
X25276Y28346
X25512Y12795
X25591Y28346
X25906Y28346
X25984Y12795
X26220Y25748
X26220Y25433
X26220Y23858
X26220Y23543
X26220Y23228
X26220Y21969
X26220Y21654
X26220Y18189
X26220Y13976
X26220Y28346
X26220Y27323
X26220Y27008
X26220Y26693
X26220Y26378
X26220Y26063
X26220Y25118
X26220Y24803
X26220Y24488
X26220Y24173
X26220Y22913
X26220Y22598
X26220Y22283
X26220Y21339
X26220Y21024
X26220Y20709
X26220Y20394
X26220Y20079
X26220Y19764
X26220Y19449
X26220Y19134
X26220Y18819
X26220Y18504
X26220Y17874
X26220Y17559
X26220Y17244
X26220Y16929
X26220Y16614
X26220Y13661
X28766Y31969
X29159Y31969
X30285Y26289
X30758Y26289
X31230Y26289
X31703Y26289
X32850Y31969
X32982Y14419
X33244Y31969
X33297Y14419
X33612Y14419
X33927Y14419
X34242Y14419
X34370Y26289
X34843Y26289
X35315Y26289
X35787Y26289
X36033Y23868
X36348Y23868
X36663Y23868
X36978Y23868
T2
X4035Y9823
X4035Y9094
X4035Y7146
X4035Y2402
X10138Y9646
X10138Y7126
X10138Y6378
X10138Y4685
X10138Y2224
X12913Y8480
X12913Y7480
X13913Y8480
X13913Y7480
X14913Y8480
X14913Y7480
X15913Y8480
X15913Y7480
X16913Y8480
X16913Y7480
X17913Y8480
X17913Y7480
X18913Y8480
X18913Y7480
X19913Y8480
X19913Y7480
X20913Y8480
X20913Y7480
X21913Y8480
X21913Y7480
X22913Y8480
X22913Y7480
X23913Y8480
X23913Y7480
X24913Y8480
X24913Y7480
X25913Y8480
X25913Y7480
X26913Y8480
X26913Y7480
X35561Y23711
T3
X7461Y35433
X7461Y33661
X8642Y35433
X8642Y33661
X9823Y35433
X9823Y33661
X11004Y35433
X11004Y33661
X12185Y35433
X12185Y33661
X13366Y35433
X13366Y33661
X14547Y35433
X14547Y33661
X15728Y35433
X15728Y33661
X18071Y35433
X18091Y33661
X19449Y35433
X19449Y33661
X20669Y35433
X20669Y33661
X21850Y35433
X21850Y33661
X23031Y35433
X23031Y33661
X24213Y35433
X24213Y33661
X25394Y35433
X25394Y33661
X26575Y35433
X26575Y33661
X27756Y35433
X27756Y33661
X28937Y35433
X28937Y33661
X30157Y35433
X30157Y33661
X31535Y35433
X31535Y33661
X32913Y35433
X32913Y33661
T4
X7303Y37677
X16850Y37677
X33169Y37677
M30
