G04 #@! TF.GenerationSoftware,KiCad,Pcbnew,8.0.9-8.0.9-0~ubuntu24.04.1*
G04 #@! TF.CreationDate,2026-03-30T23:48:31+00:00*
G04 #@! TF.ProjectId,EP91Starlet,45503931-5374-4617-926c-65742e6b6963,rev?*
G04 #@! TF.SameCoordinates,Original*
G04 #@! TF.FileFunction,Soldermask,Top*
G04 #@! TF.FilePolarity,Negative*
%FSLAX46Y46*%
G04 Gerber Fmt 4.6, Leading zero omitted, Abs format (unit mm)*
G04 Created by KiCad (PCBNEW 8.0.9-8.0.9-0~ubuntu24.04.1) date 2026-03-30 23:48:31*
%MOMM*%
%LPD*%
G01*
G04 APERTURE LIST*
%ADD10C,0.600000*%
%ADD11R,1.700000X1.700000*%
%ADD12O,1.700000X1.700000*%
%ADD13R,1.650000X1.650000*%
%ADD14C,1.650000*%
%ADD15C,5.250000*%
%ADD16C,1.500000*%
G04 APERTURE END LIST*
G04 #@! TO.C,R2*
G36*
G01*
X-32925000Y54400000D02*
X-32925000Y54770000D01*
G75*
G02*
X-32790000Y54905000I135000J0D01*
G01*
X-32520000Y54905000D01*
G75*
G02*
X-32385000Y54770000I0J-135000D01*
G01*
X-32385000Y54400000D01*
G75*
G02*
X-32520000Y54265000I-135000J0D01*
G01*
X-32790000Y54265000D01*
G75*
G02*
X-32925000Y54400000I0J135000D01*
G01*
G37*
G36*
G01*
X-31905000Y54400000D02*
X-31905000Y54770000D01*
G75*
G02*
X-31770000Y54905000I135000J0D01*
G01*
X-31500000Y54905000D01*
G75*
G02*
X-31365000Y54770000I0J-135000D01*
G01*
X-31365000Y54400000D01*
G75*
G02*
X-31500000Y54265000I-135000J0D01*
G01*
X-31770000Y54265000D01*
G75*
G02*
X-31905000Y54400000I0J135000D01*
G01*
G37*
G04 #@! TD*
D10*
G04 #@! TO.C,M2*
X78125000Y66775000D03*
X76925000Y66775000D03*
X79325000Y66775000D03*
X80525000Y66775000D03*
X74065000Y81200000D03*
X73065000Y81200000D03*
G04 #@! TD*
G04 #@! TO.C,R14*
G36*
G01*
X-27105000Y50420000D02*
X-27105000Y50790000D01*
G75*
G02*
X-26970000Y50925000I135000J0D01*
G01*
X-26700000Y50925000D01*
G75*
G02*
X-26565000Y50790000I0J-135000D01*
G01*
X-26565000Y50420000D01*
G75*
G02*
X-26700000Y50285000I-135000J0D01*
G01*
X-26970000Y50285000D01*
G75*
G02*
X-27105000Y50420000I0J135000D01*
G01*
G37*
G36*
G01*
X-26085000Y50420000D02*
X-26085000Y50790000D01*
G75*
G02*
X-25950000Y50925000I135000J0D01*
G01*
X-25680000Y50925000D01*
G75*
G02*
X-25545000Y50790000I0J-135000D01*
G01*
X-25545000Y50420000D01*
G75*
G02*
X-25680000Y50285000I-135000J0D01*
G01*
X-25950000Y50285000D01*
G75*
G02*
X-26085000Y50420000I0J135000D01*
G01*
G37*
G04 #@! TD*
G04 #@! TO.C,M3*
X88500000Y66775000D03*
X87300000Y66775000D03*
X89700000Y66775000D03*
X90900000Y66775000D03*
X84440000Y81200000D03*
X83440000Y81200000D03*
G04 #@! TD*
G04 #@! TO.C,M6*
X-29000000Y72000000D03*
X-29000000Y71050000D03*
X-29000000Y70100002D03*
X-37700000Y71100000D03*
X-37700000Y72000000D03*
G04 #@! TD*
G04 #@! TO.C,U1*
G36*
G01*
X-8913000Y53701500D02*
X-8913000Y53098500D01*
G75*
G02*
X-9013500Y52998000I-100500J0D01*
G01*
X-10986500Y52998000D01*
G75*
G02*
X-11087000Y53098500I0J100500D01*
G01*
X-11087000Y53701500D01*
G75*
G02*
X-10986500Y53802000I100500J0D01*
G01*
X-9013500Y53802000D01*
G75*
G02*
X-8913000Y53701500I0J-100500D01*
G01*
G37*
G36*
G01*
X-8913000Y54971500D02*
X-8913000Y54368500D01*
G75*
G02*
X-9013500Y54268000I-100500J0D01*
G01*
X-10986500Y54268000D01*
G75*
G02*
X-11087000Y54368500I0J100500D01*
G01*
X-11087000Y54971500D01*
G75*
G02*
X-10986500Y55072000I100500J0D01*
G01*
X-9013500Y55072000D01*
G75*
G02*
X-8913000Y54971500I0J-100500D01*
G01*
G37*
G36*
G01*
X-8913000Y56241500D02*
X-8913000Y55638500D01*
G75*
G02*
X-9013500Y55538000I-100500J0D01*
G01*
X-10986500Y55538000D01*
G75*
G02*
X-11087000Y55638500I0J100500D01*
G01*
X-11087000Y56241500D01*
G75*
G02*
X-10986500Y56342000I100500J0D01*
G01*
X-9013500Y56342000D01*
G75*
G02*
X-8913000Y56241500I0J-100500D01*
G01*
G37*
G36*
G01*
X-8913000Y57511500D02*
X-8913000Y56908500D01*
G75*
G02*
X-9013500Y56808000I-100500J0D01*
G01*
X-10986500Y56808000D01*
G75*
G02*
X-11087000Y56908500I0J100500D01*
G01*
X-11087000Y57511500D01*
G75*
G02*
X-10986500Y57612000I100500J0D01*
G01*
X-9013500Y57612000D01*
G75*
G02*
X-8913000Y57511500I0J-100500D01*
G01*
G37*
G36*
G01*
X-13863000Y57511500D02*
X-13863000Y56908500D01*
G75*
G02*
X-13963500Y56808000I-100500J0D01*
G01*
X-15936500Y56808000D01*
G75*
G02*
X-16037000Y56908500I0J100500D01*
G01*
X-16037000Y57511500D01*
G75*
G02*
X-15936500Y57612000I100500J0D01*
G01*
X-13963500Y57612000D01*
G75*
G02*
X-13863000Y57511500I0J-100500D01*
G01*
G37*
G36*
G01*
X-13863000Y56241500D02*
X-13863000Y55638500D01*
G75*
G02*
X-13963500Y55538000I-100500J0D01*
G01*
X-15936500Y55538000D01*
G75*
G02*
X-16037000Y55638500I0J100500D01*
G01*
X-16037000Y56241500D01*
G75*
G02*
X-15936500Y56342000I100500J0D01*
G01*
X-13963500Y56342000D01*
G75*
G02*
X-13863000Y56241500I0J-100500D01*
G01*
G37*
G36*
G01*
X-13863000Y54971500D02*
X-13863000Y54368500D01*
G75*
G02*
X-13963500Y54268000I-100500J0D01*
G01*
X-15936500Y54268000D01*
G75*
G02*
X-16037000Y54368500I0J100500D01*
G01*
X-16037000Y54971500D01*
G75*
G02*
X-15936500Y55072000I100500J0D01*
G01*
X-13963500Y55072000D01*
G75*
G02*
X-13863000Y54971500I0J-100500D01*
G01*
G37*
G36*
G01*
X-13863000Y53701500D02*
X-13863000Y53098500D01*
G75*
G02*
X-13963500Y52998000I-100500J0D01*
G01*
X-15936500Y52998000D01*
G75*
G02*
X-16037000Y53098500I0J100500D01*
G01*
X-16037000Y53701500D01*
G75*
G02*
X-15936500Y53802000I100500J0D01*
G01*
X-13963500Y53802000D01*
G75*
G02*
X-13863000Y53701500I0J-100500D01*
G01*
G37*
G04 #@! TD*
G04 #@! TO.C,R8*
G36*
G01*
X-30015000Y52410000D02*
X-30015000Y52780000D01*
G75*
G02*
X-29880000Y52915000I135000J0D01*
G01*
X-29610000Y52915000D01*
G75*
G02*
X-29475000Y52780000I0J-135000D01*
G01*
X-29475000Y52410000D01*
G75*
G02*
X-29610000Y52275000I-135000J0D01*
G01*
X-29880000Y52275000D01*
G75*
G02*
X-30015000Y52410000I0J135000D01*
G01*
G37*
G36*
G01*
X-28995000Y52410000D02*
X-28995000Y52780000D01*
G75*
G02*
X-28860000Y52915000I135000J0D01*
G01*
X-28590000Y52915000D01*
G75*
G02*
X-28455000Y52780000I0J-135000D01*
G01*
X-28455000Y52410000D01*
G75*
G02*
X-28590000Y52275000I-135000J0D01*
G01*
X-28860000Y52275000D01*
G75*
G02*
X-28995000Y52410000I0J135000D01*
G01*
G37*
G04 #@! TD*
G04 #@! TO.C,Q2*
G36*
G01*
X-32830000Y46020000D02*
X-32830000Y46320000D01*
G75*
G02*
X-32680000Y46470000I150000J0D01*
G01*
X-31505000Y46470000D01*
G75*
G02*
X-31355000Y46320000I0J-150000D01*
G01*
X-31355000Y46020000D01*
G75*
G02*
X-31505000Y45870000I-150000J0D01*
G01*
X-32680000Y45870000D01*
G75*
G02*
X-32830000Y46020000I0J150000D01*
G01*
G37*
G36*
G01*
X-32830000Y44120000D02*
X-32830000Y44420000D01*
G75*
G02*
X-32680000Y44570000I150000J0D01*
G01*
X-31505000Y44570000D01*
G75*
G02*
X-31355000Y44420000I0J-150000D01*
G01*
X-31355000Y44120000D01*
G75*
G02*
X-31505000Y43970000I-150000J0D01*
G01*
X-32680000Y43970000D01*
G75*
G02*
X-32830000Y44120000I0J150000D01*
G01*
G37*
G36*
G01*
X-30955000Y45070000D02*
X-30955000Y45370000D01*
G75*
G02*
X-30805000Y45520000I150000J0D01*
G01*
X-29630000Y45520000D01*
G75*
G02*
X-29480000Y45370000I0J-150000D01*
G01*
X-29480000Y45070000D01*
G75*
G02*
X-29630000Y44920000I-150000J0D01*
G01*
X-30805000Y44920000D01*
G75*
G02*
X-30955000Y45070000I0J150000D01*
G01*
G37*
G04 #@! TD*
D11*
G04 #@! TO.C,J2*
X32800000Y19000000D03*
D12*
X32800000Y21540000D03*
X35340000Y19000000D03*
X35340000Y21540000D03*
X37880000Y19000000D03*
X37880000Y21540000D03*
X40420000Y19000000D03*
X40420000Y21540000D03*
X42960000Y19000000D03*
X42960000Y21540000D03*
X45500000Y19000000D03*
X45500000Y21540000D03*
X48040000Y19000000D03*
X48040000Y21540000D03*
X50580000Y19000000D03*
X50580000Y21540000D03*
X53120000Y19000000D03*
X53120000Y21540000D03*
X55660000Y19000000D03*
X55660000Y21540000D03*
X58200000Y19000000D03*
X58200000Y21540000D03*
X60740000Y19000000D03*
X60740000Y21540000D03*
X63280000Y19000000D03*
X63280000Y21540000D03*
X65820000Y19000000D03*
X65820000Y21540000D03*
X68360000Y19000000D03*
X68360000Y21540000D03*
G04 #@! TD*
G04 #@! TO.C,R6*
G36*
G01*
X-30015000Y56390000D02*
X-30015000Y56760000D01*
G75*
G02*
X-29880000Y56895000I135000J0D01*
G01*
X-29610000Y56895000D01*
G75*
G02*
X-29475000Y56760000I0J-135000D01*
G01*
X-29475000Y56390000D01*
G75*
G02*
X-29610000Y56255000I-135000J0D01*
G01*
X-29880000Y56255000D01*
G75*
G02*
X-30015000Y56390000I0J135000D01*
G01*
G37*
G36*
G01*
X-28995000Y56390000D02*
X-28995000Y56760000D01*
G75*
G02*
X-28860000Y56895000I135000J0D01*
G01*
X-28590000Y56895000D01*
G75*
G02*
X-28455000Y56760000I0J-135000D01*
G01*
X-28455000Y56390000D01*
G75*
G02*
X-28590000Y56255000I-135000J0D01*
G01*
X-28860000Y56255000D01*
G75*
G02*
X-28995000Y56390000I0J135000D01*
G01*
G37*
G04 #@! TD*
G04 #@! TO.C,R11*
G36*
G01*
X-27105000Y56390000D02*
X-27105000Y56760000D01*
G75*
G02*
X-26970000Y56895000I135000J0D01*
G01*
X-26700000Y56895000D01*
G75*
G02*
X-26565000Y56760000I0J-135000D01*
G01*
X-26565000Y56390000D01*
G75*
G02*
X-26700000Y56255000I-135000J0D01*
G01*
X-26970000Y56255000D01*
G75*
G02*
X-27105000Y56390000I0J135000D01*
G01*
G37*
G36*
G01*
X-26085000Y56390000D02*
X-26085000Y56760000D01*
G75*
G02*
X-25950000Y56895000I135000J0D01*
G01*
X-25680000Y56895000D01*
G75*
G02*
X-25545000Y56760000I0J-135000D01*
G01*
X-25545000Y56390000D01*
G75*
G02*
X-25680000Y56255000I-135000J0D01*
G01*
X-25950000Y56255000D01*
G75*
G02*
X-26085000Y56390000I0J135000D01*
G01*
G37*
G04 #@! TD*
G04 #@! TO.C,R9*
G36*
G01*
X-30015000Y50420000D02*
X-30015000Y50790000D01*
G75*
G02*
X-29880000Y50925000I135000J0D01*
G01*
X-29610000Y50925000D01*
G75*
G02*
X-29475000Y50790000I0J-135000D01*
G01*
X-29475000Y50420000D01*
G75*
G02*
X-29610000Y50285000I-135000J0D01*
G01*
X-29880000Y50285000D01*
G75*
G02*
X-30015000Y50420000I0J135000D01*
G01*
G37*
G36*
G01*
X-28995000Y50420000D02*
X-28995000Y50790000D01*
G75*
G02*
X-28860000Y50925000I135000J0D01*
G01*
X-28590000Y50925000D01*
G75*
G02*
X-28455000Y50790000I0J-135000D01*
G01*
X-28455000Y50420000D01*
G75*
G02*
X-28590000Y50285000I-135000J0D01*
G01*
X-28860000Y50285000D01*
G75*
G02*
X-28995000Y50420000I0J135000D01*
G01*
G37*
G04 #@! TD*
D13*
G04 #@! TO.C,J1*
X18950000Y85500000D03*
D14*
X21950000Y85500000D03*
X24950000Y85500000D03*
X27950000Y85500000D03*
X30950000Y85500000D03*
X33950000Y85500000D03*
X36950000Y85500000D03*
X39950000Y85500000D03*
X18950000Y90000000D03*
X21950000Y90000000D03*
X24950000Y90000000D03*
X27950000Y90000000D03*
X30950000Y90000000D03*
X33950000Y90000000D03*
X36950000Y90000000D03*
X39950000Y90000000D03*
X45950000Y85500000D03*
X49400000Y85500000D03*
X52500000Y85500000D03*
X55500000Y85500000D03*
X58500000Y85500000D03*
X61500000Y85500000D03*
X64500000Y85500000D03*
X67500000Y85500000D03*
X70500000Y85500000D03*
X73500000Y85500000D03*
X76600000Y85500000D03*
X80100000Y85500000D03*
X83600000Y85500000D03*
X45900000Y90000000D03*
X49400000Y90000000D03*
X52500000Y90000000D03*
X55500000Y90000000D03*
X58500000Y90000000D03*
X61500000Y90000000D03*
X64500000Y90000000D03*
X67500000Y90000000D03*
X70500000Y90000000D03*
X73500000Y90000000D03*
X76600000Y90000000D03*
X80100000Y90000000D03*
X83600000Y90000000D03*
D15*
X18550000Y95700000D03*
X42800000Y95700000D03*
X84250000Y95700000D03*
G04 #@! TD*
G04 #@! TO.C,R13*
G36*
G01*
X-27105000Y52410000D02*
X-27105000Y52780000D01*
G75*
G02*
X-26970000Y52915000I135000J0D01*
G01*
X-26700000Y52915000D01*
G75*
G02*
X-26565000Y52780000I0J-135000D01*
G01*
X-26565000Y52410000D01*
G75*
G02*
X-26700000Y52275000I-135000J0D01*
G01*
X-26970000Y52275000D01*
G75*
G02*
X-27105000Y52410000I0J135000D01*
G01*
G37*
G36*
G01*
X-26085000Y52410000D02*
X-26085000Y52780000D01*
G75*
G02*
X-25950000Y52915000I135000J0D01*
G01*
X-25680000Y52915000D01*
G75*
G02*
X-25545000Y52780000I0J-135000D01*
G01*
X-25545000Y52410000D01*
G75*
G02*
X-25680000Y52275000I-135000J0D01*
G01*
X-25950000Y52275000D01*
G75*
G02*
X-26085000Y52410000I0J135000D01*
G01*
G37*
G04 #@! TD*
G04 #@! TO.C,U4*
G36*
G01*
X44396500Y75938000D02*
X43793500Y75938000D01*
G75*
G02*
X43693000Y76038500I0J100500D01*
G01*
X43693000Y78011500D01*
G75*
G02*
X43793500Y78112000I100500J0D01*
G01*
X44396500Y78112000D01*
G75*
G02*
X44497000Y78011500I0J-100500D01*
G01*
X44497000Y76038500D01*
G75*
G02*
X44396500Y75938000I-100500J0D01*
G01*
G37*
G36*
G01*
X45666500Y75938000D02*
X45063500Y75938000D01*
G75*
G02*
X44963000Y76038500I0J100500D01*
G01*
X44963000Y78011500D01*
G75*
G02*
X45063500Y78112000I100500J0D01*
G01*
X45666500Y78112000D01*
G75*
G02*
X45767000Y78011500I0J-100500D01*
G01*
X45767000Y76038500D01*
G75*
G02*
X45666500Y75938000I-100500J0D01*
G01*
G37*
G36*
G01*
X46936500Y75938000D02*
X46333500Y75938000D01*
G75*
G02*
X46233000Y76038500I0J100500D01*
G01*
X46233000Y78011500D01*
G75*
G02*
X46333500Y78112000I100500J0D01*
G01*
X46936500Y78112000D01*
G75*
G02*
X47037000Y78011500I0J-100500D01*
G01*
X47037000Y76038500D01*
G75*
G02*
X46936500Y75938000I-100500J0D01*
G01*
G37*
G36*
G01*
X48206500Y75938000D02*
X47603500Y75938000D01*
G75*
G02*
X47503000Y76038500I0J100500D01*
G01*
X47503000Y78011500D01*
G75*
G02*
X47603500Y78112000I100500J0D01*
G01*
X48206500Y78112000D01*
G75*
G02*
X48307000Y78011500I0J-100500D01*
G01*
X48307000Y76038500D01*
G75*
G02*
X48206500Y75938000I-100500J0D01*
G01*
G37*
G36*
G01*
X48206500Y80888000D02*
X47603500Y80888000D01*
G75*
G02*
X47503000Y80988500I0J100500D01*
G01*
X47503000Y82961500D01*
G75*
G02*
X47603500Y83062000I100500J0D01*
G01*
X48206500Y83062000D01*
G75*
G02*
X48307000Y82961500I0J-100500D01*
G01*
X48307000Y80988500D01*
G75*
G02*
X48206500Y80888000I-100500J0D01*
G01*
G37*
G36*
G01*
X46936500Y80888000D02*
X46333500Y80888000D01*
G75*
G02*
X46233000Y80988500I0J100500D01*
G01*
X46233000Y82961500D01*
G75*
G02*
X46333500Y83062000I100500J0D01*
G01*
X46936500Y83062000D01*
G75*
G02*
X47037000Y82961500I0J-100500D01*
G01*
X47037000Y80988500D01*
G75*
G02*
X46936500Y80888000I-100500J0D01*
G01*
G37*
G36*
G01*
X45666500Y80888000D02*
X45063500Y80888000D01*
G75*
G02*
X44963000Y80988500I0J100500D01*
G01*
X44963000Y82961500D01*
G75*
G02*
X45063500Y83062000I100500J0D01*
G01*
X45666500Y83062000D01*
G75*
G02*
X45767000Y82961500I0J-100500D01*
G01*
X45767000Y80988500D01*
G75*
G02*
X45666500Y80888000I-100500J0D01*
G01*
G37*
G36*
G01*
X44396500Y80888000D02*
X43793500Y80888000D01*
G75*
G02*
X43693000Y80988500I0J100500D01*
G01*
X43693000Y82961500D01*
G75*
G02*
X43793500Y83062000I100500J0D01*
G01*
X44396500Y83062000D01*
G75*
G02*
X44497000Y82961500I0J-100500D01*
G01*
X44497000Y80988500D01*
G75*
G02*
X44396500Y80888000I-100500J0D01*
G01*
G37*
G04 #@! TD*
G04 #@! TO.C,R12*
G36*
G01*
X-27105000Y54400000D02*
X-27105000Y54770000D01*
G75*
G02*
X-26970000Y54905000I135000J0D01*
G01*
X-26700000Y54905000D01*
G75*
G02*
X-26565000Y54770000I0J-135000D01*
G01*
X-26565000Y54400000D01*
G75*
G02*
X-26700000Y54265000I-135000J0D01*
G01*
X-26970000Y54265000D01*
G75*
G02*
X-27105000Y54400000I0J135000D01*
G01*
G37*
G36*
G01*
X-26085000Y54400000D02*
X-26085000Y54770000D01*
G75*
G02*
X-25950000Y54905000I135000J0D01*
G01*
X-25680000Y54905000D01*
G75*
G02*
X-25545000Y54770000I0J-135000D01*
G01*
X-25545000Y54400000D01*
G75*
G02*
X-25680000Y54265000I-135000J0D01*
G01*
X-25950000Y54265000D01*
G75*
G02*
X-26085000Y54400000I0J135000D01*
G01*
G37*
G04 #@! TD*
G04 #@! TO.C,D9*
G36*
G01*
X-64420000Y32070000D02*
X-64420000Y32820000D01*
G75*
G02*
X-64195000Y33045000I225000J0D01*
G01*
X-63745000Y33045000D01*
G75*
G02*
X-63520000Y32820000I0J-225000D01*
G01*
X-63520000Y32070000D01*
G75*
G02*
X-63745000Y31845000I-225000J0D01*
G01*
X-64195000Y31845000D01*
G75*
G02*
X-64420000Y32070000I0J225000D01*
G01*
G37*
G36*
G01*
X-61120000Y32070000D02*
X-61120000Y32820000D01*
G75*
G02*
X-60895000Y33045000I225000J0D01*
G01*
X-60445000Y33045000D01*
G75*
G02*
X-60220000Y32820000I0J-225000D01*
G01*
X-60220000Y32070000D01*
G75*
G02*
X-60445000Y31845000I-225000J0D01*
G01*
X-60895000Y31845000D01*
G75*
G02*
X-61120000Y32070000I0J225000D01*
G01*
G37*
G04 #@! TD*
G04 #@! TO.C,D7*
G36*
G01*
X-64420000Y38770000D02*
X-64420000Y39520000D01*
G75*
G02*
X-64195000Y39745000I225000J0D01*
G01*
X-63745000Y39745000D01*
G75*
G02*
X-63520000Y39520000I0J-225000D01*
G01*
X-63520000Y38770000D01*
G75*
G02*
X-63745000Y38545000I-225000J0D01*
G01*
X-64195000Y38545000D01*
G75*
G02*
X-64420000Y38770000I0J225000D01*
G01*
G37*
G36*
G01*
X-61120000Y38770000D02*
X-61120000Y39520000D01*
G75*
G02*
X-60895000Y39745000I225000J0D01*
G01*
X-60445000Y39745000D01*
G75*
G02*
X-60220000Y39520000I0J-225000D01*
G01*
X-60220000Y38770000D01*
G75*
G02*
X-60445000Y38545000I-225000J0D01*
G01*
X-60895000Y38545000D01*
G75*
G02*
X-61120000Y38770000I0J225000D01*
G01*
G37*
G04 #@! TD*
G04 #@! TO.C,R4*
G36*
G01*
X-32925000Y50420000D02*
X-32925000Y50790000D01*
G75*
G02*
X-32790000Y50925000I135000J0D01*
G01*
X-32520000Y50925000D01*
G75*
G02*
X-32385000Y50790000I0J-135000D01*
G01*
X-32385000Y50420000D01*
G75*
G02*
X-32520000Y50285000I-135000J0D01*
G01*
X-32790000Y50285000D01*
G75*
G02*
X-32925000Y50420000I0J135000D01*
G01*
G37*
G36*
G01*
X-31905000Y50420000D02*
X-31905000Y50790000D01*
G75*
G02*
X-31770000Y50925000I135000J0D01*
G01*
X-31500000Y50925000D01*
G75*
G02*
X-31365000Y50790000I0J-135000D01*
G01*
X-31365000Y50420000D01*
G75*
G02*
X-31500000Y50285000I-135000J0D01*
G01*
X-31770000Y50285000D01*
G75*
G02*
X-31905000Y50420000I0J135000D01*
G01*
G37*
G04 #@! TD*
G04 #@! TO.C,D3*
G36*
G01*
X-64420000Y48820000D02*
X-64420000Y49570000D01*
G75*
G02*
X-64195000Y49795000I225000J0D01*
G01*
X-63745000Y49795000D01*
G75*
G02*
X-63520000Y49570000I0J-225000D01*
G01*
X-63520000Y48820000D01*
G75*
G02*
X-63745000Y48595000I-225000J0D01*
G01*
X-64195000Y48595000D01*
G75*
G02*
X-64420000Y48820000I0J225000D01*
G01*
G37*
G36*
G01*
X-61120000Y48820000D02*
X-61120000Y49570000D01*
G75*
G02*
X-60895000Y49795000I225000J0D01*
G01*
X-60445000Y49795000D01*
G75*
G02*
X-60220000Y49570000I0J-225000D01*
G01*
X-60220000Y48820000D01*
G75*
G02*
X-60445000Y48595000I-225000J0D01*
G01*
X-60895000Y48595000D01*
G75*
G02*
X-61120000Y48820000I0J225000D01*
G01*
G37*
G04 #@! TD*
G04 #@! TO.C,D2*
G36*
G01*
X-64420000Y52170000D02*
X-64420000Y52920000D01*
G75*
G02*
X-64195000Y53145000I225000J0D01*
G01*
X-63745000Y53145000D01*
G75*
G02*
X-63520000Y52920000I0J-225000D01*
G01*
X-63520000Y52170000D01*
G75*
G02*
X-63745000Y51945000I-225000J0D01*
G01*
X-64195000Y51945000D01*
G75*
G02*
X-64420000Y52170000I0J225000D01*
G01*
G37*
G36*
G01*
X-61120000Y52170000D02*
X-61120000Y52920000D01*
G75*
G02*
X-60895000Y53145000I225000J0D01*
G01*
X-60445000Y53145000D01*
G75*
G02*
X-60220000Y52920000I0J-225000D01*
G01*
X-60220000Y52170000D01*
G75*
G02*
X-60445000Y51945000I-225000J0D01*
G01*
X-60895000Y51945000D01*
G75*
G02*
X-61120000Y52170000I0J225000D01*
G01*
G37*
G04 #@! TD*
G04 #@! TO.C,U3*
G36*
G01*
X28396500Y75938000D02*
X27793500Y75938000D01*
G75*
G02*
X27693000Y76038500I0J100500D01*
G01*
X27693000Y78011500D01*
G75*
G02*
X27793500Y78112000I100500J0D01*
G01*
X28396500Y78112000D01*
G75*
G02*
X28497000Y78011500I0J-100500D01*
G01*
X28497000Y76038500D01*
G75*
G02*
X28396500Y75938000I-100500J0D01*
G01*
G37*
G36*
G01*
X29666500Y75938000D02*
X29063500Y75938000D01*
G75*
G02*
X28963000Y76038500I0J100500D01*
G01*
X28963000Y78011500D01*
G75*
G02*
X29063500Y78112000I100500J0D01*
G01*
X29666500Y78112000D01*
G75*
G02*
X29767000Y78011500I0J-100500D01*
G01*
X29767000Y76038500D01*
G75*
G02*
X29666500Y75938000I-100500J0D01*
G01*
G37*
G36*
G01*
X30936500Y75938000D02*
X30333500Y75938000D01*
G75*
G02*
X30233000Y76038500I0J100500D01*
G01*
X30233000Y78011500D01*
G75*
G02*
X30333500Y78112000I100500J0D01*
G01*
X30936500Y78112000D01*
G75*
G02*
X31037000Y78011500I0J-100500D01*
G01*
X31037000Y76038500D01*
G75*
G02*
X30936500Y75938000I-100500J0D01*
G01*
G37*
G36*
G01*
X32206500Y75938000D02*
X31603500Y75938000D01*
G75*
G02*
X31503000Y76038500I0J100500D01*
G01*
X31503000Y78011500D01*
G75*
G02*
X31603500Y78112000I100500J0D01*
G01*
X32206500Y78112000D01*
G75*
G02*
X32307000Y78011500I0J-100500D01*
G01*
X32307000Y76038500D01*
G75*
G02*
X32206500Y75938000I-100500J0D01*
G01*
G37*
G36*
G01*
X32206500Y80888000D02*
X31603500Y80888000D01*
G75*
G02*
X31503000Y80988500I0J100500D01*
G01*
X31503000Y82961500D01*
G75*
G02*
X31603500Y83062000I100500J0D01*
G01*
X32206500Y83062000D01*
G75*
G02*
X32307000Y82961500I0J-100500D01*
G01*
X32307000Y80988500D01*
G75*
G02*
X32206500Y80888000I-100500J0D01*
G01*
G37*
G36*
G01*
X30936500Y80888000D02*
X30333500Y80888000D01*
G75*
G02*
X30233000Y80988500I0J100500D01*
G01*
X30233000Y82961500D01*
G75*
G02*
X30333500Y83062000I100500J0D01*
G01*
X30936500Y83062000D01*
G75*
G02*
X31037000Y82961500I0J-100500D01*
G01*
X31037000Y80988500D01*
G75*
G02*
X30936500Y80888000I-100500J0D01*
G01*
G37*
G36*
G01*
X29666500Y80888000D02*
X29063500Y80888000D01*
G75*
G02*
X28963000Y80988500I0J100500D01*
G01*
X28963000Y82961500D01*
G75*
G02*
X29063500Y83062000I100500J0D01*
G01*
X29666500Y83062000D01*
G75*
G02*
X29767000Y82961500I0J-100500D01*
G01*
X29767000Y80988500D01*
G75*
G02*
X29666500Y80888000I-100500J0D01*
G01*
G37*
G36*
G01*
X28396500Y80888000D02*
X27793500Y80888000D01*
G75*
G02*
X27693000Y80988500I0J100500D01*
G01*
X27693000Y82961500D01*
G75*
G02*
X27793500Y83062000I100500J0D01*
G01*
X28396500Y83062000D01*
G75*
G02*
X28497000Y82961500I0J-100500D01*
G01*
X28497000Y80988500D01*
G75*
G02*
X28396500Y80888000I-100500J0D01*
G01*
G37*
G04 #@! TD*
G04 #@! TO.C,D1*
G36*
G01*
X-64420000Y55520000D02*
X-64420000Y56270000D01*
G75*
G02*
X-64195000Y56495000I225000J0D01*
G01*
X-63745000Y56495000D01*
G75*
G02*
X-63520000Y56270000I0J-225000D01*
G01*
X-63520000Y55520000D01*
G75*
G02*
X-63745000Y55295000I-225000J0D01*
G01*
X-64195000Y55295000D01*
G75*
G02*
X-64420000Y55520000I0J225000D01*
G01*
G37*
G36*
G01*
X-61120000Y55520000D02*
X-61120000Y56270000D01*
G75*
G02*
X-60895000Y56495000I225000J0D01*
G01*
X-60445000Y56495000D01*
G75*
G02*
X-60220000Y56270000I0J-225000D01*
G01*
X-60220000Y55520000D01*
G75*
G02*
X-60445000Y55295000I-225000J0D01*
G01*
X-60895000Y55295000D01*
G75*
G02*
X-61120000Y55520000I0J225000D01*
G01*
G37*
G04 #@! TD*
D16*
G04 #@! TO.C,M4*
X25749998Y24500000D03*
X25749998Y18100003D03*
X25749998Y16200000D03*
X25749998Y11900000D03*
D10*
X26199997Y9500003D03*
X26199997Y8500002D03*
D16*
X25749998Y5650000D03*
X10250001Y24950002D03*
X10250001Y23100003D03*
X10250001Y18150000D03*
X10250001Y6100002D03*
G04 #@! TD*
G04 #@! TO.C,R5*
G36*
G01*
X-32925000Y48430000D02*
X-32925000Y48800000D01*
G75*
G02*
X-32790000Y48935000I135000J0D01*
G01*
X-32520000Y48935000D01*
G75*
G02*
X-32385000Y48800000I0J-135000D01*
G01*
X-32385000Y48430000D01*
G75*
G02*
X-32520000Y48295000I-135000J0D01*
G01*
X-32790000Y48295000D01*
G75*
G02*
X-32925000Y48430000I0J135000D01*
G01*
G37*
G36*
G01*
X-31905000Y48430000D02*
X-31905000Y48800000D01*
G75*
G02*
X-31770000Y48935000I135000J0D01*
G01*
X-31500000Y48935000D01*
G75*
G02*
X-31365000Y48800000I0J-135000D01*
G01*
X-31365000Y48430000D01*
G75*
G02*
X-31500000Y48295000I-135000J0D01*
G01*
X-31770000Y48295000D01*
G75*
G02*
X-31905000Y48430000I0J135000D01*
G01*
G37*
G04 #@! TD*
G04 #@! TO.C,D5*
G36*
G01*
X-27890000Y46032500D02*
X-27890000Y46257500D01*
G75*
G02*
X-27777500Y46370000I112500J0D01*
G01*
X-27402500Y46370000D01*
G75*
G02*
X-27290000Y46257500I0J-112500D01*
G01*
X-27290000Y46032500D01*
G75*
G02*
X-27402500Y45920000I-112500J0D01*
G01*
X-27777500Y45920000D01*
G75*
G02*
X-27890000Y46032500I0J112500D01*
G01*
G37*
G36*
G01*
X-25790000Y46032500D02*
X-25790000Y46257500D01*
G75*
G02*
X-25677500Y46370000I112500J0D01*
G01*
X-25302500Y46370000D01*
G75*
G02*
X-25190000Y46257500I0J-112500D01*
G01*
X-25190000Y46032500D01*
G75*
G02*
X-25302500Y45920000I-112500J0D01*
G01*
X-25677500Y45920000D01*
G75*
G02*
X-25790000Y46032500I0J112500D01*
G01*
G37*
G04 #@! TD*
G04 #@! TO.C,U5*
G36*
G01*
X1711500Y43963000D02*
X1108500Y43963000D01*
G75*
G02*
X1008000Y44063500I0J100500D01*
G01*
X1008000Y46036500D01*
G75*
G02*
X1108500Y46137000I100500J0D01*
G01*
X1711500Y46137000D01*
G75*
G02*
X1812000Y46036500I0J-100500D01*
G01*
X1812000Y44063500D01*
G75*
G02*
X1711500Y43963000I-100500J0D01*
G01*
G37*
G36*
G01*
X2981500Y43963000D02*
X2378500Y43963000D01*
G75*
G02*
X2278000Y44063500I0J100500D01*
G01*
X2278000Y46036500D01*
G75*
G02*
X2378500Y46137000I100500J0D01*
G01*
X2981500Y46137000D01*
G75*
G02*
X3082000Y46036500I0J-100500D01*
G01*
X3082000Y44063500D01*
G75*
G02*
X2981500Y43963000I-100500J0D01*
G01*
G37*
G36*
G01*
X4251500Y43963000D02*
X3648500Y43963000D01*
G75*
G02*
X3548000Y44063500I0J100500D01*
G01*
X3548000Y46036500D01*
G75*
G02*
X3648500Y46137000I100500J0D01*
G01*
X4251500Y46137000D01*
G75*
G02*
X4352000Y46036500I0J-100500D01*
G01*
X4352000Y44063500D01*
G75*
G02*
X4251500Y43963000I-100500J0D01*
G01*
G37*
G36*
G01*
X5521500Y43963000D02*
X4918500Y43963000D01*
G75*
G02*
X4818000Y44063500I0J100500D01*
G01*
X4818000Y46036500D01*
G75*
G02*
X4918500Y46137000I100500J0D01*
G01*
X5521500Y46137000D01*
G75*
G02*
X5622000Y46036500I0J-100500D01*
G01*
X5622000Y44063500D01*
G75*
G02*
X5521500Y43963000I-100500J0D01*
G01*
G37*
G36*
G01*
X5521500Y48913000D02*
X4918500Y48913000D01*
G75*
G02*
X4818000Y49013500I0J100500D01*
G01*
X4818000Y50986500D01*
G75*
G02*
X4918500Y51087000I100500J0D01*
G01*
X5521500Y51087000D01*
G75*
G02*
X5622000Y50986500I0J-100500D01*
G01*
X5622000Y49013500D01*
G75*
G02*
X5521500Y48913000I-100500J0D01*
G01*
G37*
G36*
G01*
X4251500Y48913000D02*
X3648500Y48913000D01*
G75*
G02*
X3548000Y49013500I0J100500D01*
G01*
X3548000Y50986500D01*
G75*
G02*
X3648500Y51087000I100500J0D01*
G01*
X4251500Y51087000D01*
G75*
G02*
X4352000Y50986500I0J-100500D01*
G01*
X4352000Y49013500D01*
G75*
G02*
X4251500Y48913000I-100500J0D01*
G01*
G37*
G36*
G01*
X2981500Y48913000D02*
X2378500Y48913000D01*
G75*
G02*
X2278000Y49013500I0J100500D01*
G01*
X2278000Y50986500D01*
G75*
G02*
X2378500Y51087000I100500J0D01*
G01*
X2981500Y51087000D01*
G75*
G02*
X3082000Y50986500I0J-100500D01*
G01*
X3082000Y49013500D01*
G75*
G02*
X2981500Y48913000I-100500J0D01*
G01*
G37*
G36*
G01*
X1711500Y48913000D02*
X1108500Y48913000D01*
G75*
G02*
X1008000Y49013500I0J100500D01*
G01*
X1008000Y50986500D01*
G75*
G02*
X1108500Y51087000I100500J0D01*
G01*
X1711500Y51087000D01*
G75*
G02*
X1812000Y50986500I0J-100500D01*
G01*
X1812000Y49013500D01*
G75*
G02*
X1711500Y48913000I-100500J0D01*
G01*
G37*
G04 #@! TD*
G04 #@! TO.C,D6*
G36*
G01*
X-64420000Y42120000D02*
X-64420000Y42870000D01*
G75*
G02*
X-64195000Y43095000I225000J0D01*
G01*
X-63745000Y43095000D01*
G75*
G02*
X-63520000Y42870000I0J-225000D01*
G01*
X-63520000Y42120000D01*
G75*
G02*
X-63745000Y41895000I-225000J0D01*
G01*
X-64195000Y41895000D01*
G75*
G02*
X-64420000Y42120000I0J225000D01*
G01*
G37*
G36*
G01*
X-61120000Y42120000D02*
X-61120000Y42870000D01*
G75*
G02*
X-60895000Y43095000I225000J0D01*
G01*
X-60445000Y43095000D01*
G75*
G02*
X-60220000Y42870000I0J-225000D01*
G01*
X-60220000Y42120000D01*
G75*
G02*
X-60445000Y41895000I-225000J0D01*
G01*
X-60895000Y41895000D01*
G75*
G02*
X-61120000Y42120000I0J225000D01*
G01*
G37*
G04 #@! TD*
G04 #@! TO.C,R1*
G36*
G01*
X-32925000Y56390000D02*
X-32925000Y56760000D01*
G75*
G02*
X-32790000Y56895000I135000J0D01*
G01*
X-32520000Y56895000D01*
G75*
G02*
X-32385000Y56760000I0J-135000D01*
G01*
X-32385000Y56390000D01*
G75*
G02*
X-32520000Y56255000I-135000J0D01*
G01*
X-32790000Y56255000D01*
G75*
G02*
X-32925000Y56390000I0J135000D01*
G01*
G37*
G36*
G01*
X-31905000Y56390000D02*
X-31905000Y56760000D01*
G75*
G02*
X-31770000Y56895000I135000J0D01*
G01*
X-31500000Y56895000D01*
G75*
G02*
X-31365000Y56760000I0J-135000D01*
G01*
X-31365000Y56390000D01*
G75*
G02*
X-31500000Y56255000I-135000J0D01*
G01*
X-31770000Y56255000D01*
G75*
G02*
X-31905000Y56390000I0J135000D01*
G01*
G37*
G04 #@! TD*
G04 #@! TO.C,R3*
G36*
G01*
X-32925000Y52410000D02*
X-32925000Y52780000D01*
G75*
G02*
X-32790000Y52915000I135000J0D01*
G01*
X-32520000Y52915000D01*
G75*
G02*
X-32385000Y52780000I0J-135000D01*
G01*
X-32385000Y52410000D01*
G75*
G02*
X-32520000Y52275000I-135000J0D01*
G01*
X-32790000Y52275000D01*
G75*
G02*
X-32925000Y52410000I0J135000D01*
G01*
G37*
G36*
G01*
X-31905000Y52410000D02*
X-31905000Y52780000D01*
G75*
G02*
X-31770000Y52915000I135000J0D01*
G01*
X-31500000Y52915000D01*
G75*
G02*
X-31365000Y52780000I0J-135000D01*
G01*
X-31365000Y52410000D01*
G75*
G02*
X-31500000Y52275000I-135000J0D01*
G01*
X-31770000Y52275000D01*
G75*
G02*
X-31905000Y52410000I0J135000D01*
G01*
G37*
G04 #@! TD*
G04 #@! TO.C,R10*
G36*
G01*
X-30015000Y48430000D02*
X-30015000Y48800000D01*
G75*
G02*
X-29880000Y48935000I135000J0D01*
G01*
X-29610000Y48935000D01*
G75*
G02*
X-29475000Y48800000I0J-135000D01*
G01*
X-29475000Y48430000D01*
G75*
G02*
X-29610000Y48295000I-135000J0D01*
G01*
X-29880000Y48295000D01*
G75*
G02*
X-30015000Y48430000I0J135000D01*
G01*
G37*
G36*
G01*
X-28995000Y48430000D02*
X-28995000Y48800000D01*
G75*
G02*
X-28860000Y48935000I135000J0D01*
G01*
X-28590000Y48935000D01*
G75*
G02*
X-28455000Y48800000I0J-135000D01*
G01*
X-28455000Y48430000D01*
G75*
G02*
X-28590000Y48295000I-135000J0D01*
G01*
X-28860000Y48295000D01*
G75*
G02*
X-28995000Y48430000I0J135000D01*
G01*
G37*
G04 #@! TD*
G04 #@! TO.C,U6*
G36*
G01*
X8261500Y43963000D02*
X7658500Y43963000D01*
G75*
G02*
X7558000Y44063500I0J100500D01*
G01*
X7558000Y46036500D01*
G75*
G02*
X7658500Y46137000I100500J0D01*
G01*
X8261500Y46137000D01*
G75*
G02*
X8362000Y46036500I0J-100500D01*
G01*
X8362000Y44063500D01*
G75*
G02*
X8261500Y43963000I-100500J0D01*
G01*
G37*
G36*
G01*
X9531500Y43963000D02*
X8928500Y43963000D01*
G75*
G02*
X8828000Y44063500I0J100500D01*
G01*
X8828000Y46036500D01*
G75*
G02*
X8928500Y46137000I100500J0D01*
G01*
X9531500Y46137000D01*
G75*
G02*
X9632000Y46036500I0J-100500D01*
G01*
X9632000Y44063500D01*
G75*
G02*
X9531500Y43963000I-100500J0D01*
G01*
G37*
G36*
G01*
X10801500Y43963000D02*
X10198500Y43963000D01*
G75*
G02*
X10098000Y44063500I0J100500D01*
G01*
X10098000Y46036500D01*
G75*
G02*
X10198500Y46137000I100500J0D01*
G01*
X10801500Y46137000D01*
G75*
G02*
X10902000Y46036500I0J-100500D01*
G01*
X10902000Y44063500D01*
G75*
G02*
X10801500Y43963000I-100500J0D01*
G01*
G37*
G36*
G01*
X12071500Y43963000D02*
X11468500Y43963000D01*
G75*
G02*
X11368000Y44063500I0J100500D01*
G01*
X11368000Y46036500D01*
G75*
G02*
X11468500Y46137000I100500J0D01*
G01*
X12071500Y46137000D01*
G75*
G02*
X12172000Y46036500I0J-100500D01*
G01*
X12172000Y44063500D01*
G75*
G02*
X12071500Y43963000I-100500J0D01*
G01*
G37*
G36*
G01*
X12071500Y48913000D02*
X11468500Y48913000D01*
G75*
G02*
X11368000Y49013500I0J100500D01*
G01*
X11368000Y50986500D01*
G75*
G02*
X11468500Y51087000I100500J0D01*
G01*
X12071500Y51087000D01*
G75*
G02*
X12172000Y50986500I0J-100500D01*
G01*
X12172000Y49013500D01*
G75*
G02*
X12071500Y48913000I-100500J0D01*
G01*
G37*
G36*
G01*
X10801500Y48913000D02*
X10198500Y48913000D01*
G75*
G02*
X10098000Y49013500I0J100500D01*
G01*
X10098000Y50986500D01*
G75*
G02*
X10198500Y51087000I100500J0D01*
G01*
X10801500Y51087000D01*
G75*
G02*
X10902000Y50986500I0J-100500D01*
G01*
X10902000Y49013500D01*
G75*
G02*
X10801500Y48913000I-100500J0D01*
G01*
G37*
G36*
G01*
X9531500Y48913000D02*
X8928500Y48913000D01*
G75*
G02*
X8828000Y49013500I0J100500D01*
G01*
X8828000Y50986500D01*
G75*
G02*
X8928500Y51087000I100500J0D01*
G01*
X9531500Y51087000D01*
G75*
G02*
X9632000Y50986500I0J-100500D01*
G01*
X9632000Y49013500D01*
G75*
G02*
X9531500Y48913000I-100500J0D01*
G01*
G37*
G36*
G01*
X8261500Y48913000D02*
X7658500Y48913000D01*
G75*
G02*
X7558000Y49013500I0J100500D01*
G01*
X7558000Y50986500D01*
G75*
G02*
X7658500Y51087000I100500J0D01*
G01*
X8261500Y51087000D01*
G75*
G02*
X8362000Y50986500I0J-100500D01*
G01*
X8362000Y49013500D01*
G75*
G02*
X8261500Y48913000I-100500J0D01*
G01*
G37*
G04 #@! TD*
G04 #@! TO.C,R7*
G36*
G01*
X-30015000Y54400000D02*
X-30015000Y54770000D01*
G75*
G02*
X-29880000Y54905000I135000J0D01*
G01*
X-29610000Y54905000D01*
G75*
G02*
X-29475000Y54770000I0J-135000D01*
G01*
X-29475000Y54400000D01*
G75*
G02*
X-29610000Y54265000I-135000J0D01*
G01*
X-29880000Y54265000D01*
G75*
G02*
X-30015000Y54400000I0J135000D01*
G01*
G37*
G36*
G01*
X-28995000Y54400000D02*
X-28995000Y54770000D01*
G75*
G02*
X-28860000Y54905000I135000J0D01*
G01*
X-28590000Y54905000D01*
G75*
G02*
X-28455000Y54770000I0J-135000D01*
G01*
X-28455000Y54400000D01*
G75*
G02*
X-28590000Y54265000I-135000J0D01*
G01*
X-28860000Y54265000D01*
G75*
G02*
X-28995000Y54400000I0J135000D01*
G01*
G37*
G04 #@! TD*
G04 #@! TO.C,U2*
G36*
G01*
X-8913000Y60251500D02*
X-8913000Y59648500D01*
G75*
G02*
X-9013500Y59548000I-100500J0D01*
G01*
X-10986500Y59548000D01*
G75*
G02*
X-11087000Y59648500I0J100500D01*
G01*
X-11087000Y60251500D01*
G75*
G02*
X-10986500Y60352000I100500J0D01*
G01*
X-9013500Y60352000D01*
G75*
G02*
X-8913000Y60251500I0J-100500D01*
G01*
G37*
G36*
G01*
X-8913000Y61521500D02*
X-8913000Y60918500D01*
G75*
G02*
X-9013500Y60818000I-100500J0D01*
G01*
X-10986500Y60818000D01*
G75*
G02*
X-11087000Y60918500I0J100500D01*
G01*
X-11087000Y61521500D01*
G75*
G02*
X-10986500Y61622000I100500J0D01*
G01*
X-9013500Y61622000D01*
G75*
G02*
X-8913000Y61521500I0J-100500D01*
G01*
G37*
G36*
G01*
X-8913000Y62791500D02*
X-8913000Y62188500D01*
G75*
G02*
X-9013500Y62088000I-100500J0D01*
G01*
X-10986500Y62088000D01*
G75*
G02*
X-11087000Y62188500I0J100500D01*
G01*
X-11087000Y62791500D01*
G75*
G02*
X-10986500Y62892000I100500J0D01*
G01*
X-9013500Y62892000D01*
G75*
G02*
X-8913000Y62791500I0J-100500D01*
G01*
G37*
G36*
G01*
X-8913000Y64061500D02*
X-8913000Y63458500D01*
G75*
G02*
X-9013500Y63358000I-100500J0D01*
G01*
X-10986500Y63358000D01*
G75*
G02*
X-11087000Y63458500I0J100500D01*
G01*
X-11087000Y64061500D01*
G75*
G02*
X-10986500Y64162000I100500J0D01*
G01*
X-9013500Y64162000D01*
G75*
G02*
X-8913000Y64061500I0J-100500D01*
G01*
G37*
G36*
G01*
X-13863000Y64061500D02*
X-13863000Y63458500D01*
G75*
G02*
X-13963500Y63358000I-100500J0D01*
G01*
X-15936500Y63358000D01*
G75*
G02*
X-16037000Y63458500I0J100500D01*
G01*
X-16037000Y64061500D01*
G75*
G02*
X-15936500Y64162000I100500J0D01*
G01*
X-13963500Y64162000D01*
G75*
G02*
X-13863000Y64061500I0J-100500D01*
G01*
G37*
G36*
G01*
X-13863000Y62791500D02*
X-13863000Y62188500D01*
G75*
G02*
X-13963500Y62088000I-100500J0D01*
G01*
X-15936500Y62088000D01*
G75*
G02*
X-16037000Y62188500I0J100500D01*
G01*
X-16037000Y62791500D01*
G75*
G02*
X-15936500Y62892000I100500J0D01*
G01*
X-13963500Y62892000D01*
G75*
G02*
X-13863000Y62791500I0J-100500D01*
G01*
G37*
G36*
G01*
X-13863000Y61521500D02*
X-13863000Y60918500D01*
G75*
G02*
X-13963500Y60818000I-100500J0D01*
G01*
X-15936500Y60818000D01*
G75*
G02*
X-16037000Y60918500I0J100500D01*
G01*
X-16037000Y61521500D01*
G75*
G02*
X-15936500Y61622000I100500J0D01*
G01*
X-13963500Y61622000D01*
G75*
G02*
X-13863000Y61521500I0J-100500D01*
G01*
G37*
G36*
G01*
X-13863000Y60251500D02*
X-13863000Y59648500D01*
G75*
G02*
X-13963500Y59548000I-100500J0D01*
G01*
X-15936500Y59548000D01*
G75*
G02*
X-16037000Y59648500I0J100500D01*
G01*
X-16037000Y60251500D01*
G75*
G02*
X-15936500Y60352000I100500J0D01*
G01*
X-13963500Y60352000D01*
G75*
G02*
X-13863000Y60251500I0J-100500D01*
G01*
G37*
G04 #@! TD*
G04 #@! TO.C,D4*
G36*
G01*
X-64420000Y45470000D02*
X-64420000Y46220000D01*
G75*
G02*
X-64195000Y46445000I225000J0D01*
G01*
X-63745000Y46445000D01*
G75*
G02*
X-63520000Y46220000I0J-225000D01*
G01*
X-63520000Y45470000D01*
G75*
G02*
X-63745000Y45245000I-225000J0D01*
G01*
X-64195000Y45245000D01*
G75*
G02*
X-64420000Y45470000I0J225000D01*
G01*
G37*
G36*
G01*
X-61120000Y45470000D02*
X-61120000Y46220000D01*
G75*
G02*
X-60895000Y46445000I225000J0D01*
G01*
X-60445000Y46445000D01*
G75*
G02*
X-60220000Y46220000I0J-225000D01*
G01*
X-60220000Y45470000D01*
G75*
G02*
X-60445000Y45245000I-225000J0D01*
G01*
X-60895000Y45245000D01*
G75*
G02*
X-61120000Y45470000I0J225000D01*
G01*
G37*
G04 #@! TD*
G04 #@! TO.C,D8*
G36*
G01*
X-64420000Y35420000D02*
X-64420000Y36170000D01*
G75*
G02*
X-64195000Y36395000I225000J0D01*
G01*
X-63745000Y36395000D01*
G75*
G02*
X-63520000Y36170000I0J-225000D01*
G01*
X-63520000Y35420000D01*
G75*
G02*
X-63745000Y35195000I-225000J0D01*
G01*
X-64195000Y35195000D01*
G75*
G02*
X-64420000Y35420000I0J225000D01*
G01*
G37*
G36*
G01*
X-61120000Y35420000D02*
X-61120000Y36170000D01*
G75*
G02*
X-60895000Y36395000I225000J0D01*
G01*
X-60445000Y36395000D01*
G75*
G02*
X-60220000Y36170000I0J-225000D01*
G01*
X-60220000Y35420000D01*
G75*
G02*
X-60445000Y35195000I-225000J0D01*
G01*
X-60895000Y35195000D01*
G75*
G02*
X-61120000Y35420000I0J225000D01*
G01*
G37*
G04 #@! TD*
M02*
