G04 #@! TF.GenerationSoftware,KiCad,Pcbnew,8.0.9-8.0.9-0~ubuntu24.04.1*
G04 #@! TF.CreationDate,2025-09-17T02:38:14+00:00*
G04 #@! TF.ProjectId,EP91Starlet,45503931-5374-4617-926c-65742e6b6963,rev?*
G04 #@! TF.SameCoordinates,Original*
G04 #@! TF.FileFunction,Paste,Bot*
G04 #@! TF.FilePolarity,Positive*
%FSLAX46Y46*%
G04 Gerber Fmt 4.6, Leading zero omitted, Abs format (unit mm)*
G04 Created by KiCad (PCBNEW 8.0.9-8.0.9-0~ubuntu24.04.1) date 2025-09-17 02:38:14*
%MOMM*%
%LPD*%
G01*
G04 APERTURE LIST*
G04 APERTURE END LIST*
G04 #@! TO.C,R7*
G36*
G01*
X99103056Y67062000D02*
X98323056Y67062000D01*
G75*
G02*
X98253056Y67132000I0J70000D01*
G01*
X98253056Y67692000D01*
G75*
G02*
X98323056Y67762000I70000J0D01*
G01*
X99103056Y67762000D01*
G75*
G02*
X99173056Y67692000I0J-70000D01*
G01*
X99173056Y67132000D01*
G75*
G02*
X99103056Y67062000I-70000J0D01*
G01*
G37*
G36*
G01*
X99103056Y68662000D02*
X98323056Y68662000D01*
G75*
G02*
X98253056Y68732000I0J70000D01*
G01*
X98253056Y69292000D01*
G75*
G02*
X98323056Y69362000I70000J0D01*
G01*
X99103056Y69362000D01*
G75*
G02*
X99173056Y69292000I0J-70000D01*
G01*
X99173056Y68732000D01*
G75*
G02*
X99103056Y68662000I-70000J0D01*
G01*
G37*
G04 #@! TD*
G04 #@! TO.C,R20*
G36*
G01*
X36619056Y90684000D02*
X35839056Y90684000D01*
G75*
G02*
X35769056Y90754000I0J70000D01*
G01*
X35769056Y91314000D01*
G75*
G02*
X35839056Y91384000I70000J0D01*
G01*
X36619056Y91384000D01*
G75*
G02*
X36689056Y91314000I0J-70000D01*
G01*
X36689056Y90754000D01*
G75*
G02*
X36619056Y90684000I-70000J0D01*
G01*
G37*
G36*
G01*
X36619056Y92284000D02*
X35839056Y92284000D01*
G75*
G02*
X35769056Y92354000I0J70000D01*
G01*
X35769056Y92914000D01*
G75*
G02*
X35839056Y92984000I70000J0D01*
G01*
X36619056Y92984000D01*
G75*
G02*
X36689056Y92914000I0J-70000D01*
G01*
X36689056Y92354000D01*
G75*
G02*
X36619056Y92284000I-70000J0D01*
G01*
G37*
G04 #@! TD*
G04 #@! TO.C,U3*
G36*
G01*
X27806056Y79067000D02*
X27806056Y78767000D01*
G75*
G02*
X27656056Y78617000I-150000J0D01*
G01*
X26006056Y78617000D01*
G75*
G02*
X25856056Y78767000I0J150000D01*
G01*
X25856056Y79067000D01*
G75*
G02*
X26006056Y79217000I150000J0D01*
G01*
X27656056Y79217000D01*
G75*
G02*
X27806056Y79067000I0J-150000D01*
G01*
G37*
G36*
G01*
X27806056Y77797000D02*
X27806056Y77497000D01*
G75*
G02*
X27656056Y77347000I-150000J0D01*
G01*
X26006056Y77347000D01*
G75*
G02*
X25856056Y77497000I0J150000D01*
G01*
X25856056Y77797000D01*
G75*
G02*
X26006056Y77947000I150000J0D01*
G01*
X27656056Y77947000D01*
G75*
G02*
X27806056Y77797000I0J-150000D01*
G01*
G37*
G36*
G01*
X27806056Y76527000D02*
X27806056Y76227000D01*
G75*
G02*
X27656056Y76077000I-150000J0D01*
G01*
X26006056Y76077000D01*
G75*
G02*
X25856056Y76227000I0J150000D01*
G01*
X25856056Y76527000D01*
G75*
G02*
X26006056Y76677000I150000J0D01*
G01*
X27656056Y76677000D01*
G75*
G02*
X27806056Y76527000I0J-150000D01*
G01*
G37*
G36*
G01*
X27806056Y75257000D02*
X27806056Y74957000D01*
G75*
G02*
X27656056Y74807000I-150000J0D01*
G01*
X26006056Y74807000D01*
G75*
G02*
X25856056Y74957000I0J150000D01*
G01*
X25856056Y75257000D01*
G75*
G02*
X26006056Y75407000I150000J0D01*
G01*
X27656056Y75407000D01*
G75*
G02*
X27806056Y75257000I0J-150000D01*
G01*
G37*
G36*
G01*
X22856056Y75257000D02*
X22856056Y74957000D01*
G75*
G02*
X22706056Y74807000I-150000J0D01*
G01*
X21056056Y74807000D01*
G75*
G02*
X20906056Y74957000I0J150000D01*
G01*
X20906056Y75257000D01*
G75*
G02*
X21056056Y75407000I150000J0D01*
G01*
X22706056Y75407000D01*
G75*
G02*
X22856056Y75257000I0J-150000D01*
G01*
G37*
G36*
G01*
X22856056Y76527000D02*
X22856056Y76227000D01*
G75*
G02*
X22706056Y76077000I-150000J0D01*
G01*
X21056056Y76077000D01*
G75*
G02*
X20906056Y76227000I0J150000D01*
G01*
X20906056Y76527000D01*
G75*
G02*
X21056056Y76677000I150000J0D01*
G01*
X22706056Y76677000D01*
G75*
G02*
X22856056Y76527000I0J-150000D01*
G01*
G37*
G36*
G01*
X22856056Y77797000D02*
X22856056Y77497000D01*
G75*
G02*
X22706056Y77347000I-150000J0D01*
G01*
X21056056Y77347000D01*
G75*
G02*
X20906056Y77497000I0J150000D01*
G01*
X20906056Y77797000D01*
G75*
G02*
X21056056Y77947000I150000J0D01*
G01*
X22706056Y77947000D01*
G75*
G02*
X22856056Y77797000I0J-150000D01*
G01*
G37*
G36*
G01*
X22856056Y79067000D02*
X22856056Y78767000D01*
G75*
G02*
X22706056Y78617000I-150000J0D01*
G01*
X21056056Y78617000D01*
G75*
G02*
X20906056Y78767000I0J150000D01*
G01*
X20906056Y79067000D01*
G75*
G02*
X21056056Y79217000I150000J0D01*
G01*
X22706056Y79217000D01*
G75*
G02*
X22856056Y79067000I0J-150000D01*
G01*
G37*
G04 #@! TD*
G04 #@! TO.C,U1*
G36*
G01*
X27806056Y99134000D02*
X27806056Y98834000D01*
G75*
G02*
X27656056Y98684000I-150000J0D01*
G01*
X26006056Y98684000D01*
G75*
G02*
X25856056Y98834000I0J150000D01*
G01*
X25856056Y99134000D01*
G75*
G02*
X26006056Y99284000I150000J0D01*
G01*
X27656056Y99284000D01*
G75*
G02*
X27806056Y99134000I0J-150000D01*
G01*
G37*
G36*
G01*
X27806056Y97864000D02*
X27806056Y97564000D01*
G75*
G02*
X27656056Y97414000I-150000J0D01*
G01*
X26006056Y97414000D01*
G75*
G02*
X25856056Y97564000I0J150000D01*
G01*
X25856056Y97864000D01*
G75*
G02*
X26006056Y98014000I150000J0D01*
G01*
X27656056Y98014000D01*
G75*
G02*
X27806056Y97864000I0J-150000D01*
G01*
G37*
G36*
G01*
X27806056Y96594000D02*
X27806056Y96294000D01*
G75*
G02*
X27656056Y96144000I-150000J0D01*
G01*
X26006056Y96144000D01*
G75*
G02*
X25856056Y96294000I0J150000D01*
G01*
X25856056Y96594000D01*
G75*
G02*
X26006056Y96744000I150000J0D01*
G01*
X27656056Y96744000D01*
G75*
G02*
X27806056Y96594000I0J-150000D01*
G01*
G37*
G36*
G01*
X27806056Y95324000D02*
X27806056Y95024000D01*
G75*
G02*
X27656056Y94874000I-150000J0D01*
G01*
X26006056Y94874000D01*
G75*
G02*
X25856056Y95024000I0J150000D01*
G01*
X25856056Y95324000D01*
G75*
G02*
X26006056Y95474000I150000J0D01*
G01*
X27656056Y95474000D01*
G75*
G02*
X27806056Y95324000I0J-150000D01*
G01*
G37*
G36*
G01*
X22856056Y95324000D02*
X22856056Y95024000D01*
G75*
G02*
X22706056Y94874000I-150000J0D01*
G01*
X21056056Y94874000D01*
G75*
G02*
X20906056Y95024000I0J150000D01*
G01*
X20906056Y95324000D01*
G75*
G02*
X21056056Y95474000I150000J0D01*
G01*
X22706056Y95474000D01*
G75*
G02*
X22856056Y95324000I0J-150000D01*
G01*
G37*
G36*
G01*
X22856056Y96594000D02*
X22856056Y96294000D01*
G75*
G02*
X22706056Y96144000I-150000J0D01*
G01*
X21056056Y96144000D01*
G75*
G02*
X20906056Y96294000I0J150000D01*
G01*
X20906056Y96594000D01*
G75*
G02*
X21056056Y96744000I150000J0D01*
G01*
X22706056Y96744000D01*
G75*
G02*
X22856056Y96594000I0J-150000D01*
G01*
G37*
G36*
G01*
X22856056Y97864000D02*
X22856056Y97564000D01*
G75*
G02*
X22706056Y97414000I-150000J0D01*
G01*
X21056056Y97414000D01*
G75*
G02*
X20906056Y97564000I0J150000D01*
G01*
X20906056Y97864000D01*
G75*
G02*
X21056056Y98014000I150000J0D01*
G01*
X22706056Y98014000D01*
G75*
G02*
X22856056Y97864000I0J-150000D01*
G01*
G37*
G36*
G01*
X22856056Y99134000D02*
X22856056Y98834000D01*
G75*
G02*
X22706056Y98684000I-150000J0D01*
G01*
X21056056Y98684000D01*
G75*
G02*
X20906056Y98834000I0J150000D01*
G01*
X20906056Y99134000D01*
G75*
G02*
X21056056Y99284000I150000J0D01*
G01*
X22706056Y99284000D01*
G75*
G02*
X22856056Y99134000I0J-150000D01*
G01*
G37*
G04 #@! TD*
G04 #@! TO.C,R2*
G36*
G01*
X30781056Y76767000D02*
X30781056Y75987000D01*
G75*
G02*
X30711056Y75917000I-70000J0D01*
G01*
X30151056Y75917000D01*
G75*
G02*
X30081056Y75987000I0J70000D01*
G01*
X30081056Y76767000D01*
G75*
G02*
X30151056Y76837000I70000J0D01*
G01*
X30711056Y76837000D01*
G75*
G02*
X30781056Y76767000I0J-70000D01*
G01*
G37*
G36*
G01*
X29181056Y76767000D02*
X29181056Y75987000D01*
G75*
G02*
X29111056Y75917000I-70000J0D01*
G01*
X28551056Y75917000D01*
G75*
G02*
X28481056Y75987000I0J70000D01*
G01*
X28481056Y76767000D01*
G75*
G02*
X28551056Y76837000I70000J0D01*
G01*
X29111056Y76837000D01*
G75*
G02*
X29181056Y76767000I0J-70000D01*
G01*
G37*
G04 #@! TD*
G04 #@! TO.C,R18*
G36*
G01*
X31781056Y99374000D02*
X31781056Y98594000D01*
G75*
G02*
X31711056Y98524000I-70000J0D01*
G01*
X31151056Y98524000D01*
G75*
G02*
X31081056Y98594000I0J70000D01*
G01*
X31081056Y99374000D01*
G75*
G02*
X31151056Y99444000I70000J0D01*
G01*
X31711056Y99444000D01*
G75*
G02*
X31781056Y99374000I0J-70000D01*
G01*
G37*
G36*
G01*
X30181056Y99374000D02*
X30181056Y98594000D01*
G75*
G02*
X30111056Y98524000I-70000J0D01*
G01*
X29551056Y98524000D01*
G75*
G02*
X29481056Y98594000I0J70000D01*
G01*
X29481056Y99374000D01*
G75*
G02*
X29551056Y99444000I70000J0D01*
G01*
X30111056Y99444000D01*
G75*
G02*
X30181056Y99374000I0J-70000D01*
G01*
G37*
G04 #@! TD*
G04 #@! TO.C,R5*
G36*
G01*
X99103056Y58474000D02*
X98323056Y58474000D01*
G75*
G02*
X98253056Y58544000I0J70000D01*
G01*
X98253056Y59104000D01*
G75*
G02*
X98323056Y59174000I70000J0D01*
G01*
X99103056Y59174000D01*
G75*
G02*
X99173056Y59104000I0J-70000D01*
G01*
X99173056Y58544000D01*
G75*
G02*
X99103056Y58474000I-70000J0D01*
G01*
G37*
G36*
G01*
X99103056Y60074000D02*
X98323056Y60074000D01*
G75*
G02*
X98253056Y60144000I0J70000D01*
G01*
X98253056Y60704000D01*
G75*
G02*
X98323056Y60774000I70000J0D01*
G01*
X99103056Y60774000D01*
G75*
G02*
X99173056Y60704000I0J-70000D01*
G01*
X99173056Y60144000D01*
G75*
G02*
X99103056Y60074000I-70000J0D01*
G01*
G37*
G04 #@! TD*
G04 #@! TO.C,R1*
G36*
G01*
X30781056Y68957000D02*
X30781056Y68177000D01*
G75*
G02*
X30711056Y68107000I-70000J0D01*
G01*
X30151056Y68107000D01*
G75*
G02*
X30081056Y68177000I0J70000D01*
G01*
X30081056Y68957000D01*
G75*
G02*
X30151056Y69027000I70000J0D01*
G01*
X30711056Y69027000D01*
G75*
G02*
X30781056Y68957000I0J-70000D01*
G01*
G37*
G36*
G01*
X29181056Y68957000D02*
X29181056Y68177000D01*
G75*
G02*
X29111056Y68107000I-70000J0D01*
G01*
X28551056Y68107000D01*
G75*
G02*
X28481056Y68177000I0J70000D01*
G01*
X28481056Y68957000D01*
G75*
G02*
X28551056Y69027000I70000J0D01*
G01*
X29111056Y69027000D01*
G75*
G02*
X29181056Y68957000I0J-70000D01*
G01*
G37*
G04 #@! TD*
G04 #@! TO.C,U5*
G36*
G01*
X99369056Y77989000D02*
X99369056Y77689000D01*
G75*
G02*
X99219056Y77539000I-150000J0D01*
G01*
X97569056Y77539000D01*
G75*
G02*
X97419056Y77689000I0J150000D01*
G01*
X97419056Y77989000D01*
G75*
G02*
X97569056Y78139000I150000J0D01*
G01*
X99219056Y78139000D01*
G75*
G02*
X99369056Y77989000I0J-150000D01*
G01*
G37*
G36*
G01*
X99369056Y76719000D02*
X99369056Y76419000D01*
G75*
G02*
X99219056Y76269000I-150000J0D01*
G01*
X97569056Y76269000D01*
G75*
G02*
X97419056Y76419000I0J150000D01*
G01*
X97419056Y76719000D01*
G75*
G02*
X97569056Y76869000I150000J0D01*
G01*
X99219056Y76869000D01*
G75*
G02*
X99369056Y76719000I0J-150000D01*
G01*
G37*
G36*
G01*
X99369056Y75449000D02*
X99369056Y75149000D01*
G75*
G02*
X99219056Y74999000I-150000J0D01*
G01*
X97569056Y74999000D01*
G75*
G02*
X97419056Y75149000I0J150000D01*
G01*
X97419056Y75449000D01*
G75*
G02*
X97569056Y75599000I150000J0D01*
G01*
X99219056Y75599000D01*
G75*
G02*
X99369056Y75449000I0J-150000D01*
G01*
G37*
G36*
G01*
X99369056Y74179000D02*
X99369056Y73879000D01*
G75*
G02*
X99219056Y73729000I-150000J0D01*
G01*
X97569056Y73729000D01*
G75*
G02*
X97419056Y73879000I0J150000D01*
G01*
X97419056Y74179000D01*
G75*
G02*
X97569056Y74329000I150000J0D01*
G01*
X99219056Y74329000D01*
G75*
G02*
X99369056Y74179000I0J-150000D01*
G01*
G37*
G36*
G01*
X94419056Y74179000D02*
X94419056Y73879000D01*
G75*
G02*
X94269056Y73729000I-150000J0D01*
G01*
X92619056Y73729000D01*
G75*
G02*
X92469056Y73879000I0J150000D01*
G01*
X92469056Y74179000D01*
G75*
G02*
X92619056Y74329000I150000J0D01*
G01*
X94269056Y74329000D01*
G75*
G02*
X94419056Y74179000I0J-150000D01*
G01*
G37*
G36*
G01*
X94419056Y75449000D02*
X94419056Y75149000D01*
G75*
G02*
X94269056Y74999000I-150000J0D01*
G01*
X92619056Y74999000D01*
G75*
G02*
X92469056Y75149000I0J150000D01*
G01*
X92469056Y75449000D01*
G75*
G02*
X92619056Y75599000I150000J0D01*
G01*
X94269056Y75599000D01*
G75*
G02*
X94419056Y75449000I0J-150000D01*
G01*
G37*
G36*
G01*
X94419056Y76719000D02*
X94419056Y76419000D01*
G75*
G02*
X94269056Y76269000I-150000J0D01*
G01*
X92619056Y76269000D01*
G75*
G02*
X92469056Y76419000I0J150000D01*
G01*
X92469056Y76719000D01*
G75*
G02*
X92619056Y76869000I150000J0D01*
G01*
X94269056Y76869000D01*
G75*
G02*
X94419056Y76719000I0J-150000D01*
G01*
G37*
G36*
G01*
X94419056Y77989000D02*
X94419056Y77689000D01*
G75*
G02*
X94269056Y77539000I-150000J0D01*
G01*
X92619056Y77539000D01*
G75*
G02*
X92469056Y77689000I0J150000D01*
G01*
X92469056Y77989000D01*
G75*
G02*
X92619056Y78139000I150000J0D01*
G01*
X94269056Y78139000D01*
G75*
G02*
X94419056Y77989000I0J-150000D01*
G01*
G37*
G04 #@! TD*
G04 #@! TO.C,D4*
G36*
G01*
X75151056Y74742000D02*
X75151056Y75762000D01*
G75*
G02*
X75241056Y75852000I90000J0D01*
G01*
X75961056Y75852000D01*
G75*
G02*
X76051056Y75762000I0J-90000D01*
G01*
X76051056Y74742000D01*
G75*
G02*
X75961056Y74652000I-90000J0D01*
G01*
X75241056Y74652000D01*
G75*
G02*
X75151056Y74742000I0J90000D01*
G01*
G37*
G36*
G01*
X78451056Y74742000D02*
X78451056Y75762000D01*
G75*
G02*
X78541056Y75852000I90000J0D01*
G01*
X79261056Y75852000D01*
G75*
G02*
X79351056Y75762000I0J-90000D01*
G01*
X79351056Y74742000D01*
G75*
G02*
X79261056Y74652000I-90000J0D01*
G01*
X78541056Y74652000D01*
G75*
G02*
X78451056Y74742000I0J90000D01*
G01*
G37*
G04 #@! TD*
G04 #@! TO.C,U4*
G36*
G01*
X99369056Y85799000D02*
X99369056Y85499000D01*
G75*
G02*
X99219056Y85349000I-150000J0D01*
G01*
X97569056Y85349000D01*
G75*
G02*
X97419056Y85499000I0J150000D01*
G01*
X97419056Y85799000D01*
G75*
G02*
X97569056Y85949000I150000J0D01*
G01*
X99219056Y85949000D01*
G75*
G02*
X99369056Y85799000I0J-150000D01*
G01*
G37*
G36*
G01*
X99369056Y84529000D02*
X99369056Y84229000D01*
G75*
G02*
X99219056Y84079000I-150000J0D01*
G01*
X97569056Y84079000D01*
G75*
G02*
X97419056Y84229000I0J150000D01*
G01*
X97419056Y84529000D01*
G75*
G02*
X97569056Y84679000I150000J0D01*
G01*
X99219056Y84679000D01*
G75*
G02*
X99369056Y84529000I0J-150000D01*
G01*
G37*
G36*
G01*
X99369056Y83259000D02*
X99369056Y82959000D01*
G75*
G02*
X99219056Y82809000I-150000J0D01*
G01*
X97569056Y82809000D01*
G75*
G02*
X97419056Y82959000I0J150000D01*
G01*
X97419056Y83259000D01*
G75*
G02*
X97569056Y83409000I150000J0D01*
G01*
X99219056Y83409000D01*
G75*
G02*
X99369056Y83259000I0J-150000D01*
G01*
G37*
G36*
G01*
X99369056Y81989000D02*
X99369056Y81689000D01*
G75*
G02*
X99219056Y81539000I-150000J0D01*
G01*
X97569056Y81539000D01*
G75*
G02*
X97419056Y81689000I0J150000D01*
G01*
X97419056Y81989000D01*
G75*
G02*
X97569056Y82139000I150000J0D01*
G01*
X99219056Y82139000D01*
G75*
G02*
X99369056Y81989000I0J-150000D01*
G01*
G37*
G36*
G01*
X94419056Y81989000D02*
X94419056Y81689000D01*
G75*
G02*
X94269056Y81539000I-150000J0D01*
G01*
X92619056Y81539000D01*
G75*
G02*
X92469056Y81689000I0J150000D01*
G01*
X92469056Y81989000D01*
G75*
G02*
X92619056Y82139000I150000J0D01*
G01*
X94269056Y82139000D01*
G75*
G02*
X94419056Y81989000I0J-150000D01*
G01*
G37*
G36*
G01*
X94419056Y83259000D02*
X94419056Y82959000D01*
G75*
G02*
X94269056Y82809000I-150000J0D01*
G01*
X92619056Y82809000D01*
G75*
G02*
X92469056Y82959000I0J150000D01*
G01*
X92469056Y83259000D01*
G75*
G02*
X92619056Y83409000I150000J0D01*
G01*
X94269056Y83409000D01*
G75*
G02*
X94419056Y83259000I0J-150000D01*
G01*
G37*
G36*
G01*
X94419056Y84529000D02*
X94419056Y84229000D01*
G75*
G02*
X94269056Y84079000I-150000J0D01*
G01*
X92619056Y84079000D01*
G75*
G02*
X92469056Y84229000I0J150000D01*
G01*
X92469056Y84529000D01*
G75*
G02*
X92619056Y84679000I150000J0D01*
G01*
X94269056Y84679000D01*
G75*
G02*
X94419056Y84529000I0J-150000D01*
G01*
G37*
G36*
G01*
X94419056Y85799000D02*
X94419056Y85499000D01*
G75*
G02*
X94269056Y85349000I-150000J0D01*
G01*
X92619056Y85349000D01*
G75*
G02*
X92469056Y85499000I0J150000D01*
G01*
X92469056Y85799000D01*
G75*
G02*
X92619056Y85949000I150000J0D01*
G01*
X94269056Y85949000D01*
G75*
G02*
X94419056Y85799000I0J-150000D01*
G01*
G37*
G04 #@! TD*
G04 #@! TO.C,U2*
G36*
G01*
X27806056Y71257000D02*
X27806056Y70957000D01*
G75*
G02*
X27656056Y70807000I-150000J0D01*
G01*
X26006056Y70807000D01*
G75*
G02*
X25856056Y70957000I0J150000D01*
G01*
X25856056Y71257000D01*
G75*
G02*
X26006056Y71407000I150000J0D01*
G01*
X27656056Y71407000D01*
G75*
G02*
X27806056Y71257000I0J-150000D01*
G01*
G37*
G36*
G01*
X27806056Y69987000D02*
X27806056Y69687000D01*
G75*
G02*
X27656056Y69537000I-150000J0D01*
G01*
X26006056Y69537000D01*
G75*
G02*
X25856056Y69687000I0J150000D01*
G01*
X25856056Y69987000D01*
G75*
G02*
X26006056Y70137000I150000J0D01*
G01*
X27656056Y70137000D01*
G75*
G02*
X27806056Y69987000I0J-150000D01*
G01*
G37*
G36*
G01*
X27806056Y68717000D02*
X27806056Y68417000D01*
G75*
G02*
X27656056Y68267000I-150000J0D01*
G01*
X26006056Y68267000D01*
G75*
G02*
X25856056Y68417000I0J150000D01*
G01*
X25856056Y68717000D01*
G75*
G02*
X26006056Y68867000I150000J0D01*
G01*
X27656056Y68867000D01*
G75*
G02*
X27806056Y68717000I0J-150000D01*
G01*
G37*
G36*
G01*
X27806056Y67447000D02*
X27806056Y67147000D01*
G75*
G02*
X27656056Y66997000I-150000J0D01*
G01*
X26006056Y66997000D01*
G75*
G02*
X25856056Y67147000I0J150000D01*
G01*
X25856056Y67447000D01*
G75*
G02*
X26006056Y67597000I150000J0D01*
G01*
X27656056Y67597000D01*
G75*
G02*
X27806056Y67447000I0J-150000D01*
G01*
G37*
G36*
G01*
X22856056Y67447000D02*
X22856056Y67147000D01*
G75*
G02*
X22706056Y66997000I-150000J0D01*
G01*
X21056056Y66997000D01*
G75*
G02*
X20906056Y67147000I0J150000D01*
G01*
X20906056Y67447000D01*
G75*
G02*
X21056056Y67597000I150000J0D01*
G01*
X22706056Y67597000D01*
G75*
G02*
X22856056Y67447000I0J-150000D01*
G01*
G37*
G36*
G01*
X22856056Y68717000D02*
X22856056Y68417000D01*
G75*
G02*
X22706056Y68267000I-150000J0D01*
G01*
X21056056Y68267000D01*
G75*
G02*
X20906056Y68417000I0J150000D01*
G01*
X20906056Y68717000D01*
G75*
G02*
X21056056Y68867000I150000J0D01*
G01*
X22706056Y68867000D01*
G75*
G02*
X22856056Y68717000I0J-150000D01*
G01*
G37*
G36*
G01*
X22856056Y69987000D02*
X22856056Y69687000D01*
G75*
G02*
X22706056Y69537000I-150000J0D01*
G01*
X21056056Y69537000D01*
G75*
G02*
X20906056Y69687000I0J150000D01*
G01*
X20906056Y69987000D01*
G75*
G02*
X21056056Y70137000I150000J0D01*
G01*
X22706056Y70137000D01*
G75*
G02*
X22856056Y69987000I0J-150000D01*
G01*
G37*
G36*
G01*
X22856056Y71257000D02*
X22856056Y70957000D01*
G75*
G02*
X22706056Y70807000I-150000J0D01*
G01*
X21056056Y70807000D01*
G75*
G02*
X20906056Y70957000I0J150000D01*
G01*
X20906056Y71257000D01*
G75*
G02*
X21056056Y71407000I150000J0D01*
G01*
X22706056Y71407000D01*
G75*
G02*
X22856056Y71257000I0J-150000D01*
G01*
G37*
G04 #@! TD*
G04 #@! TO.C,R6*
G36*
G01*
X98323056Y56662000D02*
X99103056Y56662000D01*
G75*
G02*
X99173056Y56592000I0J-70000D01*
G01*
X99173056Y56032000D01*
G75*
G02*
X99103056Y55962000I-70000J0D01*
G01*
X98323056Y55962000D01*
G75*
G02*
X98253056Y56032000I0J70000D01*
G01*
X98253056Y56592000D01*
G75*
G02*
X98323056Y56662000I70000J0D01*
G01*
G37*
G36*
G01*
X98323056Y55062000D02*
X99103056Y55062000D01*
G75*
G02*
X99173056Y54992000I0J-70000D01*
G01*
X99173056Y54432000D01*
G75*
G02*
X99103056Y54362000I-70000J0D01*
G01*
X98323056Y54362000D01*
G75*
G02*
X98253056Y54432000I0J70000D01*
G01*
X98253056Y54992000D01*
G75*
G02*
X98323056Y55062000I70000J0D01*
G01*
G37*
G04 #@! TD*
G04 #@! TO.C,D2*
G36*
G01*
X75151056Y80742000D02*
X75151056Y81762000D01*
G75*
G02*
X75241056Y81852000I90000J0D01*
G01*
X75961056Y81852000D01*
G75*
G02*
X76051056Y81762000I0J-90000D01*
G01*
X76051056Y80742000D01*
G75*
G02*
X75961056Y80652000I-90000J0D01*
G01*
X75241056Y80652000D01*
G75*
G02*
X75151056Y80742000I0J90000D01*
G01*
G37*
G36*
G01*
X78451056Y80742000D02*
X78451056Y81762000D01*
G75*
G02*
X78541056Y81852000I90000J0D01*
G01*
X79261056Y81852000D01*
G75*
G02*
X79351056Y81762000I0J-90000D01*
G01*
X79351056Y80742000D01*
G75*
G02*
X79261056Y80652000I-90000J0D01*
G01*
X78541056Y80652000D01*
G75*
G02*
X78451056Y80742000I0J90000D01*
G01*
G37*
G04 #@! TD*
G04 #@! TO.C,R19*
G36*
G01*
X33045056Y97378000D02*
X33825056Y97378000D01*
G75*
G02*
X33895056Y97308000I0J-70000D01*
G01*
X33895056Y96748000D01*
G75*
G02*
X33825056Y96678000I-70000J0D01*
G01*
X33045056Y96678000D01*
G75*
G02*
X32975056Y96748000I0J70000D01*
G01*
X32975056Y97308000D01*
G75*
G02*
X33045056Y97378000I70000J0D01*
G01*
G37*
G36*
G01*
X33045056Y95778000D02*
X33825056Y95778000D01*
G75*
G02*
X33895056Y95708000I0J-70000D01*
G01*
X33895056Y95148000D01*
G75*
G02*
X33825056Y95078000I-70000J0D01*
G01*
X33045056Y95078000D01*
G75*
G02*
X32975056Y95148000I0J70000D01*
G01*
X32975056Y95708000D01*
G75*
G02*
X33045056Y95778000I70000J0D01*
G01*
G37*
G04 #@! TD*
G04 #@! TO.C,D8*
G36*
G01*
X52631056Y98224000D02*
X52631056Y97204000D01*
G75*
G02*
X52541056Y97114000I-90000J0D01*
G01*
X51821056Y97114000D01*
G75*
G02*
X51731056Y97204000I0J90000D01*
G01*
X51731056Y98224000D01*
G75*
G02*
X51821056Y98314000I90000J0D01*
G01*
X52541056Y98314000D01*
G75*
G02*
X52631056Y98224000I0J-90000D01*
G01*
G37*
G36*
G01*
X49331056Y98224000D02*
X49331056Y97204000D01*
G75*
G02*
X49241056Y97114000I-90000J0D01*
G01*
X48521056Y97114000D01*
G75*
G02*
X48431056Y97204000I0J90000D01*
G01*
X48431056Y98224000D01*
G75*
G02*
X48521056Y98314000I90000J0D01*
G01*
X49241056Y98314000D01*
G75*
G02*
X49331056Y98224000I0J-90000D01*
G01*
G37*
G04 #@! TD*
G04 #@! TO.C,R8*
G36*
G01*
X98323056Y65374000D02*
X99103056Y65374000D01*
G75*
G02*
X99173056Y65304000I0J-70000D01*
G01*
X99173056Y64744000D01*
G75*
G02*
X99103056Y64674000I-70000J0D01*
G01*
X98323056Y64674000D01*
G75*
G02*
X98253056Y64744000I0J70000D01*
G01*
X98253056Y65304000D01*
G75*
G02*
X98323056Y65374000I70000J0D01*
G01*
G37*
G36*
G01*
X98323056Y63774000D02*
X99103056Y63774000D01*
G75*
G02*
X99173056Y63704000I0J-70000D01*
G01*
X99173056Y63144000D01*
G75*
G02*
X99103056Y63074000I-70000J0D01*
G01*
X98323056Y63074000D01*
G75*
G02*
X98253056Y63144000I0J70000D01*
G01*
X98253056Y63704000D01*
G75*
G02*
X98323056Y63774000I70000J0D01*
G01*
G37*
G04 #@! TD*
G04 #@! TO.C,R17*
G36*
G01*
X31781056Y96834000D02*
X31781056Y96054000D01*
G75*
G02*
X31711056Y95984000I-70000J0D01*
G01*
X31151056Y95984000D01*
G75*
G02*
X31081056Y96054000I0J70000D01*
G01*
X31081056Y96834000D01*
G75*
G02*
X31151056Y96904000I70000J0D01*
G01*
X31711056Y96904000D01*
G75*
G02*
X31781056Y96834000I0J-70000D01*
G01*
G37*
G36*
G01*
X30181056Y96834000D02*
X30181056Y96054000D01*
G75*
G02*
X30111056Y95984000I-70000J0D01*
G01*
X29551056Y95984000D01*
G75*
G02*
X29481056Y96054000I0J70000D01*
G01*
X29481056Y96834000D01*
G75*
G02*
X29551056Y96904000I70000J0D01*
G01*
X30111056Y96904000D01*
G75*
G02*
X30181056Y96834000I0J-70000D01*
G01*
G37*
G04 #@! TD*
G04 #@! TO.C,R4*
G36*
G01*
X30781056Y79307000D02*
X30781056Y78527000D01*
G75*
G02*
X30711056Y78457000I-70000J0D01*
G01*
X30151056Y78457000D01*
G75*
G02*
X30081056Y78527000I0J70000D01*
G01*
X30081056Y79307000D01*
G75*
G02*
X30151056Y79377000I70000J0D01*
G01*
X30711056Y79377000D01*
G75*
G02*
X30781056Y79307000I0J-70000D01*
G01*
G37*
G36*
G01*
X29181056Y79307000D02*
X29181056Y78527000D01*
G75*
G02*
X29111056Y78457000I-70000J0D01*
G01*
X28551056Y78457000D01*
G75*
G02*
X28481056Y78527000I0J70000D01*
G01*
X28481056Y79307000D01*
G75*
G02*
X28551056Y79377000I70000J0D01*
G01*
X29111056Y79377000D01*
G75*
G02*
X29181056Y79307000I0J-70000D01*
G01*
G37*
G04 #@! TD*
G04 #@! TO.C,D5*
G36*
G01*
X15131056Y98474000D02*
X15131056Y99494000D01*
G75*
G02*
X15221056Y99584000I90000J0D01*
G01*
X15941056Y99584000D01*
G75*
G02*
X16031056Y99494000I0J-90000D01*
G01*
X16031056Y98474000D01*
G75*
G02*
X15941056Y98384000I-90000J0D01*
G01*
X15221056Y98384000D01*
G75*
G02*
X15131056Y98474000I0J90000D01*
G01*
G37*
G36*
G01*
X18431056Y98474000D02*
X18431056Y99494000D01*
G75*
G02*
X18521056Y99584000I90000J0D01*
G01*
X19241056Y99584000D01*
G75*
G02*
X19331056Y99494000I0J-90000D01*
G01*
X19331056Y98474000D01*
G75*
G02*
X19241056Y98384000I-90000J0D01*
G01*
X18521056Y98384000D01*
G75*
G02*
X18431056Y98474000I0J90000D01*
G01*
G37*
G04 #@! TD*
G04 #@! TO.C,D6*
G36*
G01*
X15131056Y95934000D02*
X15131056Y96954000D01*
G75*
G02*
X15221056Y97044000I90000J0D01*
G01*
X15941056Y97044000D01*
G75*
G02*
X16031056Y96954000I0J-90000D01*
G01*
X16031056Y95934000D01*
G75*
G02*
X15941056Y95844000I-90000J0D01*
G01*
X15221056Y95844000D01*
G75*
G02*
X15131056Y95934000I0J90000D01*
G01*
G37*
G36*
G01*
X18431056Y95934000D02*
X18431056Y96954000D01*
G75*
G02*
X18521056Y97044000I90000J0D01*
G01*
X19241056Y97044000D01*
G75*
G02*
X19331056Y96954000I0J-90000D01*
G01*
X19331056Y95934000D01*
G75*
G02*
X19241056Y95844000I-90000J0D01*
G01*
X18521056Y95844000D01*
G75*
G02*
X18431056Y95934000I0J90000D01*
G01*
G37*
G04 #@! TD*
G04 #@! TO.C,R3*
G36*
G01*
X30781056Y71497000D02*
X30781056Y70717000D01*
G75*
G02*
X30711056Y70647000I-70000J0D01*
G01*
X30151056Y70647000D01*
G75*
G02*
X30081056Y70717000I0J70000D01*
G01*
X30081056Y71497000D01*
G75*
G02*
X30151056Y71567000I70000J0D01*
G01*
X30711056Y71567000D01*
G75*
G02*
X30781056Y71497000I0J-70000D01*
G01*
G37*
G36*
G01*
X29181056Y71497000D02*
X29181056Y70717000D01*
G75*
G02*
X29111056Y70647000I-70000J0D01*
G01*
X28551056Y70647000D01*
G75*
G02*
X28481056Y70717000I0J70000D01*
G01*
X28481056Y71497000D01*
G75*
G02*
X28551056Y71567000I70000J0D01*
G01*
X29111056Y71567000D01*
G75*
G02*
X29181056Y71497000I0J-70000D01*
G01*
G37*
G04 #@! TD*
G04 #@! TO.C,D3*
G36*
G01*
X75151056Y77742000D02*
X75151056Y78762000D01*
G75*
G02*
X75241056Y78852000I90000J0D01*
G01*
X75961056Y78852000D01*
G75*
G02*
X76051056Y78762000I0J-90000D01*
G01*
X76051056Y77742000D01*
G75*
G02*
X75961056Y77652000I-90000J0D01*
G01*
X75241056Y77652000D01*
G75*
G02*
X75151056Y77742000I0J90000D01*
G01*
G37*
G36*
G01*
X78451056Y77742000D02*
X78451056Y78762000D01*
G75*
G02*
X78541056Y78852000I90000J0D01*
G01*
X79261056Y78852000D01*
G75*
G02*
X79351056Y78762000I0J-90000D01*
G01*
X79351056Y77742000D01*
G75*
G02*
X79261056Y77652000I-90000J0D01*
G01*
X78541056Y77652000D01*
G75*
G02*
X78451056Y77742000I0J90000D01*
G01*
G37*
G04 #@! TD*
G04 #@! TO.C,D1*
G36*
G01*
X75151056Y83742000D02*
X75151056Y84762000D01*
G75*
G02*
X75241056Y84852000I90000J0D01*
G01*
X75961056Y84852000D01*
G75*
G02*
X76051056Y84762000I0J-90000D01*
G01*
X76051056Y83742000D01*
G75*
G02*
X75961056Y83652000I-90000J0D01*
G01*
X75241056Y83652000D01*
G75*
G02*
X75151056Y83742000I0J90000D01*
G01*
G37*
G36*
G01*
X78451056Y83742000D02*
X78451056Y84762000D01*
G75*
G02*
X78541056Y84852000I90000J0D01*
G01*
X79261056Y84852000D01*
G75*
G02*
X79351056Y84762000I0J-90000D01*
G01*
X79351056Y83742000D01*
G75*
G02*
X79261056Y83652000I-90000J0D01*
G01*
X78541056Y83652000D01*
G75*
G02*
X78451056Y83742000I0J90000D01*
G01*
G37*
G04 #@! TD*
G04 #@! TO.C,D7*
G36*
G01*
X52631056Y95684000D02*
X52631056Y94664000D01*
G75*
G02*
X52541056Y94574000I-90000J0D01*
G01*
X51821056Y94574000D01*
G75*
G02*
X51731056Y94664000I0J90000D01*
G01*
X51731056Y95684000D01*
G75*
G02*
X51821056Y95774000I90000J0D01*
G01*
X52541056Y95774000D01*
G75*
G02*
X52631056Y95684000I0J-90000D01*
G01*
G37*
G36*
G01*
X49331056Y95684000D02*
X49331056Y94664000D01*
G75*
G02*
X49241056Y94574000I-90000J0D01*
G01*
X48521056Y94574000D01*
G75*
G02*
X48431056Y94664000I0J90000D01*
G01*
X48431056Y95684000D01*
G75*
G02*
X48521056Y95774000I90000J0D01*
G01*
X49241056Y95774000D01*
G75*
G02*
X49331056Y95684000I0J-90000D01*
G01*
G37*
G04 #@! TD*
G04 #@! TO.C,U6*
G36*
G01*
X39956056Y95024000D02*
X39956056Y95324000D01*
G75*
G02*
X40106056Y95474000I150000J0D01*
G01*
X41756056Y95474000D01*
G75*
G02*
X41906056Y95324000I0J-150000D01*
G01*
X41906056Y95024000D01*
G75*
G02*
X41756056Y94874000I-150000J0D01*
G01*
X40106056Y94874000D01*
G75*
G02*
X39956056Y95024000I0J150000D01*
G01*
G37*
G36*
G01*
X39956056Y96294000D02*
X39956056Y96594000D01*
G75*
G02*
X40106056Y96744000I150000J0D01*
G01*
X41756056Y96744000D01*
G75*
G02*
X41906056Y96594000I0J-150000D01*
G01*
X41906056Y96294000D01*
G75*
G02*
X41756056Y96144000I-150000J0D01*
G01*
X40106056Y96144000D01*
G75*
G02*
X39956056Y96294000I0J150000D01*
G01*
G37*
G36*
G01*
X39956056Y97564000D02*
X39956056Y97864000D01*
G75*
G02*
X40106056Y98014000I150000J0D01*
G01*
X41756056Y98014000D01*
G75*
G02*
X41906056Y97864000I0J-150000D01*
G01*
X41906056Y97564000D01*
G75*
G02*
X41756056Y97414000I-150000J0D01*
G01*
X40106056Y97414000D01*
G75*
G02*
X39956056Y97564000I0J150000D01*
G01*
G37*
G36*
G01*
X39956056Y98834000D02*
X39956056Y99134000D01*
G75*
G02*
X40106056Y99284000I150000J0D01*
G01*
X41756056Y99284000D01*
G75*
G02*
X41906056Y99134000I0J-150000D01*
G01*
X41906056Y98834000D01*
G75*
G02*
X41756056Y98684000I-150000J0D01*
G01*
X40106056Y98684000D01*
G75*
G02*
X39956056Y98834000I0J150000D01*
G01*
G37*
G36*
G01*
X44906056Y98834000D02*
X44906056Y99134000D01*
G75*
G02*
X45056056Y99284000I150000J0D01*
G01*
X46706056Y99284000D01*
G75*
G02*
X46856056Y99134000I0J-150000D01*
G01*
X46856056Y98834000D01*
G75*
G02*
X46706056Y98684000I-150000J0D01*
G01*
X45056056Y98684000D01*
G75*
G02*
X44906056Y98834000I0J150000D01*
G01*
G37*
G36*
G01*
X44906056Y97564000D02*
X44906056Y97864000D01*
G75*
G02*
X45056056Y98014000I150000J0D01*
G01*
X46706056Y98014000D01*
G75*
G02*
X46856056Y97864000I0J-150000D01*
G01*
X46856056Y97564000D01*
G75*
G02*
X46706056Y97414000I-150000J0D01*
G01*
X45056056Y97414000D01*
G75*
G02*
X44906056Y97564000I0J150000D01*
G01*
G37*
G36*
G01*
X44906056Y96294000D02*
X44906056Y96594000D01*
G75*
G02*
X45056056Y96744000I150000J0D01*
G01*
X46706056Y96744000D01*
G75*
G02*
X46856056Y96594000I0J-150000D01*
G01*
X46856056Y96294000D01*
G75*
G02*
X46706056Y96144000I-150000J0D01*
G01*
X45056056Y96144000D01*
G75*
G02*
X44906056Y96294000I0J150000D01*
G01*
G37*
G36*
G01*
X44906056Y95024000D02*
X44906056Y95324000D01*
G75*
G02*
X45056056Y95474000I150000J0D01*
G01*
X46706056Y95474000D01*
G75*
G02*
X46856056Y95324000I0J-150000D01*
G01*
X46856056Y95024000D01*
G75*
G02*
X46706056Y94874000I-150000J0D01*
G01*
X45056056Y94874000D01*
G75*
G02*
X44906056Y95024000I0J150000D01*
G01*
G37*
G04 #@! TD*
M02*
