G04 #@! TF.GenerationSoftware,KiCad,Pcbnew,8.0.9-8.0.9-0~ubuntu24.04.1*
G04 #@! TF.CreationDate,2026-04-02T00:30:11+00:00*
G04 #@! TF.ProjectId,EP91Starlet,45503931-5374-4617-926c-65742e6b6963,rev?*
G04 #@! TF.SameCoordinates,Original*
G04 #@! TF.FileFunction,Legend,Bot*
G04 #@! TF.FilePolarity,Positive*
%FSLAX46Y46*%
G04 Gerber Fmt 4.6, Leading zero omitted, Abs format (unit mm)*
G04 Created by KiCad (PCBNEW 8.0.9-8.0.9-0~ubuntu24.04.1) date 2026-04-02 00:30:11*
%MOMM*%
%LPD*%
G01*
G04 APERTURE LIST*
%ADD10C,0.200000*%
G04 APERTURE END LIST*
D10*
G04 #@! TO.C,M6*
X-64375000Y43275000D02*
X-55275000Y43275000D01*
X-64375000Y40174997D02*
X-64375000Y41174999D01*
X-64375000Y40174997D02*
X-55275000Y40174997D01*
G04 #@! TO.C,M2*
X54460000Y77675000D02*
X54460000Y62675000D01*
X54460000Y77675000D02*
X55760000Y77675000D01*
X54460000Y62675000D02*
X59560000Y62675000D01*
X64060000Y77675000D02*
X57660000Y77675000D01*
X64060000Y63275000D02*
X64060000Y77675000D01*
G04 #@! TO.C,M4*
X-103825000Y51924998D02*
X-103825000Y55125001D01*
X-103825000Y39824998D02*
X-103825000Y50225000D01*
X-103825000Y37924998D02*
X-103825000Y38224998D01*
X-103825000Y37924998D02*
X-88425000Y37924998D01*
X-102325000Y58524996D02*
X-87025001Y58524998D01*
X-87025003Y51825000D02*
X-87025003Y56625000D01*
X-87025003Y45624998D02*
X-87025003Y48324998D01*
X-87025003Y42925000D02*
X-87025003Y44025003D01*
X-87025003Y39374998D02*
X-87024998Y40924998D01*
X-87025001Y58225000D02*
X-87025001Y58524998D01*
G04 #@! TO.C,M1*
X22574997Y60225002D02*
X22574997Y18125002D01*
X22574997Y60225002D02*
X62474996Y60225002D01*
X22574997Y18125002D02*
X62474996Y18124999D01*
X62474996Y60225002D02*
X62474996Y19424999D01*
X62474996Y19424999D02*
X62474996Y18124999D01*
G04 #@! TO.C,M3*
X44000000Y77600000D02*
X44000000Y62600000D01*
X44000000Y77600000D02*
X45300000Y77600000D01*
X44000000Y62600000D02*
X49100000Y62600000D01*
X53600000Y77600000D02*
X47200000Y77600000D01*
X53600000Y63200000D02*
X53600000Y77600000D01*
G04 #@! TO.C,M5*
X-20825000Y48925000D02*
X-7025000Y48925000D01*
X-7025000Y24525000D01*
X-20825000Y24525000D01*
X-20825000Y48925000D01*
G04 #@! TO.C,M7*
X37637499Y10429490D02*
X48812499Y10468337D01*
X37637499Y4731668D02*
X37637499Y10429490D01*
X37637499Y4731668D02*
X37912503Y4456662D01*
X37912503Y3631663D02*
X37912503Y4456662D01*
X37912503Y3631663D02*
X37968705Y3581663D01*
X37968705Y3581663D02*
X48812499Y3581663D01*
X48812499Y3575460D02*
X48812499Y10468337D01*
G04 #@! TD*
M02*
