G04 #@! TF.GenerationSoftware,KiCad,Pcbnew,8.0.9-8.0.9-0~ubuntu24.04.1*
G04 #@! TF.CreationDate,2026-03-30T23:48:31+00:00*
G04 #@! TF.ProjectId,EP91Starlet,45503931-5374-4617-926c-65742e6b6963,rev?*
G04 #@! TF.SameCoordinates,Original*
G04 #@! TF.FileFunction,Copper,L4,Bot*
G04 #@! TF.FilePolarity,Positive*
%FSLAX46Y46*%
G04 Gerber Fmt 4.6, Leading zero omitted, Abs format (unit mm)*
G04 Created by KiCad (PCBNEW 8.0.9-8.0.9-0~ubuntu24.04.1) date 2026-03-30 23:48:31*
%MOMM*%
%LPD*%
G01*
G04 APERTURE LIST*
G04 #@! TA.AperFunction,ComponentPad*
%ADD10C,0.600000*%
G04 #@! TD*
G04 #@! TA.AperFunction,SMDPad,CuDef*
%ADD11R,6.185000X0.250000*%
G04 #@! TD*
G04 #@! TA.AperFunction,SMDPad,CuDef*
%ADD12R,1.115000X0.250000*%
G04 #@! TD*
G04 #@! TA.AperFunction,SMDPad,CuDef*
%ADD13R,0.250000X14.275000*%
G04 #@! TD*
G04 #@! TA.AperFunction,SMDPad,CuDef*
%ADD14R,0.250000X15.100000*%
G04 #@! TD*
G04 #@! TA.AperFunction,SMDPad,CuDef*
%ADD15R,5.175000X0.250000*%
G04 #@! TD*
G04 #@! TA.AperFunction,SMDPad,CuDef*
%ADD16R,0.200000X2.300000*%
G04 #@! TD*
G04 #@! TA.AperFunction,SMDPad,CuDef*
%ADD17R,0.200000X5.400000*%
G04 #@! TD*
G04 #@! TA.AperFunction,SMDPad,CuDef*
%ADD18R,0.200000X8.600000*%
G04 #@! TD*
G04 #@! TA.AperFunction,SMDPad,CuDef*
%ADD19R,0.200000X5.000000*%
G04 #@! TD*
G04 #@! TA.AperFunction,SMDPad,CuDef*
%ADD20R,1.400000X0.200000*%
G04 #@! TD*
G04 #@! TA.AperFunction,SMDPad,CuDef*
%ADD21R,5.000000X0.200000*%
G04 #@! TD*
G04 #@! TA.AperFunction,SMDPad,CuDef*
%ADD22R,6.800000X0.200000*%
G04 #@! TD*
G04 #@! TA.AperFunction,SMDPad,CuDef*
%ADD23R,4.500000X0.200000*%
G04 #@! TD*
G04 #@! TA.AperFunction,SMDPad,CuDef*
%ADD24R,0.200000X1.600000*%
G04 #@! TD*
G04 #@! TA.AperFunction,SMDPad,CuDef*
%ADD25R,0.200000X5.700000*%
G04 #@! TD*
G04 #@! TA.AperFunction,SMDPad,CuDef*
%ADD26R,0.200000X2.000000*%
G04 #@! TD*
G04 #@! TA.AperFunction,SMDPad,CuDef*
%ADD27O,0.200000X1.225000*%
G04 #@! TD*
G04 #@! TA.AperFunction,SMDPad,CuDef*
%ADD28O,9.300000X0.200000*%
G04 #@! TD*
G04 #@! TA.AperFunction,ComponentPad*
%ADD29R,1.700000X1.700000*%
G04 #@! TD*
G04 #@! TA.AperFunction,ComponentPad*
%ADD30O,1.700000X1.700000*%
G04 #@! TD*
G04 #@! TA.AperFunction,ComponentPad*
%ADD31R,1.650000X1.650000*%
G04 #@! TD*
G04 #@! TA.AperFunction,ComponentPad*
%ADD32C,1.650000*%
G04 #@! TD*
G04 #@! TA.AperFunction,ComponentPad*
%ADD33C,5.250000*%
G04 #@! TD*
G04 #@! TA.AperFunction,ComponentPad*
%ADD34C,1.400000*%
G04 #@! TD*
G04 #@! TA.AperFunction,SMDPad,CuDef*
%ADD35R,1.900000X0.250000*%
G04 #@! TD*
G04 #@! TA.AperFunction,SMDPad,CuDef*
%ADD36R,7.900000X0.250000*%
G04 #@! TD*
G04 #@! TA.AperFunction,SMDPad,CuDef*
%ADD37R,0.250000X24.600000*%
G04 #@! TD*
G04 #@! TA.AperFunction,SMDPad,CuDef*
%ADD38R,8.050000X0.250000*%
G04 #@! TD*
G04 #@! TA.AperFunction,SMDPad,CuDef*
%ADD39R,0.950000X0.250000*%
G04 #@! TD*
G04 #@! TA.AperFunction,ComponentPad*
%ADD40C,1.500000*%
G04 #@! TD*
G04 #@! TA.AperFunction,SMDPad,CuDef*
%ADD41O,0.200000X3.300000*%
G04 #@! TD*
G04 #@! TA.AperFunction,SMDPad,CuDef*
%ADD42O,0.200000X10.200000*%
G04 #@! TD*
G04 #@! TA.AperFunction,SMDPad,CuDef*
%ADD43O,0.200000X0.300000*%
G04 #@! TD*
G04 #@! TA.AperFunction,SMDPad,CuDef*
%ADD44O,17.000000X0.200000*%
G04 #@! TD*
G04 #@! TA.AperFunction,SMDPad,CuDef*
%ADD45O,15.400000X0.200000*%
G04 #@! TD*
G04 #@! TA.AperFunction,SMDPad,CuDef*
%ADD46O,0.200000X4.800000*%
G04 #@! TD*
G04 #@! TA.AperFunction,SMDPad,CuDef*
%ADD47O,0.200000X2.600000*%
G04 #@! TD*
G04 #@! TA.AperFunction,SMDPad,CuDef*
%ADD48O,0.200000X1.000000*%
G04 #@! TD*
G04 #@! TA.AperFunction,SMDPad,CuDef*
%ADD49O,0.200000X1.500000*%
G04 #@! TD*
G04 APERTURE END LIST*
D10*
G04 #@! TO.P,M2,E1,HALL_EN*
G04 #@! TO.N,unconnected-(M2-HALL_EN-PadE1)*
X78125000Y66775000D03*
G04 #@! TO.P,M2,E2,NC*
G04 #@! TO.N,unconnected-(M2-NC-PadE2)*
X76925000Y66775000D03*
G04 #@! TO.P,M2,E3,OUT*
G04 #@! TO.N,/CRANK*
X79325000Y66775000D03*
G04 #@! TO.P,M2,E4,V5_IN*
G04 #@! TO.N,+5VA*
X80525000Y66775000D03*
D11*
G04 #@! TO.P,M2,G,GND*
G04 #@! TO.N,GND*
X77857500Y81425000D03*
D12*
X71807500Y81425000D03*
D13*
X80825000Y74412500D03*
D14*
X71375000Y74000000D03*
D15*
X73837500Y66575000D03*
D10*
G04 #@! TO.P,M2,W1,VR-/HALL*
G04 #@! TO.N,/VR-*
X74065000Y81200000D03*
G04 #@! TO.P,M2,W2,VR+*
G04 #@! TO.N,/VRCRANK+*
X73065000Y81200000D03*
G04 #@! TD*
G04 #@! TO.P,M3,E1,Thresh_IN*
G04 #@! TO.N,/THRESH*
X88500000Y66775000D03*
G04 #@! TO.P,M3,E2,OUT_A*
G04 #@! TO.N,unconnected-(M3-OUT_A-PadE2)*
X87300000Y66775000D03*
G04 #@! TO.P,M3,E3,OUT*
G04 #@! TO.N,/CAM*
X89700000Y66775000D03*
G04 #@! TO.P,M3,E4,V5_IN*
G04 #@! TO.N,+5VA*
X90900000Y66775000D03*
D11*
G04 #@! TO.P,M3,G,GND*
G04 #@! TO.N,GND*
X88232500Y81425000D03*
D12*
X82182500Y81425000D03*
D13*
X91200000Y74412500D03*
D14*
X81750000Y74000000D03*
D15*
X84212500Y66575000D03*
D10*
G04 #@! TO.P,M3,W1,VR-*
G04 #@! TO.N,/VR-*
X84440000Y81200000D03*
G04 #@! TO.P,M3,W2,VR+*
G04 #@! TO.N,unconnected-(M3-VR+-PadW2)*
X83440000Y81200000D03*
G04 #@! TD*
G04 #@! TO.P,M1,E1,SPI2_SCK/CAN2_TX*
G04 #@! TO.N,Net-(M1-SPI2_SCK{slash}CAN2_TX)*
X66599993Y69400000D03*
G04 #@! TO.P,M1,E2,SPI2_MISO*
G04 #@! TO.N,unconnected-(M1-SPI2_MISO-PadE2)*
X66599993Y68599999D03*
G04 #@! TO.P,M1,E3,SPI2_MOSI*
G04 #@! TO.N,unconnected-(M1-SPI2_MOSI-PadE3)*
X66599993Y67800001D03*
G04 #@! TO.P,M1,E4,SPI2_CS/CAN2_RX*
G04 #@! TO.N,Net-(M1-SPI2_CS{slash}CAN2_RX)*
X66599993Y67000000D03*
G04 #@! TO.P,M1,E6,OUT_IO3*
G04 #@! TO.N,/CHECKCAT_IN*
X66599993Y66199999D03*
G04 #@! TO.P,M1,E7,OUT_IO5*
G04 #@! TO.N,unconnected-(M1-OUT_IO5-PadE7)*
X66599990Y65400001D03*
G04 #@! TO.P,M1,E8,OUT_IO1*
G04 #@! TO.N,/FUELRELAY_IN*
X66599990Y64600000D03*
G04 #@! TO.P,M1,E9,OUT_IO6*
G04 #@! TO.N,unconnected-(M1-OUT_IO6-PadE9)*
X66599993Y63799996D03*
G04 #@! TO.P,M1,E10,OUT_IO10*
G04 #@! TO.N,unconnected-(M1-OUT_IO10-PadE10)*
X66599993Y63000000D03*
G04 #@! TO.P,M1,E11,OUT_IO9*
G04 #@! TO.N,unconnected-(M1-OUT_IO9-PadE11)*
X66599993Y62200000D03*
G04 #@! TO.P,M1,E12,OUT_IO2*
G04 #@! TO.N,/CHECKENGINE_IN*
X66599993Y61399999D03*
G04 #@! TO.P,M1,E13,OUT_IO12*
G04 #@! TO.N,unconnected-(M1-OUT_IO12-PadE13)*
X66599990Y60600000D03*
G04 #@! TO.P,M1,E14,OUT_PWM5*
G04 #@! TO.N,unconnected-(M1-OUT_PWM5-PadE14)*
X66599990Y59799999D03*
G04 #@! TO.P,M1,E15,OUT_PWM4*
G04 #@! TO.N,unconnected-(M1-OUT_PWM4-PadE15)*
X66599990Y58999998D03*
G04 #@! TO.P,M1,E16,OUT_PWM3*
G04 #@! TO.N,unconnected-(M1-OUT_PWM3-PadE16)*
X66599993Y58200000D03*
G04 #@! TO.P,M1,E17,OUT_PWM2*
G04 #@! TO.N,/IACOPEN_IN*
X66599993Y57399999D03*
G04 #@! TO.P,M1,E18,OUT_INJ2*
G04 #@! TO.N,/INJ2_IN*
X66599993Y56600001D03*
G04 #@! TO.P,M1,E19,OUT_INJ1*
G04 #@! TO.N,/INJ1_IN*
X66599990Y55800000D03*
G04 #@! TO.P,M1,E20,OUT_IO13*
G04 #@! TO.N,unconnected-(M1-OUT_IO13-PadE20)*
X66599990Y54999999D03*
G04 #@! TO.P,M1,E21,OUT_IO4*
G04 #@! TO.N,/FANRELAY_IN*
X66599993Y54200000D03*
G04 #@! TO.P,M1,E22,OUT_IO8*
G04 #@! TO.N,unconnected-(M1-OUT_IO8-PadE22)*
X66599993Y53399999D03*
G04 #@! TO.P,M1,E23,OUT_IO7*
G04 #@! TO.N,unconnected-(M1-OUT_IO7-PadE23)*
X66599993Y52599998D03*
G04 #@! TO.P,M1,E24,OUT_IO11*
G04 #@! TO.N,unconnected-(M1-OUT_IO11-PadE24)*
X66599993Y51800000D03*
G04 #@! TO.P,M1,E25,OUT_PWM7*
G04 #@! TO.N,unconnected-(M1-OUT_PWM7-PadE25)*
X66599993Y50999999D03*
G04 #@! TO.P,M1,E26,OUT_PWM6*
G04 #@! TO.N,unconnected-(M1-OUT_PWM6-PadE26)*
X66599993Y50200001D03*
G04 #@! TO.P,M1,E27,OUT_PWM1*
G04 #@! TO.N,/IACCLOSE_IN*
X66599993Y49400000D03*
G04 #@! TO.P,M1,E28,OUT_PWM8*
G04 #@! TO.N,/THRESH*
X66599993Y48599999D03*
G04 #@! TO.P,M1,E29,OUT_INJ3*
G04 #@! TO.N,/INJ3_IN*
X66599993Y47800000D03*
G04 #@! TO.P,M1,E30,OUT_INJ4*
G04 #@! TO.N,/INJ4_IN*
X66599993Y46999999D03*
G04 #@! TO.P,M1,E31,OUT_INJ5*
G04 #@! TO.N,/LS1_IN*
X66599990Y46200001D03*
G04 #@! TO.P,M1,E32,OUT_INJ6*
G04 #@! TO.N,/LS2_IN*
X66599993Y45399998D03*
G04 #@! TO.P,M1,E33,OUT_INJ7*
G04 #@! TO.N,/LS3_IN*
X66599993Y44599999D03*
G04 #@! TO.P,M1,E34,OUT_INJ8*
G04 #@! TO.N,/LS4_IN*
X66599993Y43800001D03*
G04 #@! TO.P,M1,E35,IO6*
G04 #@! TO.N,/IO6*
X66599993Y43000000D03*
G04 #@! TO.P,M1,E36,IO7*
G04 #@! TO.N,unconnected-(M1-IO7-PadE36)*
X66599993Y42199999D03*
G04 #@! TO.P,M1,E38,V5A_SWITCHABLE*
G04 #@! TO.N,+5VA*
X66599990Y35500005D03*
G04 #@! TO.P,M1,E39,GNDA*
G04 #@! TO.N,GNDA*
X66599993Y34700004D03*
D16*
G04 #@! TO.P,M1,G,GND*
G04 #@! TO.N,GND*
X24699988Y33350004D03*
D17*
X24699990Y39200007D03*
D18*
X24699991Y67200004D03*
D19*
X24699991Y45400004D03*
D20*
X26499997Y32300001D03*
D21*
X27899992Y72200002D03*
D22*
X36399995Y72200002D03*
D23*
X46249998Y72200002D03*
D24*
X66799993Y70700003D03*
D25*
X66799993Y38850000D03*
D26*
X66799993Y33200007D03*
D10*
G04 #@! TO.P,M1,N1,USBID*
G04 #@! TO.N,unconnected-(M1-USBID-PadN1)*
X66599993Y72000003D03*
G04 #@! TO.P,M1,N2,USBM*
G04 #@! TO.N,unconnected-(M1-USBM-PadN2)*
X65799995Y72000005D03*
G04 #@! TO.P,M1,N3,USBP*
G04 #@! TO.N,unconnected-(M1-USBP-PadN3)*
X64999994Y72000005D03*
G04 #@! TO.P,M1,N4,VBUS*
G04 #@! TO.N,unconnected-(M1-VBUS-PadN4)*
X64199995Y72000003D03*
G04 #@! TO.P,M1,N5,BOOT0*
G04 #@! TO.N,unconnected-(M1-BOOT0-PadN5)*
X63399994Y72000003D03*
G04 #@! TO.P,M1,N6,SWO*
G04 #@! TO.N,unconnected-(M1-SWO-PadN6)*
X62599993Y72000003D03*
G04 #@! TO.P,M1,N7,SWDIO*
G04 #@! TO.N,unconnected-(M1-SWDIO-PadN7)*
X61799995Y72000003D03*
G04 #@! TO.P,M1,N8,SWCLK*
G04 #@! TO.N,unconnected-(M1-SWCLK-PadN8)*
X60999994Y72000005D03*
G04 #@! TO.P,M1,N9,nReset*
G04 #@! TO.N,unconnected-(M1-nReset-PadN9)*
X60199996Y72000003D03*
G04 #@! TO.P,M1,N10,SPI3_CS*
G04 #@! TO.N,unconnected-(M1-SPI3_CS-PadN10)*
X59399995Y72000003D03*
G04 #@! TO.P,M1,N11,SPI3_SCK*
G04 #@! TO.N,unconnected-(M1-SPI3_SCK-PadN11)*
X58599994Y72000003D03*
G04 #@! TO.P,M1,N12,SPI3_MISO*
G04 #@! TO.N,unconnected-(M1-SPI3_MISO-PadN12)*
X57799993Y72000003D03*
G04 #@! TO.P,M1,N13,SPI3_MOSI*
G04 #@! TO.N,unconnected-(M1-SPI3_MOSI-PadN13)*
X56999994Y72000003D03*
G04 #@! TO.P,M1,N14,I2C_SCL*
G04 #@! TO.N,unconnected-(M1-I2C_SCL-PadN14)*
X56199993Y72000003D03*
G04 #@! TO.P,M1,N15,I2C_SDA*
G04 #@! TO.N,unconnected-(M1-I2C_SDA-PadN15)*
X55399992Y72000005D03*
G04 #@! TO.P,M1,N16,IO1*
G04 #@! TO.N,/IO1*
X54599992Y72000005D03*
G04 #@! TO.P,M1,N17,UART2_TX*
G04 #@! TO.N,unconnected-(M1-UART2_TX-PadN17)*
X53799993Y72000003D03*
G04 #@! TO.P,M1,N18,UART2_RX*
G04 #@! TO.N,unconnected-(M1-UART2_RX-PadN18)*
X52999992Y72000003D03*
G04 #@! TO.P,M1,N19,IO2*
G04 #@! TO.N,/IO2*
X52199994Y72000003D03*
G04 #@! TO.P,M1,N20,IO4*
G04 #@! TO.N,/IO4*
X51399993Y72000003D03*
G04 #@! TO.P,M1,N21,IO3*
G04 #@! TO.N,/IO3*
X50599994Y72000005D03*
G04 #@! TO.P,M1,N22,V33*
G04 #@! TO.N,+3.3V*
X49799993Y72000003D03*
G04 #@! TO.P,M1,N23,IO5*
G04 #@! TO.N,/IO5*
X48999993Y72000003D03*
G04 #@! TO.P,M1,N24,UART8_RX*
G04 #@! TO.N,unconnected-(M1-UART8_RX-PadN24)*
X43499993Y72000003D03*
G04 #@! TO.P,M1,N25,UART8_TX*
G04 #@! TO.N,unconnected-(M1-UART8_TX-PadN25)*
X42699992Y72000003D03*
G04 #@! TO.P,M1,N26,IN_VIGN*
G04 #@! TO.N,/VIGN*
X41899994Y72000003D03*
G04 #@! TO.P,M1,N27,VBAT*
G04 #@! TO.N,/VBAT*
X41099996Y72000003D03*
G04 #@! TO.P,M1,N28,V33_SWITCHABLE*
G04 #@! TO.N,+3.3VA*
X40299997Y72000003D03*
G04 #@! TO.P,M1,N29,OUT_PWR_EN*
G04 #@! TO.N,/PWR_EN*
X32499993Y72000003D03*
G04 #@! TO.P,M1,N30,V5A_SWITCHABLE*
G04 #@! TO.N,+5VA*
X31699994Y72000003D03*
G04 #@! TO.P,M1,N31,VCC*
G04 #@! TO.N,+5V*
X30899996Y72000003D03*
G04 #@! TO.P,M1,N32,V33*
G04 #@! TO.N,+3.3V*
X24899992Y72000003D03*
G04 #@! TO.P,M1,S1,IN_D4*
G04 #@! TO.N,/D4_IN*
X65999992Y32499998D03*
G04 #@! TO.P,M1,S2,IN_D3*
G04 #@! TO.N,/D3_IN*
X64799991Y32500000D03*
G04 #@! TO.P,M1,S3,IN_D2*
G04 #@! TO.N,/D2_IN*
X63599994Y32500000D03*
G04 #@! TO.P,M1,S4,IN_D1*
G04 #@! TO.N,/D1_IN*
X62399994Y32499998D03*
G04 #@! TO.P,M1,S5,VREF2*
G04 #@! TO.N,unconnected-(M1-VREF2-PadS5)*
X61199994Y32500000D03*
G04 #@! TO.P,M1,S6,IN_SENS4*
G04 #@! TO.N,/SENS4*
X60100006Y32500000D03*
G04 #@! TO.P,M1,S7,IN_SENS3*
G04 #@! TO.N,/SENS3*
X58900006Y32500000D03*
G04 #@! TO.P,M1,S8,IN_SENS2*
G04 #@! TO.N,/SENS2*
X57700008Y32499998D03*
G04 #@! TO.P,M1,S9,IN_SENS1*
G04 #@! TO.N,/SENS1*
X56500008Y32500000D03*
G04 #@! TO.P,M1,S10,IN_AUX4*
G04 #@! TO.N,/AUX4*
X55300005Y32500000D03*
G04 #@! TO.P,M1,S11,IN_AUX3*
G04 #@! TO.N,/AUX3*
X54100003Y32499998D03*
G04 #@! TO.P,M1,S12,IN_AUX2*
G04 #@! TO.N,/AUX2*
X52900005Y32500000D03*
G04 #@! TO.P,M1,S13,IN_AUX1*
G04 #@! TO.N,/AUX1*
X51700007Y32500000D03*
G04 #@! TO.P,M1,S14,IN_RES2*
G04 #@! TO.N,/RES2*
X50500000Y32500000D03*
G04 #@! TO.P,M1,S15,IN_O2S2*
G04 #@! TO.N,/O2S2*
X49300000Y32500000D03*
G04 #@! TO.P,M1,S16,IN_O2S*
G04 #@! TO.N,/O2SENS*
X48100002Y32500000D03*
G04 #@! TO.P,M1,S17,IN_RES1*
G04 #@! TO.N,/RES1*
X46900002Y32500000D03*
G04 #@! TO.P,M1,S18,IN_RES3*
G04 #@! TO.N,/RES3*
X45699997Y32500000D03*
G04 #@! TO.P,M1,S19,IN_MAP3*
G04 #@! TO.N,/MAP3*
X44499996Y32500000D03*
G04 #@! TO.P,M1,S20,IN_MAP2*
G04 #@! TO.N,/MAP2*
X43299999Y32499998D03*
G04 #@! TO.P,M1,S21,IN_MAP1*
G04 #@! TO.N,/MAP*
X42099999Y32500000D03*
G04 #@! TO.P,M1,S22,IN_CRANK*
G04 #@! TO.N,/CRANK*
X40899996Y32499998D03*
G04 #@! TO.P,M1,S23,IN_KNOCK*
G04 #@! TO.N,/KNOCK_PROCESSED*
X39699996Y32500000D03*
G04 #@! TO.P,M1,S24,IN_CAM*
G04 #@! TO.N,/CAM*
X38500001Y32500000D03*
G04 #@! TO.P,M1,S25,IN_VSS*
G04 #@! TO.N,/VSS*
X37299998Y32499998D03*
G04 #@! TO.P,M1,S26,IN_IAT*
G04 #@! TO.N,/AIR*
X36099993Y32500000D03*
G04 #@! TO.P,M1,S27,IN_AT1*
G04 #@! TO.N,/AT1*
X34899993Y32499998D03*
G04 #@! TO.P,M1,S28,IN_CLT*
G04 #@! TO.N,/COOLANT*
X33699995Y32500000D03*
G04 #@! TO.P,M1,S29,IN_AT2*
G04 #@! TO.N,/AT2*
X32499995Y32500000D03*
G04 #@! TO.P,M1,S30,IN_TPS*
G04 #@! TO.N,/TPS*
X31299990Y32500000D03*
G04 #@! TO.P,M1,S31,IN_PPS*
G04 #@! TO.N,/PPS*
X30099990Y32500000D03*
G04 #@! TO.P,M1,S32,IN_TPS2*
G04 #@! TO.N,/TPS2*
X28899992Y32500000D03*
G04 #@! TO.P,M1,S33,IN_PPS2*
G04 #@! TO.N,/PPS2*
X27699992Y32500000D03*
G04 #@! TO.P,M1,S35,VREF1*
G04 #@! TO.N,/VREF1*
X25299992Y32500000D03*
G04 #@! TO.P,M1,W1,GNDA*
G04 #@! TO.N,GNDA*
X24899990Y35000003D03*
G04 #@! TO.P,M1,W2,V5A_SWITCHABLE*
G04 #@! TO.N,+5VA*
X24899990Y36000004D03*
G04 #@! TO.P,M1,W3,V33_REF*
G04 #@! TO.N,unconnected-(M1-V33_REF-PadW3)*
X24899992Y42400006D03*
G04 #@! TO.P,M1,W3a,BOOT1*
G04 #@! TO.N,unconnected-(M1-BOOT1-PadW3a)*
X24899991Y48400004D03*
G04 #@! TO.P,M1,W4,IGN8*
G04 #@! TO.N,unconnected-(M1-IGN8-PadW4)*
X24899992Y49400002D03*
G04 #@! TO.P,M1,W5,IGN7*
G04 #@! TO.N,unconnected-(M1-IGN7-PadW5)*
X24899992Y50400003D03*
G04 #@! TO.P,M1,W6,IGN6*
G04 #@! TO.N,unconnected-(M1-IGN6-PadW6)*
X24899992Y51400001D03*
G04 #@! TO.P,M1,W7,IGN5*
G04 #@! TO.N,unconnected-(M1-IGN5-PadW7)*
X24899992Y52400001D03*
G04 #@! TO.P,M1,W8,IGN4*
G04 #@! TO.N,/SPARK4_OUT*
X24899992Y53400002D03*
G04 #@! TO.P,M1,W9,IGN3*
G04 #@! TO.N,/SPARK3_OUT*
X24899992Y54400000D03*
G04 #@! TO.P,M1,W10,IGN2*
G04 #@! TO.N,/SPARK2_OUT*
X24899992Y55400000D03*
G04 #@! TO.P,M1,W11,IGN1*
G04 #@! TO.N,/SPARK1_OUT*
X24899992Y56399998D03*
G04 #@! TO.P,M1,W11a,LED_RED*
G04 #@! TO.N,unconnected-(M1-LED_RED-PadW11a)*
X24899991Y57400004D03*
G04 #@! TO.P,M1,W11b,LED_GREEN*
G04 #@! TO.N,unconnected-(M1-LED_GREEN-PadW11b)*
X24899991Y58400004D03*
G04 #@! TO.P,M1,W11c,LED_BLUE*
G04 #@! TO.N,unconnected-(M1-LED_BLUE-PadW11c)*
X24899991Y59400004D03*
G04 #@! TO.P,M1,W11d,LED_YELLOW*
G04 #@! TO.N,unconnected-(M1-LED_YELLOW-PadW11d)*
X24899991Y60400004D03*
G04 #@! TO.P,M1,W12,CANH*
G04 #@! TO.N,/CAN1+*
X24899991Y61400004D03*
G04 #@! TO.P,M1,W13,CANL*
G04 #@! TO.N,/CAN1-*
X24899991Y62400004D03*
G04 #@! TD*
G04 #@! TO.P,M6,E1,V5A*
G04 #@! TO.N,+5VA*
X-29000000Y72000000D03*
D27*
G04 #@! TO.P,M6,E2,GND*
G04 #@! TO.N,GND*
X-37900000Y70025000D03*
D28*
X-33350000Y72600000D03*
X-33350000Y69500000D03*
D10*
X-29000000Y71050000D03*
G04 #@! TO.P,M6,E3,OUT_KNOCK*
G04 #@! TO.N,/KNOCK_PROCESSED*
X-29000000Y70100002D03*
G04 #@! TO.P,M6,W1,IN_KNOCK*
G04 #@! TO.N,/KNOCK_RAW*
X-37700000Y71100000D03*
G04 #@! TO.P,M6,W2,VREF*
G04 #@! TO.N,/VREF1*
X-37700000Y72000000D03*
G04 #@! TD*
D29*
G04 #@! TO.P,J2,1,Pin_1*
G04 #@! TO.N,/IO1*
X32800000Y19000000D03*
D30*
G04 #@! TO.P,J2,2,Pin_2*
G04 #@! TO.N,/IO2*
X32800000Y21540000D03*
G04 #@! TO.P,J2,3,Pin_3*
G04 #@! TO.N,/IO3*
X35340000Y19000000D03*
G04 #@! TO.P,J2,4,Pin_4*
G04 #@! TO.N,/IO4*
X35340000Y21540000D03*
G04 #@! TO.P,J2,5,Pin_5*
G04 #@! TO.N,/RES1*
X37880000Y19000000D03*
G04 #@! TO.P,J2,6,Pin_6*
G04 #@! TO.N,/RES2*
X37880000Y21540000D03*
G04 #@! TO.P,J2,7,Pin_7*
G04 #@! TO.N,/RES3*
X40420000Y19000000D03*
G04 #@! TO.P,J2,8,Pin_8*
G04 #@! TO.N,/AUX1*
X40420000Y21540000D03*
G04 #@! TO.P,J2,9,Pin_9*
G04 #@! TO.N,/AUX2*
X42960000Y19000000D03*
G04 #@! TO.P,J2,10,Pin_10*
G04 #@! TO.N,/AUX3*
X42960000Y21540000D03*
G04 #@! TO.P,J2,11,Pin_11*
G04 #@! TO.N,/AUX4*
X45500000Y19000000D03*
G04 #@! TO.P,J2,12,Pin_12*
G04 #@! TO.N,/D1_IN*
X45500000Y21540000D03*
G04 #@! TO.P,J2,13,Pin_13*
G04 #@! TO.N,/D2_IN*
X48040000Y19000000D03*
G04 #@! TO.P,J2,14,Pin_14*
G04 #@! TO.N,/D3_IN*
X48040000Y21540000D03*
G04 #@! TO.P,J2,15,Pin_15*
G04 #@! TO.N,/D4_IN*
X50580000Y19000000D03*
G04 #@! TO.P,J2,16,Pin_16*
G04 #@! TO.N,/IO5*
X50580000Y21540000D03*
G04 #@! TO.P,J2,17,Pin_17*
G04 #@! TO.N,/IO6*
X53120000Y19000000D03*
G04 #@! TO.P,J2,18,Pin_18*
G04 #@! TO.N,/MAP2*
X53120000Y21540000D03*
G04 #@! TO.P,J2,19,Pin_19*
G04 #@! TO.N,/MAP3*
X55660000Y19000000D03*
G04 #@! TO.P,J2,20,Pin_20*
G04 #@! TO.N,/PPS*
X55660000Y21540000D03*
G04 #@! TO.P,J2,21,Pin_21*
G04 #@! TO.N,/PPS2*
X58200000Y19000000D03*
G04 #@! TO.P,J2,22,Pin_22*
G04 #@! TO.N,/TPS2*
X58200000Y21540000D03*
G04 #@! TO.P,J2,23,Pin_23*
G04 #@! TO.N,/AT1*
X60740000Y19000000D03*
G04 #@! TO.P,J2,24,Pin_24*
G04 #@! TO.N,/AT2*
X60740000Y21540000D03*
G04 #@! TO.P,J2,25,Pin_25*
G04 #@! TO.N,/O2S2*
X63280000Y19000000D03*
G04 #@! TO.P,J2,26,Pin_26*
G04 #@! TO.N,/SENS1*
X63280000Y21540000D03*
G04 #@! TO.P,J2,27,Pin_27*
G04 #@! TO.N,/SENS2*
X65820000Y19000000D03*
G04 #@! TO.P,J2,28,Pin_28*
G04 #@! TO.N,/SENS3*
X65820000Y21540000D03*
G04 #@! TO.P,J2,29,Pin_29*
G04 #@! TO.N,/SENS4*
X68360000Y19000000D03*
G04 #@! TO.P,J2,30,Pin_30*
G04 #@! TO.N,/KNOCK_RAW*
X68360000Y21540000D03*
G04 #@! TD*
D31*
G04 #@! TO.P,J1,1,NC*
G04 #@! TO.N,unconnected-(J1-NC-Pad1)*
X18950000Y85500000D03*
D32*
G04 #@! TO.P,J1,2,BATT*
G04 #@! TO.N,+12V_PERM*
X21950000Y85500000D03*
G04 #@! TO.P,J1,3,CCO*
G04 #@! TO.N,unconnected-(J1-CCO-Pad3)*
X24950000Y85500000D03*
G04 #@! TO.P,J1,4,FC*
G04 #@! TO.N,/FUELRELAY_OUT*
X27950000Y85500000D03*
G04 #@! TO.P,J1,5,ELS*
G04 #@! TO.N,unconnected-(J1-ELS-Pad5)*
X30950000Y85500000D03*
G04 #@! TO.P,J1,6,AC2*
G04 #@! TO.N,unconnected-(J1-AC2-Pad6)*
X33950000Y85500000D03*
G04 #@! TO.P,J1,7,TE2*
G04 #@! TO.N,unconnected-(J1-TE2-Pad7)*
X36950000Y85500000D03*
G04 #@! TO.P,J1,8,TE1*
G04 #@! TO.N,unconnected-(J1-TE1-Pad8)*
X39950000Y85500000D03*
G04 #@! TO.P,J1,9,+B*
G04 #@! TO.N,+12V_RAW*
X18950000Y90000000D03*
G04 #@! TO.P,J1,10,W*
G04 #@! TO.N,/CHECKENGINE_OUT*
X21950000Y90000000D03*
G04 #@! TO.P,J1,11,EGW*
G04 #@! TO.N,unconnected-(J1-EGW-Pad11)*
X24950000Y90000000D03*
G04 #@! TO.P,J1,12,AC1*
G04 #@! TO.N,unconnected-(J1-AC1-Pad12)*
X27950000Y90000000D03*
G04 #@! TO.P,J1,13,SPD*
G04 #@! TO.N,/VSS*
X30950000Y90000000D03*
G04 #@! TO.P,J1,14,ACT*
G04 #@! TO.N,unconnected-(J1-ACT-Pad14)*
X33950000Y90000000D03*
G04 #@! TO.P,J1,15,ELS2*
G04 #@! TO.N,unconnected-(J1-ELS2-Pad15)*
X36950000Y90000000D03*
G04 #@! TO.P,J1,16,VF*
G04 #@! TO.N,unconnected-(J1-VF-Pad16)*
X39950000Y90000000D03*
G04 #@! TO.P,J1,101,RSC*
G04 #@! TO.N,/IACCLOSE_OUT*
X45950000Y85500000D03*
G04 #@! TO.P,J1,102,NSW*
G04 #@! TO.N,unconnected-(J1-NSW-Pad102)*
X49400000Y85500000D03*
G04 #@! TO.P,J1,103,THW*
G04 #@! TO.N,/COOLANT*
X52500000Y85500000D03*
G04 #@! TO.P,J1,104,PIM*
G04 #@! TO.N,/MAP*
X55500000Y85500000D03*
G04 #@! TO.P,J1,105,THA*
G04 #@! TO.N,/AIR*
X58500000Y85500000D03*
G04 #@! TO.P,J1,106,IGT*
G04 #@! TO.N,/SPARK1*
X61500000Y85500000D03*
G04 #@! TO.P,J1,107,IGF*
G04 #@! TO.N,unconnected-(J1-IGF-Pad107)*
X64500000Y85500000D03*
G04 #@! TO.P,J1,108,I0F*
G04 #@! TO.N,unconnected-(J1-I0F-Pad108)*
X67500000Y85500000D03*
G04 #@! TO.P,J1,109,NE-*
G04 #@! TO.N,/VR-*
X70500000Y85500000D03*
G04 #@! TO.P,J1,110,OX*
G04 #@! TO.N,/O2SENS*
X73500000Y85500000D03*
G04 #@! TO.P,J1,111,STA*
G04 #@! TO.N,unconnected-(J1-STA-Pad111)*
X76600000Y85500000D03*
G04 #@! TO.P,J1,112,#10*
G04 #@! TO.N,/INJ1*
X80100000Y85500000D03*
G04 #@! TO.P,J1,113,E01*
G04 #@! TO.N,GND*
X83600000Y85500000D03*
G04 #@! TO.P,J1,114,RSO*
G04 #@! TO.N,/IACOPEN_OUT*
X45900000Y90000000D03*
G04 #@! TO.P,J1,115,HT*
G04 #@! TO.N,/O2HEAT_OUT*
X49400000Y90000000D03*
G04 #@! TO.P,J1,116,E2*
G04 #@! TO.N,GNDA*
X52500000Y90000000D03*
G04 #@! TO.P,J1,117,PSW*
G04 #@! TO.N,/TPS*
X55500000Y90000000D03*
G04 #@! TO.P,J1,118,VCC*
G04 #@! TO.N,+5VP*
X58500000Y90000000D03*
G04 #@! TO.P,J1,119,IDL*
G04 #@! TO.N,/IDLESWITCH*
X61500000Y90000000D03*
G04 #@! TO.P,J1,120,FAN*
G04 #@! TO.N,/FANRELAY_OUT*
X64500000Y90000000D03*
G04 #@! TO.P,J1,121,NE*
G04 #@! TO.N,/VRCRANK+*
X67500000Y90000000D03*
G04 #@! TO.P,J1,122,ELS3*
G04 #@! TO.N,unconnected-(J1-ELS3-Pad122)*
X70500000Y90000000D03*
G04 #@! TO.P,J1,123,IPV*
G04 #@! TO.N,unconnected-(J1-IPV-Pad123)*
X73500000Y90000000D03*
G04 #@! TO.P,J1,124,E1*
G04 #@! TO.N,GND*
X76600000Y90000000D03*
G04 #@! TO.P,J1,125,#20*
G04 #@! TO.N,/INJ2*
X80100000Y90000000D03*
G04 #@! TO.P,J1,126,NC*
G04 #@! TO.N,unconnected-(J1-NC-Pad126)*
X83600000Y90000000D03*
D33*
G04 #@! TO.P,J1,MH1,MH1*
G04 #@! TO.N,GND*
X18550000Y95700000D03*
G04 #@! TO.P,J1,MH2,MH2*
X42800000Y95700000D03*
G04 #@! TO.P,J1,MH3,MH3*
X84250000Y95700000D03*
G04 #@! TD*
D10*
G04 #@! TO.P,M5,E1,LSU_Un*
G04 #@! TO.N,unconnected-(M5-LSU_Un-PadE1)*
X93925000Y60625000D03*
G04 #@! TO.P,M5,E2,LSU_Vm*
G04 #@! TO.N,unconnected-(M5-LSU_Vm-PadE2)*
X91525000Y60625000D03*
G04 #@! TO.P,M5,E3,LSU_Ip*
G04 #@! TO.N,unconnected-(M5-LSU_Ip-PadE3)*
X92325000Y60625000D03*
G04 #@! TO.P,M5,E4,LSU_Rtrim*
G04 #@! TO.N,unconnected-(M5-LSU_Rtrim-PadE4)*
X93125000Y60625000D03*
D34*
G04 #@! TO.P,M5,E5,LSU_Htr*
G04 #@! TO.N,unconnected-(M5-LSU_Htr-PadE5)*
X90325000Y60225000D03*
D35*
G04 #@! TO.P,M5,G,GND*
G04 #@! TO.N,GND*
X82325000Y36450000D03*
D36*
X91425000Y36450000D03*
D37*
X81500000Y48625000D03*
X95250000Y48625000D03*
D38*
X85400000Y60800000D03*
D39*
X94900000Y60800000D03*
D10*
G04 #@! TO.P,M5,W1,V5_IN*
G04 #@! TO.N,+5VA*
X84575000Y36625000D03*
G04 #@! TO.P,M5,W2,CAN_VIO*
G04 #@! TO.N,unconnected-(M5-CAN_VIO-PadW2)*
X85375000Y36625000D03*
G04 #@! TO.P,M5,W3,CANL*
G04 #@! TO.N,/CAN1-*
X86975000Y36625000D03*
G04 #@! TO.P,M5,W4,CANH*
G04 #@! TO.N,/CAN1+*
X86175000Y36625000D03*
G04 #@! TO.P,M5,W9,VDDA*
G04 #@! TO.N,unconnected-(M5-VDDA-PadW9)*
X83775000Y36625000D03*
G04 #@! TD*
D40*
G04 #@! TO.P,M4,E1,VBAT*
G04 #@! TO.N,/VBAT*
X25749998Y24500000D03*
G04 #@! TO.P,M4,E2,V12*
G04 #@! TO.N,unconnected-(M4-V12-PadE2)*
X25749998Y18100003D03*
G04 #@! TO.P,M4,E3,VIGN*
G04 #@! TO.N,/VIGN*
X25749998Y16200000D03*
G04 #@! TO.P,M4,E4,V5*
G04 #@! TO.N,+5V*
X25749998Y11900000D03*
D10*
G04 #@! TO.P,M4,E5,EN_5VP*
G04 #@! TO.N,/PWR_EN*
X26199997Y9500003D03*
G04 #@! TO.P,M4,E6,PG_5VP*
G04 #@! TO.N,Net-(M4-PG_5VP)*
X26199997Y8500002D03*
D41*
G04 #@! TO.P,M4,S1,GND*
G04 #@! TO.N,GND*
X9600002Y20650000D03*
D42*
X9600002Y12150002D03*
D43*
X9600002Y5050000D03*
D44*
X18000000Y5000000D03*
D45*
X18800001Y25600000D03*
D40*
X25749998Y5650000D03*
D43*
X26399999Y25550000D03*
D46*
X26399999Y21350002D03*
D47*
X26399999Y14000000D03*
D48*
X26399999Y10500003D03*
D49*
X26399999Y7200002D03*
D40*
G04 #@! TO.P,M4,V1,V12_PERM*
G04 #@! TO.N,+12V_PERM*
X10250001Y24950002D03*
G04 #@! TO.P,M4,V2,IN_VIGN*
G04 #@! TO.N,+12V_RAW*
X10250001Y23100003D03*
G04 #@! TO.P,M4,V3,V12_RAW*
X10250001Y18150000D03*
G04 #@! TO.P,M4,V4,5VP*
G04 #@! TO.N,+5VP*
X10250001Y6100002D03*
G04 #@! TD*
M02*
