G04 #@! TF.GenerationSoftware,KiCad,Pcbnew,8.0.9-8.0.9-0~ubuntu24.04.1*
G04 #@! TF.CreationDate,2025-06-16T01:12:59+00:00*
G04 #@! TF.ProjectId,EP91Starlet,45503931-5374-4617-926c-65742e6b6963,rev?*
G04 #@! TF.SameCoordinates,Original*
G04 #@! TF.FileFunction,Soldermask,Top*
G04 #@! TF.FilePolarity,Negative*
%FSLAX46Y46*%
G04 Gerber Fmt 4.6, Leading zero omitted, Abs format (unit mm)*
G04 Created by KiCad (PCBNEW 8.0.9-8.0.9-0~ubuntu24.04.1) date 2025-06-16 01:12:59*
%MOMM*%
%LPD*%
G01*
G04 APERTURE LIST*
%ADD10C,0.600000*%
%ADD11O,1.800000X2.000000*%
%ADD12C,1.500000*%
G04 APERTURE END LIST*
G04 #@! TO.C,R13*
G36*
G01*
X92286000Y68326954D02*
X92286000Y69106954D01*
G75*
G02*
X92356000Y69176954I70000J0D01*
G01*
X92916000Y69176954D01*
G75*
G02*
X92986000Y69106954I0J-70000D01*
G01*
X92986000Y68326954D01*
G75*
G02*
X92916000Y68256954I-70000J0D01*
G01*
X92356000Y68256954D01*
G75*
G02*
X92286000Y68326954I0J70000D01*
G01*
G37*
G36*
G01*
X93886000Y68326954D02*
X93886000Y69106954D01*
G75*
G02*
X93956000Y69176954I70000J0D01*
G01*
X94516000Y69176954D01*
G75*
G02*
X94586000Y69106954I0J-70000D01*
G01*
X94586000Y68326954D01*
G75*
G02*
X94516000Y68256954I-70000J0D01*
G01*
X93956000Y68256954D01*
G75*
G02*
X93886000Y68326954I0J70000D01*
G01*
G37*
G04 #@! TD*
G04 #@! TO.C,R11*
G36*
G01*
X88546000Y89281641D02*
X88546000Y92131641D01*
G75*
G02*
X88796000Y92381641I250000J0D01*
G01*
X89521000Y92381641D01*
G75*
G02*
X89771000Y92131641I0J-250000D01*
G01*
X89771000Y89281641D01*
G75*
G02*
X89521000Y89031641I-250000J0D01*
G01*
X88796000Y89031641D01*
G75*
G02*
X88546000Y89281641I0J250000D01*
G01*
G37*
G36*
G01*
X94471000Y89281641D02*
X94471000Y92131641D01*
G75*
G02*
X94721000Y92381641I250000J0D01*
G01*
X95446000Y92381641D01*
G75*
G02*
X95696000Y92131641I0J-250000D01*
G01*
X95696000Y89281641D01*
G75*
G02*
X95446000Y89031641I-250000J0D01*
G01*
X94721000Y89031641D01*
G75*
G02*
X94471000Y89281641I0J250000D01*
G01*
G37*
G04 #@! TD*
G04 #@! TO.C,D1*
G36*
G01*
X87046000Y34561641D02*
X87046000Y35581641D01*
G75*
G02*
X87136000Y35671641I90000J0D01*
G01*
X87856000Y35671641D01*
G75*
G02*
X87946000Y35581641I0J-90000D01*
G01*
X87946000Y34561641D01*
G75*
G02*
X87856000Y34471641I-90000J0D01*
G01*
X87136000Y34471641D01*
G75*
G02*
X87046000Y34561641I0J90000D01*
G01*
G37*
G36*
G01*
X90346000Y34561641D02*
X90346000Y35581641D01*
G75*
G02*
X90436000Y35671641I90000J0D01*
G01*
X91156000Y35671641D01*
G75*
G02*
X91246000Y35581641I0J-90000D01*
G01*
X91246000Y34561641D01*
G75*
G02*
X91156000Y34471641I-90000J0D01*
G01*
X90436000Y34471641D01*
G75*
G02*
X90346000Y34561641I0J90000D01*
G01*
G37*
G04 #@! TD*
G04 #@! TO.C,U5*
G36*
G01*
X76401000Y41611641D02*
X76401000Y41911641D01*
G75*
G02*
X76551000Y42061641I150000J0D01*
G01*
X78201000Y42061641D01*
G75*
G02*
X78351000Y41911641I0J-150000D01*
G01*
X78351000Y41611641D01*
G75*
G02*
X78201000Y41461641I-150000J0D01*
G01*
X76551000Y41461641D01*
G75*
G02*
X76401000Y41611641I0J150000D01*
G01*
G37*
G36*
G01*
X76401000Y40341641D02*
X76401000Y40641641D01*
G75*
G02*
X76551000Y40791641I150000J0D01*
G01*
X78201000Y40791641D01*
G75*
G02*
X78351000Y40641641I0J-150000D01*
G01*
X78351000Y40341641D01*
G75*
G02*
X78201000Y40191641I-150000J0D01*
G01*
X76551000Y40191641D01*
G75*
G02*
X76401000Y40341641I0J150000D01*
G01*
G37*
G36*
G01*
X76401000Y39071641D02*
X76401000Y39371641D01*
G75*
G02*
X76551000Y39521641I150000J0D01*
G01*
X78201000Y39521641D01*
G75*
G02*
X78351000Y39371641I0J-150000D01*
G01*
X78351000Y39071641D01*
G75*
G02*
X78201000Y38921641I-150000J0D01*
G01*
X76551000Y38921641D01*
G75*
G02*
X76401000Y39071641I0J150000D01*
G01*
G37*
G36*
G01*
X76401000Y37801641D02*
X76401000Y38101641D01*
G75*
G02*
X76551000Y38251641I150000J0D01*
G01*
X78201000Y38251641D01*
G75*
G02*
X78351000Y38101641I0J-150000D01*
G01*
X78351000Y37801641D01*
G75*
G02*
X78201000Y37651641I-150000J0D01*
G01*
X76551000Y37651641D01*
G75*
G02*
X76401000Y37801641I0J150000D01*
G01*
G37*
G36*
G01*
X81351000Y37801641D02*
X81351000Y38101641D01*
G75*
G02*
X81501000Y38251641I150000J0D01*
G01*
X83151000Y38251641D01*
G75*
G02*
X83301000Y38101641I0J-150000D01*
G01*
X83301000Y37801641D01*
G75*
G02*
X83151000Y37651641I-150000J0D01*
G01*
X81501000Y37651641D01*
G75*
G02*
X81351000Y37801641I0J150000D01*
G01*
G37*
G36*
G01*
X81351000Y39071641D02*
X81351000Y39371641D01*
G75*
G02*
X81501000Y39521641I150000J0D01*
G01*
X83151000Y39521641D01*
G75*
G02*
X83301000Y39371641I0J-150000D01*
G01*
X83301000Y39071641D01*
G75*
G02*
X83151000Y38921641I-150000J0D01*
G01*
X81501000Y38921641D01*
G75*
G02*
X81351000Y39071641I0J150000D01*
G01*
G37*
G36*
G01*
X81351000Y40341641D02*
X81351000Y40641641D01*
G75*
G02*
X81501000Y40791641I150000J0D01*
G01*
X83151000Y40791641D01*
G75*
G02*
X83301000Y40641641I0J-150000D01*
G01*
X83301000Y40341641D01*
G75*
G02*
X83151000Y40191641I-150000J0D01*
G01*
X81501000Y40191641D01*
G75*
G02*
X81351000Y40341641I0J150000D01*
G01*
G37*
G36*
G01*
X81351000Y41611641D02*
X81351000Y41911641D01*
G75*
G02*
X81501000Y42061641I150000J0D01*
G01*
X83151000Y42061641D01*
G75*
G02*
X83301000Y41911641I0J-150000D01*
G01*
X83301000Y41611641D01*
G75*
G02*
X83151000Y41461641I-150000J0D01*
G01*
X81501000Y41461641D01*
G75*
G02*
X81351000Y41611641I0J150000D01*
G01*
G37*
G04 #@! TD*
G04 #@! TO.C,F2*
G36*
G01*
X88556000Y69570391D02*
X88556000Y70082891D01*
G75*
G02*
X88774750Y70301641I218750J0D01*
G01*
X89212250Y70301641D01*
G75*
G02*
X89431000Y70082891I0J-218750D01*
G01*
X89431000Y69570391D01*
G75*
G02*
X89212250Y69351641I-218750J0D01*
G01*
X88774750Y69351641D01*
G75*
G02*
X88556000Y69570391I0J218750D01*
G01*
G37*
G36*
G01*
X90131000Y69570391D02*
X90131000Y70082891D01*
G75*
G02*
X90349750Y70301641I218750J0D01*
G01*
X90787250Y70301641D01*
G75*
G02*
X91006000Y70082891I0J-218750D01*
G01*
X91006000Y69570391D01*
G75*
G02*
X90787250Y69351641I-218750J0D01*
G01*
X90349750Y69351641D01*
G75*
G02*
X90131000Y69570391I0J218750D01*
G01*
G37*
G04 #@! TD*
G04 #@! TO.C,R15*
G36*
G01*
X88546000Y79501641D02*
X88546000Y82351641D01*
G75*
G02*
X88796000Y82601641I250000J0D01*
G01*
X89521000Y82601641D01*
G75*
G02*
X89771000Y82351641I0J-250000D01*
G01*
X89771000Y79501641D01*
G75*
G02*
X89521000Y79251641I-250000J0D01*
G01*
X88796000Y79251641D01*
G75*
G02*
X88546000Y79501641I0J250000D01*
G01*
G37*
G36*
G01*
X94471000Y79501641D02*
X94471000Y82351641D01*
G75*
G02*
X94721000Y82601641I250000J0D01*
G01*
X95446000Y82601641D01*
G75*
G02*
X95696000Y82351641I0J-250000D01*
G01*
X95696000Y79501641D01*
G75*
G02*
X95446000Y79251641I-250000J0D01*
G01*
X94721000Y79251641D01*
G75*
G02*
X94471000Y79501641I0J250000D01*
G01*
G37*
G04 #@! TD*
D10*
G04 #@! TO.C,M3*
X56526000Y33191638D03*
X56526000Y32241638D03*
X56526000Y31291640D03*
X47826000Y32291638D03*
X47826000Y33191638D03*
G04 #@! TD*
D11*
G04 #@! TO.C,U1*
X5976000Y80601641D03*
X8976000Y80601641D03*
X11976000Y80601641D03*
X14976000Y80601641D03*
X17976000Y80601641D03*
X20976000Y80601641D03*
X23976000Y80601641D03*
X26976000Y80601641D03*
X34976000Y80601641D03*
X37976000Y80601641D03*
X40976000Y80601641D03*
X43976000Y80601641D03*
X46976000Y80601641D03*
X49976000Y80601641D03*
X52976000Y80601641D03*
X55976000Y80601641D03*
X58976000Y80601641D03*
X61976000Y80601641D03*
X64976000Y80601641D03*
X67976000Y80601641D03*
X70976000Y80601641D03*
X70976000Y85101641D03*
X67976000Y85101641D03*
X64976000Y85101641D03*
X61976000Y85101641D03*
X58976000Y85101641D03*
X55976000Y85101641D03*
X52976000Y85101641D03*
X49976000Y85101641D03*
X46976000Y85101641D03*
X43976000Y85101641D03*
X40976000Y85101641D03*
X37976000Y85101641D03*
X34976000Y85101641D03*
X26976000Y85101641D03*
X23976000Y85101641D03*
X20976000Y85101641D03*
X17976000Y85101641D03*
X14976000Y85101641D03*
X11976000Y85101641D03*
X8976000Y85101641D03*
X5976000Y85101641D03*
G04 #@! TD*
G04 #@! TO.C,Q2*
G36*
G01*
X76401000Y82716641D02*
X76401000Y83416641D01*
G75*
G02*
X76651000Y83666641I250000J0D01*
G01*
X78351000Y83666641D01*
G75*
G02*
X78601000Y83416641I0J-250000D01*
G01*
X78601000Y82716641D01*
G75*
G02*
X78351000Y82466641I-250000J0D01*
G01*
X76651000Y82466641D01*
G75*
G02*
X76401000Y82716641I0J250000D01*
G01*
G37*
G36*
G01*
X80601000Y78136638D02*
X80601000Y83436644D01*
G75*
G02*
X80850997Y83686641I249997J0D01*
G01*
X86751003Y83686641D01*
G75*
G02*
X87001000Y83436644I0J-249997D01*
G01*
X87001000Y78136638D01*
G75*
G02*
X86751003Y77886641I-249997J0D01*
G01*
X80850997Y77886641D01*
G75*
G02*
X80601000Y78136638I0J249997D01*
G01*
G37*
G36*
G01*
X76401000Y78156641D02*
X76401000Y78856641D01*
G75*
G02*
X76651000Y79106641I250000J0D01*
G01*
X78351000Y79106641D01*
G75*
G02*
X78601000Y78856641I0J-250000D01*
G01*
X78601000Y78156641D01*
G75*
G02*
X78351000Y77906641I-250000J0D01*
G01*
X76651000Y77906641D01*
G75*
G02*
X76401000Y78156641I0J250000D01*
G01*
G37*
G04 #@! TD*
G04 #@! TO.C,R5*
G36*
G01*
X92246000Y35265046D02*
X92246000Y36045046D01*
G75*
G02*
X92316000Y36115046I70000J0D01*
G01*
X92876000Y36115046D01*
G75*
G02*
X92946000Y36045046I0J-70000D01*
G01*
X92946000Y35265046D01*
G75*
G02*
X92876000Y35195046I-70000J0D01*
G01*
X92316000Y35195046D01*
G75*
G02*
X92246000Y35265046I0J70000D01*
G01*
G37*
G36*
G01*
X93846000Y35265046D02*
X93846000Y36045046D01*
G75*
G02*
X93916000Y36115046I70000J0D01*
G01*
X94476000Y36115046D01*
G75*
G02*
X94546000Y36045046I0J-70000D01*
G01*
X94546000Y35265046D01*
G75*
G02*
X94476000Y35195046I-70000J0D01*
G01*
X93916000Y35195046D01*
G75*
G02*
X93846000Y35265046I0J70000D01*
G01*
G37*
G04 #@! TD*
G04 #@! TO.C,R2*
G36*
G01*
X84576000Y55056000D02*
X84576000Y55836000D01*
G75*
G02*
X84646000Y55906000I70000J0D01*
G01*
X85206000Y55906000D01*
G75*
G02*
X85276000Y55836000I0J-70000D01*
G01*
X85276000Y55056000D01*
G75*
G02*
X85206000Y54986000I-70000J0D01*
G01*
X84646000Y54986000D01*
G75*
G02*
X84576000Y55056000I0J70000D01*
G01*
G37*
G36*
G01*
X86176000Y55056000D02*
X86176000Y55836000D01*
G75*
G02*
X86246000Y55906000I70000J0D01*
G01*
X86806000Y55906000D01*
G75*
G02*
X86876000Y55836000I0J-70000D01*
G01*
X86876000Y55056000D01*
G75*
G02*
X86806000Y54986000I-70000J0D01*
G01*
X86246000Y54986000D01*
G75*
G02*
X86176000Y55056000I0J70000D01*
G01*
G37*
G04 #@! TD*
G04 #@! TO.C,R1*
G36*
G01*
X84576000Y57005046D02*
X84576000Y57785046D01*
G75*
G02*
X84646000Y57855046I70000J0D01*
G01*
X85206000Y57855046D01*
G75*
G02*
X85276000Y57785046I0J-70000D01*
G01*
X85276000Y57005046D01*
G75*
G02*
X85206000Y56935046I-70000J0D01*
G01*
X84646000Y56935046D01*
G75*
G02*
X84576000Y57005046I0J70000D01*
G01*
G37*
G36*
G01*
X86176000Y57005046D02*
X86176000Y57785046D01*
G75*
G02*
X86246000Y57855046I70000J0D01*
G01*
X86806000Y57855046D01*
G75*
G02*
X86876000Y57785046I0J-70000D01*
G01*
X86876000Y57005046D01*
G75*
G02*
X86806000Y56935046I-70000J0D01*
G01*
X86246000Y56935046D01*
G75*
G02*
X86176000Y57005046I0J70000D01*
G01*
G37*
G04 #@! TD*
G04 #@! TO.C,D2*
G36*
G01*
X87046000Y31441641D02*
X87046000Y32461641D01*
G75*
G02*
X87136000Y32551641I90000J0D01*
G01*
X87856000Y32551641D01*
G75*
G02*
X87946000Y32461641I0J-90000D01*
G01*
X87946000Y31441641D01*
G75*
G02*
X87856000Y31351641I-90000J0D01*
G01*
X87136000Y31351641D01*
G75*
G02*
X87046000Y31441641I0J90000D01*
G01*
G37*
G36*
G01*
X90346000Y31441641D02*
X90346000Y32461641D01*
G75*
G02*
X90436000Y32551641I90000J0D01*
G01*
X91156000Y32551641D01*
G75*
G02*
X91246000Y32461641I0J-90000D01*
G01*
X91246000Y31441641D01*
G75*
G02*
X91156000Y31351641I-90000J0D01*
G01*
X90436000Y31351641D01*
G75*
G02*
X90346000Y31441641I0J90000D01*
G01*
G37*
G04 #@! TD*
G04 #@! TO.C,R16*
G36*
G01*
X88546000Y74611641D02*
X88546000Y77461641D01*
G75*
G02*
X88796000Y77711641I250000J0D01*
G01*
X89521000Y77711641D01*
G75*
G02*
X89771000Y77461641I0J-250000D01*
G01*
X89771000Y74611641D01*
G75*
G02*
X89521000Y74361641I-250000J0D01*
G01*
X88796000Y74361641D01*
G75*
G02*
X88546000Y74611641I0J250000D01*
G01*
G37*
G36*
G01*
X94471000Y74611641D02*
X94471000Y77461641D01*
G75*
G02*
X94721000Y77711641I250000J0D01*
G01*
X95446000Y77711641D01*
G75*
G02*
X95696000Y77461641I0J-250000D01*
G01*
X95696000Y74611641D01*
G75*
G02*
X95446000Y74361641I-250000J0D01*
G01*
X94721000Y74361641D01*
G75*
G02*
X94471000Y74611641I0J250000D01*
G01*
G37*
G04 #@! TD*
G04 #@! TO.C,R3*
G36*
G01*
X84576000Y53106954D02*
X84576000Y53886954D01*
G75*
G02*
X84646000Y53956954I70000J0D01*
G01*
X85206000Y53956954D01*
G75*
G02*
X85276000Y53886954I0J-70000D01*
G01*
X85276000Y53106954D01*
G75*
G02*
X85206000Y53036954I-70000J0D01*
G01*
X84646000Y53036954D01*
G75*
G02*
X84576000Y53106954I0J70000D01*
G01*
G37*
G36*
G01*
X86176000Y53106954D02*
X86176000Y53886954D01*
G75*
G02*
X86246000Y53956954I70000J0D01*
G01*
X86806000Y53956954D01*
G75*
G02*
X86876000Y53886954I0J-70000D01*
G01*
X86876000Y53106954D01*
G75*
G02*
X86806000Y53036954I-70000J0D01*
G01*
X86246000Y53036954D01*
G75*
G02*
X86176000Y53106954I0J70000D01*
G01*
G37*
G04 #@! TD*
G04 #@! TO.C,R8*
G36*
G01*
X81536000Y33316000D02*
X81536000Y34096000D01*
G75*
G02*
X81606000Y34166000I70000J0D01*
G01*
X82166000Y34166000D01*
G75*
G02*
X82236000Y34096000I0J-70000D01*
G01*
X82236000Y33316000D01*
G75*
G02*
X82166000Y33246000I-70000J0D01*
G01*
X81606000Y33246000D01*
G75*
G02*
X81536000Y33316000I0J70000D01*
G01*
G37*
G36*
G01*
X83136000Y33316000D02*
X83136000Y34096000D01*
G75*
G02*
X83206000Y34166000I70000J0D01*
G01*
X83766000Y34166000D01*
G75*
G02*
X83836000Y34096000I0J-70000D01*
G01*
X83836000Y33316000D01*
G75*
G02*
X83766000Y33246000I-70000J0D01*
G01*
X83206000Y33246000D01*
G75*
G02*
X83136000Y33316000I0J70000D01*
G01*
G37*
G04 #@! TD*
G04 #@! TO.C,Q3*
G36*
G01*
X76401000Y74521641D02*
X76401000Y75221641D01*
G75*
G02*
X76651000Y75471641I250000J0D01*
G01*
X78351000Y75471641D01*
G75*
G02*
X78601000Y75221641I0J-250000D01*
G01*
X78601000Y74521641D01*
G75*
G02*
X78351000Y74271641I-250000J0D01*
G01*
X76651000Y74271641D01*
G75*
G02*
X76401000Y74521641I0J250000D01*
G01*
G37*
G36*
G01*
X80601000Y69941638D02*
X80601000Y75241644D01*
G75*
G02*
X80850997Y75491641I249997J0D01*
G01*
X86751003Y75491641D01*
G75*
G02*
X87001000Y75241644I0J-249997D01*
G01*
X87001000Y69941638D01*
G75*
G02*
X86751003Y69691641I-249997J0D01*
G01*
X80850997Y69691641D01*
G75*
G02*
X80601000Y69941638I0J249997D01*
G01*
G37*
G36*
G01*
X76401000Y69961641D02*
X76401000Y70661641D01*
G75*
G02*
X76651000Y70911641I250000J0D01*
G01*
X78351000Y70911641D01*
G75*
G02*
X78601000Y70661641I0J-250000D01*
G01*
X78601000Y69961641D01*
G75*
G02*
X78351000Y69711641I-250000J0D01*
G01*
X76651000Y69711641D01*
G75*
G02*
X76401000Y69961641I0J250000D01*
G01*
G37*
G04 #@! TD*
G04 #@! TO.C,R6*
G36*
G01*
X92246000Y33316000D02*
X92246000Y34096000D01*
G75*
G02*
X92316000Y34166000I70000J0D01*
G01*
X92876000Y34166000D01*
G75*
G02*
X92946000Y34096000I0J-70000D01*
G01*
X92946000Y33316000D01*
G75*
G02*
X92876000Y33246000I-70000J0D01*
G01*
X92316000Y33246000D01*
G75*
G02*
X92246000Y33316000I0J70000D01*
G01*
G37*
G36*
G01*
X93846000Y33316000D02*
X93846000Y34096000D01*
G75*
G02*
X93916000Y34166000I70000J0D01*
G01*
X94476000Y34166000D01*
G75*
G02*
X94546000Y34096000I0J-70000D01*
G01*
X94546000Y33316000D01*
G75*
G02*
X94476000Y33246000I-70000J0D01*
G01*
X93916000Y33246000D01*
G75*
G02*
X93846000Y33316000I0J70000D01*
G01*
G37*
G04 #@! TD*
G04 #@! TO.C,R7*
G36*
G01*
X81536000Y35265046D02*
X81536000Y36045046D01*
G75*
G02*
X81606000Y36115046I70000J0D01*
G01*
X82166000Y36115046D01*
G75*
G02*
X82236000Y36045046I0J-70000D01*
G01*
X82236000Y35265046D01*
G75*
G02*
X82166000Y35195046I-70000J0D01*
G01*
X81606000Y35195046D01*
G75*
G02*
X81536000Y35265046I0J70000D01*
G01*
G37*
G36*
G01*
X83136000Y35265046D02*
X83136000Y36045046D01*
G75*
G02*
X83206000Y36115046I70000J0D01*
G01*
X83766000Y36115046D01*
G75*
G02*
X83836000Y36045046I0J-70000D01*
G01*
X83836000Y35265046D01*
G75*
G02*
X83766000Y35195046I-70000J0D01*
G01*
X83206000Y35195046D01*
G75*
G02*
X83136000Y35265046I0J70000D01*
G01*
G37*
G04 #@! TD*
G04 #@! TO.C,R4*
G36*
G01*
X84576000Y51157908D02*
X84576000Y51937908D01*
G75*
G02*
X84646000Y52007908I70000J0D01*
G01*
X85206000Y52007908D01*
G75*
G02*
X85276000Y51937908I0J-70000D01*
G01*
X85276000Y51157908D01*
G75*
G02*
X85206000Y51087908I-70000J0D01*
G01*
X84646000Y51087908D01*
G75*
G02*
X84576000Y51157908I0J70000D01*
G01*
G37*
G36*
G01*
X86176000Y51157908D02*
X86176000Y51937908D01*
G75*
G02*
X86246000Y52007908I70000J0D01*
G01*
X86806000Y52007908D01*
G75*
G02*
X86876000Y51937908I0J-70000D01*
G01*
X86876000Y51157908D01*
G75*
G02*
X86806000Y51087908I-70000J0D01*
G01*
X86246000Y51087908D01*
G75*
G02*
X86176000Y51157908I0J70000D01*
G01*
G37*
G04 #@! TD*
G04 #@! TO.C,R14*
G36*
G01*
X92286000Y66377908D02*
X92286000Y67157908D01*
G75*
G02*
X92356000Y67227908I70000J0D01*
G01*
X92916000Y67227908D01*
G75*
G02*
X92986000Y67157908I0J-70000D01*
G01*
X92986000Y66377908D01*
G75*
G02*
X92916000Y66307908I-70000J0D01*
G01*
X92356000Y66307908D01*
G75*
G02*
X92286000Y66377908I0J70000D01*
G01*
G37*
G36*
G01*
X93886000Y66377908D02*
X93886000Y67157908D01*
G75*
G02*
X93956000Y67227908I70000J0D01*
G01*
X94516000Y67227908D01*
G75*
G02*
X94586000Y67157908I0J-70000D01*
G01*
X94586000Y66377908D01*
G75*
G02*
X94516000Y66307908I-70000J0D01*
G01*
X93956000Y66307908D01*
G75*
G02*
X93886000Y66377908I0J70000D01*
G01*
G37*
G04 #@! TD*
G04 #@! TO.C,Q1*
G36*
G01*
X76279000Y91007000D02*
X76279000Y91707000D01*
G75*
G02*
X76529000Y91957000I250000J0D01*
G01*
X78229000Y91957000D01*
G75*
G02*
X78479000Y91707000I0J-250000D01*
G01*
X78479000Y91007000D01*
G75*
G02*
X78229000Y90757000I-250000J0D01*
G01*
X76529000Y90757000D01*
G75*
G02*
X76279000Y91007000I0J250000D01*
G01*
G37*
G36*
G01*
X80479000Y86426997D02*
X80479000Y91727003D01*
G75*
G02*
X80728997Y91977000I249997J0D01*
G01*
X86629003Y91977000D01*
G75*
G02*
X86879000Y91727003I0J-249997D01*
G01*
X86879000Y86426997D01*
G75*
G02*
X86629003Y86177000I-249997J0D01*
G01*
X80728997Y86177000D01*
G75*
G02*
X80479000Y86426997I0J249997D01*
G01*
G37*
G36*
G01*
X76279000Y86447000D02*
X76279000Y87147000D01*
G75*
G02*
X76529000Y87397000I250000J0D01*
G01*
X78229000Y87397000D01*
G75*
G02*
X78479000Y87147000I0J-250000D01*
G01*
X78479000Y86447000D01*
G75*
G02*
X78229000Y86197000I-250000J0D01*
G01*
X76529000Y86197000D01*
G75*
G02*
X76279000Y86447000I0J250000D01*
G01*
G37*
G04 #@! TD*
G04 #@! TO.C,U3*
G36*
G01*
X76401000Y50191641D02*
X76401000Y50491641D01*
G75*
G02*
X76551000Y50641641I150000J0D01*
G01*
X78201000Y50641641D01*
G75*
G02*
X78351000Y50491641I0J-150000D01*
G01*
X78351000Y50191641D01*
G75*
G02*
X78201000Y50041641I-150000J0D01*
G01*
X76551000Y50041641D01*
G75*
G02*
X76401000Y50191641I0J150000D01*
G01*
G37*
G36*
G01*
X76401000Y48921641D02*
X76401000Y49221641D01*
G75*
G02*
X76551000Y49371641I150000J0D01*
G01*
X78201000Y49371641D01*
G75*
G02*
X78351000Y49221641I0J-150000D01*
G01*
X78351000Y48921641D01*
G75*
G02*
X78201000Y48771641I-150000J0D01*
G01*
X76551000Y48771641D01*
G75*
G02*
X76401000Y48921641I0J150000D01*
G01*
G37*
G36*
G01*
X76401000Y47651641D02*
X76401000Y47951641D01*
G75*
G02*
X76551000Y48101641I150000J0D01*
G01*
X78201000Y48101641D01*
G75*
G02*
X78351000Y47951641I0J-150000D01*
G01*
X78351000Y47651641D01*
G75*
G02*
X78201000Y47501641I-150000J0D01*
G01*
X76551000Y47501641D01*
G75*
G02*
X76401000Y47651641I0J150000D01*
G01*
G37*
G36*
G01*
X76401000Y46381641D02*
X76401000Y46681641D01*
G75*
G02*
X76551000Y46831641I150000J0D01*
G01*
X78201000Y46831641D01*
G75*
G02*
X78351000Y46681641I0J-150000D01*
G01*
X78351000Y46381641D01*
G75*
G02*
X78201000Y46231641I-150000J0D01*
G01*
X76551000Y46231641D01*
G75*
G02*
X76401000Y46381641I0J150000D01*
G01*
G37*
G36*
G01*
X81351000Y46381641D02*
X81351000Y46681641D01*
G75*
G02*
X81501000Y46831641I150000J0D01*
G01*
X83151000Y46831641D01*
G75*
G02*
X83301000Y46681641I0J-150000D01*
G01*
X83301000Y46381641D01*
G75*
G02*
X83151000Y46231641I-150000J0D01*
G01*
X81501000Y46231641D01*
G75*
G02*
X81351000Y46381641I0J150000D01*
G01*
G37*
G36*
G01*
X81351000Y47651641D02*
X81351000Y47951641D01*
G75*
G02*
X81501000Y48101641I150000J0D01*
G01*
X83151000Y48101641D01*
G75*
G02*
X83301000Y47951641I0J-150000D01*
G01*
X83301000Y47651641D01*
G75*
G02*
X83151000Y47501641I-150000J0D01*
G01*
X81501000Y47501641D01*
G75*
G02*
X81351000Y47651641I0J150000D01*
G01*
G37*
G36*
G01*
X81351000Y48921641D02*
X81351000Y49221641D01*
G75*
G02*
X81501000Y49371641I150000J0D01*
G01*
X83151000Y49371641D01*
G75*
G02*
X83301000Y49221641I0J-150000D01*
G01*
X83301000Y48921641D01*
G75*
G02*
X83151000Y48771641I-150000J0D01*
G01*
X81501000Y48771641D01*
G75*
G02*
X81351000Y48921641I0J150000D01*
G01*
G37*
G36*
G01*
X81351000Y50191641D02*
X81351000Y50491641D01*
G75*
G02*
X81501000Y50641641I150000J0D01*
G01*
X83151000Y50641641D01*
G75*
G02*
X83301000Y50491641I0J-150000D01*
G01*
X83301000Y50191641D01*
G75*
G02*
X83151000Y50041641I-150000J0D01*
G01*
X81501000Y50041641D01*
G75*
G02*
X81351000Y50191641I0J150000D01*
G01*
G37*
G04 #@! TD*
D12*
G04 #@! TO.C,M6*
X24018999Y60375005D03*
X17619002Y60375005D03*
X15718999Y60375005D03*
X11418999Y60375005D03*
D10*
X9019002Y59925006D03*
X8019001Y59925006D03*
D12*
X5168999Y60375005D03*
X24469001Y75875002D03*
X22619002Y75875002D03*
X17668999Y75875002D03*
X5619001Y75875002D03*
G04 #@! TD*
G04 #@! TO.C,R10*
G36*
G01*
X92286000Y70276000D02*
X92286000Y71056000D01*
G75*
G02*
X92356000Y71126000I70000J0D01*
G01*
X92916000Y71126000D01*
G75*
G02*
X92986000Y71056000I0J-70000D01*
G01*
X92986000Y70276000D01*
G75*
G02*
X92916000Y70206000I-70000J0D01*
G01*
X92356000Y70206000D01*
G75*
G02*
X92286000Y70276000I0J70000D01*
G01*
G37*
G36*
G01*
X93886000Y70276000D02*
X93886000Y71056000D01*
G75*
G02*
X93956000Y71126000I70000J0D01*
G01*
X94516000Y71126000D01*
G75*
G02*
X94586000Y71056000I0J-70000D01*
G01*
X94586000Y70276000D01*
G75*
G02*
X94516000Y70206000I-70000J0D01*
G01*
X93956000Y70206000D01*
G75*
G02*
X93886000Y70276000I0J70000D01*
G01*
G37*
G04 #@! TD*
G04 #@! TO.C,R9*
G36*
G01*
X92286000Y72225046D02*
X92286000Y73005046D01*
G75*
G02*
X92356000Y73075046I70000J0D01*
G01*
X92916000Y73075046D01*
G75*
G02*
X92986000Y73005046I0J-70000D01*
G01*
X92986000Y72225046D01*
G75*
G02*
X92916000Y72155046I-70000J0D01*
G01*
X92356000Y72155046D01*
G75*
G02*
X92286000Y72225046I0J70000D01*
G01*
G37*
G36*
G01*
X93886000Y72225046D02*
X93886000Y73005046D01*
G75*
G02*
X93956000Y73075046I70000J0D01*
G01*
X94516000Y73075046D01*
G75*
G02*
X94586000Y73005046I0J-70000D01*
G01*
X94586000Y72225046D01*
G75*
G02*
X94516000Y72155046I-70000J0D01*
G01*
X93956000Y72155046D01*
G75*
G02*
X93886000Y72225046I0J70000D01*
G01*
G37*
G04 #@! TD*
G04 #@! TO.C,F1*
G36*
G01*
X88556000Y72080391D02*
X88556000Y72592891D01*
G75*
G02*
X88774750Y72811641I218750J0D01*
G01*
X89212250Y72811641D01*
G75*
G02*
X89431000Y72592891I0J-218750D01*
G01*
X89431000Y72080391D01*
G75*
G02*
X89212250Y71861641I-218750J0D01*
G01*
X88774750Y71861641D01*
G75*
G02*
X88556000Y72080391I0J218750D01*
G01*
G37*
G36*
G01*
X90131000Y72080391D02*
X90131000Y72592891D01*
G75*
G02*
X90349750Y72811641I218750J0D01*
G01*
X90787250Y72811641D01*
G75*
G02*
X91006000Y72592891I0J-218750D01*
G01*
X91006000Y72080391D01*
G75*
G02*
X90787250Y71861641I-218750J0D01*
G01*
X90349750Y71861641D01*
G75*
G02*
X90131000Y72080391I0J218750D01*
G01*
G37*
G04 #@! TD*
G04 #@! TO.C,R12*
G36*
G01*
X88546000Y84391641D02*
X88546000Y87241641D01*
G75*
G02*
X88796000Y87491641I250000J0D01*
G01*
X89521000Y87491641D01*
G75*
G02*
X89771000Y87241641I0J-250000D01*
G01*
X89771000Y84391641D01*
G75*
G02*
X89521000Y84141641I-250000J0D01*
G01*
X88796000Y84141641D01*
G75*
G02*
X88546000Y84391641I0J250000D01*
G01*
G37*
G36*
G01*
X94471000Y84391641D02*
X94471000Y87241641D01*
G75*
G02*
X94721000Y87491641I250000J0D01*
G01*
X95446000Y87491641D01*
G75*
G02*
X95696000Y87241641I0J-250000D01*
G01*
X95696000Y84391641D01*
G75*
G02*
X95446000Y84141641I-250000J0D01*
G01*
X94721000Y84141641D01*
G75*
G02*
X94471000Y84391641I0J250000D01*
G01*
G37*
G04 #@! TD*
G04 #@! TO.C,U4*
G36*
G01*
X87111000Y41611641D02*
X87111000Y41911641D01*
G75*
G02*
X87261000Y42061641I150000J0D01*
G01*
X88911000Y42061641D01*
G75*
G02*
X89061000Y41911641I0J-150000D01*
G01*
X89061000Y41611641D01*
G75*
G02*
X88911000Y41461641I-150000J0D01*
G01*
X87261000Y41461641D01*
G75*
G02*
X87111000Y41611641I0J150000D01*
G01*
G37*
G36*
G01*
X87111000Y40341641D02*
X87111000Y40641641D01*
G75*
G02*
X87261000Y40791641I150000J0D01*
G01*
X88911000Y40791641D01*
G75*
G02*
X89061000Y40641641I0J-150000D01*
G01*
X89061000Y40341641D01*
G75*
G02*
X88911000Y40191641I-150000J0D01*
G01*
X87261000Y40191641D01*
G75*
G02*
X87111000Y40341641I0J150000D01*
G01*
G37*
G36*
G01*
X87111000Y39071641D02*
X87111000Y39371641D01*
G75*
G02*
X87261000Y39521641I150000J0D01*
G01*
X88911000Y39521641D01*
G75*
G02*
X89061000Y39371641I0J-150000D01*
G01*
X89061000Y39071641D01*
G75*
G02*
X88911000Y38921641I-150000J0D01*
G01*
X87261000Y38921641D01*
G75*
G02*
X87111000Y39071641I0J150000D01*
G01*
G37*
G36*
G01*
X87111000Y37801641D02*
X87111000Y38101641D01*
G75*
G02*
X87261000Y38251641I150000J0D01*
G01*
X88911000Y38251641D01*
G75*
G02*
X89061000Y38101641I0J-150000D01*
G01*
X89061000Y37801641D01*
G75*
G02*
X88911000Y37651641I-150000J0D01*
G01*
X87261000Y37651641D01*
G75*
G02*
X87111000Y37801641I0J150000D01*
G01*
G37*
G36*
G01*
X92061000Y37801641D02*
X92061000Y38101641D01*
G75*
G02*
X92211000Y38251641I150000J0D01*
G01*
X93861000Y38251641D01*
G75*
G02*
X94011000Y38101641I0J-150000D01*
G01*
X94011000Y37801641D01*
G75*
G02*
X93861000Y37651641I-150000J0D01*
G01*
X92211000Y37651641D01*
G75*
G02*
X92061000Y37801641I0J150000D01*
G01*
G37*
G36*
G01*
X92061000Y39071641D02*
X92061000Y39371641D01*
G75*
G02*
X92211000Y39521641I150000J0D01*
G01*
X93861000Y39521641D01*
G75*
G02*
X94011000Y39371641I0J-150000D01*
G01*
X94011000Y39071641D01*
G75*
G02*
X93861000Y38921641I-150000J0D01*
G01*
X92211000Y38921641D01*
G75*
G02*
X92061000Y39071641I0J150000D01*
G01*
G37*
G36*
G01*
X92061000Y40341641D02*
X92061000Y40641641D01*
G75*
G02*
X92211000Y40791641I150000J0D01*
G01*
X93861000Y40791641D01*
G75*
G02*
X94011000Y40641641I0J-150000D01*
G01*
X94011000Y40341641D01*
G75*
G02*
X93861000Y40191641I-150000J0D01*
G01*
X92211000Y40191641D01*
G75*
G02*
X92061000Y40341641I0J150000D01*
G01*
G37*
G36*
G01*
X92061000Y41611641D02*
X92061000Y41911641D01*
G75*
G02*
X92211000Y42061641I150000J0D01*
G01*
X93861000Y42061641D01*
G75*
G02*
X94011000Y41911641I0J-150000D01*
G01*
X94011000Y41611641D01*
G75*
G02*
X93861000Y41461641I-150000J0D01*
G01*
X92211000Y41461641D01*
G75*
G02*
X92061000Y41611641I0J150000D01*
G01*
G37*
G04 #@! TD*
G04 #@! TO.C,D3*
G36*
G01*
X76336000Y34561641D02*
X76336000Y35581641D01*
G75*
G02*
X76426000Y35671641I90000J0D01*
G01*
X77146000Y35671641D01*
G75*
G02*
X77236000Y35581641I0J-90000D01*
G01*
X77236000Y34561641D01*
G75*
G02*
X77146000Y34471641I-90000J0D01*
G01*
X76426000Y34471641D01*
G75*
G02*
X76336000Y34561641I0J90000D01*
G01*
G37*
G36*
G01*
X79636000Y34561641D02*
X79636000Y35581641D01*
G75*
G02*
X79726000Y35671641I90000J0D01*
G01*
X80446000Y35671641D01*
G75*
G02*
X80536000Y35581641I0J-90000D01*
G01*
X80536000Y34561641D01*
G75*
G02*
X80446000Y34471641I-90000J0D01*
G01*
X79726000Y34471641D01*
G75*
G02*
X79636000Y34561641I0J90000D01*
G01*
G37*
G04 #@! TD*
D10*
G04 #@! TO.C,M5*
X41618000Y73514000D03*
X41618000Y72314000D03*
X41618000Y74714000D03*
X41618000Y75914000D03*
X27193000Y69454000D03*
X27193000Y68454000D03*
G04 #@! TD*
G04 #@! TO.C,D4*
G36*
G01*
X76336000Y31441641D02*
X76336000Y32461641D01*
G75*
G02*
X76426000Y32551641I90000J0D01*
G01*
X77146000Y32551641D01*
G75*
G02*
X77236000Y32461641I0J-90000D01*
G01*
X77236000Y31441641D01*
G75*
G02*
X77146000Y31351641I-90000J0D01*
G01*
X76426000Y31351641D01*
G75*
G02*
X76336000Y31441641I0J90000D01*
G01*
G37*
G36*
G01*
X79636000Y31441641D02*
X79636000Y32461641D01*
G75*
G02*
X79726000Y32551641I90000J0D01*
G01*
X80446000Y32551641D01*
G75*
G02*
X80536000Y32461641I0J-90000D01*
G01*
X80536000Y31441641D01*
G75*
G02*
X80446000Y31351641I-90000J0D01*
G01*
X79726000Y31351641D01*
G75*
G02*
X79636000Y31441641I0J90000D01*
G01*
G37*
G04 #@! TD*
G04 #@! TO.C,F4*
G36*
G01*
X88556000Y64550391D02*
X88556000Y65062891D01*
G75*
G02*
X88774750Y65281641I218750J0D01*
G01*
X89212250Y65281641D01*
G75*
G02*
X89431000Y65062891I0J-218750D01*
G01*
X89431000Y64550391D01*
G75*
G02*
X89212250Y64331641I-218750J0D01*
G01*
X88774750Y64331641D01*
G75*
G02*
X88556000Y64550391I0J218750D01*
G01*
G37*
G36*
G01*
X90131000Y64550391D02*
X90131000Y65062891D01*
G75*
G02*
X90349750Y65281641I218750J0D01*
G01*
X90787250Y65281641D01*
G75*
G02*
X91006000Y65062891I0J-218750D01*
G01*
X91006000Y64550391D01*
G75*
G02*
X90787250Y64331641I-218750J0D01*
G01*
X90349750Y64331641D01*
G75*
G02*
X90131000Y64550391I0J218750D01*
G01*
G37*
G04 #@! TD*
G04 #@! TO.C,M1*
X67485000Y48785000D03*
X67485000Y47585000D03*
X67485000Y49985000D03*
X67485000Y51185000D03*
X53060000Y44725000D03*
X53060000Y43725000D03*
G04 #@! TD*
G04 #@! TO.C,F3*
G36*
G01*
X88556000Y67060391D02*
X88556000Y67572891D01*
G75*
G02*
X88774750Y67791641I218750J0D01*
G01*
X89212250Y67791641D01*
G75*
G02*
X89431000Y67572891I0J-218750D01*
G01*
X89431000Y67060391D01*
G75*
G02*
X89212250Y66841641I-218750J0D01*
G01*
X88774750Y66841641D01*
G75*
G02*
X88556000Y67060391I0J218750D01*
G01*
G37*
G36*
G01*
X90131000Y67060391D02*
X90131000Y67572891D01*
G75*
G02*
X90349750Y67791641I218750J0D01*
G01*
X90787250Y67791641D01*
G75*
G02*
X91006000Y67572891I0J-218750D01*
G01*
X91006000Y67060391D01*
G75*
G02*
X90787250Y66841641I-218750J0D01*
G01*
X90349750Y66841641D01*
G75*
G02*
X90131000Y67060391I0J218750D01*
G01*
G37*
G04 #@! TD*
G04 #@! TO.C,U2*
G36*
G01*
X76401000Y56771641D02*
X76401000Y57071641D01*
G75*
G02*
X76551000Y57221641I150000J0D01*
G01*
X78201000Y57221641D01*
G75*
G02*
X78351000Y57071641I0J-150000D01*
G01*
X78351000Y56771641D01*
G75*
G02*
X78201000Y56621641I-150000J0D01*
G01*
X76551000Y56621641D01*
G75*
G02*
X76401000Y56771641I0J150000D01*
G01*
G37*
G36*
G01*
X76401000Y55501641D02*
X76401000Y55801641D01*
G75*
G02*
X76551000Y55951641I150000J0D01*
G01*
X78201000Y55951641D01*
G75*
G02*
X78351000Y55801641I0J-150000D01*
G01*
X78351000Y55501641D01*
G75*
G02*
X78201000Y55351641I-150000J0D01*
G01*
X76551000Y55351641D01*
G75*
G02*
X76401000Y55501641I0J150000D01*
G01*
G37*
G36*
G01*
X76401000Y54231641D02*
X76401000Y54531641D01*
G75*
G02*
X76551000Y54681641I150000J0D01*
G01*
X78201000Y54681641D01*
G75*
G02*
X78351000Y54531641I0J-150000D01*
G01*
X78351000Y54231641D01*
G75*
G02*
X78201000Y54081641I-150000J0D01*
G01*
X76551000Y54081641D01*
G75*
G02*
X76401000Y54231641I0J150000D01*
G01*
G37*
G36*
G01*
X76401000Y52961641D02*
X76401000Y53261641D01*
G75*
G02*
X76551000Y53411641I150000J0D01*
G01*
X78201000Y53411641D01*
G75*
G02*
X78351000Y53261641I0J-150000D01*
G01*
X78351000Y52961641D01*
G75*
G02*
X78201000Y52811641I-150000J0D01*
G01*
X76551000Y52811641D01*
G75*
G02*
X76401000Y52961641I0J150000D01*
G01*
G37*
G36*
G01*
X81351000Y52961641D02*
X81351000Y53261641D01*
G75*
G02*
X81501000Y53411641I150000J0D01*
G01*
X83151000Y53411641D01*
G75*
G02*
X83301000Y53261641I0J-150000D01*
G01*
X83301000Y52961641D01*
G75*
G02*
X83151000Y52811641I-150000J0D01*
G01*
X81501000Y52811641D01*
G75*
G02*
X81351000Y52961641I0J150000D01*
G01*
G37*
G36*
G01*
X81351000Y54231641D02*
X81351000Y54531641D01*
G75*
G02*
X81501000Y54681641I150000J0D01*
G01*
X83151000Y54681641D01*
G75*
G02*
X83301000Y54531641I0J-150000D01*
G01*
X83301000Y54231641D01*
G75*
G02*
X83151000Y54081641I-150000J0D01*
G01*
X81501000Y54081641D01*
G75*
G02*
X81351000Y54231641I0J150000D01*
G01*
G37*
G36*
G01*
X81351000Y55501641D02*
X81351000Y55801641D01*
G75*
G02*
X81501000Y55951641I150000J0D01*
G01*
X83151000Y55951641D01*
G75*
G02*
X83301000Y55801641I0J-150000D01*
G01*
X83301000Y55501641D01*
G75*
G02*
X83151000Y55351641I-150000J0D01*
G01*
X81501000Y55351641D01*
G75*
G02*
X81351000Y55501641I0J150000D01*
G01*
G37*
G36*
G01*
X81351000Y56771641D02*
X81351000Y57071641D01*
G75*
G02*
X81501000Y57221641I150000J0D01*
G01*
X83151000Y57221641D01*
G75*
G02*
X83301000Y57071641I0J-150000D01*
G01*
X83301000Y56771641D01*
G75*
G02*
X83151000Y56621641I-150000J0D01*
G01*
X81501000Y56621641D01*
G75*
G02*
X81351000Y56771641I0J150000D01*
G01*
G37*
G04 #@! TD*
G04 #@! TO.C,Q4*
G36*
G01*
X76401000Y66326641D02*
X76401000Y67026641D01*
G75*
G02*
X76651000Y67276641I250000J0D01*
G01*
X78351000Y67276641D01*
G75*
G02*
X78601000Y67026641I0J-250000D01*
G01*
X78601000Y66326641D01*
G75*
G02*
X78351000Y66076641I-250000J0D01*
G01*
X76651000Y66076641D01*
G75*
G02*
X76401000Y66326641I0J250000D01*
G01*
G37*
G36*
G01*
X80601000Y61746638D02*
X80601000Y67046644D01*
G75*
G02*
X80850997Y67296641I249997J0D01*
G01*
X86751003Y67296641D01*
G75*
G02*
X87001000Y67046644I0J-249997D01*
G01*
X87001000Y61746638D01*
G75*
G02*
X86751003Y61496641I-249997J0D01*
G01*
X80850997Y61496641D01*
G75*
G02*
X80601000Y61746638I0J249997D01*
G01*
G37*
G36*
G01*
X76401000Y61766641D02*
X76401000Y62466641D01*
G75*
G02*
X76651000Y62716641I250000J0D01*
G01*
X78351000Y62716641D01*
G75*
G02*
X78601000Y62466641I0J-250000D01*
G01*
X78601000Y61766641D01*
G75*
G02*
X78351000Y61516641I-250000J0D01*
G01*
X76651000Y61516641D01*
G75*
G02*
X76401000Y61766641I0J250000D01*
G01*
G37*
G04 #@! TD*
M02*
