G04 #@! TF.GenerationSoftware,KiCad,Pcbnew,8.0.9-8.0.9-0~ubuntu24.04.1*
G04 #@! TF.CreationDate,2026-03-14T11:53:20+00:00*
G04 #@! TF.ProjectId,EP91Starlet,45503931-5374-4617-926c-65742e6b6963,rev?*
G04 #@! TF.SameCoordinates,Original*
G04 #@! TF.FileFunction,Soldermask,Bot*
G04 #@! TF.FilePolarity,Negative*
%FSLAX46Y46*%
G04 Gerber Fmt 4.6, Leading zero omitted, Abs format (unit mm)*
G04 Created by KiCad (PCBNEW 8.0.9-8.0.9-0~ubuntu24.04.1) date 2026-03-14 11:53:20*
%MOMM*%
%LPD*%
G01*
G04 APERTURE LIST*
%ADD10R,1.650000X1.650000*%
%ADD11C,1.650000*%
%ADD12C,5.250000*%
G04 APERTURE END LIST*
D10*
G04 #@! TO.C,J1*
X-10968944Y120052000D03*
D11*
X-7968944Y120052000D03*
X-4968944Y120052000D03*
X-1968944Y120052000D03*
X1031056Y120052000D03*
X4031056Y120052000D03*
X7031056Y120052000D03*
X10031056Y120052000D03*
X-10968944Y124552000D03*
X-7968944Y124552000D03*
X-4968944Y124552000D03*
X-1968944Y124552000D03*
X1031056Y124552000D03*
X4031056Y124552000D03*
X7031056Y124552000D03*
X10031056Y124552000D03*
X16031056Y120052000D03*
X19481056Y120052000D03*
X22581056Y120052000D03*
X25581056Y120052000D03*
X28581056Y120052000D03*
X31581056Y120052000D03*
X34581056Y120052000D03*
X37581056Y120052000D03*
X40581056Y120052000D03*
X43581056Y120052000D03*
X46681056Y120052000D03*
X50181056Y120052000D03*
X53681056Y120052000D03*
X15981056Y124552000D03*
X19481056Y124552000D03*
X22581056Y124552000D03*
X25581056Y124552000D03*
X28581056Y124552000D03*
X31581056Y124552000D03*
X34581056Y124552000D03*
X37581056Y124552000D03*
X40581056Y124552000D03*
X43581056Y124552000D03*
X46681056Y124552000D03*
X50181056Y124552000D03*
X53681056Y124552000D03*
D12*
X-11368944Y130252000D03*
X12881056Y130252000D03*
X54331056Y130252000D03*
G04 #@! TD*
M02*
