M48
; DRILL file {KiCad 8.0.9-8.0.9-0~ubuntu24.04.1} date 2026-04-01T07:18:05+0000
; FORMAT={2:4/ absolute / inch / suppress leading zeros}
; #@! TF.CreationDate,2026-04-01T07:18:05+00:00
; #@! TF.GenerationSoftware,Kicad,Pcbnew,8.0.9-8.0.9-0~ubuntu24.04.1
; #@! TF.FileFunction,MixedPlating,1,4
FMAT,2
INCH,TZ
; #@! TA.AperFunction,Plated,PTH,ComponentDrill
T1C0.0118
; #@! TA.AperFunction,Plated,PTH,ComponentDrill
T2C0.0118
; #@! TA.AperFunction,Plated,PTH,ComponentDrill
T3C0.0394
; #@! TA.AperFunction,Plated,PTH,ComponentDrill
T4C0.0433
; #@! TA.AperFunction,Plated,PTH,ComponentDrill
T5C0.0591
; #@! TA.AperFunction,Plated,PTH,ComponentDrill
T6C0.1339
; #@! TA.AperFunction,Plated,PTH,ComponentDrill
T7C0.1378
%
G90
G05
T1
X35167Y10285
X35512Y10079
X35600Y11978
X35630Y10581
T2
X-14843Y28346
X-14843Y27992
X-11417Y28346
X-11417Y27972
X-11417Y27598
X9951Y14715
X9951Y14321
X9951Y25108
X9951Y24715
X9951Y24321
X9951Y23927
X9951Y23533
X9951Y23140
X9951Y19596
X9951Y28888
X9951Y22746
X9951Y22352
X9951Y21959
X9951Y21565
X9951Y21171
X9951Y20778
X9951Y20384
X9951Y19990
X9951Y17234
X10108Y13337
X11053Y13337
X11526Y13337
X11998Y13337
X12313Y28888
X12470Y13337
X12628Y28888
X12943Y28888
X12943Y13337
X13415Y13337
X13888Y13337
X14360Y13337
X14833Y13337
X15236Y11383
X15236Y11068
X15236Y10753
X15236Y10438
X15236Y10123
X15305Y13337
X15778Y13337
X16014Y28888
X16250Y13337
X16329Y28888
X16644Y28888
X16722Y13337
X16959Y28888
X17195Y13337
X17274Y28888
X17667Y13337
X18140Y13337
X18612Y13337
X19085Y13337
X19439Y28888
X19557Y13337
X19754Y28888
X20030Y13337
X20069Y28888
X20384Y28888
X20502Y13337
X20699Y28888
X20974Y13337
X21014Y28888
X21329Y28888
X21447Y13337
X21644Y28888
X21919Y13337
X21959Y28888
X22274Y28888
X22392Y13337
X22589Y28888
X22864Y13337
X22904Y28888
X23219Y28888
X23337Y13337
X23533Y28888
X23809Y13337
X23848Y28888
X24163Y28888
X24242Y13337
X24478Y28888
X24685Y8331
X24685Y8016
X24685Y7701
X24685Y7386
X24715Y13337
X24793Y28888
X25108Y28888
X25187Y13337
X25423Y28888
X25659Y13337
X25738Y28888
X26053Y28888
X26132Y13337
X26368Y26289
X26368Y25974
X26368Y24400
X26368Y24085
X26368Y23770
X26368Y22510
X26368Y22195
X26368Y18730
X26368Y14518
X26368Y28888
X26368Y27864
X26368Y27549
X26368Y27234
X26368Y26919
X26368Y26604
X26368Y25659
X26368Y25344
X26368Y25030
X26368Y24715
X26368Y23455
X26368Y23140
X26368Y22825
X26368Y21880
X26368Y21565
X26368Y21250
X26368Y20935
X26368Y20620
X26368Y20305
X26368Y19990
X26368Y19675
X26368Y19360
X26368Y19045
X26368Y18415
X26368Y18100
X26368Y17785
X26368Y17470
X26368Y17156
X26368Y14203
X31870Y5949
X31870Y5556
X32411Y25867
X32411Y25473
X32411Y21516
X32411Y21123
X32411Y17166
X32411Y16772
X38091Y28410
X38091Y27938
X38091Y27465
X38091Y26993
X38091Y24060
X38091Y23587
X38091Y23115
X38091Y22642
X38091Y19709
X38091Y19237
X38091Y18764
X38091Y18292
T3
X15157Y1181
X15157Y181
X16157Y1181
X16157Y181
X17157Y1181
X17157Y181
X18157Y1181
X18157Y181
X19157Y1181
X19157Y181
X20157Y1181
X20157Y181
X21157Y1181
X21157Y181
X22157Y1181
X22157Y181
X23157Y1181
X23157Y181
X24157Y1181
X24157Y181
X24528Y8804
X25157Y1181
X25157Y181
X25591Y12032
X25591Y11304
X25591Y9355
X25591Y4611
X26157Y1181
X26157Y181
X27157Y1181
X27157Y181
X28157Y1181
X28157Y181
X29157Y1181
X29157Y181
X31693Y11855
X31693Y9335
X31693Y8587
X31693Y6894
X31693Y4434
T4
X7461Y35433
X7461Y33661
X8642Y35433
X8642Y33661
X9823Y35433
X9823Y33661
X11004Y35433
X11004Y33661
X12185Y35433
X12185Y33661
X13366Y35433
X13366Y33661
X14547Y35433
X14547Y33661
X15728Y35433
X15728Y33661
X18071Y35433
X18091Y33661
X19449Y35433
X19449Y33661
X20669Y35433
X20669Y33661
X21850Y35433
X21850Y33661
X23031Y35433
X23031Y33661
X24213Y35433
X24213Y33661
X25394Y35433
X25394Y33661
X26575Y35433
X26575Y33661
X27756Y35433
X27756Y33661
X28937Y35433
X28937Y33661
X30157Y35433
X30157Y33661
X31535Y35433
X31535Y33661
X32913Y35433
X32913Y33661
T5
X48071Y29670
X48071Y26520
X48661Y28686
X48661Y27505
X49252Y29670
X49252Y26520
X49843Y28686
X49843Y27505
X50433Y29670
X50433Y26520
X51024Y28686
X51024Y27505
X51614Y29670
X51614Y26520
X52205Y28686
X52205Y27505
X52795Y29670
X52795Y26520
X53386Y28686
X53386Y27505
X53976Y29670
X53976Y26520
X54567Y28686
X54567Y27505
X55157Y29670
X55157Y26520
T6
X45217Y23961
X58012Y23961
T7
X7303Y37677
X16850Y37677
X33169Y37677
M30
