G04 #@! TF.GenerationSoftware,KiCad,Pcbnew,8.0.9-8.0.9-0~ubuntu24.04.1*
G04 #@! TF.CreationDate,2026-04-02T00:30:11+00:00*
G04 #@! TF.ProjectId,EP91Starlet,45503931-5374-4617-926c-65742e6b6963,rev?*
G04 #@! TF.SameCoordinates,Original*
G04 #@! TF.FileFunction,Soldermask,Bot*
G04 #@! TF.FilePolarity,Negative*
%FSLAX46Y46*%
G04 Gerber Fmt 4.6, Leading zero omitted, Abs format (unit mm)*
G04 Created by KiCad (PCBNEW 8.0.9-8.0.9-0~ubuntu24.04.1) date 2026-04-02 00:30:11*
%MOMM*%
%LPD*%
G01*
G04 APERTURE LIST*
%ADD10C,0.600000*%
%ADD11R,1.700000X1.700000*%
%ADD12O,1.700000X1.700000*%
%ADD13C,1.500000*%
%ADD14C,1.700000*%
%ADD15C,3.500000*%
%ADD16O,3.300000X2.700000*%
%ADD17R,1.650000X1.650000*%
%ADD18C,1.650000*%
%ADD19C,5.250000*%
%ADD20O,2.700000X3.300000*%
%ADD21C,0.599999*%
G04 APERTURE END LIST*
D10*
G04 #@! TO.C,M6*
X-55475000Y42674997D03*
X-55475000Y41724997D03*
X-55475000Y40774999D03*
X-64175000Y41774997D03*
X-64175000Y42674997D03*
G04 #@! TD*
D11*
G04 #@! TO.C,J3*
X88850000Y28300000D03*
D12*
X88850000Y25760000D03*
G04 #@! TD*
D10*
G04 #@! TO.C,M2*
X61260000Y62975000D03*
X60060000Y62975000D03*
X62460000Y62975000D03*
X63660000Y62975000D03*
X57200000Y77400000D03*
X56200000Y77400000D03*
G04 #@! TD*
D13*
G04 #@! TO.C,BT1*
X-79624911Y51304737D03*
X-72125053Y51304737D03*
G04 #@! TD*
D11*
G04 #@! TO.C,J2*
X21030000Y2710000D03*
D14*
X18530000Y2710000D03*
X18530000Y710000D03*
X21030000Y710000D03*
D15*
X25800000Y-2000000D03*
X13760000Y-2000000D03*
G04 #@! TD*
G04 #@! TO.C,J9*
G36*
G01*
X82349999Y44950000D02*
X79550001Y44950000D01*
G75*
G02*
X79300000Y45200001I0J250001D01*
G01*
X79300000Y47399999D01*
G75*
G02*
X79550001Y47650000I250001J0D01*
G01*
X82349999Y47650000D01*
G75*
G02*
X82600000Y47399999I0J-250001D01*
G01*
X82600000Y45200001D01*
G75*
G02*
X82349999Y44950000I-250001J0D01*
G01*
G37*
D16*
X80950000Y50500000D03*
X80950000Y54700000D03*
X80950000Y58900000D03*
X80950000Y63100000D03*
X80950000Y67300000D03*
X86450000Y46300000D03*
X86450000Y50500000D03*
X86450000Y54700000D03*
X86450000Y58900000D03*
X86450000Y63100000D03*
X86450000Y67300000D03*
G04 #@! TD*
D13*
G04 #@! TO.C,M4*
X-87675004Y57424998D03*
X-87675004Y51025001D03*
X-87675004Y49124998D03*
X-87675004Y44824998D03*
D10*
X-87225005Y42425001D03*
X-87225005Y41425000D03*
D13*
X-87675004Y38574998D03*
X-103175001Y57875000D03*
X-103175001Y56025001D03*
X-103175001Y51074998D03*
X-103175001Y39025000D03*
G04 #@! TD*
D11*
G04 #@! TO.C,J5*
X-99500000Y30240000D03*
D12*
X-99500000Y27700000D03*
G04 #@! TD*
D10*
G04 #@! TO.C,M3*
X50800000Y62900000D03*
X49600000Y62900000D03*
X52000000Y62900000D03*
X53200000Y62900000D03*
X46740000Y77325000D03*
X45740000Y77325000D03*
G04 #@! TD*
D17*
G04 #@! TO.C,J1*
X10350000Y81300000D03*
D18*
X13350000Y81300000D03*
X16350000Y81300000D03*
X19350000Y81300000D03*
X22350000Y81300000D03*
X25350000Y81300000D03*
X28350000Y81300000D03*
X31350000Y81300000D03*
X10350000Y85800000D03*
X13350000Y85800000D03*
X16350000Y85800000D03*
X19350000Y85800000D03*
X22350000Y85800000D03*
X25350000Y85800000D03*
X28350000Y85800000D03*
X31350000Y85800000D03*
X37350000Y81300000D03*
X40800000Y81300000D03*
X43900000Y81300000D03*
X46900000Y81300000D03*
X49900000Y81300000D03*
X52900000Y81300000D03*
X55900000Y81300000D03*
X58900000Y81300000D03*
X61900000Y81300000D03*
X64900000Y81300000D03*
X68000000Y81300000D03*
X71500000Y81300000D03*
X75000000Y81300000D03*
X37300000Y85800000D03*
X40800000Y85800000D03*
X43900000Y85800000D03*
X46900000Y85800000D03*
X49900000Y85800000D03*
X52900000Y85800000D03*
X55900000Y85800000D03*
X58900000Y85800000D03*
X61900000Y85800000D03*
X64900000Y85800000D03*
X68000000Y85800000D03*
X71500000Y85800000D03*
X75000000Y85800000D03*
D19*
X9950000Y91500000D03*
X34200000Y91500000D03*
X75650000Y91500000D03*
G04 #@! TD*
G04 #@! TO.C,J6*
G36*
G01*
X-18850000Y17900001D02*
X-18850000Y20699999D01*
G75*
G02*
X-18599999Y20950000I250001J0D01*
G01*
X-16400001Y20950000D01*
G75*
G02*
X-16150000Y20699999I0J-250001D01*
G01*
X-16150000Y17900001D01*
G75*
G02*
X-16400001Y17650000I-250001J0D01*
G01*
X-18599999Y17650000D01*
G75*
G02*
X-18850000Y17900001I0J250001D01*
G01*
G37*
D20*
X-13300000Y19300000D03*
X-9100000Y19300000D03*
X-17500000Y13800000D03*
X-13300000Y13800000D03*
X-9100000Y13800000D03*
G04 #@! TD*
G04 #@! TO.C,J7*
G36*
G01*
X13550000Y19320000D02*
X13550000Y18120000D01*
G75*
G02*
X13300000Y17870000I-250000J0D01*
G01*
X12100000Y17870000D01*
G75*
G02*
X11850000Y18120000I0J250000D01*
G01*
X11850000Y19320000D01*
G75*
G02*
X12100000Y19570000I250000J0D01*
G01*
X13300000Y19570000D01*
G75*
G02*
X13550000Y19320000I0J-250000D01*
G01*
G37*
D14*
X10160000Y18720000D03*
X12700000Y21260000D03*
X10160000Y21260000D03*
X12700000Y23800000D03*
X10160000Y23800000D03*
X12700000Y26340000D03*
X10160000Y26340000D03*
X12700000Y28880000D03*
X10160000Y28880000D03*
X12700000Y31420000D03*
X10160000Y31420000D03*
X12700000Y33960000D03*
X10160000Y33960000D03*
X12700000Y36500000D03*
X10160000Y36500000D03*
X12700000Y39040000D03*
X10160000Y39040000D03*
X12700000Y41580000D03*
X10160000Y41580000D03*
X12700000Y44120000D03*
X10160000Y44120000D03*
X12700000Y46660000D03*
X10160000Y46660000D03*
X12700000Y49200000D03*
X10160000Y49200000D03*
X12700000Y51740000D03*
X10160000Y51740000D03*
X12700000Y54280000D03*
X10160000Y54280000D03*
X12700000Y56820000D03*
X10160000Y56820000D03*
X12700000Y59360000D03*
X10160000Y59360000D03*
X12700000Y61900000D03*
X10160000Y61900000D03*
X12700000Y64440000D03*
X10160000Y64440000D03*
X12700000Y66980000D03*
X10160000Y66980000D03*
G04 #@! TD*
D21*
G04 #@! TO.C,M7*
X45237499Y4856662D03*
X44362497Y5381662D03*
X45537501Y6131660D03*
X45462498Y9681661D03*
G04 #@! TD*
M02*
