M48
; DRILL file {KiCad 8.0.9-8.0.9-0~ubuntu24.04.1} date 2025-05-19T08:55:07+0000
; FORMAT={2:4/ absolute / inch / suppress leading zeros}
; #@! TF.CreationDate,2025-05-19T08:55:07+00:00
; #@! TF.GenerationSoftware,Kicad,Pcbnew,8.0.9-8.0.9-0~ubuntu24.04.1
; #@! TF.FileFunction,MixedPlating,1,4
FMAT,2
INCH,TZ
; #@! TA.AperFunction,Plated,PTH,ComponentDrill
T1C0.0118
; #@! TA.AperFunction,Plated,PTH,ComponentDrill
T2C0.0433
%
G90
G05
T1
X14736Y23387
X15110Y23387
X15130Y26813
X15484Y26813
X15484Y23387
X15743Y9848
X16137Y9848
X16530Y9848
X16845Y29172
X16924Y9848
X17239Y29172
X17851Y20317
X18251Y20317
X18365Y23493
X18837Y23493
X19148Y20317
X19309Y23493
X19542Y20317
X19782Y23493
X19936Y20317
X23883Y12584
X23883Y12191
X23883Y26757
X23883Y22151
X23883Y21836
X23883Y20616
X23883Y20222
X23883Y19828
X23883Y19435
X23883Y19041
X23883Y18647
X23883Y18254
X23883Y17860
X23883Y15104
X24040Y11206
X24985Y11206
X25457Y11206
X25930Y11206
X26245Y26757
X26402Y11206
X26560Y26757
X26875Y26757
X26875Y11206
X27347Y11206
X27820Y11206
X28292Y11206
X28765Y11206
X29237Y11206
X29709Y11206
X29946Y26757
X30182Y11206
X30261Y26757
X30576Y26757
X30654Y11206
X30891Y26757
X31127Y11206
X31206Y26757
X31599Y11206
X32072Y11206
X32544Y11206
X33017Y11206
X33371Y26757
X33489Y11206
X33686Y26757
X33961Y11206
X34001Y26757
X34316Y26757
X34434Y11206
X34631Y26757
X34906Y11206
X34946Y26757
X35261Y26757
X35379Y11206
X35576Y26757
X35851Y11206
X35891Y26757
X36206Y26757
X36324Y11206
X36520Y26757
X36796Y11206
X36835Y26757
X37150Y26757
X37269Y11206
X37465Y26757
X37741Y11206
X37780Y26757
X38095Y26757
X38174Y11206
X38410Y26757
X38646Y11206
X38725Y26757
X39040Y26757
X39119Y11206
X39355Y26757
X39591Y11206
X39670Y26757
X39985Y26757
X40064Y11206
X40300Y24159
X40300Y23844
X40300Y22269
X40300Y21954
X40300Y21639
X40300Y20380
X40300Y20065
X40300Y16600
X40300Y12387
X40300Y26757
X40300Y25734
X40300Y25419
X40300Y25104
X40300Y24789
X40300Y24474
X40300Y23529
X40300Y23214
X40300Y22899
X40300Y22584
X40300Y21324
X40300Y21009
X40300Y20694
X40300Y19750
X40300Y19435
X40300Y19120
X40300Y18805
X40300Y18490
X40300Y18175
X40300Y17860
X40300Y17545
X40300Y17230
X40300Y16915
X40300Y16285
X40300Y15970
X40300Y15655
X40300Y15340
X40300Y15025
X40300Y12072
T2
X7700Y32591
X7700Y31409
X7700Y30228
X7700Y29047
X7700Y27866
X7700Y26685
X7700Y25504
X7700Y24323
X7700Y21173
X7700Y19992
X7700Y18811
X7700Y17630
X7700Y16449
X7700Y15268
X7700Y14087
X7700Y12906
X7700Y11724
X7700Y10543
X7700Y9362
X7700Y8181
X7700Y7000
X9472Y32591
X9472Y31409
X9472Y30228
X9472Y29047
X9472Y27866
X9472Y26685
X9472Y25504
X9472Y24323
X9472Y21173
X9472Y19992
X9472Y18811
X9472Y17630
X9472Y16449
X9472Y15268
X9472Y14087
X9472Y12906
X9472Y11724
X9472Y10543
X9472Y9362
X9472Y8181
X9472Y7000
M30
