G04 #@! TF.GenerationSoftware,KiCad,Pcbnew,8.0.9-8.0.9-0~ubuntu24.04.1*
G04 #@! TF.CreationDate,2025-05-16T10:47:51+00:00*
G04 #@! TF.ProjectId,EP91Starlet,45503931-5374-4617-926c-65742e6b6963,rev?*
G04 #@! TF.SameCoordinates,Original*
G04 #@! TF.FileFunction,Legend,Top*
G04 #@! TF.FilePolarity,Positive*
%FSLAX46Y46*%
G04 Gerber Fmt 4.6, Leading zero omitted, Abs format (unit mm)*
G04 Created by KiCad (PCBNEW 8.0.9-8.0.9-0~ubuntu24.04.1) date 2025-05-16 10:47:51*
%MOMM*%
%LPD*%
G01*
G04 APERTURE LIST*
%ADD10C,0.150000*%
%ADD11C,0.200000*%
G04 APERTURE END LIST*
D10*
X33899426Y52038259D02*
X34499426Y52038259D01*
X34499426Y52038259D02*
X34070855Y51838259D01*
X34070855Y51838259D02*
X34499426Y51638259D01*
X34499426Y51638259D02*
X33899426Y51638259D01*
X34299426Y51095402D02*
X33899426Y51095402D01*
X34527998Y51238260D02*
X34099426Y51381117D01*
X34099426Y51381117D02*
X34099426Y51009688D01*
D11*
G04 #@! TO.C,M3*
X23380001Y68530000D02*
X23380001Y53530000D01*
X23380001Y68530000D02*
X24680001Y68530000D01*
X23380001Y53530000D02*
X28480001Y53530000D01*
X32980001Y68530000D02*
X26580001Y68530000D01*
X32980001Y54130000D02*
X32980001Y68530000D01*
G04 #@! TO.C,M4*
X29879998Y52080000D02*
X29879998Y42980000D01*
X29879998Y52080000D02*
X30880000Y52080000D01*
X32980001Y52080000D02*
X32980001Y42980000D01*
G04 #@! TO.C,M1*
X49339997Y69479995D02*
X90140000Y69479995D01*
X49339997Y29579996D02*
X49339997Y69479995D01*
X49339997Y29579996D02*
X91439997Y29579996D01*
X90140000Y69479995D02*
X91440000Y69479995D01*
X91439997Y29579996D02*
X91440000Y69479995D01*
G04 #@! TO.C,M2*
X48330001Y41030000D02*
X34430001Y41030000D01*
X34430001Y68530000D01*
X48330001Y68530000D01*
X48330001Y41030000D01*
G04 #@! TD*
M02*
