G04 #@! TF.GenerationSoftware,KiCad,Pcbnew,8.0.9-8.0.9-0~ubuntu24.04.1*
G04 #@! TF.CreationDate,2025-05-19T08:55:07+00:00*
G04 #@! TF.ProjectId,EP91Starlet,45503931-5374-4617-926c-65742e6b6963,rev?*
G04 #@! TF.SameCoordinates,Original*
G04 #@! TF.FileFunction,Legend,Top*
G04 #@! TF.FilePolarity,Positive*
%FSLAX46Y46*%
G04 Gerber Fmt 4.6, Leading zero omitted, Abs format (unit mm)*
G04 Created by KiCad (PCBNEW 8.0.9-8.0.9-0~ubuntu24.04.1) date 2025-05-19 08:55:07*
%MOMM*%
%LPD*%
G01*
G04 APERTURE LIST*
%ADD10C,0.150000*%
%ADD11C,0.200000*%
%ADD12C,0.120000*%
%ADD13C,0.100000*%
G04 APERTURE END LIST*
D10*
X40849428Y68262259D02*
X41449428Y68262259D01*
X41449428Y68262259D02*
X41020857Y68062259D01*
X41020857Y68062259D02*
X41449428Y67862259D01*
X41449428Y67862259D02*
X40849428Y67862259D01*
X41249428Y67319402D02*
X40849428Y67319402D01*
X41478000Y67462260D02*
X41049428Y67605117D01*
X41049428Y67605117D02*
X41049428Y67233688D01*
X21046095Y85725181D02*
X21046095Y84915658D01*
X21046095Y84915658D02*
X21093714Y84820420D01*
X21093714Y84820420D02*
X21141333Y84772800D01*
X21141333Y84772800D02*
X21236571Y84725181D01*
X21236571Y84725181D02*
X21427047Y84725181D01*
X21427047Y84725181D02*
X21522285Y84772800D01*
X21522285Y84772800D02*
X21569904Y84820420D01*
X21569904Y84820420D02*
X21617523Y84915658D01*
X21617523Y84915658D02*
X21617523Y85725181D01*
X22617523Y84725181D02*
X22046095Y84725181D01*
X22331809Y84725181D02*
X22331809Y85725181D01*
X22331809Y85725181D02*
X22236571Y85582324D01*
X22236571Y85582324D02*
X22141333Y85487086D01*
X22141333Y85487086D02*
X22046095Y85439467D01*
D11*
G04 #@! TO.C,M3*
X41046000Y74372500D02*
X41046000Y59372500D01*
X41046000Y74372500D02*
X42346000Y74372500D01*
X41046000Y59372500D02*
X46146000Y59372500D01*
X50646000Y74372500D02*
X44246000Y74372500D01*
X50646000Y59972500D02*
X50646000Y74372500D01*
G04 #@! TO.C,M4*
X36830000Y68304000D02*
X36830000Y59204000D01*
X36830000Y68304000D02*
X37830002Y68304000D01*
X39930003Y68304000D02*
X39930003Y59204000D01*
D12*
G04 #@! TO.C,U1*
X18058000Y16380000D02*
X25557999Y16380000D01*
X18058001Y84180000D02*
X18058000Y16380000D01*
X20558001Y84180000D02*
X18058001Y84180000D01*
D13*
X25557999Y16380000D02*
X25558000Y84180000D01*
D12*
X25558000Y84180000D02*
X20558001Y84180000D01*
D11*
X31508000Y83180000D02*
G75*
G02*
X28008000Y83180000I-1750000J0D01*
G01*
X28008000Y83180000D02*
G75*
G02*
X31508000Y83180000I1750000J0D01*
G01*
X31508000Y58930000D02*
G75*
G02*
X28008000Y58930000I-1750000J0D01*
G01*
X28008000Y58930000D02*
G75*
G02*
X31508000Y58930000I1750000J0D01*
G01*
X31508000Y17480000D02*
G75*
G02*
X28008000Y17480000I-1750000J0D01*
G01*
X28008000Y17480000D02*
G75*
G02*
X31508000Y17480000I1750000J0D01*
G01*
G04 #@! TO.C,M1*
X60462000Y68164001D02*
X101262003Y68164001D01*
X60462000Y28264002D02*
X60462000Y68164001D01*
X60462000Y28264002D02*
X102562000Y28264002D01*
X101262003Y68164001D02*
X102562003Y68164001D01*
X102562000Y28264002D02*
X102562003Y68164001D01*
G04 #@! TO.C,M2*
X52337000Y24563000D02*
X38437000Y24563000D01*
X38437000Y52063000D01*
X52337000Y52063000D01*
X52337000Y24563000D01*
G04 #@! TD*
M02*
