G04 #@! TF.GenerationSoftware,KiCad,Pcbnew,8.0.9-8.0.9-0~ubuntu24.04.1*
G04 #@! TF.CreationDate,2026-03-20T10:57:59+00:00*
G04 #@! TF.ProjectId,EP91Starlet,45503931-5374-4617-926c-65742e6b6963,rev?*
G04 #@! TF.SameCoordinates,Original*
G04 #@! TF.FileFunction,Soldermask,Top*
G04 #@! TF.FilePolarity,Negative*
%FSLAX46Y46*%
G04 Gerber Fmt 4.6, Leading zero omitted, Abs format (unit mm)*
G04 Created by KiCad (PCBNEW 8.0.9-8.0.9-0~ubuntu24.04.1) date 2026-03-20 10:57:59*
%MOMM*%
%LPD*%
G01*
G04 APERTURE LIST*
%ADD10R,1.650000X1.650000*%
%ADD11C,1.650000*%
%ADD12C,5.250000*%
%ADD13R,1.700000X1.700000*%
%ADD14O,1.700000X1.700000*%
%ADD15C,0.600000*%
%ADD16C,1.500000*%
G04 APERTURE END LIST*
D10*
G04 #@! TO.C,J1*
X-6168944Y109252000D03*
D11*
X-3168944Y109252000D03*
X-168944Y109252000D03*
X2831056Y109252000D03*
X5831056Y109252000D03*
X8831056Y109252000D03*
X11831056Y109252000D03*
X14831056Y109252000D03*
X-6168944Y113752000D03*
X-3168944Y113752000D03*
X-168944Y113752000D03*
X2831056Y113752000D03*
X5831056Y113752000D03*
X8831056Y113752000D03*
X11831056Y113752000D03*
X14831056Y113752000D03*
X20831056Y109252000D03*
X24281056Y109252000D03*
X27381056Y109252000D03*
X30381056Y109252000D03*
X33381056Y109252000D03*
X36381056Y109252000D03*
X39381056Y109252000D03*
X42381056Y109252000D03*
X45381056Y109252000D03*
X48381056Y109252000D03*
X51481056Y109252000D03*
X54981056Y109252000D03*
X58481056Y109252000D03*
X20781056Y113752000D03*
X24281056Y113752000D03*
X27381056Y113752000D03*
X30381056Y113752000D03*
X33381056Y113752000D03*
X36381056Y113752000D03*
X39381056Y113752000D03*
X42381056Y113752000D03*
X45381056Y113752000D03*
X48381056Y113752000D03*
X51481056Y113752000D03*
X54981056Y113752000D03*
X58481056Y113752000D03*
D12*
X-6568944Y119452000D03*
X17681056Y119452000D03*
X59131056Y119452000D03*
G04 #@! TD*
D13*
G04 #@! TO.C,J2*
X41691056Y31252000D03*
D14*
X41691056Y28712000D03*
X39151056Y31252000D03*
X39151056Y28712000D03*
X36611056Y31252000D03*
X36611056Y28712000D03*
X34071056Y31252000D03*
X34071056Y28712000D03*
X31531056Y31252000D03*
X31531056Y28712000D03*
X28991056Y31252000D03*
X28991056Y28712000D03*
X26451056Y31252000D03*
X26451056Y28712000D03*
X23911056Y31252000D03*
X23911056Y28712000D03*
X21371056Y31252000D03*
X21371056Y28712000D03*
X18831056Y31252000D03*
X18831056Y28712000D03*
X16291056Y31252000D03*
X16291056Y28712000D03*
X13751056Y31252000D03*
X13751056Y28712000D03*
X11211056Y31252000D03*
X11211056Y28712000D03*
X8671056Y31252000D03*
X8671056Y28712000D03*
X6131056Y31252000D03*
X6131056Y28712000D03*
G04 #@! TD*
D15*
G04 #@! TO.C,M2*
X54981060Y96252002D03*
X54981060Y95052002D03*
X54981060Y97452002D03*
X54981060Y98652002D03*
X40556060Y92192002D03*
X40556060Y91192002D03*
G04 #@! TD*
D16*
G04 #@! TO.C,M4*
X41831056Y56602000D03*
X41831056Y50202003D03*
X41831056Y48302000D03*
X41831056Y44002000D03*
D15*
X42281055Y41602003D03*
X42281055Y40602002D03*
D16*
X41831056Y37752000D03*
X26331059Y57052002D03*
X26331059Y55202003D03*
X26331059Y50252000D03*
X26331059Y38202002D03*
G04 #@! TD*
D15*
G04 #@! TO.C,M3*
X54981060Y85202002D03*
X54981060Y84002002D03*
X54981060Y86402002D03*
X54981060Y87602002D03*
X40556060Y81142002D03*
X40556060Y80142002D03*
G04 #@! TD*
M02*
