M48
; DRILL file {KiCad 8.0.9-8.0.9-0~ubuntu24.04.1} date 2026-03-14T11:53:20+0000
; FORMAT={2:4/ absolute / inch / suppress leading zeros}
; #@! TF.CreationDate,2026-03-14T11:53:20+00:00
; #@! TF.GenerationSoftware,Kicad,Pcbnew,8.0.9-8.0.9-0~ubuntu24.04.1
; #@! TF.FileFunction,MixedPlating,1,4
FMAT,2
INCH,TZ
; #@! TA.AperFunction,Plated,PTH,ComponentDrill
T1C0.0433
; #@! TA.AperFunction,Plated,PTH,ComponentDrill
T2C0.1378
%
G90
G05
T1
X-4318Y49036
X-4318Y47265
X-3137Y49036
X-3137Y47265
X-1956Y49036
X-1956Y47265
X-775Y49036
X-775Y47265
X406Y49036
X406Y47265
X1587Y49036
X1587Y47265
X2768Y49036
X2768Y47265
X3949Y49036
X3949Y47265
X6292Y49036
X6311Y47265
X7670Y49036
X7670Y47265
X8890Y49036
X8890Y47265
X10071Y49036
X10071Y47265
X11252Y49036
X11252Y47265
X12433Y49036
X12433Y47265
X13615Y49036
X13615Y47265
X14796Y49036
X14796Y47265
X15977Y49036
X15977Y47265
X17158Y49036
X17158Y47265
X18378Y49036
X18378Y47265
X19756Y49036
X19756Y47265
X21134Y49036
X21134Y47265
T2
X-4476Y51280
X5071Y51280
X21390Y51280
M30
