G04 #@! TF.GenerationSoftware,KiCad,Pcbnew,8.0.9-8.0.9-0~ubuntu24.04.1*
G04 #@! TF.CreationDate,2026-04-02T04:25:01+00:00*
G04 #@! TF.ProjectId,EP91Starlet,45503931-5374-4617-926c-65742e6b6963,rev?*
G04 #@! TF.SameCoordinates,Original*
G04 #@! TF.FileFunction,Soldermask,Top*
G04 #@! TF.FilePolarity,Negative*
%FSLAX46Y46*%
G04 Gerber Fmt 4.6, Leading zero omitted, Abs format (unit mm)*
G04 Created by KiCad (PCBNEW 8.0.9-8.0.9-0~ubuntu24.04.1) date 2026-04-02 04:25:01*
%MOMM*%
%LPD*%
G01*
G04 APERTURE LIST*
%ADD10C,0.600000*%
%ADD11R,1.700000X1.700000*%
%ADD12O,1.700000X1.700000*%
%ADD13C,1.500000*%
%ADD14R,4.399991X2.299995*%
%ADD15R,3.999992X2.299995*%
%ADD16R,0.650000X2.000000*%
%ADD17R,8.100000X4.500000*%
%ADD18C,1.700000*%
%ADD19C,3.500000*%
%ADD20O,3.300000X2.700000*%
%ADD21C,1.000000*%
%ADD22R,1.650000X1.650000*%
%ADD23C,1.650000*%
%ADD24C,5.250000*%
%ADD25O,2.700000X3.300000*%
%ADD26O,0.499999X0.250000*%
%ADD27O,0.250000X0.499999*%
%ADD28C,0.599999*%
G04 APERTURE END LIST*
D10*
G04 #@! TO.C,M6*
X-55475000Y42674997D03*
X-55475000Y41724997D03*
X-55475000Y40774999D03*
X-64175000Y41774997D03*
X-64175000Y42674997D03*
G04 #@! TD*
G04 #@! TO.C,D9*
G36*
G01*
X-60305000Y74975000D02*
X-60305000Y75725000D01*
G75*
G02*
X-60080000Y75950000I225000J0D01*
G01*
X-59630000Y75950000D01*
G75*
G02*
X-59405000Y75725000I0J-225000D01*
G01*
X-59405000Y74975000D01*
G75*
G02*
X-59630000Y74750000I-225000J0D01*
G01*
X-60080000Y74750000D01*
G75*
G02*
X-60305000Y74975000I0J225000D01*
G01*
G37*
G36*
G01*
X-57005000Y74975000D02*
X-57005000Y75725000D01*
G75*
G02*
X-56780000Y75950000I225000J0D01*
G01*
X-56330000Y75950000D01*
G75*
G02*
X-56105000Y75725000I0J-225000D01*
G01*
X-56105000Y74975000D01*
G75*
G02*
X-56330000Y74750000I-225000J0D01*
G01*
X-56780000Y74750000D01*
G75*
G02*
X-57005000Y74975000I0J225000D01*
G01*
G37*
G04 #@! TD*
D11*
G04 #@! TO.C,J3*
X88850000Y28300000D03*
D12*
X88850000Y25760000D03*
G04 #@! TD*
G04 #@! TO.C,U3*
G36*
G01*
X22991500Y70463000D02*
X22388500Y70463000D01*
G75*
G02*
X22288000Y70563500I0J100500D01*
G01*
X22288000Y72536500D01*
G75*
G02*
X22388500Y72637000I100500J0D01*
G01*
X22991500Y72637000D01*
G75*
G02*
X23092000Y72536500I0J-100500D01*
G01*
X23092000Y70563500D01*
G75*
G02*
X22991500Y70463000I-100500J0D01*
G01*
G37*
G36*
G01*
X24261500Y70463000D02*
X23658500Y70463000D01*
G75*
G02*
X23558000Y70563500I0J100500D01*
G01*
X23558000Y72536500D01*
G75*
G02*
X23658500Y72637000I100500J0D01*
G01*
X24261500Y72637000D01*
G75*
G02*
X24362000Y72536500I0J-100500D01*
G01*
X24362000Y70563500D01*
G75*
G02*
X24261500Y70463000I-100500J0D01*
G01*
G37*
G36*
G01*
X25531500Y70463000D02*
X24928500Y70463000D01*
G75*
G02*
X24828000Y70563500I0J100500D01*
G01*
X24828000Y72536500D01*
G75*
G02*
X24928500Y72637000I100500J0D01*
G01*
X25531500Y72637000D01*
G75*
G02*
X25632000Y72536500I0J-100500D01*
G01*
X25632000Y70563500D01*
G75*
G02*
X25531500Y70463000I-100500J0D01*
G01*
G37*
G36*
G01*
X26801500Y70463000D02*
X26198500Y70463000D01*
G75*
G02*
X26098000Y70563500I0J100500D01*
G01*
X26098000Y72536500D01*
G75*
G02*
X26198500Y72637000I100500J0D01*
G01*
X26801500Y72637000D01*
G75*
G02*
X26902000Y72536500I0J-100500D01*
G01*
X26902000Y70563500D01*
G75*
G02*
X26801500Y70463000I-100500J0D01*
G01*
G37*
G36*
G01*
X26801500Y75413000D02*
X26198500Y75413000D01*
G75*
G02*
X26098000Y75513500I0J100500D01*
G01*
X26098000Y77486500D01*
G75*
G02*
X26198500Y77587000I100500J0D01*
G01*
X26801500Y77587000D01*
G75*
G02*
X26902000Y77486500I0J-100500D01*
G01*
X26902000Y75513500D01*
G75*
G02*
X26801500Y75413000I-100500J0D01*
G01*
G37*
G36*
G01*
X25531500Y75413000D02*
X24928500Y75413000D01*
G75*
G02*
X24828000Y75513500I0J100500D01*
G01*
X24828000Y77486500D01*
G75*
G02*
X24928500Y77587000I100500J0D01*
G01*
X25531500Y77587000D01*
G75*
G02*
X25632000Y77486500I0J-100500D01*
G01*
X25632000Y75513500D01*
G75*
G02*
X25531500Y75413000I-100500J0D01*
G01*
G37*
G36*
G01*
X24261500Y75413000D02*
X23658500Y75413000D01*
G75*
G02*
X23558000Y75513500I0J100500D01*
G01*
X23558000Y77486500D01*
G75*
G02*
X23658500Y77587000I100500J0D01*
G01*
X24261500Y77587000D01*
G75*
G02*
X24362000Y77486500I0J-100500D01*
G01*
X24362000Y75513500D01*
G75*
G02*
X24261500Y75413000I-100500J0D01*
G01*
G37*
G36*
G01*
X22991500Y75413000D02*
X22388500Y75413000D01*
G75*
G02*
X22288000Y75513500I0J100500D01*
G01*
X22288000Y77486500D01*
G75*
G02*
X22388500Y77587000I100500J0D01*
G01*
X22991500Y77587000D01*
G75*
G02*
X23092000Y77486500I0J-100500D01*
G01*
X23092000Y75513500D01*
G75*
G02*
X22991500Y75413000I-100500J0D01*
G01*
G37*
G04 #@! TD*
G04 #@! TO.C,U1*
G36*
G01*
X113463000Y96508500D02*
X113463000Y97111500D01*
G75*
G02*
X113563500Y97212000I100500J0D01*
G01*
X115536500Y97212000D01*
G75*
G02*
X115637000Y97111500I0J-100500D01*
G01*
X115637000Y96508500D01*
G75*
G02*
X115536500Y96408000I-100500J0D01*
G01*
X113563500Y96408000D01*
G75*
G02*
X113463000Y96508500I0J100500D01*
G01*
G37*
G36*
G01*
X113463000Y95238500D02*
X113463000Y95841500D01*
G75*
G02*
X113563500Y95942000I100500J0D01*
G01*
X115536500Y95942000D01*
G75*
G02*
X115637000Y95841500I0J-100500D01*
G01*
X115637000Y95238500D01*
G75*
G02*
X115536500Y95138000I-100500J0D01*
G01*
X113563500Y95138000D01*
G75*
G02*
X113463000Y95238500I0J100500D01*
G01*
G37*
G36*
G01*
X113463000Y93968500D02*
X113463000Y94571500D01*
G75*
G02*
X113563500Y94672000I100500J0D01*
G01*
X115536500Y94672000D01*
G75*
G02*
X115637000Y94571500I0J-100500D01*
G01*
X115637000Y93968500D01*
G75*
G02*
X115536500Y93868000I-100500J0D01*
G01*
X113563500Y93868000D01*
G75*
G02*
X113463000Y93968500I0J100500D01*
G01*
G37*
G36*
G01*
X113463000Y92698500D02*
X113463000Y93301500D01*
G75*
G02*
X113563500Y93402000I100500J0D01*
G01*
X115536500Y93402000D01*
G75*
G02*
X115637000Y93301500I0J-100500D01*
G01*
X115637000Y92698500D01*
G75*
G02*
X115536500Y92598000I-100500J0D01*
G01*
X113563500Y92598000D01*
G75*
G02*
X113463000Y92698500I0J100500D01*
G01*
G37*
G36*
G01*
X118413000Y92698500D02*
X118413000Y93301500D01*
G75*
G02*
X118513500Y93402000I100500J0D01*
G01*
X120486500Y93402000D01*
G75*
G02*
X120587000Y93301500I0J-100500D01*
G01*
X120587000Y92698500D01*
G75*
G02*
X120486500Y92598000I-100500J0D01*
G01*
X118513500Y92598000D01*
G75*
G02*
X118413000Y92698500I0J100500D01*
G01*
G37*
G36*
G01*
X118413000Y93968500D02*
X118413000Y94571500D01*
G75*
G02*
X118513500Y94672000I100500J0D01*
G01*
X120486500Y94672000D01*
G75*
G02*
X120587000Y94571500I0J-100500D01*
G01*
X120587000Y93968500D01*
G75*
G02*
X120486500Y93868000I-100500J0D01*
G01*
X118513500Y93868000D01*
G75*
G02*
X118413000Y93968500I0J100500D01*
G01*
G37*
G36*
G01*
X118413000Y95238500D02*
X118413000Y95841500D01*
G75*
G02*
X118513500Y95942000I100500J0D01*
G01*
X120486500Y95942000D01*
G75*
G02*
X120587000Y95841500I0J-100500D01*
G01*
X120587000Y95238500D01*
G75*
G02*
X120486500Y95138000I-100500J0D01*
G01*
X118513500Y95138000D01*
G75*
G02*
X118413000Y95238500I0J100500D01*
G01*
G37*
G36*
G01*
X118413000Y96508500D02*
X118413000Y97111500D01*
G75*
G02*
X118513500Y97212000I100500J0D01*
G01*
X120486500Y97212000D01*
G75*
G02*
X120587000Y97111500I0J-100500D01*
G01*
X120587000Y96508500D01*
G75*
G02*
X120486500Y96408000I-100500J0D01*
G01*
X118513500Y96408000D01*
G75*
G02*
X118413000Y96508500I0J100500D01*
G01*
G37*
G04 #@! TD*
G04 #@! TO.C,R14*
G36*
G01*
X-48840000Y71225000D02*
X-48840000Y71595000D01*
G75*
G02*
X-48705000Y71730000I135000J0D01*
G01*
X-48435000Y71730000D01*
G75*
G02*
X-48300000Y71595000I0J-135000D01*
G01*
X-48300000Y71225000D01*
G75*
G02*
X-48435000Y71090000I-135000J0D01*
G01*
X-48705000Y71090000D01*
G75*
G02*
X-48840000Y71225000I0J135000D01*
G01*
G37*
G36*
G01*
X-47820000Y71225000D02*
X-47820000Y71595000D01*
G75*
G02*
X-47685000Y71730000I135000J0D01*
G01*
X-47415000Y71730000D01*
G75*
G02*
X-47280000Y71595000I0J-135000D01*
G01*
X-47280000Y71225000D01*
G75*
G02*
X-47415000Y71090000I-135000J0D01*
G01*
X-47685000Y71090000D01*
G75*
G02*
X-47820000Y71225000I0J135000D01*
G01*
G37*
G04 #@! TD*
G04 #@! TO.C,L1*
G36*
G01*
X76405000Y22533750D02*
X76405000Y23046250D01*
G75*
G02*
X76623750Y23265000I218750J0D01*
G01*
X77061250Y23265000D01*
G75*
G02*
X77280000Y23046250I0J-218750D01*
G01*
X77280000Y22533750D01*
G75*
G02*
X77061250Y22315000I-218750J0D01*
G01*
X76623750Y22315000D01*
G75*
G02*
X76405000Y22533750I0J218750D01*
G01*
G37*
G36*
G01*
X77980000Y22533750D02*
X77980000Y23046250D01*
G75*
G02*
X78198750Y23265000I218750J0D01*
G01*
X78636250Y23265000D01*
G75*
G02*
X78855000Y23046250I0J-218750D01*
G01*
X78855000Y22533750D01*
G75*
G02*
X78636250Y22315000I-218750J0D01*
G01*
X78198750Y22315000D01*
G75*
G02*
X77980000Y22533750I0J218750D01*
G01*
G37*
G04 #@! TD*
G04 #@! TO.C,C13*
G36*
G01*
X107480000Y32770000D02*
X107480000Y33270000D01*
G75*
G02*
X107705000Y33495000I225000J0D01*
G01*
X108155000Y33495000D01*
G75*
G02*
X108380000Y33270000I0J-225000D01*
G01*
X108380000Y32770000D01*
G75*
G02*
X108155000Y32545000I-225000J0D01*
G01*
X107705000Y32545000D01*
G75*
G02*
X107480000Y32770000I0J225000D01*
G01*
G37*
G36*
G01*
X109030000Y32770000D02*
X109030000Y33270000D01*
G75*
G02*
X109255000Y33495000I225000J0D01*
G01*
X109705000Y33495000D01*
G75*
G02*
X109930000Y33270000I0J-225000D01*
G01*
X109930000Y32770000D01*
G75*
G02*
X109705000Y32545000I-225000J0D01*
G01*
X109255000Y32545000D01*
G75*
G02*
X109030000Y32770000I0J225000D01*
G01*
G37*
G04 #@! TD*
G04 #@! TO.C,U6*
G36*
G01*
X112963000Y78508500D02*
X112963000Y79111500D01*
G75*
G02*
X113063500Y79212000I100500J0D01*
G01*
X115036500Y79212000D01*
G75*
G02*
X115137000Y79111500I0J-100500D01*
G01*
X115137000Y78508500D01*
G75*
G02*
X115036500Y78408000I-100500J0D01*
G01*
X113063500Y78408000D01*
G75*
G02*
X112963000Y78508500I0J100500D01*
G01*
G37*
G36*
G01*
X112963000Y77238500D02*
X112963000Y77841500D01*
G75*
G02*
X113063500Y77942000I100500J0D01*
G01*
X115036500Y77942000D01*
G75*
G02*
X115137000Y77841500I0J-100500D01*
G01*
X115137000Y77238500D01*
G75*
G02*
X115036500Y77138000I-100500J0D01*
G01*
X113063500Y77138000D01*
G75*
G02*
X112963000Y77238500I0J100500D01*
G01*
G37*
G36*
G01*
X112963000Y75968500D02*
X112963000Y76571500D01*
G75*
G02*
X113063500Y76672000I100500J0D01*
G01*
X115036500Y76672000D01*
G75*
G02*
X115137000Y76571500I0J-100500D01*
G01*
X115137000Y75968500D01*
G75*
G02*
X115036500Y75868000I-100500J0D01*
G01*
X113063500Y75868000D01*
G75*
G02*
X112963000Y75968500I0J100500D01*
G01*
G37*
G36*
G01*
X112963000Y74698500D02*
X112963000Y75301500D01*
G75*
G02*
X113063500Y75402000I100500J0D01*
G01*
X115036500Y75402000D01*
G75*
G02*
X115137000Y75301500I0J-100500D01*
G01*
X115137000Y74698500D01*
G75*
G02*
X115036500Y74598000I-100500J0D01*
G01*
X113063500Y74598000D01*
G75*
G02*
X112963000Y74698500I0J100500D01*
G01*
G37*
G36*
G01*
X117913000Y74698500D02*
X117913000Y75301500D01*
G75*
G02*
X118013500Y75402000I100500J0D01*
G01*
X119986500Y75402000D01*
G75*
G02*
X120087000Y75301500I0J-100500D01*
G01*
X120087000Y74698500D01*
G75*
G02*
X119986500Y74598000I-100500J0D01*
G01*
X118013500Y74598000D01*
G75*
G02*
X117913000Y74698500I0J100500D01*
G01*
G37*
G36*
G01*
X117913000Y75968500D02*
X117913000Y76571500D01*
G75*
G02*
X118013500Y76672000I100500J0D01*
G01*
X119986500Y76672000D01*
G75*
G02*
X120087000Y76571500I0J-100500D01*
G01*
X120087000Y75968500D01*
G75*
G02*
X119986500Y75868000I-100500J0D01*
G01*
X118013500Y75868000D01*
G75*
G02*
X117913000Y75968500I0J100500D01*
G01*
G37*
G36*
G01*
X117913000Y77238500D02*
X117913000Y77841500D01*
G75*
G02*
X118013500Y77942000I100500J0D01*
G01*
X119986500Y77942000D01*
G75*
G02*
X120087000Y77841500I0J-100500D01*
G01*
X120087000Y77238500D01*
G75*
G02*
X119986500Y77138000I-100500J0D01*
G01*
X118013500Y77138000D01*
G75*
G02*
X117913000Y77238500I0J100500D01*
G01*
G37*
G36*
G01*
X117913000Y78508500D02*
X117913000Y79111500D01*
G75*
G02*
X118013500Y79212000I100500J0D01*
G01*
X119986500Y79212000D01*
G75*
G02*
X120087000Y79111500I0J-100500D01*
G01*
X120087000Y78508500D01*
G75*
G02*
X119986500Y78408000I-100500J0D01*
G01*
X118013500Y78408000D01*
G75*
G02*
X117913000Y78508500I0J100500D01*
G01*
G37*
G04 #@! TD*
D10*
G04 #@! TO.C,M2*
X58125000Y63675000D03*
X56925000Y63675000D03*
X59325000Y63675000D03*
X60525000Y63675000D03*
X54065000Y78100000D03*
X53065000Y78100000D03*
G04 #@! TD*
G04 #@! TO.C,C16*
G36*
G01*
X111490000Y37790000D02*
X111490000Y38290000D01*
G75*
G02*
X111715000Y38515000I225000J0D01*
G01*
X112165000Y38515000D01*
G75*
G02*
X112390000Y38290000I0J-225000D01*
G01*
X112390000Y37790000D01*
G75*
G02*
X112165000Y37565000I-225000J0D01*
G01*
X111715000Y37565000D01*
G75*
G02*
X111490000Y37790000I0J225000D01*
G01*
G37*
G36*
G01*
X113040000Y37790000D02*
X113040000Y38290000D01*
G75*
G02*
X113265000Y38515000I225000J0D01*
G01*
X113715000Y38515000D01*
G75*
G02*
X113940000Y38290000I0J-225000D01*
G01*
X113940000Y37790000D01*
G75*
G02*
X113715000Y37565000I-225000J0D01*
G01*
X113265000Y37565000D01*
G75*
G02*
X113040000Y37790000I0J225000D01*
G01*
G37*
G04 #@! TD*
G04 #@! TO.C,D3*
G36*
G01*
X-60305000Y91725000D02*
X-60305000Y92475000D01*
G75*
G02*
X-60080000Y92700000I225000J0D01*
G01*
X-59630000Y92700000D01*
G75*
G02*
X-59405000Y92475000I0J-225000D01*
G01*
X-59405000Y91725000D01*
G75*
G02*
X-59630000Y91500000I-225000J0D01*
G01*
X-60080000Y91500000D01*
G75*
G02*
X-60305000Y91725000I0J225000D01*
G01*
G37*
G36*
G01*
X-57005000Y91725000D02*
X-57005000Y92475000D01*
G75*
G02*
X-56780000Y92700000I225000J0D01*
G01*
X-56330000Y92700000D01*
G75*
G02*
X-56105000Y92475000I0J-225000D01*
G01*
X-56105000Y91725000D01*
G75*
G02*
X-56330000Y91500000I-225000J0D01*
G01*
X-56780000Y91500000D01*
G75*
G02*
X-57005000Y91725000I0J225000D01*
G01*
G37*
G04 #@! TD*
G04 #@! TO.C,F1*
G36*
G01*
X87300000Y21155001D02*
X87300000Y22404999D01*
G75*
G02*
X87550001Y22655000I250001J0D01*
G01*
X88474999Y22655000D01*
G75*
G02*
X88725000Y22404999I0J-250001D01*
G01*
X88725000Y21155001D01*
G75*
G02*
X88474999Y20905000I-250001J0D01*
G01*
X87550001Y20905000D01*
G75*
G02*
X87300000Y21155001I0J250001D01*
G01*
G37*
G36*
G01*
X90275000Y21155001D02*
X90275000Y22404999D01*
G75*
G02*
X90525001Y22655000I250001J0D01*
G01*
X91449999Y22655000D01*
G75*
G02*
X91700000Y22404999I0J-250001D01*
G01*
X91700000Y21155001D01*
G75*
G02*
X91449999Y20905000I-250001J0D01*
G01*
X90525001Y20905000D01*
G75*
G02*
X90275000Y21155001I0J250001D01*
G01*
G37*
G04 #@! TD*
G04 #@! TO.C,R2*
G36*
G01*
X-54660000Y75205000D02*
X-54660000Y75575000D01*
G75*
G02*
X-54525000Y75710000I135000J0D01*
G01*
X-54255000Y75710000D01*
G75*
G02*
X-54120000Y75575000I0J-135000D01*
G01*
X-54120000Y75205000D01*
G75*
G02*
X-54255000Y75070000I-135000J0D01*
G01*
X-54525000Y75070000D01*
G75*
G02*
X-54660000Y75205000I0J135000D01*
G01*
G37*
G36*
G01*
X-53640000Y75205000D02*
X-53640000Y75575000D01*
G75*
G02*
X-53505000Y75710000I135000J0D01*
G01*
X-53235000Y75710000D01*
G75*
G02*
X-53100000Y75575000I0J-135000D01*
G01*
X-53100000Y75205000D01*
G75*
G02*
X-53235000Y75070000I-135000J0D01*
G01*
X-53505000Y75070000D01*
G75*
G02*
X-53640000Y75205000I0J135000D01*
G01*
G37*
G04 #@! TD*
G04 #@! TO.C,C5*
G36*
G01*
X117500000Y27750000D02*
X117500000Y28250000D01*
G75*
G02*
X117725000Y28475000I225000J0D01*
G01*
X118175000Y28475000D01*
G75*
G02*
X118400000Y28250000I0J-225000D01*
G01*
X118400000Y27750000D01*
G75*
G02*
X118175000Y27525000I-225000J0D01*
G01*
X117725000Y27525000D01*
G75*
G02*
X117500000Y27750000I0J225000D01*
G01*
G37*
G36*
G01*
X119050000Y27750000D02*
X119050000Y28250000D01*
G75*
G02*
X119275000Y28475000I225000J0D01*
G01*
X119725000Y28475000D01*
G75*
G02*
X119950000Y28250000I0J-225000D01*
G01*
X119950000Y27750000D01*
G75*
G02*
X119725000Y27525000I-225000J0D01*
G01*
X119275000Y27525000D01*
G75*
G02*
X119050000Y27750000I0J225000D01*
G01*
G37*
G04 #@! TD*
G04 #@! TO.C,D1*
G36*
G01*
X-60305000Y98425000D02*
X-60305000Y99175000D01*
G75*
G02*
X-60080000Y99400000I225000J0D01*
G01*
X-59630000Y99400000D01*
G75*
G02*
X-59405000Y99175000I0J-225000D01*
G01*
X-59405000Y98425000D01*
G75*
G02*
X-59630000Y98200000I-225000J0D01*
G01*
X-60080000Y98200000D01*
G75*
G02*
X-60305000Y98425000I0J225000D01*
G01*
G37*
G36*
G01*
X-57005000Y98425000D02*
X-57005000Y99175000D01*
G75*
G02*
X-56780000Y99400000I225000J0D01*
G01*
X-56330000Y99400000D01*
G75*
G02*
X-56105000Y99175000I0J-225000D01*
G01*
X-56105000Y98425000D01*
G75*
G02*
X-56330000Y98200000I-225000J0D01*
G01*
X-56780000Y98200000D01*
G75*
G02*
X-57005000Y98425000I0J225000D01*
G01*
G37*
G04 #@! TD*
D13*
G04 #@! TO.C,BT1*
X-79624911Y51304737D03*
X-72125053Y51304737D03*
D14*
X-83725005Y51304737D03*
D15*
X-67724986Y51304737D03*
G04 #@! TD*
G04 #@! TO.C,C17*
G36*
G01*
X111490000Y35280000D02*
X111490000Y35780000D01*
G75*
G02*
X111715000Y36005000I225000J0D01*
G01*
X112165000Y36005000D01*
G75*
G02*
X112390000Y35780000I0J-225000D01*
G01*
X112390000Y35280000D01*
G75*
G02*
X112165000Y35055000I-225000J0D01*
G01*
X111715000Y35055000D01*
G75*
G02*
X111490000Y35280000I0J225000D01*
G01*
G37*
G36*
G01*
X113040000Y35280000D02*
X113040000Y35780000D01*
G75*
G02*
X113265000Y36005000I225000J0D01*
G01*
X113715000Y36005000D01*
G75*
G02*
X113940000Y35780000I0J-225000D01*
G01*
X113940000Y35280000D01*
G75*
G02*
X113715000Y35055000I-225000J0D01*
G01*
X113265000Y35055000D01*
G75*
G02*
X113040000Y35280000I0J225000D01*
G01*
G37*
G04 #@! TD*
G04 #@! TO.C,R1*
G36*
G01*
X-54660000Y77195000D02*
X-54660000Y77565000D01*
G75*
G02*
X-54525000Y77700000I135000J0D01*
G01*
X-54255000Y77700000D01*
G75*
G02*
X-54120000Y77565000I0J-135000D01*
G01*
X-54120000Y77195000D01*
G75*
G02*
X-54255000Y77060000I-135000J0D01*
G01*
X-54525000Y77060000D01*
G75*
G02*
X-54660000Y77195000I0J135000D01*
G01*
G37*
G36*
G01*
X-53640000Y77195000D02*
X-53640000Y77565000D01*
G75*
G02*
X-53505000Y77700000I135000J0D01*
G01*
X-53235000Y77700000D01*
G75*
G02*
X-53100000Y77565000I0J-135000D01*
G01*
X-53100000Y77195000D01*
G75*
G02*
X-53235000Y77060000I-135000J0D01*
G01*
X-53505000Y77060000D01*
G75*
G02*
X-53640000Y77195000I0J135000D01*
G01*
G37*
G04 #@! TD*
G04 #@! TO.C,C12*
G36*
G01*
X107480000Y35280000D02*
X107480000Y35780000D01*
G75*
G02*
X107705000Y36005000I225000J0D01*
G01*
X108155000Y36005000D01*
G75*
G02*
X108380000Y35780000I0J-225000D01*
G01*
X108380000Y35280000D01*
G75*
G02*
X108155000Y35055000I-225000J0D01*
G01*
X107705000Y35055000D01*
G75*
G02*
X107480000Y35280000I0J225000D01*
G01*
G37*
G36*
G01*
X109030000Y35280000D02*
X109030000Y35780000D01*
G75*
G02*
X109255000Y36005000I225000J0D01*
G01*
X109705000Y36005000D01*
G75*
G02*
X109930000Y35780000I0J-225000D01*
G01*
X109930000Y35280000D01*
G75*
G02*
X109705000Y35055000I-225000J0D01*
G01*
X109255000Y35055000D01*
G75*
G02*
X109030000Y35280000I0J225000D01*
G01*
G37*
G04 #@! TD*
D16*
G04 #@! TO.C,U8*
X52940000Y5225000D03*
X53940000Y5225000D03*
X54940000Y5225000D03*
X55940000Y5225000D03*
X56940000Y5225000D03*
X57940000Y5225000D03*
X57940000Y14825000D03*
X56940000Y14825000D03*
X55940000Y14825000D03*
X54940000Y14825000D03*
X53940000Y14825000D03*
X52940000Y14825000D03*
D17*
X55440000Y10025000D03*
G04 #@! TD*
G04 #@! TO.C,R9*
G36*
G01*
X-51750000Y71225000D02*
X-51750000Y71595000D01*
G75*
G02*
X-51615000Y71730000I135000J0D01*
G01*
X-51345000Y71730000D01*
G75*
G02*
X-51210000Y71595000I0J-135000D01*
G01*
X-51210000Y71225000D01*
G75*
G02*
X-51345000Y71090000I-135000J0D01*
G01*
X-51615000Y71090000D01*
G75*
G02*
X-51750000Y71225000I0J135000D01*
G01*
G37*
G36*
G01*
X-50730000Y71225000D02*
X-50730000Y71595000D01*
G75*
G02*
X-50595000Y71730000I135000J0D01*
G01*
X-50325000Y71730000D01*
G75*
G02*
X-50190000Y71595000I0J-135000D01*
G01*
X-50190000Y71225000D01*
G75*
G02*
X-50325000Y71090000I-135000J0D01*
G01*
X-50595000Y71090000D01*
G75*
G02*
X-50730000Y71225000I0J135000D01*
G01*
G37*
G04 #@! TD*
D11*
G04 #@! TO.C,J2*
X21030000Y2710000D03*
D18*
X18530000Y2710000D03*
X18530000Y710000D03*
X21030000Y710000D03*
D19*
X25800000Y-2000000D03*
X13760000Y-2000000D03*
G04 #@! TD*
G04 #@! TO.C,R6*
G36*
G01*
X-51750000Y77195000D02*
X-51750000Y77565000D01*
G75*
G02*
X-51615000Y77700000I135000J0D01*
G01*
X-51345000Y77700000D01*
G75*
G02*
X-51210000Y77565000I0J-135000D01*
G01*
X-51210000Y77195000D01*
G75*
G02*
X-51345000Y77060000I-135000J0D01*
G01*
X-51615000Y77060000D01*
G75*
G02*
X-51750000Y77195000I0J135000D01*
G01*
G37*
G36*
G01*
X-50730000Y77195000D02*
X-50730000Y77565000D01*
G75*
G02*
X-50595000Y77700000I135000J0D01*
G01*
X-50325000Y77700000D01*
G75*
G02*
X-50190000Y77565000I0J-135000D01*
G01*
X-50190000Y77195000D01*
G75*
G02*
X-50325000Y77060000I-135000J0D01*
G01*
X-50595000Y77060000D01*
G75*
G02*
X-50730000Y77195000I0J135000D01*
G01*
G37*
G04 #@! TD*
G04 #@! TO.C,C11*
G36*
G01*
X107480000Y37790000D02*
X107480000Y38290000D01*
G75*
G02*
X107705000Y38515000I225000J0D01*
G01*
X108155000Y38515000D01*
G75*
G02*
X108380000Y38290000I0J-225000D01*
G01*
X108380000Y37790000D01*
G75*
G02*
X108155000Y37565000I-225000J0D01*
G01*
X107705000Y37565000D01*
G75*
G02*
X107480000Y37790000I0J225000D01*
G01*
G37*
G36*
G01*
X109030000Y37790000D02*
X109030000Y38290000D01*
G75*
G02*
X109255000Y38515000I225000J0D01*
G01*
X109705000Y38515000D01*
G75*
G02*
X109930000Y38290000I0J-225000D01*
G01*
X109930000Y37790000D01*
G75*
G02*
X109705000Y37565000I-225000J0D01*
G01*
X109255000Y37565000D01*
G75*
G02*
X109030000Y37790000I0J225000D01*
G01*
G37*
G04 #@! TD*
G04 #@! TO.C,R8*
G36*
G01*
X-51750000Y73215000D02*
X-51750000Y73585000D01*
G75*
G02*
X-51615000Y73720000I135000J0D01*
G01*
X-51345000Y73720000D01*
G75*
G02*
X-51210000Y73585000I0J-135000D01*
G01*
X-51210000Y73215000D01*
G75*
G02*
X-51345000Y73080000I-135000J0D01*
G01*
X-51615000Y73080000D01*
G75*
G02*
X-51750000Y73215000I0J135000D01*
G01*
G37*
G36*
G01*
X-50730000Y73215000D02*
X-50730000Y73585000D01*
G75*
G02*
X-50595000Y73720000I135000J0D01*
G01*
X-50325000Y73720000D01*
G75*
G02*
X-50190000Y73585000I0J-135000D01*
G01*
X-50190000Y73215000D01*
G75*
G02*
X-50325000Y73080000I-135000J0D01*
G01*
X-50595000Y73080000D01*
G75*
G02*
X-50730000Y73215000I0J135000D01*
G01*
G37*
G04 #@! TD*
G04 #@! TO.C,J9*
G36*
G01*
X79399999Y33650000D02*
X76600001Y33650000D01*
G75*
G02*
X76350000Y33900001I0J250001D01*
G01*
X76350000Y36099999D01*
G75*
G02*
X76600001Y36350000I250001J0D01*
G01*
X79399999Y36350000D01*
G75*
G02*
X79650000Y36099999I0J-250001D01*
G01*
X79650000Y33900001D01*
G75*
G02*
X79399999Y33650000I-250001J0D01*
G01*
G37*
D20*
X78000000Y39200000D03*
X78000000Y43400000D03*
X78000000Y47600000D03*
X78000000Y51800000D03*
X78000000Y56000000D03*
X83500000Y35000000D03*
X83500000Y39200000D03*
X83500000Y43400000D03*
X83500000Y47600000D03*
X83500000Y51800000D03*
X83500000Y56000000D03*
G04 #@! TD*
G04 #@! TO.C,C6*
G36*
G01*
X103470000Y37790000D02*
X103470000Y38290000D01*
G75*
G02*
X103695000Y38515000I225000J0D01*
G01*
X104145000Y38515000D01*
G75*
G02*
X104370000Y38290000I0J-225000D01*
G01*
X104370000Y37790000D01*
G75*
G02*
X104145000Y37565000I-225000J0D01*
G01*
X103695000Y37565000D01*
G75*
G02*
X103470000Y37790000I0J225000D01*
G01*
G37*
G36*
G01*
X105020000Y37790000D02*
X105020000Y38290000D01*
G75*
G02*
X105245000Y38515000I225000J0D01*
G01*
X105695000Y38515000D01*
G75*
G02*
X105920000Y38290000I0J-225000D01*
G01*
X105920000Y37790000D01*
G75*
G02*
X105695000Y37565000I-225000J0D01*
G01*
X105245000Y37565000D01*
G75*
G02*
X105020000Y37790000I0J225000D01*
G01*
G37*
G04 #@! TD*
G04 #@! TO.C,U4*
G36*
G01*
X33396500Y71438000D02*
X32793500Y71438000D01*
G75*
G02*
X32693000Y71538500I0J100500D01*
G01*
X32693000Y73511500D01*
G75*
G02*
X32793500Y73612000I100500J0D01*
G01*
X33396500Y73612000D01*
G75*
G02*
X33497000Y73511500I0J-100500D01*
G01*
X33497000Y71538500D01*
G75*
G02*
X33396500Y71438000I-100500J0D01*
G01*
G37*
G36*
G01*
X34666500Y71438000D02*
X34063500Y71438000D01*
G75*
G02*
X33963000Y71538500I0J100500D01*
G01*
X33963000Y73511500D01*
G75*
G02*
X34063500Y73612000I100500J0D01*
G01*
X34666500Y73612000D01*
G75*
G02*
X34767000Y73511500I0J-100500D01*
G01*
X34767000Y71538500D01*
G75*
G02*
X34666500Y71438000I-100500J0D01*
G01*
G37*
G36*
G01*
X35936500Y71438000D02*
X35333500Y71438000D01*
G75*
G02*
X35233000Y71538500I0J100500D01*
G01*
X35233000Y73511500D01*
G75*
G02*
X35333500Y73612000I100500J0D01*
G01*
X35936500Y73612000D01*
G75*
G02*
X36037000Y73511500I0J-100500D01*
G01*
X36037000Y71538500D01*
G75*
G02*
X35936500Y71438000I-100500J0D01*
G01*
G37*
G36*
G01*
X37206500Y71438000D02*
X36603500Y71438000D01*
G75*
G02*
X36503000Y71538500I0J100500D01*
G01*
X36503000Y73511500D01*
G75*
G02*
X36603500Y73612000I100500J0D01*
G01*
X37206500Y73612000D01*
G75*
G02*
X37307000Y73511500I0J-100500D01*
G01*
X37307000Y71538500D01*
G75*
G02*
X37206500Y71438000I-100500J0D01*
G01*
G37*
G36*
G01*
X37206500Y76388000D02*
X36603500Y76388000D01*
G75*
G02*
X36503000Y76488500I0J100500D01*
G01*
X36503000Y78461500D01*
G75*
G02*
X36603500Y78562000I100500J0D01*
G01*
X37206500Y78562000D01*
G75*
G02*
X37307000Y78461500I0J-100500D01*
G01*
X37307000Y76488500D01*
G75*
G02*
X37206500Y76388000I-100500J0D01*
G01*
G37*
G36*
G01*
X35936500Y76388000D02*
X35333500Y76388000D01*
G75*
G02*
X35233000Y76488500I0J100500D01*
G01*
X35233000Y78461500D01*
G75*
G02*
X35333500Y78562000I100500J0D01*
G01*
X35936500Y78562000D01*
G75*
G02*
X36037000Y78461500I0J-100500D01*
G01*
X36037000Y76488500D01*
G75*
G02*
X35936500Y76388000I-100500J0D01*
G01*
G37*
G36*
G01*
X34666500Y76388000D02*
X34063500Y76388000D01*
G75*
G02*
X33963000Y76488500I0J100500D01*
G01*
X33963000Y78461500D01*
G75*
G02*
X34063500Y78562000I100500J0D01*
G01*
X34666500Y78562000D01*
G75*
G02*
X34767000Y78461500I0J-100500D01*
G01*
X34767000Y76488500D01*
G75*
G02*
X34666500Y76388000I-100500J0D01*
G01*
G37*
G36*
G01*
X33396500Y76388000D02*
X32793500Y76388000D01*
G75*
G02*
X32693000Y76488500I0J100500D01*
G01*
X32693000Y78461500D01*
G75*
G02*
X32793500Y78562000I100500J0D01*
G01*
X33396500Y78562000D01*
G75*
G02*
X33497000Y78461500I0J-100500D01*
G01*
X33497000Y76488500D01*
G75*
G02*
X33396500Y76388000I-100500J0D01*
G01*
G37*
G04 #@! TD*
G04 #@! TO.C,D6*
G36*
G01*
X-60305000Y85025000D02*
X-60305000Y85775000D01*
G75*
G02*
X-60080000Y86000000I225000J0D01*
G01*
X-59630000Y86000000D01*
G75*
G02*
X-59405000Y85775000I0J-225000D01*
G01*
X-59405000Y85025000D01*
G75*
G02*
X-59630000Y84800000I-225000J0D01*
G01*
X-60080000Y84800000D01*
G75*
G02*
X-60305000Y85025000I0J225000D01*
G01*
G37*
G36*
G01*
X-57005000Y85025000D02*
X-57005000Y85775000D01*
G75*
G02*
X-56780000Y86000000I225000J0D01*
G01*
X-56330000Y86000000D01*
G75*
G02*
X-56105000Y85775000I0J-225000D01*
G01*
X-56105000Y85025000D01*
G75*
G02*
X-56330000Y84800000I-225000J0D01*
G01*
X-56780000Y84800000D01*
G75*
G02*
X-57005000Y85025000I0J225000D01*
G01*
G37*
G04 #@! TD*
G04 #@! TO.C,D7*
G36*
G01*
X-60305000Y81675000D02*
X-60305000Y82425000D01*
G75*
G02*
X-60080000Y82650000I225000J0D01*
G01*
X-59630000Y82650000D01*
G75*
G02*
X-59405000Y82425000I0J-225000D01*
G01*
X-59405000Y81675000D01*
G75*
G02*
X-59630000Y81450000I-225000J0D01*
G01*
X-60080000Y81450000D01*
G75*
G02*
X-60305000Y81675000I0J225000D01*
G01*
G37*
G36*
G01*
X-57005000Y81675000D02*
X-57005000Y82425000D01*
G75*
G02*
X-56780000Y82650000I225000J0D01*
G01*
X-56330000Y82650000D01*
G75*
G02*
X-56105000Y82425000I0J-225000D01*
G01*
X-56105000Y81675000D01*
G75*
G02*
X-56330000Y81450000I-225000J0D01*
G01*
X-56780000Y81450000D01*
G75*
G02*
X-57005000Y81675000I0J225000D01*
G01*
G37*
G04 #@! TD*
D13*
G04 #@! TO.C,M4*
X-87675004Y57424998D03*
X-87675004Y51025001D03*
X-87675004Y49124998D03*
X-87675004Y44824998D03*
D10*
X-87225005Y42425001D03*
X-87225005Y41425000D03*
D13*
X-87675004Y38574998D03*
X-103175001Y57875000D03*
X-103175001Y56025001D03*
X-103175001Y51074998D03*
X-103175001Y39025000D03*
G04 #@! TD*
G04 #@! TO.C,D4*
G36*
G01*
X-60305000Y88375000D02*
X-60305000Y89125000D01*
G75*
G02*
X-60080000Y89350000I225000J0D01*
G01*
X-59630000Y89350000D01*
G75*
G02*
X-59405000Y89125000I0J-225000D01*
G01*
X-59405000Y88375000D01*
G75*
G02*
X-59630000Y88150000I-225000J0D01*
G01*
X-60080000Y88150000D01*
G75*
G02*
X-60305000Y88375000I0J225000D01*
G01*
G37*
G36*
G01*
X-57005000Y88375000D02*
X-57005000Y89125000D01*
G75*
G02*
X-56780000Y89350000I225000J0D01*
G01*
X-56330000Y89350000D01*
G75*
G02*
X-56105000Y89125000I0J-225000D01*
G01*
X-56105000Y88375000D01*
G75*
G02*
X-56330000Y88150000I-225000J0D01*
G01*
X-56780000Y88150000D01*
G75*
G02*
X-57005000Y88375000I0J225000D01*
G01*
G37*
G04 #@! TD*
G04 #@! TO.C,C8*
G36*
G01*
X103470000Y32770000D02*
X103470000Y33270000D01*
G75*
G02*
X103695000Y33495000I225000J0D01*
G01*
X104145000Y33495000D01*
G75*
G02*
X104370000Y33270000I0J-225000D01*
G01*
X104370000Y32770000D01*
G75*
G02*
X104145000Y32545000I-225000J0D01*
G01*
X103695000Y32545000D01*
G75*
G02*
X103470000Y32770000I0J225000D01*
G01*
G37*
G36*
G01*
X105020000Y32770000D02*
X105020000Y33270000D01*
G75*
G02*
X105245000Y33495000I225000J0D01*
G01*
X105695000Y33495000D01*
G75*
G02*
X105920000Y33270000I0J-225000D01*
G01*
X105920000Y32770000D01*
G75*
G02*
X105695000Y32545000I-225000J0D01*
G01*
X105245000Y32545000D01*
G75*
G02*
X105020000Y32770000I0J225000D01*
G01*
G37*
G04 #@! TD*
D11*
G04 #@! TO.C,J5*
X-99500000Y30240000D03*
D12*
X-99500000Y27700000D03*
G04 #@! TD*
G04 #@! TO.C,C15*
G36*
G01*
X107480000Y27750000D02*
X107480000Y28250000D01*
G75*
G02*
X107705000Y28475000I225000J0D01*
G01*
X108155000Y28475000D01*
G75*
G02*
X108380000Y28250000I0J-225000D01*
G01*
X108380000Y27750000D01*
G75*
G02*
X108155000Y27525000I-225000J0D01*
G01*
X107705000Y27525000D01*
G75*
G02*
X107480000Y27750000I0J225000D01*
G01*
G37*
G36*
G01*
X109030000Y27750000D02*
X109030000Y28250000D01*
G75*
G02*
X109255000Y28475000I225000J0D01*
G01*
X109705000Y28475000D01*
G75*
G02*
X109930000Y28250000I0J-225000D01*
G01*
X109930000Y27750000D01*
G75*
G02*
X109705000Y27525000I-225000J0D01*
G01*
X109255000Y27525000D01*
G75*
G02*
X109030000Y27750000I0J225000D01*
G01*
G37*
G04 #@! TD*
G04 #@! TO.C,C14*
G36*
G01*
X107480000Y30260000D02*
X107480000Y30760000D01*
G75*
G02*
X107705000Y30985000I225000J0D01*
G01*
X108155000Y30985000D01*
G75*
G02*
X108380000Y30760000I0J-225000D01*
G01*
X108380000Y30260000D01*
G75*
G02*
X108155000Y30035000I-225000J0D01*
G01*
X107705000Y30035000D01*
G75*
G02*
X107480000Y30260000I0J225000D01*
G01*
G37*
G36*
G01*
X109030000Y30260000D02*
X109030000Y30760000D01*
G75*
G02*
X109255000Y30985000I225000J0D01*
G01*
X109705000Y30985000D01*
G75*
G02*
X109930000Y30760000I0J-225000D01*
G01*
X109930000Y30260000D01*
G75*
G02*
X109705000Y30035000I-225000J0D01*
G01*
X109255000Y30035000D01*
G75*
G02*
X109030000Y30260000I0J225000D01*
G01*
G37*
G04 #@! TD*
G04 #@! TO.C,R12*
G36*
G01*
X-48840000Y75205000D02*
X-48840000Y75575000D01*
G75*
G02*
X-48705000Y75710000I135000J0D01*
G01*
X-48435000Y75710000D01*
G75*
G02*
X-48300000Y75575000I0J-135000D01*
G01*
X-48300000Y75205000D01*
G75*
G02*
X-48435000Y75070000I-135000J0D01*
G01*
X-48705000Y75070000D01*
G75*
G02*
X-48840000Y75205000I0J135000D01*
G01*
G37*
G36*
G01*
X-47820000Y75205000D02*
X-47820000Y75575000D01*
G75*
G02*
X-47685000Y75710000I135000J0D01*
G01*
X-47415000Y75710000D01*
G75*
G02*
X-47280000Y75575000I0J-135000D01*
G01*
X-47280000Y75205000D01*
G75*
G02*
X-47415000Y75070000I-135000J0D01*
G01*
X-47685000Y75070000D01*
G75*
G02*
X-47820000Y75205000I0J135000D01*
G01*
G37*
G04 #@! TD*
G04 #@! TO.C,U2*
G36*
G01*
X113463000Y88008500D02*
X113463000Y88611500D01*
G75*
G02*
X113563500Y88712000I100500J0D01*
G01*
X115536500Y88712000D01*
G75*
G02*
X115637000Y88611500I0J-100500D01*
G01*
X115637000Y88008500D01*
G75*
G02*
X115536500Y87908000I-100500J0D01*
G01*
X113563500Y87908000D01*
G75*
G02*
X113463000Y88008500I0J100500D01*
G01*
G37*
G36*
G01*
X113463000Y86738500D02*
X113463000Y87341500D01*
G75*
G02*
X113563500Y87442000I100500J0D01*
G01*
X115536500Y87442000D01*
G75*
G02*
X115637000Y87341500I0J-100500D01*
G01*
X115637000Y86738500D01*
G75*
G02*
X115536500Y86638000I-100500J0D01*
G01*
X113563500Y86638000D01*
G75*
G02*
X113463000Y86738500I0J100500D01*
G01*
G37*
G36*
G01*
X113463000Y85468500D02*
X113463000Y86071500D01*
G75*
G02*
X113563500Y86172000I100500J0D01*
G01*
X115536500Y86172000D01*
G75*
G02*
X115637000Y86071500I0J-100500D01*
G01*
X115637000Y85468500D01*
G75*
G02*
X115536500Y85368000I-100500J0D01*
G01*
X113563500Y85368000D01*
G75*
G02*
X113463000Y85468500I0J100500D01*
G01*
G37*
G36*
G01*
X113463000Y84198500D02*
X113463000Y84801500D01*
G75*
G02*
X113563500Y84902000I100500J0D01*
G01*
X115536500Y84902000D01*
G75*
G02*
X115637000Y84801500I0J-100500D01*
G01*
X115637000Y84198500D01*
G75*
G02*
X115536500Y84098000I-100500J0D01*
G01*
X113563500Y84098000D01*
G75*
G02*
X113463000Y84198500I0J100500D01*
G01*
G37*
G36*
G01*
X118413000Y84198500D02*
X118413000Y84801500D01*
G75*
G02*
X118513500Y84902000I100500J0D01*
G01*
X120486500Y84902000D01*
G75*
G02*
X120587000Y84801500I0J-100500D01*
G01*
X120587000Y84198500D01*
G75*
G02*
X120486500Y84098000I-100500J0D01*
G01*
X118513500Y84098000D01*
G75*
G02*
X118413000Y84198500I0J100500D01*
G01*
G37*
G36*
G01*
X118413000Y85468500D02*
X118413000Y86071500D01*
G75*
G02*
X118513500Y86172000I100500J0D01*
G01*
X120486500Y86172000D01*
G75*
G02*
X120587000Y86071500I0J-100500D01*
G01*
X120587000Y85468500D01*
G75*
G02*
X120486500Y85368000I-100500J0D01*
G01*
X118513500Y85368000D01*
G75*
G02*
X118413000Y85468500I0J100500D01*
G01*
G37*
G36*
G01*
X118413000Y86738500D02*
X118413000Y87341500D01*
G75*
G02*
X118513500Y87442000I100500J0D01*
G01*
X120486500Y87442000D01*
G75*
G02*
X120587000Y87341500I0J-100500D01*
G01*
X120587000Y86738500D01*
G75*
G02*
X120486500Y86638000I-100500J0D01*
G01*
X118513500Y86638000D01*
G75*
G02*
X118413000Y86738500I0J100500D01*
G01*
G37*
G36*
G01*
X118413000Y88008500D02*
X118413000Y88611500D01*
G75*
G02*
X118513500Y88712000I100500J0D01*
G01*
X120486500Y88712000D01*
G75*
G02*
X120587000Y88611500I0J-100500D01*
G01*
X120587000Y88008500D01*
G75*
G02*
X120486500Y87908000I-100500J0D01*
G01*
X118513500Y87908000D01*
G75*
G02*
X118413000Y88008500I0J100500D01*
G01*
G37*
G04 #@! TD*
D10*
G04 #@! TO.C,M3*
X70060000Y63575000D03*
X68860000Y63575000D03*
X71260000Y63575000D03*
X72460000Y63575000D03*
X66000000Y78000000D03*
X65000000Y78000000D03*
G04 #@! TD*
G04 #@! TO.C,C3*
G36*
G01*
X117500000Y32770000D02*
X117500000Y33270000D01*
G75*
G02*
X117725000Y33495000I225000J0D01*
G01*
X118175000Y33495000D01*
G75*
G02*
X118400000Y33270000I0J-225000D01*
G01*
X118400000Y32770000D01*
G75*
G02*
X118175000Y32545000I-225000J0D01*
G01*
X117725000Y32545000D01*
G75*
G02*
X117500000Y32770000I0J225000D01*
G01*
G37*
G36*
G01*
X119050000Y32770000D02*
X119050000Y33270000D01*
G75*
G02*
X119275000Y33495000I225000J0D01*
G01*
X119725000Y33495000D01*
G75*
G02*
X119950000Y33270000I0J-225000D01*
G01*
X119950000Y32770000D01*
G75*
G02*
X119725000Y32545000I-225000J0D01*
G01*
X119275000Y32545000D01*
G75*
G02*
X119050000Y32770000I0J225000D01*
G01*
G37*
G04 #@! TD*
G04 #@! TO.C,R11*
G36*
G01*
X-48840000Y77195000D02*
X-48840000Y77565000D01*
G75*
G02*
X-48705000Y77700000I135000J0D01*
G01*
X-48435000Y77700000D01*
G75*
G02*
X-48300000Y77565000I0J-135000D01*
G01*
X-48300000Y77195000D01*
G75*
G02*
X-48435000Y77060000I-135000J0D01*
G01*
X-48705000Y77060000D01*
G75*
G02*
X-48840000Y77195000I0J135000D01*
G01*
G37*
G36*
G01*
X-47820000Y77195000D02*
X-47820000Y77565000D01*
G75*
G02*
X-47685000Y77700000I135000J0D01*
G01*
X-47415000Y77700000D01*
G75*
G02*
X-47280000Y77565000I0J-135000D01*
G01*
X-47280000Y77195000D01*
G75*
G02*
X-47415000Y77060000I-135000J0D01*
G01*
X-47685000Y77060000D01*
G75*
G02*
X-47820000Y77195000I0J135000D01*
G01*
G37*
G04 #@! TD*
G04 #@! TO.C,L2*
G36*
G01*
X76405000Y20023750D02*
X76405000Y20536250D01*
G75*
G02*
X76623750Y20755000I218750J0D01*
G01*
X77061250Y20755000D01*
G75*
G02*
X77280000Y20536250I0J-218750D01*
G01*
X77280000Y20023750D01*
G75*
G02*
X77061250Y19805000I-218750J0D01*
G01*
X76623750Y19805000D01*
G75*
G02*
X76405000Y20023750I0J218750D01*
G01*
G37*
G36*
G01*
X77980000Y20023750D02*
X77980000Y20536250D01*
G75*
G02*
X78198750Y20755000I218750J0D01*
G01*
X78636250Y20755000D01*
G75*
G02*
X78855000Y20536250I0J-218750D01*
G01*
X78855000Y20023750D01*
G75*
G02*
X78636250Y19805000I-218750J0D01*
G01*
X78198750Y19805000D01*
G75*
G02*
X77980000Y20023750I0J218750D01*
G01*
G37*
G04 #@! TD*
D21*
G04 #@! TO.C,TP1*
X-38300000Y68500000D03*
G04 #@! TD*
G04 #@! TO.C,R10*
G36*
G01*
X-51750000Y69235000D02*
X-51750000Y69605000D01*
G75*
G02*
X-51615000Y69740000I135000J0D01*
G01*
X-51345000Y69740000D01*
G75*
G02*
X-51210000Y69605000I0J-135000D01*
G01*
X-51210000Y69235000D01*
G75*
G02*
X-51345000Y69100000I-135000J0D01*
G01*
X-51615000Y69100000D01*
G75*
G02*
X-51750000Y69235000I0J135000D01*
G01*
G37*
G36*
G01*
X-50730000Y69235000D02*
X-50730000Y69605000D01*
G75*
G02*
X-50595000Y69740000I135000J0D01*
G01*
X-50325000Y69740000D01*
G75*
G02*
X-50190000Y69605000I0J-135000D01*
G01*
X-50190000Y69235000D01*
G75*
G02*
X-50325000Y69100000I-135000J0D01*
G01*
X-50595000Y69100000D01*
G75*
G02*
X-50730000Y69235000I0J135000D01*
G01*
G37*
G04 #@! TD*
G04 #@! TO.C,C10*
G36*
G01*
X103470000Y27750000D02*
X103470000Y28250000D01*
G75*
G02*
X103695000Y28475000I225000J0D01*
G01*
X104145000Y28475000D01*
G75*
G02*
X104370000Y28250000I0J-225000D01*
G01*
X104370000Y27750000D01*
G75*
G02*
X104145000Y27525000I-225000J0D01*
G01*
X103695000Y27525000D01*
G75*
G02*
X103470000Y27750000I0J225000D01*
G01*
G37*
G36*
G01*
X105020000Y27750000D02*
X105020000Y28250000D01*
G75*
G02*
X105245000Y28475000I225000J0D01*
G01*
X105695000Y28475000D01*
G75*
G02*
X105920000Y28250000I0J-225000D01*
G01*
X105920000Y27750000D01*
G75*
G02*
X105695000Y27525000I-225000J0D01*
G01*
X105245000Y27525000D01*
G75*
G02*
X105020000Y27750000I0J225000D01*
G01*
G37*
G04 #@! TD*
G04 #@! TO.C,D5*
G36*
G01*
X-53855000Y42287500D02*
X-53855000Y42512500D01*
G75*
G02*
X-53742500Y42625000I112500J0D01*
G01*
X-53367500Y42625000D01*
G75*
G02*
X-53255000Y42512500I0J-112500D01*
G01*
X-53255000Y42287500D01*
G75*
G02*
X-53367500Y42175000I-112500J0D01*
G01*
X-53742500Y42175000D01*
G75*
G02*
X-53855000Y42287500I0J112500D01*
G01*
G37*
G36*
G01*
X-51755000Y42287500D02*
X-51755000Y42512500D01*
G75*
G02*
X-51642500Y42625000I112500J0D01*
G01*
X-51267500Y42625000D01*
G75*
G02*
X-51155000Y42512500I0J-112500D01*
G01*
X-51155000Y42287500D01*
G75*
G02*
X-51267500Y42175000I-112500J0D01*
G01*
X-51642500Y42175000D01*
G75*
G02*
X-51755000Y42287500I0J112500D01*
G01*
G37*
G04 #@! TD*
G04 #@! TO.C,R15*
G36*
G01*
X111490000Y30235000D02*
X111490000Y30785000D01*
G75*
G02*
X111690000Y30985000I200000J0D01*
G01*
X112090000Y30985000D01*
G75*
G02*
X112290000Y30785000I0J-200000D01*
G01*
X112290000Y30235000D01*
G75*
G02*
X112090000Y30035000I-200000J0D01*
G01*
X111690000Y30035000D01*
G75*
G02*
X111490000Y30235000I0J200000D01*
G01*
G37*
G36*
G01*
X113140000Y30235000D02*
X113140000Y30785000D01*
G75*
G02*
X113340000Y30985000I200000J0D01*
G01*
X113740000Y30985000D01*
G75*
G02*
X113940000Y30785000I0J-200000D01*
G01*
X113940000Y30235000D01*
G75*
G02*
X113740000Y30035000I-200000J0D01*
G01*
X113340000Y30035000D01*
G75*
G02*
X113140000Y30235000I0J200000D01*
G01*
G37*
G04 #@! TD*
G04 #@! TO.C,D8*
G36*
G01*
X-60305000Y78325000D02*
X-60305000Y79075000D01*
G75*
G02*
X-60080000Y79300000I225000J0D01*
G01*
X-59630000Y79300000D01*
G75*
G02*
X-59405000Y79075000I0J-225000D01*
G01*
X-59405000Y78325000D01*
G75*
G02*
X-59630000Y78100000I-225000J0D01*
G01*
X-60080000Y78100000D01*
G75*
G02*
X-60305000Y78325000I0J225000D01*
G01*
G37*
G36*
G01*
X-57005000Y78325000D02*
X-57005000Y79075000D01*
G75*
G02*
X-56780000Y79300000I225000J0D01*
G01*
X-56330000Y79300000D01*
G75*
G02*
X-56105000Y79075000I0J-225000D01*
G01*
X-56105000Y78325000D01*
G75*
G02*
X-56330000Y78100000I-225000J0D01*
G01*
X-56780000Y78100000D01*
G75*
G02*
X-57005000Y78325000I0J225000D01*
G01*
G37*
G04 #@! TD*
G04 #@! TO.C,R3*
G36*
G01*
X-54660000Y73215000D02*
X-54660000Y73585000D01*
G75*
G02*
X-54525000Y73720000I135000J0D01*
G01*
X-54255000Y73720000D01*
G75*
G02*
X-54120000Y73585000I0J-135000D01*
G01*
X-54120000Y73215000D01*
G75*
G02*
X-54255000Y73080000I-135000J0D01*
G01*
X-54525000Y73080000D01*
G75*
G02*
X-54660000Y73215000I0J135000D01*
G01*
G37*
G36*
G01*
X-53640000Y73215000D02*
X-53640000Y73585000D01*
G75*
G02*
X-53505000Y73720000I135000J0D01*
G01*
X-53235000Y73720000D01*
G75*
G02*
X-53100000Y73585000I0J-135000D01*
G01*
X-53100000Y73215000D01*
G75*
G02*
X-53235000Y73080000I-135000J0D01*
G01*
X-53505000Y73080000D01*
G75*
G02*
X-53640000Y73215000I0J135000D01*
G01*
G37*
G04 #@! TD*
G04 #@! TO.C,R7*
G36*
G01*
X-51750000Y75205000D02*
X-51750000Y75575000D01*
G75*
G02*
X-51615000Y75710000I135000J0D01*
G01*
X-51345000Y75710000D01*
G75*
G02*
X-51210000Y75575000I0J-135000D01*
G01*
X-51210000Y75205000D01*
G75*
G02*
X-51345000Y75070000I-135000J0D01*
G01*
X-51615000Y75070000D01*
G75*
G02*
X-51750000Y75205000I0J135000D01*
G01*
G37*
G36*
G01*
X-50730000Y75205000D02*
X-50730000Y75575000D01*
G75*
G02*
X-50595000Y75710000I135000J0D01*
G01*
X-50325000Y75710000D01*
G75*
G02*
X-50190000Y75575000I0J-135000D01*
G01*
X-50190000Y75205000D01*
G75*
G02*
X-50325000Y75070000I-135000J0D01*
G01*
X-50595000Y75070000D01*
G75*
G02*
X-50730000Y75205000I0J135000D01*
G01*
G37*
G04 #@! TD*
G04 #@! TO.C,U5*
G36*
G01*
X99438000Y32103500D02*
X99438000Y32706500D01*
G75*
G02*
X99538500Y32807000I100500J0D01*
G01*
X101511500Y32807000D01*
G75*
G02*
X101612000Y32706500I0J-100500D01*
G01*
X101612000Y32103500D01*
G75*
G02*
X101511500Y32003000I-100500J0D01*
G01*
X99538500Y32003000D01*
G75*
G02*
X99438000Y32103500I0J100500D01*
G01*
G37*
G36*
G01*
X99438000Y30833500D02*
X99438000Y31436500D01*
G75*
G02*
X99538500Y31537000I100500J0D01*
G01*
X101511500Y31537000D01*
G75*
G02*
X101612000Y31436500I0J-100500D01*
G01*
X101612000Y30833500D01*
G75*
G02*
X101511500Y30733000I-100500J0D01*
G01*
X99538500Y30733000D01*
G75*
G02*
X99438000Y30833500I0J100500D01*
G01*
G37*
G36*
G01*
X99438000Y29563500D02*
X99438000Y30166500D01*
G75*
G02*
X99538500Y30267000I100500J0D01*
G01*
X101511500Y30267000D01*
G75*
G02*
X101612000Y30166500I0J-100500D01*
G01*
X101612000Y29563500D01*
G75*
G02*
X101511500Y29463000I-100500J0D01*
G01*
X99538500Y29463000D01*
G75*
G02*
X99438000Y29563500I0J100500D01*
G01*
G37*
G36*
G01*
X99438000Y28293500D02*
X99438000Y28896500D01*
G75*
G02*
X99538500Y28997000I100500J0D01*
G01*
X101511500Y28997000D01*
G75*
G02*
X101612000Y28896500I0J-100500D01*
G01*
X101612000Y28293500D01*
G75*
G02*
X101511500Y28193000I-100500J0D01*
G01*
X99538500Y28193000D01*
G75*
G02*
X99438000Y28293500I0J100500D01*
G01*
G37*
G36*
G01*
X104388000Y28293500D02*
X104388000Y28896500D01*
G75*
G02*
X104488500Y28997000I100500J0D01*
G01*
X106461500Y28997000D01*
G75*
G02*
X106562000Y28896500I0J-100500D01*
G01*
X106562000Y28293500D01*
G75*
G02*
X106461500Y28193000I-100500J0D01*
G01*
X104488500Y28193000D01*
G75*
G02*
X104388000Y28293500I0J100500D01*
G01*
G37*
G36*
G01*
X104388000Y29563500D02*
X104388000Y30166500D01*
G75*
G02*
X104488500Y30267000I100500J0D01*
G01*
X106461500Y30267000D01*
G75*
G02*
X106562000Y30166500I0J-100500D01*
G01*
X106562000Y29563500D01*
G75*
G02*
X106461500Y29463000I-100500J0D01*
G01*
X104488500Y29463000D01*
G75*
G02*
X104388000Y29563500I0J100500D01*
G01*
G37*
G36*
G01*
X104388000Y30833500D02*
X104388000Y31436500D01*
G75*
G02*
X104488500Y31537000I100500J0D01*
G01*
X106461500Y31537000D01*
G75*
G02*
X106562000Y31436500I0J-100500D01*
G01*
X106562000Y30833500D01*
G75*
G02*
X106461500Y30733000I-100500J0D01*
G01*
X104488500Y30733000D01*
G75*
G02*
X104388000Y30833500I0J100500D01*
G01*
G37*
G36*
G01*
X104388000Y32103500D02*
X104388000Y32706500D01*
G75*
G02*
X104488500Y32807000I100500J0D01*
G01*
X106461500Y32807000D01*
G75*
G02*
X106562000Y32706500I0J-100500D01*
G01*
X106562000Y32103500D01*
G75*
G02*
X106461500Y32003000I-100500J0D01*
G01*
X104488500Y32003000D01*
G75*
G02*
X104388000Y32103500I0J100500D01*
G01*
G37*
G04 #@! TD*
G04 #@! TO.C,C4*
G36*
G01*
X117500000Y30260000D02*
X117500000Y30760000D01*
G75*
G02*
X117725000Y30985000I225000J0D01*
G01*
X118175000Y30985000D01*
G75*
G02*
X118400000Y30760000I0J-225000D01*
G01*
X118400000Y30260000D01*
G75*
G02*
X118175000Y30035000I-225000J0D01*
G01*
X117725000Y30035000D01*
G75*
G02*
X117500000Y30260000I0J225000D01*
G01*
G37*
G36*
G01*
X119050000Y30260000D02*
X119050000Y30760000D01*
G75*
G02*
X119275000Y30985000I225000J0D01*
G01*
X119725000Y30985000D01*
G75*
G02*
X119950000Y30760000I0J-225000D01*
G01*
X119950000Y30260000D01*
G75*
G02*
X119725000Y30035000I-225000J0D01*
G01*
X119275000Y30035000D01*
G75*
G02*
X119050000Y30260000I0J225000D01*
G01*
G37*
G04 #@! TD*
D22*
G04 #@! TO.C,J1*
X10350000Y81300000D03*
D23*
X13350000Y81300000D03*
X16350000Y81300000D03*
X19350000Y81300000D03*
X22350000Y81300000D03*
X25350000Y81300000D03*
X28350000Y81300000D03*
X31350000Y81300000D03*
X10350000Y85800000D03*
X13350000Y85800000D03*
X16350000Y85800000D03*
X19350000Y85800000D03*
X22350000Y85800000D03*
X25350000Y85800000D03*
X28350000Y85800000D03*
X31350000Y85800000D03*
X37350000Y81300000D03*
X40800000Y81300000D03*
X43900000Y81300000D03*
X46900000Y81300000D03*
X49900000Y81300000D03*
X52900000Y81300000D03*
X55900000Y81300000D03*
X58900000Y81300000D03*
X61900000Y81300000D03*
X64900000Y81300000D03*
X68000000Y81300000D03*
X71500000Y81300000D03*
X75000000Y81300000D03*
X37300000Y85800000D03*
X40800000Y85800000D03*
X43900000Y85800000D03*
X46900000Y85800000D03*
X49900000Y85800000D03*
X52900000Y85800000D03*
X55900000Y85800000D03*
X58900000Y85800000D03*
X61900000Y85800000D03*
X64900000Y85800000D03*
X68000000Y85800000D03*
X71500000Y85800000D03*
X75000000Y85800000D03*
D24*
X9950000Y91500000D03*
X34200000Y91500000D03*
X75650000Y91500000D03*
G04 #@! TD*
G04 #@! TO.C,C7*
G36*
G01*
X103470000Y35280000D02*
X103470000Y35780000D01*
G75*
G02*
X103695000Y36005000I225000J0D01*
G01*
X104145000Y36005000D01*
G75*
G02*
X104370000Y35780000I0J-225000D01*
G01*
X104370000Y35280000D01*
G75*
G02*
X104145000Y35055000I-225000J0D01*
G01*
X103695000Y35055000D01*
G75*
G02*
X103470000Y35280000I0J225000D01*
G01*
G37*
G36*
G01*
X105020000Y35280000D02*
X105020000Y35780000D01*
G75*
G02*
X105245000Y36005000I225000J0D01*
G01*
X105695000Y36005000D01*
G75*
G02*
X105920000Y35780000I0J-225000D01*
G01*
X105920000Y35280000D01*
G75*
G02*
X105695000Y35055000I-225000J0D01*
G01*
X105245000Y35055000D01*
G75*
G02*
X105020000Y35280000I0J225000D01*
G01*
G37*
G04 #@! TD*
G04 #@! TO.C,U7*
G36*
G01*
X110050000Y56755000D02*
X110050000Y57055000D01*
G75*
G02*
X110200000Y57205000I150000J0D01*
G01*
X111850000Y57205000D01*
G75*
G02*
X112000000Y57055000I0J-150000D01*
G01*
X112000000Y56755000D01*
G75*
G02*
X111850000Y56605000I-150000J0D01*
G01*
X110200000Y56605000D01*
G75*
G02*
X110050000Y56755000I0J150000D01*
G01*
G37*
G36*
G01*
X110050000Y55485000D02*
X110050000Y55785000D01*
G75*
G02*
X110200000Y55935000I150000J0D01*
G01*
X111850000Y55935000D01*
G75*
G02*
X112000000Y55785000I0J-150000D01*
G01*
X112000000Y55485000D01*
G75*
G02*
X111850000Y55335000I-150000J0D01*
G01*
X110200000Y55335000D01*
G75*
G02*
X110050000Y55485000I0J150000D01*
G01*
G37*
G36*
G01*
X110050000Y54215000D02*
X110050000Y54515000D01*
G75*
G02*
X110200000Y54665000I150000J0D01*
G01*
X111850000Y54665000D01*
G75*
G02*
X112000000Y54515000I0J-150000D01*
G01*
X112000000Y54215000D01*
G75*
G02*
X111850000Y54065000I-150000J0D01*
G01*
X110200000Y54065000D01*
G75*
G02*
X110050000Y54215000I0J150000D01*
G01*
G37*
G36*
G01*
X110050000Y52945000D02*
X110050000Y53245000D01*
G75*
G02*
X110200000Y53395000I150000J0D01*
G01*
X111850000Y53395000D01*
G75*
G02*
X112000000Y53245000I0J-150000D01*
G01*
X112000000Y52945000D01*
G75*
G02*
X111850000Y52795000I-150000J0D01*
G01*
X110200000Y52795000D01*
G75*
G02*
X110050000Y52945000I0J150000D01*
G01*
G37*
G36*
G01*
X115000000Y52945000D02*
X115000000Y53245000D01*
G75*
G02*
X115150000Y53395000I150000J0D01*
G01*
X116800000Y53395000D01*
G75*
G02*
X116950000Y53245000I0J-150000D01*
G01*
X116950000Y52945000D01*
G75*
G02*
X116800000Y52795000I-150000J0D01*
G01*
X115150000Y52795000D01*
G75*
G02*
X115000000Y52945000I0J150000D01*
G01*
G37*
G36*
G01*
X115000000Y54215000D02*
X115000000Y54515000D01*
G75*
G02*
X115150000Y54665000I150000J0D01*
G01*
X116800000Y54665000D01*
G75*
G02*
X116950000Y54515000I0J-150000D01*
G01*
X116950000Y54215000D01*
G75*
G02*
X116800000Y54065000I-150000J0D01*
G01*
X115150000Y54065000D01*
G75*
G02*
X115000000Y54215000I0J150000D01*
G01*
G37*
G36*
G01*
X115000000Y55485000D02*
X115000000Y55785000D01*
G75*
G02*
X115150000Y55935000I150000J0D01*
G01*
X116800000Y55935000D01*
G75*
G02*
X116950000Y55785000I0J-150000D01*
G01*
X116950000Y55485000D01*
G75*
G02*
X116800000Y55335000I-150000J0D01*
G01*
X115150000Y55335000D01*
G75*
G02*
X115000000Y55485000I0J150000D01*
G01*
G37*
G36*
G01*
X115000000Y56755000D02*
X115000000Y57055000D01*
G75*
G02*
X115150000Y57205000I150000J0D01*
G01*
X116800000Y57205000D01*
G75*
G02*
X116950000Y57055000I0J-150000D01*
G01*
X116950000Y56755000D01*
G75*
G02*
X116800000Y56605000I-150000J0D01*
G01*
X115150000Y56605000D01*
G75*
G02*
X115000000Y56755000I0J150000D01*
G01*
G37*
G04 #@! TD*
G04 #@! TO.C,Q2*
G36*
G01*
X-45835000Y76775000D02*
X-45835000Y77075000D01*
G75*
G02*
X-45685000Y77225000I150000J0D01*
G01*
X-44510000Y77225000D01*
G75*
G02*
X-44360000Y77075000I0J-150000D01*
G01*
X-44360000Y76775000D01*
G75*
G02*
X-44510000Y76625000I-150000J0D01*
G01*
X-45685000Y76625000D01*
G75*
G02*
X-45835000Y76775000I0J150000D01*
G01*
G37*
G36*
G01*
X-45835000Y74875000D02*
X-45835000Y75175000D01*
G75*
G02*
X-45685000Y75325000I150000J0D01*
G01*
X-44510000Y75325000D01*
G75*
G02*
X-44360000Y75175000I0J-150000D01*
G01*
X-44360000Y74875000D01*
G75*
G02*
X-44510000Y74725000I-150000J0D01*
G01*
X-45685000Y74725000D01*
G75*
G02*
X-45835000Y74875000I0J150000D01*
G01*
G37*
G36*
G01*
X-43960000Y75825000D02*
X-43960000Y76125000D01*
G75*
G02*
X-43810000Y76275000I150000J0D01*
G01*
X-42635000Y76275000D01*
G75*
G02*
X-42485000Y76125000I0J-150000D01*
G01*
X-42485000Y75825000D01*
G75*
G02*
X-42635000Y75675000I-150000J0D01*
G01*
X-43810000Y75675000D01*
G75*
G02*
X-43960000Y75825000I0J150000D01*
G01*
G37*
G04 #@! TD*
G04 #@! TO.C,R4*
G36*
G01*
X-54660000Y71225000D02*
X-54660000Y71595000D01*
G75*
G02*
X-54525000Y71730000I135000J0D01*
G01*
X-54255000Y71730000D01*
G75*
G02*
X-54120000Y71595000I0J-135000D01*
G01*
X-54120000Y71225000D01*
G75*
G02*
X-54255000Y71090000I-135000J0D01*
G01*
X-54525000Y71090000D01*
G75*
G02*
X-54660000Y71225000I0J135000D01*
G01*
G37*
G36*
G01*
X-53640000Y71225000D02*
X-53640000Y71595000D01*
G75*
G02*
X-53505000Y71730000I135000J0D01*
G01*
X-53235000Y71730000D01*
G75*
G02*
X-53100000Y71595000I0J-135000D01*
G01*
X-53100000Y71225000D01*
G75*
G02*
X-53235000Y71090000I-135000J0D01*
G01*
X-53505000Y71090000D01*
G75*
G02*
X-53640000Y71225000I0J135000D01*
G01*
G37*
G04 #@! TD*
G04 #@! TO.C,R5*
G36*
G01*
X-54660000Y69235000D02*
X-54660000Y69605000D01*
G75*
G02*
X-54525000Y69740000I135000J0D01*
G01*
X-54255000Y69740000D01*
G75*
G02*
X-54120000Y69605000I0J-135000D01*
G01*
X-54120000Y69235000D01*
G75*
G02*
X-54255000Y69100000I-135000J0D01*
G01*
X-54525000Y69100000D01*
G75*
G02*
X-54660000Y69235000I0J135000D01*
G01*
G37*
G36*
G01*
X-53640000Y69235000D02*
X-53640000Y69605000D01*
G75*
G02*
X-53505000Y69740000I135000J0D01*
G01*
X-53235000Y69740000D01*
G75*
G02*
X-53100000Y69605000I0J-135000D01*
G01*
X-53100000Y69235000D01*
G75*
G02*
X-53235000Y69100000I-135000J0D01*
G01*
X-53505000Y69100000D01*
G75*
G02*
X-53640000Y69235000I0J135000D01*
G01*
G37*
G04 #@! TD*
G04 #@! TO.C,D10*
G36*
G01*
X80405000Y22445000D02*
X80405000Y22745000D01*
G75*
G02*
X80555000Y22895000I150000J0D01*
G01*
X81730000Y22895000D01*
G75*
G02*
X81880000Y22745000I0J-150000D01*
G01*
X81880000Y22445000D01*
G75*
G02*
X81730000Y22295000I-150000J0D01*
G01*
X80555000Y22295000D01*
G75*
G02*
X80405000Y22445000I0J150000D01*
G01*
G37*
G36*
G01*
X80405000Y20545000D02*
X80405000Y20845000D01*
G75*
G02*
X80555000Y20995000I150000J0D01*
G01*
X81730000Y20995000D01*
G75*
G02*
X81880000Y20845000I0J-150000D01*
G01*
X81880000Y20545000D01*
G75*
G02*
X81730000Y20395000I-150000J0D01*
G01*
X80555000Y20395000D01*
G75*
G02*
X80405000Y20545000I0J150000D01*
G01*
G37*
G36*
G01*
X82280000Y21495000D02*
X82280000Y21795000D01*
G75*
G02*
X82430000Y21945000I150000J0D01*
G01*
X83605000Y21945000D01*
G75*
G02*
X83755000Y21795000I0J-150000D01*
G01*
X83755000Y21495000D01*
G75*
G02*
X83605000Y21345000I-150000J0D01*
G01*
X82430000Y21345000D01*
G75*
G02*
X82280000Y21495000I0J150000D01*
G01*
G37*
G04 #@! TD*
G04 #@! TO.C,R13*
G36*
G01*
X-48840000Y73215000D02*
X-48840000Y73585000D01*
G75*
G02*
X-48705000Y73720000I135000J0D01*
G01*
X-48435000Y73720000D01*
G75*
G02*
X-48300000Y73585000I0J-135000D01*
G01*
X-48300000Y73215000D01*
G75*
G02*
X-48435000Y73080000I-135000J0D01*
G01*
X-48705000Y73080000D01*
G75*
G02*
X-48840000Y73215000I0J135000D01*
G01*
G37*
G36*
G01*
X-47820000Y73215000D02*
X-47820000Y73585000D01*
G75*
G02*
X-47685000Y73720000I135000J0D01*
G01*
X-47415000Y73720000D01*
G75*
G02*
X-47280000Y73585000I0J-135000D01*
G01*
X-47280000Y73215000D01*
G75*
G02*
X-47415000Y73080000I-135000J0D01*
G01*
X-47685000Y73080000D01*
G75*
G02*
X-47820000Y73215000I0J135000D01*
G01*
G37*
G04 #@! TD*
G04 #@! TO.C,C2*
G36*
G01*
X117500000Y35280000D02*
X117500000Y35780000D01*
G75*
G02*
X117725000Y36005000I225000J0D01*
G01*
X118175000Y36005000D01*
G75*
G02*
X118400000Y35780000I0J-225000D01*
G01*
X118400000Y35280000D01*
G75*
G02*
X118175000Y35055000I-225000J0D01*
G01*
X117725000Y35055000D01*
G75*
G02*
X117500000Y35280000I0J225000D01*
G01*
G37*
G36*
G01*
X119050000Y35280000D02*
X119050000Y35780000D01*
G75*
G02*
X119275000Y36005000I225000J0D01*
G01*
X119725000Y36005000D01*
G75*
G02*
X119950000Y35780000I0J-225000D01*
G01*
X119950000Y35280000D01*
G75*
G02*
X119725000Y35055000I-225000J0D01*
G01*
X119275000Y35055000D01*
G75*
G02*
X119050000Y35280000I0J225000D01*
G01*
G37*
G04 #@! TD*
G04 #@! TO.C,J6*
G36*
G01*
X-18850000Y17900001D02*
X-18850000Y20699999D01*
G75*
G02*
X-18599999Y20950000I250001J0D01*
G01*
X-16400001Y20950000D01*
G75*
G02*
X-16150000Y20699999I0J-250001D01*
G01*
X-16150000Y17900001D01*
G75*
G02*
X-16400001Y17650000I-250001J0D01*
G01*
X-18599999Y17650000D01*
G75*
G02*
X-18850000Y17900001I0J250001D01*
G01*
G37*
D25*
X-13300000Y19300000D03*
X-9100000Y19300000D03*
X-17500000Y13800000D03*
X-13300000Y13800000D03*
X-9100000Y13800000D03*
G04 #@! TD*
G04 #@! TO.C,J7*
G36*
G01*
X13550000Y19320000D02*
X13550000Y18120000D01*
G75*
G02*
X13300000Y17870000I-250000J0D01*
G01*
X12100000Y17870000D01*
G75*
G02*
X11850000Y18120000I0J250000D01*
G01*
X11850000Y19320000D01*
G75*
G02*
X12100000Y19570000I250000J0D01*
G01*
X13300000Y19570000D01*
G75*
G02*
X13550000Y19320000I0J-250000D01*
G01*
G37*
D18*
X10160000Y18720000D03*
X12700000Y21260000D03*
X10160000Y21260000D03*
X12700000Y23800000D03*
X10160000Y23800000D03*
X12700000Y26340000D03*
X10160000Y26340000D03*
X12700000Y28880000D03*
X10160000Y28880000D03*
X12700000Y31420000D03*
X10160000Y31420000D03*
X12700000Y33960000D03*
X10160000Y33960000D03*
X12700000Y36500000D03*
X10160000Y36500000D03*
X12700000Y39040000D03*
X10160000Y39040000D03*
X12700000Y41580000D03*
X10160000Y41580000D03*
X12700000Y44120000D03*
X10160000Y44120000D03*
X12700000Y46660000D03*
X10160000Y46660000D03*
X12700000Y49200000D03*
X10160000Y49200000D03*
X12700000Y51740000D03*
X10160000Y51740000D03*
X12700000Y54280000D03*
X10160000Y54280000D03*
X12700000Y56820000D03*
X10160000Y56820000D03*
X12700000Y59360000D03*
X10160000Y59360000D03*
X12700000Y61900000D03*
X10160000Y61900000D03*
X12700000Y64440000D03*
X10160000Y64440000D03*
X12700000Y66980000D03*
X10160000Y66980000D03*
G04 #@! TD*
D26*
G04 #@! TO.C,M7*
X48537495Y3756666D03*
D27*
X38187501Y3806664D03*
X38687502Y3806664D03*
D28*
X45237499Y4856662D03*
X44362497Y5381662D03*
X45537501Y6131660D03*
X45462498Y9681661D03*
G04 #@! TD*
G04 #@! TO.C,D2*
G36*
G01*
X-60305000Y95075000D02*
X-60305000Y95825000D01*
G75*
G02*
X-60080000Y96050000I225000J0D01*
G01*
X-59630000Y96050000D01*
G75*
G02*
X-59405000Y95825000I0J-225000D01*
G01*
X-59405000Y95075000D01*
G75*
G02*
X-59630000Y94850000I-225000J0D01*
G01*
X-60080000Y94850000D01*
G75*
G02*
X-60305000Y95075000I0J225000D01*
G01*
G37*
G36*
G01*
X-57005000Y95075000D02*
X-57005000Y95825000D01*
G75*
G02*
X-56780000Y96050000I225000J0D01*
G01*
X-56330000Y96050000D01*
G75*
G02*
X-56105000Y95825000I0J-225000D01*
G01*
X-56105000Y95075000D01*
G75*
G02*
X-56330000Y94850000I-225000J0D01*
G01*
X-56780000Y94850000D01*
G75*
G02*
X-57005000Y95075000I0J225000D01*
G01*
G37*
G04 #@! TD*
G04 #@! TO.C,C9*
G36*
G01*
X103470000Y30260000D02*
X103470000Y30760000D01*
G75*
G02*
X103695000Y30985000I225000J0D01*
G01*
X104145000Y30985000D01*
G75*
G02*
X104370000Y30760000I0J-225000D01*
G01*
X104370000Y30260000D01*
G75*
G02*
X104145000Y30035000I-225000J0D01*
G01*
X103695000Y30035000D01*
G75*
G02*
X103470000Y30260000I0J225000D01*
G01*
G37*
G36*
G01*
X105020000Y30260000D02*
X105020000Y30760000D01*
G75*
G02*
X105245000Y30985000I225000J0D01*
G01*
X105695000Y30985000D01*
G75*
G02*
X105920000Y30760000I0J-225000D01*
G01*
X105920000Y30260000D01*
G75*
G02*
X105695000Y30035000I-225000J0D01*
G01*
X105245000Y30035000D01*
G75*
G02*
X105020000Y30260000I0J225000D01*
G01*
G37*
G04 #@! TD*
G04 #@! TO.C,C1*
G36*
G01*
X117500000Y37790000D02*
X117500000Y38290000D01*
G75*
G02*
X117725000Y38515000I225000J0D01*
G01*
X118175000Y38515000D01*
G75*
G02*
X118400000Y38290000I0J-225000D01*
G01*
X118400000Y37790000D01*
G75*
G02*
X118175000Y37565000I-225000J0D01*
G01*
X117725000Y37565000D01*
G75*
G02*
X117500000Y37790000I0J225000D01*
G01*
G37*
G36*
G01*
X119050000Y37790000D02*
X119050000Y38290000D01*
G75*
G02*
X119275000Y38515000I225000J0D01*
G01*
X119725000Y38515000D01*
G75*
G02*
X119950000Y38290000I0J-225000D01*
G01*
X119950000Y37790000D01*
G75*
G02*
X119725000Y37565000I-225000J0D01*
G01*
X119275000Y37565000D01*
G75*
G02*
X119050000Y37790000I0J225000D01*
G01*
G37*
G04 #@! TD*
G04 #@! TO.C,C18*
G36*
G01*
X111490000Y32770000D02*
X111490000Y33270000D01*
G75*
G02*
X111715000Y33495000I225000J0D01*
G01*
X112165000Y33495000D01*
G75*
G02*
X112390000Y33270000I0J-225000D01*
G01*
X112390000Y32770000D01*
G75*
G02*
X112165000Y32545000I-225000J0D01*
G01*
X111715000Y32545000D01*
G75*
G02*
X111490000Y32770000I0J225000D01*
G01*
G37*
G36*
G01*
X113040000Y32770000D02*
X113040000Y33270000D01*
G75*
G02*
X113265000Y33495000I225000J0D01*
G01*
X113715000Y33495000D01*
G75*
G02*
X113940000Y33270000I0J-225000D01*
G01*
X113940000Y32770000D01*
G75*
G02*
X113715000Y32545000I-225000J0D01*
G01*
X113265000Y32545000D01*
G75*
G02*
X113040000Y32770000I0J225000D01*
G01*
G37*
G04 #@! TD*
M02*
