G04 #@! TF.GenerationSoftware,KiCad,Pcbnew,8.0.9-8.0.9-0~ubuntu24.04.1*
G04 #@! TF.CreationDate,2025-09-17T02:38:14+00:00*
G04 #@! TF.ProjectId,EP91Starlet,45503931-5374-4617-926c-65742e6b6963,rev?*
G04 #@! TF.SameCoordinates,Original*
G04 #@! TF.FileFunction,Legend,Bot*
G04 #@! TF.FilePolarity,Positive*
%FSLAX46Y46*%
G04 Gerber Fmt 4.6, Leading zero omitted, Abs format (unit mm)*
G04 Created by KiCad (PCBNEW 8.0.9-8.0.9-0~ubuntu24.04.1) date 2025-09-17 02:38:14*
%MOMM*%
%LPD*%
G01*
G04 APERTURE LIST*
%ADD10C,0.170000*%
%ADD11C,0.150000*%
%ADD12C,0.200000*%
%ADD13C,0.203200*%
%ADD14C,0.120000*%
G04 APERTURE END LIST*
D10*
X99476070Y67752093D02*
X99866546Y67478760D01*
X99476070Y67283522D02*
X100296070Y67283522D01*
X100296070Y67283522D02*
X100296070Y67595903D01*
X100296070Y67595903D02*
X100257022Y67673998D01*
X100257022Y67673998D02*
X100217975Y67713045D01*
X100217975Y67713045D02*
X100139879Y67752093D01*
X100139879Y67752093D02*
X100022737Y67752093D01*
X100022737Y67752093D02*
X99944641Y67713045D01*
X99944641Y67713045D02*
X99905594Y67673998D01*
X99905594Y67673998D02*
X99866546Y67595903D01*
X99866546Y67595903D02*
X99866546Y67283522D01*
X100296070Y68025426D02*
X100296070Y68572093D01*
X100296070Y68572093D02*
X99476070Y68220664D01*
X36992070Y91374093D02*
X37382546Y91100760D01*
X36992070Y90905522D02*
X37812070Y90905522D01*
X37812070Y90905522D02*
X37812070Y91217903D01*
X37812070Y91217903D02*
X37773022Y91295998D01*
X37773022Y91295998D02*
X37733975Y91335045D01*
X37733975Y91335045D02*
X37655879Y91374093D01*
X37655879Y91374093D02*
X37538737Y91374093D01*
X37538737Y91374093D02*
X37460641Y91335045D01*
X37460641Y91335045D02*
X37421594Y91295998D01*
X37421594Y91295998D02*
X37382546Y91217903D01*
X37382546Y91217903D02*
X37382546Y90905522D01*
X37733975Y91686474D02*
X37773022Y91725522D01*
X37773022Y91725522D02*
X37812070Y91803617D01*
X37812070Y91803617D02*
X37812070Y91998855D01*
X37812070Y91998855D02*
X37773022Y92076950D01*
X37773022Y92076950D02*
X37733975Y92115998D01*
X37733975Y92115998D02*
X37655879Y92155045D01*
X37655879Y92155045D02*
X37577784Y92155045D01*
X37577784Y92155045D02*
X37460641Y92115998D01*
X37460641Y92115998D02*
X36992070Y91647426D01*
X36992070Y91647426D02*
X36992070Y92155045D01*
X37812070Y92662664D02*
X37812070Y92740759D01*
X37812070Y92740759D02*
X37773022Y92818855D01*
X37773022Y92818855D02*
X37733975Y92857902D01*
X37733975Y92857902D02*
X37655879Y92896950D01*
X37655879Y92896950D02*
X37499689Y92935997D01*
X37499689Y92935997D02*
X37304451Y92935997D01*
X37304451Y92935997D02*
X37148260Y92896950D01*
X37148260Y92896950D02*
X37070165Y92857902D01*
X37070165Y92857902D02*
X37031118Y92818855D01*
X37031118Y92818855D02*
X36992070Y92740759D01*
X36992070Y92740759D02*
X36992070Y92662664D01*
X36992070Y92662664D02*
X37031118Y92584569D01*
X37031118Y92584569D02*
X37070165Y92545521D01*
X37070165Y92545521D02*
X37148260Y92506474D01*
X37148260Y92506474D02*
X37304451Y92467426D01*
X37304451Y92467426D02*
X37499689Y92467426D01*
X37499689Y92467426D02*
X37655879Y92506474D01*
X37655879Y92506474D02*
X37733975Y92545521D01*
X37733975Y92545521D02*
X37773022Y92584569D01*
X37773022Y92584569D02*
X37812070Y92662664D01*
D11*
X25117960Y80957181D02*
X25117960Y80147658D01*
X25117960Y80147658D02*
X25070341Y80052420D01*
X25070341Y80052420D02*
X25022722Y80004800D01*
X25022722Y80004800D02*
X24927484Y79957181D01*
X24927484Y79957181D02*
X24737008Y79957181D01*
X24737008Y79957181D02*
X24641770Y80004800D01*
X24641770Y80004800D02*
X24594151Y80052420D01*
X24594151Y80052420D02*
X24546532Y80147658D01*
X24546532Y80147658D02*
X24546532Y80957181D01*
X24165579Y80957181D02*
X23546532Y80957181D01*
X23546532Y80957181D02*
X23879865Y80576229D01*
X23879865Y80576229D02*
X23737008Y80576229D01*
X23737008Y80576229D02*
X23641770Y80528610D01*
X23641770Y80528610D02*
X23594151Y80480991D01*
X23594151Y80480991D02*
X23546532Y80385753D01*
X23546532Y80385753D02*
X23546532Y80147658D01*
X23546532Y80147658D02*
X23594151Y80052420D01*
X23594151Y80052420D02*
X23641770Y80004800D01*
X23641770Y80004800D02*
X23737008Y79957181D01*
X23737008Y79957181D02*
X24022722Y79957181D01*
X24022722Y79957181D02*
X24117960Y80004800D01*
X24117960Y80004800D02*
X24165579Y80052420D01*
X25117960Y101024181D02*
X25117960Y100214658D01*
X25117960Y100214658D02*
X25070341Y100119420D01*
X25070341Y100119420D02*
X25022722Y100071800D01*
X25022722Y100071800D02*
X24927484Y100024181D01*
X24927484Y100024181D02*
X24737008Y100024181D01*
X24737008Y100024181D02*
X24641770Y100071800D01*
X24641770Y100071800D02*
X24594151Y100119420D01*
X24594151Y100119420D02*
X24546532Y100214658D01*
X24546532Y100214658D02*
X24546532Y101024181D01*
X23546532Y100024181D02*
X24117960Y100024181D01*
X23832246Y100024181D02*
X23832246Y101024181D01*
X23832246Y101024181D02*
X23927484Y100881324D01*
X23927484Y100881324D02*
X24022722Y100786086D01*
X24022722Y100786086D02*
X24117960Y100738467D01*
D10*
X30090963Y77140015D02*
X30364296Y77530491D01*
X30559534Y77140015D02*
X30559534Y77960015D01*
X30559534Y77960015D02*
X30247153Y77960015D01*
X30247153Y77960015D02*
X30169058Y77920967D01*
X30169058Y77920967D02*
X30130011Y77881920D01*
X30130011Y77881920D02*
X30090963Y77803824D01*
X30090963Y77803824D02*
X30090963Y77686682D01*
X30090963Y77686682D02*
X30130011Y77608586D01*
X30130011Y77608586D02*
X30169058Y77569539D01*
X30169058Y77569539D02*
X30247153Y77530491D01*
X30247153Y77530491D02*
X30559534Y77530491D01*
X29778582Y77881920D02*
X29739534Y77920967D01*
X29739534Y77920967D02*
X29661439Y77960015D01*
X29661439Y77960015D02*
X29466201Y77960015D01*
X29466201Y77960015D02*
X29388106Y77920967D01*
X29388106Y77920967D02*
X29349058Y77881920D01*
X29349058Y77881920D02*
X29310011Y77803824D01*
X29310011Y77803824D02*
X29310011Y77725729D01*
X29310011Y77725729D02*
X29349058Y77608586D01*
X29349058Y77608586D02*
X29817630Y77140015D01*
X29817630Y77140015D02*
X29310011Y77140015D01*
X31090963Y99747015D02*
X31364296Y100137491D01*
X31559534Y99747015D02*
X31559534Y100567015D01*
X31559534Y100567015D02*
X31247153Y100567015D01*
X31247153Y100567015D02*
X31169058Y100527967D01*
X31169058Y100527967D02*
X31130011Y100488920D01*
X31130011Y100488920D02*
X31090963Y100410824D01*
X31090963Y100410824D02*
X31090963Y100293682D01*
X31090963Y100293682D02*
X31130011Y100215586D01*
X31130011Y100215586D02*
X31169058Y100176539D01*
X31169058Y100176539D02*
X31247153Y100137491D01*
X31247153Y100137491D02*
X31559534Y100137491D01*
X30310011Y99747015D02*
X30778582Y99747015D01*
X30544296Y99747015D02*
X30544296Y100567015D01*
X30544296Y100567015D02*
X30622392Y100449872D01*
X30622392Y100449872D02*
X30700487Y100371777D01*
X30700487Y100371777D02*
X30778582Y100332729D01*
X29841440Y100215586D02*
X29919535Y100254634D01*
X29919535Y100254634D02*
X29958582Y100293682D01*
X29958582Y100293682D02*
X29997630Y100371777D01*
X29997630Y100371777D02*
X29997630Y100410824D01*
X29997630Y100410824D02*
X29958582Y100488920D01*
X29958582Y100488920D02*
X29919535Y100527967D01*
X29919535Y100527967D02*
X29841440Y100567015D01*
X29841440Y100567015D02*
X29685249Y100567015D01*
X29685249Y100567015D02*
X29607154Y100527967D01*
X29607154Y100527967D02*
X29568106Y100488920D01*
X29568106Y100488920D02*
X29529059Y100410824D01*
X29529059Y100410824D02*
X29529059Y100371777D01*
X29529059Y100371777D02*
X29568106Y100293682D01*
X29568106Y100293682D02*
X29607154Y100254634D01*
X29607154Y100254634D02*
X29685249Y100215586D01*
X29685249Y100215586D02*
X29841440Y100215586D01*
X29841440Y100215586D02*
X29919535Y100176539D01*
X29919535Y100176539D02*
X29958582Y100137491D01*
X29958582Y100137491D02*
X29997630Y100059396D01*
X29997630Y100059396D02*
X29997630Y99903205D01*
X29997630Y99903205D02*
X29958582Y99825110D01*
X29958582Y99825110D02*
X29919535Y99786062D01*
X29919535Y99786062D02*
X29841440Y99747015D01*
X29841440Y99747015D02*
X29685249Y99747015D01*
X29685249Y99747015D02*
X29607154Y99786062D01*
X29607154Y99786062D02*
X29568106Y99825110D01*
X29568106Y99825110D02*
X29529059Y99903205D01*
X29529059Y99903205D02*
X29529059Y100059396D01*
X29529059Y100059396D02*
X29568106Y100137491D01*
X29568106Y100137491D02*
X29607154Y100176539D01*
X29607154Y100176539D02*
X29685249Y100215586D01*
X99476070Y59164093D02*
X99866546Y58890760D01*
X99476070Y58695522D02*
X100296070Y58695522D01*
X100296070Y58695522D02*
X100296070Y59007903D01*
X100296070Y59007903D02*
X100257022Y59085998D01*
X100257022Y59085998D02*
X100217975Y59125045D01*
X100217975Y59125045D02*
X100139879Y59164093D01*
X100139879Y59164093D02*
X100022737Y59164093D01*
X100022737Y59164093D02*
X99944641Y59125045D01*
X99944641Y59125045D02*
X99905594Y59085998D01*
X99905594Y59085998D02*
X99866546Y59007903D01*
X99866546Y59007903D02*
X99866546Y58695522D01*
X100296070Y59905998D02*
X100296070Y59515522D01*
X100296070Y59515522D02*
X99905594Y59476474D01*
X99905594Y59476474D02*
X99944641Y59515522D01*
X99944641Y59515522D02*
X99983689Y59593617D01*
X99983689Y59593617D02*
X99983689Y59788855D01*
X99983689Y59788855D02*
X99944641Y59866950D01*
X99944641Y59866950D02*
X99905594Y59905998D01*
X99905594Y59905998D02*
X99827498Y59945045D01*
X99827498Y59945045D02*
X99632260Y59945045D01*
X99632260Y59945045D02*
X99554165Y59905998D01*
X99554165Y59905998D02*
X99515118Y59866950D01*
X99515118Y59866950D02*
X99476070Y59788855D01*
X99476070Y59788855D02*
X99476070Y59593617D01*
X99476070Y59593617D02*
X99515118Y59515522D01*
X99515118Y59515522D02*
X99554165Y59476474D01*
X30090963Y69330015D02*
X30364296Y69720491D01*
X30559534Y69330015D02*
X30559534Y70150015D01*
X30559534Y70150015D02*
X30247153Y70150015D01*
X30247153Y70150015D02*
X30169058Y70110967D01*
X30169058Y70110967D02*
X30130011Y70071920D01*
X30130011Y70071920D02*
X30090963Y69993824D01*
X30090963Y69993824D02*
X30090963Y69876682D01*
X30090963Y69876682D02*
X30130011Y69798586D01*
X30130011Y69798586D02*
X30169058Y69759539D01*
X30169058Y69759539D02*
X30247153Y69720491D01*
X30247153Y69720491D02*
X30559534Y69720491D01*
X29310011Y69330015D02*
X29778582Y69330015D01*
X29544296Y69330015D02*
X29544296Y70150015D01*
X29544296Y70150015D02*
X29622392Y70032872D01*
X29622392Y70032872D02*
X29700487Y69954777D01*
X29700487Y69954777D02*
X29778582Y69915729D01*
D11*
X96680960Y79879181D02*
X96680960Y79069658D01*
X96680960Y79069658D02*
X96633341Y78974420D01*
X96633341Y78974420D02*
X96585722Y78926800D01*
X96585722Y78926800D02*
X96490484Y78879181D01*
X96490484Y78879181D02*
X96300008Y78879181D01*
X96300008Y78879181D02*
X96204770Y78926800D01*
X96204770Y78926800D02*
X96157151Y78974420D01*
X96157151Y78974420D02*
X96109532Y79069658D01*
X96109532Y79069658D02*
X96109532Y79879181D01*
X95157151Y79879181D02*
X95633341Y79879181D01*
X95633341Y79879181D02*
X95680960Y79402991D01*
X95680960Y79402991D02*
X95633341Y79450610D01*
X95633341Y79450610D02*
X95538103Y79498229D01*
X95538103Y79498229D02*
X95300008Y79498229D01*
X95300008Y79498229D02*
X95204770Y79450610D01*
X95204770Y79450610D02*
X95157151Y79402991D01*
X95157151Y79402991D02*
X95109532Y79307753D01*
X95109532Y79307753D02*
X95109532Y79069658D01*
X95109532Y79069658D02*
X95157151Y78974420D01*
X95157151Y78974420D02*
X95204770Y78926800D01*
X95204770Y78926800D02*
X95300008Y78879181D01*
X95300008Y78879181D02*
X95538103Y78879181D01*
X95538103Y78879181D02*
X95633341Y78926800D01*
X95633341Y78926800D02*
X95680960Y78974420D01*
D10*
X77856293Y72881492D02*
X77856293Y73701492D01*
X77856293Y73701492D02*
X77661055Y73701492D01*
X77661055Y73701492D02*
X77543912Y73662444D01*
X77543912Y73662444D02*
X77465817Y73584349D01*
X77465817Y73584349D02*
X77426770Y73506254D01*
X77426770Y73506254D02*
X77387722Y73350063D01*
X77387722Y73350063D02*
X77387722Y73232920D01*
X77387722Y73232920D02*
X77426770Y73076730D01*
X77426770Y73076730D02*
X77465817Y72998635D01*
X77465817Y72998635D02*
X77543912Y72920539D01*
X77543912Y72920539D02*
X77661055Y72881492D01*
X77661055Y72881492D02*
X77856293Y72881492D01*
X76684865Y73428159D02*
X76684865Y72881492D01*
X76880103Y73740539D02*
X77075341Y73154825D01*
X77075341Y73154825D02*
X76567722Y73154825D01*
D11*
X96680960Y87689181D02*
X96680960Y86879658D01*
X96680960Y86879658D02*
X96633341Y86784420D01*
X96633341Y86784420D02*
X96585722Y86736800D01*
X96585722Y86736800D02*
X96490484Y86689181D01*
X96490484Y86689181D02*
X96300008Y86689181D01*
X96300008Y86689181D02*
X96204770Y86736800D01*
X96204770Y86736800D02*
X96157151Y86784420D01*
X96157151Y86784420D02*
X96109532Y86879658D01*
X96109532Y86879658D02*
X96109532Y87689181D01*
X95204770Y87355848D02*
X95204770Y86689181D01*
X95442865Y87736800D02*
X95680960Y87022515D01*
X95680960Y87022515D02*
X95061913Y87022515D01*
X25117960Y73147181D02*
X25117960Y72337658D01*
X25117960Y72337658D02*
X25070341Y72242420D01*
X25070341Y72242420D02*
X25022722Y72194800D01*
X25022722Y72194800D02*
X24927484Y72147181D01*
X24927484Y72147181D02*
X24737008Y72147181D01*
X24737008Y72147181D02*
X24641770Y72194800D01*
X24641770Y72194800D02*
X24594151Y72242420D01*
X24594151Y72242420D02*
X24546532Y72337658D01*
X24546532Y72337658D02*
X24546532Y73147181D01*
X24117960Y73051943D02*
X24070341Y73099562D01*
X24070341Y73099562D02*
X23975103Y73147181D01*
X23975103Y73147181D02*
X23737008Y73147181D01*
X23737008Y73147181D02*
X23641770Y73099562D01*
X23641770Y73099562D02*
X23594151Y73051943D01*
X23594151Y73051943D02*
X23546532Y72956705D01*
X23546532Y72956705D02*
X23546532Y72861467D01*
X23546532Y72861467D02*
X23594151Y72718610D01*
X23594151Y72718610D02*
X24165579Y72147181D01*
X24165579Y72147181D02*
X23546532Y72147181D01*
D10*
X97950041Y55971908D02*
X97559565Y56245241D01*
X97950041Y56440479D02*
X97130041Y56440479D01*
X97130041Y56440479D02*
X97130041Y56128098D01*
X97130041Y56128098D02*
X97169089Y56050003D01*
X97169089Y56050003D02*
X97208136Y56010956D01*
X97208136Y56010956D02*
X97286232Y55971908D01*
X97286232Y55971908D02*
X97403374Y55971908D01*
X97403374Y55971908D02*
X97481470Y56010956D01*
X97481470Y56010956D02*
X97520517Y56050003D01*
X97520517Y56050003D02*
X97559565Y56128098D01*
X97559565Y56128098D02*
X97559565Y56440479D01*
X97130041Y55269051D02*
X97130041Y55425241D01*
X97130041Y55425241D02*
X97169089Y55503337D01*
X97169089Y55503337D02*
X97208136Y55542384D01*
X97208136Y55542384D02*
X97325279Y55620479D01*
X97325279Y55620479D02*
X97481470Y55659527D01*
X97481470Y55659527D02*
X97793851Y55659527D01*
X97793851Y55659527D02*
X97871946Y55620479D01*
X97871946Y55620479D02*
X97910994Y55581432D01*
X97910994Y55581432D02*
X97950041Y55503337D01*
X97950041Y55503337D02*
X97950041Y55347146D01*
X97950041Y55347146D02*
X97910994Y55269051D01*
X97910994Y55269051D02*
X97871946Y55230003D01*
X97871946Y55230003D02*
X97793851Y55190956D01*
X97793851Y55190956D02*
X97598613Y55190956D01*
X97598613Y55190956D02*
X97520517Y55230003D01*
X97520517Y55230003D02*
X97481470Y55269051D01*
X97481470Y55269051D02*
X97442422Y55347146D01*
X97442422Y55347146D02*
X97442422Y55503337D01*
X97442422Y55503337D02*
X97481470Y55581432D01*
X97481470Y55581432D02*
X97520517Y55620479D01*
X97520517Y55620479D02*
X97598613Y55659527D01*
X77856293Y78881492D02*
X77856293Y79701492D01*
X77856293Y79701492D02*
X77661055Y79701492D01*
X77661055Y79701492D02*
X77543912Y79662444D01*
X77543912Y79662444D02*
X77465817Y79584349D01*
X77465817Y79584349D02*
X77426770Y79506254D01*
X77426770Y79506254D02*
X77387722Y79350063D01*
X77387722Y79350063D02*
X77387722Y79232920D01*
X77387722Y79232920D02*
X77426770Y79076730D01*
X77426770Y79076730D02*
X77465817Y78998635D01*
X77465817Y78998635D02*
X77543912Y78920539D01*
X77543912Y78920539D02*
X77661055Y78881492D01*
X77661055Y78881492D02*
X77856293Y78881492D01*
X77075341Y79623397D02*
X77036293Y79662444D01*
X77036293Y79662444D02*
X76958198Y79701492D01*
X76958198Y79701492D02*
X76762960Y79701492D01*
X76762960Y79701492D02*
X76684865Y79662444D01*
X76684865Y79662444D02*
X76645817Y79623397D01*
X76645817Y79623397D02*
X76606770Y79545301D01*
X76606770Y79545301D02*
X76606770Y79467206D01*
X76606770Y79467206D02*
X76645817Y79350063D01*
X76645817Y79350063D02*
X77114389Y78881492D01*
X77114389Y78881492D02*
X76606770Y78881492D01*
X32672041Y96687908D02*
X32281565Y96961241D01*
X32672041Y97156479D02*
X31852041Y97156479D01*
X31852041Y97156479D02*
X31852041Y96844098D01*
X31852041Y96844098D02*
X31891089Y96766003D01*
X31891089Y96766003D02*
X31930136Y96726956D01*
X31930136Y96726956D02*
X32008232Y96687908D01*
X32008232Y96687908D02*
X32125374Y96687908D01*
X32125374Y96687908D02*
X32203470Y96726956D01*
X32203470Y96726956D02*
X32242517Y96766003D01*
X32242517Y96766003D02*
X32281565Y96844098D01*
X32281565Y96844098D02*
X32281565Y97156479D01*
X32672041Y95906956D02*
X32672041Y96375527D01*
X32672041Y96141241D02*
X31852041Y96141241D01*
X31852041Y96141241D02*
X31969184Y96219337D01*
X31969184Y96219337D02*
X32047279Y96297432D01*
X32047279Y96297432D02*
X32086327Y96375527D01*
X32672041Y95516480D02*
X32672041Y95360289D01*
X32672041Y95360289D02*
X32632994Y95282194D01*
X32632994Y95282194D02*
X32593946Y95243146D01*
X32593946Y95243146D02*
X32476803Y95165051D01*
X32476803Y95165051D02*
X32320613Y95126004D01*
X32320613Y95126004D02*
X32008232Y95126004D01*
X32008232Y95126004D02*
X31930136Y95165051D01*
X31930136Y95165051D02*
X31891089Y95204099D01*
X31891089Y95204099D02*
X31852041Y95282194D01*
X31852041Y95282194D02*
X31852041Y95438385D01*
X31852041Y95438385D02*
X31891089Y95516480D01*
X31891089Y95516480D02*
X31930136Y95555527D01*
X31930136Y95555527D02*
X32008232Y95594575D01*
X32008232Y95594575D02*
X32203470Y95594575D01*
X32203470Y95594575D02*
X32281565Y95555527D01*
X32281565Y95555527D02*
X32320613Y95516480D01*
X32320613Y95516480D02*
X32359660Y95438385D01*
X32359660Y95438385D02*
X32359660Y95282194D01*
X32359660Y95282194D02*
X32320613Y95204099D01*
X32320613Y95204099D02*
X32281565Y95165051D01*
X32281565Y95165051D02*
X32203470Y95126004D01*
X51136293Y99343492D02*
X51136293Y100163492D01*
X51136293Y100163492D02*
X50941055Y100163492D01*
X50941055Y100163492D02*
X50823912Y100124444D01*
X50823912Y100124444D02*
X50745817Y100046349D01*
X50745817Y100046349D02*
X50706770Y99968254D01*
X50706770Y99968254D02*
X50667722Y99812063D01*
X50667722Y99812063D02*
X50667722Y99694920D01*
X50667722Y99694920D02*
X50706770Y99538730D01*
X50706770Y99538730D02*
X50745817Y99460635D01*
X50745817Y99460635D02*
X50823912Y99382539D01*
X50823912Y99382539D02*
X50941055Y99343492D01*
X50941055Y99343492D02*
X51136293Y99343492D01*
X50199151Y99812063D02*
X50277246Y99851111D01*
X50277246Y99851111D02*
X50316293Y99890159D01*
X50316293Y99890159D02*
X50355341Y99968254D01*
X50355341Y99968254D02*
X50355341Y100007301D01*
X50355341Y100007301D02*
X50316293Y100085397D01*
X50316293Y100085397D02*
X50277246Y100124444D01*
X50277246Y100124444D02*
X50199151Y100163492D01*
X50199151Y100163492D02*
X50042960Y100163492D01*
X50042960Y100163492D02*
X49964865Y100124444D01*
X49964865Y100124444D02*
X49925817Y100085397D01*
X49925817Y100085397D02*
X49886770Y100007301D01*
X49886770Y100007301D02*
X49886770Y99968254D01*
X49886770Y99968254D02*
X49925817Y99890159D01*
X49925817Y99890159D02*
X49964865Y99851111D01*
X49964865Y99851111D02*
X50042960Y99812063D01*
X50042960Y99812063D02*
X50199151Y99812063D01*
X50199151Y99812063D02*
X50277246Y99773016D01*
X50277246Y99773016D02*
X50316293Y99733968D01*
X50316293Y99733968D02*
X50355341Y99655873D01*
X50355341Y99655873D02*
X50355341Y99499682D01*
X50355341Y99499682D02*
X50316293Y99421587D01*
X50316293Y99421587D02*
X50277246Y99382539D01*
X50277246Y99382539D02*
X50199151Y99343492D01*
X50199151Y99343492D02*
X50042960Y99343492D01*
X50042960Y99343492D02*
X49964865Y99382539D01*
X49964865Y99382539D02*
X49925817Y99421587D01*
X49925817Y99421587D02*
X49886770Y99499682D01*
X49886770Y99499682D02*
X49886770Y99655873D01*
X49886770Y99655873D02*
X49925817Y99733968D01*
X49925817Y99733968D02*
X49964865Y99773016D01*
X49964865Y99773016D02*
X50042960Y99812063D01*
X97950041Y64683908D02*
X97559565Y64957241D01*
X97950041Y65152479D02*
X97130041Y65152479D01*
X97130041Y65152479D02*
X97130041Y64840098D01*
X97130041Y64840098D02*
X97169089Y64762003D01*
X97169089Y64762003D02*
X97208136Y64722956D01*
X97208136Y64722956D02*
X97286232Y64683908D01*
X97286232Y64683908D02*
X97403374Y64683908D01*
X97403374Y64683908D02*
X97481470Y64722956D01*
X97481470Y64722956D02*
X97520517Y64762003D01*
X97520517Y64762003D02*
X97559565Y64840098D01*
X97559565Y64840098D02*
X97559565Y65152479D01*
X97481470Y64215337D02*
X97442422Y64293432D01*
X97442422Y64293432D02*
X97403374Y64332479D01*
X97403374Y64332479D02*
X97325279Y64371527D01*
X97325279Y64371527D02*
X97286232Y64371527D01*
X97286232Y64371527D02*
X97208136Y64332479D01*
X97208136Y64332479D02*
X97169089Y64293432D01*
X97169089Y64293432D02*
X97130041Y64215337D01*
X97130041Y64215337D02*
X97130041Y64059146D01*
X97130041Y64059146D02*
X97169089Y63981051D01*
X97169089Y63981051D02*
X97208136Y63942003D01*
X97208136Y63942003D02*
X97286232Y63902956D01*
X97286232Y63902956D02*
X97325279Y63902956D01*
X97325279Y63902956D02*
X97403374Y63942003D01*
X97403374Y63942003D02*
X97442422Y63981051D01*
X97442422Y63981051D02*
X97481470Y64059146D01*
X97481470Y64059146D02*
X97481470Y64215337D01*
X97481470Y64215337D02*
X97520517Y64293432D01*
X97520517Y64293432D02*
X97559565Y64332479D01*
X97559565Y64332479D02*
X97637660Y64371527D01*
X97637660Y64371527D02*
X97793851Y64371527D01*
X97793851Y64371527D02*
X97871946Y64332479D01*
X97871946Y64332479D02*
X97910994Y64293432D01*
X97910994Y64293432D02*
X97950041Y64215337D01*
X97950041Y64215337D02*
X97950041Y64059146D01*
X97950041Y64059146D02*
X97910994Y63981051D01*
X97910994Y63981051D02*
X97871946Y63942003D01*
X97871946Y63942003D02*
X97793851Y63902956D01*
X97793851Y63902956D02*
X97637660Y63902956D01*
X97637660Y63902956D02*
X97559565Y63942003D01*
X97559565Y63942003D02*
X97520517Y63981051D01*
X97520517Y63981051D02*
X97481470Y64059146D01*
X31090963Y97207015D02*
X31364296Y97597491D01*
X31559534Y97207015D02*
X31559534Y98027015D01*
X31559534Y98027015D02*
X31247153Y98027015D01*
X31247153Y98027015D02*
X31169058Y97987967D01*
X31169058Y97987967D02*
X31130011Y97948920D01*
X31130011Y97948920D02*
X31090963Y97870824D01*
X31090963Y97870824D02*
X31090963Y97753682D01*
X31090963Y97753682D02*
X31130011Y97675586D01*
X31130011Y97675586D02*
X31169058Y97636539D01*
X31169058Y97636539D02*
X31247153Y97597491D01*
X31247153Y97597491D02*
X31559534Y97597491D01*
X30310011Y97207015D02*
X30778582Y97207015D01*
X30544296Y97207015D02*
X30544296Y98027015D01*
X30544296Y98027015D02*
X30622392Y97909872D01*
X30622392Y97909872D02*
X30700487Y97831777D01*
X30700487Y97831777D02*
X30778582Y97792729D01*
X30036678Y98027015D02*
X29490011Y98027015D01*
X29490011Y98027015D02*
X29841440Y97207015D01*
X30090963Y79680015D02*
X30364296Y80070491D01*
X30559534Y79680015D02*
X30559534Y80500015D01*
X30559534Y80500015D02*
X30247153Y80500015D01*
X30247153Y80500015D02*
X30169058Y80460967D01*
X30169058Y80460967D02*
X30130011Y80421920D01*
X30130011Y80421920D02*
X30090963Y80343824D01*
X30090963Y80343824D02*
X30090963Y80226682D01*
X30090963Y80226682D02*
X30130011Y80148586D01*
X30130011Y80148586D02*
X30169058Y80109539D01*
X30169058Y80109539D02*
X30247153Y80070491D01*
X30247153Y80070491D02*
X30559534Y80070491D01*
X29388106Y80226682D02*
X29388106Y79680015D01*
X29583344Y80539062D02*
X29778582Y79953348D01*
X29778582Y79953348D02*
X29270963Y79953348D01*
X17836293Y96613492D02*
X17836293Y97433492D01*
X17836293Y97433492D02*
X17641055Y97433492D01*
X17641055Y97433492D02*
X17523912Y97394444D01*
X17523912Y97394444D02*
X17445817Y97316349D01*
X17445817Y97316349D02*
X17406770Y97238254D01*
X17406770Y97238254D02*
X17367722Y97082063D01*
X17367722Y97082063D02*
X17367722Y96964920D01*
X17367722Y96964920D02*
X17406770Y96808730D01*
X17406770Y96808730D02*
X17445817Y96730635D01*
X17445817Y96730635D02*
X17523912Y96652539D01*
X17523912Y96652539D02*
X17641055Y96613492D01*
X17641055Y96613492D02*
X17836293Y96613492D01*
X16625817Y97433492D02*
X17016293Y97433492D01*
X17016293Y97433492D02*
X17055341Y97043016D01*
X17055341Y97043016D02*
X17016293Y97082063D01*
X17016293Y97082063D02*
X16938198Y97121111D01*
X16938198Y97121111D02*
X16742960Y97121111D01*
X16742960Y97121111D02*
X16664865Y97082063D01*
X16664865Y97082063D02*
X16625817Y97043016D01*
X16625817Y97043016D02*
X16586770Y96964920D01*
X16586770Y96964920D02*
X16586770Y96769682D01*
X16586770Y96769682D02*
X16625817Y96691587D01*
X16625817Y96691587D02*
X16664865Y96652539D01*
X16664865Y96652539D02*
X16742960Y96613492D01*
X16742960Y96613492D02*
X16938198Y96613492D01*
X16938198Y96613492D02*
X17016293Y96652539D01*
X17016293Y96652539D02*
X17055341Y96691587D01*
X17836293Y94073492D02*
X17836293Y94893492D01*
X17836293Y94893492D02*
X17641055Y94893492D01*
X17641055Y94893492D02*
X17523912Y94854444D01*
X17523912Y94854444D02*
X17445817Y94776349D01*
X17445817Y94776349D02*
X17406770Y94698254D01*
X17406770Y94698254D02*
X17367722Y94542063D01*
X17367722Y94542063D02*
X17367722Y94424920D01*
X17367722Y94424920D02*
X17406770Y94268730D01*
X17406770Y94268730D02*
X17445817Y94190635D01*
X17445817Y94190635D02*
X17523912Y94112539D01*
X17523912Y94112539D02*
X17641055Y94073492D01*
X17641055Y94073492D02*
X17836293Y94073492D01*
X16664865Y94893492D02*
X16821055Y94893492D01*
X16821055Y94893492D02*
X16899151Y94854444D01*
X16899151Y94854444D02*
X16938198Y94815397D01*
X16938198Y94815397D02*
X17016293Y94698254D01*
X17016293Y94698254D02*
X17055341Y94542063D01*
X17055341Y94542063D02*
X17055341Y94229682D01*
X17055341Y94229682D02*
X17016293Y94151587D01*
X17016293Y94151587D02*
X16977246Y94112539D01*
X16977246Y94112539D02*
X16899151Y94073492D01*
X16899151Y94073492D02*
X16742960Y94073492D01*
X16742960Y94073492D02*
X16664865Y94112539D01*
X16664865Y94112539D02*
X16625817Y94151587D01*
X16625817Y94151587D02*
X16586770Y94229682D01*
X16586770Y94229682D02*
X16586770Y94424920D01*
X16586770Y94424920D02*
X16625817Y94503016D01*
X16625817Y94503016D02*
X16664865Y94542063D01*
X16664865Y94542063D02*
X16742960Y94581111D01*
X16742960Y94581111D02*
X16899151Y94581111D01*
X16899151Y94581111D02*
X16977246Y94542063D01*
X16977246Y94542063D02*
X17016293Y94503016D01*
X17016293Y94503016D02*
X17055341Y94424920D01*
X30090963Y71870015D02*
X30364296Y72260491D01*
X30559534Y71870015D02*
X30559534Y72690015D01*
X30559534Y72690015D02*
X30247153Y72690015D01*
X30247153Y72690015D02*
X30169058Y72650967D01*
X30169058Y72650967D02*
X30130011Y72611920D01*
X30130011Y72611920D02*
X30090963Y72533824D01*
X30090963Y72533824D02*
X30090963Y72416682D01*
X30090963Y72416682D02*
X30130011Y72338586D01*
X30130011Y72338586D02*
X30169058Y72299539D01*
X30169058Y72299539D02*
X30247153Y72260491D01*
X30247153Y72260491D02*
X30559534Y72260491D01*
X29817630Y72690015D02*
X29310011Y72690015D01*
X29310011Y72690015D02*
X29583344Y72377634D01*
X29583344Y72377634D02*
X29466201Y72377634D01*
X29466201Y72377634D02*
X29388106Y72338586D01*
X29388106Y72338586D02*
X29349058Y72299539D01*
X29349058Y72299539D02*
X29310011Y72221443D01*
X29310011Y72221443D02*
X29310011Y72026205D01*
X29310011Y72026205D02*
X29349058Y71948110D01*
X29349058Y71948110D02*
X29388106Y71909062D01*
X29388106Y71909062D02*
X29466201Y71870015D01*
X29466201Y71870015D02*
X29700487Y71870015D01*
X29700487Y71870015D02*
X29778582Y71909062D01*
X29778582Y71909062D02*
X29817630Y71948110D01*
X77856293Y75881492D02*
X77856293Y76701492D01*
X77856293Y76701492D02*
X77661055Y76701492D01*
X77661055Y76701492D02*
X77543912Y76662444D01*
X77543912Y76662444D02*
X77465817Y76584349D01*
X77465817Y76584349D02*
X77426770Y76506254D01*
X77426770Y76506254D02*
X77387722Y76350063D01*
X77387722Y76350063D02*
X77387722Y76232920D01*
X77387722Y76232920D02*
X77426770Y76076730D01*
X77426770Y76076730D02*
X77465817Y75998635D01*
X77465817Y75998635D02*
X77543912Y75920539D01*
X77543912Y75920539D02*
X77661055Y75881492D01*
X77661055Y75881492D02*
X77856293Y75881492D01*
X77114389Y76701492D02*
X76606770Y76701492D01*
X76606770Y76701492D02*
X76880103Y76389111D01*
X76880103Y76389111D02*
X76762960Y76389111D01*
X76762960Y76389111D02*
X76684865Y76350063D01*
X76684865Y76350063D02*
X76645817Y76311016D01*
X76645817Y76311016D02*
X76606770Y76232920D01*
X76606770Y76232920D02*
X76606770Y76037682D01*
X76606770Y76037682D02*
X76645817Y75959587D01*
X76645817Y75959587D02*
X76684865Y75920539D01*
X76684865Y75920539D02*
X76762960Y75881492D01*
X76762960Y75881492D02*
X76997246Y75881492D01*
X76997246Y75881492D02*
X77075341Y75920539D01*
X77075341Y75920539D02*
X77114389Y75959587D01*
X77856293Y81881492D02*
X77856293Y82701492D01*
X77856293Y82701492D02*
X77661055Y82701492D01*
X77661055Y82701492D02*
X77543912Y82662444D01*
X77543912Y82662444D02*
X77465817Y82584349D01*
X77465817Y82584349D02*
X77426770Y82506254D01*
X77426770Y82506254D02*
X77387722Y82350063D01*
X77387722Y82350063D02*
X77387722Y82232920D01*
X77387722Y82232920D02*
X77426770Y82076730D01*
X77426770Y82076730D02*
X77465817Y81998635D01*
X77465817Y81998635D02*
X77543912Y81920539D01*
X77543912Y81920539D02*
X77661055Y81881492D01*
X77661055Y81881492D02*
X77856293Y81881492D01*
X76606770Y81881492D02*
X77075341Y81881492D01*
X76841055Y81881492D02*
X76841055Y82701492D01*
X76841055Y82701492D02*
X76919151Y82584349D01*
X76919151Y82584349D02*
X76997246Y82506254D01*
X76997246Y82506254D02*
X77075341Y82467206D01*
X51136293Y96803492D02*
X51136293Y97623492D01*
X51136293Y97623492D02*
X50941055Y97623492D01*
X50941055Y97623492D02*
X50823912Y97584444D01*
X50823912Y97584444D02*
X50745817Y97506349D01*
X50745817Y97506349D02*
X50706770Y97428254D01*
X50706770Y97428254D02*
X50667722Y97272063D01*
X50667722Y97272063D02*
X50667722Y97154920D01*
X50667722Y97154920D02*
X50706770Y96998730D01*
X50706770Y96998730D02*
X50745817Y96920635D01*
X50745817Y96920635D02*
X50823912Y96842539D01*
X50823912Y96842539D02*
X50941055Y96803492D01*
X50941055Y96803492D02*
X51136293Y96803492D01*
X50394389Y97623492D02*
X49847722Y97623492D01*
X49847722Y97623492D02*
X50199151Y96803492D01*
D11*
X44167960Y94224181D02*
X44167960Y93414658D01*
X44167960Y93414658D02*
X44120341Y93319420D01*
X44120341Y93319420D02*
X44072722Y93271800D01*
X44072722Y93271800D02*
X43977484Y93224181D01*
X43977484Y93224181D02*
X43787008Y93224181D01*
X43787008Y93224181D02*
X43691770Y93271800D01*
X43691770Y93271800D02*
X43644151Y93319420D01*
X43644151Y93319420D02*
X43596532Y93414658D01*
X43596532Y93414658D02*
X43596532Y94224181D01*
X42691770Y94224181D02*
X42882246Y94224181D01*
X42882246Y94224181D02*
X42977484Y94176562D01*
X42977484Y94176562D02*
X43025103Y94128943D01*
X43025103Y94128943D02*
X43120341Y93986086D01*
X43120341Y93986086D02*
X43167960Y93795610D01*
X43167960Y93795610D02*
X43167960Y93414658D01*
X43167960Y93414658D02*
X43120341Y93319420D01*
X43120341Y93319420D02*
X43072722Y93271800D01*
X43072722Y93271800D02*
X42977484Y93224181D01*
X42977484Y93224181D02*
X42787008Y93224181D01*
X42787008Y93224181D02*
X42691770Y93271800D01*
X42691770Y93271800D02*
X42644151Y93319420D01*
X42644151Y93319420D02*
X42596532Y93414658D01*
X42596532Y93414658D02*
X42596532Y93652753D01*
X42596532Y93652753D02*
X42644151Y93747991D01*
X42644151Y93747991D02*
X42691770Y93795610D01*
X42691770Y93795610D02*
X42787008Y93843229D01*
X42787008Y93843229D02*
X42977484Y93843229D01*
X42977484Y93843229D02*
X43072722Y93795610D01*
X43072722Y93795610D02*
X43120341Y93747991D01*
X43120341Y93747991D02*
X43167960Y93652753D01*
D12*
G04 #@! TO.C,M5*
X47732056Y81721000D02*
X47732056Y66721000D01*
X47732056Y81721000D02*
X49032056Y81721000D01*
X47732056Y66721000D02*
X52832056Y66721000D01*
X57332056Y81721000D02*
X50932056Y81721000D01*
X57332056Y67321000D02*
X57332056Y81721000D01*
G04 #@! TO.C,M7*
X58099566Y2843498D02*
X58060719Y14018498D01*
X63797388Y2843498D02*
X58099566Y2843498D01*
X63797388Y2843498D02*
X64072394Y3118502D01*
X64897393Y3118502D02*
X64072394Y3118502D01*
X64897393Y3118502D02*
X64947393Y3174704D01*
X64947393Y3174704D02*
X64947393Y14018498D01*
X64953596Y14018498D02*
X58060719Y14018498D01*
G04 #@! TO.C,M2*
X25976058Y59373003D02*
X25976055Y19473004D01*
X27276055Y19473004D02*
X25976055Y19473004D01*
X68076058Y59373003D02*
X25976058Y59373003D01*
X68076058Y59373003D02*
X68076058Y19473004D01*
X68076058Y19473004D02*
X27276055Y19473004D01*
G04 #@! TO.C,M3*
X76699997Y51000000D02*
X76699997Y60100000D01*
X79800000Y51000000D02*
X78799998Y51000000D01*
X79800000Y51000000D02*
X79800000Y60100000D01*
G04 #@! TO.C,M4*
X75972656Y31602600D02*
X89872656Y31602600D01*
X89872656Y4102600D01*
X75972656Y4102600D01*
X75972656Y31602600D01*
G04 #@! TO.C,M6*
X643056Y29951999D02*
X643056Y14551999D01*
X643056Y29951999D02*
X943056Y29951999D01*
X2093056Y13152002D02*
X3643056Y13151997D01*
X2543056Y29951999D02*
X12943058Y29951999D01*
X5643058Y13152002D02*
X6743061Y13152002D01*
X8343056Y13152002D02*
X11043056Y13152002D01*
X14543058Y13152002D02*
X19343058Y13152002D01*
X14643056Y29951999D02*
X17843059Y29951999D01*
X20943058Y13152000D02*
X21243056Y13152000D01*
X21243054Y28451999D02*
X21243056Y13152000D01*
G04 #@! TO.C,M1*
X58732056Y81721000D02*
X58732056Y66721000D01*
X58732056Y81721000D02*
X60032056Y81721000D01*
X58732056Y66721000D02*
X63832056Y66721000D01*
X68332056Y81721000D02*
X61932056Y81721000D01*
X68332056Y67321000D02*
X68332056Y81721000D01*
D13*
G04 #@! TO.C,R7*
X98342205Y68410943D02*
X98342216Y68010944D01*
X99088041Y68412000D02*
X99088051Y68012000D01*
G04 #@! TO.C,R20*
X35858205Y92032943D02*
X35858216Y91632944D01*
X36604041Y92034000D02*
X36604051Y91634000D01*
D14*
G04 #@! TO.C,U3*
X22406056Y79572000D02*
X24356056Y79572000D01*
X22406056Y74452000D02*
X24356056Y74452000D01*
X26306056Y79572000D02*
X24356056Y79572000D01*
X26306056Y74452000D02*
X24356056Y74452000D01*
X27056056Y79477000D02*
X26816056Y79807000D01*
X27296056Y79807000D01*
X27056056Y79477000D01*
G36*
X27056056Y79477000D02*
G01*
X26816056Y79807000D01*
X27296056Y79807000D01*
X27056056Y79477000D01*
G37*
G04 #@! TO.C,U1*
X22406056Y99639000D02*
X24356056Y99639000D01*
X22406056Y94519000D02*
X24356056Y94519000D01*
X26306056Y99639000D02*
X24356056Y99639000D01*
X26306056Y94519000D02*
X24356056Y94519000D01*
X27056056Y99544000D02*
X26816056Y99874000D01*
X27296056Y99874000D01*
X27056056Y99544000D01*
G36*
X27056056Y99544000D02*
G01*
X26816056Y99874000D01*
X27296056Y99874000D01*
X27056056Y99544000D01*
G37*
D13*
G04 #@! TO.C,R2*
X29431056Y76751985D02*
X29831056Y76751995D01*
X29432113Y76006149D02*
X29832112Y76006160D01*
G04 #@! TO.C,R18*
X30431056Y99358985D02*
X30831056Y99358995D01*
X30432113Y98613149D02*
X30832112Y98613160D01*
G04 #@! TO.C,R5*
X98342205Y59822943D02*
X98342216Y59422944D01*
X99088041Y59824000D02*
X99088051Y59424000D01*
G04 #@! TO.C,R1*
X29431056Y68941985D02*
X29831056Y68941995D01*
X29432113Y68196149D02*
X29832112Y68196160D01*
D14*
G04 #@! TO.C,U5*
X93969056Y78494000D02*
X95919056Y78494000D01*
X93969056Y73374000D02*
X95919056Y73374000D01*
X97869056Y78494000D02*
X95919056Y78494000D01*
X97869056Y73374000D02*
X95919056Y73374000D01*
X98619056Y78399000D02*
X98379056Y78729000D01*
X98859056Y78729000D01*
X98619056Y78399000D01*
G36*
X98619056Y78399000D02*
G01*
X98379056Y78729000D01*
X98859056Y78729000D01*
X98619056Y78399000D01*
G37*
G04 #@! TO.C,D4*
X75001056Y76252000D02*
X75001056Y74252000D01*
D10*
X76901056Y75252000D02*
X76701056Y75252000D01*
X76901056Y74902000D02*
X76901056Y75602000D01*
X77601056Y75602000D02*
X76901056Y75252000D01*
X77601056Y74902000D02*
X76901056Y75252000D01*
X77601056Y74902000D02*
X77601056Y75602000D01*
X77901056Y75252000D02*
X77601056Y75252000D01*
D14*
X78901056Y76252000D02*
X75001056Y76252000D01*
X78901056Y74252000D02*
X75001056Y74252000D01*
G04 #@! TO.C,U4*
X93969056Y86304000D02*
X95919056Y86304000D01*
X93969056Y81184000D02*
X95919056Y81184000D01*
X97869056Y86304000D02*
X95919056Y86304000D01*
X97869056Y81184000D02*
X95919056Y81184000D01*
X98619056Y86209000D02*
X98379056Y86539000D01*
X98859056Y86539000D01*
X98619056Y86209000D01*
G36*
X98619056Y86209000D02*
G01*
X98379056Y86539000D01*
X98859056Y86539000D01*
X98619056Y86209000D01*
G37*
G04 #@! TO.C,U2*
X22406056Y71762000D02*
X24356056Y71762000D01*
X22406056Y66642000D02*
X24356056Y66642000D01*
X26306056Y71762000D02*
X24356056Y71762000D01*
X26306056Y66642000D02*
X24356056Y66642000D01*
X27056056Y71667000D02*
X26816056Y71997000D01*
X27296056Y71997000D01*
X27056056Y71667000D01*
G36*
X27056056Y71667000D02*
G01*
X26816056Y71997000D01*
X27296056Y71997000D01*
X27056056Y71667000D01*
G37*
D13*
G04 #@! TO.C,R6*
X98338071Y55312000D02*
X98338061Y55712000D01*
X99083907Y55313057D02*
X99083896Y55713056D01*
D14*
G04 #@! TO.C,D2*
X75001056Y82252000D02*
X75001056Y80252000D01*
D10*
X76901056Y81252000D02*
X76701056Y81252000D01*
X76901056Y80902000D02*
X76901056Y81602000D01*
X77601056Y81602000D02*
X76901056Y81252000D01*
X77601056Y80902000D02*
X76901056Y81252000D01*
X77601056Y80902000D02*
X77601056Y81602000D01*
X77901056Y81252000D02*
X77601056Y81252000D01*
D14*
X78901056Y82252000D02*
X75001056Y82252000D01*
X78901056Y80252000D02*
X75001056Y80252000D01*
D13*
G04 #@! TO.C,R19*
X33060071Y96028000D02*
X33060061Y96428000D01*
X33805907Y96029057D02*
X33805896Y96429056D01*
D14*
G04 #@! TO.C,D8*
X48881056Y98714000D02*
X52781056Y98714000D01*
X48881056Y96714000D02*
X52781056Y96714000D01*
D10*
X49881056Y97714000D02*
X50181056Y97714000D01*
X50181056Y98064000D02*
X50181056Y97364000D01*
X50181056Y98064000D02*
X50881056Y97714000D01*
X50181056Y97364000D02*
X50881056Y97714000D01*
X50881056Y98064000D02*
X50881056Y97364000D01*
X50881056Y97714000D02*
X51081056Y97714000D01*
D14*
X52781056Y96714000D02*
X52781056Y98714000D01*
D13*
G04 #@! TO.C,R8*
X98338071Y64024000D02*
X98338061Y64424000D01*
X99083907Y64025057D02*
X99083896Y64425056D01*
G04 #@! TO.C,R17*
X30431056Y96818985D02*
X30831056Y96818995D01*
X30432113Y96073149D02*
X30832112Y96073160D01*
G04 #@! TO.C,R4*
X29431056Y79291985D02*
X29831056Y79291995D01*
X29432113Y78546149D02*
X29832112Y78546160D01*
D14*
G04 #@! TO.C,D5*
X14981056Y99984000D02*
X14981056Y97984000D01*
D10*
X16881056Y98984000D02*
X16681056Y98984000D01*
X16881056Y98634000D02*
X16881056Y99334000D01*
X17581056Y99334000D02*
X16881056Y98984000D01*
X17581056Y98634000D02*
X16881056Y98984000D01*
X17581056Y98634000D02*
X17581056Y99334000D01*
X17881056Y98984000D02*
X17581056Y98984000D01*
D14*
X18881056Y99984000D02*
X14981056Y99984000D01*
X18881056Y97984000D02*
X14981056Y97984000D01*
G04 #@! TO.C,D6*
X14981056Y97444000D02*
X14981056Y95444000D01*
D10*
X16881056Y96444000D02*
X16681056Y96444000D01*
X16881056Y96094000D02*
X16881056Y96794000D01*
X17581056Y96794000D02*
X16881056Y96444000D01*
X17581056Y96094000D02*
X16881056Y96444000D01*
X17581056Y96094000D02*
X17581056Y96794000D01*
X17881056Y96444000D02*
X17581056Y96444000D01*
D14*
X18881056Y97444000D02*
X14981056Y97444000D01*
X18881056Y95444000D02*
X14981056Y95444000D01*
D13*
G04 #@! TO.C,R3*
X29431056Y71481985D02*
X29831056Y71481995D01*
X29432113Y70736149D02*
X29832112Y70736160D01*
D14*
G04 #@! TO.C,D3*
X75001056Y79252000D02*
X75001056Y77252000D01*
D10*
X76901056Y78252000D02*
X76701056Y78252000D01*
X76901056Y77902000D02*
X76901056Y78602000D01*
X77601056Y78602000D02*
X76901056Y78252000D01*
X77601056Y77902000D02*
X76901056Y78252000D01*
X77601056Y77902000D02*
X77601056Y78602000D01*
X77901056Y78252000D02*
X77601056Y78252000D01*
D14*
X78901056Y79252000D02*
X75001056Y79252000D01*
X78901056Y77252000D02*
X75001056Y77252000D01*
G04 #@! TO.C,D1*
X75001056Y85252000D02*
X75001056Y83252000D01*
D10*
X76901056Y84252000D02*
X76701056Y84252000D01*
X76901056Y83902000D02*
X76901056Y84602000D01*
X77601056Y84602000D02*
X76901056Y84252000D01*
X77601056Y83902000D02*
X76901056Y84252000D01*
X77601056Y83902000D02*
X77601056Y84602000D01*
X77901056Y84252000D02*
X77601056Y84252000D01*
D14*
X78901056Y85252000D02*
X75001056Y85252000D01*
X78901056Y83252000D02*
X75001056Y83252000D01*
G04 #@! TO.C,D7*
X48881056Y96174000D02*
X52781056Y96174000D01*
X48881056Y94174000D02*
X52781056Y94174000D01*
D10*
X49881056Y95174000D02*
X50181056Y95174000D01*
X50181056Y95524000D02*
X50181056Y94824000D01*
X50181056Y95524000D02*
X50881056Y95174000D01*
X50181056Y94824000D02*
X50881056Y95174000D01*
X50881056Y95524000D02*
X50881056Y94824000D01*
X50881056Y95174000D02*
X51081056Y95174000D01*
D14*
X52781056Y94174000D02*
X52781056Y96174000D01*
G04 #@! TO.C,U6*
X41456056Y99639000D02*
X43406056Y99639000D01*
X41456056Y94519000D02*
X43406056Y94519000D01*
X45356056Y99639000D02*
X43406056Y99639000D01*
X45356056Y94519000D02*
X43406056Y94519000D01*
X40946056Y94284000D02*
X40466056Y94284000D01*
X40706056Y94614000D01*
X40946056Y94284000D01*
G36*
X40946056Y94284000D02*
G01*
X40466056Y94284000D01*
X40706056Y94614000D01*
X40946056Y94284000D01*
G37*
G04 #@! TD*
M02*
