G04 #@! TF.GenerationSoftware,KiCad,Pcbnew,8.0.9-8.0.9-0~ubuntu24.04.1*
G04 #@! TF.CreationDate,2026-04-02T00:30:11+00:00*
G04 #@! TF.ProjectId,EP91Starlet,45503931-5374-4617-926c-65742e6b6963,rev?*
G04 #@! TF.SameCoordinates,Original*
G04 #@! TF.FileFunction,Soldermask,Top*
G04 #@! TF.FilePolarity,Negative*
%FSLAX46Y46*%
G04 Gerber Fmt 4.6, Leading zero omitted, Abs format (unit mm)*
G04 Created by KiCad (PCBNEW 8.0.9-8.0.9-0~ubuntu24.04.1) date 2026-04-02 00:30:11*
%MOMM*%
%LPD*%
G01*
G04 APERTURE LIST*
%ADD10C,0.600000*%
%ADD11R,1.700000X1.700000*%
%ADD12O,1.700000X1.700000*%
%ADD13C,1.500000*%
%ADD14R,4.399991X2.299995*%
%ADD15R,3.999992X2.299995*%
%ADD16R,0.650000X2.000000*%
%ADD17R,8.100000X4.500000*%
%ADD18C,1.700000*%
%ADD19C,3.500000*%
%ADD20O,3.300000X2.700000*%
%ADD21C,1.000000*%
%ADD22R,1.650000X1.650000*%
%ADD23C,1.650000*%
%ADD24C,5.250000*%
%ADD25O,2.700000X3.300000*%
%ADD26O,0.499999X0.250000*%
%ADD27O,0.250000X0.499999*%
%ADD28C,0.599999*%
G04 APERTURE END LIST*
D10*
G04 #@! TO.C,M6*
X-55475000Y42674997D03*
X-55475000Y41724997D03*
X-55475000Y40774999D03*
X-64175000Y41774997D03*
X-64175000Y42674997D03*
G04 #@! TD*
G04 #@! TO.C,D9*
G36*
G01*
X-60305000Y74975000D02*
X-60305000Y75725000D01*
G75*
G02*
X-60080000Y75950000I225000J0D01*
G01*
X-59630000Y75950000D01*
G75*
G02*
X-59405000Y75725000I0J-225000D01*
G01*
X-59405000Y74975000D01*
G75*
G02*
X-59630000Y74750000I-225000J0D01*
G01*
X-60080000Y74750000D01*
G75*
G02*
X-60305000Y74975000I0J225000D01*
G01*
G37*
G36*
G01*
X-57005000Y74975000D02*
X-57005000Y75725000D01*
G75*
G02*
X-56780000Y75950000I225000J0D01*
G01*
X-56330000Y75950000D01*
G75*
G02*
X-56105000Y75725000I0J-225000D01*
G01*
X-56105000Y74975000D01*
G75*
G02*
X-56330000Y74750000I-225000J0D01*
G01*
X-56780000Y74750000D01*
G75*
G02*
X-57005000Y74975000I0J225000D01*
G01*
G37*
G04 #@! TD*
D11*
G04 #@! TO.C,J3*
X88850000Y28300000D03*
D12*
X88850000Y25760000D03*
G04 #@! TD*
G04 #@! TO.C,U3*
G36*
G01*
X-2903500Y53893000D02*
X-3506500Y53893000D01*
G75*
G02*
X-3607000Y53993500I0J100500D01*
G01*
X-3607000Y55966500D01*
G75*
G02*
X-3506500Y56067000I100500J0D01*
G01*
X-2903500Y56067000D01*
G75*
G02*
X-2803000Y55966500I0J-100500D01*
G01*
X-2803000Y53993500D01*
G75*
G02*
X-2903500Y53893000I-100500J0D01*
G01*
G37*
G36*
G01*
X-1633500Y53893000D02*
X-2236500Y53893000D01*
G75*
G02*
X-2337000Y53993500I0J100500D01*
G01*
X-2337000Y55966500D01*
G75*
G02*
X-2236500Y56067000I100500J0D01*
G01*
X-1633500Y56067000D01*
G75*
G02*
X-1533000Y55966500I0J-100500D01*
G01*
X-1533000Y53993500D01*
G75*
G02*
X-1633500Y53893000I-100500J0D01*
G01*
G37*
G36*
G01*
X-363500Y53893000D02*
X-966500Y53893000D01*
G75*
G02*
X-1067000Y53993500I0J100500D01*
G01*
X-1067000Y55966500D01*
G75*
G02*
X-966500Y56067000I100500J0D01*
G01*
X-363500Y56067000D01*
G75*
G02*
X-263000Y55966500I0J-100500D01*
G01*
X-263000Y53993500D01*
G75*
G02*
X-363500Y53893000I-100500J0D01*
G01*
G37*
G36*
G01*
X906500Y53893000D02*
X303500Y53893000D01*
G75*
G02*
X203000Y53993500I0J100500D01*
G01*
X203000Y55966500D01*
G75*
G02*
X303500Y56067000I100500J0D01*
G01*
X906500Y56067000D01*
G75*
G02*
X1007000Y55966500I0J-100500D01*
G01*
X1007000Y53993500D01*
G75*
G02*
X906500Y53893000I-100500J0D01*
G01*
G37*
G36*
G01*
X906500Y58843000D02*
X303500Y58843000D01*
G75*
G02*
X203000Y58943500I0J100500D01*
G01*
X203000Y60916500D01*
G75*
G02*
X303500Y61017000I100500J0D01*
G01*
X906500Y61017000D01*
G75*
G02*
X1007000Y60916500I0J-100500D01*
G01*
X1007000Y58943500D01*
G75*
G02*
X906500Y58843000I-100500J0D01*
G01*
G37*
G36*
G01*
X-363500Y58843000D02*
X-966500Y58843000D01*
G75*
G02*
X-1067000Y58943500I0J100500D01*
G01*
X-1067000Y60916500D01*
G75*
G02*
X-966500Y61017000I100500J0D01*
G01*
X-363500Y61017000D01*
G75*
G02*
X-263000Y60916500I0J-100500D01*
G01*
X-263000Y58943500D01*
G75*
G02*
X-363500Y58843000I-100500J0D01*
G01*
G37*
G36*
G01*
X-1633500Y58843000D02*
X-2236500Y58843000D01*
G75*
G02*
X-2337000Y58943500I0J100500D01*
G01*
X-2337000Y60916500D01*
G75*
G02*
X-2236500Y61017000I100500J0D01*
G01*
X-1633500Y61017000D01*
G75*
G02*
X-1533000Y60916500I0J-100500D01*
G01*
X-1533000Y58943500D01*
G75*
G02*
X-1633500Y58843000I-100500J0D01*
G01*
G37*
G36*
G01*
X-2903500Y58843000D02*
X-3506500Y58843000D01*
G75*
G02*
X-3607000Y58943500I0J100500D01*
G01*
X-3607000Y60916500D01*
G75*
G02*
X-3506500Y61017000I100500J0D01*
G01*
X-2903500Y61017000D01*
G75*
G02*
X-2803000Y60916500I0J-100500D01*
G01*
X-2803000Y58943500D01*
G75*
G02*
X-2903500Y58843000I-100500J0D01*
G01*
G37*
G04 #@! TD*
G04 #@! TO.C,U1*
G36*
G01*
X68313000Y73238500D02*
X68313000Y73841500D01*
G75*
G02*
X68413500Y73942000I100500J0D01*
G01*
X70386500Y73942000D01*
G75*
G02*
X70487000Y73841500I0J-100500D01*
G01*
X70487000Y73238500D01*
G75*
G02*
X70386500Y73138000I-100500J0D01*
G01*
X68413500Y73138000D01*
G75*
G02*
X68313000Y73238500I0J100500D01*
G01*
G37*
G36*
G01*
X68313000Y71968500D02*
X68313000Y72571500D01*
G75*
G02*
X68413500Y72672000I100500J0D01*
G01*
X70386500Y72672000D01*
G75*
G02*
X70487000Y72571500I0J-100500D01*
G01*
X70487000Y71968500D01*
G75*
G02*
X70386500Y71868000I-100500J0D01*
G01*
X68413500Y71868000D01*
G75*
G02*
X68313000Y71968500I0J100500D01*
G01*
G37*
G36*
G01*
X68313000Y70698500D02*
X68313000Y71301500D01*
G75*
G02*
X68413500Y71402000I100500J0D01*
G01*
X70386500Y71402000D01*
G75*
G02*
X70487000Y71301500I0J-100500D01*
G01*
X70487000Y70698500D01*
G75*
G02*
X70386500Y70598000I-100500J0D01*
G01*
X68413500Y70598000D01*
G75*
G02*
X68313000Y70698500I0J100500D01*
G01*
G37*
G36*
G01*
X68313000Y69428500D02*
X68313000Y70031500D01*
G75*
G02*
X68413500Y70132000I100500J0D01*
G01*
X70386500Y70132000D01*
G75*
G02*
X70487000Y70031500I0J-100500D01*
G01*
X70487000Y69428500D01*
G75*
G02*
X70386500Y69328000I-100500J0D01*
G01*
X68413500Y69328000D01*
G75*
G02*
X68313000Y69428500I0J100500D01*
G01*
G37*
G36*
G01*
X73263000Y69428500D02*
X73263000Y70031500D01*
G75*
G02*
X73363500Y70132000I100500J0D01*
G01*
X75336500Y70132000D01*
G75*
G02*
X75437000Y70031500I0J-100500D01*
G01*
X75437000Y69428500D01*
G75*
G02*
X75336500Y69328000I-100500J0D01*
G01*
X73363500Y69328000D01*
G75*
G02*
X73263000Y69428500I0J100500D01*
G01*
G37*
G36*
G01*
X73263000Y70698500D02*
X73263000Y71301500D01*
G75*
G02*
X73363500Y71402000I100500J0D01*
G01*
X75336500Y71402000D01*
G75*
G02*
X75437000Y71301500I0J-100500D01*
G01*
X75437000Y70698500D01*
G75*
G02*
X75336500Y70598000I-100500J0D01*
G01*
X73363500Y70598000D01*
G75*
G02*
X73263000Y70698500I0J100500D01*
G01*
G37*
G36*
G01*
X73263000Y71968500D02*
X73263000Y72571500D01*
G75*
G02*
X73363500Y72672000I100500J0D01*
G01*
X75336500Y72672000D01*
G75*
G02*
X75437000Y72571500I0J-100500D01*
G01*
X75437000Y71968500D01*
G75*
G02*
X75336500Y71868000I-100500J0D01*
G01*
X73363500Y71868000D01*
G75*
G02*
X73263000Y71968500I0J100500D01*
G01*
G37*
G36*
G01*
X73263000Y73238500D02*
X73263000Y73841500D01*
G75*
G02*
X73363500Y73942000I100500J0D01*
G01*
X75336500Y73942000D01*
G75*
G02*
X75437000Y73841500I0J-100500D01*
G01*
X75437000Y73238500D01*
G75*
G02*
X75336500Y73138000I-100500J0D01*
G01*
X73363500Y73138000D01*
G75*
G02*
X73263000Y73238500I0J100500D01*
G01*
G37*
G04 #@! TD*
G04 #@! TO.C,R14*
G36*
G01*
X-48840000Y71225000D02*
X-48840000Y71595000D01*
G75*
G02*
X-48705000Y71730000I135000J0D01*
G01*
X-48435000Y71730000D01*
G75*
G02*
X-48300000Y71595000I0J-135000D01*
G01*
X-48300000Y71225000D01*
G75*
G02*
X-48435000Y71090000I-135000J0D01*
G01*
X-48705000Y71090000D01*
G75*
G02*
X-48840000Y71225000I0J135000D01*
G01*
G37*
G36*
G01*
X-47820000Y71225000D02*
X-47820000Y71595000D01*
G75*
G02*
X-47685000Y71730000I135000J0D01*
G01*
X-47415000Y71730000D01*
G75*
G02*
X-47280000Y71595000I0J-135000D01*
G01*
X-47280000Y71225000D01*
G75*
G02*
X-47415000Y71090000I-135000J0D01*
G01*
X-47685000Y71090000D01*
G75*
G02*
X-47820000Y71225000I0J135000D01*
G01*
G37*
G04 #@! TD*
G04 #@! TO.C,L1*
G36*
G01*
X76405000Y22533750D02*
X76405000Y23046250D01*
G75*
G02*
X76623750Y23265000I218750J0D01*
G01*
X77061250Y23265000D01*
G75*
G02*
X77280000Y23046250I0J-218750D01*
G01*
X77280000Y22533750D01*
G75*
G02*
X77061250Y22315000I-218750J0D01*
G01*
X76623750Y22315000D01*
G75*
G02*
X76405000Y22533750I0J218750D01*
G01*
G37*
G36*
G01*
X77980000Y22533750D02*
X77980000Y23046250D01*
G75*
G02*
X78198750Y23265000I218750J0D01*
G01*
X78636250Y23265000D01*
G75*
G02*
X78855000Y23046250I0J-218750D01*
G01*
X78855000Y22533750D01*
G75*
G02*
X78636250Y22315000I-218750J0D01*
G01*
X78198750Y22315000D01*
G75*
G02*
X77980000Y22533750I0J218750D01*
G01*
G37*
G04 #@! TD*
G04 #@! TO.C,U6*
G36*
G01*
X66938000Y40803500D02*
X66938000Y41406500D01*
G75*
G02*
X67038500Y41507000I100500J0D01*
G01*
X69011500Y41507000D01*
G75*
G02*
X69112000Y41406500I0J-100500D01*
G01*
X69112000Y40803500D01*
G75*
G02*
X69011500Y40703000I-100500J0D01*
G01*
X67038500Y40703000D01*
G75*
G02*
X66938000Y40803500I0J100500D01*
G01*
G37*
G36*
G01*
X66938000Y39533500D02*
X66938000Y40136500D01*
G75*
G02*
X67038500Y40237000I100500J0D01*
G01*
X69011500Y40237000D01*
G75*
G02*
X69112000Y40136500I0J-100500D01*
G01*
X69112000Y39533500D01*
G75*
G02*
X69011500Y39433000I-100500J0D01*
G01*
X67038500Y39433000D01*
G75*
G02*
X66938000Y39533500I0J100500D01*
G01*
G37*
G36*
G01*
X66938000Y38263500D02*
X66938000Y38866500D01*
G75*
G02*
X67038500Y38967000I100500J0D01*
G01*
X69011500Y38967000D01*
G75*
G02*
X69112000Y38866500I0J-100500D01*
G01*
X69112000Y38263500D01*
G75*
G02*
X69011500Y38163000I-100500J0D01*
G01*
X67038500Y38163000D01*
G75*
G02*
X66938000Y38263500I0J100500D01*
G01*
G37*
G36*
G01*
X66938000Y36993500D02*
X66938000Y37596500D01*
G75*
G02*
X67038500Y37697000I100500J0D01*
G01*
X69011500Y37697000D01*
G75*
G02*
X69112000Y37596500I0J-100500D01*
G01*
X69112000Y36993500D01*
G75*
G02*
X69011500Y36893000I-100500J0D01*
G01*
X67038500Y36893000D01*
G75*
G02*
X66938000Y36993500I0J100500D01*
G01*
G37*
G36*
G01*
X71888000Y36993500D02*
X71888000Y37596500D01*
G75*
G02*
X71988500Y37697000I100500J0D01*
G01*
X73961500Y37697000D01*
G75*
G02*
X74062000Y37596500I0J-100500D01*
G01*
X74062000Y36993500D01*
G75*
G02*
X73961500Y36893000I-100500J0D01*
G01*
X71988500Y36893000D01*
G75*
G02*
X71888000Y36993500I0J100500D01*
G01*
G37*
G36*
G01*
X71888000Y38263500D02*
X71888000Y38866500D01*
G75*
G02*
X71988500Y38967000I100500J0D01*
G01*
X73961500Y38967000D01*
G75*
G02*
X74062000Y38866500I0J-100500D01*
G01*
X74062000Y38263500D01*
G75*
G02*
X73961500Y38163000I-100500J0D01*
G01*
X71988500Y38163000D01*
G75*
G02*
X71888000Y38263500I0J100500D01*
G01*
G37*
G36*
G01*
X71888000Y39533500D02*
X71888000Y40136500D01*
G75*
G02*
X71988500Y40237000I100500J0D01*
G01*
X73961500Y40237000D01*
G75*
G02*
X74062000Y40136500I0J-100500D01*
G01*
X74062000Y39533500D01*
G75*
G02*
X73961500Y39433000I-100500J0D01*
G01*
X71988500Y39433000D01*
G75*
G02*
X71888000Y39533500I0J100500D01*
G01*
G37*
G36*
G01*
X71888000Y40803500D02*
X71888000Y41406500D01*
G75*
G02*
X71988500Y41507000I100500J0D01*
G01*
X73961500Y41507000D01*
G75*
G02*
X74062000Y41406500I0J-100500D01*
G01*
X74062000Y40803500D01*
G75*
G02*
X73961500Y40703000I-100500J0D01*
G01*
X71988500Y40703000D01*
G75*
G02*
X71888000Y40803500I0J100500D01*
G01*
G37*
G04 #@! TD*
D10*
G04 #@! TO.C,M2*
X61260000Y62975000D03*
X60060000Y62975000D03*
X62460000Y62975000D03*
X63660000Y62975000D03*
X57200000Y77400000D03*
X56200000Y77400000D03*
G04 #@! TD*
G04 #@! TO.C,D3*
G36*
G01*
X-60305000Y91725000D02*
X-60305000Y92475000D01*
G75*
G02*
X-60080000Y92700000I225000J0D01*
G01*
X-59630000Y92700000D01*
G75*
G02*
X-59405000Y92475000I0J-225000D01*
G01*
X-59405000Y91725000D01*
G75*
G02*
X-59630000Y91500000I-225000J0D01*
G01*
X-60080000Y91500000D01*
G75*
G02*
X-60305000Y91725000I0J225000D01*
G01*
G37*
G36*
G01*
X-57005000Y91725000D02*
X-57005000Y92475000D01*
G75*
G02*
X-56780000Y92700000I225000J0D01*
G01*
X-56330000Y92700000D01*
G75*
G02*
X-56105000Y92475000I0J-225000D01*
G01*
X-56105000Y91725000D01*
G75*
G02*
X-56330000Y91500000I-225000J0D01*
G01*
X-56780000Y91500000D01*
G75*
G02*
X-57005000Y91725000I0J225000D01*
G01*
G37*
G04 #@! TD*
G04 #@! TO.C,F1*
G36*
G01*
X87300000Y21155001D02*
X87300000Y22404999D01*
G75*
G02*
X87550001Y22655000I250001J0D01*
G01*
X88474999Y22655000D01*
G75*
G02*
X88725000Y22404999I0J-250001D01*
G01*
X88725000Y21155001D01*
G75*
G02*
X88474999Y20905000I-250001J0D01*
G01*
X87550001Y20905000D01*
G75*
G02*
X87300000Y21155001I0J250001D01*
G01*
G37*
G36*
G01*
X90275000Y21155001D02*
X90275000Y22404999D01*
G75*
G02*
X90525001Y22655000I250001J0D01*
G01*
X91449999Y22655000D01*
G75*
G02*
X91700000Y22404999I0J-250001D01*
G01*
X91700000Y21155001D01*
G75*
G02*
X91449999Y20905000I-250001J0D01*
G01*
X90525001Y20905000D01*
G75*
G02*
X90275000Y21155001I0J250001D01*
G01*
G37*
G04 #@! TD*
G04 #@! TO.C,R2*
G36*
G01*
X-54660000Y75205000D02*
X-54660000Y75575000D01*
G75*
G02*
X-54525000Y75710000I135000J0D01*
G01*
X-54255000Y75710000D01*
G75*
G02*
X-54120000Y75575000I0J-135000D01*
G01*
X-54120000Y75205000D01*
G75*
G02*
X-54255000Y75070000I-135000J0D01*
G01*
X-54525000Y75070000D01*
G75*
G02*
X-54660000Y75205000I0J135000D01*
G01*
G37*
G36*
G01*
X-53640000Y75205000D02*
X-53640000Y75575000D01*
G75*
G02*
X-53505000Y75710000I135000J0D01*
G01*
X-53235000Y75710000D01*
G75*
G02*
X-53100000Y75575000I0J-135000D01*
G01*
X-53100000Y75205000D01*
G75*
G02*
X-53235000Y75070000I-135000J0D01*
G01*
X-53505000Y75070000D01*
G75*
G02*
X-53640000Y75205000I0J135000D01*
G01*
G37*
G04 #@! TD*
G04 #@! TO.C,D1*
G36*
G01*
X-60305000Y98425000D02*
X-60305000Y99175000D01*
G75*
G02*
X-60080000Y99400000I225000J0D01*
G01*
X-59630000Y99400000D01*
G75*
G02*
X-59405000Y99175000I0J-225000D01*
G01*
X-59405000Y98425000D01*
G75*
G02*
X-59630000Y98200000I-225000J0D01*
G01*
X-60080000Y98200000D01*
G75*
G02*
X-60305000Y98425000I0J225000D01*
G01*
G37*
G36*
G01*
X-57005000Y98425000D02*
X-57005000Y99175000D01*
G75*
G02*
X-56780000Y99400000I225000J0D01*
G01*
X-56330000Y99400000D01*
G75*
G02*
X-56105000Y99175000I0J-225000D01*
G01*
X-56105000Y98425000D01*
G75*
G02*
X-56330000Y98200000I-225000J0D01*
G01*
X-56780000Y98200000D01*
G75*
G02*
X-57005000Y98425000I0J225000D01*
G01*
G37*
G04 #@! TD*
D13*
G04 #@! TO.C,BT1*
X-79624911Y51304737D03*
X-72125053Y51304737D03*
D14*
X-83725005Y51304737D03*
D15*
X-67724986Y51304737D03*
G04 #@! TD*
G04 #@! TO.C,R1*
G36*
G01*
X-54660000Y77195000D02*
X-54660000Y77565000D01*
G75*
G02*
X-54525000Y77700000I135000J0D01*
G01*
X-54255000Y77700000D01*
G75*
G02*
X-54120000Y77565000I0J-135000D01*
G01*
X-54120000Y77195000D01*
G75*
G02*
X-54255000Y77060000I-135000J0D01*
G01*
X-54525000Y77060000D01*
G75*
G02*
X-54660000Y77195000I0J135000D01*
G01*
G37*
G36*
G01*
X-53640000Y77195000D02*
X-53640000Y77565000D01*
G75*
G02*
X-53505000Y77700000I135000J0D01*
G01*
X-53235000Y77700000D01*
G75*
G02*
X-53100000Y77565000I0J-135000D01*
G01*
X-53100000Y77195000D01*
G75*
G02*
X-53235000Y77060000I-135000J0D01*
G01*
X-53505000Y77060000D01*
G75*
G02*
X-53640000Y77195000I0J135000D01*
G01*
G37*
G04 #@! TD*
D16*
G04 #@! TO.C,U8*
X52940000Y5225000D03*
X53940000Y5225000D03*
X54940000Y5225000D03*
X55940000Y5225000D03*
X56940000Y5225000D03*
X57940000Y5225000D03*
X57940000Y14825000D03*
X56940000Y14825000D03*
X55940000Y14825000D03*
X54940000Y14825000D03*
X53940000Y14825000D03*
X52940000Y14825000D03*
D17*
X55440000Y10025000D03*
G04 #@! TD*
G04 #@! TO.C,R9*
G36*
G01*
X-51750000Y71225000D02*
X-51750000Y71595000D01*
G75*
G02*
X-51615000Y71730000I135000J0D01*
G01*
X-51345000Y71730000D01*
G75*
G02*
X-51210000Y71595000I0J-135000D01*
G01*
X-51210000Y71225000D01*
G75*
G02*
X-51345000Y71090000I-135000J0D01*
G01*
X-51615000Y71090000D01*
G75*
G02*
X-51750000Y71225000I0J135000D01*
G01*
G37*
G36*
G01*
X-50730000Y71225000D02*
X-50730000Y71595000D01*
G75*
G02*
X-50595000Y71730000I135000J0D01*
G01*
X-50325000Y71730000D01*
G75*
G02*
X-50190000Y71595000I0J-135000D01*
G01*
X-50190000Y71225000D01*
G75*
G02*
X-50325000Y71090000I-135000J0D01*
G01*
X-50595000Y71090000D01*
G75*
G02*
X-50730000Y71225000I0J135000D01*
G01*
G37*
G04 #@! TD*
D11*
G04 #@! TO.C,J2*
X21030000Y2710000D03*
D18*
X18530000Y2710000D03*
X18530000Y710000D03*
X21030000Y710000D03*
D19*
X25800000Y-2000000D03*
X13760000Y-2000000D03*
G04 #@! TD*
G04 #@! TO.C,R6*
G36*
G01*
X-51750000Y77195000D02*
X-51750000Y77565000D01*
G75*
G02*
X-51615000Y77700000I135000J0D01*
G01*
X-51345000Y77700000D01*
G75*
G02*
X-51210000Y77565000I0J-135000D01*
G01*
X-51210000Y77195000D01*
G75*
G02*
X-51345000Y77060000I-135000J0D01*
G01*
X-51615000Y77060000D01*
G75*
G02*
X-51750000Y77195000I0J135000D01*
G01*
G37*
G36*
G01*
X-50730000Y77195000D02*
X-50730000Y77565000D01*
G75*
G02*
X-50595000Y77700000I135000J0D01*
G01*
X-50325000Y77700000D01*
G75*
G02*
X-50190000Y77565000I0J-135000D01*
G01*
X-50190000Y77195000D01*
G75*
G02*
X-50325000Y77060000I-135000J0D01*
G01*
X-50595000Y77060000D01*
G75*
G02*
X-50730000Y77195000I0J135000D01*
G01*
G37*
G04 #@! TD*
G04 #@! TO.C,R8*
G36*
G01*
X-51750000Y73215000D02*
X-51750000Y73585000D01*
G75*
G02*
X-51615000Y73720000I135000J0D01*
G01*
X-51345000Y73720000D01*
G75*
G02*
X-51210000Y73585000I0J-135000D01*
G01*
X-51210000Y73215000D01*
G75*
G02*
X-51345000Y73080000I-135000J0D01*
G01*
X-51615000Y73080000D01*
G75*
G02*
X-51750000Y73215000I0J135000D01*
G01*
G37*
G36*
G01*
X-50730000Y73215000D02*
X-50730000Y73585000D01*
G75*
G02*
X-50595000Y73720000I135000J0D01*
G01*
X-50325000Y73720000D01*
G75*
G02*
X-50190000Y73585000I0J-135000D01*
G01*
X-50190000Y73215000D01*
G75*
G02*
X-50325000Y73080000I-135000J0D01*
G01*
X-50595000Y73080000D01*
G75*
G02*
X-50730000Y73215000I0J135000D01*
G01*
G37*
G04 #@! TD*
G04 #@! TO.C,J9*
G36*
G01*
X82349999Y44950000D02*
X79550001Y44950000D01*
G75*
G02*
X79300000Y45200001I0J250001D01*
G01*
X79300000Y47399999D01*
G75*
G02*
X79550001Y47650000I250001J0D01*
G01*
X82349999Y47650000D01*
G75*
G02*
X82600000Y47399999I0J-250001D01*
G01*
X82600000Y45200001D01*
G75*
G02*
X82349999Y44950000I-250001J0D01*
G01*
G37*
D20*
X80950000Y50500000D03*
X80950000Y54700000D03*
X80950000Y58900000D03*
X80950000Y63100000D03*
X80950000Y67300000D03*
X86450000Y46300000D03*
X86450000Y50500000D03*
X86450000Y54700000D03*
X86450000Y58900000D03*
X86450000Y63100000D03*
X86450000Y67300000D03*
G04 #@! TD*
G04 #@! TO.C,U4*
G36*
G01*
X-3598500Y75118000D02*
X-4201500Y75118000D01*
G75*
G02*
X-4302000Y75218500I0J100500D01*
G01*
X-4302000Y77191500D01*
G75*
G02*
X-4201500Y77292000I100500J0D01*
G01*
X-3598500Y77292000D01*
G75*
G02*
X-3498000Y77191500I0J-100500D01*
G01*
X-3498000Y75218500D01*
G75*
G02*
X-3598500Y75118000I-100500J0D01*
G01*
G37*
G36*
G01*
X-2328500Y75118000D02*
X-2931500Y75118000D01*
G75*
G02*
X-3032000Y75218500I0J100500D01*
G01*
X-3032000Y77191500D01*
G75*
G02*
X-2931500Y77292000I100500J0D01*
G01*
X-2328500Y77292000D01*
G75*
G02*
X-2228000Y77191500I0J-100500D01*
G01*
X-2228000Y75218500D01*
G75*
G02*
X-2328500Y75118000I-100500J0D01*
G01*
G37*
G36*
G01*
X-1058500Y75118000D02*
X-1661500Y75118000D01*
G75*
G02*
X-1762000Y75218500I0J100500D01*
G01*
X-1762000Y77191500D01*
G75*
G02*
X-1661500Y77292000I100500J0D01*
G01*
X-1058500Y77292000D01*
G75*
G02*
X-958000Y77191500I0J-100500D01*
G01*
X-958000Y75218500D01*
G75*
G02*
X-1058500Y75118000I-100500J0D01*
G01*
G37*
G36*
G01*
X211500Y75118000D02*
X-391500Y75118000D01*
G75*
G02*
X-492000Y75218500I0J100500D01*
G01*
X-492000Y77191500D01*
G75*
G02*
X-391500Y77292000I100500J0D01*
G01*
X211500Y77292000D01*
G75*
G02*
X312000Y77191500I0J-100500D01*
G01*
X312000Y75218500D01*
G75*
G02*
X211500Y75118000I-100500J0D01*
G01*
G37*
G36*
G01*
X211500Y80068000D02*
X-391500Y80068000D01*
G75*
G02*
X-492000Y80168500I0J100500D01*
G01*
X-492000Y82141500D01*
G75*
G02*
X-391500Y82242000I100500J0D01*
G01*
X211500Y82242000D01*
G75*
G02*
X312000Y82141500I0J-100500D01*
G01*
X312000Y80168500D01*
G75*
G02*
X211500Y80068000I-100500J0D01*
G01*
G37*
G36*
G01*
X-1058500Y80068000D02*
X-1661500Y80068000D01*
G75*
G02*
X-1762000Y80168500I0J100500D01*
G01*
X-1762000Y82141500D01*
G75*
G02*
X-1661500Y82242000I100500J0D01*
G01*
X-1058500Y82242000D01*
G75*
G02*
X-958000Y82141500I0J-100500D01*
G01*
X-958000Y80168500D01*
G75*
G02*
X-1058500Y80068000I-100500J0D01*
G01*
G37*
G36*
G01*
X-2328500Y80068000D02*
X-2931500Y80068000D01*
G75*
G02*
X-3032000Y80168500I0J100500D01*
G01*
X-3032000Y82141500D01*
G75*
G02*
X-2931500Y82242000I100500J0D01*
G01*
X-2328500Y82242000D01*
G75*
G02*
X-2228000Y82141500I0J-100500D01*
G01*
X-2228000Y80168500D01*
G75*
G02*
X-2328500Y80068000I-100500J0D01*
G01*
G37*
G36*
G01*
X-3598500Y80068000D02*
X-4201500Y80068000D01*
G75*
G02*
X-4302000Y80168500I0J100500D01*
G01*
X-4302000Y82141500D01*
G75*
G02*
X-4201500Y82242000I100500J0D01*
G01*
X-3598500Y82242000D01*
G75*
G02*
X-3498000Y82141500I0J-100500D01*
G01*
X-3498000Y80168500D01*
G75*
G02*
X-3598500Y80068000I-100500J0D01*
G01*
G37*
G04 #@! TD*
G04 #@! TO.C,D6*
G36*
G01*
X-60305000Y85025000D02*
X-60305000Y85775000D01*
G75*
G02*
X-60080000Y86000000I225000J0D01*
G01*
X-59630000Y86000000D01*
G75*
G02*
X-59405000Y85775000I0J-225000D01*
G01*
X-59405000Y85025000D01*
G75*
G02*
X-59630000Y84800000I-225000J0D01*
G01*
X-60080000Y84800000D01*
G75*
G02*
X-60305000Y85025000I0J225000D01*
G01*
G37*
G36*
G01*
X-57005000Y85025000D02*
X-57005000Y85775000D01*
G75*
G02*
X-56780000Y86000000I225000J0D01*
G01*
X-56330000Y86000000D01*
G75*
G02*
X-56105000Y85775000I0J-225000D01*
G01*
X-56105000Y85025000D01*
G75*
G02*
X-56330000Y84800000I-225000J0D01*
G01*
X-56780000Y84800000D01*
G75*
G02*
X-57005000Y85025000I0J225000D01*
G01*
G37*
G04 #@! TD*
G04 #@! TO.C,D7*
G36*
G01*
X-60305000Y81675000D02*
X-60305000Y82425000D01*
G75*
G02*
X-60080000Y82650000I225000J0D01*
G01*
X-59630000Y82650000D01*
G75*
G02*
X-59405000Y82425000I0J-225000D01*
G01*
X-59405000Y81675000D01*
G75*
G02*
X-59630000Y81450000I-225000J0D01*
G01*
X-60080000Y81450000D01*
G75*
G02*
X-60305000Y81675000I0J225000D01*
G01*
G37*
G36*
G01*
X-57005000Y81675000D02*
X-57005000Y82425000D01*
G75*
G02*
X-56780000Y82650000I225000J0D01*
G01*
X-56330000Y82650000D01*
G75*
G02*
X-56105000Y82425000I0J-225000D01*
G01*
X-56105000Y81675000D01*
G75*
G02*
X-56330000Y81450000I-225000J0D01*
G01*
X-56780000Y81450000D01*
G75*
G02*
X-57005000Y81675000I0J225000D01*
G01*
G37*
G04 #@! TD*
D13*
G04 #@! TO.C,M4*
X-87675004Y57424998D03*
X-87675004Y51025001D03*
X-87675004Y49124998D03*
X-87675004Y44824998D03*
D10*
X-87225005Y42425001D03*
X-87225005Y41425000D03*
D13*
X-87675004Y38574998D03*
X-103175001Y57875000D03*
X-103175001Y56025001D03*
X-103175001Y51074998D03*
X-103175001Y39025000D03*
G04 #@! TD*
G04 #@! TO.C,D4*
G36*
G01*
X-60305000Y88375000D02*
X-60305000Y89125000D01*
G75*
G02*
X-60080000Y89350000I225000J0D01*
G01*
X-59630000Y89350000D01*
G75*
G02*
X-59405000Y89125000I0J-225000D01*
G01*
X-59405000Y88375000D01*
G75*
G02*
X-59630000Y88150000I-225000J0D01*
G01*
X-60080000Y88150000D01*
G75*
G02*
X-60305000Y88375000I0J225000D01*
G01*
G37*
G36*
G01*
X-57005000Y88375000D02*
X-57005000Y89125000D01*
G75*
G02*
X-56780000Y89350000I225000J0D01*
G01*
X-56330000Y89350000D01*
G75*
G02*
X-56105000Y89125000I0J-225000D01*
G01*
X-56105000Y88375000D01*
G75*
G02*
X-56330000Y88150000I-225000J0D01*
G01*
X-56780000Y88150000D01*
G75*
G02*
X-57005000Y88375000I0J225000D01*
G01*
G37*
G04 #@! TD*
D11*
G04 #@! TO.C,J5*
X-99500000Y30240000D03*
D12*
X-99500000Y27700000D03*
G04 #@! TD*
G04 #@! TO.C,R12*
G36*
G01*
X-48840000Y75205000D02*
X-48840000Y75575000D01*
G75*
G02*
X-48705000Y75710000I135000J0D01*
G01*
X-48435000Y75710000D01*
G75*
G02*
X-48300000Y75575000I0J-135000D01*
G01*
X-48300000Y75205000D01*
G75*
G02*
X-48435000Y75070000I-135000J0D01*
G01*
X-48705000Y75070000D01*
G75*
G02*
X-48840000Y75205000I0J135000D01*
G01*
G37*
G36*
G01*
X-47820000Y75205000D02*
X-47820000Y75575000D01*
G75*
G02*
X-47685000Y75710000I135000J0D01*
G01*
X-47415000Y75710000D01*
G75*
G02*
X-47280000Y75575000I0J-135000D01*
G01*
X-47280000Y75205000D01*
G75*
G02*
X-47415000Y75070000I-135000J0D01*
G01*
X-47685000Y75070000D01*
G75*
G02*
X-47820000Y75205000I0J135000D01*
G01*
G37*
G04 #@! TD*
G04 #@! TO.C,U2*
G36*
G01*
X68213000Y63568500D02*
X68213000Y64171500D01*
G75*
G02*
X68313500Y64272000I100500J0D01*
G01*
X70286500Y64272000D01*
G75*
G02*
X70387000Y64171500I0J-100500D01*
G01*
X70387000Y63568500D01*
G75*
G02*
X70286500Y63468000I-100500J0D01*
G01*
X68313500Y63468000D01*
G75*
G02*
X68213000Y63568500I0J100500D01*
G01*
G37*
G36*
G01*
X68213000Y62298500D02*
X68213000Y62901500D01*
G75*
G02*
X68313500Y63002000I100500J0D01*
G01*
X70286500Y63002000D01*
G75*
G02*
X70387000Y62901500I0J-100500D01*
G01*
X70387000Y62298500D01*
G75*
G02*
X70286500Y62198000I-100500J0D01*
G01*
X68313500Y62198000D01*
G75*
G02*
X68213000Y62298500I0J100500D01*
G01*
G37*
G36*
G01*
X68213000Y61028500D02*
X68213000Y61631500D01*
G75*
G02*
X68313500Y61732000I100500J0D01*
G01*
X70286500Y61732000D01*
G75*
G02*
X70387000Y61631500I0J-100500D01*
G01*
X70387000Y61028500D01*
G75*
G02*
X70286500Y60928000I-100500J0D01*
G01*
X68313500Y60928000D01*
G75*
G02*
X68213000Y61028500I0J100500D01*
G01*
G37*
G36*
G01*
X68213000Y59758500D02*
X68213000Y60361500D01*
G75*
G02*
X68313500Y60462000I100500J0D01*
G01*
X70286500Y60462000D01*
G75*
G02*
X70387000Y60361500I0J-100500D01*
G01*
X70387000Y59758500D01*
G75*
G02*
X70286500Y59658000I-100500J0D01*
G01*
X68313500Y59658000D01*
G75*
G02*
X68213000Y59758500I0J100500D01*
G01*
G37*
G36*
G01*
X73163000Y59758500D02*
X73163000Y60361500D01*
G75*
G02*
X73263500Y60462000I100500J0D01*
G01*
X75236500Y60462000D01*
G75*
G02*
X75337000Y60361500I0J-100500D01*
G01*
X75337000Y59758500D01*
G75*
G02*
X75236500Y59658000I-100500J0D01*
G01*
X73263500Y59658000D01*
G75*
G02*
X73163000Y59758500I0J100500D01*
G01*
G37*
G36*
G01*
X73163000Y61028500D02*
X73163000Y61631500D01*
G75*
G02*
X73263500Y61732000I100500J0D01*
G01*
X75236500Y61732000D01*
G75*
G02*
X75337000Y61631500I0J-100500D01*
G01*
X75337000Y61028500D01*
G75*
G02*
X75236500Y60928000I-100500J0D01*
G01*
X73263500Y60928000D01*
G75*
G02*
X73163000Y61028500I0J100500D01*
G01*
G37*
G36*
G01*
X73163000Y62298500D02*
X73163000Y62901500D01*
G75*
G02*
X73263500Y63002000I100500J0D01*
G01*
X75236500Y63002000D01*
G75*
G02*
X75337000Y62901500I0J-100500D01*
G01*
X75337000Y62298500D01*
G75*
G02*
X75236500Y62198000I-100500J0D01*
G01*
X73263500Y62198000D01*
G75*
G02*
X73163000Y62298500I0J100500D01*
G01*
G37*
G36*
G01*
X73163000Y63568500D02*
X73163000Y64171500D01*
G75*
G02*
X73263500Y64272000I100500J0D01*
G01*
X75236500Y64272000D01*
G75*
G02*
X75337000Y64171500I0J-100500D01*
G01*
X75337000Y63568500D01*
G75*
G02*
X75236500Y63468000I-100500J0D01*
G01*
X73263500Y63468000D01*
G75*
G02*
X73163000Y63568500I0J100500D01*
G01*
G37*
G04 #@! TD*
D10*
G04 #@! TO.C,M3*
X50800000Y62900000D03*
X49600000Y62900000D03*
X52000000Y62900000D03*
X53200000Y62900000D03*
X46740000Y77325000D03*
X45740000Y77325000D03*
G04 #@! TD*
G04 #@! TO.C,R11*
G36*
G01*
X-48840000Y77195000D02*
X-48840000Y77565000D01*
G75*
G02*
X-48705000Y77700000I135000J0D01*
G01*
X-48435000Y77700000D01*
G75*
G02*
X-48300000Y77565000I0J-135000D01*
G01*
X-48300000Y77195000D01*
G75*
G02*
X-48435000Y77060000I-135000J0D01*
G01*
X-48705000Y77060000D01*
G75*
G02*
X-48840000Y77195000I0J135000D01*
G01*
G37*
G36*
G01*
X-47820000Y77195000D02*
X-47820000Y77565000D01*
G75*
G02*
X-47685000Y77700000I135000J0D01*
G01*
X-47415000Y77700000D01*
G75*
G02*
X-47280000Y77565000I0J-135000D01*
G01*
X-47280000Y77195000D01*
G75*
G02*
X-47415000Y77060000I-135000J0D01*
G01*
X-47685000Y77060000D01*
G75*
G02*
X-47820000Y77195000I0J135000D01*
G01*
G37*
G04 #@! TD*
G04 #@! TO.C,L2*
G36*
G01*
X76405000Y20023750D02*
X76405000Y20536250D01*
G75*
G02*
X76623750Y20755000I218750J0D01*
G01*
X77061250Y20755000D01*
G75*
G02*
X77280000Y20536250I0J-218750D01*
G01*
X77280000Y20023750D01*
G75*
G02*
X77061250Y19805000I-218750J0D01*
G01*
X76623750Y19805000D01*
G75*
G02*
X76405000Y20023750I0J218750D01*
G01*
G37*
G36*
G01*
X77980000Y20023750D02*
X77980000Y20536250D01*
G75*
G02*
X78198750Y20755000I218750J0D01*
G01*
X78636250Y20755000D01*
G75*
G02*
X78855000Y20536250I0J-218750D01*
G01*
X78855000Y20023750D01*
G75*
G02*
X78636250Y19805000I-218750J0D01*
G01*
X78198750Y19805000D01*
G75*
G02*
X77980000Y20023750I0J218750D01*
G01*
G37*
G04 #@! TD*
D21*
G04 #@! TO.C,TP1*
X-38300000Y68500000D03*
G04 #@! TD*
G04 #@! TO.C,R10*
G36*
G01*
X-51750000Y69235000D02*
X-51750000Y69605000D01*
G75*
G02*
X-51615000Y69740000I135000J0D01*
G01*
X-51345000Y69740000D01*
G75*
G02*
X-51210000Y69605000I0J-135000D01*
G01*
X-51210000Y69235000D01*
G75*
G02*
X-51345000Y69100000I-135000J0D01*
G01*
X-51615000Y69100000D01*
G75*
G02*
X-51750000Y69235000I0J135000D01*
G01*
G37*
G36*
G01*
X-50730000Y69235000D02*
X-50730000Y69605000D01*
G75*
G02*
X-50595000Y69740000I135000J0D01*
G01*
X-50325000Y69740000D01*
G75*
G02*
X-50190000Y69605000I0J-135000D01*
G01*
X-50190000Y69235000D01*
G75*
G02*
X-50325000Y69100000I-135000J0D01*
G01*
X-50595000Y69100000D01*
G75*
G02*
X-50730000Y69235000I0J135000D01*
G01*
G37*
G04 #@! TD*
G04 #@! TO.C,D5*
G36*
G01*
X-53855000Y42287500D02*
X-53855000Y42512500D01*
G75*
G02*
X-53742500Y42625000I112500J0D01*
G01*
X-53367500Y42625000D01*
G75*
G02*
X-53255000Y42512500I0J-112500D01*
G01*
X-53255000Y42287500D01*
G75*
G02*
X-53367500Y42175000I-112500J0D01*
G01*
X-53742500Y42175000D01*
G75*
G02*
X-53855000Y42287500I0J112500D01*
G01*
G37*
G36*
G01*
X-51755000Y42287500D02*
X-51755000Y42512500D01*
G75*
G02*
X-51642500Y42625000I112500J0D01*
G01*
X-51267500Y42625000D01*
G75*
G02*
X-51155000Y42512500I0J-112500D01*
G01*
X-51155000Y42287500D01*
G75*
G02*
X-51267500Y42175000I-112500J0D01*
G01*
X-51642500Y42175000D01*
G75*
G02*
X-51755000Y42287500I0J112500D01*
G01*
G37*
G04 #@! TD*
G04 #@! TO.C,D8*
G36*
G01*
X-60305000Y78325000D02*
X-60305000Y79075000D01*
G75*
G02*
X-60080000Y79300000I225000J0D01*
G01*
X-59630000Y79300000D01*
G75*
G02*
X-59405000Y79075000I0J-225000D01*
G01*
X-59405000Y78325000D01*
G75*
G02*
X-59630000Y78100000I-225000J0D01*
G01*
X-60080000Y78100000D01*
G75*
G02*
X-60305000Y78325000I0J225000D01*
G01*
G37*
G36*
G01*
X-57005000Y78325000D02*
X-57005000Y79075000D01*
G75*
G02*
X-56780000Y79300000I225000J0D01*
G01*
X-56330000Y79300000D01*
G75*
G02*
X-56105000Y79075000I0J-225000D01*
G01*
X-56105000Y78325000D01*
G75*
G02*
X-56330000Y78100000I-225000J0D01*
G01*
X-56780000Y78100000D01*
G75*
G02*
X-57005000Y78325000I0J225000D01*
G01*
G37*
G04 #@! TD*
G04 #@! TO.C,R3*
G36*
G01*
X-54660000Y73215000D02*
X-54660000Y73585000D01*
G75*
G02*
X-54525000Y73720000I135000J0D01*
G01*
X-54255000Y73720000D01*
G75*
G02*
X-54120000Y73585000I0J-135000D01*
G01*
X-54120000Y73215000D01*
G75*
G02*
X-54255000Y73080000I-135000J0D01*
G01*
X-54525000Y73080000D01*
G75*
G02*
X-54660000Y73215000I0J135000D01*
G01*
G37*
G36*
G01*
X-53640000Y73215000D02*
X-53640000Y73585000D01*
G75*
G02*
X-53505000Y73720000I135000J0D01*
G01*
X-53235000Y73720000D01*
G75*
G02*
X-53100000Y73585000I0J-135000D01*
G01*
X-53100000Y73215000D01*
G75*
G02*
X-53235000Y73080000I-135000J0D01*
G01*
X-53505000Y73080000D01*
G75*
G02*
X-53640000Y73215000I0J135000D01*
G01*
G37*
G04 #@! TD*
G04 #@! TO.C,R7*
G36*
G01*
X-51750000Y75205000D02*
X-51750000Y75575000D01*
G75*
G02*
X-51615000Y75710000I135000J0D01*
G01*
X-51345000Y75710000D01*
G75*
G02*
X-51210000Y75575000I0J-135000D01*
G01*
X-51210000Y75205000D01*
G75*
G02*
X-51345000Y75070000I-135000J0D01*
G01*
X-51615000Y75070000D01*
G75*
G02*
X-51750000Y75205000I0J135000D01*
G01*
G37*
G36*
G01*
X-50730000Y75205000D02*
X-50730000Y75575000D01*
G75*
G02*
X-50595000Y75710000I135000J0D01*
G01*
X-50325000Y75710000D01*
G75*
G02*
X-50190000Y75575000I0J-135000D01*
G01*
X-50190000Y75205000D01*
G75*
G02*
X-50325000Y75070000I-135000J0D01*
G01*
X-50595000Y75070000D01*
G75*
G02*
X-50730000Y75205000I0J135000D01*
G01*
G37*
G04 #@! TD*
G04 #@! TO.C,U5*
G36*
G01*
X66938000Y51403500D02*
X66938000Y52006500D01*
G75*
G02*
X67038500Y52107000I100500J0D01*
G01*
X69011500Y52107000D01*
G75*
G02*
X69112000Y52006500I0J-100500D01*
G01*
X69112000Y51403500D01*
G75*
G02*
X69011500Y51303000I-100500J0D01*
G01*
X67038500Y51303000D01*
G75*
G02*
X66938000Y51403500I0J100500D01*
G01*
G37*
G36*
G01*
X66938000Y50133500D02*
X66938000Y50736500D01*
G75*
G02*
X67038500Y50837000I100500J0D01*
G01*
X69011500Y50837000D01*
G75*
G02*
X69112000Y50736500I0J-100500D01*
G01*
X69112000Y50133500D01*
G75*
G02*
X69011500Y50033000I-100500J0D01*
G01*
X67038500Y50033000D01*
G75*
G02*
X66938000Y50133500I0J100500D01*
G01*
G37*
G36*
G01*
X66938000Y48863500D02*
X66938000Y49466500D01*
G75*
G02*
X67038500Y49567000I100500J0D01*
G01*
X69011500Y49567000D01*
G75*
G02*
X69112000Y49466500I0J-100500D01*
G01*
X69112000Y48863500D01*
G75*
G02*
X69011500Y48763000I-100500J0D01*
G01*
X67038500Y48763000D01*
G75*
G02*
X66938000Y48863500I0J100500D01*
G01*
G37*
G36*
G01*
X66938000Y47593500D02*
X66938000Y48196500D01*
G75*
G02*
X67038500Y48297000I100500J0D01*
G01*
X69011500Y48297000D01*
G75*
G02*
X69112000Y48196500I0J-100500D01*
G01*
X69112000Y47593500D01*
G75*
G02*
X69011500Y47493000I-100500J0D01*
G01*
X67038500Y47493000D01*
G75*
G02*
X66938000Y47593500I0J100500D01*
G01*
G37*
G36*
G01*
X71888000Y47593500D02*
X71888000Y48196500D01*
G75*
G02*
X71988500Y48297000I100500J0D01*
G01*
X73961500Y48297000D01*
G75*
G02*
X74062000Y48196500I0J-100500D01*
G01*
X74062000Y47593500D01*
G75*
G02*
X73961500Y47493000I-100500J0D01*
G01*
X71988500Y47493000D01*
G75*
G02*
X71888000Y47593500I0J100500D01*
G01*
G37*
G36*
G01*
X71888000Y48863500D02*
X71888000Y49466500D01*
G75*
G02*
X71988500Y49567000I100500J0D01*
G01*
X73961500Y49567000D01*
G75*
G02*
X74062000Y49466500I0J-100500D01*
G01*
X74062000Y48863500D01*
G75*
G02*
X73961500Y48763000I-100500J0D01*
G01*
X71988500Y48763000D01*
G75*
G02*
X71888000Y48863500I0J100500D01*
G01*
G37*
G36*
G01*
X71888000Y50133500D02*
X71888000Y50736500D01*
G75*
G02*
X71988500Y50837000I100500J0D01*
G01*
X73961500Y50837000D01*
G75*
G02*
X74062000Y50736500I0J-100500D01*
G01*
X74062000Y50133500D01*
G75*
G02*
X73961500Y50033000I-100500J0D01*
G01*
X71988500Y50033000D01*
G75*
G02*
X71888000Y50133500I0J100500D01*
G01*
G37*
G36*
G01*
X71888000Y51403500D02*
X71888000Y52006500D01*
G75*
G02*
X71988500Y52107000I100500J0D01*
G01*
X73961500Y52107000D01*
G75*
G02*
X74062000Y52006500I0J-100500D01*
G01*
X74062000Y51403500D01*
G75*
G02*
X73961500Y51303000I-100500J0D01*
G01*
X71988500Y51303000D01*
G75*
G02*
X71888000Y51403500I0J100500D01*
G01*
G37*
G04 #@! TD*
D22*
G04 #@! TO.C,J1*
X10350000Y81300000D03*
D23*
X13350000Y81300000D03*
X16350000Y81300000D03*
X19350000Y81300000D03*
X22350000Y81300000D03*
X25350000Y81300000D03*
X28350000Y81300000D03*
X31350000Y81300000D03*
X10350000Y85800000D03*
X13350000Y85800000D03*
X16350000Y85800000D03*
X19350000Y85800000D03*
X22350000Y85800000D03*
X25350000Y85800000D03*
X28350000Y85800000D03*
X31350000Y85800000D03*
X37350000Y81300000D03*
X40800000Y81300000D03*
X43900000Y81300000D03*
X46900000Y81300000D03*
X49900000Y81300000D03*
X52900000Y81300000D03*
X55900000Y81300000D03*
X58900000Y81300000D03*
X61900000Y81300000D03*
X64900000Y81300000D03*
X68000000Y81300000D03*
X71500000Y81300000D03*
X75000000Y81300000D03*
X37300000Y85800000D03*
X40800000Y85800000D03*
X43900000Y85800000D03*
X46900000Y85800000D03*
X49900000Y85800000D03*
X52900000Y85800000D03*
X55900000Y85800000D03*
X58900000Y85800000D03*
X61900000Y85800000D03*
X64900000Y85800000D03*
X68000000Y85800000D03*
X71500000Y85800000D03*
X75000000Y85800000D03*
D24*
X9950000Y91500000D03*
X34200000Y91500000D03*
X75650000Y91500000D03*
G04 #@! TD*
G04 #@! TO.C,U7*
G36*
G01*
X76400000Y29025000D02*
X76400000Y29325000D01*
G75*
G02*
X76550000Y29475000I150000J0D01*
G01*
X78200000Y29475000D01*
G75*
G02*
X78350000Y29325000I0J-150000D01*
G01*
X78350000Y29025000D01*
G75*
G02*
X78200000Y28875000I-150000J0D01*
G01*
X76550000Y28875000D01*
G75*
G02*
X76400000Y29025000I0J150000D01*
G01*
G37*
G36*
G01*
X76400000Y27755000D02*
X76400000Y28055000D01*
G75*
G02*
X76550000Y28205000I150000J0D01*
G01*
X78200000Y28205000D01*
G75*
G02*
X78350000Y28055000I0J-150000D01*
G01*
X78350000Y27755000D01*
G75*
G02*
X78200000Y27605000I-150000J0D01*
G01*
X76550000Y27605000D01*
G75*
G02*
X76400000Y27755000I0J150000D01*
G01*
G37*
G36*
G01*
X76400000Y26485000D02*
X76400000Y26785000D01*
G75*
G02*
X76550000Y26935000I150000J0D01*
G01*
X78200000Y26935000D01*
G75*
G02*
X78350000Y26785000I0J-150000D01*
G01*
X78350000Y26485000D01*
G75*
G02*
X78200000Y26335000I-150000J0D01*
G01*
X76550000Y26335000D01*
G75*
G02*
X76400000Y26485000I0J150000D01*
G01*
G37*
G36*
G01*
X76400000Y25215000D02*
X76400000Y25515000D01*
G75*
G02*
X76550000Y25665000I150000J0D01*
G01*
X78200000Y25665000D01*
G75*
G02*
X78350000Y25515000I0J-150000D01*
G01*
X78350000Y25215000D01*
G75*
G02*
X78200000Y25065000I-150000J0D01*
G01*
X76550000Y25065000D01*
G75*
G02*
X76400000Y25215000I0J150000D01*
G01*
G37*
G36*
G01*
X81350000Y25215000D02*
X81350000Y25515000D01*
G75*
G02*
X81500000Y25665000I150000J0D01*
G01*
X83150000Y25665000D01*
G75*
G02*
X83300000Y25515000I0J-150000D01*
G01*
X83300000Y25215000D01*
G75*
G02*
X83150000Y25065000I-150000J0D01*
G01*
X81500000Y25065000D01*
G75*
G02*
X81350000Y25215000I0J150000D01*
G01*
G37*
G36*
G01*
X81350000Y26485000D02*
X81350000Y26785000D01*
G75*
G02*
X81500000Y26935000I150000J0D01*
G01*
X83150000Y26935000D01*
G75*
G02*
X83300000Y26785000I0J-150000D01*
G01*
X83300000Y26485000D01*
G75*
G02*
X83150000Y26335000I-150000J0D01*
G01*
X81500000Y26335000D01*
G75*
G02*
X81350000Y26485000I0J150000D01*
G01*
G37*
G36*
G01*
X81350000Y27755000D02*
X81350000Y28055000D01*
G75*
G02*
X81500000Y28205000I150000J0D01*
G01*
X83150000Y28205000D01*
G75*
G02*
X83300000Y28055000I0J-150000D01*
G01*
X83300000Y27755000D01*
G75*
G02*
X83150000Y27605000I-150000J0D01*
G01*
X81500000Y27605000D01*
G75*
G02*
X81350000Y27755000I0J150000D01*
G01*
G37*
G36*
G01*
X81350000Y29025000D02*
X81350000Y29325000D01*
G75*
G02*
X81500000Y29475000I150000J0D01*
G01*
X83150000Y29475000D01*
G75*
G02*
X83300000Y29325000I0J-150000D01*
G01*
X83300000Y29025000D01*
G75*
G02*
X83150000Y28875000I-150000J0D01*
G01*
X81500000Y28875000D01*
G75*
G02*
X81350000Y29025000I0J150000D01*
G01*
G37*
G04 #@! TD*
G04 #@! TO.C,Q2*
G36*
G01*
X-45835000Y76775000D02*
X-45835000Y77075000D01*
G75*
G02*
X-45685000Y77225000I150000J0D01*
G01*
X-44510000Y77225000D01*
G75*
G02*
X-44360000Y77075000I0J-150000D01*
G01*
X-44360000Y76775000D01*
G75*
G02*
X-44510000Y76625000I-150000J0D01*
G01*
X-45685000Y76625000D01*
G75*
G02*
X-45835000Y76775000I0J150000D01*
G01*
G37*
G36*
G01*
X-45835000Y74875000D02*
X-45835000Y75175000D01*
G75*
G02*
X-45685000Y75325000I150000J0D01*
G01*
X-44510000Y75325000D01*
G75*
G02*
X-44360000Y75175000I0J-150000D01*
G01*
X-44360000Y74875000D01*
G75*
G02*
X-44510000Y74725000I-150000J0D01*
G01*
X-45685000Y74725000D01*
G75*
G02*
X-45835000Y74875000I0J150000D01*
G01*
G37*
G36*
G01*
X-43960000Y75825000D02*
X-43960000Y76125000D01*
G75*
G02*
X-43810000Y76275000I150000J0D01*
G01*
X-42635000Y76275000D01*
G75*
G02*
X-42485000Y76125000I0J-150000D01*
G01*
X-42485000Y75825000D01*
G75*
G02*
X-42635000Y75675000I-150000J0D01*
G01*
X-43810000Y75675000D01*
G75*
G02*
X-43960000Y75825000I0J150000D01*
G01*
G37*
G04 #@! TD*
G04 #@! TO.C,R4*
G36*
G01*
X-54660000Y71225000D02*
X-54660000Y71595000D01*
G75*
G02*
X-54525000Y71730000I135000J0D01*
G01*
X-54255000Y71730000D01*
G75*
G02*
X-54120000Y71595000I0J-135000D01*
G01*
X-54120000Y71225000D01*
G75*
G02*
X-54255000Y71090000I-135000J0D01*
G01*
X-54525000Y71090000D01*
G75*
G02*
X-54660000Y71225000I0J135000D01*
G01*
G37*
G36*
G01*
X-53640000Y71225000D02*
X-53640000Y71595000D01*
G75*
G02*
X-53505000Y71730000I135000J0D01*
G01*
X-53235000Y71730000D01*
G75*
G02*
X-53100000Y71595000I0J-135000D01*
G01*
X-53100000Y71225000D01*
G75*
G02*
X-53235000Y71090000I-135000J0D01*
G01*
X-53505000Y71090000D01*
G75*
G02*
X-53640000Y71225000I0J135000D01*
G01*
G37*
G04 #@! TD*
G04 #@! TO.C,R5*
G36*
G01*
X-54660000Y69235000D02*
X-54660000Y69605000D01*
G75*
G02*
X-54525000Y69740000I135000J0D01*
G01*
X-54255000Y69740000D01*
G75*
G02*
X-54120000Y69605000I0J-135000D01*
G01*
X-54120000Y69235000D01*
G75*
G02*
X-54255000Y69100000I-135000J0D01*
G01*
X-54525000Y69100000D01*
G75*
G02*
X-54660000Y69235000I0J135000D01*
G01*
G37*
G36*
G01*
X-53640000Y69235000D02*
X-53640000Y69605000D01*
G75*
G02*
X-53505000Y69740000I135000J0D01*
G01*
X-53235000Y69740000D01*
G75*
G02*
X-53100000Y69605000I0J-135000D01*
G01*
X-53100000Y69235000D01*
G75*
G02*
X-53235000Y69100000I-135000J0D01*
G01*
X-53505000Y69100000D01*
G75*
G02*
X-53640000Y69235000I0J135000D01*
G01*
G37*
G04 #@! TD*
G04 #@! TO.C,D10*
G36*
G01*
X80405000Y22445000D02*
X80405000Y22745000D01*
G75*
G02*
X80555000Y22895000I150000J0D01*
G01*
X81730000Y22895000D01*
G75*
G02*
X81880000Y22745000I0J-150000D01*
G01*
X81880000Y22445000D01*
G75*
G02*
X81730000Y22295000I-150000J0D01*
G01*
X80555000Y22295000D01*
G75*
G02*
X80405000Y22445000I0J150000D01*
G01*
G37*
G36*
G01*
X80405000Y20545000D02*
X80405000Y20845000D01*
G75*
G02*
X80555000Y20995000I150000J0D01*
G01*
X81730000Y20995000D01*
G75*
G02*
X81880000Y20845000I0J-150000D01*
G01*
X81880000Y20545000D01*
G75*
G02*
X81730000Y20395000I-150000J0D01*
G01*
X80555000Y20395000D01*
G75*
G02*
X80405000Y20545000I0J150000D01*
G01*
G37*
G36*
G01*
X82280000Y21495000D02*
X82280000Y21795000D01*
G75*
G02*
X82430000Y21945000I150000J0D01*
G01*
X83605000Y21945000D01*
G75*
G02*
X83755000Y21795000I0J-150000D01*
G01*
X83755000Y21495000D01*
G75*
G02*
X83605000Y21345000I-150000J0D01*
G01*
X82430000Y21345000D01*
G75*
G02*
X82280000Y21495000I0J150000D01*
G01*
G37*
G04 #@! TD*
G04 #@! TO.C,R13*
G36*
G01*
X-48840000Y73215000D02*
X-48840000Y73585000D01*
G75*
G02*
X-48705000Y73720000I135000J0D01*
G01*
X-48435000Y73720000D01*
G75*
G02*
X-48300000Y73585000I0J-135000D01*
G01*
X-48300000Y73215000D01*
G75*
G02*
X-48435000Y73080000I-135000J0D01*
G01*
X-48705000Y73080000D01*
G75*
G02*
X-48840000Y73215000I0J135000D01*
G01*
G37*
G36*
G01*
X-47820000Y73215000D02*
X-47820000Y73585000D01*
G75*
G02*
X-47685000Y73720000I135000J0D01*
G01*
X-47415000Y73720000D01*
G75*
G02*
X-47280000Y73585000I0J-135000D01*
G01*
X-47280000Y73215000D01*
G75*
G02*
X-47415000Y73080000I-135000J0D01*
G01*
X-47685000Y73080000D01*
G75*
G02*
X-47820000Y73215000I0J135000D01*
G01*
G37*
G04 #@! TD*
G04 #@! TO.C,J6*
G36*
G01*
X-18850000Y17900001D02*
X-18850000Y20699999D01*
G75*
G02*
X-18599999Y20950000I250001J0D01*
G01*
X-16400001Y20950000D01*
G75*
G02*
X-16150000Y20699999I0J-250001D01*
G01*
X-16150000Y17900001D01*
G75*
G02*
X-16400001Y17650000I-250001J0D01*
G01*
X-18599999Y17650000D01*
G75*
G02*
X-18850000Y17900001I0J250001D01*
G01*
G37*
D25*
X-13300000Y19300000D03*
X-9100000Y19300000D03*
X-17500000Y13800000D03*
X-13300000Y13800000D03*
X-9100000Y13800000D03*
G04 #@! TD*
G04 #@! TO.C,J7*
G36*
G01*
X13550000Y19320000D02*
X13550000Y18120000D01*
G75*
G02*
X13300000Y17870000I-250000J0D01*
G01*
X12100000Y17870000D01*
G75*
G02*
X11850000Y18120000I0J250000D01*
G01*
X11850000Y19320000D01*
G75*
G02*
X12100000Y19570000I250000J0D01*
G01*
X13300000Y19570000D01*
G75*
G02*
X13550000Y19320000I0J-250000D01*
G01*
G37*
D18*
X10160000Y18720000D03*
X12700000Y21260000D03*
X10160000Y21260000D03*
X12700000Y23800000D03*
X10160000Y23800000D03*
X12700000Y26340000D03*
X10160000Y26340000D03*
X12700000Y28880000D03*
X10160000Y28880000D03*
X12700000Y31420000D03*
X10160000Y31420000D03*
X12700000Y33960000D03*
X10160000Y33960000D03*
X12700000Y36500000D03*
X10160000Y36500000D03*
X12700000Y39040000D03*
X10160000Y39040000D03*
X12700000Y41580000D03*
X10160000Y41580000D03*
X12700000Y44120000D03*
X10160000Y44120000D03*
X12700000Y46660000D03*
X10160000Y46660000D03*
X12700000Y49200000D03*
X10160000Y49200000D03*
X12700000Y51740000D03*
X10160000Y51740000D03*
X12700000Y54280000D03*
X10160000Y54280000D03*
X12700000Y56820000D03*
X10160000Y56820000D03*
X12700000Y59360000D03*
X10160000Y59360000D03*
X12700000Y61900000D03*
X10160000Y61900000D03*
X12700000Y64440000D03*
X10160000Y64440000D03*
X12700000Y66980000D03*
X10160000Y66980000D03*
G04 #@! TD*
D26*
G04 #@! TO.C,M7*
X48537495Y3756666D03*
D27*
X38187501Y3806664D03*
X38687502Y3806664D03*
D28*
X45237499Y4856662D03*
X44362497Y5381662D03*
X45537501Y6131660D03*
X45462498Y9681661D03*
G04 #@! TD*
G04 #@! TO.C,D2*
G36*
G01*
X-60305000Y95075000D02*
X-60305000Y95825000D01*
G75*
G02*
X-60080000Y96050000I225000J0D01*
G01*
X-59630000Y96050000D01*
G75*
G02*
X-59405000Y95825000I0J-225000D01*
G01*
X-59405000Y95075000D01*
G75*
G02*
X-59630000Y94850000I-225000J0D01*
G01*
X-60080000Y94850000D01*
G75*
G02*
X-60305000Y95075000I0J225000D01*
G01*
G37*
G36*
G01*
X-57005000Y95075000D02*
X-57005000Y95825000D01*
G75*
G02*
X-56780000Y96050000I225000J0D01*
G01*
X-56330000Y96050000D01*
G75*
G02*
X-56105000Y95825000I0J-225000D01*
G01*
X-56105000Y95075000D01*
G75*
G02*
X-56330000Y94850000I-225000J0D01*
G01*
X-56780000Y94850000D01*
G75*
G02*
X-57005000Y95075000I0J225000D01*
G01*
G37*
G04 #@! TD*
M02*
