G04 #@! TF.GenerationSoftware,KiCad,Pcbnew,8.0.9-8.0.9-0~ubuntu24.04.1*
G04 #@! TF.CreationDate,2026-04-01T07:18:04+00:00*
G04 #@! TF.ProjectId,EP91Starlet,45503931-5374-4617-926c-65742e6b6963,rev?*
G04 #@! TF.SameCoordinates,Original*
G04 #@! TF.FileFunction,Copper,L1,Top*
G04 #@! TF.FilePolarity,Positive*
%FSLAX46Y46*%
G04 Gerber Fmt 4.6, Leading zero omitted, Abs format (unit mm)*
G04 Created by KiCad (PCBNEW 8.0.9-8.0.9-0~ubuntu24.04.1) date 2026-04-01 07:18:04*
%MOMM*%
%LPD*%
G01*
G04 APERTURE LIST*
G04 #@! TA.AperFunction,ComponentPad*
%ADD10C,1.500000*%
G04 #@! TD*
G04 #@! TA.AperFunction,ComponentPad*
%ADD11C,0.600000*%
G04 #@! TD*
G04 #@! TA.AperFunction,SMDPad,CuDef*
%ADD12O,0.200000X3.300000*%
G04 #@! TD*
G04 #@! TA.AperFunction,SMDPad,CuDef*
%ADD13O,0.200000X10.200000*%
G04 #@! TD*
G04 #@! TA.AperFunction,SMDPad,CuDef*
%ADD14O,0.200000X0.300000*%
G04 #@! TD*
G04 #@! TA.AperFunction,SMDPad,CuDef*
%ADD15O,17.000000X0.200000*%
G04 #@! TD*
G04 #@! TA.AperFunction,SMDPad,CuDef*
%ADD16O,15.400000X0.200000*%
G04 #@! TD*
G04 #@! TA.AperFunction,SMDPad,CuDef*
%ADD17O,0.200000X4.800000*%
G04 #@! TD*
G04 #@! TA.AperFunction,SMDPad,CuDef*
%ADD18O,0.200000X2.600000*%
G04 #@! TD*
G04 #@! TA.AperFunction,SMDPad,CuDef*
%ADD19O,0.200000X1.000000*%
G04 #@! TD*
G04 #@! TA.AperFunction,SMDPad,CuDef*
%ADD20O,0.200000X1.500000*%
G04 #@! TD*
G04 #@! TA.AperFunction,SMDPad,CuDef*
%ADD21O,0.200000X1.225000*%
G04 #@! TD*
G04 #@! TA.AperFunction,SMDPad,CuDef*
%ADD22O,9.300000X0.200000*%
G04 #@! TD*
G04 #@! TA.AperFunction,SMDPad,CuDef*
%ADD23R,0.250000X6.185000*%
G04 #@! TD*
G04 #@! TA.AperFunction,SMDPad,CuDef*
%ADD24R,0.250000X1.115000*%
G04 #@! TD*
G04 #@! TA.AperFunction,SMDPad,CuDef*
%ADD25R,14.275000X0.250000*%
G04 #@! TD*
G04 #@! TA.AperFunction,SMDPad,CuDef*
%ADD26R,15.100000X0.250000*%
G04 #@! TD*
G04 #@! TA.AperFunction,SMDPad,CuDef*
%ADD27R,0.250000X5.175000*%
G04 #@! TD*
G04 #@! TA.AperFunction,ComponentPad*
%ADD28R,1.700000X1.700000*%
G04 #@! TD*
G04 #@! TA.AperFunction,ComponentPad*
%ADD29O,1.700000X1.700000*%
G04 #@! TD*
G04 #@! TA.AperFunction,ComponentPad*
%ADD30R,1.650000X1.650000*%
G04 #@! TD*
G04 #@! TA.AperFunction,ComponentPad*
%ADD31C,1.650000*%
G04 #@! TD*
G04 #@! TA.AperFunction,ComponentPad*
%ADD32C,5.250000*%
G04 #@! TD*
G04 #@! TA.AperFunction,ComponentPad*
%ADD33C,2.250000*%
G04 #@! TD*
G04 #@! TA.AperFunction,ComponentPad*
%ADD34C,5.100000*%
G04 #@! TD*
G04 #@! TA.AperFunction,ComponentPad*
%ADD35C,1.400000*%
G04 #@! TD*
G04 #@! TA.AperFunction,SMDPad,CuDef*
%ADD36R,0.250000X1.900000*%
G04 #@! TD*
G04 #@! TA.AperFunction,SMDPad,CuDef*
%ADD37R,0.250000X2.650000*%
G04 #@! TD*
G04 #@! TA.AperFunction,SMDPad,CuDef*
%ADD38R,0.250000X1.600000*%
G04 #@! TD*
G04 #@! TA.AperFunction,SMDPad,CuDef*
%ADD39R,24.600000X0.250000*%
G04 #@! TD*
G04 #@! TA.AperFunction,SMDPad,CuDef*
%ADD40R,0.250000X8.050000*%
G04 #@! TD*
G04 #@! TA.AperFunction,SMDPad,CuDef*
%ADD41R,0.250000X0.950000*%
G04 #@! TD*
G04 #@! TA.AperFunction,SMDPad,CuDef*
%ADD42O,0.200000X5.669999*%
G04 #@! TD*
G04 #@! TA.AperFunction,SMDPad,CuDef*
%ADD43O,11.100001X0.200000*%
G04 #@! TD*
G04 #@! TA.AperFunction,SMDPad,CuDef*
%ADD44O,9.800001X0.399999*%
G04 #@! TD*
G04 #@! TA.AperFunction,SMDPad,CuDef*
%ADD45O,0.499999X0.250000*%
G04 #@! TD*
G04 #@! TA.AperFunction,SMDPad,CuDef*
%ADD46O,0.200000X6.799999*%
G04 #@! TD*
G04 #@! TA.AperFunction,SMDPad,CuDef*
%ADD47O,0.250000X0.499999*%
G04 #@! TD*
G04 #@! TA.AperFunction,ComponentPad*
%ADD48C,0.599999*%
G04 #@! TD*
G04 #@! TA.AperFunction,SMDPad,CuDef*
%ADD49R,0.200000X2.300000*%
G04 #@! TD*
G04 #@! TA.AperFunction,SMDPad,CuDef*
%ADD50R,0.200000X5.400000*%
G04 #@! TD*
G04 #@! TA.AperFunction,SMDPad,CuDef*
%ADD51R,0.200000X8.600000*%
G04 #@! TD*
G04 #@! TA.AperFunction,SMDPad,CuDef*
%ADD52R,0.200000X5.000000*%
G04 #@! TD*
G04 #@! TA.AperFunction,SMDPad,CuDef*
%ADD53R,1.400000X0.200000*%
G04 #@! TD*
G04 #@! TA.AperFunction,SMDPad,CuDef*
%ADD54R,5.000000X0.200000*%
G04 #@! TD*
G04 #@! TA.AperFunction,SMDPad,CuDef*
%ADD55R,6.800000X0.200000*%
G04 #@! TD*
G04 #@! TA.AperFunction,SMDPad,CuDef*
%ADD56R,4.500000X0.200000*%
G04 #@! TD*
G04 #@! TA.AperFunction,SMDPad,CuDef*
%ADD57R,0.200000X1.600000*%
G04 #@! TD*
G04 #@! TA.AperFunction,SMDPad,CuDef*
%ADD58R,0.200000X5.700000*%
G04 #@! TD*
G04 #@! TA.AperFunction,SMDPad,CuDef*
%ADD59R,0.200000X2.000000*%
G04 #@! TD*
G04 APERTURE END LIST*
D10*
G04 #@! TO.P,M4,E1,VBAT*
G04 #@! TO.N,/VBAT*
X80500003Y30111669D03*
G04 #@! TO.P,M4,E2,V12*
G04 #@! TO.N,unconnected-(M4-V12-PadE2)*
X80500003Y23711672D03*
G04 #@! TO.P,M4,E3,VIGN*
G04 #@! TO.N,/VIGN*
X80500003Y21811669D03*
G04 #@! TO.P,M4,E4,V5*
G04 #@! TO.N,+5V*
X80500003Y17511669D03*
D11*
G04 #@! TO.P,M4,E5,EN_5VP*
G04 #@! TO.N,/PWR_EN*
X80950002Y15111672D03*
G04 #@! TO.P,M4,E6,PG_5VP*
G04 #@! TO.N,Net-(M4-PG_5VP)*
X80950002Y14111671D03*
D12*
G04 #@! TO.P,M4,S1,GND*
G04 #@! TO.N,GND*
X64350007Y26261669D03*
D13*
X64350007Y17761671D03*
D14*
X64350007Y10661669D03*
D15*
X72750005Y10611669D03*
D16*
X73550006Y31211669D03*
D10*
X80500003Y11261669D03*
D14*
X81150004Y31161669D03*
D17*
X81150004Y26961671D03*
D18*
X81150004Y19611669D03*
D19*
X81150004Y16111672D03*
D20*
X81150004Y12811671D03*
D10*
G04 #@! TO.P,M4,V1,V12_PERM*
G04 #@! TO.N,+12V_PERM*
X65000006Y30561671D03*
G04 #@! TO.P,M4,V2,IN_VIGN*
G04 #@! TO.N,+12V_RAW*
X65000006Y28711672D03*
G04 #@! TO.P,M4,V3,V12_RAW*
X65000006Y23761669D03*
G04 #@! TO.P,M4,V4,5VP*
G04 #@! TO.N,+5VP*
X65000006Y11711671D03*
G04 #@! TD*
G04 #@! TO.P,R2,1*
G04 #@! TO.N,/INJ2_IN*
G04 #@! TA.AperFunction,SMDPad,CuDef*
G36*
G01*
X-32925000Y54400000D02*
X-32925000Y54770000D01*
G75*
G02*
X-32790000Y54905000I135000J0D01*
G01*
X-32520000Y54905000D01*
G75*
G02*
X-32385000Y54770000I0J-135000D01*
G01*
X-32385000Y54400000D01*
G75*
G02*
X-32520000Y54265000I-135000J0D01*
G01*
X-32790000Y54265000D01*
G75*
G02*
X-32925000Y54400000I0J135000D01*
G01*
G37*
G04 #@! TD.AperFunction*
G04 #@! TO.P,R2,2*
G04 #@! TO.N,GND*
G04 #@! TA.AperFunction,SMDPad,CuDef*
G36*
G01*
X-31905000Y54400000D02*
X-31905000Y54770000D01*
G75*
G02*
X-31770000Y54905000I135000J0D01*
G01*
X-31500000Y54905000D01*
G75*
G02*
X-31365000Y54770000I0J-135000D01*
G01*
X-31365000Y54400000D01*
G75*
G02*
X-31500000Y54265000I-135000J0D01*
G01*
X-31770000Y54265000D01*
G75*
G02*
X-31905000Y54400000I0J135000D01*
G01*
G37*
G04 #@! TD.AperFunction*
G04 #@! TD*
G04 #@! TO.P,R14,1*
G04 #@! TO.N,/LS3_IN*
G04 #@! TA.AperFunction,SMDPad,CuDef*
G36*
G01*
X-27105000Y50420000D02*
X-27105000Y50790000D01*
G75*
G02*
X-26970000Y50925000I135000J0D01*
G01*
X-26700000Y50925000D01*
G75*
G02*
X-26565000Y50790000I0J-135000D01*
G01*
X-26565000Y50420000D01*
G75*
G02*
X-26700000Y50285000I-135000J0D01*
G01*
X-26970000Y50285000D01*
G75*
G02*
X-27105000Y50420000I0J135000D01*
G01*
G37*
G04 #@! TD.AperFunction*
G04 #@! TO.P,R14,2*
G04 #@! TO.N,GND*
G04 #@! TA.AperFunction,SMDPad,CuDef*
G36*
G01*
X-26085000Y50420000D02*
X-26085000Y50790000D01*
G75*
G02*
X-25950000Y50925000I135000J0D01*
G01*
X-25680000Y50925000D01*
G75*
G02*
X-25545000Y50790000I0J-135000D01*
G01*
X-25545000Y50420000D01*
G75*
G02*
X-25680000Y50285000I-135000J0D01*
G01*
X-25950000Y50285000D01*
G75*
G02*
X-26085000Y50420000I0J135000D01*
G01*
G37*
G04 #@! TD.AperFunction*
G04 #@! TD*
D11*
G04 #@! TO.P,M6,E1,V5A*
G04 #@! TO.N,+5VA*
X-29000000Y72000000D03*
D21*
G04 #@! TO.P,M6,E2,GND*
G04 #@! TO.N,GND*
X-37900000Y70025000D03*
D22*
X-33350000Y72600000D03*
X-33350000Y69500000D03*
D11*
X-29000000Y71050000D03*
G04 #@! TO.P,M6,E3,OUT_KNOCK*
G04 #@! TO.N,/KNOCK_PROCESSED*
X-29000000Y70100002D03*
G04 #@! TO.P,M6,W1,IN_KNOCK*
G04 #@! TO.N,/KNOCK_RAW*
X-37700000Y71100000D03*
G04 #@! TO.P,M6,W2,VREF*
G04 #@! TO.N,/VREF1*
X-37700000Y72000000D03*
G04 #@! TD*
G04 #@! TO.P,U1,1,IN1*
G04 #@! TO.N,/INJ1_IN*
G04 #@! TA.AperFunction,SMDPad,CuDef*
G36*
G01*
X-9015000Y53625000D02*
X-9015000Y53175000D01*
G75*
G02*
X-9090000Y53100000I-75000J0D01*
G01*
X-10910000Y53100000D01*
G75*
G02*
X-10985000Y53175000I0J75000D01*
G01*
X-10985000Y53625000D01*
G75*
G02*
X-10910000Y53700000I75000J0D01*
G01*
X-9090000Y53700000D01*
G75*
G02*
X-9015000Y53625000I0J-75000D01*
G01*
G37*
G04 #@! TD.AperFunction*
G04 #@! TO.P,U1,2,S1*
G04 #@! TO.N,unconnected-(U1-S1-Pad2)*
G04 #@! TA.AperFunction,SMDPad,CuDef*
G36*
G01*
X-9015000Y54895000D02*
X-9015000Y54445000D01*
G75*
G02*
X-9090000Y54370000I-75000J0D01*
G01*
X-10910000Y54370000D01*
G75*
G02*
X-10985000Y54445000I0J75000D01*
G01*
X-10985000Y54895000D01*
G75*
G02*
X-10910000Y54970000I75000J0D01*
G01*
X-9090000Y54970000D01*
G75*
G02*
X-9015000Y54895000I0J-75000D01*
G01*
G37*
G04 #@! TD.AperFunction*
G04 #@! TO.P,U1,3,IN2*
G04 #@! TO.N,/INJ2_IN*
G04 #@! TA.AperFunction,SMDPad,CuDef*
G36*
G01*
X-9015000Y56165000D02*
X-9015000Y55715000D01*
G75*
G02*
X-9090000Y55640000I-75000J0D01*
G01*
X-10910000Y55640000D01*
G75*
G02*
X-10985000Y55715000I0J75000D01*
G01*
X-10985000Y56165000D01*
G75*
G02*
X-10910000Y56240000I75000J0D01*
G01*
X-9090000Y56240000D01*
G75*
G02*
X-9015000Y56165000I0J-75000D01*
G01*
G37*
G04 #@! TD.AperFunction*
G04 #@! TO.P,U1,4,S2*
G04 #@! TO.N,unconnected-(U1-S2-Pad4)*
G04 #@! TA.AperFunction,SMDPad,CuDef*
G36*
G01*
X-9015000Y57435000D02*
X-9015000Y56985000D01*
G75*
G02*
X-9090000Y56910000I-75000J0D01*
G01*
X-10910000Y56910000D01*
G75*
G02*
X-10985000Y56985000I0J75000D01*
G01*
X-10985000Y57435000D01*
G75*
G02*
X-10910000Y57510000I75000J0D01*
G01*
X-9090000Y57510000D01*
G75*
G02*
X-9015000Y57435000I0J-75000D01*
G01*
G37*
G04 #@! TD.AperFunction*
G04 #@! TO.P,U1,5,SOURCE2*
G04 #@! TO.N,GND*
G04 #@! TA.AperFunction,SMDPad,CuDef*
G36*
G01*
X-13965000Y57435000D02*
X-13965000Y56985000D01*
G75*
G02*
X-14040000Y56910000I-75000J0D01*
G01*
X-15860000Y56910000D01*
G75*
G02*
X-15935000Y56985000I0J75000D01*
G01*
X-15935000Y57435000D01*
G75*
G02*
X-15860000Y57510000I75000J0D01*
G01*
X-14040000Y57510000D01*
G75*
G02*
X-13965000Y57435000I0J-75000D01*
G01*
G37*
G04 #@! TD.AperFunction*
G04 #@! TO.P,U1,6,DRAIN2*
G04 #@! TO.N,/INJ2_OUT*
G04 #@! TA.AperFunction,SMDPad,CuDef*
G36*
G01*
X-13965000Y56165000D02*
X-13965000Y55715000D01*
G75*
G02*
X-14040000Y55640000I-75000J0D01*
G01*
X-15860000Y55640000D01*
G75*
G02*
X-15935000Y55715000I0J75000D01*
G01*
X-15935000Y56165000D01*
G75*
G02*
X-15860000Y56240000I75000J0D01*
G01*
X-14040000Y56240000D01*
G75*
G02*
X-13965000Y56165000I0J-75000D01*
G01*
G37*
G04 #@! TD.AperFunction*
G04 #@! TO.P,U1,7,SOURCE1*
G04 #@! TO.N,GND*
G04 #@! TA.AperFunction,SMDPad,CuDef*
G36*
G01*
X-13965000Y54895000D02*
X-13965000Y54445000D01*
G75*
G02*
X-14040000Y54370000I-75000J0D01*
G01*
X-15860000Y54370000D01*
G75*
G02*
X-15935000Y54445000I0J75000D01*
G01*
X-15935000Y54895000D01*
G75*
G02*
X-15860000Y54970000I75000J0D01*
G01*
X-14040000Y54970000D01*
G75*
G02*
X-13965000Y54895000I0J-75000D01*
G01*
G37*
G04 #@! TD.AperFunction*
G04 #@! TO.P,U1,8,DRAIN1*
G04 #@! TO.N,/INJ1_OUT*
G04 #@! TA.AperFunction,SMDPad,CuDef*
G36*
G01*
X-13965000Y53625000D02*
X-13965000Y53175000D01*
G75*
G02*
X-14040000Y53100000I-75000J0D01*
G01*
X-15860000Y53100000D01*
G75*
G02*
X-15935000Y53175000I0J75000D01*
G01*
X-15935000Y53625000D01*
G75*
G02*
X-15860000Y53700000I75000J0D01*
G01*
X-14040000Y53700000D01*
G75*
G02*
X-13965000Y53625000I0J-75000D01*
G01*
G37*
G04 #@! TD.AperFunction*
G04 #@! TD*
G04 #@! TO.P,R8,1*
G04 #@! TO.N,/IACCLOSE_IN*
G04 #@! TA.AperFunction,SMDPad,CuDef*
G36*
G01*
X-30015000Y52410000D02*
X-30015000Y52780000D01*
G75*
G02*
X-29880000Y52915000I135000J0D01*
G01*
X-29610000Y52915000D01*
G75*
G02*
X-29475000Y52780000I0J-135000D01*
G01*
X-29475000Y52410000D01*
G75*
G02*
X-29610000Y52275000I-135000J0D01*
G01*
X-29880000Y52275000D01*
G75*
G02*
X-30015000Y52410000I0J135000D01*
G01*
G37*
G04 #@! TD.AperFunction*
G04 #@! TO.P,R8,2*
G04 #@! TO.N,GND*
G04 #@! TA.AperFunction,SMDPad,CuDef*
G36*
G01*
X-28995000Y52410000D02*
X-28995000Y52780000D01*
G75*
G02*
X-28860000Y52915000I135000J0D01*
G01*
X-28590000Y52915000D01*
G75*
G02*
X-28455000Y52780000I0J-135000D01*
G01*
X-28455000Y52410000D01*
G75*
G02*
X-28590000Y52275000I-135000J0D01*
G01*
X-28860000Y52275000D01*
G75*
G02*
X-28995000Y52410000I0J135000D01*
G01*
G37*
G04 #@! TD.AperFunction*
G04 #@! TD*
G04 #@! TO.P,Q2,1,G*
G04 #@! TO.N,Net-(Q2-G)*
G04 #@! TA.AperFunction,SMDPad,CuDef*
G36*
G01*
X-32830000Y46020000D02*
X-32830000Y46320000D01*
G75*
G02*
X-32680000Y46470000I150000J0D01*
G01*
X-31505000Y46470000D01*
G75*
G02*
X-31355000Y46320000I0J-150000D01*
G01*
X-31355000Y46020000D01*
G75*
G02*
X-31505000Y45870000I-150000J0D01*
G01*
X-32680000Y45870000D01*
G75*
G02*
X-32830000Y46020000I0J150000D01*
G01*
G37*
G04 #@! TD.AperFunction*
G04 #@! TO.P,Q2,2,S*
G04 #@! TO.N,GND*
G04 #@! TA.AperFunction,SMDPad,CuDef*
G36*
G01*
X-32830000Y44120000D02*
X-32830000Y44420000D01*
G75*
G02*
X-32680000Y44570000I150000J0D01*
G01*
X-31505000Y44570000D01*
G75*
G02*
X-31355000Y44420000I0J-150000D01*
G01*
X-31355000Y44120000D01*
G75*
G02*
X-31505000Y43970000I-150000J0D01*
G01*
X-32680000Y43970000D01*
G75*
G02*
X-32830000Y44120000I0J150000D01*
G01*
G37*
G04 #@! TD.AperFunction*
G04 #@! TO.P,Q2,3,D*
G04 #@! TO.N,/CHECKENGINE_OUT*
G04 #@! TA.AperFunction,SMDPad,CuDef*
G36*
G01*
X-30955000Y45070000D02*
X-30955000Y45370000D01*
G75*
G02*
X-30805000Y45520000I150000J0D01*
G01*
X-29630000Y45520000D01*
G75*
G02*
X-29480000Y45370000I0J-150000D01*
G01*
X-29480000Y45070000D01*
G75*
G02*
X-29630000Y44920000I-150000J0D01*
G01*
X-30805000Y44920000D01*
G75*
G02*
X-30955000Y45070000I0J150000D01*
G01*
G37*
G04 #@! TD.AperFunction*
G04 #@! TD*
G04 #@! TO.P,M2,E1,HALL_EN*
G04 #@! TO.N,unconnected-(M2-HALL_EN-PadE1)*
X96750007Y69761671D03*
G04 #@! TO.P,M2,E2,NC*
G04 #@! TO.N,unconnected-(M2-NC-PadE2)*
X96750007Y68561671D03*
G04 #@! TO.P,M2,E3,OUT*
G04 #@! TO.N,/CRANK*
X96750007Y70961671D03*
G04 #@! TO.P,M2,E4,V5_IN*
G04 #@! TO.N,+5VA*
X96750007Y72161671D03*
D23*
G04 #@! TO.P,M2,G,GND*
G04 #@! TO.N,GND*
X82100007Y69494171D03*
D24*
X82100007Y63444171D03*
D25*
X89112507Y72461671D03*
D26*
X89525007Y63011671D03*
D27*
X96950007Y65474171D03*
D11*
G04 #@! TO.P,M2,W1,VR-/HALL*
G04 #@! TO.N,/VR-*
X82325007Y65701671D03*
G04 #@! TO.P,M2,W2,VR+*
G04 #@! TO.N,/VRCRANK+*
X82325007Y64701671D03*
G04 #@! TD*
D28*
G04 #@! TO.P,J2,1,Pin_1*
G04 #@! TO.N,/IO1*
X38500000Y460000D03*
D29*
G04 #@! TO.P,J2,2,Pin_2*
G04 #@! TO.N,/IO2*
X38500000Y3000000D03*
G04 #@! TO.P,J2,3,Pin_3*
G04 #@! TO.N,/IO3*
X41040000Y460000D03*
G04 #@! TO.P,J2,4,Pin_4*
G04 #@! TO.N,/IO4*
X41040000Y3000000D03*
G04 #@! TO.P,J2,5,Pin_5*
G04 #@! TO.N,/RES1*
X43580000Y460000D03*
G04 #@! TO.P,J2,6,Pin_6*
G04 #@! TO.N,/RES2*
X43580000Y3000000D03*
G04 #@! TO.P,J2,7,Pin_7*
G04 #@! TO.N,/RES3*
X46120000Y460000D03*
G04 #@! TO.P,J2,8,Pin_8*
G04 #@! TO.N,/AUX1*
X46120000Y3000000D03*
G04 #@! TO.P,J2,9,Pin_9*
G04 #@! TO.N,/AUX2*
X48660000Y460000D03*
G04 #@! TO.P,J2,10,Pin_10*
G04 #@! TO.N,/AUX3*
X48660000Y3000000D03*
G04 #@! TO.P,J2,11,Pin_11*
G04 #@! TO.N,/AUX4*
X51200000Y460000D03*
G04 #@! TO.P,J2,12,Pin_12*
G04 #@! TO.N,/D1_IN*
X51200000Y3000000D03*
G04 #@! TO.P,J2,13,Pin_13*
G04 #@! TO.N,/D2_IN*
X53740000Y460000D03*
G04 #@! TO.P,J2,14,Pin_14*
G04 #@! TO.N,/D3_IN*
X53740000Y3000000D03*
G04 #@! TO.P,J2,15,Pin_15*
G04 #@! TO.N,/D4_IN*
X56280000Y460000D03*
G04 #@! TO.P,J2,16,Pin_16*
G04 #@! TO.N,/IO5*
X56280000Y3000000D03*
G04 #@! TO.P,J2,17,Pin_17*
G04 #@! TO.N,/IO6*
X58820000Y460000D03*
G04 #@! TO.P,J2,18,Pin_18*
G04 #@! TO.N,/MAP2*
X58820000Y3000000D03*
G04 #@! TO.P,J2,19,Pin_19*
G04 #@! TO.N,/MAP3*
X61360000Y460000D03*
G04 #@! TO.P,J2,20,Pin_20*
G04 #@! TO.N,/PPS*
X61360000Y3000000D03*
G04 #@! TO.P,J2,21,Pin_21*
G04 #@! TO.N,/PPS2*
X63900000Y460000D03*
G04 #@! TO.P,J2,22,Pin_22*
G04 #@! TO.N,/TPS2*
X63900000Y3000000D03*
G04 #@! TO.P,J2,23,Pin_23*
G04 #@! TO.N,/AT1*
X66440000Y460000D03*
G04 #@! TO.P,J2,24,Pin_24*
G04 #@! TO.N,/AT2*
X66440000Y3000000D03*
G04 #@! TO.P,J2,25,Pin_25*
G04 #@! TO.N,/O2S2*
X68980000Y460000D03*
G04 #@! TO.P,J2,26,Pin_26*
G04 #@! TO.N,/SENS1*
X68980000Y3000000D03*
G04 #@! TO.P,J2,27,Pin_27*
G04 #@! TO.N,/SENS2*
X71520000Y460000D03*
G04 #@! TO.P,J2,28,Pin_28*
G04 #@! TO.N,/SENS3*
X71520000Y3000000D03*
G04 #@! TO.P,J2,29,Pin_29*
G04 #@! TO.N,/SENS4*
X74060000Y460000D03*
G04 #@! TO.P,J2,30,Pin_30*
G04 #@! TO.N,/KNOCK_RAW*
X74060000Y3000000D03*
G04 #@! TD*
G04 #@! TO.P,R6,1*
G04 #@! TO.N,/FANRELAY_IN*
G04 #@! TA.AperFunction,SMDPad,CuDef*
G36*
G01*
X-30015000Y56390000D02*
X-30015000Y56760000D01*
G75*
G02*
X-29880000Y56895000I135000J0D01*
G01*
X-29610000Y56895000D01*
G75*
G02*
X-29475000Y56760000I0J-135000D01*
G01*
X-29475000Y56390000D01*
G75*
G02*
X-29610000Y56255000I-135000J0D01*
G01*
X-29880000Y56255000D01*
G75*
G02*
X-30015000Y56390000I0J135000D01*
G01*
G37*
G04 #@! TD.AperFunction*
G04 #@! TO.P,R6,2*
G04 #@! TO.N,GND*
G04 #@! TA.AperFunction,SMDPad,CuDef*
G36*
G01*
X-28995000Y56390000D02*
X-28995000Y56760000D01*
G75*
G02*
X-28860000Y56895000I135000J0D01*
G01*
X-28590000Y56895000D01*
G75*
G02*
X-28455000Y56760000I0J-135000D01*
G01*
X-28455000Y56390000D01*
G75*
G02*
X-28590000Y56255000I-135000J0D01*
G01*
X-28860000Y56255000D01*
G75*
G02*
X-28995000Y56390000I0J135000D01*
G01*
G37*
G04 #@! TD.AperFunction*
G04 #@! TD*
G04 #@! TO.P,R11,1*
G04 #@! TO.N,/LS2_IN*
G04 #@! TA.AperFunction,SMDPad,CuDef*
G36*
G01*
X-27105000Y56390000D02*
X-27105000Y56760000D01*
G75*
G02*
X-26970000Y56895000I135000J0D01*
G01*
X-26700000Y56895000D01*
G75*
G02*
X-26565000Y56760000I0J-135000D01*
G01*
X-26565000Y56390000D01*
G75*
G02*
X-26700000Y56255000I-135000J0D01*
G01*
X-26970000Y56255000D01*
G75*
G02*
X-27105000Y56390000I0J135000D01*
G01*
G37*
G04 #@! TD.AperFunction*
G04 #@! TO.P,R11,2*
G04 #@! TO.N,GND*
G04 #@! TA.AperFunction,SMDPad,CuDef*
G36*
G01*
X-26085000Y56390000D02*
X-26085000Y56760000D01*
G75*
G02*
X-25950000Y56895000I135000J0D01*
G01*
X-25680000Y56895000D01*
G75*
G02*
X-25545000Y56760000I0J-135000D01*
G01*
X-25545000Y56390000D01*
G75*
G02*
X-25680000Y56255000I-135000J0D01*
G01*
X-25950000Y56255000D01*
G75*
G02*
X-26085000Y56390000I0J135000D01*
G01*
G37*
G04 #@! TD.AperFunction*
G04 #@! TD*
G04 #@! TO.P,R9,1*
G04 #@! TO.N,Net-(Q2-G)*
G04 #@! TA.AperFunction,SMDPad,CuDef*
G36*
G01*
X-30015000Y50420000D02*
X-30015000Y50790000D01*
G75*
G02*
X-29880000Y50925000I135000J0D01*
G01*
X-29610000Y50925000D01*
G75*
G02*
X-29475000Y50790000I0J-135000D01*
G01*
X-29475000Y50420000D01*
G75*
G02*
X-29610000Y50285000I-135000J0D01*
G01*
X-29880000Y50285000D01*
G75*
G02*
X-30015000Y50420000I0J135000D01*
G01*
G37*
G04 #@! TD.AperFunction*
G04 #@! TO.P,R9,2*
G04 #@! TO.N,GND*
G04 #@! TA.AperFunction,SMDPad,CuDef*
G36*
G01*
X-28995000Y50420000D02*
X-28995000Y50790000D01*
G75*
G02*
X-28860000Y50925000I135000J0D01*
G01*
X-28590000Y50925000D01*
G75*
G02*
X-28455000Y50790000I0J-135000D01*
G01*
X-28455000Y50420000D01*
G75*
G02*
X-28590000Y50285000I-135000J0D01*
G01*
X-28860000Y50285000D01*
G75*
G02*
X-28995000Y50420000I0J135000D01*
G01*
G37*
G04 #@! TD.AperFunction*
G04 #@! TD*
D30*
G04 #@! TO.P,J1,1,NC*
G04 #@! TO.N,unconnected-(J1-NC-Pad1)*
X18950000Y85500000D03*
D31*
G04 #@! TO.P,J1,2,BATT*
G04 #@! TO.N,+12V_PERM*
X21950000Y85500000D03*
G04 #@! TO.P,J1,3,CCO*
G04 #@! TO.N,unconnected-(J1-CCO-Pad3)*
X24950000Y85500000D03*
G04 #@! TO.P,J1,4,FC*
G04 #@! TO.N,/FUELRELAY_OUT*
X27950000Y85500000D03*
G04 #@! TO.P,J1,5,ELS*
G04 #@! TO.N,unconnected-(J1-ELS-Pad5)*
X30950000Y85500000D03*
G04 #@! TO.P,J1,6,AC2*
G04 #@! TO.N,unconnected-(J1-AC2-Pad6)*
X33950000Y85500000D03*
G04 #@! TO.P,J1,7,TE2*
G04 #@! TO.N,unconnected-(J1-TE2-Pad7)*
X36950000Y85500000D03*
G04 #@! TO.P,J1,8,TE1*
G04 #@! TO.N,unconnected-(J1-TE1-Pad8)*
X39950000Y85500000D03*
G04 #@! TO.P,J1,9,+B*
G04 #@! TO.N,+12V_RAW*
X18950000Y90000000D03*
G04 #@! TO.P,J1,10,W*
G04 #@! TO.N,/CHECKENGINE_OUT*
X21950000Y90000000D03*
G04 #@! TO.P,J1,11,EGW*
G04 #@! TO.N,unconnected-(J1-EGW-Pad11)*
X24950000Y90000000D03*
G04 #@! TO.P,J1,12,AC1*
G04 #@! TO.N,unconnected-(J1-AC1-Pad12)*
X27950000Y90000000D03*
G04 #@! TO.P,J1,13,SPD*
G04 #@! TO.N,/VSS*
X30950000Y90000000D03*
G04 #@! TO.P,J1,14,ACT*
G04 #@! TO.N,unconnected-(J1-ACT-Pad14)*
X33950000Y90000000D03*
G04 #@! TO.P,J1,15,ELS2*
G04 #@! TO.N,unconnected-(J1-ELS2-Pad15)*
X36950000Y90000000D03*
G04 #@! TO.P,J1,16,VF*
G04 #@! TO.N,unconnected-(J1-VF-Pad16)*
X39950000Y90000000D03*
G04 #@! TO.P,J1,101,RSC*
G04 #@! TO.N,/IACCLOSE_OUT*
X45950000Y85500000D03*
G04 #@! TO.P,J1,102,NSW*
G04 #@! TO.N,unconnected-(J1-NSW-Pad102)*
X49400000Y85500000D03*
G04 #@! TO.P,J1,103,THW*
G04 #@! TO.N,/COOLANT*
X52500000Y85500000D03*
G04 #@! TO.P,J1,104,PIM*
G04 #@! TO.N,/MAP*
X55500000Y85500000D03*
G04 #@! TO.P,J1,105,THA*
G04 #@! TO.N,/AIR*
X58500000Y85500000D03*
G04 #@! TO.P,J1,106,IGT*
G04 #@! TO.N,/SPARK1*
X61500000Y85500000D03*
G04 #@! TO.P,J1,107,IGF*
G04 #@! TO.N,unconnected-(J1-IGF-Pad107)*
X64500000Y85500000D03*
G04 #@! TO.P,J1,108,I0F*
G04 #@! TO.N,unconnected-(J1-I0F-Pad108)*
X67500000Y85500000D03*
G04 #@! TO.P,J1,109,NE-*
G04 #@! TO.N,/VR-*
X70500000Y85500000D03*
G04 #@! TO.P,J1,110,OX*
G04 #@! TO.N,/O2SENS*
X73500000Y85500000D03*
G04 #@! TO.P,J1,111,STA*
G04 #@! TO.N,unconnected-(J1-STA-Pad111)*
X76600000Y85500000D03*
G04 #@! TO.P,J1,112,#10*
G04 #@! TO.N,/INJ1*
X80100000Y85500000D03*
G04 #@! TO.P,J1,113,E01*
G04 #@! TO.N,GND*
X83600000Y85500000D03*
G04 #@! TO.P,J1,114,RSO*
G04 #@! TO.N,/IACOPEN_OUT*
X45900000Y90000000D03*
G04 #@! TO.P,J1,115,HT*
G04 #@! TO.N,/O2HEAT_OUT*
X49400000Y90000000D03*
G04 #@! TO.P,J1,116,E2*
G04 #@! TO.N,GNDA*
X52500000Y90000000D03*
G04 #@! TO.P,J1,117,PSW*
G04 #@! TO.N,/TPS*
X55500000Y90000000D03*
G04 #@! TO.P,J1,118,VCC*
G04 #@! TO.N,+5VP*
X58500000Y90000000D03*
G04 #@! TO.P,J1,119,IDL*
G04 #@! TO.N,/IDLESWITCH*
X61500000Y90000000D03*
G04 #@! TO.P,J1,120,FAN*
G04 #@! TO.N,/FANRELAY_OUT*
X64500000Y90000000D03*
G04 #@! TO.P,J1,121,NE*
G04 #@! TO.N,/VRCRANK+*
X67500000Y90000000D03*
G04 #@! TO.P,J1,122,ELS3*
G04 #@! TO.N,unconnected-(J1-ELS3-Pad122)*
X70500000Y90000000D03*
G04 #@! TO.P,J1,123,IPV*
G04 #@! TO.N,unconnected-(J1-IPV-Pad123)*
X73500000Y90000000D03*
G04 #@! TO.P,J1,124,E1*
G04 #@! TO.N,GND*
X76600000Y90000000D03*
G04 #@! TO.P,J1,125,#20*
G04 #@! TO.N,/INJ2*
X80100000Y90000000D03*
G04 #@! TO.P,J1,126,NC*
G04 #@! TO.N,unconnected-(J1-NC-Pad126)*
X83600000Y90000000D03*
D32*
G04 #@! TO.P,J1,MH1,MH1*
G04 #@! TO.N,GND*
X18550000Y95700000D03*
G04 #@! TO.P,J1,MH2,MH2*
X42800000Y95700000D03*
G04 #@! TO.P,J1,MH3,MH3*
X84250000Y95700000D03*
G04 #@! TD*
G04 #@! TO.P,R13,1*
G04 #@! TO.N,/LS4_IN*
G04 #@! TA.AperFunction,SMDPad,CuDef*
G36*
G01*
X-27105000Y52410000D02*
X-27105000Y52780000D01*
G75*
G02*
X-26970000Y52915000I135000J0D01*
G01*
X-26700000Y52915000D01*
G75*
G02*
X-26565000Y52780000I0J-135000D01*
G01*
X-26565000Y52410000D01*
G75*
G02*
X-26700000Y52275000I-135000J0D01*
G01*
X-26970000Y52275000D01*
G75*
G02*
X-27105000Y52410000I0J135000D01*
G01*
G37*
G04 #@! TD.AperFunction*
G04 #@! TO.P,R13,2*
G04 #@! TO.N,GND*
G04 #@! TA.AperFunction,SMDPad,CuDef*
G36*
G01*
X-26085000Y52410000D02*
X-26085000Y52780000D01*
G75*
G02*
X-25950000Y52915000I135000J0D01*
G01*
X-25680000Y52915000D01*
G75*
G02*
X-25545000Y52780000I0J-135000D01*
G01*
X-25545000Y52410000D01*
G75*
G02*
X-25680000Y52275000I-135000J0D01*
G01*
X-25950000Y52275000D01*
G75*
G02*
X-26085000Y52410000I0J135000D01*
G01*
G37*
G04 #@! TD.AperFunction*
G04 #@! TD*
G04 #@! TO.P,U4,1,IN1*
G04 #@! TO.N,/IACCLOSE_IN*
G04 #@! TA.AperFunction,SMDPad,CuDef*
G36*
G01*
X44320000Y76040000D02*
X43870000Y76040000D01*
G75*
G02*
X43795000Y76115000I0J75000D01*
G01*
X43795000Y77935000D01*
G75*
G02*
X43870000Y78010000I75000J0D01*
G01*
X44320000Y78010000D01*
G75*
G02*
X44395000Y77935000I0J-75000D01*
G01*
X44395000Y76115000D01*
G75*
G02*
X44320000Y76040000I-75000J0D01*
G01*
G37*
G04 #@! TD.AperFunction*
G04 #@! TO.P,U4,2,S1*
G04 #@! TO.N,unconnected-(U4-S1-Pad2)*
G04 #@! TA.AperFunction,SMDPad,CuDef*
G36*
G01*
X45590000Y76040000D02*
X45140000Y76040000D01*
G75*
G02*
X45065000Y76115000I0J75000D01*
G01*
X45065000Y77935000D01*
G75*
G02*
X45140000Y78010000I75000J0D01*
G01*
X45590000Y78010000D01*
G75*
G02*
X45665000Y77935000I0J-75000D01*
G01*
X45665000Y76115000D01*
G75*
G02*
X45590000Y76040000I-75000J0D01*
G01*
G37*
G04 #@! TD.AperFunction*
G04 #@! TO.P,U4,3,IN2*
G04 #@! TO.N,/IACOPEN_IN*
G04 #@! TA.AperFunction,SMDPad,CuDef*
G36*
G01*
X46860000Y76040000D02*
X46410000Y76040000D01*
G75*
G02*
X46335000Y76115000I0J75000D01*
G01*
X46335000Y77935000D01*
G75*
G02*
X46410000Y78010000I75000J0D01*
G01*
X46860000Y78010000D01*
G75*
G02*
X46935000Y77935000I0J-75000D01*
G01*
X46935000Y76115000D01*
G75*
G02*
X46860000Y76040000I-75000J0D01*
G01*
G37*
G04 #@! TD.AperFunction*
G04 #@! TO.P,U4,4,S2*
G04 #@! TO.N,unconnected-(U4-S2-Pad4)*
G04 #@! TA.AperFunction,SMDPad,CuDef*
G36*
G01*
X48130000Y76040000D02*
X47680000Y76040000D01*
G75*
G02*
X47605000Y76115000I0J75000D01*
G01*
X47605000Y77935000D01*
G75*
G02*
X47680000Y78010000I75000J0D01*
G01*
X48130000Y78010000D01*
G75*
G02*
X48205000Y77935000I0J-75000D01*
G01*
X48205000Y76115000D01*
G75*
G02*
X48130000Y76040000I-75000J0D01*
G01*
G37*
G04 #@! TD.AperFunction*
G04 #@! TO.P,U4,5,SOURCE2*
G04 #@! TO.N,GND*
G04 #@! TA.AperFunction,SMDPad,CuDef*
G36*
G01*
X48130000Y80990000D02*
X47680000Y80990000D01*
G75*
G02*
X47605000Y81065000I0J75000D01*
G01*
X47605000Y82885000D01*
G75*
G02*
X47680000Y82960000I75000J0D01*
G01*
X48130000Y82960000D01*
G75*
G02*
X48205000Y82885000I0J-75000D01*
G01*
X48205000Y81065000D01*
G75*
G02*
X48130000Y80990000I-75000J0D01*
G01*
G37*
G04 #@! TD.AperFunction*
G04 #@! TO.P,U4,6,DRAIN2*
G04 #@! TO.N,/IACOPEN_OUT*
G04 #@! TA.AperFunction,SMDPad,CuDef*
G36*
G01*
X46860000Y80990000D02*
X46410000Y80990000D01*
G75*
G02*
X46335000Y81065000I0J75000D01*
G01*
X46335000Y82885000D01*
G75*
G02*
X46410000Y82960000I75000J0D01*
G01*
X46860000Y82960000D01*
G75*
G02*
X46935000Y82885000I0J-75000D01*
G01*
X46935000Y81065000D01*
G75*
G02*
X46860000Y80990000I-75000J0D01*
G01*
G37*
G04 #@! TD.AperFunction*
G04 #@! TO.P,U4,7,SOURCE1*
G04 #@! TO.N,GND*
G04 #@! TA.AperFunction,SMDPad,CuDef*
G36*
G01*
X45590000Y80990000D02*
X45140000Y80990000D01*
G75*
G02*
X45065000Y81065000I0J75000D01*
G01*
X45065000Y82885000D01*
G75*
G02*
X45140000Y82960000I75000J0D01*
G01*
X45590000Y82960000D01*
G75*
G02*
X45665000Y82885000I0J-75000D01*
G01*
X45665000Y81065000D01*
G75*
G02*
X45590000Y80990000I-75000J0D01*
G01*
G37*
G04 #@! TD.AperFunction*
G04 #@! TO.P,U4,8,DRAIN1*
G04 #@! TO.N,/IACCLOSE_OUT*
G04 #@! TA.AperFunction,SMDPad,CuDef*
G36*
G01*
X44320000Y80990000D02*
X43870000Y80990000D01*
G75*
G02*
X43795000Y81065000I0J75000D01*
G01*
X43795000Y82885000D01*
G75*
G02*
X43870000Y82960000I75000J0D01*
G01*
X44320000Y82960000D01*
G75*
G02*
X44395000Y82885000I0J-75000D01*
G01*
X44395000Y81065000D01*
G75*
G02*
X44320000Y80990000I-75000J0D01*
G01*
G37*
G04 #@! TD.AperFunction*
G04 #@! TD*
D11*
G04 #@! TO.P,TP1,E1*
G04 #@! TO.N,N/C*
X96750007Y47661671D03*
G04 #@! TO.P,TP1,E2*
X96750007Y46461671D03*
G04 #@! TO.P,TP1,E3*
X96750007Y48861671D03*
G04 #@! TO.P,TP1,E4*
X96750007Y50061671D03*
D23*
G04 #@! TO.P,TP1,G*
X82100007Y47394171D03*
D24*
X82100007Y41344171D03*
D25*
X89112507Y50361671D03*
D26*
X89525007Y40911671D03*
D27*
X96950007Y43374171D03*
D11*
G04 #@! TO.P,TP1,W1*
X82325007Y43601671D03*
G04 #@! TO.P,TP1,W2*
X82325007Y42601671D03*
G04 #@! TD*
D33*
G04 #@! TO.P,J3,1*
G04 #@! TO.N,unconnected-(J3-Pad1)*
X122100007Y75361671D03*
G04 #@! TO.P,J3,2*
G04 #@! TO.N,unconnected-(J3-Pad2)*
X125100007Y75361671D03*
G04 #@! TO.P,J3,3*
G04 #@! TO.N,unconnected-(J3-Pad3)*
X128100007Y75361671D03*
G04 #@! TO.P,J3,4*
G04 #@! TO.N,unconnected-(J3-Pad4)*
X131100007Y75361671D03*
G04 #@! TO.P,J3,5*
G04 #@! TO.N,unconnected-(J3-Pad5)*
X134100007Y75361671D03*
G04 #@! TO.P,J3,6*
G04 #@! TO.N,unconnected-(J3-Pad6)*
X137100007Y75361671D03*
G04 #@! TO.P,J3,7*
G04 #@! TO.N,unconnected-(J3-Pad7)*
X140100007Y75361671D03*
G04 #@! TO.P,J3,8*
G04 #@! TO.N,unconnected-(J3-Pad8)*
X123600007Y72861671D03*
G04 #@! TO.P,J3,9*
G04 #@! TO.N,unconnected-(J3-Pad9)*
X126600007Y72861671D03*
G04 #@! TO.P,J3,10*
G04 #@! TO.N,unconnected-(J3-Pad10)*
X129600007Y72861671D03*
G04 #@! TO.P,J3,11*
G04 #@! TO.N,unconnected-(J3-Pad11)*
X132600007Y72861671D03*
G04 #@! TO.P,J3,12*
G04 #@! TO.N,unconnected-(J3-Pad12)*
X135600007Y72861671D03*
G04 #@! TO.P,J3,13*
G04 #@! TO.N,unconnected-(J3-Pad13)*
X138600007Y72861671D03*
G04 #@! TO.P,J3,14*
G04 #@! TO.N,unconnected-(J3-Pad14)*
X123600007Y69861671D03*
G04 #@! TO.P,J3,15*
G04 #@! TO.N,unconnected-(J3-Pad15)*
X126600007Y69861671D03*
G04 #@! TO.P,J3,16*
G04 #@! TO.N,unconnected-(J3-Pad16)*
X129600007Y69861671D03*
G04 #@! TO.P,J3,17*
G04 #@! TO.N,unconnected-(J3-Pad17)*
X132600007Y69861671D03*
G04 #@! TO.P,J3,18*
G04 #@! TO.N,unconnected-(J3-Pad18)*
X135600007Y69861671D03*
G04 #@! TO.P,J3,19*
G04 #@! TO.N,unconnected-(J3-Pad19)*
X138600007Y69861671D03*
G04 #@! TO.P,J3,20*
G04 #@! TO.N,unconnected-(J3-Pad20)*
X122100007Y67361671D03*
G04 #@! TO.P,J3,21*
G04 #@! TO.N,unconnected-(J3-Pad21)*
X125100007Y67361671D03*
G04 #@! TO.P,J3,22*
G04 #@! TO.N,unconnected-(J3-Pad22)*
X128100007Y67361671D03*
G04 #@! TO.P,J3,23*
G04 #@! TO.N,unconnected-(J3-Pad23)*
X131100007Y67361671D03*
G04 #@! TO.P,J3,24*
G04 #@! TO.N,unconnected-(J3-Pad24)*
X134100007Y67361671D03*
G04 #@! TO.P,J3,25*
G04 #@! TO.N,unconnected-(J3-Pad25)*
X137100007Y67361671D03*
G04 #@! TO.P,J3,26*
G04 #@! TO.N,unconnected-(J3-Pad26)*
X140100007Y67361671D03*
D34*
G04 #@! TO.P,J3,MH1*
G04 #@! TO.N,N/C*
X114850007Y60861671D03*
G04 #@! TO.P,J3,MH2*
X147350007Y60861671D03*
G04 #@! TD*
G04 #@! TO.P,R12,1*
G04 #@! TO.N,/LS1_IN*
G04 #@! TA.AperFunction,SMDPad,CuDef*
G36*
G01*
X-27105000Y54400000D02*
X-27105000Y54770000D01*
G75*
G02*
X-26970000Y54905000I135000J0D01*
G01*
X-26700000Y54905000D01*
G75*
G02*
X-26565000Y54770000I0J-135000D01*
G01*
X-26565000Y54400000D01*
G75*
G02*
X-26700000Y54265000I-135000J0D01*
G01*
X-26970000Y54265000D01*
G75*
G02*
X-27105000Y54400000I0J135000D01*
G01*
G37*
G04 #@! TD.AperFunction*
G04 #@! TO.P,R12,2*
G04 #@! TO.N,GND*
G04 #@! TA.AperFunction,SMDPad,CuDef*
G36*
G01*
X-26085000Y54400000D02*
X-26085000Y54770000D01*
G75*
G02*
X-25950000Y54905000I135000J0D01*
G01*
X-25680000Y54905000D01*
G75*
G02*
X-25545000Y54770000I0J-135000D01*
G01*
X-25545000Y54400000D01*
G75*
G02*
X-25680000Y54265000I-135000J0D01*
G01*
X-25950000Y54265000D01*
G75*
G02*
X-26085000Y54400000I0J135000D01*
G01*
G37*
G04 #@! TD.AperFunction*
G04 #@! TD*
G04 #@! TO.P,D9,1,K*
G04 #@! TO.N,+12V_RAW*
G04 #@! TA.AperFunction,SMDPad,CuDef*
G36*
G01*
X-64420000Y32070000D02*
X-64420000Y32820000D01*
G75*
G02*
X-64195000Y33045000I225000J0D01*
G01*
X-63745000Y33045000D01*
G75*
G02*
X-63520000Y32820000I0J-225000D01*
G01*
X-63520000Y32070000D01*
G75*
G02*
X-63745000Y31845000I-225000J0D01*
G01*
X-64195000Y31845000D01*
G75*
G02*
X-64420000Y32070000I0J225000D01*
G01*
G37*
G04 #@! TD.AperFunction*
G04 #@! TO.P,D9,2,A*
G04 #@! TO.N,/LS4_OUT*
G04 #@! TA.AperFunction,SMDPad,CuDef*
G36*
G01*
X-61120000Y32070000D02*
X-61120000Y32820000D01*
G75*
G02*
X-60895000Y33045000I225000J0D01*
G01*
X-60445000Y33045000D01*
G75*
G02*
X-60220000Y32820000I0J-225000D01*
G01*
X-60220000Y32070000D01*
G75*
G02*
X-60445000Y31845000I-225000J0D01*
G01*
X-60895000Y31845000D01*
G75*
G02*
X-61120000Y32070000I0J225000D01*
G01*
G37*
G04 #@! TD.AperFunction*
G04 #@! TD*
G04 #@! TO.P,D7,1,K*
G04 #@! TO.N,+12V_RAW*
G04 #@! TA.AperFunction,SMDPad,CuDef*
G36*
G01*
X-64420000Y38770000D02*
X-64420000Y39520000D01*
G75*
G02*
X-64195000Y39745000I225000J0D01*
G01*
X-63745000Y39745000D01*
G75*
G02*
X-63520000Y39520000I0J-225000D01*
G01*
X-63520000Y38770000D01*
G75*
G02*
X-63745000Y38545000I-225000J0D01*
G01*
X-64195000Y38545000D01*
G75*
G02*
X-64420000Y38770000I0J225000D01*
G01*
G37*
G04 #@! TD.AperFunction*
G04 #@! TO.P,D7,2,A*
G04 #@! TO.N,/LS2_OUT*
G04 #@! TA.AperFunction,SMDPad,CuDef*
G36*
G01*
X-61120000Y38770000D02*
X-61120000Y39520000D01*
G75*
G02*
X-60895000Y39745000I225000J0D01*
G01*
X-60445000Y39745000D01*
G75*
G02*
X-60220000Y39520000I0J-225000D01*
G01*
X-60220000Y38770000D01*
G75*
G02*
X-60445000Y38545000I-225000J0D01*
G01*
X-60895000Y38545000D01*
G75*
G02*
X-61120000Y38770000I0J225000D01*
G01*
G37*
G04 #@! TD.AperFunction*
G04 #@! TD*
G04 #@! TO.P,R4,1*
G04 #@! TO.N,/INJ3_IN*
G04 #@! TA.AperFunction,SMDPad,CuDef*
G36*
G01*
X-32925000Y50420000D02*
X-32925000Y50790000D01*
G75*
G02*
X-32790000Y50925000I135000J0D01*
G01*
X-32520000Y50925000D01*
G75*
G02*
X-32385000Y50790000I0J-135000D01*
G01*
X-32385000Y50420000D01*
G75*
G02*
X-32520000Y50285000I-135000J0D01*
G01*
X-32790000Y50285000D01*
G75*
G02*
X-32925000Y50420000I0J135000D01*
G01*
G37*
G04 #@! TD.AperFunction*
G04 #@! TO.P,R4,2*
G04 #@! TO.N,GND*
G04 #@! TA.AperFunction,SMDPad,CuDef*
G36*
G01*
X-31905000Y50420000D02*
X-31905000Y50790000D01*
G75*
G02*
X-31770000Y50925000I135000J0D01*
G01*
X-31500000Y50925000D01*
G75*
G02*
X-31365000Y50790000I0J-135000D01*
G01*
X-31365000Y50420000D01*
G75*
G02*
X-31500000Y50285000I-135000J0D01*
G01*
X-31770000Y50285000D01*
G75*
G02*
X-31905000Y50420000I0J135000D01*
G01*
G37*
G04 #@! TD.AperFunction*
G04 #@! TD*
D11*
G04 #@! TO.P,M5,E1,LSU_Un*
G04 #@! TO.N,unconnected-(M5-LSU_Un-PadE1)*
X62700007Y18761671D03*
G04 #@! TO.P,M5,E2,LSU_Vm*
G04 #@! TO.N,unconnected-(M5-LSU_Vm-PadE2)*
X62700007Y21161671D03*
G04 #@! TO.P,M5,E3,LSU_Ip*
G04 #@! TO.N,unconnected-(M5-LSU_Ip-PadE3)*
X62700007Y20361671D03*
G04 #@! TO.P,M5,E4,LSU_Rtrim*
G04 #@! TO.N,unconnected-(M5-LSU_Rtrim-PadE4)*
X62700007Y19561671D03*
D35*
G04 #@! TO.P,M5,E5,LSU_Htr*
G04 #@! TO.N,unconnected-(M5-LSU_Htr-PadE5)*
X62300007Y22361671D03*
D36*
G04 #@! TO.P,M5,G,GND*
G04 #@! TO.N,GND*
X38525007Y30361671D03*
D37*
X38525007Y23886671D03*
D38*
X38525007Y18111671D03*
D39*
X50700007Y31186671D03*
X50700007Y17436671D03*
D40*
X62875007Y27286671D03*
D41*
X62875007Y17786671D03*
G04 #@! TO.P,M5,J1,SEL1*
G04 #@! TO.N,unconnected-(M5-SEL1-PadJ1)*
G04 #@! TA.AperFunction,SMDPad,CuDef*
G36*
G01*
X47950007Y30161671D02*
X47950007Y28911671D01*
G75*
G02*
X47825007Y28786671I-125000J0D01*
G01*
X47575007Y28786671D01*
G75*
G02*
X47450007Y28911671I0J125000D01*
G01*
X47450007Y30161671D01*
G75*
G02*
X47575007Y30286671I125000J0D01*
G01*
X47825007Y30286671D01*
G75*
G02*
X47950007Y30161671I0J-125000D01*
G01*
G37*
G04 #@! TD.AperFunction*
G04 #@! TO.P,M5,J2,SEL2*
G04 #@! TO.N,unconnected-(M5-SEL2-PadJ2)*
G04 #@! TA.AperFunction,SMDPad,CuDef*
G36*
G01*
X46275007Y27486671D02*
X46275007Y27236671D01*
G75*
G02*
X46150007Y27111671I-125000J0D01*
G01*
X44900007Y27111671D01*
G75*
G02*
X44775007Y27236671I0J125000D01*
G01*
X44775007Y27486671D01*
G75*
G02*
X44900007Y27611671I125000J0D01*
G01*
X46150007Y27611671D01*
G75*
G02*
X46275007Y27486671I0J-125000D01*
G01*
G37*
G04 #@! TD.AperFunction*
G04 #@! TO.P,M5,J_GND1,PULL_DOWN1*
G04 #@! TO.N,unconnected-(M5-PULL_DOWN1-PadJ_GND1)*
G04 #@! TA.AperFunction,SMDPad,CuDef*
G36*
G01*
X47150007Y30161671D02*
X47150007Y28911671D01*
G75*
G02*
X47025007Y28786671I-125000J0D01*
G01*
X46775007Y28786671D01*
G75*
G02*
X46650007Y28911671I0J125000D01*
G01*
X46650007Y30161671D01*
G75*
G02*
X46775007Y30286671I125000J0D01*
G01*
X47025007Y30286671D01*
G75*
G02*
X47150007Y30161671I0J-125000D01*
G01*
G37*
G04 #@! TD.AperFunction*
G04 #@! TO.P,M5,J_GND2,PULL_DOWN2*
G04 #@! TO.N,unconnected-(M5-PULL_DOWN2-PadJ_GND2)*
G04 #@! TA.AperFunction,SMDPad,CuDef*
G36*
G01*
X46825007Y27611671D02*
X47075007Y27611671D01*
G75*
G02*
X47200007Y27486671I0J-125000D01*
G01*
X47200007Y27236671D01*
G75*
G02*
X47075007Y27111671I-125000J0D01*
G01*
X46825007Y27111671D01*
G75*
G02*
X46700007Y27236671I0J125000D01*
G01*
X46700007Y27486671D01*
G75*
G02*
X46825007Y27611671I125000J0D01*
G01*
G37*
G04 #@! TD.AperFunction*
G04 #@! TO.P,M5,J_VCC1,PULL_UP1*
G04 #@! TO.N,unconnected-(M5-PULL_UP1-PadJ_VCC1)*
G04 #@! TA.AperFunction,SMDPad,CuDef*
G36*
G01*
X47950007Y28286671D02*
X47950007Y28036671D01*
G75*
G02*
X47825007Y27911671I-125000J0D01*
G01*
X47575007Y27911671D01*
G75*
G02*
X47450007Y28036671I0J125000D01*
G01*
X47450007Y28286671D01*
G75*
G02*
X47575007Y28411671I125000J0D01*
G01*
X47825007Y28411671D01*
G75*
G02*
X47950007Y28286671I0J-125000D01*
G01*
G37*
G04 #@! TD.AperFunction*
G04 #@! TO.P,M5,J_VCC2,PULL_UP2*
G04 #@! TO.N,unconnected-(M5-PULL_UP2-PadJ_VCC2)*
G04 #@! TA.AperFunction,SMDPad,CuDef*
G36*
G01*
X46275007Y28286671D02*
X46275007Y28036671D01*
G75*
G02*
X46150007Y27911671I-125000J0D01*
G01*
X44900007Y27911671D01*
G75*
G02*
X44775007Y28036671I0J125000D01*
G01*
X44775007Y28286671D01*
G75*
G02*
X44900007Y28411671I125000J0D01*
G01*
X46150007Y28411671D01*
G75*
G02*
X46275007Y28286671I0J-125000D01*
G01*
G37*
G04 #@! TD.AperFunction*
D11*
G04 #@! TO.P,M5,W1,V5_IN*
G04 #@! TO.N,+5VA*
X38700007Y28111671D03*
G04 #@! TO.P,M5,W2,CAN_VIO*
G04 #@! TO.N,unconnected-(M5-CAN_VIO-PadW2)*
X38700007Y27311671D03*
G04 #@! TO.P,M5,W3,CANL*
G04 #@! TO.N,/CAN1-*
X38700007Y25711671D03*
G04 #@! TO.P,M5,W4,CANH*
G04 #@! TO.N,/CAN1+*
X38700007Y26511671D03*
G04 #@! TO.P,M5,W5,nReset*
G04 #@! TO.N,unconnected-(M5-nReset-PadW5)*
G04 #@! TA.AperFunction,SMDPad,CuDef*
G36*
G01*
X38400007Y22261671D02*
X38400007Y22261671D01*
G75*
G02*
X38500007Y22361671I100000J0D01*
G01*
X38800007Y22361671D01*
G75*
G02*
X38900007Y22261671I0J-100000D01*
G01*
X38900007Y22261671D01*
G75*
G02*
X38800007Y22161671I-100000J0D01*
G01*
X38500007Y22161671D01*
G75*
G02*
X38400007Y22261671I0J100000D01*
G01*
G37*
G04 #@! TD.AperFunction*
G04 #@! TO.P,M5,W6,SWDIO*
G04 #@! TO.N,unconnected-(M5-SWDIO-PadW6)*
G04 #@! TA.AperFunction,SMDPad,CuDef*
G36*
G01*
X38400007Y21861671D02*
X38400007Y21861671D01*
G75*
G02*
X38500007Y21961671I100000J0D01*
G01*
X38800007Y21961671D01*
G75*
G02*
X38900007Y21861671I0J-100000D01*
G01*
X38900007Y21861671D01*
G75*
G02*
X38800007Y21761671I-100000J0D01*
G01*
X38500007Y21761671D01*
G75*
G02*
X38400007Y21861671I0J100000D01*
G01*
G37*
G04 #@! TD.AperFunction*
G04 #@! TO.P,M5,W7,SWCLK*
G04 #@! TO.N,unconnected-(M5-SWCLK-PadW7)*
G04 #@! TA.AperFunction,SMDPad,CuDef*
G36*
G01*
X38400007Y21461671D02*
X38400007Y21461671D01*
G75*
G02*
X38500007Y21561671I100000J0D01*
G01*
X38800007Y21561671D01*
G75*
G02*
X38900007Y21461671I0J-100000D01*
G01*
X38900007Y21461671D01*
G75*
G02*
X38800007Y21361671I-100000J0D01*
G01*
X38500007Y21361671D01*
G75*
G02*
X38400007Y21461671I0J100000D01*
G01*
G37*
G04 #@! TD.AperFunction*
G04 #@! TO.P,M5,W8,V33_OUT*
G04 #@! TO.N,unconnected-(M5-V33_OUT-PadW8)*
G04 #@! TA.AperFunction,SMDPad,CuDef*
G36*
G01*
X38400007Y19211671D02*
X38400007Y19211671D01*
G75*
G02*
X38500007Y19311671I100000J0D01*
G01*
X38800007Y19311671D01*
G75*
G02*
X38900007Y19211671I0J-100000D01*
G01*
X38900007Y19211671D01*
G75*
G02*
X38800007Y19111671I-100000J0D01*
G01*
X38500007Y19111671D01*
G75*
G02*
X38400007Y19211671I0J100000D01*
G01*
G37*
G04 #@! TD.AperFunction*
G04 #@! TO.P,M5,W9,VDDA*
G04 #@! TO.N,unconnected-(M5-VDDA-PadW9)*
X38700007Y28911671D03*
G04 #@! TD*
G04 #@! TO.P,D3,1,K*
G04 #@! TO.N,+12V_RAW*
G04 #@! TA.AperFunction,SMDPad,CuDef*
G36*
G01*
X-64420000Y48820000D02*
X-64420000Y49570000D01*
G75*
G02*
X-64195000Y49795000I225000J0D01*
G01*
X-63745000Y49795000D01*
G75*
G02*
X-63520000Y49570000I0J-225000D01*
G01*
X-63520000Y48820000D01*
G75*
G02*
X-63745000Y48595000I-225000J0D01*
G01*
X-64195000Y48595000D01*
G75*
G02*
X-64420000Y48820000I0J225000D01*
G01*
G37*
G04 #@! TD.AperFunction*
G04 #@! TO.P,D3,2,A*
G04 #@! TO.N,/IACOPEN_OUT*
G04 #@! TA.AperFunction,SMDPad,CuDef*
G36*
G01*
X-61120000Y48820000D02*
X-61120000Y49570000D01*
G75*
G02*
X-60895000Y49795000I225000J0D01*
G01*
X-60445000Y49795000D01*
G75*
G02*
X-60220000Y49570000I0J-225000D01*
G01*
X-60220000Y48820000D01*
G75*
G02*
X-60445000Y48595000I-225000J0D01*
G01*
X-60895000Y48595000D01*
G75*
G02*
X-61120000Y48820000I0J225000D01*
G01*
G37*
G04 #@! TD.AperFunction*
G04 #@! TD*
G04 #@! TO.P,D2,1,K*
G04 #@! TO.N,+12V_RAW*
G04 #@! TA.AperFunction,SMDPad,CuDef*
G36*
G01*
X-64420000Y52170000D02*
X-64420000Y52920000D01*
G75*
G02*
X-64195000Y53145000I225000J0D01*
G01*
X-63745000Y53145000D01*
G75*
G02*
X-63520000Y52920000I0J-225000D01*
G01*
X-63520000Y52170000D01*
G75*
G02*
X-63745000Y51945000I-225000J0D01*
G01*
X-64195000Y51945000D01*
G75*
G02*
X-64420000Y52170000I0J225000D01*
G01*
G37*
G04 #@! TD.AperFunction*
G04 #@! TO.P,D2,2,A*
G04 #@! TO.N,/FANRELAY_OUT*
G04 #@! TA.AperFunction,SMDPad,CuDef*
G36*
G01*
X-61120000Y52170000D02*
X-61120000Y52920000D01*
G75*
G02*
X-60895000Y53145000I225000J0D01*
G01*
X-60445000Y53145000D01*
G75*
G02*
X-60220000Y52920000I0J-225000D01*
G01*
X-60220000Y52170000D01*
G75*
G02*
X-60445000Y51945000I-225000J0D01*
G01*
X-60895000Y51945000D01*
G75*
G02*
X-61120000Y52170000I0J225000D01*
G01*
G37*
G04 #@! TD.AperFunction*
G04 #@! TD*
G04 #@! TO.P,U3,1,IN1*
G04 #@! TO.N,/FANRELAY_IN*
G04 #@! TA.AperFunction,SMDPad,CuDef*
G36*
G01*
X28320000Y76040000D02*
X27870000Y76040000D01*
G75*
G02*
X27795000Y76115000I0J75000D01*
G01*
X27795000Y77935000D01*
G75*
G02*
X27870000Y78010000I75000J0D01*
G01*
X28320000Y78010000D01*
G75*
G02*
X28395000Y77935000I0J-75000D01*
G01*
X28395000Y76115000D01*
G75*
G02*
X28320000Y76040000I-75000J0D01*
G01*
G37*
G04 #@! TD.AperFunction*
G04 #@! TO.P,U3,2,S1*
G04 #@! TO.N,unconnected-(U3-S1-Pad2)*
G04 #@! TA.AperFunction,SMDPad,CuDef*
G36*
G01*
X29590000Y76040000D02*
X29140000Y76040000D01*
G75*
G02*
X29065000Y76115000I0J75000D01*
G01*
X29065000Y77935000D01*
G75*
G02*
X29140000Y78010000I75000J0D01*
G01*
X29590000Y78010000D01*
G75*
G02*
X29665000Y77935000I0J-75000D01*
G01*
X29665000Y76115000D01*
G75*
G02*
X29590000Y76040000I-75000J0D01*
G01*
G37*
G04 #@! TD.AperFunction*
G04 #@! TO.P,U3,3,IN2*
G04 #@! TO.N,/FUELRELAY_IN*
G04 #@! TA.AperFunction,SMDPad,CuDef*
G36*
G01*
X30860000Y76040000D02*
X30410000Y76040000D01*
G75*
G02*
X30335000Y76115000I0J75000D01*
G01*
X30335000Y77935000D01*
G75*
G02*
X30410000Y78010000I75000J0D01*
G01*
X30860000Y78010000D01*
G75*
G02*
X30935000Y77935000I0J-75000D01*
G01*
X30935000Y76115000D01*
G75*
G02*
X30860000Y76040000I-75000J0D01*
G01*
G37*
G04 #@! TD.AperFunction*
G04 #@! TO.P,U3,4,S2*
G04 #@! TO.N,unconnected-(U3-S2-Pad4)*
G04 #@! TA.AperFunction,SMDPad,CuDef*
G36*
G01*
X32130000Y76040000D02*
X31680000Y76040000D01*
G75*
G02*
X31605000Y76115000I0J75000D01*
G01*
X31605000Y77935000D01*
G75*
G02*
X31680000Y78010000I75000J0D01*
G01*
X32130000Y78010000D01*
G75*
G02*
X32205000Y77935000I0J-75000D01*
G01*
X32205000Y76115000D01*
G75*
G02*
X32130000Y76040000I-75000J0D01*
G01*
G37*
G04 #@! TD.AperFunction*
G04 #@! TO.P,U3,5,SOURCE2*
G04 #@! TO.N,GND*
G04 #@! TA.AperFunction,SMDPad,CuDef*
G36*
G01*
X32130000Y80990000D02*
X31680000Y80990000D01*
G75*
G02*
X31605000Y81065000I0J75000D01*
G01*
X31605000Y82885000D01*
G75*
G02*
X31680000Y82960000I75000J0D01*
G01*
X32130000Y82960000D01*
G75*
G02*
X32205000Y82885000I0J-75000D01*
G01*
X32205000Y81065000D01*
G75*
G02*
X32130000Y80990000I-75000J0D01*
G01*
G37*
G04 #@! TD.AperFunction*
G04 #@! TO.P,U3,6,DRAIN2*
G04 #@! TO.N,/FANRELAY_OUT*
G04 #@! TA.AperFunction,SMDPad,CuDef*
G36*
G01*
X30860000Y80990000D02*
X30410000Y80990000D01*
G75*
G02*
X30335000Y81065000I0J75000D01*
G01*
X30335000Y82885000D01*
G75*
G02*
X30410000Y82960000I75000J0D01*
G01*
X30860000Y82960000D01*
G75*
G02*
X30935000Y82885000I0J-75000D01*
G01*
X30935000Y81065000D01*
G75*
G02*
X30860000Y80990000I-75000J0D01*
G01*
G37*
G04 #@! TD.AperFunction*
G04 #@! TO.P,U3,7,SOURCE1*
G04 #@! TO.N,GND*
G04 #@! TA.AperFunction,SMDPad,CuDef*
G36*
G01*
X29590000Y80990000D02*
X29140000Y80990000D01*
G75*
G02*
X29065000Y81065000I0J75000D01*
G01*
X29065000Y82885000D01*
G75*
G02*
X29140000Y82960000I75000J0D01*
G01*
X29590000Y82960000D01*
G75*
G02*
X29665000Y82885000I0J-75000D01*
G01*
X29665000Y81065000D01*
G75*
G02*
X29590000Y80990000I-75000J0D01*
G01*
G37*
G04 #@! TD.AperFunction*
G04 #@! TO.P,U3,8,DRAIN1*
G04 #@! TO.N,/FUELRELAY_OUT*
G04 #@! TA.AperFunction,SMDPad,CuDef*
G36*
G01*
X28320000Y80990000D02*
X27870000Y80990000D01*
G75*
G02*
X27795000Y81065000I0J75000D01*
G01*
X27795000Y82885000D01*
G75*
G02*
X27870000Y82960000I75000J0D01*
G01*
X28320000Y82960000D01*
G75*
G02*
X28395000Y82885000I0J-75000D01*
G01*
X28395000Y81065000D01*
G75*
G02*
X28320000Y80990000I-75000J0D01*
G01*
G37*
G04 #@! TD.AperFunction*
G04 #@! TD*
G04 #@! TO.P,D1,1,K*
G04 #@! TO.N,+12V_RAW*
G04 #@! TA.AperFunction,SMDPad,CuDef*
G36*
G01*
X-64420000Y55520000D02*
X-64420000Y56270000D01*
G75*
G02*
X-64195000Y56495000I225000J0D01*
G01*
X-63745000Y56495000D01*
G75*
G02*
X-63520000Y56270000I0J-225000D01*
G01*
X-63520000Y55520000D01*
G75*
G02*
X-63745000Y55295000I-225000J0D01*
G01*
X-64195000Y55295000D01*
G75*
G02*
X-64420000Y55520000I0J225000D01*
G01*
G37*
G04 #@! TD.AperFunction*
G04 #@! TO.P,D1,2,A*
G04 #@! TO.N,/FANRELAY_OUT*
G04 #@! TA.AperFunction,SMDPad,CuDef*
G36*
G01*
X-61120000Y55520000D02*
X-61120000Y56270000D01*
G75*
G02*
X-60895000Y56495000I225000J0D01*
G01*
X-60445000Y56495000D01*
G75*
G02*
X-60220000Y56270000I0J-225000D01*
G01*
X-60220000Y55520000D01*
G75*
G02*
X-60445000Y55295000I-225000J0D01*
G01*
X-60895000Y55295000D01*
G75*
G02*
X-61120000Y55520000I0J225000D01*
G01*
G37*
G04 #@! TD.AperFunction*
G04 #@! TD*
G04 #@! TO.P,R5,1*
G04 #@! TO.N,/FUELRELAY_IN*
G04 #@! TA.AperFunction,SMDPad,CuDef*
G36*
G01*
X-32925000Y48430000D02*
X-32925000Y48800000D01*
G75*
G02*
X-32790000Y48935000I135000J0D01*
G01*
X-32520000Y48935000D01*
G75*
G02*
X-32385000Y48800000I0J-135000D01*
G01*
X-32385000Y48430000D01*
G75*
G02*
X-32520000Y48295000I-135000J0D01*
G01*
X-32790000Y48295000D01*
G75*
G02*
X-32925000Y48430000I0J135000D01*
G01*
G37*
G04 #@! TD.AperFunction*
G04 #@! TO.P,R5,2*
G04 #@! TO.N,GND*
G04 #@! TA.AperFunction,SMDPad,CuDef*
G36*
G01*
X-31905000Y48430000D02*
X-31905000Y48800000D01*
G75*
G02*
X-31770000Y48935000I135000J0D01*
G01*
X-31500000Y48935000D01*
G75*
G02*
X-31365000Y48800000I0J-135000D01*
G01*
X-31365000Y48430000D01*
G75*
G02*
X-31500000Y48295000I-135000J0D01*
G01*
X-31770000Y48295000D01*
G75*
G02*
X-31905000Y48430000I0J135000D01*
G01*
G37*
G04 #@! TD.AperFunction*
G04 #@! TD*
G04 #@! TO.P,D5,1,K*
G04 #@! TO.N,/VBAT*
G04 #@! TA.AperFunction,SMDPad,CuDef*
G36*
G01*
X-27890000Y46032500D02*
X-27890000Y46257500D01*
G75*
G02*
X-27777500Y46370000I112500J0D01*
G01*
X-27402500Y46370000D01*
G75*
G02*
X-27290000Y46257500I0J-112500D01*
G01*
X-27290000Y46032500D01*
G75*
G02*
X-27402500Y45920000I-112500J0D01*
G01*
X-27777500Y45920000D01*
G75*
G02*
X-27890000Y46032500I0J112500D01*
G01*
G37*
G04 #@! TD.AperFunction*
G04 #@! TO.P,D5,2,A*
G04 #@! TO.N,Net-(BT1-+)*
G04 #@! TA.AperFunction,SMDPad,CuDef*
G36*
G01*
X-25790000Y46032500D02*
X-25790000Y46257500D01*
G75*
G02*
X-25677500Y46370000I112500J0D01*
G01*
X-25302500Y46370000D01*
G75*
G02*
X-25190000Y46257500I0J-112500D01*
G01*
X-25190000Y46032500D01*
G75*
G02*
X-25302500Y45920000I-112500J0D01*
G01*
X-25677500Y45920000D01*
G75*
G02*
X-25790000Y46032500I0J112500D01*
G01*
G37*
G04 #@! TD.AperFunction*
G04 #@! TD*
G04 #@! TO.P,U5,1,IN1*
G04 #@! TO.N,/LS1_IN*
G04 #@! TA.AperFunction,SMDPad,CuDef*
G36*
G01*
X1635000Y44065000D02*
X1185000Y44065000D01*
G75*
G02*
X1110000Y44140000I0J75000D01*
G01*
X1110000Y45960000D01*
G75*
G02*
X1185000Y46035000I75000J0D01*
G01*
X1635000Y46035000D01*
G75*
G02*
X1710000Y45960000I0J-75000D01*
G01*
X1710000Y44140000D01*
G75*
G02*
X1635000Y44065000I-75000J0D01*
G01*
G37*
G04 #@! TD.AperFunction*
G04 #@! TO.P,U5,2,S1*
G04 #@! TO.N,unconnected-(U5-S1-Pad2)*
G04 #@! TA.AperFunction,SMDPad,CuDef*
G36*
G01*
X2905000Y44065000D02*
X2455000Y44065000D01*
G75*
G02*
X2380000Y44140000I0J75000D01*
G01*
X2380000Y45960000D01*
G75*
G02*
X2455000Y46035000I75000J0D01*
G01*
X2905000Y46035000D01*
G75*
G02*
X2980000Y45960000I0J-75000D01*
G01*
X2980000Y44140000D01*
G75*
G02*
X2905000Y44065000I-75000J0D01*
G01*
G37*
G04 #@! TD.AperFunction*
G04 #@! TO.P,U5,3,IN2*
G04 #@! TO.N,/LS2_IN*
G04 #@! TA.AperFunction,SMDPad,CuDef*
G36*
G01*
X4175000Y44065000D02*
X3725000Y44065000D01*
G75*
G02*
X3650000Y44140000I0J75000D01*
G01*
X3650000Y45960000D01*
G75*
G02*
X3725000Y46035000I75000J0D01*
G01*
X4175000Y46035000D01*
G75*
G02*
X4250000Y45960000I0J-75000D01*
G01*
X4250000Y44140000D01*
G75*
G02*
X4175000Y44065000I-75000J0D01*
G01*
G37*
G04 #@! TD.AperFunction*
G04 #@! TO.P,U5,4,S2*
G04 #@! TO.N,unconnected-(U5-S2-Pad4)*
G04 #@! TA.AperFunction,SMDPad,CuDef*
G36*
G01*
X5445000Y44065000D02*
X4995000Y44065000D01*
G75*
G02*
X4920000Y44140000I0J75000D01*
G01*
X4920000Y45960000D01*
G75*
G02*
X4995000Y46035000I75000J0D01*
G01*
X5445000Y46035000D01*
G75*
G02*
X5520000Y45960000I0J-75000D01*
G01*
X5520000Y44140000D01*
G75*
G02*
X5445000Y44065000I-75000J0D01*
G01*
G37*
G04 #@! TD.AperFunction*
G04 #@! TO.P,U5,5,SOURCE2*
G04 #@! TO.N,GND*
G04 #@! TA.AperFunction,SMDPad,CuDef*
G36*
G01*
X5445000Y49015000D02*
X4995000Y49015000D01*
G75*
G02*
X4920000Y49090000I0J75000D01*
G01*
X4920000Y50910000D01*
G75*
G02*
X4995000Y50985000I75000J0D01*
G01*
X5445000Y50985000D01*
G75*
G02*
X5520000Y50910000I0J-75000D01*
G01*
X5520000Y49090000D01*
G75*
G02*
X5445000Y49015000I-75000J0D01*
G01*
G37*
G04 #@! TD.AperFunction*
G04 #@! TO.P,U5,6,DRAIN2*
G04 #@! TO.N,/LS2_OUT*
G04 #@! TA.AperFunction,SMDPad,CuDef*
G36*
G01*
X4175000Y49015000D02*
X3725000Y49015000D01*
G75*
G02*
X3650000Y49090000I0J75000D01*
G01*
X3650000Y50910000D01*
G75*
G02*
X3725000Y50985000I75000J0D01*
G01*
X4175000Y50985000D01*
G75*
G02*
X4250000Y50910000I0J-75000D01*
G01*
X4250000Y49090000D01*
G75*
G02*
X4175000Y49015000I-75000J0D01*
G01*
G37*
G04 #@! TD.AperFunction*
G04 #@! TO.P,U5,7,SOURCE1*
G04 #@! TO.N,GND*
G04 #@! TA.AperFunction,SMDPad,CuDef*
G36*
G01*
X2905000Y49015000D02*
X2455000Y49015000D01*
G75*
G02*
X2380000Y49090000I0J75000D01*
G01*
X2380000Y50910000D01*
G75*
G02*
X2455000Y50985000I75000J0D01*
G01*
X2905000Y50985000D01*
G75*
G02*
X2980000Y50910000I0J-75000D01*
G01*
X2980000Y49090000D01*
G75*
G02*
X2905000Y49015000I-75000J0D01*
G01*
G37*
G04 #@! TD.AperFunction*
G04 #@! TO.P,U5,8,DRAIN1*
G04 #@! TO.N,/LS1_OUT*
G04 #@! TA.AperFunction,SMDPad,CuDef*
G36*
G01*
X1635000Y49015000D02*
X1185000Y49015000D01*
G75*
G02*
X1110000Y49090000I0J75000D01*
G01*
X1110000Y50910000D01*
G75*
G02*
X1185000Y50985000I75000J0D01*
G01*
X1635000Y50985000D01*
G75*
G02*
X1710000Y50910000I0J-75000D01*
G01*
X1710000Y49090000D01*
G75*
G02*
X1635000Y49015000I-75000J0D01*
G01*
G37*
G04 #@! TD.AperFunction*
G04 #@! TD*
D42*
G04 #@! TO.P,M7,E1,GND*
G04 #@! TO.N,GND*
X82700004Y28362497D03*
D43*
X88175005Y31099997D03*
D44*
X88875006Y24500000D03*
D45*
X93500000Y24500000D03*
D46*
X93675004Y27762498D03*
D47*
G04 #@! TO.P,M7,S1,CANL*
G04 #@! TO.N,/CAN2-*
X83150006Y24549998D03*
G04 #@! TO.P,M7,S2,CANH*
G04 #@! TO.N,/CAN2+*
X83650007Y24549998D03*
D48*
G04 #@! TO.P,M7,V1,V5*
G04 #@! TO.N,+5VA*
X90200004Y25599996D03*
G04 #@! TO.P,M7,V2,CAN_VIO*
G04 #@! TO.N,+3.3VA*
X89325002Y26124996D03*
G04 #@! TO.P,M7,V5,CAN_TX*
G04 #@! TO.N,Net-(M1-SPI2_CS{slash}CAN2_RX)*
X90500006Y26874994D03*
G04 #@! TO.P,M7,V6,CAN_RX*
G04 #@! TO.N,Net-(M1-SPI2_SCK{slash}CAN2_TX)*
X90425003Y30424995D03*
G04 #@! TD*
D11*
G04 #@! TO.P,M1,E1,SPI2_SCK/CAN2_TX*
G04 #@! TO.N,Net-(M1-SPI2_SCK{slash}CAN2_TX)*
X66975000Y70774997D03*
G04 #@! TO.P,M1,E2,SPI2_MISO*
G04 #@! TO.N,unconnected-(M1-SPI2_MISO-PadE2)*
X66975000Y69974996D03*
G04 #@! TO.P,M1,E3,SPI2_MOSI*
G04 #@! TO.N,unconnected-(M1-SPI2_MOSI-PadE3)*
X66975000Y69174998D03*
G04 #@! TO.P,M1,E4,SPI2_CS/CAN2_RX*
G04 #@! TO.N,Net-(M1-SPI2_CS{slash}CAN2_RX)*
X66975000Y68374997D03*
G04 #@! TO.P,M1,E6,OUT_IO3*
G04 #@! TO.N,/CHECKCAT_IN*
X66975000Y67574996D03*
G04 #@! TO.P,M1,E7,OUT_IO5*
G04 #@! TO.N,unconnected-(M1-OUT_IO5-PadE7)*
X66974997Y66774998D03*
G04 #@! TO.P,M1,E8,OUT_IO1*
G04 #@! TO.N,/FUELRELAY_IN*
X66974997Y65974997D03*
G04 #@! TO.P,M1,E9,OUT_IO6*
G04 #@! TO.N,unconnected-(M1-OUT_IO6-PadE9)*
X66975000Y65174993D03*
G04 #@! TO.P,M1,E10,OUT_IO10*
G04 #@! TO.N,unconnected-(M1-OUT_IO10-PadE10)*
X66975000Y64374997D03*
G04 #@! TO.P,M1,E11,OUT_IO9*
G04 #@! TO.N,unconnected-(M1-OUT_IO9-PadE11)*
X66975000Y63574997D03*
G04 #@! TO.P,M1,E12,OUT_IO2*
G04 #@! TO.N,/CHECKENGINE_IN*
X66975000Y62774996D03*
G04 #@! TO.P,M1,E13,OUT_IO12*
G04 #@! TO.N,unconnected-(M1-OUT_IO12-PadE13)*
X66974997Y61974997D03*
G04 #@! TO.P,M1,E14,OUT_PWM5*
G04 #@! TO.N,unconnected-(M1-OUT_PWM5-PadE14)*
X66974997Y61174996D03*
G04 #@! TO.P,M1,E15,OUT_PWM4*
G04 #@! TO.N,unconnected-(M1-OUT_PWM4-PadE15)*
X66974997Y60374995D03*
G04 #@! TO.P,M1,E16,OUT_PWM3*
G04 #@! TO.N,unconnected-(M1-OUT_PWM3-PadE16)*
X66975000Y59574997D03*
G04 #@! TO.P,M1,E17,OUT_PWM2*
G04 #@! TO.N,/IACOPEN_IN*
X66975000Y58774996D03*
G04 #@! TO.P,M1,E18,OUT_INJ2*
G04 #@! TO.N,/INJ2_IN*
X66975000Y57974998D03*
G04 #@! TO.P,M1,E19,OUT_INJ1*
G04 #@! TO.N,/INJ1_IN*
X66974997Y57174997D03*
G04 #@! TO.P,M1,E20,OUT_IO13*
G04 #@! TO.N,unconnected-(M1-OUT_IO13-PadE20)*
X66974997Y56374996D03*
G04 #@! TO.P,M1,E21,OUT_IO4*
G04 #@! TO.N,/FANRELAY_IN*
X66975000Y55574997D03*
G04 #@! TO.P,M1,E22,OUT_IO8*
G04 #@! TO.N,unconnected-(M1-OUT_IO8-PadE22)*
X66975000Y54774996D03*
G04 #@! TO.P,M1,E23,OUT_IO7*
G04 #@! TO.N,unconnected-(M1-OUT_IO7-PadE23)*
X66975000Y53974995D03*
G04 #@! TO.P,M1,E24,OUT_IO11*
G04 #@! TO.N,unconnected-(M1-OUT_IO11-PadE24)*
X66975000Y53174997D03*
G04 #@! TO.P,M1,E25,OUT_PWM7*
G04 #@! TO.N,unconnected-(M1-OUT_PWM7-PadE25)*
X66975000Y52374996D03*
G04 #@! TO.P,M1,E26,OUT_PWM6*
G04 #@! TO.N,unconnected-(M1-OUT_PWM6-PadE26)*
X66975000Y51574998D03*
G04 #@! TO.P,M1,E27,OUT_PWM1*
G04 #@! TO.N,/IACCLOSE_IN*
X66975000Y50774997D03*
G04 #@! TO.P,M1,E28,OUT_PWM8*
G04 #@! TO.N,/THRESH*
X66975000Y49974996D03*
G04 #@! TO.P,M1,E29,OUT_INJ3*
G04 #@! TO.N,/INJ3_IN*
X66975000Y49174997D03*
G04 #@! TO.P,M1,E30,OUT_INJ4*
G04 #@! TO.N,/INJ4_IN*
X66975000Y48374996D03*
G04 #@! TO.P,M1,E31,OUT_INJ5*
G04 #@! TO.N,/LS1_IN*
X66974997Y47574998D03*
G04 #@! TO.P,M1,E32,OUT_INJ6*
G04 #@! TO.N,/LS2_IN*
X66975000Y46774995D03*
G04 #@! TO.P,M1,E33,OUT_INJ7*
G04 #@! TO.N,/LS3_IN*
X66975000Y45974996D03*
G04 #@! TO.P,M1,E34,OUT_INJ8*
G04 #@! TO.N,/LS4_IN*
X66975000Y45174998D03*
G04 #@! TO.P,M1,E35,IO6*
G04 #@! TO.N,/IO6*
X66975000Y44374997D03*
G04 #@! TO.P,M1,E36,IO7*
G04 #@! TO.N,unconnected-(M1-IO7-PadE36)*
X66975000Y43574996D03*
G04 #@! TO.P,M1,E38,V5A_SWITCHABLE*
G04 #@! TO.N,+5VA*
X66974997Y36875002D03*
G04 #@! TO.P,M1,E39,GNDA*
G04 #@! TO.N,GNDA*
X66975000Y36075001D03*
D49*
G04 #@! TO.P,M1,G,GND*
G04 #@! TO.N,GND*
X25074995Y34725001D03*
D50*
X25074997Y40575004D03*
D51*
X25074998Y68575001D03*
D52*
X25074998Y46775001D03*
D53*
X26875004Y33674998D03*
D54*
X28274999Y73574999D03*
D55*
X36775002Y73574999D03*
D56*
X46625005Y73574999D03*
D57*
X67175000Y72075000D03*
D58*
X67175000Y40224997D03*
D59*
X67175000Y34575004D03*
D11*
G04 #@! TO.P,M1,N1,USBID*
G04 #@! TO.N,unconnected-(M1-USBID-PadN1)*
X66975000Y73375000D03*
G04 #@! TO.P,M1,N2,USBM*
G04 #@! TO.N,unconnected-(M1-USBM-PadN2)*
X66175002Y73375002D03*
G04 #@! TO.P,M1,N3,USBP*
G04 #@! TO.N,unconnected-(M1-USBP-PadN3)*
X65375001Y73375002D03*
G04 #@! TO.P,M1,N4,VBUS*
G04 #@! TO.N,unconnected-(M1-VBUS-PadN4)*
X64575002Y73375000D03*
G04 #@! TO.P,M1,N5,BOOT0*
G04 #@! TO.N,unconnected-(M1-BOOT0-PadN5)*
X63775001Y73375000D03*
G04 #@! TO.P,M1,N6,SWO*
G04 #@! TO.N,unconnected-(M1-SWO-PadN6)*
X62975000Y73375000D03*
G04 #@! TO.P,M1,N7,SWDIO*
G04 #@! TO.N,unconnected-(M1-SWDIO-PadN7)*
X62175002Y73375000D03*
G04 #@! TO.P,M1,N8,SWCLK*
G04 #@! TO.N,unconnected-(M1-SWCLK-PadN8)*
X61375001Y73375002D03*
G04 #@! TO.P,M1,N9,nReset*
G04 #@! TO.N,unconnected-(M1-nReset-PadN9)*
X60575003Y73375000D03*
G04 #@! TO.P,M1,N10,SPI3_CS*
G04 #@! TO.N,unconnected-(M1-SPI3_CS-PadN10)*
X59775002Y73375000D03*
G04 #@! TO.P,M1,N11,SPI3_SCK*
G04 #@! TO.N,unconnected-(M1-SPI3_SCK-PadN11)*
X58975001Y73375000D03*
G04 #@! TO.P,M1,N12,SPI3_MISO*
G04 #@! TO.N,unconnected-(M1-SPI3_MISO-PadN12)*
X58175000Y73375000D03*
G04 #@! TO.P,M1,N13,SPI3_MOSI*
G04 #@! TO.N,unconnected-(M1-SPI3_MOSI-PadN13)*
X57375001Y73375000D03*
G04 #@! TO.P,M1,N14,I2C_SCL*
G04 #@! TO.N,unconnected-(M1-I2C_SCL-PadN14)*
X56575000Y73375000D03*
G04 #@! TO.P,M1,N15,I2C_SDA*
G04 #@! TO.N,unconnected-(M1-I2C_SDA-PadN15)*
X55774999Y73375002D03*
G04 #@! TO.P,M1,N16,IO1*
G04 #@! TO.N,/IO1*
X54974999Y73375002D03*
G04 #@! TO.P,M1,N17,UART2_TX*
G04 #@! TO.N,unconnected-(M1-UART2_TX-PadN17)*
X54175000Y73375000D03*
G04 #@! TO.P,M1,N18,UART2_RX*
G04 #@! TO.N,unconnected-(M1-UART2_RX-PadN18)*
X53374999Y73375000D03*
G04 #@! TO.P,M1,N19,IO2*
G04 #@! TO.N,/IO2*
X52575001Y73375000D03*
G04 #@! TO.P,M1,N20,IO4*
G04 #@! TO.N,/IO4*
X51775000Y73375000D03*
G04 #@! TO.P,M1,N21,IO3*
G04 #@! TO.N,/IO3*
X50975001Y73375002D03*
G04 #@! TO.P,M1,N22,V33*
G04 #@! TO.N,+3.3V*
X50175000Y73375000D03*
G04 #@! TO.P,M1,N23,IO5*
G04 #@! TO.N,/IO5*
X49375000Y73375000D03*
G04 #@! TO.P,M1,N24,UART8_RX*
G04 #@! TO.N,unconnected-(M1-UART8_RX-PadN24)*
X43875000Y73375000D03*
G04 #@! TO.P,M1,N25,UART8_TX*
G04 #@! TO.N,unconnected-(M1-UART8_TX-PadN25)*
X43074999Y73375000D03*
G04 #@! TO.P,M1,N26,IN_VIGN*
G04 #@! TO.N,/VIGN*
X42275001Y73375000D03*
G04 #@! TO.P,M1,N27,VBAT*
G04 #@! TO.N,/VBAT*
X41475003Y73375000D03*
G04 #@! TO.P,M1,N28,V33_SWITCHABLE*
G04 #@! TO.N,+3.3VA*
X40675004Y73375000D03*
G04 #@! TO.P,M1,N29,OUT_PWR_EN*
G04 #@! TO.N,/PWR_EN*
X32875000Y73375000D03*
G04 #@! TO.P,M1,N30,V5A_SWITCHABLE*
G04 #@! TO.N,+5VA*
X32075001Y73375000D03*
G04 #@! TO.P,M1,N31,VCC*
G04 #@! TO.N,+5V*
X31275003Y73375000D03*
G04 #@! TO.P,M1,N32,V33*
G04 #@! TO.N,+3.3V*
X25274999Y73375000D03*
G04 #@! TO.P,M1,S1,IN_D4*
G04 #@! TO.N,/D4_IN*
X66374999Y33874995D03*
G04 #@! TO.P,M1,S2,IN_D3*
G04 #@! TO.N,/D3_IN*
X65174998Y33874997D03*
G04 #@! TO.P,M1,S3,IN_D2*
G04 #@! TO.N,/D2_IN*
X63975001Y33874997D03*
G04 #@! TO.P,M1,S4,IN_D1*
G04 #@! TO.N,/D1_IN*
X62775001Y33874995D03*
G04 #@! TO.P,M1,S5,VREF2*
G04 #@! TO.N,unconnected-(M1-VREF2-PadS5)*
X61575001Y33874997D03*
G04 #@! TO.P,M1,S6,IN_SENS4*
G04 #@! TO.N,/SENS4*
X60475013Y33874997D03*
G04 #@! TO.P,M1,S7,IN_SENS3*
G04 #@! TO.N,/SENS3*
X59275013Y33874997D03*
G04 #@! TO.P,M1,S8,IN_SENS2*
G04 #@! TO.N,/SENS2*
X58075015Y33874995D03*
G04 #@! TO.P,M1,S9,IN_SENS1*
G04 #@! TO.N,/SENS1*
X56875015Y33874997D03*
G04 #@! TO.P,M1,S10,IN_AUX4*
G04 #@! TO.N,/AUX4*
X55675012Y33874997D03*
G04 #@! TO.P,M1,S11,IN_AUX3*
G04 #@! TO.N,/AUX3*
X54475010Y33874995D03*
G04 #@! TO.P,M1,S12,IN_AUX2*
G04 #@! TO.N,/AUX2*
X53275012Y33874997D03*
G04 #@! TO.P,M1,S13,IN_AUX1*
G04 #@! TO.N,/AUX1*
X52075014Y33874997D03*
G04 #@! TO.P,M1,S14,IN_RES2*
G04 #@! TO.N,/RES2*
X50875007Y33874997D03*
G04 #@! TO.P,M1,S15,IN_O2S2*
G04 #@! TO.N,/O2S2*
X49675007Y33874997D03*
G04 #@! TO.P,M1,S16,IN_O2S*
G04 #@! TO.N,/O2SENS*
X48475009Y33874997D03*
G04 #@! TO.P,M1,S17,IN_RES1*
G04 #@! TO.N,/RES1*
X47275009Y33874997D03*
G04 #@! TO.P,M1,S18,IN_RES3*
G04 #@! TO.N,/RES3*
X46075004Y33874997D03*
G04 #@! TO.P,M1,S19,IN_MAP3*
G04 #@! TO.N,/MAP3*
X44875003Y33874997D03*
G04 #@! TO.P,M1,S20,IN_MAP2*
G04 #@! TO.N,/MAP2*
X43675006Y33874995D03*
G04 #@! TO.P,M1,S21,IN_MAP1*
G04 #@! TO.N,/MAP*
X42475006Y33874997D03*
G04 #@! TO.P,M1,S22,IN_CRANK*
G04 #@! TO.N,/CRANK*
X41275003Y33874995D03*
G04 #@! TO.P,M1,S23,IN_KNOCK*
G04 #@! TO.N,/KNOCK_PROCESSED*
X40075003Y33874997D03*
G04 #@! TO.P,M1,S24,IN_CAM*
G04 #@! TO.N,/CAM*
X38875008Y33874997D03*
G04 #@! TO.P,M1,S25,IN_VSS*
G04 #@! TO.N,/VSS*
X37675005Y33874995D03*
G04 #@! TO.P,M1,S26,IN_IAT*
G04 #@! TO.N,/AIR*
X36475000Y33874997D03*
G04 #@! TO.P,M1,S27,IN_AT1*
G04 #@! TO.N,/AT1*
X35275000Y33874995D03*
G04 #@! TO.P,M1,S28,IN_CLT*
G04 #@! TO.N,/COOLANT*
X34075002Y33874997D03*
G04 #@! TO.P,M1,S29,IN_AT2*
G04 #@! TO.N,/AT2*
X32875002Y33874997D03*
G04 #@! TO.P,M1,S30,IN_TPS*
G04 #@! TO.N,/TPS*
X31674997Y33874997D03*
G04 #@! TO.P,M1,S31,IN_PPS*
G04 #@! TO.N,/PPS*
X30474997Y33874997D03*
G04 #@! TO.P,M1,S32,IN_TPS2*
G04 #@! TO.N,/TPS2*
X29274999Y33874997D03*
G04 #@! TO.P,M1,S33,IN_PPS2*
G04 #@! TO.N,/PPS2*
X28074999Y33874997D03*
G04 #@! TO.P,M1,S35,VREF1*
G04 #@! TO.N,/VREF1*
X25674999Y33874997D03*
G04 #@! TO.P,M1,W1,GNDA*
G04 #@! TO.N,GNDA*
X25274997Y36375000D03*
G04 #@! TO.P,M1,W2,V5A_SWITCHABLE*
G04 #@! TO.N,+5VA*
X25274997Y37375001D03*
G04 #@! TO.P,M1,W3,V33_REF*
G04 #@! TO.N,unconnected-(M1-V33_REF-PadW3)*
X25274999Y43775003D03*
G04 #@! TO.P,M1,W3a,BOOT1*
G04 #@! TO.N,unconnected-(M1-BOOT1-PadW3a)*
X25274998Y49775001D03*
G04 #@! TO.P,M1,W4,IGN8*
G04 #@! TO.N,unconnected-(M1-IGN8-PadW4)*
X25274999Y50774999D03*
G04 #@! TO.P,M1,W5,IGN7*
G04 #@! TO.N,unconnected-(M1-IGN7-PadW5)*
X25274999Y51775000D03*
G04 #@! TO.P,M1,W6,IGN6*
G04 #@! TO.N,unconnected-(M1-IGN6-PadW6)*
X25274999Y52774998D03*
G04 #@! TO.P,M1,W7,IGN5*
G04 #@! TO.N,unconnected-(M1-IGN5-PadW7)*
X25274999Y53774998D03*
G04 #@! TO.P,M1,W8,IGN4*
G04 #@! TO.N,/SPARK4_OUT*
X25274999Y54774999D03*
G04 #@! TO.P,M1,W9,IGN3*
G04 #@! TO.N,/SPARK3_OUT*
X25274999Y55774997D03*
G04 #@! TO.P,M1,W10,IGN2*
G04 #@! TO.N,/SPARK2_OUT*
X25274999Y56774997D03*
G04 #@! TO.P,M1,W11,IGN1*
G04 #@! TO.N,/SPARK1_OUT*
X25274999Y57774995D03*
G04 #@! TO.P,M1,W11a,LED_RED*
G04 #@! TO.N,unconnected-(M1-LED_RED-PadW11a)*
X25274998Y58775001D03*
G04 #@! TO.P,M1,W11b,LED_GREEN*
G04 #@! TO.N,unconnected-(M1-LED_GREEN-PadW11b)*
X25274998Y59775001D03*
G04 #@! TO.P,M1,W11c,LED_BLUE*
G04 #@! TO.N,unconnected-(M1-LED_BLUE-PadW11c)*
X25274998Y60775001D03*
G04 #@! TO.P,M1,W11d,LED_YELLOW*
G04 #@! TO.N,unconnected-(M1-LED_YELLOW-PadW11d)*
X25274998Y61775001D03*
G04 #@! TO.P,M1,W12,CANH*
G04 #@! TO.N,/CAN1+*
X25274998Y62775001D03*
G04 #@! TO.P,M1,W13,CANL*
G04 #@! TO.N,/CAN1-*
X25274998Y63775001D03*
G04 #@! TD*
G04 #@! TO.P,D6,1,K*
G04 #@! TO.N,+12V_RAW*
G04 #@! TA.AperFunction,SMDPad,CuDef*
G36*
G01*
X-64420000Y42120000D02*
X-64420000Y42870000D01*
G75*
G02*
X-64195000Y43095000I225000J0D01*
G01*
X-63745000Y43095000D01*
G75*
G02*
X-63520000Y42870000I0J-225000D01*
G01*
X-63520000Y42120000D01*
G75*
G02*
X-63745000Y41895000I-225000J0D01*
G01*
X-64195000Y41895000D01*
G75*
G02*
X-64420000Y42120000I0J225000D01*
G01*
G37*
G04 #@! TD.AperFunction*
G04 #@! TO.P,D6,2,A*
G04 #@! TO.N,/LS2_OUT*
G04 #@! TA.AperFunction,SMDPad,CuDef*
G36*
G01*
X-61120000Y42120000D02*
X-61120000Y42870000D01*
G75*
G02*
X-60895000Y43095000I225000J0D01*
G01*
X-60445000Y43095000D01*
G75*
G02*
X-60220000Y42870000I0J-225000D01*
G01*
X-60220000Y42120000D01*
G75*
G02*
X-60445000Y41895000I-225000J0D01*
G01*
X-60895000Y41895000D01*
G75*
G02*
X-61120000Y42120000I0J225000D01*
G01*
G37*
G04 #@! TD.AperFunction*
G04 #@! TD*
G04 #@! TO.P,R1,1*
G04 #@! TO.N,/INJ1_IN*
G04 #@! TA.AperFunction,SMDPad,CuDef*
G36*
G01*
X-32925000Y56390000D02*
X-32925000Y56760000D01*
G75*
G02*
X-32790000Y56895000I135000J0D01*
G01*
X-32520000Y56895000D01*
G75*
G02*
X-32385000Y56760000I0J-135000D01*
G01*
X-32385000Y56390000D01*
G75*
G02*
X-32520000Y56255000I-135000J0D01*
G01*
X-32790000Y56255000D01*
G75*
G02*
X-32925000Y56390000I0J135000D01*
G01*
G37*
G04 #@! TD.AperFunction*
G04 #@! TO.P,R1,2*
G04 #@! TO.N,GND*
G04 #@! TA.AperFunction,SMDPad,CuDef*
G36*
G01*
X-31905000Y56390000D02*
X-31905000Y56760000D01*
G75*
G02*
X-31770000Y56895000I135000J0D01*
G01*
X-31500000Y56895000D01*
G75*
G02*
X-31365000Y56760000I0J-135000D01*
G01*
X-31365000Y56390000D01*
G75*
G02*
X-31500000Y56255000I-135000J0D01*
G01*
X-31770000Y56255000D01*
G75*
G02*
X-31905000Y56390000I0J135000D01*
G01*
G37*
G04 #@! TD.AperFunction*
G04 #@! TD*
G04 #@! TO.P,R3,1*
G04 #@! TO.N,/INJ4_IN*
G04 #@! TA.AperFunction,SMDPad,CuDef*
G36*
G01*
X-32925000Y52410000D02*
X-32925000Y52780000D01*
G75*
G02*
X-32790000Y52915000I135000J0D01*
G01*
X-32520000Y52915000D01*
G75*
G02*
X-32385000Y52780000I0J-135000D01*
G01*
X-32385000Y52410000D01*
G75*
G02*
X-32520000Y52275000I-135000J0D01*
G01*
X-32790000Y52275000D01*
G75*
G02*
X-32925000Y52410000I0J135000D01*
G01*
G37*
G04 #@! TD.AperFunction*
G04 #@! TO.P,R3,2*
G04 #@! TO.N,GND*
G04 #@! TA.AperFunction,SMDPad,CuDef*
G36*
G01*
X-31905000Y52410000D02*
X-31905000Y52780000D01*
G75*
G02*
X-31770000Y52915000I135000J0D01*
G01*
X-31500000Y52915000D01*
G75*
G02*
X-31365000Y52780000I0J-135000D01*
G01*
X-31365000Y52410000D01*
G75*
G02*
X-31500000Y52275000I-135000J0D01*
G01*
X-31770000Y52275000D01*
G75*
G02*
X-31905000Y52410000I0J135000D01*
G01*
G37*
G04 #@! TD.AperFunction*
G04 #@! TD*
G04 #@! TO.P,R10,1*
G04 #@! TO.N,Net-(Q2-G)*
G04 #@! TA.AperFunction,SMDPad,CuDef*
G36*
G01*
X-30015000Y48430000D02*
X-30015000Y48800000D01*
G75*
G02*
X-29880000Y48935000I135000J0D01*
G01*
X-29610000Y48935000D01*
G75*
G02*
X-29475000Y48800000I0J-135000D01*
G01*
X-29475000Y48430000D01*
G75*
G02*
X-29610000Y48295000I-135000J0D01*
G01*
X-29880000Y48295000D01*
G75*
G02*
X-30015000Y48430000I0J135000D01*
G01*
G37*
G04 #@! TD.AperFunction*
G04 #@! TO.P,R10,2*
G04 #@! TO.N,/CHECKENGINE_IN*
G04 #@! TA.AperFunction,SMDPad,CuDef*
G36*
G01*
X-28995000Y48430000D02*
X-28995000Y48800000D01*
G75*
G02*
X-28860000Y48935000I135000J0D01*
G01*
X-28590000Y48935000D01*
G75*
G02*
X-28455000Y48800000I0J-135000D01*
G01*
X-28455000Y48430000D01*
G75*
G02*
X-28590000Y48295000I-135000J0D01*
G01*
X-28860000Y48295000D01*
G75*
G02*
X-28995000Y48430000I0J135000D01*
G01*
G37*
G04 #@! TD.AperFunction*
G04 #@! TD*
G04 #@! TO.P,U6,1,IN1*
G04 #@! TO.N,/LS3_IN*
G04 #@! TA.AperFunction,SMDPad,CuDef*
G36*
G01*
X8185000Y44065000D02*
X7735000Y44065000D01*
G75*
G02*
X7660000Y44140000I0J75000D01*
G01*
X7660000Y45960000D01*
G75*
G02*
X7735000Y46035000I75000J0D01*
G01*
X8185000Y46035000D01*
G75*
G02*
X8260000Y45960000I0J-75000D01*
G01*
X8260000Y44140000D01*
G75*
G02*
X8185000Y44065000I-75000J0D01*
G01*
G37*
G04 #@! TD.AperFunction*
G04 #@! TO.P,U6,2,S1*
G04 #@! TO.N,unconnected-(U6-S1-Pad2)*
G04 #@! TA.AperFunction,SMDPad,CuDef*
G36*
G01*
X9455000Y44065000D02*
X9005000Y44065000D01*
G75*
G02*
X8930000Y44140000I0J75000D01*
G01*
X8930000Y45960000D01*
G75*
G02*
X9005000Y46035000I75000J0D01*
G01*
X9455000Y46035000D01*
G75*
G02*
X9530000Y45960000I0J-75000D01*
G01*
X9530000Y44140000D01*
G75*
G02*
X9455000Y44065000I-75000J0D01*
G01*
G37*
G04 #@! TD.AperFunction*
G04 #@! TO.P,U6,3,IN2*
G04 #@! TO.N,/LS4_IN*
G04 #@! TA.AperFunction,SMDPad,CuDef*
G36*
G01*
X10725000Y44065000D02*
X10275000Y44065000D01*
G75*
G02*
X10200000Y44140000I0J75000D01*
G01*
X10200000Y45960000D01*
G75*
G02*
X10275000Y46035000I75000J0D01*
G01*
X10725000Y46035000D01*
G75*
G02*
X10800000Y45960000I0J-75000D01*
G01*
X10800000Y44140000D01*
G75*
G02*
X10725000Y44065000I-75000J0D01*
G01*
G37*
G04 #@! TD.AperFunction*
G04 #@! TO.P,U6,4,S2*
G04 #@! TO.N,unconnected-(U6-S2-Pad4)*
G04 #@! TA.AperFunction,SMDPad,CuDef*
G36*
G01*
X11995000Y44065000D02*
X11545000Y44065000D01*
G75*
G02*
X11470000Y44140000I0J75000D01*
G01*
X11470000Y45960000D01*
G75*
G02*
X11545000Y46035000I75000J0D01*
G01*
X11995000Y46035000D01*
G75*
G02*
X12070000Y45960000I0J-75000D01*
G01*
X12070000Y44140000D01*
G75*
G02*
X11995000Y44065000I-75000J0D01*
G01*
G37*
G04 #@! TD.AperFunction*
G04 #@! TO.P,U6,5,SOURCE2*
G04 #@! TO.N,GND*
G04 #@! TA.AperFunction,SMDPad,CuDef*
G36*
G01*
X11995000Y49015000D02*
X11545000Y49015000D01*
G75*
G02*
X11470000Y49090000I0J75000D01*
G01*
X11470000Y50910000D01*
G75*
G02*
X11545000Y50985000I75000J0D01*
G01*
X11995000Y50985000D01*
G75*
G02*
X12070000Y50910000I0J-75000D01*
G01*
X12070000Y49090000D01*
G75*
G02*
X11995000Y49015000I-75000J0D01*
G01*
G37*
G04 #@! TD.AperFunction*
G04 #@! TO.P,U6,6,DRAIN2*
G04 #@! TO.N,/LS4_OUT*
G04 #@! TA.AperFunction,SMDPad,CuDef*
G36*
G01*
X10725000Y49015000D02*
X10275000Y49015000D01*
G75*
G02*
X10200000Y49090000I0J75000D01*
G01*
X10200000Y50910000D01*
G75*
G02*
X10275000Y50985000I75000J0D01*
G01*
X10725000Y50985000D01*
G75*
G02*
X10800000Y50910000I0J-75000D01*
G01*
X10800000Y49090000D01*
G75*
G02*
X10725000Y49015000I-75000J0D01*
G01*
G37*
G04 #@! TD.AperFunction*
G04 #@! TO.P,U6,7,SOURCE1*
G04 #@! TO.N,GND*
G04 #@! TA.AperFunction,SMDPad,CuDef*
G36*
G01*
X9455000Y49015000D02*
X9005000Y49015000D01*
G75*
G02*
X8930000Y49090000I0J75000D01*
G01*
X8930000Y50910000D01*
G75*
G02*
X9005000Y50985000I75000J0D01*
G01*
X9455000Y50985000D01*
G75*
G02*
X9530000Y50910000I0J-75000D01*
G01*
X9530000Y49090000D01*
G75*
G02*
X9455000Y49015000I-75000J0D01*
G01*
G37*
G04 #@! TD.AperFunction*
G04 #@! TO.P,U6,8,DRAIN1*
G04 #@! TO.N,/LS3_OUT*
G04 #@! TA.AperFunction,SMDPad,CuDef*
G36*
G01*
X8185000Y49015000D02*
X7735000Y49015000D01*
G75*
G02*
X7660000Y49090000I0J75000D01*
G01*
X7660000Y50910000D01*
G75*
G02*
X7735000Y50985000I75000J0D01*
G01*
X8185000Y50985000D01*
G75*
G02*
X8260000Y50910000I0J-75000D01*
G01*
X8260000Y49090000D01*
G75*
G02*
X8185000Y49015000I-75000J0D01*
G01*
G37*
G04 #@! TD.AperFunction*
G04 #@! TD*
G04 #@! TO.P,R7,1*
G04 #@! TO.N,/IACOPEN_IN*
G04 #@! TA.AperFunction,SMDPad,CuDef*
G36*
G01*
X-30015000Y54400000D02*
X-30015000Y54770000D01*
G75*
G02*
X-29880000Y54905000I135000J0D01*
G01*
X-29610000Y54905000D01*
G75*
G02*
X-29475000Y54770000I0J-135000D01*
G01*
X-29475000Y54400000D01*
G75*
G02*
X-29610000Y54265000I-135000J0D01*
G01*
X-29880000Y54265000D01*
G75*
G02*
X-30015000Y54400000I0J135000D01*
G01*
G37*
G04 #@! TD.AperFunction*
G04 #@! TO.P,R7,2*
G04 #@! TO.N,GND*
G04 #@! TA.AperFunction,SMDPad,CuDef*
G36*
G01*
X-28995000Y54400000D02*
X-28995000Y54770000D01*
G75*
G02*
X-28860000Y54905000I135000J0D01*
G01*
X-28590000Y54905000D01*
G75*
G02*
X-28455000Y54770000I0J-135000D01*
G01*
X-28455000Y54400000D01*
G75*
G02*
X-28590000Y54265000I-135000J0D01*
G01*
X-28860000Y54265000D01*
G75*
G02*
X-28995000Y54400000I0J135000D01*
G01*
G37*
G04 #@! TD.AperFunction*
G04 #@! TD*
G04 #@! TO.P,M3,E1,Thresh_IN*
G04 #@! TO.N,/THRESH*
X96750007Y58711671D03*
G04 #@! TO.P,M3,E2,OUT_A*
G04 #@! TO.N,unconnected-(M3-OUT_A-PadE2)*
X96750007Y57511671D03*
G04 #@! TO.P,M3,E3,OUT*
G04 #@! TO.N,/CAM*
X96750007Y59911671D03*
G04 #@! TO.P,M3,E4,V5_IN*
G04 #@! TO.N,+5VA*
X96750007Y61111671D03*
D23*
G04 #@! TO.P,M3,G,GND*
G04 #@! TO.N,GND*
X82100007Y58444171D03*
D24*
X82100007Y52394171D03*
D25*
X89112507Y61411671D03*
D26*
X89525007Y51961671D03*
D27*
X96950007Y54424171D03*
D11*
G04 #@! TO.P,M3,W1,VR-*
G04 #@! TO.N,/VR-*
X82325007Y54651671D03*
G04 #@! TO.P,M3,W2,VR+*
G04 #@! TO.N,unconnected-(M3-VR+-PadW2)*
X82325007Y53651671D03*
G04 #@! TD*
G04 #@! TO.P,U2,1,IN1*
G04 #@! TO.N,/INJ3_IN*
G04 #@! TA.AperFunction,SMDPad,CuDef*
G36*
G01*
X-9015000Y60175000D02*
X-9015000Y59725000D01*
G75*
G02*
X-9090000Y59650000I-75000J0D01*
G01*
X-10910000Y59650000D01*
G75*
G02*
X-10985000Y59725000I0J75000D01*
G01*
X-10985000Y60175000D01*
G75*
G02*
X-10910000Y60250000I75000J0D01*
G01*
X-9090000Y60250000D01*
G75*
G02*
X-9015000Y60175000I0J-75000D01*
G01*
G37*
G04 #@! TD.AperFunction*
G04 #@! TO.P,U2,2,S1*
G04 #@! TO.N,unconnected-(U2-S1-Pad2)*
G04 #@! TA.AperFunction,SMDPad,CuDef*
G36*
G01*
X-9015000Y61445000D02*
X-9015000Y60995000D01*
G75*
G02*
X-9090000Y60920000I-75000J0D01*
G01*
X-10910000Y60920000D01*
G75*
G02*
X-10985000Y60995000I0J75000D01*
G01*
X-10985000Y61445000D01*
G75*
G02*
X-10910000Y61520000I75000J0D01*
G01*
X-9090000Y61520000D01*
G75*
G02*
X-9015000Y61445000I0J-75000D01*
G01*
G37*
G04 #@! TD.AperFunction*
G04 #@! TO.P,U2,3,IN2*
G04 #@! TO.N,/INJ4_IN*
G04 #@! TA.AperFunction,SMDPad,CuDef*
G36*
G01*
X-9015000Y62715000D02*
X-9015000Y62265000D01*
G75*
G02*
X-9090000Y62190000I-75000J0D01*
G01*
X-10910000Y62190000D01*
G75*
G02*
X-10985000Y62265000I0J75000D01*
G01*
X-10985000Y62715000D01*
G75*
G02*
X-10910000Y62790000I75000J0D01*
G01*
X-9090000Y62790000D01*
G75*
G02*
X-9015000Y62715000I0J-75000D01*
G01*
G37*
G04 #@! TD.AperFunction*
G04 #@! TO.P,U2,4,S2*
G04 #@! TO.N,unconnected-(U2-S2-Pad4)*
G04 #@! TA.AperFunction,SMDPad,CuDef*
G36*
G01*
X-9015000Y63985000D02*
X-9015000Y63535000D01*
G75*
G02*
X-9090000Y63460000I-75000J0D01*
G01*
X-10910000Y63460000D01*
G75*
G02*
X-10985000Y63535000I0J75000D01*
G01*
X-10985000Y63985000D01*
G75*
G02*
X-10910000Y64060000I75000J0D01*
G01*
X-9090000Y64060000D01*
G75*
G02*
X-9015000Y63985000I0J-75000D01*
G01*
G37*
G04 #@! TD.AperFunction*
G04 #@! TO.P,U2,5,SOURCE2*
G04 #@! TO.N,GND*
G04 #@! TA.AperFunction,SMDPad,CuDef*
G36*
G01*
X-13965000Y63985000D02*
X-13965000Y63535000D01*
G75*
G02*
X-14040000Y63460000I-75000J0D01*
G01*
X-15860000Y63460000D01*
G75*
G02*
X-15935000Y63535000I0J75000D01*
G01*
X-15935000Y63985000D01*
G75*
G02*
X-15860000Y64060000I75000J0D01*
G01*
X-14040000Y64060000D01*
G75*
G02*
X-13965000Y63985000I0J-75000D01*
G01*
G37*
G04 #@! TD.AperFunction*
G04 #@! TO.P,U2,6,DRAIN2*
G04 #@! TO.N,/INJ4_OUT*
G04 #@! TA.AperFunction,SMDPad,CuDef*
G36*
G01*
X-13965000Y62715000D02*
X-13965000Y62265000D01*
G75*
G02*
X-14040000Y62190000I-75000J0D01*
G01*
X-15860000Y62190000D01*
G75*
G02*
X-15935000Y62265000I0J75000D01*
G01*
X-15935000Y62715000D01*
G75*
G02*
X-15860000Y62790000I75000J0D01*
G01*
X-14040000Y62790000D01*
G75*
G02*
X-13965000Y62715000I0J-75000D01*
G01*
G37*
G04 #@! TD.AperFunction*
G04 #@! TO.P,U2,7,SOURCE1*
G04 #@! TO.N,GND*
G04 #@! TA.AperFunction,SMDPad,CuDef*
G36*
G01*
X-13965000Y61445000D02*
X-13965000Y60995000D01*
G75*
G02*
X-14040000Y60920000I-75000J0D01*
G01*
X-15860000Y60920000D01*
G75*
G02*
X-15935000Y60995000I0J75000D01*
G01*
X-15935000Y61445000D01*
G75*
G02*
X-15860000Y61520000I75000J0D01*
G01*
X-14040000Y61520000D01*
G75*
G02*
X-13965000Y61445000I0J-75000D01*
G01*
G37*
G04 #@! TD.AperFunction*
G04 #@! TO.P,U2,8,DRAIN1*
G04 #@! TO.N,/INJ3_OUT*
G04 #@! TA.AperFunction,SMDPad,CuDef*
G36*
G01*
X-13965000Y60175000D02*
X-13965000Y59725000D01*
G75*
G02*
X-14040000Y59650000I-75000J0D01*
G01*
X-15860000Y59650000D01*
G75*
G02*
X-15935000Y59725000I0J75000D01*
G01*
X-15935000Y60175000D01*
G75*
G02*
X-15860000Y60250000I75000J0D01*
G01*
X-14040000Y60250000D01*
G75*
G02*
X-13965000Y60175000I0J-75000D01*
G01*
G37*
G04 #@! TD.AperFunction*
G04 #@! TD*
G04 #@! TO.P,D4,1,K*
G04 #@! TO.N,+12V_RAW*
G04 #@! TA.AperFunction,SMDPad,CuDef*
G36*
G01*
X-64420000Y45470000D02*
X-64420000Y46220000D01*
G75*
G02*
X-64195000Y46445000I225000J0D01*
G01*
X-63745000Y46445000D01*
G75*
G02*
X-63520000Y46220000I0J-225000D01*
G01*
X-63520000Y45470000D01*
G75*
G02*
X-63745000Y45245000I-225000J0D01*
G01*
X-64195000Y45245000D01*
G75*
G02*
X-64420000Y45470000I0J225000D01*
G01*
G37*
G04 #@! TD.AperFunction*
G04 #@! TO.P,D4,2,A*
G04 #@! TO.N,/IACOPEN_OUT*
G04 #@! TA.AperFunction,SMDPad,CuDef*
G36*
G01*
X-61120000Y45470000D02*
X-61120000Y46220000D01*
G75*
G02*
X-60895000Y46445000I225000J0D01*
G01*
X-60445000Y46445000D01*
G75*
G02*
X-60220000Y46220000I0J-225000D01*
G01*
X-60220000Y45470000D01*
G75*
G02*
X-60445000Y45245000I-225000J0D01*
G01*
X-60895000Y45245000D01*
G75*
G02*
X-61120000Y45470000I0J225000D01*
G01*
G37*
G04 #@! TD.AperFunction*
G04 #@! TD*
G04 #@! TO.P,D8,1,K*
G04 #@! TO.N,+12V_RAW*
G04 #@! TA.AperFunction,SMDPad,CuDef*
G36*
G01*
X-64420000Y35420000D02*
X-64420000Y36170000D01*
G75*
G02*
X-64195000Y36395000I225000J0D01*
G01*
X-63745000Y36395000D01*
G75*
G02*
X-63520000Y36170000I0J-225000D01*
G01*
X-63520000Y35420000D01*
G75*
G02*
X-63745000Y35195000I-225000J0D01*
G01*
X-64195000Y35195000D01*
G75*
G02*
X-64420000Y35420000I0J225000D01*
G01*
G37*
G04 #@! TD.AperFunction*
G04 #@! TO.P,D8,2,A*
G04 #@! TO.N,/LS4_OUT*
G04 #@! TA.AperFunction,SMDPad,CuDef*
G36*
G01*
X-61120000Y35420000D02*
X-61120000Y36170000D01*
G75*
G02*
X-60895000Y36395000I225000J0D01*
G01*
X-60445000Y36395000D01*
G75*
G02*
X-60220000Y36170000I0J-225000D01*
G01*
X-60220000Y35420000D01*
G75*
G02*
X-60445000Y35195000I-225000J0D01*
G01*
X-60895000Y35195000D01*
G75*
G02*
X-61120000Y35420000I0J225000D01*
G01*
G37*
G04 #@! TD.AperFunction*
G04 #@! TD*
M02*
