G04 #@! TF.GenerationSoftware,KiCad,Pcbnew,8.0.9-8.0.9-0~ubuntu24.04.1*
G04 #@! TF.CreationDate,2026-04-01T07:18:04+00:00*
G04 #@! TF.ProjectId,EP91Starlet,45503931-5374-4617-926c-65742e6b6963,rev?*
G04 #@! TF.SameCoordinates,Original*
G04 #@! TF.FileFunction,Legend,Bot*
G04 #@! TF.FilePolarity,Positive*
%FSLAX46Y46*%
G04 Gerber Fmt 4.6, Leading zero omitted, Abs format (unit mm)*
G04 Created by KiCad (PCBNEW 8.0.9-8.0.9-0~ubuntu24.04.1) date 2026-04-01 07:18:04*
%MOMM*%
%LPD*%
G01*
G04 APERTURE LIST*
%ADD10C,0.200000*%
G04 APERTURE END LIST*
D10*
G04 #@! TO.C,M4*
X64350007Y24611669D02*
X64350007Y27811672D01*
X64350007Y12511669D02*
X64350007Y22911671D01*
X64350007Y10611669D02*
X64350007Y10911669D01*
X64350007Y10611669D02*
X79750007Y10611669D01*
X65850007Y31211667D02*
X81150006Y31211669D01*
X81150004Y24511671D02*
X81150004Y29311671D01*
X81150004Y18311669D02*
X81150004Y21011669D01*
X81150004Y15611671D02*
X81150004Y16711674D01*
X81150004Y12061669D02*
X81150009Y13611669D01*
X81150006Y30911671D02*
X81150006Y31211669D01*
G04 #@! TO.C,M6*
X-37900000Y72600003D02*
X-28800000Y72600003D01*
X-37900000Y69500000D02*
X-37900000Y70500002D01*
X-37900000Y69500000D02*
X-28800000Y69500000D01*
G04 #@! TO.C,M2*
X82050007Y72561671D02*
X82050007Y66161671D01*
X82050007Y62961671D02*
X82050007Y64261671D01*
X82050007Y62961671D02*
X97050007Y62961671D01*
X96450007Y72561671D02*
X82050007Y72561671D01*
X97050007Y62961671D02*
X97050007Y68061671D01*
G04 #@! TO.C,TP1*
X82050007Y50461671D02*
X82050007Y44061671D01*
X82050007Y40861671D02*
X82050007Y42161671D01*
X82050007Y40861671D02*
X97050007Y40861671D01*
X96450007Y50461671D02*
X82050007Y50461671D01*
X97050007Y40861671D02*
X97050007Y45961671D01*
G04 #@! TO.C,M5*
X62900007Y31211671D02*
X38500007Y31211671D01*
X38500007Y17411671D01*
X62900007Y17411671D01*
X62900007Y31211671D01*
G04 #@! TO.C,M7*
X82600004Y31172824D02*
X93775004Y31211671D01*
X82600004Y25475002D02*
X82600004Y31172824D01*
X82600004Y25475002D02*
X82875008Y25199996D01*
X82875008Y24374997D02*
X82875008Y25199996D01*
X82875008Y24374997D02*
X82931210Y24324997D01*
X82931210Y24324997D02*
X93775004Y24324997D01*
X93775004Y24318794D02*
X93775004Y31211671D01*
G04 #@! TO.C,M1*
X25074998Y73574995D02*
X65875001Y73574995D01*
X25074998Y33674996D02*
X25074998Y73574995D01*
X25074998Y33674996D02*
X67174998Y33674996D01*
X65875001Y73574995D02*
X67175001Y73574995D01*
X67174998Y33674996D02*
X67175001Y73574995D01*
G04 #@! TO.C,M3*
X82050007Y61511671D02*
X82050007Y55111671D01*
X82050007Y51911671D02*
X82050007Y53211671D01*
X82050007Y51911671D02*
X97050007Y51911671D01*
X96450007Y61511671D02*
X82050007Y61511671D01*
X97050007Y51911671D02*
X97050007Y57011671D01*
G04 #@! TD*
M02*
