M48
; DRILL file {KiCad 8.0.9-8.0.9-0~ubuntu24.04.1} date 2026-03-26T13:25:20+0000
; FORMAT={2:4/ absolute / inch / suppress leading zeros}
; #@! TF.CreationDate,2026-03-26T13:25:20+00:00
; #@! TF.GenerationSoftware,Kicad,Pcbnew,8.0.9-8.0.9-0~ubuntu24.04.1
; #@! TF.FileFunction,MixedPlating,1,4
FMAT,2
INCH,TZ
; #@! TA.AperFunction,Plated,PTH,ComponentDrill
T1C0.0118
; #@! TA.AperFunction,Plated,PTH,ComponentDrill
T2C0.0394
; #@! TA.AperFunction,Plated,PTH,ComponentDrill
T3C0.0433
; #@! TA.AperFunction,Plated,PTH,ComponentDrill
T4C0.1378
%
G90
G05
T1
X-14843Y28346
X-14843Y27992
X-11417Y28346
X-11417Y27972
X-11417Y27598
X5128Y26348
X5128Y23396
X5128Y23081
X5128Y22766
X5128Y22451
X5128Y22136
X5128Y21506
X5128Y21191
X5128Y20876
X5128Y20561
X5128Y20246
X5128Y19931
X5128Y19616
X5128Y19301
X5128Y18986
X5128Y18671
X5128Y17726
X5128Y17411
X5128Y17096
X5128Y15837
X5128Y15522
X5128Y15207
X5128Y14892
X5128Y13947
X5128Y13632
X5128Y13317
X5128Y13002
X5128Y12687
X5128Y11663
X5128Y26033
X5128Y21821
X5128Y18356
X5128Y18041
X5128Y16781
X5128Y16467
X5128Y16152
X5128Y14577
X5128Y14262
X5364Y27215
X5443Y11663
X5758Y11663
X5837Y27215
X6073Y11663
X6309Y27215
X6388Y11663
X6703Y11663
X6781Y27215
X7018Y11663
X7254Y27215
X7333Y11663
X7648Y11663
X7687Y27215
X7963Y11663
X8159Y27215
X8278Y11663
X8593Y11663
X8632Y27215
X8907Y11663
X9104Y27215
X9222Y11663
X9537Y11663
X9577Y27215
X9852Y11663
X10049Y27215
X10167Y11663
X10315Y3740
X10315Y3346
X10482Y11663
X10522Y27215
X10797Y11663
X10994Y27215
X11112Y11663
X11427Y11663
X11467Y27215
X11742Y11663
X11939Y27215
X12057Y11663
X12411Y27215
X12884Y27215
X13356Y27215
X13829Y27215
X14222Y11663
X14301Y27215
X14537Y11663
X14774Y27215
X14852Y11663
X15167Y11663
X15246Y27215
X15482Y11663
X15719Y27215
X16191Y27215
X16663Y27215
X17136Y27215
X17608Y27215
X18081Y27215
X18553Y27215
X18553Y11663
X18868Y11663
X19026Y27215
X19183Y11663
X19498Y27215
X19970Y27215
X20443Y27215
X21388Y27215
X21545Y23317
X21545Y20561
X21545Y20167
X21545Y19774
X21545Y19380
X21545Y18986
X21545Y18593
X21545Y18199
X21545Y17805
X21545Y11663
X21545Y20955
X21545Y17411
X21545Y17018
X21545Y16624
X21545Y16230
X21545Y15837
X21545Y15443
X21545Y26230
X21545Y25837
X22972Y31191
X23445Y31191
X23917Y31191
X24390Y31191
X25516Y25512
X25909Y25512
X26959Y31230
X27431Y31230
X27904Y31230
X28376Y31230
X29502Y25551
X29896Y25551
X32096Y16339
X32411Y16339
X32726Y16339
X33041Y16339
X33356Y16339
X35148Y25787
X35463Y25787
X35778Y25787
X36093Y25787
T2
X4035Y9823
X4035Y9094
X4035Y7146
X4035Y2402
X10138Y9646
X10138Y7126
X10138Y6378
X10138Y4685
X10138Y2224
X13685Y6890
X13685Y5890
X14685Y6890
X14685Y5890
X15685Y6890
X15685Y5890
X16685Y6890
X16685Y5890
X17685Y6890
X17685Y5890
X18685Y6890
X18685Y5890
X19685Y6890
X19685Y5890
X20685Y6890
X20685Y5890
X21685Y6890
X21685Y5890
X22685Y6890
X22685Y5890
X23685Y6890
X23685Y5890
X24685Y6890
X24685Y5890
X25685Y6890
X25685Y5890
X26685Y6890
X26685Y5890
X27685Y6890
X27685Y5890
X34675Y25630
T3
X7461Y35433
X7461Y33661
X8642Y35433
X8642Y33661
X9823Y35433
X9823Y33661
X11004Y35433
X11004Y33661
X12185Y35433
X12185Y33661
X13366Y35433
X13366Y33661
X14547Y35433
X14547Y33661
X15728Y35433
X15728Y33661
X18071Y35433
X18091Y33661
X19449Y35433
X19449Y33661
X20669Y35433
X20669Y33661
X21850Y35433
X21850Y33661
X23031Y35433
X23031Y33661
X24213Y35433
X24213Y33661
X25394Y35433
X25394Y33661
X26575Y35433
X26575Y33661
X27756Y35433
X27756Y33661
X28937Y35433
X28937Y33661
X30157Y35433
X30157Y33661
X31535Y35433
X31535Y33661
X32913Y35433
X32913Y33661
T4
X7303Y37677
X16850Y37677
X33169Y37677
M30
