G04 #@! TF.GenerationSoftware,KiCad,Pcbnew,8.0.9-8.0.9-0~ubuntu24.04.1*
G04 #@! TF.CreationDate,2026-03-30T23:48:31+00:00*
G04 #@! TF.ProjectId,EP91Starlet,45503931-5374-4617-926c-65742e6b6963,rev?*
G04 #@! TF.SameCoordinates,Original*
G04 #@! TF.FileFunction,Paste,Top*
G04 #@! TF.FilePolarity,Positive*
%FSLAX46Y46*%
G04 Gerber Fmt 4.6, Leading zero omitted, Abs format (unit mm)*
G04 Created by KiCad (PCBNEW 8.0.9-8.0.9-0~ubuntu24.04.1) date 2026-03-30 23:48:31*
%MOMM*%
%LPD*%
G01*
G04 APERTURE LIST*
G04 APERTURE END LIST*
G04 #@! TO.C,R2*
G36*
G01*
X-32925000Y54400000D02*
X-32925000Y54770000D01*
G75*
G02*
X-32790000Y54905000I135000J0D01*
G01*
X-32520000Y54905000D01*
G75*
G02*
X-32385000Y54770000I0J-135000D01*
G01*
X-32385000Y54400000D01*
G75*
G02*
X-32520000Y54265000I-135000J0D01*
G01*
X-32790000Y54265000D01*
G75*
G02*
X-32925000Y54400000I0J135000D01*
G01*
G37*
G36*
G01*
X-31905000Y54400000D02*
X-31905000Y54770000D01*
G75*
G02*
X-31770000Y54905000I135000J0D01*
G01*
X-31500000Y54905000D01*
G75*
G02*
X-31365000Y54770000I0J-135000D01*
G01*
X-31365000Y54400000D01*
G75*
G02*
X-31500000Y54265000I-135000J0D01*
G01*
X-31770000Y54265000D01*
G75*
G02*
X-31905000Y54400000I0J135000D01*
G01*
G37*
G04 #@! TD*
G04 #@! TO.C,R14*
G36*
G01*
X-27105000Y50420000D02*
X-27105000Y50790000D01*
G75*
G02*
X-26970000Y50925000I135000J0D01*
G01*
X-26700000Y50925000D01*
G75*
G02*
X-26565000Y50790000I0J-135000D01*
G01*
X-26565000Y50420000D01*
G75*
G02*
X-26700000Y50285000I-135000J0D01*
G01*
X-26970000Y50285000D01*
G75*
G02*
X-27105000Y50420000I0J135000D01*
G01*
G37*
G36*
G01*
X-26085000Y50420000D02*
X-26085000Y50790000D01*
G75*
G02*
X-25950000Y50925000I135000J0D01*
G01*
X-25680000Y50925000D01*
G75*
G02*
X-25545000Y50790000I0J-135000D01*
G01*
X-25545000Y50420000D01*
G75*
G02*
X-25680000Y50285000I-135000J0D01*
G01*
X-25950000Y50285000D01*
G75*
G02*
X-26085000Y50420000I0J135000D01*
G01*
G37*
G04 #@! TD*
G04 #@! TO.C,U1*
G36*
G01*
X-9015000Y53625000D02*
X-9015000Y53175000D01*
G75*
G02*
X-9090000Y53100000I-75000J0D01*
G01*
X-10910000Y53100000D01*
G75*
G02*
X-10985000Y53175000I0J75000D01*
G01*
X-10985000Y53625000D01*
G75*
G02*
X-10910000Y53700000I75000J0D01*
G01*
X-9090000Y53700000D01*
G75*
G02*
X-9015000Y53625000I0J-75000D01*
G01*
G37*
G36*
G01*
X-9015000Y54895000D02*
X-9015000Y54445000D01*
G75*
G02*
X-9090000Y54370000I-75000J0D01*
G01*
X-10910000Y54370000D01*
G75*
G02*
X-10985000Y54445000I0J75000D01*
G01*
X-10985000Y54895000D01*
G75*
G02*
X-10910000Y54970000I75000J0D01*
G01*
X-9090000Y54970000D01*
G75*
G02*
X-9015000Y54895000I0J-75000D01*
G01*
G37*
G36*
G01*
X-9015000Y56165000D02*
X-9015000Y55715000D01*
G75*
G02*
X-9090000Y55640000I-75000J0D01*
G01*
X-10910000Y55640000D01*
G75*
G02*
X-10985000Y55715000I0J75000D01*
G01*
X-10985000Y56165000D01*
G75*
G02*
X-10910000Y56240000I75000J0D01*
G01*
X-9090000Y56240000D01*
G75*
G02*
X-9015000Y56165000I0J-75000D01*
G01*
G37*
G36*
G01*
X-9015000Y57435000D02*
X-9015000Y56985000D01*
G75*
G02*
X-9090000Y56910000I-75000J0D01*
G01*
X-10910000Y56910000D01*
G75*
G02*
X-10985000Y56985000I0J75000D01*
G01*
X-10985000Y57435000D01*
G75*
G02*
X-10910000Y57510000I75000J0D01*
G01*
X-9090000Y57510000D01*
G75*
G02*
X-9015000Y57435000I0J-75000D01*
G01*
G37*
G36*
G01*
X-13965000Y57435000D02*
X-13965000Y56985000D01*
G75*
G02*
X-14040000Y56910000I-75000J0D01*
G01*
X-15860000Y56910000D01*
G75*
G02*
X-15935000Y56985000I0J75000D01*
G01*
X-15935000Y57435000D01*
G75*
G02*
X-15860000Y57510000I75000J0D01*
G01*
X-14040000Y57510000D01*
G75*
G02*
X-13965000Y57435000I0J-75000D01*
G01*
G37*
G36*
G01*
X-13965000Y56165000D02*
X-13965000Y55715000D01*
G75*
G02*
X-14040000Y55640000I-75000J0D01*
G01*
X-15860000Y55640000D01*
G75*
G02*
X-15935000Y55715000I0J75000D01*
G01*
X-15935000Y56165000D01*
G75*
G02*
X-15860000Y56240000I75000J0D01*
G01*
X-14040000Y56240000D01*
G75*
G02*
X-13965000Y56165000I0J-75000D01*
G01*
G37*
G36*
G01*
X-13965000Y54895000D02*
X-13965000Y54445000D01*
G75*
G02*
X-14040000Y54370000I-75000J0D01*
G01*
X-15860000Y54370000D01*
G75*
G02*
X-15935000Y54445000I0J75000D01*
G01*
X-15935000Y54895000D01*
G75*
G02*
X-15860000Y54970000I75000J0D01*
G01*
X-14040000Y54970000D01*
G75*
G02*
X-13965000Y54895000I0J-75000D01*
G01*
G37*
G36*
G01*
X-13965000Y53625000D02*
X-13965000Y53175000D01*
G75*
G02*
X-14040000Y53100000I-75000J0D01*
G01*
X-15860000Y53100000D01*
G75*
G02*
X-15935000Y53175000I0J75000D01*
G01*
X-15935000Y53625000D01*
G75*
G02*
X-15860000Y53700000I75000J0D01*
G01*
X-14040000Y53700000D01*
G75*
G02*
X-13965000Y53625000I0J-75000D01*
G01*
G37*
G04 #@! TD*
G04 #@! TO.C,R8*
G36*
G01*
X-30015000Y52410000D02*
X-30015000Y52780000D01*
G75*
G02*
X-29880000Y52915000I135000J0D01*
G01*
X-29610000Y52915000D01*
G75*
G02*
X-29475000Y52780000I0J-135000D01*
G01*
X-29475000Y52410000D01*
G75*
G02*
X-29610000Y52275000I-135000J0D01*
G01*
X-29880000Y52275000D01*
G75*
G02*
X-30015000Y52410000I0J135000D01*
G01*
G37*
G36*
G01*
X-28995000Y52410000D02*
X-28995000Y52780000D01*
G75*
G02*
X-28860000Y52915000I135000J0D01*
G01*
X-28590000Y52915000D01*
G75*
G02*
X-28455000Y52780000I0J-135000D01*
G01*
X-28455000Y52410000D01*
G75*
G02*
X-28590000Y52275000I-135000J0D01*
G01*
X-28860000Y52275000D01*
G75*
G02*
X-28995000Y52410000I0J135000D01*
G01*
G37*
G04 #@! TD*
G04 #@! TO.C,Q2*
G36*
G01*
X-32830000Y46020000D02*
X-32830000Y46320000D01*
G75*
G02*
X-32680000Y46470000I150000J0D01*
G01*
X-31505000Y46470000D01*
G75*
G02*
X-31355000Y46320000I0J-150000D01*
G01*
X-31355000Y46020000D01*
G75*
G02*
X-31505000Y45870000I-150000J0D01*
G01*
X-32680000Y45870000D01*
G75*
G02*
X-32830000Y46020000I0J150000D01*
G01*
G37*
G36*
G01*
X-32830000Y44120000D02*
X-32830000Y44420000D01*
G75*
G02*
X-32680000Y44570000I150000J0D01*
G01*
X-31505000Y44570000D01*
G75*
G02*
X-31355000Y44420000I0J-150000D01*
G01*
X-31355000Y44120000D01*
G75*
G02*
X-31505000Y43970000I-150000J0D01*
G01*
X-32680000Y43970000D01*
G75*
G02*
X-32830000Y44120000I0J150000D01*
G01*
G37*
G36*
G01*
X-30955000Y45070000D02*
X-30955000Y45370000D01*
G75*
G02*
X-30805000Y45520000I150000J0D01*
G01*
X-29630000Y45520000D01*
G75*
G02*
X-29480000Y45370000I0J-150000D01*
G01*
X-29480000Y45070000D01*
G75*
G02*
X-29630000Y44920000I-150000J0D01*
G01*
X-30805000Y44920000D01*
G75*
G02*
X-30955000Y45070000I0J150000D01*
G01*
G37*
G04 #@! TD*
G04 #@! TO.C,R6*
G36*
G01*
X-30015000Y56390000D02*
X-30015000Y56760000D01*
G75*
G02*
X-29880000Y56895000I135000J0D01*
G01*
X-29610000Y56895000D01*
G75*
G02*
X-29475000Y56760000I0J-135000D01*
G01*
X-29475000Y56390000D01*
G75*
G02*
X-29610000Y56255000I-135000J0D01*
G01*
X-29880000Y56255000D01*
G75*
G02*
X-30015000Y56390000I0J135000D01*
G01*
G37*
G36*
G01*
X-28995000Y56390000D02*
X-28995000Y56760000D01*
G75*
G02*
X-28860000Y56895000I135000J0D01*
G01*
X-28590000Y56895000D01*
G75*
G02*
X-28455000Y56760000I0J-135000D01*
G01*
X-28455000Y56390000D01*
G75*
G02*
X-28590000Y56255000I-135000J0D01*
G01*
X-28860000Y56255000D01*
G75*
G02*
X-28995000Y56390000I0J135000D01*
G01*
G37*
G04 #@! TD*
G04 #@! TO.C,R11*
G36*
G01*
X-27105000Y56390000D02*
X-27105000Y56760000D01*
G75*
G02*
X-26970000Y56895000I135000J0D01*
G01*
X-26700000Y56895000D01*
G75*
G02*
X-26565000Y56760000I0J-135000D01*
G01*
X-26565000Y56390000D01*
G75*
G02*
X-26700000Y56255000I-135000J0D01*
G01*
X-26970000Y56255000D01*
G75*
G02*
X-27105000Y56390000I0J135000D01*
G01*
G37*
G36*
G01*
X-26085000Y56390000D02*
X-26085000Y56760000D01*
G75*
G02*
X-25950000Y56895000I135000J0D01*
G01*
X-25680000Y56895000D01*
G75*
G02*
X-25545000Y56760000I0J-135000D01*
G01*
X-25545000Y56390000D01*
G75*
G02*
X-25680000Y56255000I-135000J0D01*
G01*
X-25950000Y56255000D01*
G75*
G02*
X-26085000Y56390000I0J135000D01*
G01*
G37*
G04 #@! TD*
G04 #@! TO.C,R9*
G36*
G01*
X-30015000Y50420000D02*
X-30015000Y50790000D01*
G75*
G02*
X-29880000Y50925000I135000J0D01*
G01*
X-29610000Y50925000D01*
G75*
G02*
X-29475000Y50790000I0J-135000D01*
G01*
X-29475000Y50420000D01*
G75*
G02*
X-29610000Y50285000I-135000J0D01*
G01*
X-29880000Y50285000D01*
G75*
G02*
X-30015000Y50420000I0J135000D01*
G01*
G37*
G36*
G01*
X-28995000Y50420000D02*
X-28995000Y50790000D01*
G75*
G02*
X-28860000Y50925000I135000J0D01*
G01*
X-28590000Y50925000D01*
G75*
G02*
X-28455000Y50790000I0J-135000D01*
G01*
X-28455000Y50420000D01*
G75*
G02*
X-28590000Y50285000I-135000J0D01*
G01*
X-28860000Y50285000D01*
G75*
G02*
X-28995000Y50420000I0J135000D01*
G01*
G37*
G04 #@! TD*
G04 #@! TO.C,R13*
G36*
G01*
X-27105000Y52410000D02*
X-27105000Y52780000D01*
G75*
G02*
X-26970000Y52915000I135000J0D01*
G01*
X-26700000Y52915000D01*
G75*
G02*
X-26565000Y52780000I0J-135000D01*
G01*
X-26565000Y52410000D01*
G75*
G02*
X-26700000Y52275000I-135000J0D01*
G01*
X-26970000Y52275000D01*
G75*
G02*
X-27105000Y52410000I0J135000D01*
G01*
G37*
G36*
G01*
X-26085000Y52410000D02*
X-26085000Y52780000D01*
G75*
G02*
X-25950000Y52915000I135000J0D01*
G01*
X-25680000Y52915000D01*
G75*
G02*
X-25545000Y52780000I0J-135000D01*
G01*
X-25545000Y52410000D01*
G75*
G02*
X-25680000Y52275000I-135000J0D01*
G01*
X-25950000Y52275000D01*
G75*
G02*
X-26085000Y52410000I0J135000D01*
G01*
G37*
G04 #@! TD*
G04 #@! TO.C,U4*
G36*
G01*
X44320000Y76040000D02*
X43870000Y76040000D01*
G75*
G02*
X43795000Y76115000I0J75000D01*
G01*
X43795000Y77935000D01*
G75*
G02*
X43870000Y78010000I75000J0D01*
G01*
X44320000Y78010000D01*
G75*
G02*
X44395000Y77935000I0J-75000D01*
G01*
X44395000Y76115000D01*
G75*
G02*
X44320000Y76040000I-75000J0D01*
G01*
G37*
G36*
G01*
X45590000Y76040000D02*
X45140000Y76040000D01*
G75*
G02*
X45065000Y76115000I0J75000D01*
G01*
X45065000Y77935000D01*
G75*
G02*
X45140000Y78010000I75000J0D01*
G01*
X45590000Y78010000D01*
G75*
G02*
X45665000Y77935000I0J-75000D01*
G01*
X45665000Y76115000D01*
G75*
G02*
X45590000Y76040000I-75000J0D01*
G01*
G37*
G36*
G01*
X46860000Y76040000D02*
X46410000Y76040000D01*
G75*
G02*
X46335000Y76115000I0J75000D01*
G01*
X46335000Y77935000D01*
G75*
G02*
X46410000Y78010000I75000J0D01*
G01*
X46860000Y78010000D01*
G75*
G02*
X46935000Y77935000I0J-75000D01*
G01*
X46935000Y76115000D01*
G75*
G02*
X46860000Y76040000I-75000J0D01*
G01*
G37*
G36*
G01*
X48130000Y76040000D02*
X47680000Y76040000D01*
G75*
G02*
X47605000Y76115000I0J75000D01*
G01*
X47605000Y77935000D01*
G75*
G02*
X47680000Y78010000I75000J0D01*
G01*
X48130000Y78010000D01*
G75*
G02*
X48205000Y77935000I0J-75000D01*
G01*
X48205000Y76115000D01*
G75*
G02*
X48130000Y76040000I-75000J0D01*
G01*
G37*
G36*
G01*
X48130000Y80990000D02*
X47680000Y80990000D01*
G75*
G02*
X47605000Y81065000I0J75000D01*
G01*
X47605000Y82885000D01*
G75*
G02*
X47680000Y82960000I75000J0D01*
G01*
X48130000Y82960000D01*
G75*
G02*
X48205000Y82885000I0J-75000D01*
G01*
X48205000Y81065000D01*
G75*
G02*
X48130000Y80990000I-75000J0D01*
G01*
G37*
G36*
G01*
X46860000Y80990000D02*
X46410000Y80990000D01*
G75*
G02*
X46335000Y81065000I0J75000D01*
G01*
X46335000Y82885000D01*
G75*
G02*
X46410000Y82960000I75000J0D01*
G01*
X46860000Y82960000D01*
G75*
G02*
X46935000Y82885000I0J-75000D01*
G01*
X46935000Y81065000D01*
G75*
G02*
X46860000Y80990000I-75000J0D01*
G01*
G37*
G36*
G01*
X45590000Y80990000D02*
X45140000Y80990000D01*
G75*
G02*
X45065000Y81065000I0J75000D01*
G01*
X45065000Y82885000D01*
G75*
G02*
X45140000Y82960000I75000J0D01*
G01*
X45590000Y82960000D01*
G75*
G02*
X45665000Y82885000I0J-75000D01*
G01*
X45665000Y81065000D01*
G75*
G02*
X45590000Y80990000I-75000J0D01*
G01*
G37*
G36*
G01*
X44320000Y80990000D02*
X43870000Y80990000D01*
G75*
G02*
X43795000Y81065000I0J75000D01*
G01*
X43795000Y82885000D01*
G75*
G02*
X43870000Y82960000I75000J0D01*
G01*
X44320000Y82960000D01*
G75*
G02*
X44395000Y82885000I0J-75000D01*
G01*
X44395000Y81065000D01*
G75*
G02*
X44320000Y80990000I-75000J0D01*
G01*
G37*
G04 #@! TD*
G04 #@! TO.C,R12*
G36*
G01*
X-27105000Y54400000D02*
X-27105000Y54770000D01*
G75*
G02*
X-26970000Y54905000I135000J0D01*
G01*
X-26700000Y54905000D01*
G75*
G02*
X-26565000Y54770000I0J-135000D01*
G01*
X-26565000Y54400000D01*
G75*
G02*
X-26700000Y54265000I-135000J0D01*
G01*
X-26970000Y54265000D01*
G75*
G02*
X-27105000Y54400000I0J135000D01*
G01*
G37*
G36*
G01*
X-26085000Y54400000D02*
X-26085000Y54770000D01*
G75*
G02*
X-25950000Y54905000I135000J0D01*
G01*
X-25680000Y54905000D01*
G75*
G02*
X-25545000Y54770000I0J-135000D01*
G01*
X-25545000Y54400000D01*
G75*
G02*
X-25680000Y54265000I-135000J0D01*
G01*
X-25950000Y54265000D01*
G75*
G02*
X-26085000Y54400000I0J135000D01*
G01*
G37*
G04 #@! TD*
G04 #@! TO.C,D9*
G36*
G01*
X-64420000Y32070000D02*
X-64420000Y32820000D01*
G75*
G02*
X-64195000Y33045000I225000J0D01*
G01*
X-63745000Y33045000D01*
G75*
G02*
X-63520000Y32820000I0J-225000D01*
G01*
X-63520000Y32070000D01*
G75*
G02*
X-63745000Y31845000I-225000J0D01*
G01*
X-64195000Y31845000D01*
G75*
G02*
X-64420000Y32070000I0J225000D01*
G01*
G37*
G36*
G01*
X-61120000Y32070000D02*
X-61120000Y32820000D01*
G75*
G02*
X-60895000Y33045000I225000J0D01*
G01*
X-60445000Y33045000D01*
G75*
G02*
X-60220000Y32820000I0J-225000D01*
G01*
X-60220000Y32070000D01*
G75*
G02*
X-60445000Y31845000I-225000J0D01*
G01*
X-60895000Y31845000D01*
G75*
G02*
X-61120000Y32070000I0J225000D01*
G01*
G37*
G04 #@! TD*
G04 #@! TO.C,D7*
G36*
G01*
X-64420000Y38770000D02*
X-64420000Y39520000D01*
G75*
G02*
X-64195000Y39745000I225000J0D01*
G01*
X-63745000Y39745000D01*
G75*
G02*
X-63520000Y39520000I0J-225000D01*
G01*
X-63520000Y38770000D01*
G75*
G02*
X-63745000Y38545000I-225000J0D01*
G01*
X-64195000Y38545000D01*
G75*
G02*
X-64420000Y38770000I0J225000D01*
G01*
G37*
G36*
G01*
X-61120000Y38770000D02*
X-61120000Y39520000D01*
G75*
G02*
X-60895000Y39745000I225000J0D01*
G01*
X-60445000Y39745000D01*
G75*
G02*
X-60220000Y39520000I0J-225000D01*
G01*
X-60220000Y38770000D01*
G75*
G02*
X-60445000Y38545000I-225000J0D01*
G01*
X-60895000Y38545000D01*
G75*
G02*
X-61120000Y38770000I0J225000D01*
G01*
G37*
G04 #@! TD*
G04 #@! TO.C,R4*
G36*
G01*
X-32925000Y50420000D02*
X-32925000Y50790000D01*
G75*
G02*
X-32790000Y50925000I135000J0D01*
G01*
X-32520000Y50925000D01*
G75*
G02*
X-32385000Y50790000I0J-135000D01*
G01*
X-32385000Y50420000D01*
G75*
G02*
X-32520000Y50285000I-135000J0D01*
G01*
X-32790000Y50285000D01*
G75*
G02*
X-32925000Y50420000I0J135000D01*
G01*
G37*
G36*
G01*
X-31905000Y50420000D02*
X-31905000Y50790000D01*
G75*
G02*
X-31770000Y50925000I135000J0D01*
G01*
X-31500000Y50925000D01*
G75*
G02*
X-31365000Y50790000I0J-135000D01*
G01*
X-31365000Y50420000D01*
G75*
G02*
X-31500000Y50285000I-135000J0D01*
G01*
X-31770000Y50285000D01*
G75*
G02*
X-31905000Y50420000I0J135000D01*
G01*
G37*
G04 #@! TD*
G04 #@! TO.C,D3*
G36*
G01*
X-64420000Y48820000D02*
X-64420000Y49570000D01*
G75*
G02*
X-64195000Y49795000I225000J0D01*
G01*
X-63745000Y49795000D01*
G75*
G02*
X-63520000Y49570000I0J-225000D01*
G01*
X-63520000Y48820000D01*
G75*
G02*
X-63745000Y48595000I-225000J0D01*
G01*
X-64195000Y48595000D01*
G75*
G02*
X-64420000Y48820000I0J225000D01*
G01*
G37*
G36*
G01*
X-61120000Y48820000D02*
X-61120000Y49570000D01*
G75*
G02*
X-60895000Y49795000I225000J0D01*
G01*
X-60445000Y49795000D01*
G75*
G02*
X-60220000Y49570000I0J-225000D01*
G01*
X-60220000Y48820000D01*
G75*
G02*
X-60445000Y48595000I-225000J0D01*
G01*
X-60895000Y48595000D01*
G75*
G02*
X-61120000Y48820000I0J225000D01*
G01*
G37*
G04 #@! TD*
G04 #@! TO.C,D2*
G36*
G01*
X-64420000Y52170000D02*
X-64420000Y52920000D01*
G75*
G02*
X-64195000Y53145000I225000J0D01*
G01*
X-63745000Y53145000D01*
G75*
G02*
X-63520000Y52920000I0J-225000D01*
G01*
X-63520000Y52170000D01*
G75*
G02*
X-63745000Y51945000I-225000J0D01*
G01*
X-64195000Y51945000D01*
G75*
G02*
X-64420000Y52170000I0J225000D01*
G01*
G37*
G36*
G01*
X-61120000Y52170000D02*
X-61120000Y52920000D01*
G75*
G02*
X-60895000Y53145000I225000J0D01*
G01*
X-60445000Y53145000D01*
G75*
G02*
X-60220000Y52920000I0J-225000D01*
G01*
X-60220000Y52170000D01*
G75*
G02*
X-60445000Y51945000I-225000J0D01*
G01*
X-60895000Y51945000D01*
G75*
G02*
X-61120000Y52170000I0J225000D01*
G01*
G37*
G04 #@! TD*
G04 #@! TO.C,U3*
G36*
G01*
X28320000Y76040000D02*
X27870000Y76040000D01*
G75*
G02*
X27795000Y76115000I0J75000D01*
G01*
X27795000Y77935000D01*
G75*
G02*
X27870000Y78010000I75000J0D01*
G01*
X28320000Y78010000D01*
G75*
G02*
X28395000Y77935000I0J-75000D01*
G01*
X28395000Y76115000D01*
G75*
G02*
X28320000Y76040000I-75000J0D01*
G01*
G37*
G36*
G01*
X29590000Y76040000D02*
X29140000Y76040000D01*
G75*
G02*
X29065000Y76115000I0J75000D01*
G01*
X29065000Y77935000D01*
G75*
G02*
X29140000Y78010000I75000J0D01*
G01*
X29590000Y78010000D01*
G75*
G02*
X29665000Y77935000I0J-75000D01*
G01*
X29665000Y76115000D01*
G75*
G02*
X29590000Y76040000I-75000J0D01*
G01*
G37*
G36*
G01*
X30860000Y76040000D02*
X30410000Y76040000D01*
G75*
G02*
X30335000Y76115000I0J75000D01*
G01*
X30335000Y77935000D01*
G75*
G02*
X30410000Y78010000I75000J0D01*
G01*
X30860000Y78010000D01*
G75*
G02*
X30935000Y77935000I0J-75000D01*
G01*
X30935000Y76115000D01*
G75*
G02*
X30860000Y76040000I-75000J0D01*
G01*
G37*
G36*
G01*
X32130000Y76040000D02*
X31680000Y76040000D01*
G75*
G02*
X31605000Y76115000I0J75000D01*
G01*
X31605000Y77935000D01*
G75*
G02*
X31680000Y78010000I75000J0D01*
G01*
X32130000Y78010000D01*
G75*
G02*
X32205000Y77935000I0J-75000D01*
G01*
X32205000Y76115000D01*
G75*
G02*
X32130000Y76040000I-75000J0D01*
G01*
G37*
G36*
G01*
X32130000Y80990000D02*
X31680000Y80990000D01*
G75*
G02*
X31605000Y81065000I0J75000D01*
G01*
X31605000Y82885000D01*
G75*
G02*
X31680000Y82960000I75000J0D01*
G01*
X32130000Y82960000D01*
G75*
G02*
X32205000Y82885000I0J-75000D01*
G01*
X32205000Y81065000D01*
G75*
G02*
X32130000Y80990000I-75000J0D01*
G01*
G37*
G36*
G01*
X30860000Y80990000D02*
X30410000Y80990000D01*
G75*
G02*
X30335000Y81065000I0J75000D01*
G01*
X30335000Y82885000D01*
G75*
G02*
X30410000Y82960000I75000J0D01*
G01*
X30860000Y82960000D01*
G75*
G02*
X30935000Y82885000I0J-75000D01*
G01*
X30935000Y81065000D01*
G75*
G02*
X30860000Y80990000I-75000J0D01*
G01*
G37*
G36*
G01*
X29590000Y80990000D02*
X29140000Y80990000D01*
G75*
G02*
X29065000Y81065000I0J75000D01*
G01*
X29065000Y82885000D01*
G75*
G02*
X29140000Y82960000I75000J0D01*
G01*
X29590000Y82960000D01*
G75*
G02*
X29665000Y82885000I0J-75000D01*
G01*
X29665000Y81065000D01*
G75*
G02*
X29590000Y80990000I-75000J0D01*
G01*
G37*
G36*
G01*
X28320000Y80990000D02*
X27870000Y80990000D01*
G75*
G02*
X27795000Y81065000I0J75000D01*
G01*
X27795000Y82885000D01*
G75*
G02*
X27870000Y82960000I75000J0D01*
G01*
X28320000Y82960000D01*
G75*
G02*
X28395000Y82885000I0J-75000D01*
G01*
X28395000Y81065000D01*
G75*
G02*
X28320000Y80990000I-75000J0D01*
G01*
G37*
G04 #@! TD*
G04 #@! TO.C,D1*
G36*
G01*
X-64420000Y55520000D02*
X-64420000Y56270000D01*
G75*
G02*
X-64195000Y56495000I225000J0D01*
G01*
X-63745000Y56495000D01*
G75*
G02*
X-63520000Y56270000I0J-225000D01*
G01*
X-63520000Y55520000D01*
G75*
G02*
X-63745000Y55295000I-225000J0D01*
G01*
X-64195000Y55295000D01*
G75*
G02*
X-64420000Y55520000I0J225000D01*
G01*
G37*
G36*
G01*
X-61120000Y55520000D02*
X-61120000Y56270000D01*
G75*
G02*
X-60895000Y56495000I225000J0D01*
G01*
X-60445000Y56495000D01*
G75*
G02*
X-60220000Y56270000I0J-225000D01*
G01*
X-60220000Y55520000D01*
G75*
G02*
X-60445000Y55295000I-225000J0D01*
G01*
X-60895000Y55295000D01*
G75*
G02*
X-61120000Y55520000I0J225000D01*
G01*
G37*
G04 #@! TD*
G04 #@! TO.C,R5*
G36*
G01*
X-32925000Y48430000D02*
X-32925000Y48800000D01*
G75*
G02*
X-32790000Y48935000I135000J0D01*
G01*
X-32520000Y48935000D01*
G75*
G02*
X-32385000Y48800000I0J-135000D01*
G01*
X-32385000Y48430000D01*
G75*
G02*
X-32520000Y48295000I-135000J0D01*
G01*
X-32790000Y48295000D01*
G75*
G02*
X-32925000Y48430000I0J135000D01*
G01*
G37*
G36*
G01*
X-31905000Y48430000D02*
X-31905000Y48800000D01*
G75*
G02*
X-31770000Y48935000I135000J0D01*
G01*
X-31500000Y48935000D01*
G75*
G02*
X-31365000Y48800000I0J-135000D01*
G01*
X-31365000Y48430000D01*
G75*
G02*
X-31500000Y48295000I-135000J0D01*
G01*
X-31770000Y48295000D01*
G75*
G02*
X-31905000Y48430000I0J135000D01*
G01*
G37*
G04 #@! TD*
G04 #@! TO.C,D5*
G36*
G01*
X-27890000Y46032500D02*
X-27890000Y46257500D01*
G75*
G02*
X-27777500Y46370000I112500J0D01*
G01*
X-27402500Y46370000D01*
G75*
G02*
X-27290000Y46257500I0J-112500D01*
G01*
X-27290000Y46032500D01*
G75*
G02*
X-27402500Y45920000I-112500J0D01*
G01*
X-27777500Y45920000D01*
G75*
G02*
X-27890000Y46032500I0J112500D01*
G01*
G37*
G36*
G01*
X-25790000Y46032500D02*
X-25790000Y46257500D01*
G75*
G02*
X-25677500Y46370000I112500J0D01*
G01*
X-25302500Y46370000D01*
G75*
G02*
X-25190000Y46257500I0J-112500D01*
G01*
X-25190000Y46032500D01*
G75*
G02*
X-25302500Y45920000I-112500J0D01*
G01*
X-25677500Y45920000D01*
G75*
G02*
X-25790000Y46032500I0J112500D01*
G01*
G37*
G04 #@! TD*
G04 #@! TO.C,U5*
G36*
G01*
X1635000Y44065000D02*
X1185000Y44065000D01*
G75*
G02*
X1110000Y44140000I0J75000D01*
G01*
X1110000Y45960000D01*
G75*
G02*
X1185000Y46035000I75000J0D01*
G01*
X1635000Y46035000D01*
G75*
G02*
X1710000Y45960000I0J-75000D01*
G01*
X1710000Y44140000D01*
G75*
G02*
X1635000Y44065000I-75000J0D01*
G01*
G37*
G36*
G01*
X2905000Y44065000D02*
X2455000Y44065000D01*
G75*
G02*
X2380000Y44140000I0J75000D01*
G01*
X2380000Y45960000D01*
G75*
G02*
X2455000Y46035000I75000J0D01*
G01*
X2905000Y46035000D01*
G75*
G02*
X2980000Y45960000I0J-75000D01*
G01*
X2980000Y44140000D01*
G75*
G02*
X2905000Y44065000I-75000J0D01*
G01*
G37*
G36*
G01*
X4175000Y44065000D02*
X3725000Y44065000D01*
G75*
G02*
X3650000Y44140000I0J75000D01*
G01*
X3650000Y45960000D01*
G75*
G02*
X3725000Y46035000I75000J0D01*
G01*
X4175000Y46035000D01*
G75*
G02*
X4250000Y45960000I0J-75000D01*
G01*
X4250000Y44140000D01*
G75*
G02*
X4175000Y44065000I-75000J0D01*
G01*
G37*
G36*
G01*
X5445000Y44065000D02*
X4995000Y44065000D01*
G75*
G02*
X4920000Y44140000I0J75000D01*
G01*
X4920000Y45960000D01*
G75*
G02*
X4995000Y46035000I75000J0D01*
G01*
X5445000Y46035000D01*
G75*
G02*
X5520000Y45960000I0J-75000D01*
G01*
X5520000Y44140000D01*
G75*
G02*
X5445000Y44065000I-75000J0D01*
G01*
G37*
G36*
G01*
X5445000Y49015000D02*
X4995000Y49015000D01*
G75*
G02*
X4920000Y49090000I0J75000D01*
G01*
X4920000Y50910000D01*
G75*
G02*
X4995000Y50985000I75000J0D01*
G01*
X5445000Y50985000D01*
G75*
G02*
X5520000Y50910000I0J-75000D01*
G01*
X5520000Y49090000D01*
G75*
G02*
X5445000Y49015000I-75000J0D01*
G01*
G37*
G36*
G01*
X4175000Y49015000D02*
X3725000Y49015000D01*
G75*
G02*
X3650000Y49090000I0J75000D01*
G01*
X3650000Y50910000D01*
G75*
G02*
X3725000Y50985000I75000J0D01*
G01*
X4175000Y50985000D01*
G75*
G02*
X4250000Y50910000I0J-75000D01*
G01*
X4250000Y49090000D01*
G75*
G02*
X4175000Y49015000I-75000J0D01*
G01*
G37*
G36*
G01*
X2905000Y49015000D02*
X2455000Y49015000D01*
G75*
G02*
X2380000Y49090000I0J75000D01*
G01*
X2380000Y50910000D01*
G75*
G02*
X2455000Y50985000I75000J0D01*
G01*
X2905000Y50985000D01*
G75*
G02*
X2980000Y50910000I0J-75000D01*
G01*
X2980000Y49090000D01*
G75*
G02*
X2905000Y49015000I-75000J0D01*
G01*
G37*
G36*
G01*
X1635000Y49015000D02*
X1185000Y49015000D01*
G75*
G02*
X1110000Y49090000I0J75000D01*
G01*
X1110000Y50910000D01*
G75*
G02*
X1185000Y50985000I75000J0D01*
G01*
X1635000Y50985000D01*
G75*
G02*
X1710000Y50910000I0J-75000D01*
G01*
X1710000Y49090000D01*
G75*
G02*
X1635000Y49015000I-75000J0D01*
G01*
G37*
G04 #@! TD*
G04 #@! TO.C,D6*
G36*
G01*
X-64420000Y42120000D02*
X-64420000Y42870000D01*
G75*
G02*
X-64195000Y43095000I225000J0D01*
G01*
X-63745000Y43095000D01*
G75*
G02*
X-63520000Y42870000I0J-225000D01*
G01*
X-63520000Y42120000D01*
G75*
G02*
X-63745000Y41895000I-225000J0D01*
G01*
X-64195000Y41895000D01*
G75*
G02*
X-64420000Y42120000I0J225000D01*
G01*
G37*
G36*
G01*
X-61120000Y42120000D02*
X-61120000Y42870000D01*
G75*
G02*
X-60895000Y43095000I225000J0D01*
G01*
X-60445000Y43095000D01*
G75*
G02*
X-60220000Y42870000I0J-225000D01*
G01*
X-60220000Y42120000D01*
G75*
G02*
X-60445000Y41895000I-225000J0D01*
G01*
X-60895000Y41895000D01*
G75*
G02*
X-61120000Y42120000I0J225000D01*
G01*
G37*
G04 #@! TD*
G04 #@! TO.C,R1*
G36*
G01*
X-32925000Y56390000D02*
X-32925000Y56760000D01*
G75*
G02*
X-32790000Y56895000I135000J0D01*
G01*
X-32520000Y56895000D01*
G75*
G02*
X-32385000Y56760000I0J-135000D01*
G01*
X-32385000Y56390000D01*
G75*
G02*
X-32520000Y56255000I-135000J0D01*
G01*
X-32790000Y56255000D01*
G75*
G02*
X-32925000Y56390000I0J135000D01*
G01*
G37*
G36*
G01*
X-31905000Y56390000D02*
X-31905000Y56760000D01*
G75*
G02*
X-31770000Y56895000I135000J0D01*
G01*
X-31500000Y56895000D01*
G75*
G02*
X-31365000Y56760000I0J-135000D01*
G01*
X-31365000Y56390000D01*
G75*
G02*
X-31500000Y56255000I-135000J0D01*
G01*
X-31770000Y56255000D01*
G75*
G02*
X-31905000Y56390000I0J135000D01*
G01*
G37*
G04 #@! TD*
G04 #@! TO.C,R3*
G36*
G01*
X-32925000Y52410000D02*
X-32925000Y52780000D01*
G75*
G02*
X-32790000Y52915000I135000J0D01*
G01*
X-32520000Y52915000D01*
G75*
G02*
X-32385000Y52780000I0J-135000D01*
G01*
X-32385000Y52410000D01*
G75*
G02*
X-32520000Y52275000I-135000J0D01*
G01*
X-32790000Y52275000D01*
G75*
G02*
X-32925000Y52410000I0J135000D01*
G01*
G37*
G36*
G01*
X-31905000Y52410000D02*
X-31905000Y52780000D01*
G75*
G02*
X-31770000Y52915000I135000J0D01*
G01*
X-31500000Y52915000D01*
G75*
G02*
X-31365000Y52780000I0J-135000D01*
G01*
X-31365000Y52410000D01*
G75*
G02*
X-31500000Y52275000I-135000J0D01*
G01*
X-31770000Y52275000D01*
G75*
G02*
X-31905000Y52410000I0J135000D01*
G01*
G37*
G04 #@! TD*
G04 #@! TO.C,R10*
G36*
G01*
X-30015000Y48430000D02*
X-30015000Y48800000D01*
G75*
G02*
X-29880000Y48935000I135000J0D01*
G01*
X-29610000Y48935000D01*
G75*
G02*
X-29475000Y48800000I0J-135000D01*
G01*
X-29475000Y48430000D01*
G75*
G02*
X-29610000Y48295000I-135000J0D01*
G01*
X-29880000Y48295000D01*
G75*
G02*
X-30015000Y48430000I0J135000D01*
G01*
G37*
G36*
G01*
X-28995000Y48430000D02*
X-28995000Y48800000D01*
G75*
G02*
X-28860000Y48935000I135000J0D01*
G01*
X-28590000Y48935000D01*
G75*
G02*
X-28455000Y48800000I0J-135000D01*
G01*
X-28455000Y48430000D01*
G75*
G02*
X-28590000Y48295000I-135000J0D01*
G01*
X-28860000Y48295000D01*
G75*
G02*
X-28995000Y48430000I0J135000D01*
G01*
G37*
G04 #@! TD*
G04 #@! TO.C,U6*
G36*
G01*
X8185000Y44065000D02*
X7735000Y44065000D01*
G75*
G02*
X7660000Y44140000I0J75000D01*
G01*
X7660000Y45960000D01*
G75*
G02*
X7735000Y46035000I75000J0D01*
G01*
X8185000Y46035000D01*
G75*
G02*
X8260000Y45960000I0J-75000D01*
G01*
X8260000Y44140000D01*
G75*
G02*
X8185000Y44065000I-75000J0D01*
G01*
G37*
G36*
G01*
X9455000Y44065000D02*
X9005000Y44065000D01*
G75*
G02*
X8930000Y44140000I0J75000D01*
G01*
X8930000Y45960000D01*
G75*
G02*
X9005000Y46035000I75000J0D01*
G01*
X9455000Y46035000D01*
G75*
G02*
X9530000Y45960000I0J-75000D01*
G01*
X9530000Y44140000D01*
G75*
G02*
X9455000Y44065000I-75000J0D01*
G01*
G37*
G36*
G01*
X10725000Y44065000D02*
X10275000Y44065000D01*
G75*
G02*
X10200000Y44140000I0J75000D01*
G01*
X10200000Y45960000D01*
G75*
G02*
X10275000Y46035000I75000J0D01*
G01*
X10725000Y46035000D01*
G75*
G02*
X10800000Y45960000I0J-75000D01*
G01*
X10800000Y44140000D01*
G75*
G02*
X10725000Y44065000I-75000J0D01*
G01*
G37*
G36*
G01*
X11995000Y44065000D02*
X11545000Y44065000D01*
G75*
G02*
X11470000Y44140000I0J75000D01*
G01*
X11470000Y45960000D01*
G75*
G02*
X11545000Y46035000I75000J0D01*
G01*
X11995000Y46035000D01*
G75*
G02*
X12070000Y45960000I0J-75000D01*
G01*
X12070000Y44140000D01*
G75*
G02*
X11995000Y44065000I-75000J0D01*
G01*
G37*
G36*
G01*
X11995000Y49015000D02*
X11545000Y49015000D01*
G75*
G02*
X11470000Y49090000I0J75000D01*
G01*
X11470000Y50910000D01*
G75*
G02*
X11545000Y50985000I75000J0D01*
G01*
X11995000Y50985000D01*
G75*
G02*
X12070000Y50910000I0J-75000D01*
G01*
X12070000Y49090000D01*
G75*
G02*
X11995000Y49015000I-75000J0D01*
G01*
G37*
G36*
G01*
X10725000Y49015000D02*
X10275000Y49015000D01*
G75*
G02*
X10200000Y49090000I0J75000D01*
G01*
X10200000Y50910000D01*
G75*
G02*
X10275000Y50985000I75000J0D01*
G01*
X10725000Y50985000D01*
G75*
G02*
X10800000Y50910000I0J-75000D01*
G01*
X10800000Y49090000D01*
G75*
G02*
X10725000Y49015000I-75000J0D01*
G01*
G37*
G36*
G01*
X9455000Y49015000D02*
X9005000Y49015000D01*
G75*
G02*
X8930000Y49090000I0J75000D01*
G01*
X8930000Y50910000D01*
G75*
G02*
X9005000Y50985000I75000J0D01*
G01*
X9455000Y50985000D01*
G75*
G02*
X9530000Y50910000I0J-75000D01*
G01*
X9530000Y49090000D01*
G75*
G02*
X9455000Y49015000I-75000J0D01*
G01*
G37*
G36*
G01*
X8185000Y49015000D02*
X7735000Y49015000D01*
G75*
G02*
X7660000Y49090000I0J75000D01*
G01*
X7660000Y50910000D01*
G75*
G02*
X7735000Y50985000I75000J0D01*
G01*
X8185000Y50985000D01*
G75*
G02*
X8260000Y50910000I0J-75000D01*
G01*
X8260000Y49090000D01*
G75*
G02*
X8185000Y49015000I-75000J0D01*
G01*
G37*
G04 #@! TD*
G04 #@! TO.C,R7*
G36*
G01*
X-30015000Y54400000D02*
X-30015000Y54770000D01*
G75*
G02*
X-29880000Y54905000I135000J0D01*
G01*
X-29610000Y54905000D01*
G75*
G02*
X-29475000Y54770000I0J-135000D01*
G01*
X-29475000Y54400000D01*
G75*
G02*
X-29610000Y54265000I-135000J0D01*
G01*
X-29880000Y54265000D01*
G75*
G02*
X-30015000Y54400000I0J135000D01*
G01*
G37*
G36*
G01*
X-28995000Y54400000D02*
X-28995000Y54770000D01*
G75*
G02*
X-28860000Y54905000I135000J0D01*
G01*
X-28590000Y54905000D01*
G75*
G02*
X-28455000Y54770000I0J-135000D01*
G01*
X-28455000Y54400000D01*
G75*
G02*
X-28590000Y54265000I-135000J0D01*
G01*
X-28860000Y54265000D01*
G75*
G02*
X-28995000Y54400000I0J135000D01*
G01*
G37*
G04 #@! TD*
G04 #@! TO.C,U2*
G36*
G01*
X-9015000Y60175000D02*
X-9015000Y59725000D01*
G75*
G02*
X-9090000Y59650000I-75000J0D01*
G01*
X-10910000Y59650000D01*
G75*
G02*
X-10985000Y59725000I0J75000D01*
G01*
X-10985000Y60175000D01*
G75*
G02*
X-10910000Y60250000I75000J0D01*
G01*
X-9090000Y60250000D01*
G75*
G02*
X-9015000Y60175000I0J-75000D01*
G01*
G37*
G36*
G01*
X-9015000Y61445000D02*
X-9015000Y60995000D01*
G75*
G02*
X-9090000Y60920000I-75000J0D01*
G01*
X-10910000Y60920000D01*
G75*
G02*
X-10985000Y60995000I0J75000D01*
G01*
X-10985000Y61445000D01*
G75*
G02*
X-10910000Y61520000I75000J0D01*
G01*
X-9090000Y61520000D01*
G75*
G02*
X-9015000Y61445000I0J-75000D01*
G01*
G37*
G36*
G01*
X-9015000Y62715000D02*
X-9015000Y62265000D01*
G75*
G02*
X-9090000Y62190000I-75000J0D01*
G01*
X-10910000Y62190000D01*
G75*
G02*
X-10985000Y62265000I0J75000D01*
G01*
X-10985000Y62715000D01*
G75*
G02*
X-10910000Y62790000I75000J0D01*
G01*
X-9090000Y62790000D01*
G75*
G02*
X-9015000Y62715000I0J-75000D01*
G01*
G37*
G36*
G01*
X-9015000Y63985000D02*
X-9015000Y63535000D01*
G75*
G02*
X-9090000Y63460000I-75000J0D01*
G01*
X-10910000Y63460000D01*
G75*
G02*
X-10985000Y63535000I0J75000D01*
G01*
X-10985000Y63985000D01*
G75*
G02*
X-10910000Y64060000I75000J0D01*
G01*
X-9090000Y64060000D01*
G75*
G02*
X-9015000Y63985000I0J-75000D01*
G01*
G37*
G36*
G01*
X-13965000Y63985000D02*
X-13965000Y63535000D01*
G75*
G02*
X-14040000Y63460000I-75000J0D01*
G01*
X-15860000Y63460000D01*
G75*
G02*
X-15935000Y63535000I0J75000D01*
G01*
X-15935000Y63985000D01*
G75*
G02*
X-15860000Y64060000I75000J0D01*
G01*
X-14040000Y64060000D01*
G75*
G02*
X-13965000Y63985000I0J-75000D01*
G01*
G37*
G36*
G01*
X-13965000Y62715000D02*
X-13965000Y62265000D01*
G75*
G02*
X-14040000Y62190000I-75000J0D01*
G01*
X-15860000Y62190000D01*
G75*
G02*
X-15935000Y62265000I0J75000D01*
G01*
X-15935000Y62715000D01*
G75*
G02*
X-15860000Y62790000I75000J0D01*
G01*
X-14040000Y62790000D01*
G75*
G02*
X-13965000Y62715000I0J-75000D01*
G01*
G37*
G36*
G01*
X-13965000Y61445000D02*
X-13965000Y60995000D01*
G75*
G02*
X-14040000Y60920000I-75000J0D01*
G01*
X-15860000Y60920000D01*
G75*
G02*
X-15935000Y60995000I0J75000D01*
G01*
X-15935000Y61445000D01*
G75*
G02*
X-15860000Y61520000I75000J0D01*
G01*
X-14040000Y61520000D01*
G75*
G02*
X-13965000Y61445000I0J-75000D01*
G01*
G37*
G36*
G01*
X-13965000Y60175000D02*
X-13965000Y59725000D01*
G75*
G02*
X-14040000Y59650000I-75000J0D01*
G01*
X-15860000Y59650000D01*
G75*
G02*
X-15935000Y59725000I0J75000D01*
G01*
X-15935000Y60175000D01*
G75*
G02*
X-15860000Y60250000I75000J0D01*
G01*
X-14040000Y60250000D01*
G75*
G02*
X-13965000Y60175000I0J-75000D01*
G01*
G37*
G04 #@! TD*
G04 #@! TO.C,D4*
G36*
G01*
X-64420000Y45470000D02*
X-64420000Y46220000D01*
G75*
G02*
X-64195000Y46445000I225000J0D01*
G01*
X-63745000Y46445000D01*
G75*
G02*
X-63520000Y46220000I0J-225000D01*
G01*
X-63520000Y45470000D01*
G75*
G02*
X-63745000Y45245000I-225000J0D01*
G01*
X-64195000Y45245000D01*
G75*
G02*
X-64420000Y45470000I0J225000D01*
G01*
G37*
G36*
G01*
X-61120000Y45470000D02*
X-61120000Y46220000D01*
G75*
G02*
X-60895000Y46445000I225000J0D01*
G01*
X-60445000Y46445000D01*
G75*
G02*
X-60220000Y46220000I0J-225000D01*
G01*
X-60220000Y45470000D01*
G75*
G02*
X-60445000Y45245000I-225000J0D01*
G01*
X-60895000Y45245000D01*
G75*
G02*
X-61120000Y45470000I0J225000D01*
G01*
G37*
G04 #@! TD*
G04 #@! TO.C,D8*
G36*
G01*
X-64420000Y35420000D02*
X-64420000Y36170000D01*
G75*
G02*
X-64195000Y36395000I225000J0D01*
G01*
X-63745000Y36395000D01*
G75*
G02*
X-63520000Y36170000I0J-225000D01*
G01*
X-63520000Y35420000D01*
G75*
G02*
X-63745000Y35195000I-225000J0D01*
G01*
X-64195000Y35195000D01*
G75*
G02*
X-64420000Y35420000I0J225000D01*
G01*
G37*
G36*
G01*
X-61120000Y35420000D02*
X-61120000Y36170000D01*
G75*
G02*
X-60895000Y36395000I225000J0D01*
G01*
X-60445000Y36395000D01*
G75*
G02*
X-60220000Y36170000I0J-225000D01*
G01*
X-60220000Y35420000D01*
G75*
G02*
X-60445000Y35195000I-225000J0D01*
G01*
X-60895000Y35195000D01*
G75*
G02*
X-61120000Y35420000I0J225000D01*
G01*
G37*
G04 #@! TD*
M02*
