G04 #@! TF.GenerationSoftware,KiCad,Pcbnew,8.0.9-8.0.9-0~ubuntu24.04.1*
G04 #@! TF.CreationDate,2026-03-30T23:48:31+00:00*
G04 #@! TF.ProjectId,EP91Starlet,45503931-5374-4617-926c-65742e6b6963,rev?*
G04 #@! TF.SameCoordinates,Original*
G04 #@! TF.FileFunction,Legend,Bot*
G04 #@! TF.FilePolarity,Positive*
%FSLAX46Y46*%
G04 Gerber Fmt 4.6, Leading zero omitted, Abs format (unit mm)*
G04 Created by KiCad (PCBNEW 8.0.9-8.0.9-0~ubuntu24.04.1) date 2026-03-30 23:48:31*
%MOMM*%
%LPD*%
G01*
G04 APERTURE LIST*
%ADD10C,0.200000*%
G04 APERTURE END LIST*
D10*
G04 #@! TO.C,M2*
X71325000Y81475000D02*
X71325000Y66475000D01*
X71325000Y81475000D02*
X72625000Y81475000D01*
X71325000Y66475000D02*
X76425000Y66475000D01*
X80925000Y81475000D02*
X74525000Y81475000D01*
X80925000Y67075000D02*
X80925000Y81475000D01*
G04 #@! TO.C,M3*
X81700000Y81475000D02*
X81700000Y66475000D01*
X81700000Y81475000D02*
X83000000Y81475000D01*
X81700000Y66475000D02*
X86800000Y66475000D01*
X91300000Y81475000D02*
X84900000Y81475000D01*
X91300000Y67075000D02*
X91300000Y81475000D01*
G04 #@! TO.C,M1*
X24699991Y72199998D02*
X65499994Y72199998D01*
X24699991Y32299999D02*
X24699991Y72199998D01*
X24699991Y32299999D02*
X66799991Y32299999D01*
X65499994Y72199998D02*
X66799994Y72199998D01*
X66799991Y32299999D02*
X66799994Y72199998D01*
G04 #@! TO.C,M6*
X-37900000Y72600003D02*
X-28800000Y72600003D01*
X-37900000Y69500000D02*
X-37900000Y70500002D01*
X-37900000Y69500000D02*
X-28800000Y69500000D01*
G04 #@! TO.C,M5*
X81475000Y60825000D02*
X95275000Y60825000D01*
X95275000Y36425000D01*
X81475000Y36425000D01*
X81475000Y60825000D01*
G04 #@! TO.C,M4*
X9600002Y19000000D02*
X9600002Y22200003D01*
X9600002Y6900000D02*
X9600002Y17300002D01*
X9600002Y5000000D02*
X9600002Y5300000D01*
X9600002Y5000000D02*
X25000002Y5000000D01*
X11100002Y25599998D02*
X26400001Y25600000D01*
X26399999Y18900002D02*
X26399999Y23700002D01*
X26399999Y12700000D02*
X26399999Y15400000D01*
X26399999Y10000002D02*
X26399999Y11100005D01*
X26399999Y6450000D02*
X26400004Y8000000D01*
X26400001Y25300002D02*
X26400001Y25600000D01*
G04 #@! TD*
M02*
