M48
; DRILL file {KiCad 8.0.9-8.0.9-0~ubuntu24.04.1} date 2026-03-20T10:57:59+0000
; FORMAT={2:4/ absolute / inch / suppress leading zeros}
; #@! TF.CreationDate,2026-03-20T10:57:59+00:00
; #@! TF.GenerationSoftware,Kicad,Pcbnew,8.0.9-8.0.9-0~ubuntu24.04.1
; #@! TF.FileFunction,MixedPlating,1,4
FMAT,2
INCH,TZ
; #@! TA.AperFunction,Plated,PTH,ComponentDrill
T1C0.0118
; #@! TA.AperFunction,Plated,PTH,ComponentDrill
T2C0.0394
; #@! TA.AperFunction,Plated,PTH,ComponentDrill
T3C0.0433
; #@! TA.AperFunction,Plated,PTH,ComponentDrill
T4C0.1378
%
G90
G05
T1
X-1208Y24745
X-1208Y24351
X-1208Y35139
X-1208Y34745
X-1208Y34351
X-1208Y33957
X-1208Y33564
X-1208Y33170
X-1208Y29627
X-1208Y38918
X-1208Y32776
X-1208Y32383
X-1208Y31989
X-1208Y31595
X-1208Y31202
X-1208Y30808
X-1208Y30414
X-1208Y30020
X-1208Y27265
X-1106Y22048
X-1106Y21654
X-1106Y21261
X-1106Y20363
X-1106Y19963
X-1051Y23367
X-106Y23367
X367Y23367
X839Y23367
X1154Y38918
X1311Y23367
X1469Y38918
X1784Y38918
X1784Y23367
X2256Y23367
X2729Y23367
X3201Y23367
X3674Y23367
X4146Y23367
X4619Y23367
X4855Y38918
X5091Y23367
X5170Y38918
X5485Y38918
X5563Y23367
X5800Y38918
X6036Y23367
X6115Y38918
X6508Y23367
X6981Y23367
X7453Y23367
X7926Y23367
X8280Y38918
X8398Y23367
X8595Y38918
X8870Y23367
X8910Y38918
X9225Y38918
X9343Y23367
X9363Y19036
X9363Y18643
X9363Y18249
X9363Y17855
X9540Y38918
X9815Y23367
X9855Y38918
X10170Y38918
X10288Y23367
X10485Y38918
X10760Y23367
X10800Y38918
X11115Y38918
X11233Y23367
X11430Y38918
X11705Y23367
X11745Y38918
X12059Y38918
X12178Y23367
X12374Y38918
X12650Y23367
X12689Y38918
X13004Y38918
X13083Y23367
X13319Y38918
X13556Y23367
X13634Y38918
X13949Y38918
X14028Y23367
X14264Y38918
X14500Y23367
X14579Y38918
X14894Y38918
X14973Y23367
X15209Y36320
X15209Y36005
X15209Y34430
X15209Y34115
X15209Y33800
X15209Y32540
X15209Y32225
X15209Y28761
X15209Y24548
X15209Y38918
X15209Y37894
X15209Y37580
X15209Y37265
X15209Y36950
X15209Y36635
X15209Y35690
X15209Y35375
X15209Y35060
X15209Y34745
X15209Y33485
X15209Y33170
X15209Y32855
X15209Y31910
X15209Y31595
X15209Y31280
X15209Y30965
X15209Y30650
X15209Y30335
X15209Y30020
X15209Y29706
X15209Y29391
X15209Y29076
X15209Y28446
X15209Y28131
X15209Y27816
X15209Y27501
X15209Y27186
X15209Y24233
X15967Y36296
X15967Y35902
X15967Y31946
X15967Y31552
X16646Y16379
X16646Y15985
X21646Y38839
X21646Y38367
X21646Y37894
X21646Y37422
X21646Y34489
X21646Y34017
X21646Y33544
X21646Y33072
T2
X2414Y12304
X2414Y11304
X3414Y12304
X3414Y11304
X4414Y12304
X4414Y11304
X5414Y12304
X5414Y11304
X6414Y12304
X6414Y11304
X7414Y12304
X7414Y11304
X8414Y12304
X8414Y11304
X9414Y12304
X9414Y11304
X10367Y22461
X10367Y21733
X10367Y19784
X10367Y15040
X10414Y12304
X10414Y11304
X11414Y12304
X11414Y11304
X12414Y12304
X12414Y11304
X13414Y12304
X13414Y11304
X14414Y12304
X14414Y11304
X15414Y12304
X15414Y11304
X16414Y12304
X16414Y11304
X16469Y22284
X16469Y19765
X16469Y19017
X16469Y17324
X16469Y14863
T3
X-2429Y44784
X-2429Y43013
X-1248Y44784
X-1248Y43013
X-67Y44784
X-67Y43013
X1115Y44784
X1115Y43013
X2296Y44784
X2296Y43013
X3477Y44784
X3477Y43013
X4658Y44784
X4658Y43013
X5839Y44784
X5839Y43013
X8182Y44784
X8201Y43013
X9559Y44784
X9559Y43013
X10780Y44784
X10780Y43013
X11961Y44784
X11961Y43013
X13142Y44784
X13142Y43013
X14323Y44784
X14323Y43013
X15504Y44784
X15504Y43013
X16685Y44784
X16685Y43013
X17867Y44784
X17867Y43013
X19048Y44784
X19048Y43013
X20268Y44784
X20268Y43013
X21646Y44784
X21646Y43013
X23024Y44784
X23024Y43013
T4
X-2586Y47028
X6961Y47028
X23280Y47028
M30
