G75*
G70*
%OFA0B0*%
%FSLAX25Y25*%
%IPPOS*%
%LPD*%
%AMOC8*
5,1,8,0,0,1.08239X$1,22.5*
%
%AMM17*
21,1,0.039370,0.030320,0.000000,0.000000,90.000000*
21,1,0.028350,0.041340,0.000000,0.000000,90.000000*
1,1,0.011020,0.015160,0.014170*
1,1,0.011020,0.015160,-0.014170*
1,1,0.011020,-0.015160,-0.014170*
1,1,0.011020,-0.015160,0.014170*
%
%AMM183*
21,1,0.041340,0.026770,0.000000,-0.000000,270.000000*
21,1,0.029130,0.038980,0.000000,-0.000000,270.000000*
1,1,0.012210,-0.013390,-0.014570*
1,1,0.012210,-0.013390,0.014570*
1,1,0.012210,0.013390,0.014570*
1,1,0.012210,0.013390,-0.014570*
%
%AMM184*
21,1,0.076380,0.036220,0.000000,-0.000000,0.000000*
21,1,0.061810,0.050790,0.000000,-0.000000,0.000000*
1,1,0.014570,0.030910,-0.018110*
1,1,0.014570,-0.030910,-0.018110*
1,1,0.014570,-0.030910,0.018110*
1,1,0.014570,0.030910,0.018110*
%
%AMM187*
21,1,0.029130,0.018900,0.000000,-0.000000,0.000000*
21,1,0.018900,0.029130,0.000000,-0.000000,0.000000*
1,1,0.010240,0.009450,-0.009450*
1,1,0.010240,-0.009450,-0.009450*
1,1,0.010240,-0.009450,0.009450*
1,1,0.010240,0.009450,0.009450*
%
%AMM188*
21,1,0.025200,0.019680,0.000000,-0.000000,270.000000*
21,1,0.015750,0.029130,0.000000,-0.000000,270.000000*
1,1,0.009450,-0.009840,-0.007870*
1,1,0.009450,-0.009840,0.007870*
1,1,0.009450,0.009840,0.007870*
1,1,0.009450,0.009840,-0.007870*
%
%AMM189*
21,1,0.025200,0.019680,0.000000,-0.000000,180.000000*
21,1,0.015750,0.029130,0.000000,-0.000000,180.000000*
1,1,0.009450,-0.007870,0.009840*
1,1,0.009450,0.007870,0.009840*
1,1,0.009450,0.007870,-0.009840*
1,1,0.009450,-0.007870,-0.009840*
%
%AMM195*
21,1,0.029130,0.018900,0.000000,-0.000000,270.000000*
21,1,0.018900,0.029130,0.000000,-0.000000,270.000000*
1,1,0.010240,-0.009450,-0.009450*
1,1,0.010240,-0.009450,0.009450*
1,1,0.010240,0.009450,0.009450*
1,1,0.010240,0.009450,-0.009450*
%
%AMM196*
21,1,0.111810,0.050390,0.000000,-0.000000,0.000000*
21,1,0.093700,0.068500,0.000000,-0.000000,0.000000*
1,1,0.018110,0.046850,-0.025200*
1,1,0.018110,-0.046850,-0.025200*
1,1,0.018110,-0.046850,0.025200*
1,1,0.018110,0.046850,0.025200*
%
%AMM197*
21,1,0.038980,0.026770,0.000000,-0.000000,180.000000*
21,1,0.026770,0.038980,0.000000,-0.000000,180.000000*
1,1,0.012210,-0.013390,0.013390*
1,1,0.012210,0.013390,0.013390*
1,1,0.012210,0.013390,-0.013390*
1,1,0.012210,-0.013390,-0.013390*
%
%AMM198*
21,1,0.127560,0.075590,0.000000,-0.000000,90.000000*
21,1,0.103150,0.100000,0.000000,-0.000000,90.000000*
1,1,0.024410,0.037800,0.051580*
1,1,0.024410,0.037800,-0.051580*
1,1,0.024410,-0.037800,-0.051580*
1,1,0.024410,-0.037800,0.051580*
%
%AMM199*
21,1,0.123620,0.083460,0.000000,-0.000000,270.000000*
21,1,0.097240,0.109840,0.000000,-0.000000,270.000000*
1,1,0.026380,-0.041730,-0.048620*
1,1,0.026380,-0.041730,0.048620*
1,1,0.026380,0.041730,0.048620*
1,1,0.026380,0.041730,-0.048620*
%
%AMM23*
21,1,0.031500,0.018900,0.000000,0.000000,180.000000*
21,1,0.022840,0.027560,0.000000,0.000000,180.000000*
1,1,0.008660,-0.011420,0.009450*
1,1,0.008660,0.011420,0.009450*
1,1,0.008660,0.011420,-0.009450*
1,1,0.008660,-0.011420,-0.009450*
%
%AMM26*
21,1,0.029530,0.026380,0.000000,0.000000,90.000000*
21,1,0.020470,0.035430,0.000000,0.000000,90.000000*
1,1,0.009060,0.013190,0.010240*
1,1,0.009060,0.013190,-0.010240*
1,1,0.009060,-0.013190,-0.010240*
1,1,0.009060,-0.013190,0.010240*
%
%AMM27*
21,1,0.021650,0.027950,0.000000,0.000000,90.000000*
21,1,0.014170,0.035430,0.000000,0.000000,90.000000*
1,1,0.007480,0.013980,0.007090*
1,1,0.007480,0.013980,-0.007090*
1,1,0.007480,-0.013980,-0.007090*
1,1,0.007480,-0.013980,0.007090*
%
%AMM29*
21,1,0.016540,0.028980,0.000000,0.000000,90.000000*
21,1,0.010080,0.035430,0.000000,0.000000,90.000000*
1,1,0.006460,0.014490,0.005040*
1,1,0.006460,0.014490,-0.005040*
1,1,0.006460,-0.014490,-0.005040*
1,1,0.006460,-0.014490,0.005040*
%
%AMM32*
21,1,0.031500,0.018900,0.000000,0.000000,90.000000*
21,1,0.022840,0.027560,0.000000,0.000000,90.000000*
1,1,0.008660,0.009450,0.011420*
1,1,0.008660,0.009450,-0.011420*
1,1,0.008660,-0.009450,-0.011420*
1,1,0.008660,-0.009450,0.011420*
%
%AMM45*
21,1,0.037400,0.026770,0.000000,0.000000,180.000000*
21,1,0.026770,0.037400,0.000000,0.000000,180.000000*
1,1,0.010630,-0.013390,0.013390*
1,1,0.010630,0.013390,0.013390*
1,1,0.010630,0.013390,-0.013390*
1,1,0.010630,-0.013390,-0.013390*
%
%AMM46*
21,1,0.039370,0.030320,0.000000,0.000000,180.000000*
21,1,0.028350,0.041340,0.000000,0.000000,180.000000*
1,1,0.011020,-0.014170,0.015160*
1,1,0.011020,0.014170,0.015160*
1,1,0.011020,0.014170,-0.015160*
1,1,0.011020,-0.014170,-0.015160*
%
%AMM47*
21,1,0.039760,0.026770,0.000000,0.000000,0.000000*
21,1,0.029130,0.037400,0.000000,0.000000,0.000000*
1,1,0.010630,0.014570,-0.013390*
1,1,0.010630,-0.014570,-0.013390*
1,1,0.010630,-0.014570,0.013390*
1,1,0.010630,0.014570,0.013390*
%
%AMM48*
21,1,0.074800,0.036220,0.000000,0.000000,0.000000*
21,1,0.061810,0.049210,0.000000,0.000000,0.000000*
1,1,0.012990,0.030910,-0.018110*
1,1,0.012990,-0.030910,-0.018110*
1,1,0.012990,-0.030910,0.018110*
1,1,0.012990,0.030910,0.018110*
%
%AMM49*
21,1,0.062990,0.020470,0.000000,0.000000,90.000000*
21,1,0.053940,0.029530,0.000000,0.000000,90.000000*
1,1,0.009060,0.010240,0.026970*
1,1,0.009060,0.010240,-0.026970*
1,1,0.009060,-0.010240,-0.026970*
1,1,0.009060,-0.010240,0.026970*
%
%AMM50*
21,1,0.082680,0.045670,0.000000,0.000000,90.000000*
21,1,0.067320,0.061020,0.000000,0.000000,90.000000*
1,1,0.015350,0.022840,0.033660*
1,1,0.015350,0.022840,-0.033660*
1,1,0.015350,-0.022840,-0.033660*
1,1,0.015350,-0.022840,0.033660*
%
%AMM51*
21,1,0.029530,0.026380,0.000000,0.000000,0.000000*
21,1,0.020470,0.035430,0.000000,0.000000,0.000000*
1,1,0.009060,0.010240,-0.013190*
1,1,0.009060,-0.010240,-0.013190*
1,1,0.009060,-0.010240,0.013190*
1,1,0.009060,0.010240,0.013190*
%
%AMM52*
21,1,0.021650,0.027950,0.000000,0.000000,0.000000*
21,1,0.014170,0.035430,0.000000,0.000000,0.000000*
1,1,0.007480,0.007090,-0.013980*
1,1,0.007480,-0.007090,-0.013980*
1,1,0.007480,-0.007090,0.013980*
1,1,0.007480,0.007090,0.013980*
%
%AMM53*
21,1,0.031500,0.030710,0.000000,0.000000,90.000000*
21,1,0.022050,0.040160,0.000000,0.000000,90.000000*
1,1,0.009450,0.015350,0.011020*
1,1,0.009450,0.015350,-0.011020*
1,1,0.009450,-0.015350,-0.011020*
1,1,0.009450,-0.015350,0.011020*
%
%AMM54*
21,1,0.031500,0.049610,0.000000,0.000000,270.000000*
21,1,0.022050,0.059060,0.000000,0.000000,270.000000*
1,1,0.009450,-0.024800,-0.011020*
1,1,0.009450,-0.024800,0.011020*
1,1,0.009450,0.024800,0.011020*
1,1,0.009450,0.024800,-0.011020*
%
%AMM55*
21,1,0.031500,0.030710,0.000000,0.000000,0.000000*
21,1,0.022050,0.040160,0.000000,0.000000,0.000000*
1,1,0.009450,0.011020,-0.015350*
1,1,0.009450,-0.011020,-0.015350*
1,1,0.009450,-0.011020,0.015350*
1,1,0.009450,0.011020,0.015350*
%
%AMM56*
21,1,0.074800,0.036220,0.000000,0.000000,90.000000*
21,1,0.061810,0.049210,0.000000,0.000000,90.000000*
1,1,0.012990,0.018110,0.030910*
1,1,0.012990,0.018110,-0.030910*
1,1,0.012990,-0.018110,-0.030910*
1,1,0.012990,-0.018110,0.030910*
%
%AMM63*
21,1,0.029130,0.018900,0.000000,0.000000,180.000000*
21,1,0.018900,0.029130,0.000000,0.000000,180.000000*
1,1,0.010240,-0.009450,0.009450*
1,1,0.010240,0.009450,0.009450*
1,1,0.010240,0.009450,-0.009450*
1,1,0.010240,-0.009450,-0.009450*
%
%AMM64*
21,1,0.025200,0.019680,0.000000,0.000000,270.000000*
21,1,0.015750,0.029130,0.000000,0.000000,270.000000*
1,1,0.009450,-0.009840,-0.007870*
1,1,0.009450,-0.009840,0.007870*
1,1,0.009450,0.009840,0.007870*
1,1,0.009450,0.009840,-0.007870*
%
%AMM65*
21,1,0.038980,0.026770,0.000000,0.000000,270.000000*
21,1,0.026770,0.038980,0.000000,0.000000,270.000000*
1,1,0.012210,-0.013390,-0.013390*
1,1,0.012210,-0.013390,0.013390*
1,1,0.012210,0.013390,0.013390*
1,1,0.012210,0.013390,-0.013390*
%
%AMM66*
21,1,0.025200,0.019680,0.000000,0.000000,0.000000*
21,1,0.015750,0.029130,0.000000,0.000000,0.000000*
1,1,0.009450,0.007870,-0.009840*
1,1,0.009450,-0.007870,-0.009840*
1,1,0.009450,-0.007870,0.009840*
1,1,0.009450,0.007870,0.009840*
%
%ADD10C,0.02362*%
%ADD102M23*%
%ADD106M26*%
%ADD107M27*%
%ADD111M29*%
%ADD117M32*%
%ADD118C,0.04294*%
%ADD119C,0.04724*%
%ADD13O,0.07087X0.07874*%
%ADD141M45*%
%ADD142M46*%
%ADD143M47*%
%ADD144R,0.04331X0.04724*%
%ADD145M48*%
%ADD146M49*%
%ADD147M50*%
%ADD148R,0.09843X0.07087*%
%ADD149M51*%
%ADD150M52*%
%ADD151M53*%
%ADD152M54*%
%ADD153M55*%
%ADD154M56*%
%ADD155O,0.05354X0.01378*%
%ADD156R,0.01378X0.01772*%
%ADD157R,0.01772X0.01378*%
%ADD162C,0.02913*%
%ADD167M63*%
%ADD168M64*%
%ADD169M65*%
%ADD170M66*%
%ADD173C,0.05118*%
%ADD176R,0.07500X0.07874*%
%ADD177O,0.07500X0.07874*%
%ADD181R,0.05709X0.01772*%
%ADD182R,0.04803X0.02559*%
%ADD210C,0.06457*%
%ADD25C,0.05906*%
%ADD257O,0.09213X0.02520*%
%ADD315M183*%
%ADD316M184*%
%ADD319M187*%
%ADD320M188*%
%ADD321M189*%
%ADD327M195*%
%ADD328M196*%
%ADD329M197*%
%ADD330M198*%
%ADD331M199*%
%ADD90C,0.03900*%
%ADD95M17*%
X0000000Y0000000D02*
%LPD*%
G01*
D10*
X0222543Y0130676D03*
X0222543Y0126936D03*
X0222543Y0123195D03*
X0188291Y0127132D03*
X0188291Y0130676D03*
D13*
X0023528Y0317329D03*
X0035339Y0317329D03*
X0047150Y0317329D03*
X0058961Y0317329D03*
X0070772Y0317329D03*
X0082583Y0317329D03*
X0094394Y0317329D03*
X0106205Y0317329D03*
X0137701Y0317329D03*
X0149512Y0317329D03*
X0161323Y0317329D03*
X0173134Y0317329D03*
X0184945Y0317329D03*
X0196756Y0317329D03*
X0208567Y0317329D03*
X0220378Y0317329D03*
X0232189Y0317329D03*
X0244000Y0317329D03*
X0255811Y0317329D03*
X0267622Y0317329D03*
X0279433Y0317329D03*
X0279433Y0335046D03*
X0267622Y0335046D03*
X0255811Y0335046D03*
X0244000Y0335046D03*
X0232189Y0335046D03*
X0220378Y0335046D03*
X0208567Y0335046D03*
X0196756Y0335046D03*
X0184945Y0335046D03*
X0173134Y0335046D03*
X0161323Y0335046D03*
X0149512Y0335046D03*
X0137701Y0335046D03*
X0106205Y0335046D03*
X0094394Y0335046D03*
X0082583Y0335046D03*
X0070772Y0335046D03*
X0058961Y0335046D03*
X0047150Y0335046D03*
X0035339Y0335046D03*
X0023528Y0335046D03*
D25*
X0094563Y0237697D03*
X0069366Y0237697D03*
X0061886Y0237697D03*
X0044957Y0237697D03*
D10*
X0035508Y0235925D03*
X0031571Y0235925D03*
D25*
X0020350Y0237697D03*
X0096335Y0298720D03*
X0089051Y0298720D03*
X0069563Y0298720D03*
X0022122Y0298720D03*
D10*
X0163850Y0289425D03*
X0163850Y0284701D03*
X0163850Y0294150D03*
X0163850Y0298874D03*
X0107059Y0273441D03*
X0107059Y0269504D03*
X0265689Y0192067D03*
X0265689Y0187343D03*
X0265689Y0196791D03*
X0265689Y0201516D03*
X0208898Y0176083D03*
X0208898Y0172146D03*
X0207421Y0164902D02*
%LPD*%
G01*
D10*
X0265689Y0192067D03*
X0265689Y0187343D03*
X0265689Y0196792D03*
X0265689Y0201516D03*
X0208897Y0176083D03*
X0208897Y0172146D03*
X0009496Y0068685D02*
G01*
G75*
D95*
X0021111Y0169927D02*
D03*
X0030363Y0173667D02*
D03*
D95*
X0021111Y0177408D02*
D03*
D102*
X0157478Y0165142D02*
D03*
X0157478Y0161205D02*
D03*
X0041189Y0120653D02*
D03*
X0041189Y0124590D02*
D03*
X0161858Y0163567D02*
D03*
X0161858Y0159630D02*
D03*
X0038138Y0222819D02*
D03*
X0038138Y0218882D02*
D03*
X0071321Y0145457D02*
D03*
X0071321Y0141520D02*
D03*
X0088226Y0145385D02*
D03*
X0088226Y0149322D02*
D03*
X0066189Y0141913D02*
D03*
X0066189Y0145850D02*
D03*
X0014995Y0125501D02*
D03*
X0014995Y0121564D02*
D03*
X0032724Y0194669D02*
D03*
X0032724Y0190732D02*
D03*
X0012252Y0213764D02*
D03*
X0012252Y0217701D02*
D03*
X0144142Y0137976D02*
D03*
X0144142Y0134039D02*
D03*
X0070520Y0202543D02*
D03*
X0070520Y0206480D02*
D03*
X0100737Y0136106D02*
D03*
X0100737Y0140043D02*
D03*
X0089712Y0217406D02*
D03*
X0089712Y0221342D02*
D03*
X0142567Y0149787D02*
D03*
X0142567Y0145850D02*
D03*
X0146504Y0149787D02*
D03*
X0146504Y0145850D02*
D03*
X0016386Y0213764D02*
D03*
X0016386Y0217701D02*
D03*
X0153394Y0165142D02*
D03*
X0153394Y0161205D02*
D03*
X0153197Y0187583D02*
D03*
X0153197Y0183646D02*
D03*
X0105067Y0136106D02*
D03*
X0105067Y0140043D02*
D03*
X0108709Y0222622D02*
D03*
X0108709Y0218685D02*
D03*
X0070520Y0173016D02*
D03*
X0070520Y0176953D02*
D03*
X0070520Y0169472D02*
D03*
X0070520Y0165535D02*
D03*
X0057134Y0093094D02*
D03*
X0057134Y0089157D02*
D03*
X0061858Y0093094D02*
D03*
X0061858Y0089157D02*
D03*
X0066583Y0093094D02*
D03*
X0066583Y0089157D02*
D03*
X0071307Y0093094D02*
D03*
X0071307Y0089157D02*
D03*
X0155953Y0073803D02*
D03*
X0155953Y0077740D02*
D03*
X0160677Y0077740D02*
D03*
X0160677Y0073803D02*
D03*
X0165401Y0073803D02*
D03*
X0165401Y0077740D02*
D03*
X0170126Y0073803D02*
D03*
X0170126Y0077740D02*
D03*
X0037252Y0120653D02*
D03*
X0037252Y0124590D02*
D03*
X0065205Y0120653D02*
D03*
X0065205Y0124590D02*
D03*
X0033512Y0093094D02*
D03*
X0033512Y0089157D02*
D03*
X0028788Y0093094D02*
D03*
X0028788Y0089157D02*
D03*
X0024063Y0093094D02*
D03*
X0024063Y0089157D02*
D03*
X0019339Y0093094D02*
D03*
X0019339Y0089157D02*
D03*
X0052410Y0093094D02*
D03*
X0052410Y0089157D02*
D03*
X0047685Y0093094D02*
D03*
X0047685Y0089157D02*
D03*
X0042961Y0093094D02*
D03*
X0042961Y0089157D02*
D03*
X0038236Y0093094D02*
D03*
X0038236Y0089157D02*
D03*
X0090205Y0093094D02*
D03*
X0090205Y0089157D02*
D03*
X0085481Y0093094D02*
D03*
X0085481Y0089157D02*
D03*
X0080756Y0093094D02*
D03*
X0080756Y0089157D02*
D03*
X0076032Y0093094D02*
D03*
X0076032Y0089157D02*
D03*
X0109103Y0089157D02*
D03*
X0109103Y0093094D02*
D03*
X0104378Y0093094D02*
D03*
X0104378Y0089157D02*
D03*
X0099654Y0093094D02*
D03*
X0099654Y0089157D02*
D03*
X0094929Y0093094D02*
D03*
X0094929Y0089157D02*
D03*
X0128000Y0093094D02*
D03*
X0128000Y0089157D02*
D03*
X0123276Y0093094D02*
D03*
X0123276Y0089157D02*
D03*
X0118551Y0093094D02*
D03*
X0118551Y0089157D02*
D03*
X0113827Y0093094D02*
D03*
X0113827Y0089157D02*
D03*
X0142173Y0093094D02*
D03*
X0142173Y0089157D02*
D03*
X0137449Y0093094D02*
D03*
X0137449Y0089157D02*
D03*
X0132724Y0093094D02*
D03*
X0132724Y0089157D02*
D03*
X0014220Y0083842D02*
D03*
X0014220Y0087779D02*
D03*
X0151229Y0077740D02*
D03*
X0151229Y0073803D02*
D03*
X0065205Y0110417D02*
D03*
X0065205Y0114354D02*
D03*
X0152803Y0089157D02*
D03*
X0152803Y0093094D02*
D03*
X0014220Y0076165D02*
D03*
X0014220Y0080102D02*
D03*
X0152803Y0085220D02*
D03*
X0152803Y0081283D02*
D03*
X0157921Y0215535D02*
D03*
X0157921Y0211598D02*
D03*
X0146898Y0093094D02*
D03*
X0146898Y0089157D02*
D03*
D106*
X0046898Y0185516D02*
D03*
X0053984Y0185516D02*
D03*
X0053984Y0175476D02*
D03*
X0046898Y0175476D02*
D03*
X0061465Y0137287D02*
D03*
X0054378Y0137287D02*
D03*
X0054378Y0147327D02*
D03*
X0061465Y0147327D02*
D03*
X0061465Y0153429D02*
D03*
X0054378Y0153429D02*
D03*
X0054378Y0163469D02*
D03*
X0061465Y0163469D02*
D03*
X0156937Y0117602D02*
D03*
X0149850Y0117602D02*
D03*
X0149850Y0107563D02*
D03*
X0156937Y0107563D02*
D03*
X0138433Y0107563D02*
D03*
X0145520Y0107563D02*
D03*
X0145520Y0117602D02*
D03*
X0138433Y0117602D02*
D03*
X0088433Y0117602D02*
D03*
X0081347Y0117602D02*
D03*
X0081347Y0107563D02*
D03*
X0088433Y0107563D02*
D03*
X0069929Y0107563D02*
D03*
X0077016Y0107563D02*
D03*
X0077016Y0117602D02*
D03*
X0069929Y0117602D02*
D03*
X0111268Y0117602D02*
D03*
X0104181Y0117602D02*
D03*
X0104181Y0107563D02*
D03*
X0111268Y0107563D02*
D03*
X0092764Y0107563D02*
D03*
X0099851Y0107563D02*
D03*
X0099851Y0117602D02*
D03*
X0092764Y0117602D02*
D03*
X0134103Y0117602D02*
D03*
X0127016Y0117602D02*
D03*
X0127016Y0107563D02*
D03*
X0134103Y0107563D02*
D03*
X0115599Y0107563D02*
D03*
X0122685Y0107563D02*
D03*
X0122685Y0117602D02*
D03*
X0115599Y0117602D02*
D03*
D107*
X0053984Y0178921D02*
D03*
X0053984Y0182071D02*
D03*
X0046898Y0182071D02*
D03*
X0046898Y0178921D02*
D03*
X0054378Y0143882D02*
D03*
X0054378Y0140732D02*
D03*
X0061465Y0140732D02*
D03*
X0061465Y0143882D02*
D03*
X0054378Y0160024D02*
D03*
X0054378Y0156874D02*
D03*
X0061465Y0156874D02*
D03*
X0061465Y0160024D02*
D03*
X0156937Y0114157D02*
D03*
X0156937Y0111008D02*
D03*
X0149850Y0111008D02*
D03*
X0149850Y0114157D02*
D03*
X0138433Y0111008D02*
D03*
X0138433Y0114157D02*
D03*
X0145520Y0114157D02*
D03*
X0145520Y0111008D02*
D03*
X0088433Y0114157D02*
D03*
X0088433Y0111008D02*
D03*
X0081347Y0111008D02*
D03*
X0081347Y0114157D02*
D03*
X0069929Y0111008D02*
D03*
X0069929Y0114157D02*
D03*
X0077016Y0114157D02*
D03*
X0077016Y0111008D02*
D03*
X0111268Y0114157D02*
D03*
X0111268Y0111008D02*
D03*
X0104181Y0111008D02*
D03*
X0104181Y0114157D02*
D03*
X0092764Y0111008D02*
D03*
X0092764Y0114157D02*
D03*
X0099851Y0114157D02*
D03*
X0099851Y0111008D02*
D03*
X0134103Y0114157D02*
D03*
X0134103Y0111008D02*
D03*
X0127016Y0111008D02*
D03*
X0127016Y0114157D02*
D03*
X0115599Y0111008D02*
D03*
X0115599Y0114157D02*
D03*
X0122685Y0114157D02*
D03*
X0122685Y0111008D02*
D03*
D111*
X0034890Y0179512D02*
D03*
X0034890Y0182071D02*
D03*
X0034890Y0184630D02*
D03*
X0042370Y0184630D02*
D03*
X0042370Y0179512D02*
D03*
D117*
X0053197Y0220063D02*
D03*
X0049260Y0220063D02*
D03*
X0169339Y0204315D02*
D03*
X0165401Y0204315D02*
D03*
X0028239Y0199494D02*
D03*
X0032176Y0199494D02*
D03*
X0053984Y0193488D02*
D03*
X0050047Y0193488D02*
D03*
X0042173Y0193488D02*
D03*
X0046110Y0193488D02*
D03*
X0150835Y0138764D02*
D03*
X0154772Y0138764D02*
D03*
X0081543Y0220654D02*
D03*
X0085480Y0220654D02*
D03*
X0150244Y0208449D02*
D03*
X0154181Y0208449D02*
D03*
X0122882Y0219472D02*
D03*
X0126819Y0219472D02*
D03*
X0078406Y0132663D02*
D03*
X0074469Y0132663D02*
D03*
X0069142Y0155299D02*
D03*
X0073079Y0155299D02*
D03*
X0079181Y0153724D02*
D03*
X0083118Y0153724D02*
D03*
X0078394Y0182071D02*
D03*
X0082331Y0182071D02*
D03*
X0173669Y0222228D02*
D03*
X0169732Y0222228D02*
D03*
X0060480Y0221244D02*
D03*
X0056543Y0221244D02*
D03*
X0042567Y0206874D02*
D03*
X0046504Y0206874D02*
D03*
X0153591Y0145063D02*
D03*
X0157528Y0145063D02*
D03*
X0153591Y0149000D02*
D03*
X0157528Y0149000D02*
D03*
X0154181Y0212386D02*
D03*
X0150244Y0212386D02*
D03*
X0127114Y0136500D02*
D03*
X0123177Y0136500D02*
D03*
X0070520Y0181677D02*
D03*
X0074457Y0181677D02*
D03*
X0070520Y0149984D02*
D03*
X0074457Y0149984D02*
D03*
X0078787Y0205299D02*
D03*
X0082724Y0205299D02*
D03*
X0078000Y0189945D02*
D03*
X0081937Y0189945D02*
D03*
X0092862Y0136106D02*
D03*
X0096799Y0136106D02*
D03*
X0147095Y0123803D02*
D03*
X0143158Y0123803D02*
D03*
X0078591Y0123803D02*
D03*
X0074654Y0123803D02*
D03*
X0101425Y0123803D02*
D03*
X0097488Y0123803D02*
D03*
X0124260Y0123803D02*
D03*
X0120323Y0123803D02*
D03*
X0085087Y0099787D02*
D03*
X0081150Y0099787D02*
D03*
X0030035Y0103331D02*
D03*
X0033972Y0103331D02*
D03*
X0020846Y0103331D02*
D03*
X0016909Y0103331D02*
D03*
X0054839Y0103331D02*
D03*
X0058776Y0103331D02*
D03*
X0045650Y0103331D02*
D03*
X0041713Y0103331D02*
D03*
X0018748Y0185220D02*
D03*
X0014811Y0185220D02*
D03*
X0023276Y0185220D02*
D03*
X0027213Y0185220D02*
D03*
X0060284Y0097031D02*
D03*
X0056347Y0097031D02*
D03*
X0013433Y0134827D02*
D03*
X0017370Y0134827D02*
D03*
X0013433Y0147228D02*
D03*
X0017370Y0147228D02*
D03*
X0013433Y0151362D02*
D03*
X0017370Y0151362D02*
D03*
X0013433Y0159630D02*
D03*
X0017370Y0159630D02*
D03*
X0013433Y0155496D02*
D03*
X0017370Y0155496D02*
D03*
X0013433Y0163764D02*
D03*
X0017370Y0163764D02*
D03*
X0013433Y0143095D02*
D03*
X0017370Y0143095D02*
D03*
X0013433Y0138961D02*
D03*
X0017370Y0138961D02*
D03*
D118*
X0065244Y0218626D02*
D03*
X0045244Y0214626D02*
D03*
X0045244Y0222626D02*
D03*
D119*
X0103591Y0130102D02*
D03*
X0150835Y0134433D02*
D03*
X0145717Y0129709D02*
D03*
X0133905Y0129709D02*
D03*
X0122488Y0129709D02*
D03*
X0086268Y0129709D02*
D03*
X0069338Y0130890D02*
D03*
D25*
X0013827Y0222228D02*
D03*
D141*
X0063473Y0186205D02*
D03*
X0069693Y0186205D02*
D03*
D142*
X0166076Y0196556D02*
D03*
X0169816Y0187304D02*
D03*
X0083647Y0138805D02*
D03*
X0079907Y0148057D02*
D03*
X0020126Y0199669D02*
D03*
X0016386Y0208921D02*
D03*
X0025835Y0213094D02*
D03*
X0029575Y0203843D02*
D03*
X0162449Y0104709D02*
D03*
X0166189Y0095457D02*
D03*
X0166189Y0110352D02*
D03*
X0162449Y0119604D02*
D03*
X0162449Y0134499D02*
D03*
X0166189Y0125247D02*
D03*
X0161662Y0149394D02*
D03*
X0165402Y0140142D02*
D03*
D142*
X0162336Y0187304D02*
D03*
X0076167Y0138805D02*
D03*
X0012646Y0199669D02*
D03*
X0033315Y0213095D02*
D03*
X0169929Y0104709D02*
D03*
X0169929Y0119604D02*
D03*
X0169929Y0134499D02*
D03*
X0169142Y0149394D02*
D03*
D143*
X0013827Y0192307D02*
D03*
X0026819Y0192307D02*
D03*
X0051228Y0202543D02*
D03*
X0064221Y0202543D02*
D03*
D144*
X0046307Y0200968D02*
D03*
X0039614Y0200968D02*
D03*
D145*
X0168551Y0163173D02*
D03*
X0168551Y0174590D02*
D03*
D146*
X0106622Y0174209D02*
D03*
X0110953Y0174209D02*
D03*
X0115284Y0174209D02*
D03*
X0119614Y0174209D02*
D03*
X0123945Y0174209D02*
D03*
X0128276Y0174209D02*
D03*
X0132607Y0174209D02*
D03*
X0136937Y0174209D02*
D03*
D147*
X0146307Y0163973D02*
D03*
X0146307Y0196650D02*
D03*
X0092174Y0196650D02*
D03*
X0092174Y0163973D02*
D03*
D148*
X0081544Y0175181D02*
D03*
X0081544Y0160614D02*
D03*
D149*
X0128099Y0151362D02*
D03*
X0128099Y0144276D02*
D03*
X0138138Y0144276D02*
D03*
X0138138Y0151362D02*
D03*
X0059201Y0076362D02*
D03*
X0059201Y0083449D02*
D03*
X0069240Y0083449D02*
D03*
X0069240Y0076362D02*
D03*
X0031051Y0110811D02*
D03*
X0031051Y0117898D02*
D03*
X0021012Y0117898D02*
D03*
X0021012Y0110811D02*
D03*
X0021012Y0129315D02*
D03*
X0021012Y0122228D02*
D03*
X0031051Y0122228D02*
D03*
X0031051Y0129315D02*
D03*
X0059004Y0110811D02*
D03*
X0059004Y0117898D02*
D03*
X0048965Y0117898D02*
D03*
X0048965Y0110811D02*
D03*
X0048965Y0129315D02*
D03*
X0048965Y0122228D02*
D03*
X0059004Y0122228D02*
D03*
X0059004Y0129315D02*
D03*
X0021406Y0076362D02*
D03*
X0021406Y0083449D02*
D03*
X0031445Y0083449D02*
D03*
X0031445Y0076362D02*
D03*
X0040303Y0076362D02*
D03*
X0040303Y0083449D02*
D03*
X0050342Y0083449D02*
D03*
X0050342Y0076362D02*
D03*
X0078098Y0076362D02*
D03*
X0078098Y0083449D02*
D03*
X0088138Y0083449D02*
D03*
X0088138Y0076362D02*
D03*
X0096996Y0076362D02*
D03*
X0096996Y0083449D02*
D03*
X0107036Y0083449D02*
D03*
X0107036Y0076362D02*
D03*
X0115894Y0076362D02*
D03*
X0115894Y0083449D02*
D03*
X0125933Y0083449D02*
D03*
X0125933Y0076362D02*
D03*
X0134791Y0076362D02*
D03*
X0134791Y0083449D02*
D03*
X0144831Y0083449D02*
D03*
X0144831Y0076362D02*
D03*
X0168059Y0082071D02*
D03*
X0168059Y0089157D02*
D03*
X0158020Y0089157D02*
D03*
X0158020Y0082071D02*
D03*
D150*
X0131543Y0151362D02*
D03*
X0134693Y0151362D02*
D03*
X0134693Y0144276D02*
D03*
X0131543Y0144276D02*
D03*
X0065795Y0083449D02*
D03*
X0062646Y0083449D02*
D03*
X0062646Y0076362D02*
D03*
X0065795Y0076362D02*
D03*
X0027606Y0110811D02*
D03*
X0024457Y0110811D02*
D03*
X0024457Y0117898D02*
D03*
X0027606Y0117898D02*
D03*
X0024457Y0129315D02*
D03*
X0027606Y0129315D02*
D03*
X0027606Y0122228D02*
D03*
X0024457Y0122228D02*
D03*
X0055559Y0110811D02*
D03*
X0052409Y0110811D02*
D03*
X0052409Y0117898D02*
D03*
X0055559Y0117898D02*
D03*
X0052410Y0129315D02*
D03*
X0055559Y0129315D02*
D03*
X0055559Y0122228D02*
D03*
X0052410Y0122228D02*
D03*
X0028000Y0083449D02*
D03*
X0024851Y0083449D02*
D03*
X0024851Y0076362D02*
D03*
X0028000Y0076362D02*
D03*
X0046898Y0083449D02*
D03*
X0043748Y0083449D02*
D03*
X0043748Y0076362D02*
D03*
X0046898Y0076362D02*
D03*
X0084693Y0083449D02*
D03*
X0081543Y0083449D02*
D03*
X0081543Y0076362D02*
D03*
X0084693Y0076362D02*
D03*
X0103591Y0083449D02*
D03*
X0100441Y0083449D02*
D03*
X0100441Y0076362D02*
D03*
X0103591Y0076362D02*
D03*
X0122488Y0083449D02*
D03*
X0119339Y0083449D02*
D03*
X0119339Y0076362D02*
D03*
X0122488Y0076362D02*
D03*
X0141386Y0083449D02*
D03*
X0138236Y0083449D02*
D03*
X0138236Y0076362D02*
D03*
X0141386Y0076362D02*
D03*
X0164614Y0082071D02*
D03*
X0161465Y0082071D02*
D03*
X0161465Y0089157D02*
D03*
X0164614Y0089157D02*
D03*
D151*
X0153197Y0178921D02*
D03*
X0153197Y0172622D02*
D03*
X0099555Y0214650D02*
D03*
X0099555Y0220949D02*
D03*
X0014221Y0180890D02*
D03*
X0014221Y0174590D02*
D03*
X0158709Y0171441D02*
D03*
X0158709Y0177740D02*
D03*
D152*
X0078787Y0200378D02*
D03*
X0078787Y0194472D02*
D03*
D153*
X0069733Y0195457D02*
D03*
X0063433Y0195457D02*
D03*
X0069733Y0190831D02*
D03*
X0063433Y0190831D02*
D03*
D154*
X0021307Y0220063D02*
D03*
X0032724Y0220063D02*
D03*
D155*
X0023118Y0135811D02*
D03*
X0023118Y0138370D02*
D03*
X0023118Y0140929D02*
D03*
X0023118Y0143488D02*
D03*
X0023118Y0146047D02*
D03*
X0023118Y0148606D02*
D03*
X0023118Y0151165D02*
D03*
X0023118Y0153724D02*
D03*
X0023118Y0156283D02*
D03*
X0023118Y0158843D02*
D03*
X0023118Y0161401D02*
D03*
X0023118Y0163961D02*
D03*
X0046111Y0135811D02*
D03*
X0046111Y0138370D02*
D03*
X0046111Y0140929D02*
D03*
X0046111Y0143488D02*
D03*
X0046111Y0146047D02*
D03*
X0046111Y0148606D02*
D03*
X0046111Y0151165D02*
D03*
X0046111Y0153724D02*
D03*
X0046111Y0156283D02*
D03*
X0046111Y0158843D02*
D03*
X0046111Y0161401D02*
D03*
X0046111Y0163961D02*
D03*
D156*
X0166386Y0211992D02*
D03*
X0164418Y0211992D02*
D03*
X0164418Y0218291D02*
D03*
X0166386Y0218291D02*
D03*
D157*
X0162252Y0212189D02*
D03*
X0162252Y0214158D02*
D03*
X0162252Y0216126D02*
D03*
X0162252Y0218094D02*
D03*
X0168552Y0212189D02*
D03*
X0168552Y0218094D02*
D03*
X0168552Y0214158D02*
D03*
X0168552Y0216126D02*
D03*
X0187110Y0120440D02*
G01*
G75*
D162*
X0222543Y0130676D02*
D03*
X0222543Y0126936D02*
D03*
X0222543Y0123196D02*
D03*
X0188291Y0127133D02*
D03*
X0188291Y0130676D02*
D03*
D167*
X0215063Y0130676D02*
D03*
X0219000Y0130676D02*
D03*
X0203940Y0130676D02*
D03*
X0200003Y0130676D02*
D03*
X0195574Y0130676D02*
D03*
X0191637Y0130676D02*
D03*
X0215063Y0123393D02*
D03*
X0219000Y0123393D02*
D03*
D168*
X0211678Y0123196D02*
D03*
X0211678Y0126739D02*
D03*
D169*
X0207793Y0129909D02*
D03*
X0207793Y0123688D02*
D03*
D170*
X0195181Y0126739D02*
D03*
X0191638Y0126739D02*
D03*
X0203547Y0123196D02*
D03*
X0200004Y0123196D02*
D03*
X0218409Y0126797D02*
D03*
X0214866Y0126797D02*
D03*
X0191638Y0123196D02*
D03*
X0195181Y0123196D02*
D03*
X0002815Y0007437D02*
%LPD*%
G01*
D173*
X0093996Y0019051D03*
X0086122Y0030862D03*
X0078248Y0019051D03*
D90*
X0006988Y0018264D03*
X0026988Y0014264D03*
X0026988Y0022264D03*
D176*
X0096476Y0057142D03*
D177*
X0086476Y0057142D03*
X0076476Y0057142D03*
G36*
G01*
X0082520Y0014796D02*
X0082520Y0016154D01*
G75*
G02*
X0083100Y0016735I0000581J0000000D01*
G01*
X0084262Y0016735D01*
G75*
G02*
X0084843Y0016154I0000000J-000581D01*
G01*
X0084843Y0014796D01*
G75*
G02*
X0084262Y0014215I-000581J0000000D01*
G01*
X0083100Y0014215D01*
G75*
G02*
X0082520Y0014796I0000000J0000581D01*
G01*
G37*
G36*
G01*
X0086339Y0014796D02*
X0086339Y0016154D01*
G75*
G02*
X0086919Y0016735I0000581J0000000D01*
G01*
X0088081Y0016735D01*
G75*
G02*
X0088661Y0016154I0000000J-000581D01*
G01*
X0088661Y0014796D01*
G75*
G02*
X0088081Y0014215I-000581J0000000D01*
G01*
X0086919Y0014215D01*
G75*
G02*
X0086339Y0014796I0000000J0000581D01*
G01*
G37*
G36*
G01*
X0096988Y0030085D02*
X0096988Y0031443D01*
G75*
G02*
X0097569Y0032024I0000581J0000000D01*
G01*
X0098730Y0032024D01*
G75*
G02*
X0099311Y0031443I0000000J-000581D01*
G01*
X0099311Y0030085D01*
G75*
G02*
X0098730Y0029504I-000581J0000000D01*
G01*
X0097569Y0029504D01*
G75*
G02*
X0096988Y0030085I0000000J0000581D01*
G01*
G37*
G36*
G01*
X0100807Y0030085D02*
X0100807Y0031443D01*
G75*
G02*
X0101388Y0032024I0000581J0000000D01*
G01*
X0102549Y0032024D01*
G75*
G02*
X0103130Y0031443I0000000J-000581D01*
G01*
X0103130Y0030085D01*
G75*
G02*
X0102549Y0029504I-000581J0000000D01*
G01*
X0101388Y0029504D01*
G75*
G02*
X0100807Y0030085I0000000J0000581D01*
G01*
G37*
G36*
G01*
X0047106Y0056281D02*
X0047106Y0054263D01*
G75*
G02*
X0046245Y0053402I-000861J0000000D01*
G01*
X0044523Y0053402D01*
G75*
G02*
X0043661Y0054263I0000000J0000861D01*
G01*
X0043661Y0056281D01*
G75*
G02*
X0044523Y0057142I0000861J0000000D01*
G01*
X0046245Y0057142D01*
G75*
G02*
X0047106Y0056281I0000000J-000861D01*
G01*
G37*
G36*
G01*
X0040906Y0056281D02*
X0040906Y0054263D01*
G75*
G02*
X0040044Y0053402I-000861J0000000D01*
G01*
X0038322Y0053402D01*
G75*
G02*
X0037461Y0054263I0000000J0000861D01*
G01*
X0037461Y0056281D01*
G75*
G02*
X0038322Y0057142I0000861J0000000D01*
G01*
X0040044Y0057142D01*
G75*
G02*
X0040906Y0056281I0000000J-000861D01*
G01*
G37*
G36*
G01*
X0088661Y0011955D02*
X0088661Y0010596D01*
G75*
G02*
X0088081Y0010016I-000581J0000000D01*
G01*
X0086919Y0010016D01*
G75*
G02*
X0086339Y0010596I0000000J0000581D01*
G01*
X0086339Y0011955D01*
G75*
G02*
X0086919Y0012535I0000581J0000000D01*
G01*
X0088081Y0012535D01*
G75*
G02*
X0088661Y0011955I0000000J-000581D01*
G01*
G37*
G36*
G01*
X0084843Y0011955D02*
X0084843Y0010596D01*
G75*
G02*
X0084262Y0010016I-000581J0000000D01*
G01*
X0083100Y0010016D01*
G75*
G02*
X0082520Y0010596I0000000J0000581D01*
G01*
X0082520Y0011955D01*
G75*
G02*
X0083100Y0012535I0000581J0000000D01*
G01*
X0084262Y0012535D01*
G75*
G02*
X0084843Y0011955I0000000J-000581D01*
G01*
G37*
G36*
G01*
X0028960Y0050951D02*
X0028960Y0052309D01*
G75*
G02*
X0029540Y0052890I0000581J0000000D01*
G01*
X0030702Y0052890D01*
G75*
G02*
X0031282Y0052309I0000000J-000581D01*
G01*
X0031282Y0050951D01*
G75*
G02*
X0030702Y0050370I-000581J0000000D01*
G01*
X0029540Y0050370D01*
G75*
G02*
X0028960Y0050951I0000000J0000581D01*
G01*
G37*
G36*
G01*
X0032778Y0050951D02*
X0032778Y0052309D01*
G75*
G02*
X0033359Y0052890I0000581J0000000D01*
G01*
X0034521Y0052890D01*
G75*
G02*
X0035101Y0052309I0000000J-000581D01*
G01*
X0035101Y0050951D01*
G75*
G02*
X0034521Y0050370I-000581J0000000D01*
G01*
X0033359Y0050370D01*
G75*
G02*
X0032778Y0050951I0000000J0000581D01*
G01*
G37*
G36*
G01*
X0037047Y0049081D02*
X0037047Y0050439D01*
G75*
G02*
X0037628Y0051020I0000581J0000000D01*
G01*
X0038789Y0051020D01*
G75*
G02*
X0039370Y0050439I0000000J-000581D01*
G01*
X0039370Y0049081D01*
G75*
G02*
X0038789Y0048500I-000581J0000000D01*
G01*
X0037628Y0048500D01*
G75*
G02*
X0037047Y0049081I0000000J0000581D01*
G01*
G37*
G36*
G01*
X0040866Y0049081D02*
X0040866Y0050439D01*
G75*
G02*
X0041447Y0051020I0000581J0000000D01*
G01*
X0042608Y0051020D01*
G75*
G02*
X0043189Y0050439I0000000J-000581D01*
G01*
X0043189Y0049081D01*
G75*
G02*
X0042608Y0048500I-000581J0000000D01*
G01*
X0041447Y0048500D01*
G75*
G02*
X0040866Y0049081I0000000J0000581D01*
G01*
G37*
G36*
G01*
X0008435Y0056413D02*
X0009793Y0056413D01*
G75*
G02*
X0010374Y0055833I0000000J-000581D01*
G01*
X0010374Y0054671D01*
G75*
G02*
X0009793Y0054091I-000581J0000000D01*
G01*
X0008435Y0054091D01*
G75*
G02*
X0007854Y0054671I0000000J0000581D01*
G01*
X0007854Y0055833D01*
G75*
G02*
X0008435Y0056413I0000581J0000000D01*
G01*
G37*
G36*
G01*
X0008435Y0052594D02*
X0009793Y0052594D01*
G75*
G02*
X0010374Y0052014I0000000J-000581D01*
G01*
X0010374Y0050852D01*
G75*
G02*
X0009793Y0050272I-000581J0000000D01*
G01*
X0008435Y0050272D01*
G75*
G02*
X0007854Y0050852I0000000J0000581D01*
G01*
X0007854Y0052014D01*
G75*
G02*
X0008435Y0052594I0000581J0000000D01*
G01*
G37*
G36*
G01*
X0057953Y0038825D02*
X0057953Y0037467D01*
G75*
G02*
X0057372Y0036886I-000581J0000000D01*
G01*
X0056211Y0036886D01*
G75*
G02*
X0055630Y0037467I0000000J0000581D01*
G01*
X0055630Y0038825D01*
G75*
G02*
X0056211Y0039406I0000581J0000000D01*
G01*
X0057372Y0039406D01*
G75*
G02*
X0057953Y0038825I0000000J-000581D01*
G01*
G37*
G36*
G01*
X0054134Y0038825D02*
X0054134Y0037467D01*
G75*
G02*
X0053553Y0036886I-000581J0000000D01*
G01*
X0052392Y0036886D01*
G75*
G02*
X0051811Y0037467I0000000J0000581D01*
G01*
X0051811Y0038825D01*
G75*
G02*
X0052392Y0039406I0000581J0000000D01*
G01*
X0053553Y0039406D01*
G75*
G02*
X0054134Y0038825I0000000J-000581D01*
G01*
G37*
G36*
G01*
X0051811Y0033530D02*
X0051811Y0034888D01*
G75*
G02*
X0052392Y0035468I0000581J0000000D01*
G01*
X0053553Y0035468D01*
G75*
G02*
X0054134Y0034888I0000000J-000581D01*
G01*
X0054134Y0033530D01*
G75*
G02*
X0053553Y0032949I-000581J0000000D01*
G01*
X0052392Y0032949D01*
G75*
G02*
X0051811Y0033530I0000000J0000581D01*
G01*
G37*
G36*
G01*
X0055630Y0033530D02*
X0055630Y0034888D01*
G75*
G02*
X0056211Y0035468I0000581J0000000D01*
G01*
X0057372Y0035468D01*
G75*
G02*
X0057953Y0034888I0000000J-000581D01*
G01*
X0057953Y0033530D01*
G75*
G02*
X0057372Y0032949I-000581J0000000D01*
G01*
X0056211Y0032949D01*
G75*
G02*
X0055630Y0033530I0000000J0000581D01*
G01*
G37*
G36*
G01*
X0099291Y0035970D02*
X0099291Y0034612D01*
G75*
G02*
X0098711Y0034031I-000581J0000000D01*
G01*
X0097549Y0034031D01*
G75*
G02*
X0096969Y0034612I0000000J0000581D01*
G01*
X0096969Y0035970D01*
G75*
G02*
X0097549Y0036551I0000581J0000000D01*
G01*
X0098711Y0036551D01*
G75*
G02*
X0099291Y0035970I0000000J-000581D01*
G01*
G37*
G36*
G01*
X0095472Y0035970D02*
X0095472Y0034612D01*
G75*
G02*
X0094892Y0034031I-000581J0000000D01*
G01*
X0093730Y0034031D01*
G75*
G02*
X0093150Y0034612I0000000J0000581D01*
G01*
X0093150Y0035970D01*
G75*
G02*
X0093730Y0036551I0000581J0000000D01*
G01*
X0094892Y0036551D01*
G75*
G02*
X0095472Y0035970I0000000J-000581D01*
G01*
G37*
D181*
X0044941Y0012555D03*
X0044941Y0015114D03*
X0044941Y0017673D03*
X0044941Y0020232D03*
X0044941Y0022791D03*
X0044941Y0025350D03*
X0044941Y0027909D03*
X0068169Y0027909D03*
X0068169Y0025350D03*
X0068169Y0022791D03*
X0068169Y0020232D03*
X0068169Y0017673D03*
X0068169Y0015114D03*
X0068169Y0012555D03*
G36*
G01*
X0035118Y0056049D02*
X0035118Y0054691D01*
G75*
G02*
X0034537Y0054110I-000581J0000000D01*
G01*
X0033376Y0054110D01*
G75*
G02*
X0032795Y0054691I0000000J0000581D01*
G01*
X0032795Y0056049D01*
G75*
G02*
X0033376Y0056630I0000581J0000000D01*
G01*
X0034537Y0056630D01*
G75*
G02*
X0035118Y0056049I0000000J-000581D01*
G01*
G37*
G36*
G01*
X0031299Y0056049D02*
X0031299Y0054691D01*
G75*
G02*
X0030719Y0054110I-000581J0000000D01*
G01*
X0029557Y0054110D01*
G75*
G02*
X0028976Y0054691I0000000J0000581D01*
G01*
X0028976Y0056049D01*
G75*
G02*
X0029557Y0056630I0000581J0000000D01*
G01*
X0030719Y0056630D01*
G75*
G02*
X0031299Y0056049I0000000J-000581D01*
G01*
G37*
G36*
G01*
X0028976Y0058431D02*
X0028976Y0059789D01*
G75*
G02*
X0029557Y0060370I0000581J0000000D01*
G01*
X0030719Y0060370D01*
G75*
G02*
X0031299Y0059789I0000000J-000581D01*
G01*
X0031299Y0058431D01*
G75*
G02*
X0030719Y0057850I-000581J0000000D01*
G01*
X0029557Y0057850D01*
G75*
G02*
X0028976Y0058431I0000000J0000581D01*
G01*
G37*
G36*
G01*
X0032795Y0058431D02*
X0032795Y0059789D01*
G75*
G02*
X0033376Y0060370I0000581J0000000D01*
G01*
X0034537Y0060370D01*
G75*
G02*
X0035118Y0059789I0000000J-000581D01*
G01*
X0035118Y0058431D01*
G75*
G02*
X0034537Y0057850I-000581J0000000D01*
G01*
X0033376Y0057850D01*
G75*
G02*
X0032795Y0058431I0000000J0000581D01*
G01*
G37*
G36*
G01*
X0089213Y0048982D02*
X0089213Y0050341D01*
G75*
G02*
X0089793Y0050921I0000581J0000000D01*
G01*
X0090955Y0050921D01*
G75*
G02*
X0091535Y0050341I0000000J-000581D01*
G01*
X0091535Y0048982D01*
G75*
G02*
X0090955Y0048402I-000581J0000000D01*
G01*
X0089793Y0048402D01*
G75*
G02*
X0089213Y0048982I0000000J0000581D01*
G01*
G37*
G36*
G01*
X0093032Y0048982D02*
X0093032Y0050341D01*
G75*
G02*
X0093612Y0050921I0000581J0000000D01*
G01*
X0094774Y0050921D01*
G75*
G02*
X0095354Y0050341I0000000J-000581D01*
G01*
X0095354Y0048982D01*
G75*
G02*
X0094774Y0048402I-000581J0000000D01*
G01*
X0093612Y0048402D01*
G75*
G02*
X0093032Y0048982I0000000J0000581D01*
G01*
G37*
G36*
G01*
X0082520Y0019684D02*
X0082520Y0021043D01*
G75*
G02*
X0083100Y0021623I0000581J0000000D01*
G01*
X0084262Y0021623D01*
G75*
G02*
X0084843Y0021043I0000000J-000581D01*
G01*
X0084843Y0019684D01*
G75*
G02*
X0084262Y0019104I-000581J0000000D01*
G01*
X0083100Y0019104D01*
G75*
G02*
X0082520Y0019684I0000000J0000581D01*
G01*
G37*
G36*
G01*
X0086339Y0019684D02*
X0086339Y0021043D01*
G75*
G02*
X0086919Y0021623I0000581J0000000D01*
G01*
X0088081Y0021623D01*
G75*
G02*
X0088661Y0021043I0000000J-000581D01*
G01*
X0088661Y0019684D01*
G75*
G02*
X0088081Y0019104I-000581J0000000D01*
G01*
X0086919Y0019104D01*
G75*
G02*
X0086339Y0019684I0000000J0000581D01*
G01*
G37*
G36*
G01*
X0054705Y0042762D02*
X0054705Y0041404D01*
G75*
G02*
X0054124Y0040823I-000581J0000000D01*
G01*
X0052963Y0040823D01*
G75*
G02*
X0052382Y0041404I0000000J0000581D01*
G01*
X0052382Y0042762D01*
G75*
G02*
X0052963Y0043343I0000581J0000000D01*
G01*
X0054124Y0043343D01*
G75*
G02*
X0054705Y0042762I0000000J-000581D01*
G01*
G37*
G36*
G01*
X0050886Y0042762D02*
X0050886Y0041404D01*
G75*
G02*
X0050305Y0040823I-000581J0000000D01*
G01*
X0049144Y0040823D01*
G75*
G02*
X0048563Y0041404I0000000J0000581D01*
G01*
X0048563Y0042762D01*
G75*
G02*
X0049144Y0043343I0000581J0000000D01*
G01*
X0050305Y0043343D01*
G75*
G02*
X0050886Y0042762I0000000J-000581D01*
G01*
G37*
G36*
G01*
X0103032Y0050341D02*
X0103032Y0048982D01*
G75*
G02*
X0102451Y0048402I-000581J0000000D01*
G01*
X0101289Y0048402D01*
G75*
G02*
X0100709Y0048982I0000000J0000581D01*
G01*
X0100709Y0050341D01*
G75*
G02*
X0101289Y0050921I0000581J0000000D01*
G01*
X0102451Y0050921D01*
G75*
G02*
X0103032Y0050341I0000000J-000581D01*
G01*
G37*
G36*
G01*
X0099213Y0050341D02*
X0099213Y0048982D01*
G75*
G02*
X0098632Y0048402I-000581J0000000D01*
G01*
X0097471Y0048402D01*
G75*
G02*
X0096890Y0048982I0000000J0000581D01*
G01*
X0096890Y0050341D01*
G75*
G02*
X0097471Y0050921I0000581J0000000D01*
G01*
X0098632Y0050921D01*
G75*
G02*
X0099213Y0050341I0000000J-000581D01*
G01*
G37*
G36*
G01*
X0050571Y0034888D02*
X0050571Y0033530D01*
G75*
G02*
X0049990Y0032949I-000581J0000000D01*
G01*
X0048829Y0032949D01*
G75*
G02*
X0048248Y0033530I0000000J0000581D01*
G01*
X0048248Y0034888D01*
G75*
G02*
X0048829Y0035468I0000581J0000000D01*
G01*
X0049990Y0035468D01*
G75*
G02*
X0050571Y0034888I0000000J-000581D01*
G01*
G37*
G36*
G01*
X0046752Y0034888D02*
X0046752Y0033530D01*
G75*
G02*
X0046171Y0032949I-000581J0000000D01*
G01*
X0045010Y0032949D01*
G75*
G02*
X0044429Y0033530I0000000J0000581D01*
G01*
X0044429Y0034888D01*
G75*
G02*
X0045010Y0035468I0000581J0000000D01*
G01*
X0046171Y0035468D01*
G75*
G02*
X0046752Y0034888I0000000J-000581D01*
G01*
G37*
G36*
G01*
X0039321Y0010272D02*
X0037963Y0010272D01*
G75*
G02*
X0037382Y0010852I0000000J0000581D01*
G01*
X0037382Y0012014D01*
G75*
G02*
X0037963Y0012594I0000581J0000000D01*
G01*
X0039321Y0012594D01*
G75*
G02*
X0039902Y0012014I0000000J-000581D01*
G01*
X0039902Y0010852D01*
G75*
G02*
X0039321Y0010272I-000581J0000000D01*
G01*
G37*
G36*
G01*
X0039321Y0014091D02*
X0037963Y0014091D01*
G75*
G02*
X0037382Y0014671I0000000J0000581D01*
G01*
X0037382Y0015833D01*
G75*
G02*
X0037963Y0016413I0000581J0000000D01*
G01*
X0039321Y0016413D01*
G75*
G02*
X0039902Y0015833I0000000J-000581D01*
G01*
X0039902Y0014671D01*
G75*
G02*
X0039321Y0014091I-000581J0000000D01*
G01*
G37*
G36*
G01*
X0065433Y0038825D02*
X0065433Y0037467D01*
G75*
G02*
X0064852Y0036886I-000581J0000000D01*
G01*
X0063691Y0036886D01*
G75*
G02*
X0063110Y0037467I0000000J0000581D01*
G01*
X0063110Y0038825D01*
G75*
G02*
X0063691Y0039406I0000581J0000000D01*
G01*
X0064852Y0039406D01*
G75*
G02*
X0065433Y0038825I0000000J-000581D01*
G01*
G37*
G36*
G01*
X0061614Y0038825D02*
X0061614Y0037467D01*
G75*
G02*
X0061034Y0036886I-000581J0000000D01*
G01*
X0059872Y0036886D01*
G75*
G02*
X0059291Y0037467I0000000J0000581D01*
G01*
X0059291Y0038825D01*
G75*
G02*
X0059872Y0039406I0000581J0000000D01*
G01*
X0061034Y0039406D01*
G75*
G02*
X0061614Y0038825I0000000J-000581D01*
G01*
G37*
G36*
G01*
X0066772Y0037467D02*
X0066772Y0038825D01*
G75*
G02*
X0067352Y0039406I0000581J0000000D01*
G01*
X0068514Y0039406D01*
G75*
G02*
X0069095Y0038825I0000000J-000581D01*
G01*
X0069095Y0037467D01*
G75*
G02*
X0068514Y0036886I-000581J0000000D01*
G01*
X0067352Y0036886D01*
G75*
G02*
X0066772Y0037467I0000000J0000581D01*
G01*
G37*
G36*
G01*
X0070591Y0037467D02*
X0070591Y0038825D01*
G75*
G02*
X0071171Y0039406I0000581J0000000D01*
G01*
X0072333Y0039406D01*
G75*
G02*
X0072913Y0038825I0000000J-000581D01*
G01*
X0072913Y0037467D01*
G75*
G02*
X0072333Y0036886I-000581J0000000D01*
G01*
X0071171Y0036886D01*
G75*
G02*
X0070591Y0037467I0000000J0000581D01*
G01*
G37*
G36*
G01*
X0035581Y0010272D02*
X0034222Y0010272D01*
G75*
G02*
X0033642Y0010852I0000000J0000581D01*
G01*
X0033642Y0012014D01*
G75*
G02*
X0034222Y0012594I0000581J0000000D01*
G01*
X0035581Y0012594D01*
G75*
G02*
X0036161Y0012014I0000000J-000581D01*
G01*
X0036161Y0010852D01*
G75*
G02*
X0035581Y0010272I-000581J0000000D01*
G01*
G37*
G36*
G01*
X0035581Y0014091D02*
X0034222Y0014091D01*
G75*
G02*
X0033642Y0014671I0000000J0000581D01*
G01*
X0033642Y0015833D01*
G75*
G02*
X0034222Y0016413I0000581J0000000D01*
G01*
X0035581Y0016413D01*
G75*
G02*
X0036161Y0015833I0000000J-000581D01*
G01*
X0036161Y0014671D01*
G75*
G02*
X0035581Y0014091I-000581J0000000D01*
G01*
G37*
D182*
X0024902Y0059110D03*
X0024902Y0055370D03*
X0024902Y0051630D03*
X0014587Y0051630D03*
X0014587Y0059110D03*
G36*
G01*
X0059390Y0041404D02*
X0059390Y0042762D01*
G75*
G02*
X0059971Y0043343I0000581J0000000D01*
G01*
X0061132Y0043343D01*
G75*
G02*
X0061713Y0042762I0000000J-000581D01*
G01*
X0061713Y0041404D01*
G75*
G02*
X0061132Y0040823I-000581J0000000D01*
G01*
X0059971Y0040823D01*
G75*
G02*
X0059390Y0041404I0000000J0000581D01*
G01*
G37*
G36*
G01*
X0063209Y0041404D02*
X0063209Y0042762D01*
G75*
G02*
X0063789Y0043343I0000581J0000000D01*
G01*
X0064951Y0043343D01*
G75*
G02*
X0065532Y0042762I0000000J-000581D01*
G01*
X0065532Y0041404D01*
G75*
G02*
X0064951Y0040823I-000581J0000000D01*
G01*
X0063789Y0040823D01*
G75*
G02*
X0063209Y0041404I0000000J0000581D01*
G01*
G37*
G36*
G01*
X0046801Y0045508D02*
X0045443Y0045508D01*
G75*
G02*
X0044862Y0046089I0000000J0000581D01*
G01*
X0044862Y0047250D01*
G75*
G02*
X0045443Y0047831I0000581J0000000D01*
G01*
X0046801Y0047831D01*
G75*
G02*
X0047382Y0047250I0000000J-000581D01*
G01*
X0047382Y0046089D01*
G75*
G02*
X0046801Y0045508I-000581J0000000D01*
G01*
G37*
G36*
G01*
X0046801Y0049327D02*
X0045443Y0049327D01*
G75*
G02*
X0044862Y0049907I0000000J0000581D01*
G01*
X0044862Y0051069D01*
G75*
G02*
X0045443Y0051650I0000581J0000000D01*
G01*
X0046801Y0051650D01*
G75*
G02*
X0047382Y0051069I0000000J-000581D01*
G01*
X0047382Y0049907D01*
G75*
G02*
X0046801Y0049327I-000581J0000000D01*
G01*
G37*
G36*
G01*
X0037963Y0025075D02*
X0039321Y0025075D01*
G75*
G02*
X0039902Y0024494I0000000J-000581D01*
G01*
X0039902Y0023333D01*
G75*
G02*
X0039321Y0022752I-000581J0000000D01*
G01*
X0037963Y0022752D01*
G75*
G02*
X0037382Y0023333I0000000J0000581D01*
G01*
X0037382Y0024494D01*
G75*
G02*
X0037963Y0025075I0000581J0000000D01*
G01*
G37*
G36*
G01*
X0037963Y0021256D02*
X0039321Y0021256D01*
G75*
G02*
X0039902Y0020675I0000000J-000581D01*
G01*
X0039902Y0019514D01*
G75*
G02*
X0039321Y0018933I-000581J0000000D01*
G01*
X0037963Y0018933D01*
G75*
G02*
X0037382Y0019514I0000000J0000581D01*
G01*
X0037382Y0020675D01*
G75*
G02*
X0037963Y0021256I0000581J0000000D01*
G01*
G37*
G36*
G01*
X0081083Y0026030D02*
X0081083Y0024671D01*
G75*
G02*
X0080502Y0024091I-000581J0000000D01*
G01*
X0079341Y0024091D01*
G75*
G02*
X0078760Y0024671I0000000J0000581D01*
G01*
X0078760Y0026030D01*
G75*
G02*
X0079341Y0026610I0000581J0000000D01*
G01*
X0080502Y0026610D01*
G75*
G02*
X0081083Y0026030I0000000J-000581D01*
G01*
G37*
G36*
G01*
X0077264Y0026030D02*
X0077264Y0024671D01*
G75*
G02*
X0076683Y0024091I-000581J0000000D01*
G01*
X0075522Y0024091D01*
G75*
G02*
X0074941Y0024671I0000000J0000581D01*
G01*
X0074941Y0026030D01*
G75*
G02*
X0075522Y0026610I0000581J0000000D01*
G01*
X0076683Y0026610D01*
G75*
G02*
X0077264Y0026030I0000000J-000581D01*
G01*
G37*
G36*
G01*
X0088661Y0026030D02*
X0088661Y0024671D01*
G75*
G02*
X0088081Y0024091I-000581J0000000D01*
G01*
X0086919Y0024091D01*
G75*
G02*
X0086339Y0024671I0000000J0000581D01*
G01*
X0086339Y0026030D01*
G75*
G02*
X0086919Y0026610I0000581J0000000D01*
G01*
X0088081Y0026610D01*
G75*
G02*
X0088661Y0026030I0000000J-000581D01*
G01*
G37*
G36*
G01*
X0084843Y0026030D02*
X0084843Y0024671D01*
G75*
G02*
X0084262Y0024091I-000581J0000000D01*
G01*
X0083100Y0024091D01*
G75*
G02*
X0082520Y0024671I0000000J0000581D01*
G01*
X0082520Y0026030D01*
G75*
G02*
X0083100Y0026610I0000581J0000000D01*
G01*
X0084262Y0026610D01*
G75*
G02*
X0084843Y0026030I0000000J-000581D01*
G01*
G37*
G36*
G01*
X0034222Y0025075D02*
X0035581Y0025075D01*
G75*
G02*
X0036161Y0024494I0000000J-000581D01*
G01*
X0036161Y0023333D01*
G75*
G02*
X0035581Y0022752I-000581J0000000D01*
G01*
X0034222Y0022752D01*
G75*
G02*
X0033642Y0023333I0000000J0000581D01*
G01*
X0033642Y0024494D01*
G75*
G02*
X0034222Y0025075I0000581J0000000D01*
G01*
G37*
G36*
G01*
X0034222Y0021256D02*
X0035581Y0021256D01*
G75*
G02*
X0036161Y0020675I0000000J-000581D01*
G01*
X0036161Y0019514D01*
G75*
G02*
X0035581Y0018933I-000581J0000000D01*
G01*
X0034222Y0018933D01*
G75*
G02*
X0033642Y0019514I0000000J0000581D01*
G01*
X0033642Y0020675D01*
G75*
G02*
X0034222Y0021256I0000581J0000000D01*
G01*
G37*
G36*
G01*
X0068583Y0034888D02*
X0068583Y0033530D01*
G75*
G02*
X0068002Y0032949I-000581J0000000D01*
G01*
X0066841Y0032949D01*
G75*
G02*
X0066260Y0033530I0000000J0000581D01*
G01*
X0066260Y0034888D01*
G75*
G02*
X0066841Y0035468I0000581J0000000D01*
G01*
X0068002Y0035468D01*
G75*
G02*
X0068583Y0034888I0000000J-000581D01*
G01*
G37*
G36*
G01*
X0064764Y0034888D02*
X0064764Y0033530D01*
G75*
G02*
X0064183Y0032949I-000581J0000000D01*
G01*
X0063022Y0032949D01*
G75*
G02*
X0062441Y0033530I0000000J0000581D01*
G01*
X0062441Y0034888D01*
G75*
G02*
X0063022Y0035468I0000581J0000000D01*
G01*
X0064183Y0035468D01*
G75*
G02*
X0064764Y0034888I0000000J-000581D01*
G01*
G37*
G36*
G01*
X0030482Y0025075D02*
X0031841Y0025075D01*
G75*
G02*
X0032421Y0024494I0000000J-000581D01*
G01*
X0032421Y0023333D01*
G75*
G02*
X0031841Y0022752I-000581J0000000D01*
G01*
X0030482Y0022752D01*
G75*
G02*
X0029902Y0023333I0000000J0000581D01*
G01*
X0029902Y0024494D01*
G75*
G02*
X0030482Y0025075I0000581J0000000D01*
G01*
G37*
G36*
G01*
X0030482Y0021256D02*
X0031841Y0021256D01*
G75*
G02*
X0032421Y0020675I0000000J-000581D01*
G01*
X0032421Y0019514D01*
G75*
G02*
X0031841Y0018933I-000581J0000000D01*
G01*
X0030482Y0018933D01*
G75*
G02*
X0029902Y0019514I0000000J0000581D01*
G01*
X0029902Y0020675D01*
G75*
G02*
X0030482Y0021256I0000581J0000000D01*
G01*
G37*
G36*
G01*
X0030482Y0016413D02*
X0031841Y0016413D01*
G75*
G02*
X0032421Y0015833I0000000J-000581D01*
G01*
X0032421Y0014671D01*
G75*
G02*
X0031841Y0014091I-000581J0000000D01*
G01*
X0030482Y0014091D01*
G75*
G02*
X0029902Y0014671I0000000J0000581D01*
G01*
X0029902Y0015833D01*
G75*
G02*
X0030482Y0016413I0000581J0000000D01*
G01*
G37*
G36*
G01*
X0030482Y0012594D02*
X0031841Y0012594D01*
G75*
G02*
X0032421Y0012014I0000000J-000581D01*
G01*
X0032421Y0010852D01*
G75*
G02*
X0031841Y0010272I-000581J0000000D01*
G01*
X0030482Y0010272D01*
G75*
G02*
X0029902Y0010852I0000000J0000581D01*
G01*
X0029902Y0012014D01*
G75*
G02*
X0030482Y0012594I0000581J0000000D01*
G01*
G37*
G36*
G01*
X0015669Y0022220D02*
X0015669Y0023559D01*
G75*
G02*
X0016220Y0024110I0000551J0000000D01*
G01*
X0017323Y0024110D01*
G75*
G02*
X0017874Y0023559I0000000J-000551D01*
G01*
X0017874Y0022220D01*
G75*
G02*
X0017323Y0021669I-000551J0000000D01*
G01*
X0016220Y0021669D01*
G75*
G02*
X0015669Y0022220I0000000J0000551D01*
G01*
G37*
G36*
G01*
X0019449Y0022220D02*
X0019449Y0023559D01*
G75*
G02*
X0020000Y0024110I0000551J0000000D01*
G01*
X0021102Y0024110D01*
G75*
G02*
X0021653Y0023559I0000000J-000551D01*
G01*
X0021653Y0022220D01*
G75*
G02*
X0021102Y0021669I-000551J0000000D01*
G01*
X0020000Y0021669D01*
G75*
G02*
X0019449Y0022220I0000000J0000551D01*
G01*
G37*
G36*
G01*
X0070610Y0048480D02*
X0070610Y0047024D01*
G75*
G02*
X0070079Y0046492I-000531J0000000D01*
G01*
X0069016Y0046492D01*
G75*
G02*
X0068484Y0047024I0000000J0000531D01*
G01*
X0068484Y0048480D01*
G75*
G02*
X0069016Y0049012I0000531J0000000D01*
G01*
X0070079Y0049012D01*
G75*
G02*
X0070610Y0048480I0000000J-000531D01*
G01*
G37*
G36*
G01*
X0066595Y0048480D02*
X0066595Y0047024D01*
G75*
G02*
X0066063Y0046492I-000531J0000000D01*
G01*
X0065000Y0046492D01*
G75*
G02*
X0064469Y0047024I0000000J0000531D01*
G01*
X0064469Y0048480D01*
G75*
G02*
X0065000Y0049012I0000531J0000000D01*
G01*
X0066063Y0049012D01*
G75*
G02*
X0066595Y0048480I0000000J-000531D01*
G01*
G37*
G36*
G01*
X0009882Y0033947D02*
X0008425Y0033947D01*
G75*
G02*
X0007894Y0034479I0000000J0000531D01*
G01*
X0007894Y0035542D01*
G75*
G02*
X0008425Y0036073I0000531J0000000D01*
G01*
X0009882Y0036073D01*
G75*
G02*
X0010413Y0035542I0000000J-000531D01*
G01*
X0010413Y0034479D01*
G75*
G02*
X0009882Y0033947I-000531J0000000D01*
G01*
G37*
G36*
G01*
X0009882Y0037963D02*
X0008425Y0037963D01*
G75*
G02*
X0007894Y0038495I0000000J0000531D01*
G01*
X0007894Y0039558D01*
G75*
G02*
X0008425Y0040089I0000531J0000000D01*
G01*
X0009882Y0040089D01*
G75*
G02*
X0010413Y0039558I0000000J-000531D01*
G01*
X0010413Y0038495D01*
G75*
G02*
X0009882Y0037963I-000531J0000000D01*
G01*
G37*
G36*
G01*
X0010492Y0009996D02*
X0010492Y0011177D01*
G75*
G02*
X0011083Y0011768I0000591J0000000D01*
G01*
X0015709Y0011768D01*
G75*
G02*
X0016299Y0011177I0000000J-000591D01*
G01*
X0016299Y0009996D01*
G75*
G02*
X0015709Y0009406I-000591J0000000D01*
G01*
X0011083Y0009406D01*
G75*
G02*
X0010492Y0009996I0000000J0000591D01*
G01*
G37*
G36*
G01*
X0010492Y0017476D02*
X0010492Y0018657D01*
G75*
G02*
X0011083Y0019248I0000591J0000000D01*
G01*
X0015709Y0019248D01*
G75*
G02*
X0016299Y0018657I0000000J-000591D01*
G01*
X0016299Y0017476D01*
G75*
G02*
X0015709Y0016886I-000591J0000000D01*
G01*
X0011083Y0016886D01*
G75*
G02*
X0010492Y0017476I0000000J0000591D01*
G01*
G37*
G36*
G01*
X0017874Y0013736D02*
X0017874Y0014917D01*
G75*
G02*
X0018465Y0015508I0000591J0000000D01*
G01*
X0023091Y0015508D01*
G75*
G02*
X0023681Y0014917I0000000J-000591D01*
G01*
X0023681Y0013736D01*
G75*
G02*
X0023091Y0013146I-000591J0000000D01*
G01*
X0018465Y0013146D01*
G75*
G02*
X0017874Y0013736I0000000J0000591D01*
G01*
G37*
G36*
G01*
X0008445Y0047928D02*
X0009784Y0047928D01*
G75*
G02*
X0010335Y0047376I0000000J-000551D01*
G01*
X0010335Y0046274D01*
G75*
G02*
X0009784Y0045723I-000551J0000000D01*
G01*
X0008445Y0045723D01*
G75*
G02*
X0007894Y0046274I0000000J0000551D01*
G01*
X0007894Y0047376D01*
G75*
G02*
X0008445Y0047928I0000551J0000000D01*
G01*
G37*
G36*
G01*
X0008445Y0044148D02*
X0009784Y0044148D01*
G75*
G02*
X0010335Y0043597I0000000J-000551D01*
G01*
X0010335Y0042495D01*
G75*
G02*
X0009784Y0041943I-000551J0000000D01*
G01*
X0008445Y0041943D01*
G75*
G02*
X0007894Y0042495I0000000J0000551D01*
G01*
X0007894Y0043597D01*
G75*
G02*
X0008445Y0044148I0000551J0000000D01*
G01*
G37*
G36*
G01*
X0039232Y0044857D02*
X0039232Y0043676D01*
G75*
G02*
X0038642Y0043085I-000591J0000000D01*
G01*
X0032933Y0043085D01*
G75*
G02*
X0032343Y0043676I0000000J0000591D01*
G01*
X0032343Y0044857D01*
G75*
G02*
X0032933Y0045447I0000591J0000000D01*
G01*
X0038642Y0045447D01*
G75*
G02*
X0039232Y0044857I0000000J-000591D01*
G01*
G37*
G36*
G01*
X0039232Y0039857D02*
X0039232Y0038676D01*
G75*
G02*
X0038642Y0038085I-000591J0000000D01*
G01*
X0032933Y0038085D01*
G75*
G02*
X0032343Y0038676I0000000J0000591D01*
G01*
X0032343Y0039857D01*
G75*
G02*
X0032933Y0040447I0000591J0000000D01*
G01*
X0038642Y0040447D01*
G75*
G02*
X0039232Y0039857I0000000J-000591D01*
G01*
G37*
G36*
G01*
X0039232Y0034857D02*
X0039232Y0033676D01*
G75*
G02*
X0038642Y0033085I-000591J0000000D01*
G01*
X0032933Y0033085D01*
G75*
G02*
X0032343Y0033676I0000000J0000591D01*
G01*
X0032343Y0034857D01*
G75*
G02*
X0032933Y0035447I0000591J0000000D01*
G01*
X0038642Y0035447D01*
G75*
G02*
X0039232Y0034857I0000000J-000591D01*
G01*
G37*
G36*
G01*
X0039232Y0029857D02*
X0039232Y0028676D01*
G75*
G02*
X0038642Y0028085I-000591J0000000D01*
G01*
X0032933Y0028085D01*
G75*
G02*
X0032343Y0028676I0000000J0000591D01*
G01*
X0032343Y0029857D01*
G75*
G02*
X0032933Y0030447I0000591J0000000D01*
G01*
X0038642Y0030447D01*
G75*
G02*
X0039232Y0029857I0000000J-000591D01*
G01*
G37*
G36*
G01*
X0018957Y0029857D02*
X0018957Y0028676D01*
G75*
G02*
X0018366Y0028085I-000591J0000000D01*
G01*
X0012658Y0028085D01*
G75*
G02*
X0012067Y0028676I0000000J0000591D01*
G01*
X0012067Y0029857D01*
G75*
G02*
X0012658Y0030447I0000591J0000000D01*
G01*
X0018366Y0030447D01*
G75*
G02*
X0018957Y0029857I0000000J-000591D01*
G01*
G37*
G36*
G01*
X0018957Y0034857D02*
X0018957Y0033676D01*
G75*
G02*
X0018366Y0033085I-000591J0000000D01*
G01*
X0012658Y0033085D01*
G75*
G02*
X0012067Y0033676I0000000J0000591D01*
G01*
X0012067Y0034857D01*
G75*
G02*
X0012658Y0035447I0000591J0000000D01*
G01*
X0018366Y0035447D01*
G75*
G02*
X0018957Y0034857I0000000J-000591D01*
G01*
G37*
G36*
G01*
X0018957Y0039857D02*
X0018957Y0038676D01*
G75*
G02*
X0018366Y0038085I-000591J0000000D01*
G01*
X0012658Y0038085D01*
G75*
G02*
X0012067Y0038676I0000000J0000591D01*
G01*
X0012067Y0039857D01*
G75*
G02*
X0012658Y0040447I0000591J0000000D01*
G01*
X0018366Y0040447D01*
G75*
G02*
X0018957Y0039857I0000000J-000591D01*
G01*
G37*
G36*
G01*
X0018957Y0044857D02*
X0018957Y0043676D01*
G75*
G02*
X0018366Y0043085I-000591J0000000D01*
G01*
X0012658Y0043085D01*
G75*
G02*
X0012067Y0043676I0000000J0000591D01*
G01*
X0012067Y0044857D01*
G75*
G02*
X0012658Y0045447I0000591J0000000D01*
G01*
X0018366Y0045447D01*
G75*
G02*
X0018957Y0044857I0000000J-000591D01*
G01*
G37*
X0105583Y0262260D02*
%LPD*%
G01*
D10*
X0163851Y0289425D03*
X0163851Y0284701D03*
X0163851Y0294150D03*
X0163851Y0298874D03*
X0107059Y0273441D03*
X0107059Y0269504D03*
X0017398Y0301673D02*
G01*
G75*
D315*
X0093776Y0271758D02*
D03*
X0093776Y0284750D02*
D03*
D316*
X0094170Y0251898D02*
D03*
X0094170Y0263315D02*
D03*
X0086138Y0251898D02*
D03*
X0086138Y0263315D02*
D03*
D319*
X0072122Y0289271D02*
D03*
X0076059Y0289271D02*
D03*
X0086689Y0292618D02*
D03*
X0086689Y0283956D02*
D03*
X0081441Y0293405D02*
D03*
X0081441Y0284744D02*
D03*
D320*
X0028815Y0281518D02*
D03*
X0028815Y0285062D02*
D03*
X0065548Y0272127D02*
D03*
X0065548Y0268583D02*
D03*
X0080653Y0280124D02*
D03*
X0080653Y0276581D02*
D03*
X0028815Y0272900D02*
D03*
X0028815Y0276443D02*
D03*
X0032752Y0293405D02*
D03*
X0032752Y0289862D02*
D03*
D321*
X0082228Y0267920D02*
D03*
X0085772Y0267920D02*
D03*
X0094630Y0288687D02*
D03*
X0091086Y0288687D02*
D03*
X0036313Y0239923D02*
D03*
X0039857Y0239923D02*
D03*
D162*
X0035508Y0235925D02*
D03*
X0031571Y0235925D02*
D03*
D210*
X0089051Y0298720D02*
D03*
X0022122Y0298720D02*
D03*
X0069563Y0298720D02*
D03*
X0069366Y0237697D02*
D03*
X0094563Y0237697D02*
D03*
X0044957Y0237697D02*
D03*
X0061886Y0237697D02*
D03*
X0020351Y0237697D02*
D03*
X0096335Y0298720D02*
D03*
D327*
X0095351Y0243799D02*
D03*
X0086689Y0243799D02*
D03*
X0032752Y0281715D02*
D03*
X0032752Y0285652D02*
D03*
X0032752Y0277034D02*
D03*
X0032752Y0273097D02*
D03*
X0086689Y0280321D02*
D03*
X0086689Y0276384D02*
D03*
X0065075Y0257388D02*
D03*
X0065075Y0253451D02*
D03*
X0027634Y0249612D02*
D03*
X0027634Y0253550D02*
D03*
D328*
X0073697Y0252460D02*
D03*
X0073697Y0263484D02*
D03*
D329*
X0069374Y0285138D02*
D03*
X0075594Y0285138D02*
D03*
X0069374Y0271044D02*
D03*
X0075594Y0271044D02*
D03*
X0069374Y0275735D02*
D03*
X0075594Y0275735D02*
D03*
X0069374Y0280427D02*
D03*
X0075594Y0280427D02*
D03*
X0081618Y0272225D02*
D03*
X0087839Y0272225D02*
D03*
D257*
X0039512Y0276601D02*
D03*
X0039512Y0281601D02*
D03*
X0039512Y0286601D02*
D03*
X0039512Y0291601D02*
D03*
X0062149Y0276601D02*
D03*
X0062149Y0281601D02*
D03*
X0062149Y0286601D02*
D03*
X0062149Y0291601D02*
D03*
X0034229Y0253534D02*
D03*
X0034229Y0258534D02*
D03*
X0034229Y0263534D02*
D03*
X0034229Y0268534D02*
D03*
X0057654Y0253534D02*
D03*
X0057654Y0258534D02*
D03*
X0057654Y0263534D02*
D03*
X0057654Y0268534D02*
D03*
D330*
X0050830Y0284101D02*
D03*
D331*
X0045941Y0261034D02*
D03*
M02*
