M48
INCH,TZ
T01C0.011800
T02C0.031500
T03C0.039200
T04C0.043300
%
T01
X14736Y23387
X15110Y23387
X15130Y26813
X15484Y26813
X15484Y23387
X15743Y9848
X16137Y9848
X16530Y9848
X16845Y29172
X16924Y9848
X17239Y29172
X17851Y20317
X18251Y20317
X18365Y23493
X18837Y23493
X19148Y20317
X19309Y23493
X19542Y20317
X19782Y23493
X19936Y20317
X23883Y12584
X23883Y12191
X23883Y26757
X23883Y22151
X23883Y21836
X23883Y20616
X23883Y20222
X23883Y19828
X23883Y19435
X23883Y19041
X23883Y18647
X23883Y18254
X23883Y17860
X23883Y15104
X24040Y11206
X24985Y11206
X25457Y11206
X25930Y11206
X26245Y26757
X26402Y11206
X26560Y26757
X26875Y26757
X26875Y11206
X27347Y11206
X27820Y11206
X28292Y11206
X28765Y11206
X29237Y11206
X29709Y11206
X29946Y26757
X30182Y11206
X30261Y26757
X30576Y26757
X30654Y11206
X30891Y26757
X31127Y11206
X31206Y26757
X31599Y11206
X32072Y11206
X32544Y11206
X33017Y11206
X33371Y26757
X33489Y11206
X33686Y26757
X33961Y11206
X34001Y26757
X34316Y26757
X34434Y11206
X34631Y26757
X34906Y11206
X34946Y26757
X35261Y26757
X35379Y11206
X35576Y26757
X35851Y11206
X35891Y26757
X36206Y26757
X36324Y11206
X36520Y26757
X36796Y11206
X36835Y26757
X37150Y26757
X37269Y11206
X37465Y26757
X37741Y11206
X37780Y26757
X38095Y26757
X38174Y11206
X38410Y26757
X38646Y11206
X38725Y26757
X39040Y26757
X39119Y11206
X39355Y26757
X39591Y11206
X39670Y26757
X39985Y26757
X40064Y11206
X40300Y24159
X40300Y23844
X40300Y22269
X40300Y21954
X40300Y21639
X40300Y20380
X40300Y20065
X40300Y16600
X40300Y12387
X40300Y26757
X40300Y25734
X40300Y25419
X40300Y25104
X40300Y24789
X40300Y24474
X40300Y23529
X40300Y23214
X40300Y22899
X40300Y22584
X40300Y21324
X40300Y21009
X40300Y20694
X40300Y19750
X40300Y19435
X40300Y19120
X40300Y18805
X40300Y18490
X40300Y18175
X40300Y17860
X40300Y17545
X40300Y17230
X40300Y16915
X40300Y16285
X40300Y15970
X40300Y15655
X40300Y15340
X40300Y15025
X40300Y12072
X24041Y11206
X24508Y11211
X24756Y11376
X24985Y11206
X25229Y11376
X25458Y11206
X25701Y11376
X25930Y11206
X26174Y11376
X26403Y11206
X26646Y11376
X26875Y11206
X27118Y11376
X27348Y11206
X27591Y11376
X27820Y11206
X28063Y11376
X28293Y11206
X28536Y11376
X28765Y11206
X29008Y11376
X29237Y11206
X29481Y11376
X29710Y11206
X29953Y11376
X30182Y11206
X30655Y11206
X30556Y11501
X30812Y11679
X31127Y11206
X31600Y11206
X32072Y11206
X32545Y11206
X33017Y11206
X33489Y11206
X33962Y11206
X34434Y11206
X34907Y11206
X35379Y11206
X35852Y11206
X36324Y11206
X36797Y11206
X37269Y11206
X37741Y11206
X38174Y11206
X38647Y11206
X39119Y11206
X39237Y11560
X38470Y11619
X37663Y11600
X38214Y12466
X38293Y14395
X37584Y14395
X36639Y14395
X35930Y14395
X36167Y15340
X37111Y15340
X37584Y15812
X38174Y15576
X38056Y16285
X38647Y16049
X39237Y16285
X39001Y17230
X38529Y17702
X38529Y16757
X38056Y17230
X37584Y17702
X37584Y18647
X38293Y18647
X38765Y19119
X37820Y19592
X37111Y19592
X36915Y19356
X36875Y18647
X36167Y18647
X35812Y18450
X35556Y18844
X34808Y18785
X34808Y19070
X34830Y19640
X35556Y19907
X36521Y19828
X35655Y21050
X35694Y22623
X36068Y23017
X36304Y23234
X36639Y23371
X37938Y23273
X38293Y22899
X38411Y23608
X39078Y23824
X39060Y23273
X39356Y24229
X39060Y25005
X37820Y25261
X37446Y25458
X37938Y25970
X38064Y24486
X35812Y24080
X35694Y24789
X36048Y25497
X34867Y25497
X34749Y25222
X34178Y24730
X33844Y24730
X33450Y25261
X32958Y24946
X32466Y24375
X31442Y24041
X30950Y23686
X30950Y23096
X31435Y23071
X31720Y23072
X32033Y23135
X32052Y22171
X31610Y22025
X31576Y22308
X31864Y21690
X32663Y21777
X32879Y21580
X32505Y20301
X32387Y19592
X32820Y19749
X33037Y19946
X33161Y18847
X33463Y18799
X32978Y18627
X32682Y18568
X32367Y18549
X31541Y18554
X30970Y18647
X30379Y18411
X30419Y17850
X30438Y17525
X31147Y17407
X31226Y16856
X31052Y16131
X30766Y16127
X30282Y16332
X30222Y15596
X30202Y15261
X30182Y14946
X30852Y15104
X31147Y15104
X31009Y14671
X31816Y14966
X31796Y15596
X31757Y16403
X32151Y16757
X32033Y17230
X32131Y17525
X32702Y17604
X32741Y16521
X33056Y16816
X33332Y16285
X33804Y15812
X34395Y16049
X34493Y16757
X34001Y16757
X34985Y17230
X34769Y17486
X35458Y17702
X36403Y17702
X35930Y17230
X35458Y16757
X34985Y16285
X34985Y15340
X34277Y15340
X34513Y14395
X33922Y14159
X33804Y13450
X34513Y13450
X34985Y13923
X35694Y13450
X36403Y13450
X36639Y15812
X37111Y16285
X37584Y16757
X37111Y17230
X36639Y16757
X36167Y16285
X35694Y15812
X33568Y14868
X33332Y13923
X32623Y13923
X32505Y14631
X31915Y14395
X32033Y13686
X31442Y13923
X30852Y13686
X29380Y13903
X28415Y13814
X27585Y13966
X27552Y12890
X27126Y12890
X26560Y12702
X26245Y12702
X26403Y12387
X25663Y12890
X25236Y12890
X24671Y12702
X23883Y12584
X23883Y12190
X23942Y11619
X24237Y11619
X23962Y13234
X24237Y14179
X23962Y14513
X23883Y15104
X24011Y15596
X24631Y15596
X24592Y14946
X25556Y15104
X26231Y14961
X26206Y15596
X26167Y16403
X25891Y16994
X26482Y17230
X26245Y18175
X25537Y18175
X25025Y17879
X24926Y18431
X24277Y18431
X23883Y18253
X23883Y18647
X23883Y19041
X23883Y19434
X23883Y19828
X23883Y20222
X23883Y20616
X23982Y20950
X24592Y20694
X24907Y20655
X25241Y20871
X25143Y19986
X25793Y19887
X25694Y19553
X25379Y18824
X25300Y17230
X25176Y16127
X25461Y16131
X24692Y16332
X24119Y16757
X24001Y17466
X23883Y17860
X26836Y18411
X27800Y18312
X27978Y18982
X27663Y19474
X27308Y19257
X27879Y20064
X28569Y20270
X28489Y20753
X29493Y20734
X29493Y21305
X29493Y21600
X29489Y22289
X29474Y23155
X30300Y23371
X30025Y24139
X29178Y24139
X29493Y24868
X29141Y25222
X29060Y25517
X28588Y25517
X28096Y25517
X27781Y25497
X27978Y25222
X28106Y24897
X28037Y23942
X27997Y23332
X27850Y22722
X28539Y22682
X28529Y22289
X28539Y21876
X27850Y21875
X27072Y21718
X26875Y21242
X26875Y20950
X26895Y20655
X26740Y22511
X26851Y22935
X25861Y23334
X24966Y23352
X24926Y23647
X24887Y24533
X24710Y25478
X24021Y25242
X24080Y23805
X24159Y23017
X23883Y22151
X23883Y21836
X25281Y22407
X25773Y22249
X25852Y21921
X26324Y24238
X26324Y25132
X27058Y25382
X26811Y25952
X27722Y26659
X28135Y26620
X28489Y26659
X29159Y26482
X30615Y26442
X31915Y26639
X32426Y26364
X32938Y26620
X34159Y26442
X36482Y26364
X37111Y22427
X37584Y21954
X38174Y21718
X39100Y21600
X39084Y20953
X38883Y22190
X36934Y21600
X34672Y22346
X34946Y22860
X34217Y22812
X33903Y22308
X33804Y23371
X33468Y23155
X31442Y21009
X30950Y20891
X30950Y21177
X30300Y21482
X30267Y20211
X30241Y19927
X29513Y19789
X29178Y18332
X28824Y17860
X28253Y17466
X27781Y16994
X27487Y16332
X27971Y16127
X28256Y16131
X28962Y16403
X29316Y16757
X29434Y17466
X29001Y15596
X29021Y14651
X28352Y15104
X28056Y15104
X27382Y14946
X27426Y15596
X26525Y13814
X25930Y14139
X25620Y13903
X24649Y13814
X28135Y12702
X28473Y12680
X29155Y12900
X29442Y12890
X30025Y12702
X32859Y15340
X33883Y18214
X31796Y19356
X30733Y24789
X30063Y25494
X25419Y26639
X34710Y11679
X39592Y11206
X40064Y11206
X40163Y11560
X40300Y12072
X40300Y12387
X40222Y12722
X39700Y12072
X40163Y14631
X40300Y15025
X40300Y15340
X40300Y15655
X40300Y15970
X40300Y16285
X40300Y16600
X40300Y16915
X40300Y17230
X40300Y17545
X40300Y17860
X40300Y18175
X40300Y18490
X40300Y18805
X40300Y19119
X40300Y19434
X40300Y19749
X40300Y20064
X40300Y20379
X40300Y20694
X40300Y21009
X40300Y21324
X40300Y21639
X40300Y21954
X40300Y22269
X40300Y22584
X40300Y22899
X40300Y23214
X40300Y23529
X40300Y23844
X40300Y24159
X40300Y24474
X40300Y24789
X40300Y25104
X40300Y25419
X40300Y25734
X40202Y26226
X39434Y25990
X39434Y25025
X39651Y19671
X39651Y18923
X39474Y17702
X39710Y16757
X39710Y15812
X39671Y26757
X39985Y26757
X40300Y26757
X39356Y26757
X39041Y26757
X38726Y26757
X38411Y26757
X38096Y26757
X37781Y26757
X37466Y26757
X37151Y26757
X36836Y26757
X36521Y26757
X36206Y26757
X35891Y26757
X35576Y26757
X35261Y26757
X34946Y26757
X34631Y26757
X34316Y26757
X34001Y26757
X33686Y26757
X33371Y26757
X31206Y26757
X30891Y26757
X30576Y26757
X30261Y26757
X29946Y26757
X29651Y26718
X26875Y26757
X26560Y26757
X26245Y26757
X23883Y26757
X17475Y20380
X20405Y20305
X18735Y20261
X15369Y20261
X15559Y20028
X16839Y19972
X17150Y19972
X20173Y19818
X18582Y19590
X19280Y19498
X16652Y19435
X15719Y19298
X15447Y19006
X20487Y18903
X19850Y18857
X19473Y18815
X18166Y18740
X16929Y18736
X15408Y18460
X17494Y18379
X16205Y18254
X18154Y18194
X19201Y18185
X17444Y18076
X15369Y17978
X20492Y17181
X16176Y17013
X17981Y16723
X18920Y16493
X17420Y16492
X18213Y16491
X18456Y16285
X15270Y16265
X18115Y16207
X19492Y15900
X17357Y15692
X19441Y15603
X15300Y15478
X18794Y15462
X19447Y15293
X16014Y15275
X17396Y15202
X18396Y15143
X19071Y14990
X16097Y14986
X16830Y14685
X19796Y14667
X20097Y14659
X15290Y14287
X19928Y14080
X20513Y14055
X19629Y14046
X20294Y13789
X18652Y13651
X17805Y13605
X17292Y13535
X16392Y13535
X16091Y13535
X15790Y13535
X15489Y13535
X16884Y13531
X18420Y13155
X18203Y12899
X15248Y10824
X16997Y10607
X20250Y10567
X19837Y10419
X16904Y10320
X19256Y10281
X18981Y10281
X18705Y10281
X19817Y10104
X15241Y10084
X19256Y9976
X18981Y9976
X20231Y9779
X19936Y20317
X19542Y20317
X19148Y20317
X18250Y20317
X17850Y20317
X16924Y9848
X16530Y9848
X16136Y9848
X15743Y9848
X18344Y29044
X16376Y29044
X19683Y29005
X18266Y28178
X17203Y28021
X16376Y27903
X19683Y27666
X18777Y27273
X17793Y27233
X17163Y26682
X16376Y26643
X19683Y26249
X18974Y26013
X16376Y25934
X18283Y25848
X16730Y25422
X17596Y24911
X16651Y24674
X19683Y24517
X16376Y24202
X18858Y23884
X17990Y23611
X16651Y23611
X17238Y29172
X16844Y29172
X19781Y23493
X19309Y23493
X18837Y23493
X18364Y23493
X14590Y26807
X14843Y26655
X15130Y26813
X15485Y26813
X15151Y25811
X15046Y25537
X15259Y25294
X14746Y25844
X15486Y24365
X15485Y23388
X15111Y23388
X14737Y23388
T02
X33214Y13450
X33214Y14631
X33214Y15812
X35182Y15812
X35182Y14631
X35182Y13450
X37151Y13450
X37151Y14631
X37151Y15812
X39119Y15812
X39119Y14631
X39119Y13450
T03
X24198Y26442
X27340Y25682
X27340Y26482
X29340Y26082
X16254Y12994
X17436Y12206
X16254Y11419
X16176Y20120
X16576Y18120
X15776Y18120
T04
X7700Y32591
X7700Y31409
X7700Y30228
X7700Y29047
X7700Y27866
X7700Y26685
X7700Y25504
X7700Y24323
X7700Y21173
X7700Y19992
X7700Y18811
X7700Y17630
X7700Y16449
X7700Y15268
X7700Y14087
X7700Y12906
X7700Y11724
X7700Y10543
X7700Y9362
X7700Y8181
X7700Y7000
X9472Y32591
X9472Y31409
X9472Y30228
X9472Y29047
X9472Y27866
X9472Y26685
X9472Y25504
X9472Y24323
X9472Y21173
X9472Y19992
X9472Y18811
X9472Y17630
X9472Y16449
X9472Y15268
X9472Y14087
X9472Y12906
X9472Y11724
X9472Y10543
X9472Y9362
X9472Y8181
X9472Y7000
X20063Y13171
X20063Y12171
X20063Y11171
M30
