G75*
G70*
%OFA0B0*%
%FSLAX25Y25*%
%IPPOS*%
%LPD*%
%AMOC8*
5,1,8,0,0,1.08239X$1,22.5*
%
%ADD10C,0.02362*%
%ADD11R,0.24350X0.00984*%
%ADD12R,0.04390X0.00984*%
%ADD13R,0.00984X0.56201*%
%ADD14R,0.00984X0.59449*%
%ADD140C,0.05118*%
%ADD15R,0.20374X0.00984*%
%ADD16O,0.04823X0.00787*%
%ADD17O,0.00787X0.36614*%
%ADD18R,0.00787X0.09055*%
%ADD182R,0.07874X0.07500*%
%ADD183O,0.07874X0.07500*%
%ADD19R,0.00787X0.42126*%
%ADD20R,0.00787X0.08268*%
%ADD21R,0.00787X0.23622*%
%ADD22R,0.00787X0.21260*%
%ADD23R,0.05512X0.00787*%
%ADD24R,0.19685X0.00787*%
%ADD25R,0.26772X0.00787*%
%ADD26R,0.17717X0.00787*%
%ADD27R,0.00787X0.06299*%
%ADD28R,0.00787X0.22441*%
%ADD29R,0.00787X0.07874*%
%ADD30C,0.02756*%
%ADD33R,0.04331X0.00984*%
%ADD34R,0.03858X0.00984*%
%ADD36R,0.00984X1.08661*%
%ADD38R,0.03740X0.00984*%
%ADD41R,0.24803X0.00984*%
%ADD42R,0.34449X0.00984*%
X0000000Y0000000D02*
%LPD*%
G01*
D10*
X0118819Y0211929D03*
X0114094Y0211929D03*
X0123543Y0211929D03*
X0128268Y0211929D03*
D11*
X0117766Y0269606D03*
D12*
X0093947Y0269606D03*
D13*
X0129449Y0241998D03*
D14*
X0092244Y0240374D03*
D15*
X0101939Y0211142D03*
D10*
X0102835Y0268720D03*
X0098898Y0268720D03*
X0127480Y0170000D03*
D16*
X0119705Y0205039D03*
D17*
X0129843Y0187126D03*
X0117638Y0187126D03*
D10*
X0123740Y0170000D03*
X0120000Y0170000D03*
X0123937Y0204252D03*
X0127480Y0204252D03*
X0359213Y0262520D03*
X0359213Y0259370D03*
X0359213Y0256220D03*
X0359213Y0253071D03*
X0359213Y0249921D03*
X0359213Y0246772D03*
X0359213Y0243622D03*
X0359213Y0240472D03*
X0359213Y0237323D03*
X0359213Y0234173D03*
X0359213Y0231024D03*
X0359213Y0227874D03*
X0359213Y0224724D03*
X0359213Y0221575D03*
X0359213Y0218425D03*
X0359213Y0215276D03*
X0359213Y0212126D03*
X0359213Y0208976D03*
X0359213Y0205827D03*
X0359213Y0202677D03*
X0359213Y0199528D03*
X0359213Y0196378D03*
X0359213Y0193228D03*
X0359213Y0190079D03*
X0359213Y0186929D03*
X0359213Y0183780D03*
X0359213Y0180630D03*
X0359213Y0177480D03*
X0359213Y0174331D03*
X0359213Y0171181D03*
X0359213Y0168031D03*
X0359213Y0164882D03*
X0359213Y0161732D03*
X0359213Y0158583D03*
X0359213Y0155433D03*
X0359213Y0129055D03*
X0359213Y0125906D03*
D18*
X0194252Y0120591D03*
D19*
X0194252Y0249724D03*
D20*
X0194252Y0217441D03*
D21*
X0194252Y0170000D03*
D22*
X0194252Y0143622D03*
D23*
X0201339Y0116457D03*
D24*
X0206850Y0273543D03*
D25*
X0240315Y0273543D03*
D26*
X0279095Y0273543D03*
D27*
X0360000Y0267638D03*
D28*
X0360000Y0142244D03*
D29*
X0360000Y0120000D03*
D10*
X0359213Y0272756D03*
X0356063Y0272756D03*
X0352913Y0272756D03*
X0349764Y0272756D03*
X0346614Y0272756D03*
X0343465Y0272756D03*
X0340315Y0272756D03*
X0337165Y0272756D03*
X0334016Y0272756D03*
X0330866Y0272756D03*
X0327717Y0272756D03*
X0324567Y0272756D03*
X0321417Y0272756D03*
X0318268Y0272756D03*
X0315118Y0272756D03*
X0311968Y0272756D03*
X0308819Y0272756D03*
X0305669Y0272756D03*
X0302520Y0272756D03*
X0299370Y0272756D03*
X0296220Y0272756D03*
X0293071Y0272756D03*
X0289921Y0272756D03*
X0268268Y0272756D03*
X0265118Y0272756D03*
X0261969Y0272756D03*
X0258819Y0272756D03*
X0255669Y0272756D03*
X0224961Y0272756D03*
X0221811Y0272756D03*
X0218661Y0272756D03*
X0195039Y0272756D03*
X0356850Y0117244D03*
X0352126Y0117244D03*
X0347402Y0117244D03*
X0342677Y0117244D03*
X0337953Y0117244D03*
X0333622Y0117244D03*
X0328898Y0117244D03*
X0324173Y0117244D03*
X0319449Y0117244D03*
X0314724Y0117244D03*
X0310000Y0117244D03*
X0305276Y0117244D03*
X0300551Y0117244D03*
X0295827Y0117244D03*
X0291102Y0117244D03*
X0286378Y0117244D03*
X0281654Y0117244D03*
X0276929Y0117244D03*
X0272205Y0117244D03*
X0267480Y0117244D03*
X0262756Y0117244D03*
X0258032Y0117244D03*
X0253307Y0117244D03*
X0248583Y0117244D03*
X0243858Y0117244D03*
X0239134Y0117244D03*
X0234409Y0117244D03*
X0229685Y0117244D03*
X0224961Y0117244D03*
X0220236Y0117244D03*
X0215512Y0117244D03*
X0210787Y0117244D03*
X0206063Y0117244D03*
X0196614Y0117244D03*
X0195039Y0127087D03*
X0195039Y0131024D03*
X0195039Y0156220D03*
X0195039Y0183780D03*
X0195039Y0187717D03*
X0195039Y0191654D03*
X0195039Y0195591D03*
X0195039Y0199528D03*
X0195039Y0203465D03*
X0195039Y0207402D03*
X0195039Y0211339D03*
X0195039Y0223543D03*
X0195039Y0226693D03*
D30*
X0141654Y0163307D03*
X0153465Y0163307D03*
X0149528Y0163307D03*
X0145591Y0163307D03*
D33*
X0188307Y0269508D03*
X0188307Y0269508D03*
D34*
X0171220Y0269508D03*
D41*
X0147756Y0269508D03*
D36*
X0189980Y0215669D03*
X0135846Y0215669D03*
D42*
X0173248Y0161831D03*
D38*
X0137224Y0161831D03*
D30*
X0179646Y0267997D03*
X0175709Y0267997D03*
X0162732Y0267997D03*
X0166732Y0267997D03*
X0183583Y0267997D03*
X0193858Y0116063D02*
G01*
G75*
G36*
X0288167Y0273150D02*
X0288149Y0273108D01*
X0288149Y0272404D01*
X0288419Y0271752D01*
X0288918Y0271254D01*
X0289569Y0270984D01*
X0290273Y0270984D01*
X0290925Y0271254D01*
X0290981Y0271311D01*
X0291496Y0271698D01*
X0292010Y0271311D01*
X0292067Y0271254D01*
X0292718Y0270984D01*
X0293423Y0270984D01*
X0294074Y0271254D01*
X0294131Y0271311D01*
X0294645Y0271698D01*
X0295160Y0271311D01*
X0295217Y0271254D01*
X0295868Y0270984D01*
X0296573Y0270984D01*
X0297224Y0271254D01*
X0297281Y0271311D01*
X0297795Y0271698D01*
X0298309Y0271311D01*
X0298366Y0271254D01*
X0299017Y0270984D01*
X0299722Y0270984D01*
X0300373Y0271254D01*
X0300430Y0271311D01*
X0300945Y0271698D01*
X0301459Y0271311D01*
X0301516Y0271254D01*
X0302167Y0270984D01*
X0302872Y0270984D01*
X0303523Y0271254D01*
X0303580Y0271311D01*
X0304094Y0271698D01*
X0304609Y0271311D01*
X0304666Y0271254D01*
X0305317Y0270984D01*
X0306021Y0270984D01*
X0306673Y0271254D01*
X0306730Y0271311D01*
X0307244Y0271698D01*
X0307758Y0271311D01*
X0307815Y0271254D01*
X0308466Y0270984D01*
X0309171Y0270984D01*
X0309822Y0271254D01*
X0309879Y0271311D01*
X0310393Y0271698D01*
X0310908Y0271311D01*
X0310965Y0271254D01*
X0311616Y0270984D01*
X0312321Y0270984D01*
X0312972Y0271254D01*
X0313029Y0271311D01*
X0313543Y0271698D01*
X0314058Y0271311D01*
X0314114Y0271254D01*
X0314765Y0270984D01*
X0315470Y0270984D01*
X0316121Y0271254D01*
X0316178Y0271311D01*
X0316693Y0271698D01*
X0317207Y0271311D01*
X0317264Y0271254D01*
X0317915Y0270984D01*
X0318620Y0270984D01*
X0319271Y0271254D01*
X0319328Y0271311D01*
X0319676Y0271573D01*
X0320327Y0271170D01*
X0320273Y0270426D01*
X0320020Y0270321D01*
X0319521Y0269823D01*
X0319252Y0269171D01*
X0319252Y0268466D01*
X0319521Y0267815D01*
X0320020Y0267317D01*
X0320671Y0267047D01*
X0321376Y0267047D01*
X0322027Y0267317D01*
X0322525Y0267815D01*
X0322795Y0268466D01*
X0322795Y0269171D01*
X0322525Y0269823D01*
X0322085Y0270263D01*
X0322068Y0270654D01*
X0322126Y0271132D01*
X0322421Y0271254D01*
X0322478Y0271311D01*
X0322992Y0271698D01*
X0323506Y0271311D01*
X0323563Y0271254D01*
X0324214Y0270984D01*
X0324919Y0270984D01*
X0325570Y0271254D01*
X0325627Y0271311D01*
X0326141Y0271698D01*
X0326656Y0271311D01*
X0326713Y0271254D01*
X0327364Y0270984D01*
X0328069Y0270984D01*
X0328720Y0271254D01*
X0328777Y0271311D01*
X0329291Y0271698D01*
X0329806Y0271311D01*
X0329862Y0271254D01*
X0330513Y0270984D01*
X0331218Y0270984D01*
X0331870Y0271254D01*
X0331926Y0271311D01*
X0332441Y0271698D01*
X0332955Y0271311D01*
X0333012Y0271254D01*
X0333663Y0270984D01*
X0334368Y0270984D01*
X0335019Y0271254D01*
X0335076Y0271311D01*
X0335590Y0271698D01*
X0336105Y0271311D01*
X0336162Y0271254D01*
X0336813Y0270984D01*
X0337517Y0270984D01*
X0338169Y0271254D01*
X0338226Y0271311D01*
X0338740Y0271698D01*
X0339254Y0271311D01*
X0339311Y0271254D01*
X0339962Y0270984D01*
X0340667Y0270984D01*
X0341318Y0271254D01*
X0341375Y0271311D01*
X0341889Y0271698D01*
X0342404Y0271311D01*
X0342461Y0271254D01*
X0343112Y0270984D01*
X0343817Y0270984D01*
X0344468Y0271254D01*
X0344525Y0271311D01*
X0345039Y0271698D01*
X0345554Y0271311D01*
X0345610Y0271254D01*
X0346261Y0270984D01*
X0346966Y0270984D01*
X0347618Y0271254D01*
X0347674Y0271311D01*
X0348189Y0271698D01*
X0348703Y0271311D01*
X0348760Y0271254D01*
X0349411Y0270984D01*
X0350116Y0270984D01*
X0350767Y0271254D01*
X0350824Y0271311D01*
X0351338Y0271698D01*
X0351853Y0271311D01*
X0351910Y0271254D01*
X0352561Y0270984D01*
X0353265Y0270984D01*
X0353917Y0271254D01*
X0353974Y0271311D01*
X0354488Y0271698D01*
X0355002Y0271311D01*
X0355059Y0271254D01*
X0355710Y0270984D01*
X0356415Y0270984D01*
X0357066Y0271254D01*
X0357123Y0271311D01*
X0357638Y0271698D01*
X0358152Y0271311D01*
X0358209Y0271254D01*
X0358860Y0270984D01*
X0359565Y0270984D01*
X0359606Y0271001D01*
X0360393Y0270475D01*
X0360393Y0264800D01*
X0359606Y0264274D01*
X0359565Y0264291D01*
X0358860Y0264291D01*
X0358209Y0264022D01*
X0357710Y0263523D01*
X0357441Y0262872D01*
X0357441Y0262167D01*
X0357710Y0261516D01*
X0357767Y0261459D01*
X0358154Y0260945D01*
X0357767Y0260431D01*
X0357710Y0260374D01*
X0357441Y0259722D01*
X0357441Y0259018D01*
X0357710Y0258367D01*
X0357767Y0258310D01*
X0358154Y0257795D01*
X0357767Y0257281D01*
X0357710Y0257224D01*
X0357441Y0256573D01*
X0357441Y0255868D01*
X0357710Y0255217D01*
X0357767Y0255160D01*
X0358154Y0254646D01*
X0357767Y0254131D01*
X0357710Y0254074D01*
X0357441Y0253423D01*
X0357441Y0252718D01*
X0357710Y0252067D01*
X0357767Y0252011D01*
X0358154Y0251496D01*
X0357767Y0250982D01*
X0357710Y0250925D01*
X0357441Y0250274D01*
X0357441Y0249569D01*
X0357710Y0248918D01*
X0357767Y0248861D01*
X0358154Y0248346D01*
X0357767Y0247832D01*
X0357710Y0247775D01*
X0357441Y0247124D01*
X0357441Y0246419D01*
X0357710Y0245768D01*
X0357767Y0245711D01*
X0358154Y0245197D01*
X0357767Y0244683D01*
X0357710Y0244626D01*
X0357441Y0243974D01*
X0357441Y0243270D01*
X0357710Y0242619D01*
X0357767Y0242562D01*
X0358154Y0242047D01*
X0357767Y0241533D01*
X0357710Y0241476D01*
X0357441Y0240825D01*
X0357441Y0240120D01*
X0357710Y0239469D01*
X0357767Y0239412D01*
X0358154Y0238898D01*
X0357767Y0238383D01*
X0357710Y0238326D01*
X0357441Y0237675D01*
X0357441Y0236970D01*
X0357710Y0236319D01*
X0357767Y0236263D01*
X0358154Y0235748D01*
X0357767Y0235234D01*
X0357710Y0235177D01*
X0357441Y0234526D01*
X0357441Y0233821D01*
X0357710Y0233170D01*
X0357767Y0233113D01*
X0358154Y0232598D01*
X0357767Y0232084D01*
X0357710Y0232027D01*
X0357441Y0231376D01*
X0357441Y0230671D01*
X0357710Y0230020D01*
X0357767Y0229963D01*
X0358154Y0229449D01*
X0357767Y0228935D01*
X0357710Y0228878D01*
X0357441Y0228226D01*
X0357441Y0227522D01*
X0357710Y0226871D01*
X0357767Y0226814D01*
X0358154Y0226299D01*
X0357767Y0225785D01*
X0357710Y0225728D01*
X0357441Y0225077D01*
X0357441Y0224372D01*
X0357710Y0223721D01*
X0357767Y0223664D01*
X0358154Y0223150D01*
X0357767Y0222635D01*
X0357710Y0222578D01*
X0357441Y0221927D01*
X0357441Y0221222D01*
X0357710Y0220571D01*
X0357767Y0220514D01*
X0358154Y0220000D01*
X0357767Y0219486D01*
X0357710Y0219429D01*
X0357441Y0218778D01*
X0357441Y0218073D01*
X0357710Y0217422D01*
X0357767Y0217365D01*
X0358154Y0216850D01*
X0357767Y0216336D01*
X0357710Y0216279D01*
X0357441Y0215628D01*
X0357441Y0214923D01*
X0357710Y0214272D01*
X0357767Y0214215D01*
X0358154Y0213701D01*
X0357767Y0213186D01*
X0357710Y0213130D01*
X0357441Y0212478D01*
X0357441Y0211774D01*
X0357710Y0211123D01*
X0357767Y0211066D01*
X0358154Y0210551D01*
X0357767Y0210037D01*
X0357710Y0209980D01*
X0357441Y0209329D01*
X0357441Y0208624D01*
X0357710Y0207973D01*
X0357767Y0207916D01*
X0358154Y0207402D01*
X0357767Y0206887D01*
X0357710Y0206830D01*
X0357441Y0206179D01*
X0357441Y0205474D01*
X0357710Y0204823D01*
X0357767Y0204766D01*
X0358154Y0204252D01*
X0357767Y0203738D01*
X0357710Y0203681D01*
X0357441Y0203030D01*
X0357441Y0202325D01*
X0357710Y0201674D01*
X0357767Y0201617D01*
X0358154Y0201102D01*
X0357767Y0200588D01*
X0357710Y0200531D01*
X0357441Y0199880D01*
X0357441Y0199175D01*
X0357710Y0198524D01*
X0357767Y0198467D01*
X0358154Y0197953D01*
X0357767Y0197438D01*
X0357710Y0197381D01*
X0357441Y0196730D01*
X0357441Y0196026D01*
X0357710Y0195374D01*
X0357767Y0195318D01*
X0358154Y0194803D01*
X0357767Y0194289D01*
X0357710Y0194232D01*
X0357441Y0193581D01*
X0357441Y0192876D01*
X0357710Y0192225D01*
X0357767Y0192168D01*
X0358154Y0191654D01*
X0357767Y0191139D01*
X0357710Y0191082D01*
X0357441Y0190431D01*
X0357441Y0189726D01*
X0357710Y0189075D01*
X0357767Y0189018D01*
X0358154Y0188504D01*
X0357767Y0187990D01*
X0357710Y0187933D01*
X0357441Y0187282D01*
X0357441Y0186577D01*
X0357710Y0185926D01*
X0357767Y0185869D01*
X0358154Y0185354D01*
X0357767Y0184840D01*
X0357710Y0184783D01*
X0357441Y0184132D01*
X0357441Y0183427D01*
X0357710Y0182776D01*
X0357767Y0182719D01*
X0358154Y0182205D01*
X0357767Y0181690D01*
X0357710Y0181633D01*
X0357441Y0180982D01*
X0357441Y0180277D01*
X0357710Y0179626D01*
X0357767Y0179570D01*
X0358154Y0179055D01*
X0357767Y0178541D01*
X0357710Y0178484D01*
X0357441Y0177833D01*
X0357441Y0177128D01*
X0357710Y0176477D01*
X0357767Y0176420D01*
X0358154Y0175905D01*
X0357767Y0175391D01*
X0357710Y0175334D01*
X0357441Y0174683D01*
X0357441Y0173978D01*
X0357710Y0173327D01*
X0357767Y0173270D01*
X0358154Y0172756D01*
X0357767Y0172241D01*
X0357710Y0172185D01*
X0357441Y0171534D01*
X0357441Y0170829D01*
X0357710Y0170178D01*
X0357767Y0170121D01*
X0358154Y0169606D01*
X0357767Y0169092D01*
X0357710Y0169035D01*
X0357441Y0168384D01*
X0357441Y0167679D01*
X0357710Y0167028D01*
X0357767Y0166971D01*
X0358154Y0166457D01*
X0357767Y0165942D01*
X0357710Y0165886D01*
X0357441Y0165234D01*
X0357441Y0164530D01*
X0357710Y0163878D01*
X0357767Y0163821D01*
X0358154Y0163307D01*
X0357767Y0162793D01*
X0357710Y0162736D01*
X0357441Y0162085D01*
X0357441Y0161380D01*
X0357710Y0160729D01*
X0357767Y0160672D01*
X0358154Y0160157D01*
X0357767Y0159643D01*
X0357710Y0159586D01*
X0357441Y0158935D01*
X0357441Y0158230D01*
X0357710Y0157579D01*
X0357767Y0157522D01*
X0358154Y0157008D01*
X0357767Y0156494D01*
X0357710Y0156437D01*
X0357441Y0155785D01*
X0357441Y0155081D01*
X0357710Y0154429D01*
X0358209Y0153931D01*
X0358860Y0153661D01*
X0359565Y0153661D01*
X0359606Y0153678D01*
X0360393Y0153152D01*
X0360393Y0131336D01*
X0359606Y0130810D01*
X0359565Y0130827D01*
X0358860Y0130827D01*
X0358209Y0130557D01*
X0357710Y0130059D01*
X0357441Y0129408D01*
X0357441Y0128703D01*
X0357710Y0128052D01*
X0357767Y0127995D01*
X0358154Y0127480D01*
X0357767Y0126966D01*
X0357710Y0126909D01*
X0357441Y0126258D01*
X0357441Y0125553D01*
X0357710Y0124902D01*
X0358209Y0124404D01*
X0358860Y0124134D01*
X0359565Y0124134D01*
X0359606Y0124151D01*
X0360393Y0123625D01*
X0360393Y0118032D01*
X0358442Y0118032D01*
X0358352Y0118248D01*
X0357854Y0118746D01*
X0357203Y0119016D01*
X0356498Y0119016D01*
X0355847Y0118746D01*
X0355348Y0118248D01*
X0355259Y0118032D01*
X0353717Y0118032D01*
X0353628Y0118248D01*
X0353129Y0118746D01*
X0352478Y0119016D01*
X0351773Y0119016D01*
X0351122Y0118746D01*
X0350624Y0118248D01*
X0350534Y0118032D01*
X0348993Y0118032D01*
X0348903Y0118248D01*
X0348405Y0118746D01*
X0347754Y0119016D01*
X0347049Y0119016D01*
X0346398Y0118746D01*
X0345899Y0118248D01*
X0345810Y0118032D01*
X0344268Y0118032D01*
X0344179Y0118248D01*
X0343680Y0118746D01*
X0343029Y0119016D01*
X0342325Y0119016D01*
X0341673Y0118746D01*
X0341175Y0118248D01*
X0341086Y0118032D01*
X0339544Y0118032D01*
X0339454Y0118248D01*
X0338956Y0118746D01*
X0338305Y0119016D01*
X0337600Y0119016D01*
X0336949Y0118746D01*
X0336451Y0118248D01*
X0336361Y0118032D01*
X0335213Y0118032D01*
X0335124Y0118248D01*
X0334625Y0118746D01*
X0333974Y0119016D01*
X0333269Y0119016D01*
X0332618Y0118746D01*
X0332120Y0118248D01*
X0332030Y0118032D01*
X0330489Y0118032D01*
X0330399Y0118248D01*
X0329901Y0118746D01*
X0329250Y0119016D01*
X0328545Y0119016D01*
X0327894Y0118746D01*
X0327395Y0118248D01*
X0327306Y0118032D01*
X0325764Y0118032D01*
X0325675Y0118248D01*
X0325177Y0118746D01*
X0324525Y0119016D01*
X0323821Y0119016D01*
X0323170Y0118746D01*
X0322671Y0118248D01*
X0322582Y0118032D01*
X0321040Y0118032D01*
X0320951Y0118248D01*
X0320452Y0118746D01*
X0319801Y0119016D01*
X0319096Y0119016D01*
X0318445Y0118746D01*
X0317947Y0118248D01*
X0317857Y0118032D01*
X0316316Y0118032D01*
X0316226Y0118248D01*
X0315728Y0118746D01*
X0315077Y0119016D01*
X0314372Y0119016D01*
X0313721Y0118746D01*
X0313222Y0118248D01*
X0313133Y0118032D01*
X0311591Y0118032D01*
X0311502Y0118248D01*
X0311003Y0118746D01*
X0310352Y0119016D01*
X0309647Y0119016D01*
X0308996Y0118746D01*
X0308498Y0118248D01*
X0308408Y0118032D01*
X0306867Y0118032D01*
X0306777Y0118248D01*
X0306279Y0118746D01*
X0305628Y0119016D01*
X0304923Y0119016D01*
X0304272Y0118746D01*
X0303773Y0118248D01*
X0303684Y0118032D01*
X0302142Y0118032D01*
X0302053Y0118248D01*
X0301555Y0118746D01*
X0300903Y0119016D01*
X0300199Y0119016D01*
X0299547Y0118746D01*
X0299049Y0118248D01*
X0298960Y0118032D01*
X0297418Y0118032D01*
X0297329Y0118248D01*
X0296830Y0118746D01*
X0296179Y0119016D01*
X0295474Y0119016D01*
X0294823Y0118746D01*
X0294325Y0118248D01*
X0294235Y0118032D01*
X0292694Y0118032D01*
X0292604Y0118248D01*
X0292106Y0118746D01*
X0291455Y0119016D01*
X0290750Y0119016D01*
X0290099Y0118746D01*
X0289600Y0118248D01*
X0289511Y0118032D01*
X0287969Y0118032D01*
X0287880Y0118248D01*
X0287381Y0118746D01*
X0286730Y0119016D01*
X0286025Y0119016D01*
X0285374Y0118746D01*
X0284876Y0118248D01*
X0284786Y0118032D01*
X0283245Y0118032D01*
X0283155Y0118248D01*
X0282657Y0118746D01*
X0282006Y0119016D01*
X0281301Y0119016D01*
X0280650Y0118746D01*
X0280151Y0118248D01*
X0280062Y0118032D01*
X0278520Y0118032D01*
X0278431Y0118248D01*
X0277932Y0118746D01*
X0277281Y0119016D01*
X0276576Y0119016D01*
X0275925Y0118746D01*
X0275427Y0118248D01*
X0275337Y0118032D01*
X0273796Y0118032D01*
X0273706Y0118248D01*
X0273208Y0118746D01*
X0272557Y0119016D01*
X0271852Y0119016D01*
X0271201Y0118746D01*
X0270703Y0118248D01*
X0270613Y0118032D01*
X0269071Y0118032D01*
X0268982Y0118248D01*
X0268484Y0118746D01*
X0267833Y0119016D01*
X0267128Y0119016D01*
X0266477Y0118746D01*
X0265978Y0118248D01*
X0265889Y0118032D01*
X0264347Y0118032D01*
X0264258Y0118248D01*
X0263759Y0118746D01*
X0263108Y0119016D01*
X0262403Y0119016D01*
X0261752Y0118746D01*
X0261254Y0118248D01*
X0261164Y0118032D01*
X0259623Y0118032D01*
X0259533Y0118248D01*
X0259035Y0118746D01*
X0258384Y0119016D01*
X0257679Y0119016D01*
X0257334Y0119725D01*
X0257241Y0119949D01*
X0256743Y0120447D01*
X0256092Y0120717D01*
X0255387Y0120717D01*
X0254736Y0120447D01*
X0254237Y0119949D01*
X0254124Y0119676D01*
X0253659Y0119016D01*
X0252954Y0119016D01*
X0252787Y0119128D01*
X0252787Y0119298D01*
X0252517Y0119949D01*
X0252019Y0120447D01*
X0251367Y0120717D01*
X0250663Y0120717D01*
X0250011Y0120447D01*
X0249513Y0119949D01*
X0249243Y0119298D01*
X0249243Y0119222D01*
X0248935Y0119016D01*
X0248230Y0119016D01*
X0248062Y0119128D01*
X0248062Y0119298D01*
X0247793Y0119949D01*
X0247294Y0120447D01*
X0246643Y0120717D01*
X0245938Y0120717D01*
X0245287Y0120447D01*
X0244789Y0119949D01*
X0244675Y0119676D01*
X0244233Y0119047D01*
X0243478Y0119073D01*
X0243161Y0119725D01*
X0243068Y0119949D01*
X0242570Y0120447D01*
X0241919Y0120717D01*
X0241214Y0120717D01*
X0240563Y0120447D01*
X0240064Y0119949D01*
X0239795Y0119298D01*
X0239795Y0119222D01*
X0239486Y0119016D01*
X0238781Y0119016D01*
X0238613Y0119128D01*
X0238613Y0119298D01*
X0238344Y0119949D01*
X0237845Y0120447D01*
X0237194Y0120717D01*
X0236489Y0120717D01*
X0235838Y0120447D01*
X0235340Y0119949D01*
X0235226Y0119676D01*
X0234784Y0119047D01*
X0234029Y0119073D01*
X0233712Y0119725D01*
X0233619Y0119949D01*
X0233121Y0120447D01*
X0232470Y0120717D01*
X0231765Y0120717D01*
X0231114Y0120447D01*
X0230615Y0119949D01*
X0230502Y0119676D01*
X0230059Y0119047D01*
X0229305Y0119073D01*
X0228987Y0119725D01*
X0228895Y0119949D01*
X0228396Y0120447D01*
X0227745Y0120717D01*
X0227040Y0120717D01*
X0226389Y0120447D01*
X0225891Y0119949D01*
X0225778Y0119676D01*
X0225335Y0119047D01*
X0224580Y0119073D01*
X0224263Y0119725D01*
X0224170Y0119949D01*
X0223672Y0120447D01*
X0223021Y0120717D01*
X0222316Y0120717D01*
X0221665Y0120447D01*
X0221167Y0119949D01*
X0221053Y0119676D01*
X0220610Y0119047D01*
X0219856Y0119073D01*
X0219539Y0119725D01*
X0219446Y0119949D01*
X0218948Y0120447D01*
X0218297Y0120717D01*
X0217592Y0120717D01*
X0216941Y0120447D01*
X0216442Y0119949D01*
X0216329Y0119676D01*
X0215886Y0119047D01*
X0215131Y0119073D01*
X0214814Y0119725D01*
X0214722Y0119949D01*
X0214223Y0120447D01*
X0213572Y0120717D01*
X0212867Y0120717D01*
X0212216Y0120447D01*
X0211718Y0119949D01*
X0211448Y0119298D01*
X0210884Y0119071D01*
X0210372Y0119144D01*
X0210090Y0119725D01*
X0209997Y0119949D01*
X0209499Y0120447D01*
X0208848Y0120717D01*
X0208143Y0120717D01*
X0207492Y0120447D01*
X0206993Y0119949D01*
X0206880Y0119676D01*
X0206437Y0119047D01*
X0205682Y0119073D01*
X0205365Y0119725D01*
X0205273Y0119949D01*
X0204774Y0120447D01*
X0204123Y0120717D01*
X0203419Y0120717D01*
X0202767Y0120447D01*
X0202269Y0119949D01*
X0201999Y0119298D01*
X0201999Y0118593D01*
X0202269Y0117942D01*
X0202767Y0117444D01*
X0203419Y0117174D01*
X0204094Y0117174D01*
X0204094Y0116063D01*
X0203307Y0116063D01*
X0198895Y0116063D01*
X0198368Y0116850D01*
X0198386Y0116892D01*
X0198386Y0117597D01*
X0198116Y0118248D01*
X0197618Y0118746D01*
X0196966Y0119016D01*
X0196261Y0119016D01*
X0195610Y0118746D01*
X0195112Y0118248D01*
X0194842Y0117597D01*
X0194842Y0117293D01*
X0194167Y0116705D01*
X0194115Y0116691D01*
X0193858Y0116769D01*
X0193858Y0124806D01*
X0194645Y0125332D01*
X0194687Y0125315D01*
X0195392Y0125315D01*
X0196043Y0125585D01*
X0196541Y0126083D01*
X0196811Y0126734D01*
X0196811Y0127439D01*
X0196541Y0128090D01*
X0196043Y0128589D01*
X0195945Y0128629D01*
X0195945Y0129481D01*
X0196043Y0129522D01*
X0196541Y0130020D01*
X0196811Y0130671D01*
X0196811Y0131376D01*
X0196541Y0132027D01*
X0196043Y0132526D01*
X0195392Y0132795D01*
X0194687Y0132795D01*
X0194645Y0132778D01*
X0193858Y0133304D01*
X0193858Y0153940D01*
X0194645Y0154466D01*
X0194687Y0154449D01*
X0195392Y0154449D01*
X0196043Y0154719D01*
X0196541Y0155217D01*
X0196811Y0155868D01*
X0196811Y0156573D01*
X0196541Y0157224D01*
X0196043Y0157722D01*
X0195392Y0157992D01*
X0194687Y0157992D01*
X0194645Y0157975D01*
X0193858Y0158501D01*
X0193858Y0160395D01*
X0194645Y0160552D01*
X0194817Y0160138D01*
X0195315Y0159640D01*
X0195966Y0159370D01*
X0196671Y0159370D01*
X0197322Y0159640D01*
X0197821Y0160138D01*
X0198090Y0160789D01*
X0198090Y0161494D01*
X0197821Y0162145D01*
X0197322Y0162644D01*
X0196671Y0162913D01*
X0195966Y0162913D01*
X0195315Y0162644D01*
X0194817Y0162145D01*
X0194645Y0161732D01*
X0193858Y0161888D01*
X0193858Y0181499D01*
X0194645Y0182025D01*
X0194687Y0182008D01*
X0195392Y0182008D01*
X0196043Y0182278D01*
X0196541Y0182776D01*
X0196811Y0183427D01*
X0196811Y0184132D01*
X0196541Y0184783D01*
X0196043Y0185281D01*
X0195945Y0185322D01*
X0195945Y0186174D01*
X0196043Y0186215D01*
X0196541Y0186713D01*
X0196811Y0187364D01*
X0196811Y0188069D01*
X0196541Y0188720D01*
X0196043Y0189218D01*
X0195945Y0189259D01*
X0195945Y0190111D01*
X0196043Y0190152D01*
X0196541Y0190650D01*
X0196811Y0191301D01*
X0196811Y0192006D01*
X0196541Y0192657D01*
X0196043Y0193155D01*
X0195945Y0193196D01*
X0195945Y0194048D01*
X0196043Y0194089D01*
X0196541Y0194587D01*
X0196811Y0195238D01*
X0196811Y0195943D01*
X0196541Y0196594D01*
X0196043Y0197092D01*
X0195945Y0197133D01*
X0195945Y0197985D01*
X0196043Y0198026D01*
X0196541Y0198524D01*
X0196811Y0199175D01*
X0196811Y0199880D01*
X0196541Y0200531D01*
X0196043Y0201029D01*
X0195945Y0201070D01*
X0195945Y0201922D01*
X0196043Y0201963D01*
X0196541Y0202461D01*
X0196811Y0203112D01*
X0196811Y0203817D01*
X0196541Y0204468D01*
X0196043Y0204966D01*
X0195945Y0205007D01*
X0195945Y0205859D01*
X0196043Y0205900D01*
X0196541Y0206398D01*
X0196811Y0207049D01*
X0196811Y0207754D01*
X0196541Y0208405D01*
X0196043Y0208903D01*
X0195945Y0208944D01*
X0195945Y0209796D01*
X0196043Y0209837D01*
X0196541Y0210335D01*
X0196811Y0210986D01*
X0196811Y0211691D01*
X0196541Y0212342D01*
X0196043Y0212840D01*
X0195392Y0213110D01*
X0194687Y0213110D01*
X0194645Y0213093D01*
X0193858Y0213619D01*
X0193858Y0221263D01*
X0194645Y0221789D01*
X0194687Y0221772D01*
X0195392Y0221772D01*
X0196043Y0222041D01*
X0196541Y0222540D01*
X0196811Y0223191D01*
X0196811Y0223896D01*
X0196541Y0224547D01*
X0196484Y0224604D01*
X0196097Y0225118D01*
X0196484Y0225633D01*
X0196541Y0225689D01*
X0196811Y0226340D01*
X0196811Y0227045D01*
X0196541Y0227697D01*
X0196043Y0228195D01*
X0195392Y0228465D01*
X0194687Y0228465D01*
X0194645Y0228447D01*
X0193858Y0228974D01*
X0193858Y0269761D01*
X0194645Y0270301D01*
X0194879Y0270211D01*
X0194883Y0270197D01*
X0194842Y0270047D01*
X0194842Y0269166D01*
X0195070Y0268315D01*
X0195511Y0267552D01*
X0196134Y0266928D01*
X0196897Y0266488D01*
X0197748Y0266260D01*
X0198629Y0266260D01*
X0199480Y0266488D01*
X0200243Y0266928D01*
X0200867Y0267552D01*
X0201307Y0268315D01*
X0201535Y0269166D01*
X0201535Y0270047D01*
X0201307Y0270898D01*
X0200867Y0271661D01*
X0200243Y0272284D01*
X0199480Y0272725D01*
X0198629Y0272953D01*
X0197748Y0272953D01*
X0197598Y0272913D01*
X0197585Y0272916D01*
X0197494Y0273150D01*
X0198034Y0273937D01*
X0216381Y0273937D01*
X0216907Y0273150D01*
X0216889Y0273108D01*
X0216889Y0272404D01*
X0217159Y0271752D01*
X0217658Y0271254D01*
X0218309Y0270984D01*
X0219014Y0270984D01*
X0219665Y0271254D01*
X0219722Y0271311D01*
X0220236Y0271698D01*
X0220750Y0271311D01*
X0220807Y0271254D01*
X0221458Y0270984D01*
X0222163Y0270984D01*
X0222814Y0271254D01*
X0222871Y0271311D01*
X0223386Y0271698D01*
X0223900Y0271311D01*
X0223957Y0271254D01*
X0224608Y0270984D01*
X0225313Y0270984D01*
X0225964Y0271254D01*
X0226084Y0271226D01*
X0226672Y0270390D01*
X0226672Y0269618D01*
X0226872Y0268871D01*
X0227258Y0268202D01*
X0227804Y0267656D01*
X0228473Y0267270D01*
X0229220Y0267070D01*
X0229992Y0267070D01*
X0230739Y0267270D01*
X0231408Y0267656D01*
X0231954Y0268202D01*
X0232340Y0268871D01*
X0232540Y0269618D01*
X0232540Y0270390D01*
X0232340Y0271136D01*
X0231954Y0271806D01*
X0231408Y0272352D01*
X0230739Y0272738D01*
X0229992Y0272938D01*
X0229220Y0272938D01*
X0228473Y0272738D01*
X0227804Y0272352D01*
X0227392Y0271940D01*
X0226725Y0272386D01*
X0226732Y0272404D01*
X0226732Y0273108D01*
X0226715Y0273150D01*
X0227241Y0273937D01*
X0253388Y0273937D01*
X0253915Y0273150D01*
X0253897Y0273108D01*
X0253897Y0272404D01*
X0254167Y0271752D01*
X0254666Y0271254D01*
X0255317Y0270984D01*
X0256022Y0270984D01*
X0256673Y0271254D01*
X0256729Y0271311D01*
X0257244Y0271698D01*
X0257758Y0271311D01*
X0257815Y0271254D01*
X0258466Y0270984D01*
X0259171Y0270984D01*
X0259822Y0271254D01*
X0259879Y0271311D01*
X0260394Y0271698D01*
X0260908Y0271311D01*
X0260965Y0271254D01*
X0261616Y0270984D01*
X0262321Y0270984D01*
X0262972Y0271254D01*
X0263029Y0271311D01*
X0263543Y0271698D01*
X0264058Y0271311D01*
X0264114Y0271254D01*
X0264765Y0270984D01*
X0265470Y0270984D01*
X0266121Y0271254D01*
X0266178Y0271311D01*
X0266693Y0271698D01*
X0267207Y0271311D01*
X0267264Y0271254D01*
X0267915Y0270984D01*
X0268620Y0270984D01*
X0269271Y0271254D01*
X0269769Y0271752D01*
X0270039Y0272404D01*
X0270039Y0273108D01*
X0270022Y0273150D01*
X0270548Y0273937D01*
X0287640Y0273937D01*
X0288167Y0273150D01*
D02*
G37*
%LPC*%
G36*
X0237911Y0273150D02*
X0237206Y0273150D01*
X0236555Y0272880D01*
X0236057Y0272381D01*
X0235787Y0271730D01*
X0235787Y0271026D01*
X0236057Y0270374D01*
X0236555Y0269876D01*
X0237206Y0269606D01*
X0237911Y0269606D01*
X0238562Y0269876D01*
X0239061Y0270374D01*
X0239330Y0271026D01*
X0239330Y0271730D01*
X0239061Y0272381D01*
X0238562Y0272880D01*
X0237911Y0273150D01*
D02*
G37*
G36*
X0248147Y0271772D02*
X0247443Y0271772D01*
X0246792Y0271502D01*
X0246293Y0271004D01*
X0246023Y0270352D01*
X0246023Y0269648D01*
X0246293Y0268996D01*
X0246792Y0268498D01*
X0246824Y0268485D01*
X0246932Y0268315D01*
X0247094Y0267521D01*
X0246872Y0267137D01*
X0246672Y0266390D01*
X0246672Y0265618D01*
X0246872Y0264871D01*
X0247258Y0264202D01*
X0247804Y0263656D01*
X0248473Y0263270D01*
X0249220Y0263070D01*
X0249992Y0263070D01*
X0250739Y0263270D01*
X0251408Y0263656D01*
X0251954Y0264202D01*
X0252340Y0264871D01*
X0252540Y0265618D01*
X0252540Y0266390D01*
X0252340Y0267137D01*
X0251954Y0267806D01*
X0251408Y0268352D01*
X0250739Y0268738D01*
X0250112Y0268906D01*
X0249871Y0269140D01*
X0249567Y0269648D01*
X0249567Y0270352D01*
X0249297Y0271004D01*
X0248799Y0271502D01*
X0248147Y0271772D01*
D02*
G37*
G36*
X0224670Y0266473D02*
X0223965Y0266473D01*
X0223314Y0266204D01*
X0222816Y0265705D01*
X0222546Y0265054D01*
X0222546Y0264349D01*
X0222816Y0263698D01*
X0223314Y0263200D01*
X0223965Y0262930D01*
X0224670Y0262930D01*
X0225321Y0263200D01*
X0225820Y0263698D01*
X0226089Y0264349D01*
X0226089Y0265054D01*
X0225820Y0265705D01*
X0225321Y0266204D01*
X0224670Y0266473D01*
D02*
G37*
G36*
X0229992Y0264938D02*
X0229220Y0264938D01*
X0228473Y0264738D01*
X0227804Y0264352D01*
X0227258Y0263806D01*
X0226872Y0263136D01*
X0226672Y0262390D01*
X0226672Y0261618D01*
X0226872Y0260871D01*
X0227258Y0260202D01*
X0227804Y0259656D01*
X0228473Y0259270D01*
X0229220Y0259070D01*
X0229992Y0259070D01*
X0230739Y0259270D01*
X0231408Y0259656D01*
X0231954Y0260202D01*
X0232340Y0260871D01*
X0232540Y0261618D01*
X0232540Y0262390D01*
X0232340Y0263136D01*
X0231954Y0263806D01*
X0231408Y0264352D01*
X0230739Y0264738D01*
X0229992Y0264938D01*
D02*
G37*
G36*
X0242439Y0262126D02*
X0241734Y0262126D01*
X0241083Y0261856D01*
X0240584Y0261358D01*
X0240315Y0260707D01*
X0240315Y0260002D01*
X0240584Y0259351D01*
X0241083Y0258852D01*
X0241734Y0258583D01*
X0242439Y0258583D01*
X0243090Y0258852D01*
X0243588Y0259351D01*
X0243858Y0260002D01*
X0243858Y0260707D01*
X0243588Y0261358D01*
X0243090Y0261856D01*
X0242439Y0262126D01*
D02*
G37*
G36*
X0257190Y0261896D02*
X0256485Y0261896D01*
X0255834Y0261626D01*
X0255335Y0261128D01*
X0255066Y0260477D01*
X0255066Y0259772D01*
X0255335Y0259121D01*
X0255834Y0258623D01*
X0256485Y0258353D01*
X0257190Y0258353D01*
X0257841Y0258623D01*
X0258339Y0259121D01*
X0258609Y0259772D01*
X0258609Y0260477D01*
X0258339Y0261128D01*
X0257841Y0261626D01*
X0257190Y0261896D01*
D02*
G37*
G36*
X0331021Y0261535D02*
X0330317Y0261535D01*
X0329666Y0261266D01*
X0329167Y0260767D01*
X0328897Y0260116D01*
X0328897Y0259411D01*
X0329167Y0258760D01*
X0329666Y0258262D01*
X0330317Y0257992D01*
X0331021Y0257992D01*
X0331673Y0258262D01*
X0332171Y0258760D01*
X0332441Y0259411D01*
X0332441Y0260116D01*
X0332171Y0260767D01*
X0331673Y0261266D01*
X0331021Y0261535D01*
D02*
G37*
G36*
X0350903Y0257205D02*
X0350199Y0257205D01*
X0349547Y0256935D01*
X0349049Y0256437D01*
X0348900Y0256397D01*
X0348173Y0256379D01*
X0347814Y0256738D01*
X0347163Y0257008D01*
X0346458Y0257008D01*
X0345807Y0256738D01*
X0345309Y0256240D01*
X0345039Y0255589D01*
X0345039Y0254884D01*
X0345309Y0254233D01*
X0345807Y0253734D01*
X0346458Y0253465D01*
X0347163Y0253465D01*
X0347814Y0253734D01*
X0348313Y0254233D01*
X0348462Y0254273D01*
X0349189Y0254290D01*
X0349547Y0253931D01*
X0350199Y0253661D01*
X0350903Y0253661D01*
X0351554Y0253931D01*
X0352053Y0254429D01*
X0352323Y0255081D01*
X0352323Y0255786D01*
X0352053Y0256437D01*
X0351554Y0256935D01*
X0350903Y0257205D01*
D02*
G37*
G36*
X0291061Y0259567D02*
X0290356Y0259567D01*
X0289705Y0259297D01*
X0289207Y0258799D01*
X0288937Y0258148D01*
X0288937Y0257443D01*
X0289207Y0256792D01*
X0289705Y0256293D01*
X0290356Y0256024D01*
X0291061Y0256024D01*
X0291712Y0256293D01*
X0292210Y0256792D01*
X0292480Y0257443D01*
X0292480Y0258148D01*
X0292210Y0258799D01*
X0291712Y0259297D01*
X0291061Y0259567D01*
D02*
G37*
G36*
X0305234Y0261929D02*
X0304529Y0261929D01*
X0303878Y0261659D01*
X0303380Y0261161D01*
X0303110Y0260510D01*
X0303110Y0259805D01*
X0302697Y0258904D01*
X0302199Y0258405D01*
X0301929Y0257754D01*
X0301929Y0257049D01*
X0302199Y0256398D01*
X0302697Y0255900D01*
X0303348Y0255630D01*
X0304053Y0255630D01*
X0304704Y0255900D01*
X0305203Y0256398D01*
X0305472Y0257049D01*
X0305472Y0257754D01*
X0305885Y0258656D01*
X0306383Y0259154D01*
X0306653Y0259805D01*
X0306653Y0260510D01*
X0306383Y0261161D01*
X0305885Y0261659D01*
X0305234Y0261929D01*
D02*
G37*
G36*
X0247163Y0262126D02*
X0246458Y0262126D01*
X0245807Y0261856D01*
X0245309Y0261358D01*
X0245039Y0260707D01*
X0245039Y0260002D01*
X0245309Y0259351D01*
X0245807Y0258852D01*
X0245926Y0257951D01*
X0245845Y0257754D01*
X0245845Y0257049D01*
X0246114Y0256398D01*
X0246613Y0255900D01*
X0247264Y0255630D01*
X0247969Y0255630D01*
X0248620Y0255900D01*
X0249118Y0256398D01*
X0249388Y0257049D01*
X0249388Y0257754D01*
X0249118Y0258405D01*
X0248620Y0258904D01*
X0248501Y0259805D01*
X0248582Y0260002D01*
X0248582Y0260707D01*
X0248313Y0261358D01*
X0247814Y0261856D01*
X0247163Y0262126D01*
D02*
G37*
G36*
X0237517Y0262126D02*
X0236813Y0262126D01*
X0236161Y0261856D01*
X0235663Y0261358D01*
X0235393Y0260707D01*
X0235393Y0260002D01*
X0235443Y0259882D01*
X0235597Y0259305D01*
X0235049Y0258932D01*
X0234980Y0258904D01*
X0234482Y0258405D01*
X0234212Y0257754D01*
X0234212Y0257049D01*
X0234482Y0256398D01*
X0234980Y0255900D01*
X0235632Y0255630D01*
X0236336Y0255630D01*
X0236988Y0255900D01*
X0237486Y0256398D01*
X0237756Y0257049D01*
X0237756Y0257754D01*
X0237706Y0257873D01*
X0237553Y0258451D01*
X0238100Y0258824D01*
X0238169Y0258852D01*
X0238667Y0259351D01*
X0238937Y0260002D01*
X0238937Y0260707D01*
X0238667Y0261358D01*
X0238169Y0261856D01*
X0237517Y0262126D01*
D02*
G37*
G36*
X0219801Y0258279D02*
X0219096Y0258279D01*
X0218445Y0258010D01*
X0217947Y0257511D01*
X0217677Y0256860D01*
X0217677Y0256155D01*
X0217947Y0255504D01*
X0218445Y0255006D01*
X0219096Y0254736D01*
X0219801Y0254736D01*
X0220452Y0255006D01*
X0220950Y0255504D01*
X0221220Y0256155D01*
X0221220Y0256860D01*
X0220950Y0257511D01*
X0220452Y0258010D01*
X0219801Y0258279D01*
D02*
G37*
G36*
X0298344Y0254252D02*
X0297639Y0254252D01*
X0296988Y0253982D01*
X0296833Y0253827D01*
X0296319Y0253570D01*
X0295804Y0253827D01*
X0295649Y0253982D01*
X0294998Y0254252D01*
X0294293Y0254252D01*
X0293642Y0253982D01*
X0293144Y0253484D01*
X0292874Y0252833D01*
X0292874Y0252128D01*
X0293144Y0251477D01*
X0293642Y0250978D01*
X0294293Y0250709D01*
X0294998Y0250709D01*
X0295649Y0250978D01*
X0295804Y0251134D01*
X0296319Y0251391D01*
X0296833Y0251134D01*
X0296988Y0250978D01*
X0297639Y0250709D01*
X0298344Y0250709D01*
X0298995Y0250978D01*
X0299494Y0251477D01*
X0299763Y0252128D01*
X0299763Y0252833D01*
X0299494Y0253484D01*
X0298995Y0253982D01*
X0298344Y0254252D01*
D02*
G37*
G36*
X0205431Y0252284D02*
X0204726Y0252284D01*
X0204075Y0252014D01*
X0203577Y0251515D01*
X0203307Y0250864D01*
X0203307Y0250159D01*
X0203577Y0249508D01*
X0204075Y0249010D01*
X0204726Y0248740D01*
X0205431Y0248740D01*
X0206082Y0249010D01*
X0206580Y0249508D01*
X0206850Y0250159D01*
X0206850Y0250864D01*
X0206580Y0251515D01*
X0206082Y0252014D01*
X0205431Y0252284D01*
D02*
G37*
G36*
X0337202Y0251812D02*
X0336497Y0251812D01*
X0335846Y0251542D01*
X0335348Y0251044D01*
X0335078Y0250392D01*
X0335078Y0249688D01*
X0335348Y0249037D01*
X0335846Y0248538D01*
X0336497Y0248268D01*
X0337202Y0248268D01*
X0337853Y0248538D01*
X0338351Y0249037D01*
X0338621Y0249688D01*
X0338621Y0250392D01*
X0338351Y0251044D01*
X0337853Y0251542D01*
X0337202Y0251812D01*
D02*
G37*
G36*
X0281218Y0250709D02*
X0280513Y0250709D01*
X0279862Y0250439D01*
X0279364Y0249941D01*
X0279094Y0249289D01*
X0279094Y0248585D01*
X0279364Y0247933D01*
X0279862Y0247435D01*
X0280513Y0247165D01*
X0281218Y0247165D01*
X0281869Y0247435D01*
X0282368Y0247933D01*
X0282637Y0248585D01*
X0282637Y0249289D01*
X0282368Y0249941D01*
X0281869Y0250439D01*
X0281218Y0250709D01*
D02*
G37*
G36*
X0219801Y0249331D02*
X0219096Y0249331D01*
X0218445Y0249061D01*
X0217947Y0248563D01*
X0217677Y0247912D01*
X0217677Y0247207D01*
X0217947Y0246555D01*
X0218445Y0246057D01*
X0219096Y0245787D01*
X0219801Y0245787D01*
X0220452Y0246057D01*
X0220950Y0246555D01*
X0221220Y0247207D01*
X0221220Y0247912D01*
X0220950Y0248563D01*
X0220452Y0249061D01*
X0219801Y0249331D01*
D02*
G37*
G36*
X0350116Y0249249D02*
X0349411Y0249249D01*
X0348760Y0248979D01*
X0348262Y0248481D01*
X0347992Y0247829D01*
X0347992Y0247125D01*
X0348262Y0246473D01*
X0348760Y0245975D01*
X0349411Y0245705D01*
X0350116Y0245705D01*
X0350767Y0245975D01*
X0351265Y0246473D01*
X0351535Y0247125D01*
X0351535Y0247829D01*
X0351265Y0248481D01*
X0350767Y0248979D01*
X0350116Y0249249D01*
D02*
G37*
G36*
X0256809Y0248346D02*
X0256104Y0248346D01*
X0255453Y0248077D01*
X0254955Y0247578D01*
X0254685Y0246927D01*
X0254685Y0246222D01*
X0254955Y0245571D01*
X0255453Y0245073D01*
X0256104Y0244803D01*
X0256809Y0244803D01*
X0257460Y0245073D01*
X0257958Y0245571D01*
X0258228Y0246222D01*
X0258228Y0246927D01*
X0257958Y0247578D01*
X0257460Y0248077D01*
X0256809Y0248346D01*
D02*
G37*
G36*
X0236927Y0246378D02*
X0236222Y0246378D01*
X0235571Y0246108D01*
X0235073Y0245610D01*
X0234803Y0244959D01*
X0234803Y0244254D01*
X0235073Y0243603D01*
X0235571Y0243104D01*
X0236222Y0242835D01*
X0236927Y0242835D01*
X0237578Y0243104D01*
X0238077Y0243603D01*
X0238346Y0244254D01*
X0238346Y0244959D01*
X0238077Y0245610D01*
X0237578Y0246108D01*
X0236927Y0246378D01*
D02*
G37*
G36*
X0347345Y0245197D02*
X0346640Y0245197D01*
X0345989Y0244927D01*
X0345491Y0244429D01*
X0345221Y0243778D01*
X0345221Y0243073D01*
X0345491Y0242422D01*
X0345989Y0241923D01*
X0346640Y0241654D01*
X0347345Y0241654D01*
X0347997Y0241923D01*
X0348495Y0242422D01*
X0348765Y0243073D01*
X0348765Y0243778D01*
X0348495Y0244429D01*
X0347997Y0244927D01*
X0347345Y0245197D01*
D02*
G37*
G36*
X0205825Y0243425D02*
X0205120Y0243425D01*
X0204469Y0243156D01*
X0203970Y0242657D01*
X0203701Y0242006D01*
X0203701Y0241301D01*
X0203970Y0240650D01*
X0204469Y0240152D01*
X0205120Y0239882D01*
X0205825Y0239882D01*
X0206476Y0240152D01*
X0206974Y0240650D01*
X0207244Y0241301D01*
X0207244Y0242006D01*
X0206974Y0242657D01*
X0206476Y0243156D01*
X0205825Y0243425D01*
D02*
G37*
G36*
X0259565Y0240669D02*
X0258860Y0240669D01*
X0258209Y0240400D01*
X0257710Y0239901D01*
X0257441Y0239250D01*
X0257441Y0238545D01*
X0257710Y0237894D01*
X0258209Y0237396D01*
X0258860Y0237126D01*
X0259565Y0237126D01*
X0260216Y0237396D01*
X0260714Y0237894D01*
X0260984Y0238545D01*
X0260984Y0239250D01*
X0260714Y0239901D01*
X0260216Y0240400D01*
X0259565Y0240669D01*
D02*
G37*
G36*
X0273764Y0237678D02*
X0273059Y0237678D01*
X0272408Y0237408D01*
X0271976Y0236976D01*
X0271561Y0237391D01*
X0270910Y0237661D01*
X0270205Y0237661D01*
X0269554Y0237391D01*
X0269056Y0236893D01*
X0268786Y0236242D01*
X0268786Y0235537D01*
X0269056Y0234886D01*
X0269554Y0234388D01*
X0270205Y0234118D01*
X0270910Y0234118D01*
X0271561Y0234388D01*
X0271993Y0234820D01*
X0272408Y0234405D01*
X0273059Y0234135D01*
X0273764Y0234135D01*
X0274415Y0234405D01*
X0274914Y0234903D01*
X0275183Y0235554D01*
X0275183Y0236259D01*
X0274914Y0236910D01*
X0274415Y0237408D01*
X0273764Y0237678D01*
D02*
G37*
G36*
X0347163Y0239685D02*
X0346458Y0239685D01*
X0345807Y0239415D01*
X0345309Y0238917D01*
X0345039Y0238266D01*
X0345039Y0237561D01*
X0345309Y0236910D01*
X0345807Y0236412D01*
X0346458Y0236142D01*
X0347163Y0236142D01*
X0347814Y0236412D01*
X0348313Y0236910D01*
X0348582Y0237561D01*
X0348582Y0238266D01*
X0348313Y0238917D01*
X0347814Y0239415D01*
X0347163Y0239685D01*
D02*
G37*
G36*
X0335943Y0239685D02*
X0335238Y0239685D01*
X0334587Y0239415D01*
X0334088Y0238917D01*
X0333819Y0238266D01*
X0333819Y0237561D01*
X0334088Y0236910D01*
X0334587Y0236412D01*
X0335238Y0236142D01*
X0335943Y0236142D01*
X0336594Y0236412D01*
X0337092Y0236910D01*
X0337362Y0237561D01*
X0337362Y0238266D01*
X0337092Y0238917D01*
X0336594Y0239415D01*
X0335943Y0239685D01*
D02*
G37*
G36*
X0291238Y0238504D02*
X0290533Y0238504D01*
X0289882Y0238234D01*
X0289384Y0237736D01*
X0289114Y0237085D01*
X0289114Y0236380D01*
X0289384Y0235729D01*
X0289882Y0235230D01*
X0290533Y0234961D01*
X0291238Y0234961D01*
X0291889Y0235230D01*
X0292388Y0235729D01*
X0292658Y0236380D01*
X0292658Y0237085D01*
X0292388Y0237736D01*
X0291889Y0238234D01*
X0291238Y0238504D01*
D02*
G37*
G36*
X0319604Y0239291D02*
X0318899Y0239291D01*
X0318248Y0239022D01*
X0317750Y0238523D01*
X0317480Y0237872D01*
X0317480Y0237854D01*
X0317251Y0237154D01*
X0316753Y0237126D01*
X0316537Y0237126D01*
X0315886Y0236856D01*
X0315388Y0236358D01*
X0315118Y0235707D01*
X0315118Y0235002D01*
X0315388Y0234351D01*
X0315886Y0233852D01*
X0316537Y0233583D01*
X0317242Y0233583D01*
X0317893Y0233852D01*
X0318391Y0234351D01*
X0318661Y0235002D01*
X0318661Y0235021D01*
X0318890Y0235720D01*
X0319389Y0235748D01*
X0319604Y0235748D01*
X0320255Y0236018D01*
X0320754Y0236516D01*
X0321023Y0237167D01*
X0321023Y0237872D01*
X0320754Y0238523D01*
X0320255Y0239022D01*
X0319604Y0239291D01*
D02*
G37*
G36*
X0198147Y0237126D02*
X0197443Y0237126D01*
X0196791Y0236856D01*
X0196293Y0236358D01*
X0196023Y0235707D01*
X0196023Y0235002D01*
X0196293Y0234351D01*
X0196791Y0233852D01*
X0197443Y0233583D01*
X0198147Y0233583D01*
X0198799Y0233852D01*
X0199297Y0234351D01*
X0199567Y0235002D01*
X0199567Y0235707D01*
X0199297Y0236358D01*
X0198799Y0236856D01*
X0198147Y0237126D01*
D02*
G37*
G36*
X0298729Y0235074D02*
X0298025Y0235074D01*
X0297373Y0234804D01*
X0296875Y0234306D01*
X0296605Y0233655D01*
X0296605Y0232950D01*
X0296875Y0232299D01*
X0297373Y0231800D01*
X0298025Y0231531D01*
X0298729Y0231531D01*
X0299381Y0231800D01*
X0299879Y0232299D01*
X0300149Y0232950D01*
X0300149Y0233655D01*
X0299879Y0234306D01*
X0299381Y0234804D01*
X0298729Y0235074D01*
D02*
G37*
G36*
X0235057Y0234173D02*
X0234352Y0234173D01*
X0233701Y0233904D01*
X0233202Y0233405D01*
X0232933Y0232754D01*
X0232933Y0232049D01*
X0233202Y0231398D01*
X0233701Y0230900D01*
X0234352Y0230630D01*
X0235057Y0230630D01*
X0235708Y0230900D01*
X0236206Y0231398D01*
X0236476Y0232049D01*
X0236476Y0232754D01*
X0236206Y0233405D01*
X0235708Y0233904D01*
X0235057Y0234173D01*
D02*
G37*
G36*
X0241947Y0233780D02*
X0241242Y0233780D01*
X0240591Y0233510D01*
X0240092Y0233011D01*
X0239823Y0232360D01*
X0239823Y0231656D01*
X0240092Y0231004D01*
X0240591Y0230506D01*
X0241242Y0230236D01*
X0241947Y0230236D01*
X0242598Y0230506D01*
X0243096Y0231004D01*
X0243366Y0231656D01*
X0243366Y0232360D01*
X0243096Y0233011D01*
X0242598Y0233510D01*
X0241947Y0233780D01*
D02*
G37*
G36*
X0223956Y0232063D02*
X0223251Y0232063D01*
X0222600Y0231794D01*
X0222101Y0231295D01*
X0221832Y0230644D01*
X0221832Y0229939D01*
X0222101Y0229288D01*
X0222600Y0228790D01*
X0223251Y0228520D01*
X0223956Y0228520D01*
X0224607Y0228790D01*
X0225105Y0229288D01*
X0225375Y0229939D01*
X0225375Y0230644D01*
X0225105Y0231295D01*
X0224607Y0231794D01*
X0223956Y0232063D01*
D02*
G37*
G36*
X0303277Y0230417D02*
X0302572Y0230417D01*
X0301921Y0230148D01*
X0301422Y0229649D01*
X0301153Y0228998D01*
X0301153Y0228293D01*
X0301422Y0227642D01*
X0301921Y0227144D01*
X0302572Y0226874D01*
X0303277Y0226874D01*
X0303928Y0227144D01*
X0304426Y0227642D01*
X0304696Y0228293D01*
X0304696Y0228998D01*
X0304426Y0229649D01*
X0303928Y0230148D01*
X0303277Y0230417D01*
D02*
G37*
G36*
X0295588Y0230039D02*
X0294883Y0230039D01*
X0294232Y0229770D01*
X0293734Y0229271D01*
X0293464Y0228620D01*
X0293464Y0227915D01*
X0293734Y0227264D01*
X0294232Y0226766D01*
X0294883Y0226496D01*
X0295588Y0226496D01*
X0296240Y0226766D01*
X0296738Y0227264D01*
X0297008Y0227915D01*
X0297008Y0228620D01*
X0296738Y0229271D01*
X0296240Y0229770D01*
X0295588Y0230039D01*
D02*
G37*
G36*
X0214289Y0229449D02*
X0213584Y0229449D01*
X0212933Y0229179D01*
X0212435Y0228681D01*
X0212165Y0228030D01*
X0212165Y0227325D01*
X0212435Y0226674D01*
X0212933Y0226175D01*
X0213584Y0225906D01*
X0214289Y0225906D01*
X0214940Y0226175D01*
X0215439Y0226674D01*
X0215708Y0227325D01*
X0215708Y0228030D01*
X0215439Y0228681D01*
X0214940Y0229179D01*
X0214289Y0229449D01*
D02*
G37*
G36*
X0277084Y0228661D02*
X0276380Y0228661D01*
X0275729Y0228392D01*
X0275230Y0227893D01*
X0274960Y0227242D01*
X0274960Y0226537D01*
X0275230Y0225886D01*
X0275729Y0225388D01*
X0276380Y0225118D01*
X0277084Y0225118D01*
X0277736Y0225388D01*
X0278234Y0225886D01*
X0278504Y0226537D01*
X0278504Y0227242D01*
X0278234Y0227893D01*
X0277736Y0228392D01*
X0277084Y0228661D01*
D02*
G37*
G36*
X0241945Y0225719D02*
X0241241Y0225719D01*
X0240590Y0225450D01*
X0240091Y0224951D01*
X0239821Y0224300D01*
X0239821Y0223595D01*
X0240091Y0222944D01*
X0240590Y0222446D01*
X0241241Y0222176D01*
X0241945Y0222176D01*
X0242597Y0222446D01*
X0243095Y0222944D01*
X0243365Y0223595D01*
X0243365Y0224300D01*
X0243095Y0224951D01*
X0242597Y0225450D01*
X0241945Y0225719D01*
D02*
G37*
G36*
X0235057Y0225709D02*
X0234352Y0225709D01*
X0233701Y0225439D01*
X0233202Y0224941D01*
X0232933Y0224289D01*
X0232933Y0223585D01*
X0233202Y0222933D01*
X0233701Y0222435D01*
X0234352Y0222165D01*
X0235057Y0222165D01*
X0235708Y0222435D01*
X0236206Y0222933D01*
X0236476Y0223585D01*
X0236476Y0224289D01*
X0236206Y0224941D01*
X0235708Y0225439D01*
X0235057Y0225709D01*
D02*
G37*
G36*
X0272321Y0230034D02*
X0271616Y0230034D01*
X0270965Y0229765D01*
X0270467Y0229266D01*
X0270197Y0228615D01*
X0270197Y0227910D01*
X0270467Y0227259D01*
X0270965Y0226761D01*
X0270992Y0226623D01*
X0270801Y0226432D01*
X0270532Y0225781D01*
X0270532Y0225076D01*
X0270801Y0224425D01*
X0271300Y0223926D01*
X0271951Y0223657D01*
X0272656Y0223657D01*
X0272907Y0223761D01*
X0273353Y0223093D01*
X0273345Y0223085D01*
X0273075Y0222434D01*
X0273075Y0221729D01*
X0273345Y0221078D01*
X0273843Y0220580D01*
X0274495Y0220310D01*
X0275199Y0220310D01*
X0275851Y0220580D01*
X0276349Y0221078D01*
X0276619Y0221729D01*
X0276619Y0222434D01*
X0276349Y0223085D01*
X0275851Y0223584D01*
X0275199Y0223853D01*
X0274495Y0223853D01*
X0274244Y0223749D01*
X0273797Y0224417D01*
X0273805Y0224425D01*
X0274075Y0225076D01*
X0274075Y0225781D01*
X0273805Y0226432D01*
X0273307Y0226930D01*
X0273279Y0227068D01*
X0273470Y0227259D01*
X0273740Y0227910D01*
X0273740Y0228615D01*
X0273470Y0229266D01*
X0272972Y0229765D01*
X0272321Y0230034D01*
D02*
G37*
G36*
X0347557Y0222953D02*
X0346852Y0222953D01*
X0346201Y0222683D01*
X0345703Y0222185D01*
X0345433Y0221534D01*
X0345433Y0220829D01*
X0345703Y0220178D01*
X0346201Y0219679D01*
X0346852Y0219410D01*
X0347557Y0219410D01*
X0348208Y0219679D01*
X0348706Y0220178D01*
X0348976Y0220829D01*
X0348976Y0221534D01*
X0348706Y0222185D01*
X0348208Y0222683D01*
X0347557Y0222953D01*
D02*
G37*
G36*
X0283187Y0224724D02*
X0282482Y0224724D01*
X0281831Y0224455D01*
X0281333Y0223956D01*
X0281063Y0223305D01*
X0281063Y0222600D01*
X0281333Y0221949D01*
X0281831Y0221451D01*
X0282482Y0221181D01*
X0282549Y0221181D01*
X0283228Y0220632D01*
X0283302Y0220454D01*
X0283498Y0219981D01*
X0283996Y0219482D01*
X0284647Y0219213D01*
X0285352Y0219213D01*
X0286003Y0219482D01*
X0286502Y0219981D01*
X0286771Y0220632D01*
X0286771Y0221337D01*
X0286502Y0221988D01*
X0286003Y0222486D01*
X0285352Y0222756D01*
X0285285Y0222756D01*
X0284606Y0223305D01*
X0284532Y0223483D01*
X0284336Y0223956D01*
X0283838Y0224455D01*
X0283187Y0224724D01*
D02*
G37*
G36*
X0259565Y0221772D02*
X0258860Y0221772D01*
X0258209Y0221502D01*
X0257710Y0221004D01*
X0257441Y0220352D01*
X0257441Y0219648D01*
X0257710Y0218996D01*
X0258209Y0218498D01*
X0258860Y0218228D01*
X0259565Y0218228D01*
X0260216Y0218498D01*
X0260714Y0218996D01*
X0260984Y0219648D01*
X0260984Y0220352D01*
X0260714Y0221004D01*
X0260216Y0221502D01*
X0259565Y0221772D01*
D02*
G37*
G36*
X0251494Y0222953D02*
X0250789Y0222953D01*
X0250138Y0222683D01*
X0249640Y0222185D01*
X0249370Y0221534D01*
X0249370Y0220829D01*
X0249640Y0220178D01*
X0250112Y0219705D01*
X0249640Y0219232D01*
X0249370Y0218581D01*
X0249370Y0217876D01*
X0249640Y0217225D01*
X0250138Y0216726D01*
X0250789Y0216457D01*
X0251494Y0216457D01*
X0252145Y0216726D01*
X0252643Y0217225D01*
X0252913Y0217876D01*
X0252913Y0218581D01*
X0252643Y0219232D01*
X0252171Y0219705D01*
X0252643Y0220178D01*
X0252913Y0220829D01*
X0252913Y0221534D01*
X0252643Y0222185D01*
X0252145Y0222683D01*
X0251494Y0222953D01*
D02*
G37*
G36*
X0313108Y0217453D02*
X0312403Y0217453D01*
X0311752Y0217183D01*
X0311254Y0216685D01*
X0310984Y0216034D01*
X0310984Y0215329D01*
X0311254Y0214678D01*
X0311752Y0214179D01*
X0312403Y0213910D01*
X0313108Y0213910D01*
X0313759Y0214179D01*
X0314258Y0214678D01*
X0314527Y0215329D01*
X0314527Y0216034D01*
X0314258Y0216685D01*
X0313759Y0217183D01*
X0313108Y0217453D01*
D02*
G37*
G36*
X0347401Y0216488D02*
X0346696Y0216488D01*
X0346045Y0216219D01*
X0345547Y0215720D01*
X0345277Y0215069D01*
X0345277Y0214364D01*
X0345547Y0213713D01*
X0346045Y0213215D01*
X0346696Y0212945D01*
X0347401Y0212945D01*
X0348052Y0213215D01*
X0348551Y0213713D01*
X0348820Y0214364D01*
X0348820Y0215069D01*
X0348551Y0215720D01*
X0348052Y0216219D01*
X0347401Y0216488D01*
D02*
G37*
G36*
X0266061Y0218720D02*
X0265356Y0218720D01*
X0264705Y0218451D01*
X0264207Y0217952D01*
X0263937Y0217301D01*
X0263937Y0216596D01*
X0264207Y0215945D01*
X0264630Y0215522D01*
X0264207Y0215098D01*
X0263937Y0214447D01*
X0263937Y0213742D01*
X0264207Y0213091D01*
X0264705Y0212593D01*
X0265356Y0212323D01*
X0266061Y0212323D01*
X0266712Y0212593D01*
X0267210Y0213091D01*
X0267480Y0213742D01*
X0267480Y0214447D01*
X0267210Y0215098D01*
X0266787Y0215522D01*
X0267210Y0215945D01*
X0267480Y0216596D01*
X0267480Y0217301D01*
X0267210Y0217952D01*
X0266712Y0218451D01*
X0266061Y0218720D01*
D02*
G37*
G36*
X0251494Y0214291D02*
X0250789Y0214291D01*
X0250138Y0214022D01*
X0249640Y0213523D01*
X0249370Y0212872D01*
X0249370Y0212167D01*
X0249640Y0211516D01*
X0250138Y0211018D01*
X0250789Y0210748D01*
X0251494Y0210748D01*
X0252145Y0211018D01*
X0252643Y0211516D01*
X0252913Y0212167D01*
X0252913Y0212872D01*
X0252643Y0213523D01*
X0252145Y0214022D01*
X0251494Y0214291D01*
D02*
G37*
G36*
X0202478Y0213898D02*
X0201773Y0213898D01*
X0201122Y0213628D01*
X0200624Y0213129D01*
X0200354Y0212478D01*
X0200354Y0211774D01*
X0200624Y0211122D01*
X0201122Y0210624D01*
X0201773Y0210354D01*
X0202478Y0210354D01*
X0203129Y0210624D01*
X0203628Y0211122D01*
X0203897Y0211774D01*
X0203897Y0212478D01*
X0203628Y0213129D01*
X0203129Y0213628D01*
X0202478Y0213898D01*
D02*
G37*
G36*
X0225313Y0219372D02*
X0224608Y0219372D01*
X0223957Y0219103D01*
X0223458Y0218604D01*
X0223189Y0217953D01*
X0223189Y0217248D01*
X0223458Y0216597D01*
X0223913Y0216143D01*
X0223458Y0215689D01*
X0223189Y0215038D01*
X0223189Y0214333D01*
X0223458Y0213682D01*
X0223957Y0213183D01*
X0223743Y0212824D01*
X0223655Y0212736D01*
X0223386Y0212085D01*
X0223386Y0211380D01*
X0223655Y0210729D01*
X0224154Y0210230D01*
X0224805Y0209961D01*
X0225510Y0209961D01*
X0226161Y0210230D01*
X0226659Y0210729D01*
X0226929Y0211380D01*
X0226929Y0212085D01*
X0226659Y0212736D01*
X0226161Y0213234D01*
X0226374Y0213594D01*
X0226462Y0213682D01*
X0226732Y0214333D01*
X0226732Y0215038D01*
X0226462Y0215689D01*
X0226008Y0216143D01*
X0226462Y0216597D01*
X0226732Y0217248D01*
X0226732Y0217953D01*
X0226462Y0218604D01*
X0225964Y0219103D01*
X0225313Y0219372D01*
D02*
G37*
G36*
X0235352Y0207598D02*
X0234647Y0207598D01*
X0233996Y0207329D01*
X0233498Y0206830D01*
X0233228Y0206179D01*
X0233228Y0205474D01*
X0233498Y0204823D01*
X0233996Y0204325D01*
X0234647Y0204055D01*
X0235352Y0204055D01*
X0236003Y0204325D01*
X0236502Y0204823D01*
X0236771Y0205474D01*
X0236771Y0206179D01*
X0236502Y0206830D01*
X0236003Y0207329D01*
X0235352Y0207598D01*
D02*
G37*
G36*
X0259233Y0209063D02*
X0258528Y0209063D01*
X0257877Y0208793D01*
X0257378Y0208295D01*
X0257108Y0207644D01*
X0257108Y0206939D01*
X0257378Y0206288D01*
X0257183Y0205515D01*
X0257120Y0205452D01*
X0256850Y0204801D01*
X0256850Y0204096D01*
X0257120Y0203445D01*
X0257618Y0202947D01*
X0258269Y0202677D01*
X0258974Y0202677D01*
X0259625Y0202947D01*
X0260124Y0203445D01*
X0260393Y0204096D01*
X0260393Y0204801D01*
X0260124Y0205452D01*
X0260319Y0206225D01*
X0260382Y0206288D01*
X0260652Y0206939D01*
X0260652Y0207644D01*
X0260382Y0208295D01*
X0259884Y0208793D01*
X0259233Y0209063D01*
D02*
G37*
G36*
X0312124Y0206024D02*
X0311419Y0206024D01*
X0310768Y0205754D01*
X0310269Y0205255D01*
X0310000Y0204604D01*
X0310000Y0203900D01*
X0310269Y0203248D01*
X0310768Y0202750D01*
X0311419Y0202480D01*
X0312124Y0202480D01*
X0312775Y0202750D01*
X0313273Y0203248D01*
X0313543Y0203900D01*
X0313543Y0204604D01*
X0313273Y0205255D01*
X0312775Y0205754D01*
X0312124Y0206024D01*
D02*
G37*
G36*
X0214486Y0205825D02*
X0213781Y0205825D01*
X0213130Y0205555D01*
X0212632Y0205057D01*
X0212362Y0204405D01*
X0212362Y0203701D01*
X0212632Y0203049D01*
X0213130Y0202551D01*
X0213781Y0202281D01*
X0214486Y0202281D01*
X0215137Y0202551D01*
X0215636Y0203049D01*
X0215905Y0203701D01*
X0215905Y0204405D01*
X0215636Y0205057D01*
X0215137Y0205555D01*
X0214486Y0205825D01*
D02*
G37*
G36*
X0251691Y0204842D02*
X0250986Y0204842D01*
X0250335Y0204573D01*
X0249836Y0204074D01*
X0249567Y0203423D01*
X0249567Y0202718D01*
X0249836Y0202067D01*
X0250335Y0201569D01*
X0250986Y0201299D01*
X0251691Y0201299D01*
X0252342Y0201569D01*
X0252840Y0202067D01*
X0253110Y0202718D01*
X0253110Y0203423D01*
X0252840Y0204074D01*
X0252342Y0204573D01*
X0251691Y0204842D01*
D02*
G37*
G36*
X0286927Y0206417D02*
X0286222Y0206417D01*
X0285571Y0206148D01*
X0285073Y0205649D01*
X0284803Y0204998D01*
X0284803Y0204476D01*
X0284762Y0204449D01*
X0284057Y0204449D01*
X0283406Y0204179D01*
X0282907Y0203681D01*
X0282637Y0203030D01*
X0282637Y0202325D01*
X0282907Y0201674D01*
X0283406Y0201175D01*
X0284057Y0200905D01*
X0284762Y0200905D01*
X0285413Y0201175D01*
X0285911Y0201674D01*
X0286181Y0202325D01*
X0286181Y0202846D01*
X0286222Y0202874D01*
X0286927Y0202874D01*
X0287578Y0203144D01*
X0288076Y0203642D01*
X0288346Y0204293D01*
X0288346Y0204998D01*
X0288076Y0205649D01*
X0287578Y0206148D01*
X0286927Y0206417D01*
D02*
G37*
G36*
X0304862Y0203358D02*
X0304158Y0203358D01*
X0303506Y0203088D01*
X0303008Y0202590D01*
X0302738Y0201938D01*
X0302738Y0201234D01*
X0303008Y0200582D01*
X0303506Y0200084D01*
X0304158Y0199814D01*
X0304862Y0199814D01*
X0305513Y0200084D01*
X0306012Y0200582D01*
X0306282Y0201234D01*
X0306282Y0201938D01*
X0306012Y0202590D01*
X0305513Y0203088D01*
X0304862Y0203358D01*
D02*
G37*
G36*
X0325707Y0200512D02*
X0325002Y0200512D01*
X0324350Y0200242D01*
X0323852Y0199744D01*
X0323582Y0199093D01*
X0323582Y0198388D01*
X0323852Y0197737D01*
X0324350Y0197238D01*
X0325002Y0196968D01*
X0325707Y0196968D01*
X0326358Y0197238D01*
X0326856Y0197737D01*
X0327126Y0198388D01*
X0327126Y0199093D01*
X0326856Y0199744D01*
X0326358Y0200242D01*
X0325707Y0200512D01*
D02*
G37*
G36*
X0229643Y0199528D02*
X0228939Y0199528D01*
X0228287Y0199258D01*
X0227789Y0198759D01*
X0227519Y0198108D01*
X0227519Y0197403D01*
X0227789Y0196752D01*
X0228287Y0196254D01*
X0228939Y0195984D01*
X0229643Y0195984D01*
X0230295Y0196254D01*
X0230793Y0196752D01*
X0231063Y0197403D01*
X0231063Y0198108D01*
X0230793Y0198759D01*
X0230295Y0199258D01*
X0229643Y0199528D01*
D02*
G37*
G36*
X0283384Y0192638D02*
X0282679Y0192638D01*
X0282028Y0192368D01*
X0281529Y0191870D01*
X0280885Y0192171D01*
X0280234Y0192441D01*
X0279529Y0192441D01*
X0278878Y0192171D01*
X0278380Y0191673D01*
X0278110Y0191022D01*
X0278110Y0190317D01*
X0278380Y0189666D01*
X0278878Y0189167D01*
X0279529Y0188898D01*
X0280234Y0188898D01*
X0280885Y0189167D01*
X0281383Y0189666D01*
X0282028Y0189364D01*
X0282679Y0189095D01*
X0283384Y0189095D01*
X0284035Y0189364D01*
X0284533Y0189863D01*
X0284803Y0190514D01*
X0284803Y0191219D01*
X0284533Y0191870D01*
X0284035Y0192368D01*
X0283384Y0192638D01*
D02*
G37*
G36*
X0312124Y0195394D02*
X0311419Y0195394D01*
X0310768Y0195124D01*
X0310269Y0194626D01*
X0310000Y0193975D01*
X0310000Y0193270D01*
X0310269Y0192619D01*
X0310768Y0192120D01*
X0311419Y0191850D01*
X0312124Y0191850D01*
X0312775Y0192120D01*
X0313273Y0192619D01*
X0313543Y0193270D01*
X0313543Y0193975D01*
X0313273Y0194626D01*
X0312775Y0195124D01*
X0312124Y0195394D01*
D02*
G37*
G36*
X0288173Y0195429D02*
X0287468Y0195429D01*
X0286817Y0195159D01*
X0286318Y0194661D01*
X0286049Y0194009D01*
X0286049Y0193305D01*
X0286318Y0192654D01*
X0286817Y0192155D01*
X0287468Y0191885D01*
X0288173Y0191885D01*
X0288824Y0192155D01*
X0289645Y0191863D01*
X0289837Y0191670D01*
X0290488Y0191401D01*
X0291193Y0191401D01*
X0291844Y0191670D01*
X0292342Y0192169D01*
X0292612Y0192820D01*
X0292612Y0193525D01*
X0292342Y0194176D01*
X0291844Y0194674D01*
X0291193Y0194944D01*
X0290488Y0194944D01*
X0289837Y0194674D01*
X0289016Y0194967D01*
X0288824Y0195159D01*
X0288173Y0195429D01*
D02*
G37*
G36*
X0304643Y0197658D02*
X0303939Y0197658D01*
X0303288Y0197388D01*
X0302789Y0196889D01*
X0302519Y0196238D01*
X0302519Y0195533D01*
X0302789Y0194882D01*
X0303213Y0194459D01*
X0302789Y0194035D01*
X0302519Y0193384D01*
X0302519Y0192679D01*
X0302789Y0192028D01*
X0303288Y0191530D01*
X0303939Y0191260D01*
X0304643Y0191260D01*
X0305295Y0191530D01*
X0305793Y0192028D01*
X0306063Y0192679D01*
X0306063Y0193384D01*
X0305793Y0194035D01*
X0305369Y0194459D01*
X0305793Y0194882D01*
X0306063Y0195533D01*
X0306063Y0196238D01*
X0305793Y0196889D01*
X0305295Y0197388D01*
X0304643Y0197658D01*
D02*
G37*
G36*
X0271966Y0192500D02*
X0271261Y0192500D01*
X0270610Y0192230D01*
X0270112Y0191732D01*
X0269842Y0191080D01*
X0269842Y0190376D01*
X0270112Y0189724D01*
X0270610Y0189226D01*
X0271261Y0188956D01*
X0271966Y0188956D01*
X0272617Y0189226D01*
X0273116Y0189724D01*
X0273385Y0190376D01*
X0273385Y0191080D01*
X0273116Y0191732D01*
X0272617Y0192230D01*
X0271966Y0192500D01*
D02*
G37*
G36*
X0314683Y0191457D02*
X0313978Y0191457D01*
X0313327Y0191187D01*
X0312829Y0190689D01*
X0312559Y0190038D01*
X0312559Y0189333D01*
X0312829Y0188682D01*
X0313327Y0188183D01*
X0313978Y0187913D01*
X0314683Y0187913D01*
X0315334Y0188183D01*
X0315832Y0188682D01*
X0316102Y0189333D01*
X0316102Y0190038D01*
X0315832Y0190689D01*
X0315334Y0191187D01*
X0314683Y0191457D01*
D02*
G37*
G36*
X0295391Y0189095D02*
X0294687Y0189095D01*
X0294036Y0188825D01*
X0293537Y0188326D01*
X0293268Y0187675D01*
X0293268Y0186970D01*
X0293537Y0186319D01*
X0294036Y0185821D01*
X0294687Y0185551D01*
X0295391Y0185551D01*
X0296043Y0185821D01*
X0296541Y0186319D01*
X0296811Y0186970D01*
X0296811Y0187675D01*
X0296541Y0188326D01*
X0296043Y0188825D01*
X0295391Y0189095D01*
D02*
G37*
G36*
X0206809Y0185748D02*
X0206104Y0185748D01*
X0205453Y0185478D01*
X0204954Y0184980D01*
X0204685Y0184329D01*
X0204685Y0183624D01*
X0204954Y0182973D01*
X0205453Y0182475D01*
X0206104Y0182205D01*
X0206809Y0182205D01*
X0207460Y0182475D01*
X0207958Y0182973D01*
X0208228Y0183624D01*
X0208228Y0184329D01*
X0207958Y0184980D01*
X0207460Y0185478D01*
X0206809Y0185748D01*
D02*
G37*
G36*
X0244801Y0185551D02*
X0244096Y0185551D01*
X0243445Y0185281D01*
X0242947Y0184783D01*
X0242677Y0184132D01*
X0242677Y0183427D01*
X0242947Y0182776D01*
X0243445Y0182278D01*
X0244096Y0182008D01*
X0244801Y0182008D01*
X0245452Y0182278D01*
X0245950Y0182776D01*
X0246220Y0183427D01*
X0246220Y0184132D01*
X0245950Y0184783D01*
X0245452Y0185281D01*
X0244801Y0185551D01*
D02*
G37*
G36*
X0260746Y0185453D02*
X0260041Y0185453D01*
X0259390Y0185183D01*
X0258892Y0184685D01*
X0258622Y0184034D01*
X0258622Y0183329D01*
X0258892Y0182678D01*
X0259390Y0182179D01*
X0260041Y0181910D01*
X0260746Y0181910D01*
X0261397Y0182179D01*
X0261895Y0182678D01*
X0262165Y0183329D01*
X0262165Y0184034D01*
X0261895Y0184685D01*
X0261397Y0185183D01*
X0260746Y0185453D01*
D02*
G37*
G36*
X0283581Y0182992D02*
X0282876Y0182992D01*
X0282225Y0182722D01*
X0281726Y0182224D01*
X0281456Y0181573D01*
X0281456Y0180868D01*
X0281726Y0180217D01*
X0282225Y0179719D01*
X0282876Y0179449D01*
X0283581Y0179449D01*
X0284232Y0179719D01*
X0284730Y0180217D01*
X0285000Y0180868D01*
X0285000Y0181573D01*
X0284730Y0182224D01*
X0284232Y0182722D01*
X0283581Y0182992D01*
D02*
G37*
G36*
X0304250Y0181811D02*
X0303545Y0181811D01*
X0302894Y0181541D01*
X0302395Y0181043D01*
X0302126Y0180392D01*
X0302126Y0179687D01*
X0302395Y0179036D01*
X0302894Y0178538D01*
X0303545Y0178268D01*
X0304250Y0178268D01*
X0304901Y0178538D01*
X0305399Y0179036D01*
X0305669Y0179687D01*
X0305669Y0180392D01*
X0305399Y0181043D01*
X0304901Y0181541D01*
X0304250Y0181811D01*
D02*
G37*
G36*
X0268029Y0181024D02*
X0267324Y0181024D01*
X0266673Y0180754D01*
X0266175Y0180255D01*
X0265905Y0179604D01*
X0265905Y0178900D01*
X0266175Y0178248D01*
X0266673Y0177750D01*
X0267324Y0177480D01*
X0268029Y0177480D01*
X0268680Y0177750D01*
X0269179Y0178248D01*
X0269448Y0178900D01*
X0269448Y0179604D01*
X0269179Y0180255D01*
X0268680Y0180754D01*
X0268029Y0181024D01*
D02*
G37*
G36*
X0277872Y0182205D02*
X0277167Y0182205D01*
X0276516Y0181935D01*
X0276018Y0181437D01*
X0275748Y0180786D01*
X0275748Y0180081D01*
X0276018Y0179430D01*
X0275532Y0178982D01*
X0275033Y0178484D01*
X0274763Y0177833D01*
X0274763Y0177128D01*
X0275033Y0176477D01*
X0275532Y0175978D01*
X0276183Y0175709D01*
X0276888Y0175709D01*
X0277539Y0175978D01*
X0278037Y0176477D01*
X0278307Y0177128D01*
X0278307Y0177833D01*
X0278037Y0178484D01*
X0278523Y0178931D01*
X0279021Y0179430D01*
X0279291Y0180081D01*
X0279291Y0180786D01*
X0279021Y0181437D01*
X0278523Y0181935D01*
X0277872Y0182205D01*
D02*
G37*
G36*
X0268817Y0175512D02*
X0268112Y0175512D01*
X0267461Y0175242D01*
X0266962Y0174744D01*
X0266693Y0174093D01*
X0266693Y0173388D01*
X0266962Y0172737D01*
X0267461Y0172238D01*
X0268112Y0171968D01*
X0268817Y0171968D01*
X0269468Y0172238D01*
X0269966Y0172737D01*
X0270236Y0173388D01*
X0270236Y0174093D01*
X0269966Y0174744D01*
X0269468Y0175242D01*
X0268817Y0175512D01*
D02*
G37*
G36*
X0287124Y0175118D02*
X0286419Y0175118D01*
X0285768Y0174848D01*
X0285270Y0174350D01*
X0285000Y0173699D01*
X0285000Y0172994D01*
X0285270Y0172343D01*
X0285768Y0171845D01*
X0286419Y0171575D01*
X0287124Y0171575D01*
X0287775Y0171845D01*
X0288273Y0172343D01*
X0288543Y0172994D01*
X0288543Y0173699D01*
X0288273Y0174350D01*
X0287775Y0174848D01*
X0287124Y0175118D01*
D02*
G37*
G36*
X0267077Y0168260D02*
X0266372Y0168260D01*
X0265721Y0167990D01*
X0265280Y0167549D01*
X0264874Y0167955D01*
X0264223Y0168225D01*
X0263518Y0168225D01*
X0262867Y0167955D01*
X0262368Y0167457D01*
X0262099Y0166806D01*
X0262099Y0166101D01*
X0262368Y0165450D01*
X0262867Y0164951D01*
X0263518Y0164682D01*
X0264223Y0164682D01*
X0264874Y0164951D01*
X0265315Y0165393D01*
X0265721Y0164987D01*
X0266372Y0164717D01*
X0267077Y0164717D01*
X0267728Y0164987D01*
X0268226Y0165485D01*
X0268496Y0166136D01*
X0268496Y0166841D01*
X0268226Y0167492D01*
X0267728Y0167990D01*
X0267077Y0168260D01*
D02*
G37*
G36*
X0239124Y0168260D02*
X0238419Y0168260D01*
X0237768Y0167990D01*
X0237327Y0167549D01*
X0236921Y0167955D01*
X0236270Y0168225D01*
X0235565Y0168225D01*
X0234914Y0167955D01*
X0234416Y0167457D01*
X0234146Y0166806D01*
X0234146Y0166101D01*
X0234416Y0165450D01*
X0234914Y0164951D01*
X0235565Y0164682D01*
X0236270Y0164682D01*
X0236921Y0164951D01*
X0237362Y0165393D01*
X0237768Y0164987D01*
X0238419Y0164717D01*
X0239124Y0164717D01*
X0239775Y0164987D01*
X0240273Y0165485D01*
X0240543Y0166136D01*
X0240543Y0166841D01*
X0240273Y0167492D01*
X0239775Y0167990D01*
X0239124Y0168260D01*
D02*
G37*
G36*
X0211171Y0168260D02*
X0210467Y0168260D01*
X0209815Y0167990D01*
X0209374Y0167549D01*
X0208968Y0167955D01*
X0208317Y0168225D01*
X0207612Y0168225D01*
X0206961Y0167955D01*
X0206463Y0167457D01*
X0206193Y0166806D01*
X0206193Y0166101D01*
X0206463Y0165450D01*
X0206961Y0164951D01*
X0207612Y0164682D01*
X0208317Y0164682D01*
X0208968Y0164951D01*
X0209409Y0165393D01*
X0209815Y0164987D01*
X0210467Y0164717D01*
X0211171Y0164717D01*
X0211822Y0164987D01*
X0212321Y0165485D01*
X0212591Y0166136D01*
X0212591Y0166841D01*
X0212321Y0167492D01*
X0211822Y0167990D01*
X0211171Y0168260D01*
D02*
G37*
G36*
X0274132Y0170984D02*
X0273427Y0170984D01*
X0272776Y0170714D01*
X0272277Y0170216D01*
X0272008Y0169565D01*
X0272008Y0168860D01*
X0272277Y0168209D01*
X0272776Y0167711D01*
X0273427Y0167441D01*
X0274132Y0167441D01*
X0274783Y0167711D01*
X0275281Y0168209D01*
X0275551Y0168860D01*
X0275551Y0169565D01*
X0275281Y0170216D01*
X0274783Y0170714D01*
X0274132Y0170984D01*
D02*
G37*
G36*
X0246179Y0170984D02*
X0245474Y0170984D01*
X0244823Y0170714D01*
X0244325Y0170216D01*
X0244055Y0169565D01*
X0244055Y0168860D01*
X0244325Y0168209D01*
X0244823Y0167711D01*
X0245474Y0167441D01*
X0246179Y0167441D01*
X0246830Y0167711D01*
X0247328Y0168209D01*
X0247598Y0168860D01*
X0247598Y0169565D01*
X0247328Y0170216D01*
X0246830Y0170714D01*
X0246179Y0170984D01*
D02*
G37*
G36*
X0218226Y0170984D02*
X0217521Y0170984D01*
X0216870Y0170714D01*
X0216372Y0170216D01*
X0216102Y0169565D01*
X0216102Y0168860D01*
X0216372Y0168209D01*
X0216870Y0167711D01*
X0217521Y0167441D01*
X0218226Y0167441D01*
X0218877Y0167711D01*
X0219376Y0168209D01*
X0219645Y0168860D01*
X0219645Y0169565D01*
X0219376Y0170216D01*
X0218877Y0170714D01*
X0218226Y0170984D01*
D02*
G37*
G36*
X0259383Y0170276D02*
X0258678Y0170276D01*
X0258027Y0170007D01*
X0257529Y0169508D01*
X0257259Y0168857D01*
X0257259Y0168152D01*
X0257529Y0167501D01*
X0258027Y0167003D01*
X0258678Y0166733D01*
X0259383Y0166733D01*
X0260034Y0167003D01*
X0260533Y0167501D01*
X0260802Y0168152D01*
X0260802Y0168857D01*
X0260533Y0169508D01*
X0260034Y0170007D01*
X0259383Y0170276D01*
D02*
G37*
G36*
X0231430Y0170276D02*
X0230725Y0170276D01*
X0230074Y0170007D01*
X0229576Y0169508D01*
X0229306Y0168857D01*
X0229306Y0168152D01*
X0229576Y0167501D01*
X0230074Y0167003D01*
X0230725Y0166733D01*
X0231430Y0166733D01*
X0232081Y0167003D01*
X0232580Y0167501D01*
X0232849Y0168152D01*
X0232849Y0168857D01*
X0232580Y0169508D01*
X0232081Y0170007D01*
X0231430Y0170276D01*
D02*
G37*
G36*
X0203477Y0170276D02*
X0202773Y0170276D01*
X0202122Y0170007D01*
X0201623Y0169508D01*
X0201353Y0168857D01*
X0201353Y0168152D01*
X0201623Y0167501D01*
X0202122Y0167003D01*
X0202773Y0166733D01*
X0203477Y0166733D01*
X0204129Y0167003D01*
X0204627Y0167501D01*
X0204897Y0168152D01*
X0204897Y0168857D01*
X0204627Y0169508D01*
X0204129Y0170007D01*
X0203477Y0170276D01*
D02*
G37*
G36*
X0347764Y0166063D02*
X0347039Y0166063D01*
X0346338Y0165875D01*
X0345709Y0165512D01*
X0345196Y0164999D01*
X0344833Y0164371D01*
X0344645Y0163670D01*
X0344645Y0162944D01*
X0344833Y0162243D01*
X0345196Y0161615D01*
X0345709Y0161102D01*
X0346338Y0160739D01*
X0347039Y0160551D01*
X0347764Y0160551D01*
X0348465Y0160739D01*
X0349093Y0161102D01*
X0349607Y0161615D01*
X0349969Y0162243D01*
X0350157Y0162944D01*
X0350157Y0163670D01*
X0349969Y0164371D01*
X0349607Y0164999D01*
X0349093Y0165512D01*
X0348465Y0165875D01*
X0347764Y0166063D01*
D02*
G37*
G36*
X0328079Y0166063D02*
X0327353Y0166063D01*
X0326652Y0165875D01*
X0326024Y0165512D01*
X0325511Y0164999D01*
X0325148Y0164371D01*
X0324960Y0163670D01*
X0324960Y0162944D01*
X0325148Y0162243D01*
X0325511Y0161615D01*
X0326024Y0161102D01*
X0326652Y0160739D01*
X0327353Y0160551D01*
X0328079Y0160551D01*
X0328780Y0160739D01*
X0329408Y0161102D01*
X0329922Y0161615D01*
X0330284Y0162243D01*
X0330472Y0162944D01*
X0330472Y0163670D01*
X0330284Y0164371D01*
X0329922Y0164999D01*
X0329408Y0165512D01*
X0328780Y0165875D01*
X0328079Y0166063D01*
D02*
G37*
G36*
X0308394Y0166063D02*
X0307668Y0166063D01*
X0306968Y0165875D01*
X0306339Y0165512D01*
X0305826Y0164999D01*
X0305463Y0164371D01*
X0305275Y0163670D01*
X0305275Y0162944D01*
X0305463Y0162243D01*
X0305826Y0161615D01*
X0306339Y0161102D01*
X0306968Y0160739D01*
X0307668Y0160551D01*
X0308394Y0160551D01*
X0309095Y0160739D01*
X0309723Y0161102D01*
X0310236Y0161615D01*
X0310599Y0162243D01*
X0310787Y0162944D01*
X0310787Y0163670D01*
X0310599Y0164371D01*
X0310236Y0164999D01*
X0309723Y0165512D01*
X0309095Y0165875D01*
X0308394Y0166063D01*
D02*
G37*
G36*
X0288709Y0166063D02*
X0287983Y0166063D01*
X0287282Y0165875D01*
X0286654Y0165512D01*
X0286141Y0164999D01*
X0285778Y0164371D01*
X0285590Y0163670D01*
X0285590Y0162944D01*
X0285778Y0162243D01*
X0286141Y0161615D01*
X0286654Y0161102D01*
X0287282Y0160739D01*
X0287983Y0160551D01*
X0288709Y0160551D01*
X0289410Y0160739D01*
X0290038Y0161102D01*
X0290551Y0161615D01*
X0290914Y0162243D01*
X0291102Y0162944D01*
X0291102Y0163670D01*
X0290914Y0164371D01*
X0290551Y0164999D01*
X0290038Y0165512D01*
X0289410Y0165875D01*
X0288709Y0166063D01*
D02*
G37*
G36*
X0274525Y0162913D02*
X0273821Y0162913D01*
X0273169Y0162644D01*
X0272671Y0162145D01*
X0272401Y0161494D01*
X0272401Y0160789D01*
X0272671Y0160138D01*
X0273169Y0159640D01*
X0273821Y0159370D01*
X0274525Y0159370D01*
X0275176Y0159640D01*
X0275675Y0160138D01*
X0275945Y0160789D01*
X0275945Y0161494D01*
X0275675Y0162145D01*
X0275176Y0162644D01*
X0274525Y0162913D01*
D02*
G37*
G36*
X0246573Y0162913D02*
X0245868Y0162913D01*
X0245217Y0162644D01*
X0244718Y0162145D01*
X0244449Y0161494D01*
X0244449Y0160789D01*
X0244718Y0160138D01*
X0245217Y0159640D01*
X0245868Y0159370D01*
X0246573Y0159370D01*
X0247224Y0159640D01*
X0247722Y0160138D01*
X0247992Y0160789D01*
X0247992Y0161494D01*
X0247722Y0162145D01*
X0247224Y0162644D01*
X0246573Y0162913D01*
D02*
G37*
G36*
X0230825Y0162913D02*
X0230120Y0162913D01*
X0229469Y0162644D01*
X0228970Y0162145D01*
X0228701Y0161494D01*
X0228701Y0160789D01*
X0228970Y0160138D01*
X0229469Y0159640D01*
X0230120Y0159370D01*
X0230825Y0159370D01*
X0231476Y0159640D01*
X0231974Y0160138D01*
X0232244Y0160789D01*
X0232244Y0161494D01*
X0231974Y0162145D01*
X0231476Y0162644D01*
X0230825Y0162913D01*
D02*
G37*
G36*
X0218620Y0162913D02*
X0217915Y0162913D01*
X0217264Y0162644D01*
X0216765Y0162145D01*
X0216496Y0161494D01*
X0216496Y0160789D01*
X0216765Y0160138D01*
X0217264Y0159640D01*
X0217915Y0159370D01*
X0218620Y0159370D01*
X0219271Y0159640D01*
X0219769Y0160138D01*
X0220039Y0160789D01*
X0220039Y0161494D01*
X0219769Y0162145D01*
X0219271Y0162644D01*
X0218620Y0162913D01*
D02*
G37*
G36*
X0202872Y0162913D02*
X0202167Y0162913D01*
X0201516Y0162644D01*
X0201017Y0162145D01*
X0200748Y0161494D01*
X0200748Y0160789D01*
X0201017Y0160138D01*
X0201516Y0159640D01*
X0202167Y0159370D01*
X0202872Y0159370D01*
X0203523Y0159640D01*
X0204021Y0160138D01*
X0204291Y0160789D01*
X0204291Y0161494D01*
X0204021Y0162145D01*
X0203523Y0162644D01*
X0202872Y0162913D01*
D02*
G37*
G36*
X0268029Y0157992D02*
X0267324Y0157992D01*
X0266673Y0157722D01*
X0266200Y0157250D01*
X0265728Y0157722D01*
X0265077Y0157992D01*
X0264372Y0157992D01*
X0263721Y0157722D01*
X0263222Y0157224D01*
X0262953Y0156573D01*
X0262953Y0155868D01*
X0263222Y0155217D01*
X0263721Y0154718D01*
X0264372Y0154449D01*
X0265077Y0154449D01*
X0265728Y0154718D01*
X0266200Y0155191D01*
X0266673Y0154718D01*
X0267324Y0154449D01*
X0268029Y0154449D01*
X0268680Y0154718D01*
X0269179Y0155217D01*
X0269448Y0155868D01*
X0269448Y0156573D01*
X0269179Y0157224D01*
X0268680Y0157722D01*
X0268029Y0157992D01*
D02*
G37*
G36*
X0240076Y0157992D02*
X0239372Y0157992D01*
X0238721Y0157722D01*
X0238248Y0157250D01*
X0237775Y0157722D01*
X0237124Y0157992D01*
X0236419Y0157992D01*
X0235768Y0157722D01*
X0235270Y0157224D01*
X0235000Y0156573D01*
X0235000Y0155868D01*
X0235270Y0155217D01*
X0235768Y0154718D01*
X0236419Y0154449D01*
X0237124Y0154449D01*
X0237775Y0154718D01*
X0238248Y0155191D01*
X0238721Y0154718D01*
X0239372Y0154449D01*
X0240076Y0154449D01*
X0240728Y0154718D01*
X0241226Y0155217D01*
X0241496Y0155868D01*
X0241496Y0156573D01*
X0241226Y0157224D01*
X0240728Y0157722D01*
X0240076Y0157992D01*
D02*
G37*
G36*
X0212124Y0157992D02*
X0211419Y0157992D01*
X0210768Y0157722D01*
X0210269Y0157224D01*
X0210000Y0156573D01*
X0210000Y0155868D01*
X0210269Y0155217D01*
X0210768Y0154718D01*
X0211419Y0154449D01*
X0212124Y0154449D01*
X0212775Y0154718D01*
X0213273Y0155217D01*
X0213543Y0155868D01*
X0213543Y0156573D01*
X0213273Y0157224D01*
X0212775Y0157722D01*
X0212124Y0157992D01*
D02*
G37*
G36*
X0274722Y0156614D02*
X0274017Y0156614D01*
X0273366Y0156345D01*
X0272868Y0155846D01*
X0272598Y0155195D01*
X0272598Y0154490D01*
X0272868Y0153839D01*
X0273366Y0153341D01*
X0274017Y0153071D01*
X0274722Y0153071D01*
X0275373Y0153341D01*
X0275872Y0153839D01*
X0276142Y0154490D01*
X0276142Y0155195D01*
X0275872Y0155846D01*
X0275373Y0156345D01*
X0274722Y0156614D01*
D02*
G37*
G36*
X0218867Y0156564D02*
X0218163Y0156564D01*
X0217511Y0156294D01*
X0217013Y0155796D01*
X0216743Y0155144D01*
X0216743Y0154440D01*
X0217013Y0153788D01*
X0217511Y0153290D01*
X0218163Y0153020D01*
X0218867Y0153020D01*
X0219518Y0153290D01*
X0220017Y0153788D01*
X0220287Y0154440D01*
X0220287Y0155144D01*
X0220017Y0155796D01*
X0219518Y0156294D01*
X0218867Y0156564D01*
D02*
G37*
G36*
X0258777Y0162913D02*
X0258072Y0162913D01*
X0257421Y0162644D01*
X0256923Y0162145D01*
X0256653Y0161494D01*
X0256653Y0160789D01*
X0256923Y0160138D01*
X0257003Y0160058D01*
X0257208Y0159355D01*
X0256980Y0159053D01*
X0256726Y0158799D01*
X0256456Y0158148D01*
X0256456Y0157443D01*
X0256726Y0156792D01*
X0257028Y0156148D01*
X0256529Y0155649D01*
X0256260Y0154998D01*
X0256260Y0154293D01*
X0256529Y0153642D01*
X0257028Y0153144D01*
X0257679Y0152874D01*
X0258384Y0152874D01*
X0259035Y0153144D01*
X0259533Y0153642D01*
X0259803Y0154293D01*
X0259803Y0154998D01*
X0259533Y0155649D01*
X0259232Y0156293D01*
X0259730Y0156792D01*
X0260000Y0157443D01*
X0260000Y0158148D01*
X0259730Y0158799D01*
X0259650Y0158879D01*
X0259445Y0159582D01*
X0259673Y0159884D01*
X0259927Y0160138D01*
X0260197Y0160789D01*
X0260197Y0161494D01*
X0259927Y0162145D01*
X0259428Y0162644D01*
X0258777Y0162913D01*
D02*
G37*
G36*
X0230385Y0156417D02*
X0229680Y0156417D01*
X0229029Y0156148D01*
X0228531Y0155649D01*
X0228261Y0154998D01*
X0228261Y0154293D01*
X0228531Y0153642D01*
X0229029Y0153144D01*
X0229680Y0152874D01*
X0230385Y0152874D01*
X0231036Y0153144D01*
X0231535Y0153642D01*
X0231804Y0154293D01*
X0231804Y0154998D01*
X0231535Y0155649D01*
X0231036Y0156148D01*
X0230385Y0156417D01*
D02*
G37*
G36*
X0202478Y0156417D02*
X0201773Y0156417D01*
X0201122Y0156148D01*
X0200624Y0155649D01*
X0200354Y0154998D01*
X0200354Y0154293D01*
X0200624Y0153642D01*
X0201122Y0153144D01*
X0201773Y0152874D01*
X0202478Y0152874D01*
X0203129Y0153144D01*
X0203628Y0153642D01*
X0203897Y0154293D01*
X0203897Y0154998D01*
X0203628Y0155649D01*
X0203129Y0156148D01*
X0202478Y0156417D01*
D02*
G37*
G36*
X0266651Y0153661D02*
X0265946Y0153661D01*
X0265295Y0153392D01*
X0264797Y0152893D01*
X0264527Y0152242D01*
X0264527Y0151537D01*
X0264797Y0150886D01*
X0265295Y0150388D01*
X0265946Y0150118D01*
X0266651Y0150118D01*
X0267302Y0150388D01*
X0267801Y0150886D01*
X0268071Y0151537D01*
X0268071Y0152242D01*
X0267801Y0152893D01*
X0267302Y0153392D01*
X0266651Y0153661D01*
D02*
G37*
G36*
X0246770Y0153465D02*
X0246065Y0153465D01*
X0245414Y0153195D01*
X0244915Y0152697D01*
X0244645Y0152045D01*
X0244645Y0151341D01*
X0244915Y0150689D01*
X0245414Y0150191D01*
X0246065Y0149921D01*
X0246770Y0149921D01*
X0247421Y0150191D01*
X0247919Y0150689D01*
X0248189Y0151341D01*
X0248189Y0152045D01*
X0247919Y0152697D01*
X0247421Y0153195D01*
X0246770Y0153465D01*
D02*
G37*
G36*
X0347764Y0154252D02*
X0347039Y0154252D01*
X0346338Y0154064D01*
X0345709Y0153701D01*
X0345196Y0153188D01*
X0344833Y0152560D01*
X0344645Y0151859D01*
X0344645Y0151133D01*
X0344833Y0150432D01*
X0345196Y0149804D01*
X0345709Y0149291D01*
X0346338Y0148928D01*
X0347039Y0148740D01*
X0347764Y0148740D01*
X0348465Y0148928D01*
X0349093Y0149291D01*
X0349607Y0149804D01*
X0349969Y0150432D01*
X0350157Y0151133D01*
X0350157Y0151859D01*
X0349969Y0152560D01*
X0349607Y0153188D01*
X0349093Y0153701D01*
X0348465Y0154064D01*
X0347764Y0154252D01*
D02*
G37*
G36*
X0328079Y0154252D02*
X0327353Y0154252D01*
X0326652Y0154064D01*
X0326024Y0153701D01*
X0325511Y0153188D01*
X0325148Y0152560D01*
X0324960Y0151859D01*
X0324960Y0151133D01*
X0325148Y0150432D01*
X0325511Y0149804D01*
X0326024Y0149291D01*
X0326652Y0148928D01*
X0327353Y0148740D01*
X0328079Y0148740D01*
X0328780Y0148928D01*
X0329408Y0149291D01*
X0329922Y0149804D01*
X0330284Y0150432D01*
X0330472Y0151133D01*
X0330472Y0151859D01*
X0330284Y0152560D01*
X0329922Y0153188D01*
X0329408Y0153701D01*
X0328780Y0154064D01*
X0328079Y0154252D01*
D02*
G37*
G36*
X0308394Y0154252D02*
X0307668Y0154252D01*
X0306968Y0154064D01*
X0306339Y0153701D01*
X0305826Y0153188D01*
X0305463Y0152560D01*
X0305275Y0151859D01*
X0305275Y0151133D01*
X0305463Y0150432D01*
X0305826Y0149804D01*
X0306339Y0149291D01*
X0306968Y0148928D01*
X0307668Y0148740D01*
X0308394Y0148740D01*
X0309095Y0148928D01*
X0309723Y0149291D01*
X0310236Y0149804D01*
X0310599Y0150432D01*
X0310787Y0151133D01*
X0310787Y0151859D01*
X0310599Y0152560D01*
X0310236Y0153188D01*
X0309723Y0153701D01*
X0309095Y0154064D01*
X0308394Y0154252D01*
D02*
G37*
G36*
X0288709Y0154252D02*
X0287983Y0154252D01*
X0287282Y0154064D01*
X0286654Y0153701D01*
X0286141Y0153188D01*
X0285778Y0152560D01*
X0285590Y0151859D01*
X0285590Y0151133D01*
X0285778Y0150432D01*
X0286141Y0149804D01*
X0286654Y0149291D01*
X0287282Y0148928D01*
X0287983Y0148740D01*
X0288709Y0148740D01*
X0289410Y0148928D01*
X0290038Y0149291D01*
X0290551Y0149804D01*
X0290914Y0150432D01*
X0291102Y0151133D01*
X0291102Y0151859D01*
X0290914Y0152560D01*
X0290551Y0153188D01*
X0290038Y0153701D01*
X0289410Y0154064D01*
X0288709Y0154252D01*
D02*
G37*
G36*
X0215864Y0148346D02*
X0215159Y0148346D01*
X0214508Y0148077D01*
X0214010Y0147578D01*
X0213740Y0146927D01*
X0213740Y0146418D01*
X0213278Y0145994D01*
X0213032Y0145873D01*
X0212763Y0145984D01*
X0212059Y0145984D01*
X0211408Y0145714D01*
X0210909Y0145216D01*
X0210639Y0144565D01*
X0210639Y0143860D01*
X0210909Y0143209D01*
X0211408Y0142711D01*
X0212059Y0142441D01*
X0212763Y0142441D01*
X0213415Y0142711D01*
X0213913Y0143209D01*
X0214183Y0143860D01*
X0214183Y0144369D01*
X0214644Y0144793D01*
X0214890Y0144915D01*
X0215159Y0144803D01*
X0215864Y0144803D01*
X0216515Y0145073D01*
X0217013Y0145571D01*
X0217283Y0146222D01*
X0217283Y0146927D01*
X0217013Y0147578D01*
X0216515Y0148077D01*
X0215864Y0148346D01*
D02*
G37*
G36*
X0198935Y0148740D02*
X0198230Y0148740D01*
X0197579Y0148470D01*
X0197081Y0147972D01*
X0196811Y0147321D01*
X0196811Y0146616D01*
X0197081Y0145965D01*
X0197579Y0145467D01*
X0198230Y0145197D01*
X0198935Y0145197D01*
X0199586Y0145467D01*
X0200084Y0145965D01*
X0200354Y0146616D01*
X0200354Y0147321D01*
X0200084Y0147972D01*
X0199586Y0148470D01*
X0198935Y0148740D01*
D02*
G37*
G36*
X0232415Y0146612D02*
X0231710Y0146612D01*
X0231059Y0146342D01*
X0230560Y0145844D01*
X0230290Y0145193D01*
X0230290Y0144488D01*
X0230560Y0143837D01*
X0231059Y0143338D01*
X0231710Y0143069D01*
X0232415Y0143069D01*
X0233066Y0143338D01*
X0233564Y0143837D01*
X0233834Y0144488D01*
X0233834Y0145193D01*
X0233564Y0145844D01*
X0233066Y0146342D01*
X0232415Y0146612D01*
D02*
G37*
G36*
X0250362Y0145984D02*
X0249657Y0145984D01*
X0249006Y0145714D01*
X0248508Y0145216D01*
X0248238Y0144565D01*
X0248238Y0143860D01*
X0248508Y0143209D01*
X0249006Y0142711D01*
X0249657Y0142441D01*
X0250362Y0142441D01*
X0251013Y0142711D01*
X0251511Y0143209D01*
X0251781Y0143860D01*
X0251781Y0144565D01*
X0251511Y0145216D01*
X0251013Y0145714D01*
X0250362Y0145984D01*
D02*
G37*
G36*
X0347764Y0142441D02*
X0347039Y0142441D01*
X0346338Y0142253D01*
X0345709Y0141890D01*
X0345196Y0141377D01*
X0344833Y0140749D01*
X0344645Y0140048D01*
X0344645Y0139322D01*
X0344833Y0138621D01*
X0345196Y0137993D01*
X0345709Y0137480D01*
X0346338Y0137117D01*
X0347039Y0136929D01*
X0347764Y0136929D01*
X0348465Y0137117D01*
X0349093Y0137480D01*
X0349607Y0137993D01*
X0349969Y0138621D01*
X0350157Y0139322D01*
X0350157Y0140048D01*
X0349969Y0140749D01*
X0349607Y0141377D01*
X0349093Y0141890D01*
X0348465Y0142253D01*
X0347764Y0142441D01*
D02*
G37*
G36*
X0328079Y0142441D02*
X0327353Y0142441D01*
X0326652Y0142253D01*
X0326024Y0141890D01*
X0325511Y0141377D01*
X0325148Y0140749D01*
X0324960Y0140048D01*
X0324960Y0139322D01*
X0325148Y0138621D01*
X0325511Y0137993D01*
X0326024Y0137480D01*
X0326652Y0137117D01*
X0327353Y0136929D01*
X0328079Y0136929D01*
X0328780Y0137117D01*
X0329408Y0137480D01*
X0329922Y0137993D01*
X0330284Y0138621D01*
X0330472Y0139322D01*
X0330472Y0140048D01*
X0330284Y0140749D01*
X0329922Y0141377D01*
X0329408Y0141890D01*
X0328780Y0142253D01*
X0328079Y0142441D01*
D02*
G37*
G36*
X0308394Y0142441D02*
X0307668Y0142441D01*
X0306968Y0142253D01*
X0306339Y0141890D01*
X0305826Y0141377D01*
X0305463Y0140749D01*
X0305275Y0140048D01*
X0305275Y0139322D01*
X0305463Y0138621D01*
X0305826Y0137993D01*
X0306339Y0137480D01*
X0306968Y0137117D01*
X0307668Y0136929D01*
X0308394Y0136929D01*
X0309095Y0137117D01*
X0309723Y0137480D01*
X0310236Y0137993D01*
X0310599Y0138621D01*
X0310787Y0139322D01*
X0310787Y0140048D01*
X0310599Y0140749D01*
X0310236Y0141377D01*
X0309723Y0141890D01*
X0309095Y0142253D01*
X0308394Y0142441D01*
D02*
G37*
G36*
X0288709Y0142441D02*
X0287983Y0142441D01*
X0287282Y0142253D01*
X0286654Y0141890D01*
X0286141Y0141377D01*
X0285778Y0140749D01*
X0285590Y0140048D01*
X0285590Y0139322D01*
X0285778Y0138621D01*
X0286141Y0137993D01*
X0286654Y0137480D01*
X0287282Y0137117D01*
X0287983Y0136929D01*
X0288709Y0136929D01*
X0289410Y0137117D01*
X0290038Y0137480D01*
X0290551Y0137993D01*
X0290914Y0138621D01*
X0291102Y0139322D01*
X0291102Y0140048D01*
X0290914Y0140749D01*
X0290551Y0141377D01*
X0290038Y0141890D01*
X0289410Y0142253D01*
X0288709Y0142441D01*
D02*
G37*
G36*
X0232085Y0135853D02*
X0231380Y0135853D01*
X0230729Y0135583D01*
X0230231Y0135085D01*
X0229993Y0134510D01*
X0229599Y0134470D01*
X0229205Y0134510D01*
X0228967Y0135085D01*
X0228469Y0135583D01*
X0227818Y0135853D01*
X0227113Y0135853D01*
X0226462Y0135583D01*
X0225963Y0135085D01*
X0225694Y0134434D01*
X0225694Y0133729D01*
X0225963Y0133078D01*
X0226462Y0132579D01*
X0227113Y0132310D01*
X0227818Y0132310D01*
X0228469Y0132579D01*
X0228967Y0133078D01*
X0229205Y0133652D01*
X0229599Y0133692D01*
X0229993Y0133652D01*
X0230231Y0133078D01*
X0230729Y0132579D01*
X0231380Y0132310D01*
X0232085Y0132310D01*
X0232736Y0132579D01*
X0233235Y0133078D01*
X0233504Y0133729D01*
X0233504Y0134434D01*
X0233235Y0135085D01*
X0232736Y0135583D01*
X0232085Y0135853D01*
D02*
G37*
G36*
X0213187Y0135853D02*
X0212483Y0135853D01*
X0211831Y0135583D01*
X0211333Y0135085D01*
X0211095Y0134510D01*
X0210701Y0134470D01*
X0210308Y0134510D01*
X0210070Y0135085D01*
X0209571Y0135583D01*
X0208920Y0135853D01*
X0208215Y0135853D01*
X0207564Y0135583D01*
X0207066Y0135085D01*
X0206796Y0134434D01*
X0206796Y0133729D01*
X0207066Y0133078D01*
X0207564Y0132579D01*
X0208215Y0132310D01*
X0208920Y0132310D01*
X0209571Y0132579D01*
X0210070Y0133078D01*
X0210308Y0133652D01*
X0210701Y0133692D01*
X0211095Y0133652D01*
X0211333Y0133078D01*
X0211831Y0132579D01*
X0212483Y0132310D01*
X0213187Y0132310D01*
X0213839Y0132579D01*
X0214337Y0133078D01*
X0214607Y0133729D01*
X0214607Y0134434D01*
X0214337Y0135085D01*
X0213839Y0135583D01*
X0213187Y0135853D01*
D02*
G37*
G36*
X0222163Y0133976D02*
X0221458Y0133976D01*
X0220807Y0133707D01*
X0220750Y0133650D01*
X0220236Y0133263D01*
X0219722Y0133650D01*
X0219665Y0133707D01*
X0219014Y0133976D01*
X0218309Y0133976D01*
X0217658Y0133707D01*
X0217159Y0133208D01*
X0216889Y0132557D01*
X0216889Y0131852D01*
X0217159Y0131201D01*
X0217658Y0130703D01*
X0218132Y0130506D01*
X0218333Y0130356D01*
X0218563Y0129646D01*
X0218464Y0129407D01*
X0218464Y0128703D01*
X0218734Y0128052D01*
X0219232Y0127553D01*
X0219884Y0127283D01*
X0220588Y0127283D01*
X0221240Y0127553D01*
X0221738Y0128052D01*
X0222008Y0128703D01*
X0222008Y0129407D01*
X0221909Y0129646D01*
X0222138Y0130356D01*
X0222340Y0130506D01*
X0222814Y0130703D01*
X0223313Y0131201D01*
X0223582Y0131852D01*
X0223582Y0132557D01*
X0223313Y0133208D01*
X0222814Y0133707D01*
X0222163Y0133976D01*
D02*
G37*
G36*
X0248105Y0135954D02*
X0247401Y0135954D01*
X0246749Y0135684D01*
X0246251Y0135186D01*
X0245981Y0134535D01*
X0245981Y0133830D01*
X0246251Y0133179D01*
X0246749Y0132680D01*
X0247401Y0132411D01*
X0248105Y0132411D01*
X0248757Y0132680D01*
X0249141Y0133065D01*
X0249627Y0132579D01*
X0250278Y0132310D01*
X0250983Y0132310D01*
X0251634Y0132579D01*
X0252132Y0133078D01*
X0252402Y0133729D01*
X0252402Y0134434D01*
X0252132Y0135085D01*
X0251634Y0135583D01*
X0250983Y0135853D01*
X0250278Y0135853D01*
X0249627Y0135583D01*
X0249242Y0135199D01*
X0248757Y0135684D01*
X0248105Y0135954D01*
D02*
G37*
G36*
X0256809Y0133976D02*
X0256104Y0133976D01*
X0255453Y0133707D01*
X0254955Y0133208D01*
X0254685Y0132557D01*
X0254685Y0131852D01*
X0254955Y0131201D01*
X0255453Y0130703D01*
X0256104Y0130433D01*
X0256809Y0130433D01*
X0257460Y0130703D01*
X0257958Y0131201D01*
X0258228Y0131852D01*
X0258228Y0132557D01*
X0257958Y0133208D01*
X0257460Y0133707D01*
X0256809Y0133976D01*
D02*
G37*
G36*
X0203266Y0133976D02*
X0202561Y0133976D01*
X0201910Y0133707D01*
X0201411Y0133208D01*
X0201141Y0132557D01*
X0201141Y0131852D01*
X0201411Y0131201D01*
X0201910Y0130703D01*
X0202561Y0130433D01*
X0203266Y0130433D01*
X0203917Y0130703D01*
X0204415Y0131201D01*
X0204685Y0131852D01*
X0204685Y0132557D01*
X0204415Y0133208D01*
X0203917Y0133707D01*
X0203266Y0133976D01*
D02*
G37*
G36*
X0237911Y0133976D02*
X0237206Y0133976D01*
X0236555Y0133707D01*
X0236057Y0133208D01*
X0235787Y0132557D01*
X0235787Y0131852D01*
X0236057Y0131201D01*
X0236555Y0130703D01*
X0237206Y0130433D01*
X0237911Y0130433D01*
X0238562Y0130703D01*
X0238655Y0130795D01*
X0239378Y0130962D01*
X0239648Y0130760D01*
X0239931Y0130476D01*
X0240582Y0130207D01*
X0241287Y0130207D01*
X0241938Y0130476D01*
X0242437Y0130975D01*
X0242706Y0131626D01*
X0242706Y0132331D01*
X0242437Y0132982D01*
X0241938Y0133480D01*
X0241287Y0133750D01*
X0240582Y0133750D01*
X0239931Y0133480D01*
X0239839Y0133388D01*
X0239115Y0133221D01*
X0238846Y0133423D01*
X0238562Y0133707D01*
X0237911Y0133976D01*
D02*
G37*
G36*
X0338699Y0131614D02*
X0337994Y0131614D01*
X0337343Y0131344D01*
X0336844Y0130846D01*
X0336575Y0130195D01*
X0336575Y0129490D01*
X0336844Y0128839D01*
X0337343Y0128341D01*
X0337994Y0128071D01*
X0338699Y0128071D01*
X0339350Y0128341D01*
X0339848Y0128839D01*
X0340118Y0129490D01*
X0340118Y0130195D01*
X0339848Y0130846D01*
X0339350Y0131344D01*
X0338699Y0131614D01*
D02*
G37*
G36*
X0353561Y0127677D02*
X0352856Y0127677D01*
X0352205Y0127407D01*
X0351707Y0126909D01*
X0351437Y0126258D01*
X0351437Y0125553D01*
X0351707Y0124902D01*
X0352205Y0124404D01*
X0352856Y0124134D01*
X0353561Y0124134D01*
X0354212Y0124404D01*
X0354710Y0124902D01*
X0354980Y0125553D01*
X0354980Y0126258D01*
X0354710Y0126909D01*
X0354212Y0127407D01*
X0353561Y0127677D01*
D02*
G37*
G36*
X0303659Y0123740D02*
X0302954Y0123740D01*
X0302303Y0123470D01*
X0301805Y0122972D01*
X0301535Y0122321D01*
X0301535Y0121616D01*
X0301805Y0120965D01*
X0302303Y0120467D01*
X0302954Y0120197D01*
X0303659Y0120197D01*
X0304310Y0120467D01*
X0304809Y0120965D01*
X0305079Y0121616D01*
X0305079Y0122321D01*
X0304809Y0122972D01*
X0304310Y0123470D01*
X0303659Y0123740D01*
D02*
G37*
G36*
X0264683Y0123740D02*
X0263978Y0123740D01*
X0263327Y0123470D01*
X0262829Y0122972D01*
X0262559Y0122321D01*
X0262559Y0121616D01*
X0262829Y0120965D01*
X0263327Y0120467D01*
X0263978Y0120197D01*
X0264683Y0120197D01*
X0265334Y0120467D01*
X0265832Y0120965D01*
X0266102Y0121616D01*
X0266102Y0122321D01*
X0265832Y0122972D01*
X0265334Y0123470D01*
X0264683Y0123740D01*
D02*
G37*
G36*
X0198935Y0123150D02*
X0198230Y0123150D01*
X0197579Y0122880D01*
X0197081Y0122382D01*
X0196811Y0121730D01*
X0196811Y0121026D01*
X0197081Y0120374D01*
X0197579Y0119876D01*
X0198230Y0119606D01*
X0198935Y0119606D01*
X0199586Y0119876D01*
X0200084Y0120374D01*
X0200354Y0121026D01*
X0200354Y0121730D01*
X0200084Y0122382D01*
X0199586Y0122880D01*
X0198935Y0123150D01*
D02*
G37*
%LPD*%
D22*
X0194252Y0143622D02*
D03*
D18*
X0194252Y0120591D02*
D03*
D21*
X0194252Y0170000D02*
D03*
D29*
X0360000Y0120000D02*
D03*
D20*
X0194252Y0217441D02*
D03*
D19*
X0194252Y0249724D02*
D03*
D24*
X0206850Y0273543D02*
D03*
D25*
X0240315Y0273543D02*
D03*
D26*
X0279094Y0273543D02*
D03*
D28*
X0360000Y0142244D02*
D03*
D27*
X0360000Y0267638D02*
D03*
D23*
X0201338Y0116457D02*
D03*
D10*
X0250945Y0236732D02*
D03*
X0353307Y0172756D02*
D03*
X0353307Y0163307D02*
D03*
X0350944Y0182205D02*
D03*
X0348582Y0168031D02*
D03*
X0348582Y0120787D02*
D03*
X0345039Y0227086D02*
D03*
X0346220Y0177480D02*
D03*
X0343858Y0196378D02*
D03*
X0342677Y0165669D02*
D03*
X0340314Y0241260D02*
D03*
X0341495Y0182205D02*
D03*
X0341495Y0172756D02*
D03*
X0339133Y0234173D02*
D03*
X0337952Y0222362D02*
D03*
X0339133Y0191653D02*
D03*
X0337952Y0160945D02*
D03*
X0339133Y0149134D02*
D03*
X0335590Y0264882D02*
D03*
X0336771Y0177480D02*
D03*
X0336771Y0168031D02*
D03*
X0334409Y0257795D02*
D03*
X0334409Y0201102D02*
D03*
X0332047Y0224724D02*
D03*
X0332047Y0191653D02*
D03*
X0332047Y0182205D02*
D03*
X0332047Y0172756D02*
D03*
X0332047Y0163307D02*
D03*
X0332047Y0149134D02*
D03*
X0327322Y0229449D02*
D03*
X0327322Y0201102D02*
D03*
X0327322Y0177480D02*
D03*
X0327322Y0168031D02*
D03*
X0327322Y0158583D02*
D03*
X0324960Y0191653D02*
D03*
X0322598Y0238897D02*
D03*
X0321417Y0203464D02*
D03*
X0322598Y0172756D02*
D03*
X0322598Y0163307D02*
D03*
X0322598Y0149134D02*
D03*
X0320236Y0182205D02*
D03*
X0320236Y0139685D02*
D03*
X0316692Y0260157D02*
D03*
X0317873Y0191653D02*
D03*
X0317873Y0168031D02*
D03*
X0317873Y0158583D02*
D03*
X0314330Y0245984D02*
D03*
X0315511Y0177480D02*
D03*
X0315511Y0149134D02*
D03*
X0313149Y0253071D02*
D03*
X0313149Y0163307D02*
D03*
X0313149Y0139685D02*
D03*
X0310787Y0182205D02*
D03*
X0310787Y0172756D02*
D03*
X0306063Y0177480D02*
D03*
X0306063Y0168031D02*
D03*
X0306063Y0158583D02*
D03*
X0306063Y0144409D02*
D03*
X0300157Y0165669D02*
D03*
X0301338Y0149134D02*
D03*
X0301338Y0139685D02*
D03*
X0297795Y0269606D02*
D03*
X0298976Y0158583D02*
D03*
X0295433Y0146772D02*
D03*
X0294251Y0238897D02*
D03*
X0294251Y0163307D02*
D03*
X0294251Y0139685D02*
D03*
X0291889Y0153858D02*
D03*
X0289527Y0168031D02*
D03*
X0289527Y0144409D02*
D03*
X0283622Y0170394D02*
D03*
X0284803Y0158583D02*
D03*
X0281259Y0208189D02*
D03*
X0281259Y0151496D02*
D03*
X0282440Y0144409D02*
D03*
X0280078Y0201102D02*
D03*
X0276535Y0236535D02*
D03*
X0277716Y0172756D02*
D03*
X0276535Y0142047D02*
D03*
X0274173Y0198740D02*
D03*
X0275354Y0149134D02*
D03*
X0270629Y0215275D02*
D03*
X0270629Y0144409D02*
D03*
X0265905Y0191653D02*
D03*
X0264724Y0142047D02*
D03*
X0262362Y0269606D02*
D03*
X0263543Y0253071D02*
D03*
X0260000Y0189291D02*
D03*
X0250551Y0179842D02*
D03*
X0249370Y0172756D02*
D03*
X0238740Y0179842D02*
D03*
X0234015Y0260157D02*
D03*
X0234015Y0175118D02*
D03*
X0226929Y0222362D02*
D03*
X0224567Y0189291D02*
D03*
X0221023Y0177480D02*
D03*
X0218661Y0186929D02*
D03*
X0215118Y0175118D02*
D03*
X0211575Y0186929D02*
D03*
X0209212Y0177480D02*
D03*
X0196220Y0179842D02*
D03*
X0197401Y0172756D02*
D03*
X0305669Y0233780D02*
D03*
X0280472Y0268819D02*
D03*
X0285787Y0254646D02*
D03*
X0232834Y0199921D02*
D03*
X0235984Y0195000D02*
D03*
X0247992Y0188504D02*
D03*
X0234212Y0188307D02*
D03*
X0195827Y0137520D02*
D03*
X0195827Y0150315D02*
D03*
X0241102Y0271772D02*
D03*
X0251097Y0228071D02*
D03*
X0241496Y0228071D02*
D03*
X0224715Y0234536D02*
D03*
X0214822Y0238523D02*
D03*
X0209015Y0229252D02*
D03*
X0205275Y0211732D02*
D03*
X0207638Y0205039D02*
D03*
X0241895Y0207888D02*
D03*
X0241102Y0212716D02*
D03*
X0201285Y0117293D02*
D03*
X0195630Y0121378D02*
D03*
X0261771Y0120197D02*
D03*
X0332834Y0121181D02*
D03*
X0340905Y0121378D02*
D03*
X0357834Y0120787D02*
D03*
X0358425Y0132399D02*
D03*
X0357834Y0151496D02*
D03*
X0285590Y0271378D02*
D03*
X0275354Y0271575D02*
D03*
X0252716Y0272362D02*
D03*
X0233425Y0271772D02*
D03*
X0210393Y0271575D02*
D03*
X0265708Y0236142D02*
D03*
X0265708Y0242047D02*
D03*
X0251142Y0253858D02*
D03*
X0237264Y0254154D02*
D03*
X0236181Y0238504D02*
D03*
X0203307Y0259961D02*
D03*
X0196417Y0257598D02*
D03*
X0197008Y0243228D02*
D03*
X0205866Y0238701D02*
D03*
X0214725Y0224392D02*
D03*
X0198976Y0189488D02*
D03*
X0208622Y0213898D02*
D03*
X0196023Y0214685D02*
D03*
X0210000Y0193425D02*
D03*
X0205472Y0189488D02*
D03*
X0213149Y0200709D02*
D03*
X0260590Y0180433D02*
D03*
X0202693Y0143327D02*
D03*
X0221457Y0143327D02*
D03*
X0240354Y0143327D02*
D03*
X0352716Y0201890D02*
D03*
X0352716Y0194410D02*
D03*
X0358228Y0267441D02*
D03*
X0325551Y0221181D02*
D03*
X0301141Y0172756D02*
D03*
X0296220Y0172756D02*
D03*
X0270630Y0245591D02*
D03*
X0247992Y0246575D02*
D03*
X0350551Y0265079D02*
D03*
X0226785Y0259008D02*
D03*
X0313149Y0231417D02*
D03*
X0285984Y0191457D02*
D03*
X0135157Y0270197D02*
%LPD*%
G01*
D140*
X0146771Y0179016D03*
X0158582Y0186890D03*
X0146771Y0194764D03*
D30*
X0141653Y0163307D03*
X0153464Y0163307D03*
X0149527Y0163307D03*
X0145590Y0163307D03*
D42*
X0173248Y0161831D03*
D36*
X0135846Y0215669D03*
D33*
X0188307Y0269508D03*
D38*
X0137224Y0161831D03*
D36*
X0189980Y0215669D03*
D34*
X0171220Y0269508D03*
D41*
X0147755Y0269508D03*
D33*
X0188307Y0269508D03*
D30*
X0179645Y0267997D03*
X0175708Y0267997D03*
X0162732Y0267997D03*
X0166732Y0267997D03*
X0183582Y0267997D03*
D182*
X0184862Y0176536D03*
D183*
X0184862Y0186536D03*
X0184862Y0196536D03*
D10*
X0171574Y0267441D03*
X0137126Y0207697D03*
X0154194Y0170896D03*
X0189151Y0236634D03*
X0189094Y0253858D03*
X0168783Y0227677D03*
X0137913Y0267441D03*
X0158976Y0268622D03*
X0168425Y0196378D03*
X0170044Y0260722D03*
X0153522Y0252185D03*
X0186732Y0170492D03*
X0148149Y0200176D03*
X0186535Y0162618D03*
X0138307Y0249429D03*
X0136633Y0165669D03*
X0145198Y0214685D03*
X0136705Y0173071D03*
X0137913Y0244606D03*
X0183507Y0205627D03*
X0158188Y0216851D03*
X0165886Y0252226D03*
X0145984Y0234961D03*
X0136929Y0227480D03*
X0165767Y0246772D03*
X0137224Y0219606D03*
X0178702Y0217756D03*
X0189352Y0205375D03*
X0182728Y0253398D03*
X0188278Y0267878D03*
X0172163Y0219449D03*
X0185198Y0211417D03*
X0178641Y0220859D03*
X0146279Y0247362D03*
X0185953Y0263010D03*
X0138700Y0254884D03*
X0153070Y0200136D03*
X0176241Y0246673D03*
X0157795Y0221745D03*
X0155728Y0264548D03*
X0141415Y0257804D03*
X0145139Y0200176D03*
X0157147Y0200176D03*
X0168188Y0216260D03*
X0142129Y0200176D03*
X0166259Y0193819D03*
X0174941Y0214725D03*
X0182189Y0211499D03*
X0165373Y0226895D03*
X0182401Y0165866D03*
X0153267Y0168032D03*
X0162273Y0200874D03*
X0179143Y0223827D03*
X0139118Y0200176D03*
X0144366Y0217578D03*
X0164039Y0232061D03*
X0166360Y0229739D03*
X0182598Y0169016D03*
X0187163Y0202718D03*
X0158426Y0229743D03*
X0159164Y0248621D03*
X0173427Y0229762D03*
X0177026Y0259806D03*
X0152618Y0264550D03*
X0158662Y0245591D03*
X0150743Y0259172D03*
X0170746Y0201336D03*
X0178956Y0252973D03*
X0152526Y0211673D03*
X0176791Y0164587D03*
X0174035Y0167638D03*
X0176791Y0167638D03*
X0171279Y0167638D03*
X0174035Y0164587D03*
X0139819Y0265111D03*
X0180516Y0205284D03*
G36*
X0189805Y0202939D02*
G01*
X0189610Y0202798D01*
X0189369Y0202798D01*
X0189174Y0202939D01*
X0189115Y0203061D01*
X0188988Y0203504D01*
X0188988Y0203504D01*
X0188981Y0203531D01*
X0188680Y0204008D01*
X0188659Y0204027D01*
X0188659Y0204027D01*
X0188277Y0204364D01*
X0188277Y0204364D01*
X0188256Y0204382D01*
X0187746Y0204622D01*
X0187718Y0204626D01*
X0187718Y0204626D01*
X0187433Y0204671D01*
X0187188Y0204709D01*
X0187160Y0204705D01*
X0187160Y0204705D01*
X0186809Y0204659D01*
X0186628Y0204635D01*
X0186603Y0204624D01*
X0186603Y0204624D01*
X0186270Y0204478D01*
X0186112Y0204408D01*
X0185953Y0204275D01*
X0185701Y0204063D01*
X0185701Y0204063D01*
X0185679Y0204045D01*
X0185367Y0203575D01*
X0185260Y0203235D01*
X0185207Y0203063D01*
X0185207Y0203063D01*
X0185198Y0203036D01*
X0185193Y0202754D01*
X0185189Y0202500D01*
X0185189Y0202500D01*
X0185188Y0202472D01*
X0185195Y0202445D01*
X0185195Y0202445D01*
X0185323Y0201976D01*
X0185336Y0201927D01*
X0185460Y0201727D01*
X0185495Y0201669D01*
X0185552Y0201434D01*
X0185460Y0201212D01*
X0185255Y0201086D01*
X0185163Y0201075D01*
X0184463Y0201075D01*
X0183844Y0201018D01*
X0183041Y0200792D01*
X0182293Y0200423D01*
X0181624Y0199923D01*
X0181612Y0199910D01*
X0181076Y0199330D01*
X0181058Y0199311D01*
X0181048Y0199296D01*
X0181048Y0199296D01*
X0180763Y0198844D01*
X0180613Y0198605D01*
X0180304Y0197830D01*
X0180141Y0197012D01*
X0180135Y0196601D01*
X0180130Y0196196D01*
X0180130Y0196196D01*
X0180130Y0196178D01*
X0180133Y0196160D01*
X0180133Y0196160D01*
X0180268Y0195373D01*
X0180268Y0195373D01*
X0180271Y0195356D01*
X0180426Y0194936D01*
X0180554Y0194590D01*
X0180554Y0194590D01*
X0180560Y0194573D01*
X0180574Y0194549D01*
X0180828Y0194122D01*
X0180987Y0193856D01*
X0180998Y0193843D01*
X0180998Y0193843D01*
X0181525Y0193242D01*
X0181537Y0193229D01*
X0182192Y0192712D01*
X0182416Y0192594D01*
X0182914Y0192332D01*
X0182914Y0192332D01*
X0182930Y0192324D01*
X0183608Y0192113D01*
X0183710Y0192082D01*
X0183710Y0192082D01*
X0183727Y0192076D01*
X0184404Y0191996D01*
X0185260Y0191996D01*
X0185880Y0192053D01*
X0186682Y0192280D01*
X0187431Y0192649D01*
X0188099Y0193148D01*
X0188665Y0193760D01*
X0188680Y0193783D01*
X0189101Y0194451D01*
X0189111Y0194466D01*
X0189128Y0194509D01*
X0189282Y0194694D01*
X0189515Y0194753D01*
X0189739Y0194664D01*
X0189867Y0194460D01*
X0189879Y0194364D01*
X0189879Y0188712D01*
X0189805Y0188483D01*
X0189610Y0188341D01*
X0189369Y0188341D01*
X0189174Y0188483D01*
X0189155Y0188513D01*
X0188737Y0189215D01*
X0188725Y0189229D01*
X0188725Y0189229D01*
X0188277Y0189739D01*
X0188187Y0189842D01*
X0187532Y0190359D01*
X0187516Y0190367D01*
X0187516Y0190367D01*
X0186990Y0190644D01*
X0186793Y0190747D01*
X0186665Y0190787D01*
X0186050Y0190978D01*
X0185997Y0190995D01*
X0185319Y0191075D01*
X0184463Y0191075D01*
X0183844Y0191018D01*
X0183041Y0190792D01*
X0182293Y0190423D01*
X0181624Y0189923D01*
X0181612Y0189910D01*
X0181076Y0189330D01*
X0181058Y0189311D01*
X0181048Y0189296D01*
X0181048Y0189296D01*
X0180763Y0188844D01*
X0180613Y0188605D01*
X0180304Y0187830D01*
X0180141Y0187012D01*
X0180135Y0186601D01*
X0180130Y0186196D01*
X0180130Y0186196D01*
X0180130Y0186178D01*
X0180133Y0186160D01*
X0180133Y0186160D01*
X0180268Y0185373D01*
X0180268Y0185373D01*
X0180271Y0185356D01*
X0180426Y0184936D01*
X0180554Y0184590D01*
X0180554Y0184590D01*
X0180560Y0184573D01*
X0180574Y0184549D01*
X0180828Y0184122D01*
X0180987Y0183856D01*
X0180998Y0183843D01*
X0180998Y0183843D01*
X0181525Y0183242D01*
X0181537Y0183229D01*
X0182192Y0182712D01*
X0182416Y0182594D01*
X0182914Y0182332D01*
X0182914Y0182332D01*
X0182930Y0182324D01*
X0183608Y0182113D01*
X0183710Y0182082D01*
X0183710Y0182082D01*
X0183727Y0182076D01*
X0184404Y0181996D01*
X0185260Y0181996D01*
X0185880Y0182053D01*
X0186682Y0182280D01*
X0187431Y0182649D01*
X0188099Y0183148D01*
X0188665Y0183760D01*
X0188680Y0183783D01*
X0189101Y0184451D01*
X0189111Y0184466D01*
X0189128Y0184509D01*
X0189282Y0184694D01*
X0189515Y0184753D01*
X0189739Y0184664D01*
X0189867Y0184460D01*
X0189879Y0184364D01*
X0189879Y0181242D01*
X0189805Y0181013D01*
X0189610Y0180871D01*
X0189369Y0180871D01*
X0189273Y0180918D01*
X0189107Y0181029D01*
X0188876Y0181075D01*
X0180847Y0181075D01*
X0180764Y0181058D01*
X0180657Y0181037D01*
X0180617Y0181029D01*
X0180356Y0180855D01*
X0180181Y0180594D01*
X0180174Y0180556D01*
X0180174Y0180556D01*
X0180156Y0180467D01*
X0180135Y0180363D01*
X0180135Y0172708D01*
X0180156Y0172604D01*
X0180174Y0172515D01*
X0180174Y0172515D01*
X0180181Y0172478D01*
X0180356Y0172216D01*
X0180617Y0172042D01*
X0180657Y0172034D01*
X0180764Y0172013D01*
X0180847Y0171996D01*
X0182622Y0171996D01*
X0182622Y0171006D01*
X0182595Y0171003D01*
X0182595Y0171003D01*
X0182155Y0170945D01*
X0182063Y0170933D01*
X0182037Y0170922D01*
X0182037Y0170922D01*
X0181611Y0170735D01*
X0181546Y0170706D01*
X0181330Y0170524D01*
X0181135Y0170361D01*
X0181135Y0170361D01*
X0181114Y0170343D01*
X0181099Y0170320D01*
X0181099Y0170320D01*
X0181075Y0170284D01*
X0180801Y0169873D01*
X0180715Y0169596D01*
X0180641Y0169361D01*
X0180641Y0169361D01*
X0180633Y0169334D01*
X0180628Y0169052D01*
X0180623Y0168798D01*
X0180623Y0168798D01*
X0180622Y0168770D01*
X0180630Y0168743D01*
X0180630Y0168743D01*
X0180738Y0168345D01*
X0180771Y0168225D01*
X0180869Y0168065D01*
X0181063Y0167750D01*
X0181119Y0167516D01*
X0181027Y0167293D01*
X0180982Y0167247D01*
X0180938Y0167211D01*
X0180938Y0167211D01*
X0180917Y0167193D01*
X0180902Y0167170D01*
X0180902Y0167170D01*
X0180869Y0167122D01*
X0180604Y0166723D01*
X0180487Y0166348D01*
X0180444Y0166211D01*
X0180444Y0166211D01*
X0180436Y0166185D01*
X0180431Y0165902D01*
X0180426Y0165648D01*
X0180426Y0165648D01*
X0180426Y0165620D01*
X0180433Y0165593D01*
X0180433Y0165593D01*
X0180554Y0165150D01*
X0180574Y0165076D01*
X0180869Y0164595D01*
X0180902Y0164565D01*
X0181267Y0164235D01*
X0181288Y0164216D01*
X0181796Y0163970D01*
X0182021Y0163932D01*
X0182338Y0163879D01*
X0182338Y0163879D01*
X0182352Y0163876D01*
X0182401Y0163876D01*
X0182960Y0163956D01*
X0183303Y0164111D01*
X0183448Y0164178D01*
X0183448Y0164178D01*
X0183474Y0164189D01*
X0183827Y0164493D01*
X0183880Y0164539D01*
X0183880Y0164540D01*
X0183901Y0164558D01*
X0184208Y0165031D01*
X0184370Y0165572D01*
X0184372Y0165900D01*
X0184373Y0166109D01*
X0184373Y0166109D01*
X0184373Y0166136D01*
X0184366Y0166163D01*
X0184366Y0166163D01*
X0184226Y0166652D01*
X0184226Y0166652D01*
X0184218Y0166679D01*
X0184203Y0166703D01*
X0184203Y0166703D01*
X0183935Y0167128D01*
X0183876Y0167362D01*
X0183965Y0167585D01*
X0184010Y0167631D01*
X0184077Y0167689D01*
X0184077Y0167689D01*
X0184098Y0167707D01*
X0184405Y0168181D01*
X0184567Y0168722D01*
X0184569Y0169049D01*
X0184570Y0169258D01*
X0184570Y0169258D01*
X0184570Y0169286D01*
X0184563Y0169313D01*
X0184563Y0169313D01*
X0184423Y0169802D01*
X0184423Y0169802D01*
X0184415Y0169829D01*
X0184114Y0170306D01*
X0184093Y0170325D01*
X0184093Y0170325D01*
X0183712Y0170661D01*
X0183712Y0170661D01*
X0183691Y0170680D01*
X0183180Y0170920D01*
X0183153Y0170924D01*
X0183153Y0170924D01*
X0182947Y0170956D01*
X0182622Y0171006D01*
X0182622Y0171996D01*
X0188876Y0171996D01*
X0189107Y0172042D01*
X0189273Y0172153D01*
X0189505Y0172219D01*
X0189731Y0172135D01*
X0189865Y0171935D01*
X0189879Y0171829D01*
X0189879Y0162321D01*
X0189805Y0162092D01*
X0189610Y0161950D01*
X0189490Y0161931D01*
X0177510Y0161931D01*
X0177281Y0162006D01*
X0177139Y0162201D01*
X0177139Y0162441D01*
X0177281Y0162636D01*
X0177352Y0162671D01*
X0177350Y0162676D01*
X0177838Y0162898D01*
X0177838Y0162898D01*
X0177863Y0162910D01*
X0178291Y0163278D01*
X0178598Y0163752D01*
X0178760Y0164293D01*
X0178762Y0164620D01*
X0178763Y0164829D01*
X0178763Y0164829D01*
X0178763Y0164857D01*
X0178756Y0164884D01*
X0178756Y0164884D01*
X0178616Y0165373D01*
X0178616Y0165373D01*
X0178608Y0165400D01*
X0178307Y0165877D01*
X0178309Y0165878D01*
X0178225Y0166082D01*
X0178282Y0166316D01*
X0178291Y0166329D01*
X0178291Y0166329D01*
X0178521Y0166684D01*
X0178598Y0166803D01*
X0178760Y0167344D01*
X0178762Y0167671D01*
X0178763Y0167880D01*
X0178763Y0167880D01*
X0178763Y0167908D01*
X0178756Y0167935D01*
X0178756Y0167935D01*
X0178616Y0168424D01*
X0178616Y0168424D01*
X0178608Y0168451D01*
X0178307Y0168928D01*
X0178286Y0168947D01*
X0178286Y0168947D01*
X0177905Y0169283D01*
X0177905Y0169283D01*
X0177884Y0169302D01*
X0177859Y0169314D01*
X0177859Y0169314D01*
X0177807Y0169338D01*
X0177373Y0169542D01*
X0177345Y0169546D01*
X0177345Y0169546D01*
X0177040Y0169593D01*
X0176815Y0169629D01*
X0176256Y0169555D01*
X0176230Y0169544D01*
X0176230Y0169544D01*
X0175999Y0169442D01*
X0175739Y0169328D01*
X0175683Y0169281D01*
X0175668Y0169268D01*
X0175444Y0169178D01*
X0175211Y0169236D01*
X0175159Y0169274D01*
X0175128Y0169302D01*
X0175103Y0169314D01*
X0175103Y0169314D01*
X0175057Y0169335D01*
X0174617Y0169542D01*
X0174590Y0169546D01*
X0174590Y0169546D01*
X0174266Y0169596D01*
X0174059Y0169629D01*
X0174032Y0169625D01*
X0174032Y0169625D01*
X0173592Y0169567D01*
X0173500Y0169555D01*
X0173474Y0169544D01*
X0173474Y0169544D01*
X0173114Y0169386D01*
X0172983Y0169328D01*
X0172962Y0169310D01*
X0172962Y0169310D01*
X0172912Y0169268D01*
X0172689Y0169178D01*
X0172455Y0169236D01*
X0172403Y0169274D01*
X0172372Y0169302D01*
X0172347Y0169314D01*
X0172347Y0169314D01*
X0172277Y0169347D01*
X0171861Y0169542D01*
X0171834Y0169546D01*
X0171834Y0169546D01*
X0171470Y0169603D01*
X0171303Y0169629D01*
X0171276Y0169625D01*
X0171276Y0169625D01*
X0171050Y0169595D01*
X0170744Y0169555D01*
X0170718Y0169544D01*
X0170718Y0169544D01*
X0170329Y0169373D01*
X0170227Y0169328D01*
X0170145Y0169259D01*
X0169816Y0168983D01*
X0169816Y0168983D01*
X0169795Y0168965D01*
X0169780Y0168942D01*
X0169780Y0168942D01*
X0169697Y0168817D01*
X0169482Y0168495D01*
X0169358Y0168099D01*
X0169322Y0167983D01*
X0169322Y0167983D01*
X0169314Y0167956D01*
X0169309Y0167674D01*
X0169304Y0167420D01*
X0169304Y0167420D01*
X0169304Y0167392D01*
X0169311Y0167365D01*
X0169311Y0167365D01*
X0169392Y0167069D01*
X0169452Y0166847D01*
X0169747Y0166366D01*
X0169780Y0166337D01*
X0170145Y0166006D01*
X0170166Y0165988D01*
X0170674Y0165741D01*
X0170743Y0165730D01*
X0171216Y0165650D01*
X0171216Y0165650D01*
X0171230Y0165648D01*
X0171279Y0165647D01*
X0171738Y0165713D01*
X0171975Y0165672D01*
X0172143Y0165499D01*
X0172177Y0165260D01*
X0172165Y0165211D01*
X0172078Y0164932D01*
X0172078Y0164932D01*
X0172070Y0164905D01*
X0172065Y0164623D01*
X0172060Y0164368D01*
X0172060Y0164368D01*
X0172059Y0164341D01*
X0172067Y0164314D01*
X0172067Y0164314D01*
X0172160Y0163972D01*
X0172208Y0163796D01*
X0172503Y0163315D01*
X0172561Y0163263D01*
X0172901Y0162955D01*
X0172922Y0162936D01*
X0173430Y0162690D01*
X0173442Y0162688D01*
X0173632Y0162552D01*
X0173707Y0162323D01*
X0173634Y0162094D01*
X0173440Y0161951D01*
X0173318Y0161931D01*
X0156413Y0161931D01*
X0156184Y0162006D01*
X0156042Y0162201D01*
X0156023Y0162321D01*
X0156023Y0164193D01*
X0155698Y0164193D01*
X0155469Y0164267D01*
X0155364Y0164384D01*
X0155357Y0164400D01*
X0155342Y0164420D01*
X0155342Y0164421D01*
X0155140Y0164683D01*
X0155010Y0164853D01*
X0154557Y0165200D01*
X0154030Y0165419D01*
X0154005Y0165422D01*
X0153980Y0165429D01*
X0153983Y0165439D01*
X0153807Y0165523D01*
X0153692Y0165735D01*
X0153723Y0165974D01*
X0153889Y0166148D01*
X0153914Y0166161D01*
X0154314Y0166343D01*
X0154315Y0166343D01*
X0154340Y0166355D01*
X0154767Y0166723D01*
X0155074Y0167197D01*
X0155236Y0167737D01*
X0155238Y0168065D01*
X0155239Y0168274D01*
X0155239Y0168274D01*
X0155240Y0168302D01*
X0155232Y0168328D01*
X0155232Y0168329D01*
X0155092Y0168818D01*
X0155092Y0168818D01*
X0155084Y0168845D01*
X0154783Y0169322D01*
X0154762Y0169340D01*
X0154762Y0169340D01*
X0154381Y0169677D01*
X0154381Y0169677D01*
X0154360Y0169696D01*
X0153849Y0169935D01*
X0153822Y0169940D01*
X0153822Y0169940D01*
X0153602Y0169974D01*
X0153292Y0170022D01*
X0153264Y0170019D01*
X0153264Y0170019D01*
X0153149Y0170004D01*
X0152732Y0169949D01*
X0152706Y0169938D01*
X0152706Y0169938D01*
X0152259Y0169741D01*
X0152215Y0169722D01*
X0152040Y0169574D01*
X0151804Y0169376D01*
X0151804Y0169376D01*
X0151783Y0169359D01*
X0151768Y0169335D01*
X0151768Y0169335D01*
X0151736Y0169287D01*
X0151470Y0168889D01*
X0151392Y0168638D01*
X0151310Y0168376D01*
X0151310Y0168376D01*
X0151302Y0168350D01*
X0151297Y0168068D01*
X0151292Y0167813D01*
X0151292Y0167813D01*
X0151292Y0167786D01*
X0151299Y0167759D01*
X0151299Y0167759D01*
X0151392Y0167417D01*
X0151440Y0167241D01*
X0151736Y0166760D01*
X0151768Y0166731D01*
X0152133Y0166400D01*
X0152154Y0166381D01*
X0152662Y0166135D01*
X0152722Y0166125D01*
X0152935Y0166014D01*
X0153043Y0165798D01*
X0153003Y0165560D01*
X0152831Y0165392D01*
X0152806Y0165381D01*
X0152371Y0165200D01*
X0152351Y0165185D01*
X0152034Y0164942D01*
X0151918Y0164853D01*
X0151903Y0164833D01*
X0151903Y0164833D01*
X0151805Y0164705D01*
X0151606Y0164569D01*
X0151365Y0164575D01*
X0151186Y0164705D01*
X0151088Y0164833D01*
X0151088Y0164833D01*
X0151073Y0164853D01*
X0150620Y0165200D01*
X0150093Y0165419D01*
X0150068Y0165422D01*
X0150068Y0165422D01*
X0149716Y0165468D01*
X0149527Y0165493D01*
X0149502Y0165490D01*
X0148995Y0165423D01*
X0148961Y0165419D01*
X0148434Y0165200D01*
X0147981Y0164853D01*
X0147966Y0164833D01*
X0147966Y0164833D01*
X0147868Y0164705D01*
X0147669Y0164569D01*
X0147428Y0164575D01*
X0147249Y0164705D01*
X0147151Y0164833D01*
X0147151Y0164833D01*
X0147136Y0164853D01*
X0146683Y0165200D01*
X0146156Y0165419D01*
X0146131Y0165422D01*
X0146131Y0165422D01*
X0145866Y0165457D01*
X0145590Y0165493D01*
X0145565Y0165490D01*
X0145090Y0165427D01*
X0145024Y0165419D01*
X0144497Y0165200D01*
X0144044Y0164853D01*
X0144029Y0164833D01*
X0144029Y0164833D01*
X0143931Y0164705D01*
X0143732Y0164569D01*
X0143491Y0164575D01*
X0143312Y0164705D01*
X0143214Y0164833D01*
X0143214Y0164833D01*
X0143199Y0164853D01*
X0142746Y0165200D01*
X0142219Y0165419D01*
X0142194Y0165422D01*
X0142194Y0165422D01*
X0141947Y0165455D01*
X0141653Y0165493D01*
X0141628Y0165490D01*
X0141334Y0165451D01*
X0141087Y0165419D01*
X0140560Y0165200D01*
X0140107Y0164853D01*
X0140092Y0164833D01*
X0139775Y0164421D01*
X0139775Y0164420D01*
X0139760Y0164400D01*
X0139754Y0164385D01*
X0139578Y0164227D01*
X0139419Y0164193D01*
X0139094Y0164193D01*
X0139094Y0162321D01*
X0139020Y0162092D01*
X0138825Y0161950D01*
X0138704Y0161931D01*
X0136336Y0161931D01*
X0136107Y0162006D01*
X0135965Y0162201D01*
X0135946Y0162321D01*
X0135946Y0254637D01*
X0135956Y0254667D01*
X0135946Y0254699D01*
X0135946Y0269018D01*
X0136021Y0269247D01*
X0136216Y0269389D01*
X0136336Y0269408D01*
X0139843Y0269408D01*
X0139843Y0267102D01*
X0139816Y0267098D01*
X0139816Y0267098D01*
X0139775Y0267093D01*
X0139284Y0267029D01*
X0139258Y0267018D01*
X0139258Y0267018D01*
X0138825Y0266827D01*
X0138767Y0266801D01*
X0138652Y0266704D01*
X0138356Y0266456D01*
X0138356Y0266456D01*
X0138335Y0266438D01*
X0138320Y0266415D01*
X0138320Y0266415D01*
X0138287Y0266367D01*
X0138022Y0265968D01*
X0137899Y0265572D01*
X0137862Y0265456D01*
X0137862Y0265456D01*
X0137854Y0265430D01*
X0137849Y0265147D01*
X0137844Y0264893D01*
X0137844Y0264893D01*
X0137844Y0264865D01*
X0137851Y0264838D01*
X0137851Y0264838D01*
X0137932Y0264542D01*
X0137992Y0264321D01*
X0138287Y0263840D01*
X0138320Y0263810D01*
X0138685Y0263480D01*
X0138706Y0263461D01*
X0139214Y0263215D01*
X0139244Y0263210D01*
X0139756Y0263124D01*
X0139756Y0263124D01*
X0139770Y0263121D01*
X0139819Y0263121D01*
X0140378Y0263201D01*
X0140892Y0263434D01*
X0141319Y0263803D01*
X0141440Y0263988D01*
X0141440Y0259795D01*
X0141412Y0259791D01*
X0141412Y0259791D01*
X0140995Y0259737D01*
X0140880Y0259722D01*
X0140855Y0259711D01*
X0140854Y0259711D01*
X0140418Y0259519D01*
X0140363Y0259495D01*
X0140212Y0259367D01*
X0139952Y0259149D01*
X0139952Y0259149D01*
X0139931Y0259131D01*
X0139916Y0259108D01*
X0139916Y0259108D01*
X0139834Y0258985D01*
X0139618Y0258661D01*
X0139508Y0258308D01*
X0139458Y0258149D01*
X0139458Y0258149D01*
X0139450Y0258123D01*
X0139445Y0257841D01*
X0139440Y0257586D01*
X0139440Y0257586D01*
X0139440Y0257558D01*
X0139508Y0257308D01*
X0139497Y0257067D01*
X0139346Y0256879D01*
X0139113Y0256816D01*
X0139072Y0256820D01*
X0138725Y0256874D01*
X0138697Y0256871D01*
X0138697Y0256871D01*
X0138488Y0256843D01*
X0138165Y0256801D01*
X0138140Y0256790D01*
X0138140Y0256790D01*
X0137851Y0256663D01*
X0137648Y0256574D01*
X0137567Y0256505D01*
X0137238Y0256228D01*
X0137238Y0256228D01*
X0137216Y0256211D01*
X0137201Y0256187D01*
X0137201Y0256187D01*
X0137150Y0256111D01*
X0136903Y0255741D01*
X0136780Y0255345D01*
X0136743Y0255228D01*
X0136743Y0255228D01*
X0136735Y0255202D01*
X0136726Y0254701D01*
X0136726Y0254692D01*
X0136723Y0254684D01*
X0136725Y0254665D01*
X0136725Y0254638D01*
X0136732Y0254611D01*
X0136732Y0254611D01*
X0136813Y0254315D01*
X0136873Y0254093D01*
X0137143Y0253653D01*
X0137154Y0253636D01*
X0137169Y0253612D01*
X0137201Y0253583D01*
X0137567Y0253252D01*
X0137587Y0253233D01*
X0137985Y0253041D01*
X0138070Y0252999D01*
X0138095Y0252987D01*
X0138193Y0252971D01*
X0138637Y0252896D01*
X0138637Y0252896D01*
X0138652Y0252893D01*
X0138700Y0252893D01*
X0139143Y0252956D01*
X0139143Y0202166D01*
X0139115Y0202163D01*
X0139115Y0202163D01*
X0138793Y0202121D01*
X0138583Y0202093D01*
X0138558Y0202082D01*
X0138558Y0202082D01*
X0138122Y0201890D01*
X0138066Y0201866D01*
X0137985Y0201797D01*
X0137656Y0201521D01*
X0137656Y0201520D01*
X0137634Y0201503D01*
X0137619Y0201480D01*
X0137619Y0201480D01*
X0137536Y0201355D01*
X0137322Y0201033D01*
X0137201Y0200646D01*
X0137162Y0200521D01*
X0137162Y0200521D01*
X0137153Y0200494D01*
X0137148Y0200212D01*
X0137143Y0199957D01*
X0137143Y0199957D01*
X0137143Y0199930D01*
X0137150Y0199903D01*
X0137150Y0199903D01*
X0137238Y0199583D01*
X0137291Y0199385D01*
X0137587Y0198904D01*
X0137619Y0198875D01*
X0137985Y0198544D01*
X0138005Y0198525D01*
X0138513Y0198279D01*
X0138611Y0198263D01*
X0139055Y0198188D01*
X0139055Y0198188D01*
X0139070Y0198186D01*
X0139118Y0198185D01*
X0139677Y0198265D01*
X0139866Y0198351D01*
X0140166Y0198487D01*
X0140166Y0198487D01*
X0140191Y0198499D01*
X0140368Y0198651D01*
X0140590Y0198744D01*
X0140824Y0198689D01*
X0140884Y0198645D01*
X0140995Y0198544D01*
X0141015Y0198525D01*
X0141523Y0198279D01*
X0141611Y0198264D01*
X0142065Y0198188D01*
X0142065Y0198188D01*
X0142080Y0198186D01*
X0142129Y0198185D01*
X0142687Y0198265D01*
X0143201Y0198499D01*
X0143378Y0198651D01*
X0143600Y0198744D01*
X0143835Y0198689D01*
X0143894Y0198645D01*
X0144005Y0198544D01*
X0144026Y0198525D01*
X0144534Y0198279D01*
X0144726Y0198247D01*
X0144940Y0198135D01*
X0145047Y0197920D01*
X0145007Y0197682D01*
X0144857Y0197525D01*
X0144810Y0197498D01*
X0144810Y0197498D01*
X0144792Y0197488D01*
X0144269Y0197017D01*
X0143855Y0196447D01*
X0143788Y0196296D01*
X0143577Y0195823D01*
X0143577Y0195823D01*
X0143569Y0195804D01*
X0143565Y0195784D01*
X0143565Y0195784D01*
X0143552Y0195723D01*
X0143423Y0195116D01*
X0143423Y0194412D01*
X0143552Y0193805D01*
X0143565Y0193743D01*
X0143565Y0193743D01*
X0143569Y0193724D01*
X0143577Y0193705D01*
X0143577Y0193705D01*
X0143788Y0193232D01*
X0143855Y0193080D01*
X0144269Y0192511D01*
X0144792Y0192040D01*
X0144940Y0191955D01*
X0145384Y0191698D01*
X0145384Y0191698D01*
X0145402Y0191688D01*
X0145434Y0191678D01*
X0146052Y0191477D01*
X0146052Y0191477D01*
X0146071Y0191471D01*
X0146771Y0191397D01*
X0146771Y0182383D01*
X0146071Y0182309D01*
X0146052Y0182303D01*
X0146052Y0182303D01*
X0145434Y0182102D01*
X0145402Y0182092D01*
X0145384Y0182081D01*
X0145384Y0182081D01*
X0144940Y0181825D01*
X0144792Y0181740D01*
X0144269Y0181269D01*
X0143855Y0180699D01*
X0143788Y0180548D01*
X0143577Y0180075D01*
X0143577Y0180075D01*
X0143569Y0180056D01*
X0143565Y0180036D01*
X0143565Y0180036D01*
X0143552Y0179975D01*
X0143423Y0179368D01*
X0143423Y0178664D01*
X0143552Y0178057D01*
X0143565Y0177995D01*
X0143565Y0177995D01*
X0143569Y0177975D01*
X0143577Y0177957D01*
X0143577Y0177957D01*
X0143788Y0177484D01*
X0143855Y0177332D01*
X0144269Y0176763D01*
X0144792Y0176292D01*
X0144940Y0176207D01*
X0145384Y0175950D01*
X0145384Y0175950D01*
X0145402Y0175940D01*
X0145434Y0175930D01*
X0146052Y0175729D01*
X0146052Y0175729D01*
X0146071Y0175723D01*
X0146771Y0175649D01*
X0147471Y0175723D01*
X0147491Y0175729D01*
X0147491Y0175729D01*
X0148121Y0175934D01*
X0148121Y0175934D01*
X0148141Y0175940D01*
X0148402Y0176091D01*
X0148732Y0176282D01*
X0148732Y0176282D01*
X0148750Y0176292D01*
X0149273Y0176763D01*
X0149687Y0177332D01*
X0149830Y0177654D01*
X0149965Y0177957D01*
X0149965Y0177957D01*
X0149973Y0177975D01*
X0149977Y0177995D01*
X0149977Y0177995D01*
X0150006Y0178129D01*
X0150120Y0178664D01*
X0150120Y0179368D01*
X0150006Y0179903D01*
X0149977Y0180036D01*
X0149977Y0180036D01*
X0149973Y0180056D01*
X0149965Y0180075D01*
X0149965Y0180075D01*
X0149695Y0180681D01*
X0149695Y0180681D01*
X0149687Y0180699D01*
X0149273Y0181269D01*
X0149258Y0181282D01*
X0149258Y0181282D01*
X0148909Y0181597D01*
X0148750Y0181740D01*
X0148732Y0181750D01*
X0148732Y0181750D01*
X0148402Y0181941D01*
X0148141Y0182092D01*
X0148121Y0182098D01*
X0148121Y0182098D01*
X0147491Y0182303D01*
X0147491Y0182303D01*
X0147471Y0182309D01*
X0146771Y0182383D01*
X0146771Y0191397D01*
X0147471Y0191471D01*
X0147491Y0191477D01*
X0147491Y0191477D01*
X0148121Y0191682D01*
X0148121Y0191682D01*
X0148141Y0191688D01*
X0148402Y0191839D01*
X0148732Y0192030D01*
X0148732Y0192030D01*
X0148750Y0192040D01*
X0149273Y0192511D01*
X0149687Y0193080D01*
X0149830Y0193402D01*
X0149965Y0193705D01*
X0149965Y0193705D01*
X0149973Y0193724D01*
X0149977Y0193743D01*
X0149977Y0193743D01*
X0150006Y0193877D01*
X0150120Y0194412D01*
X0150120Y0195116D01*
X0150006Y0195651D01*
X0149977Y0195784D01*
X0149977Y0195784D01*
X0149973Y0195804D01*
X0149965Y0195823D01*
X0149965Y0195823D01*
X0149695Y0196429D01*
X0149695Y0196429D01*
X0149687Y0196447D01*
X0149273Y0197017D01*
X0149258Y0197030D01*
X0149258Y0197030D01*
X0148909Y0197345D01*
X0148750Y0197488D01*
X0148732Y0197498D01*
X0148732Y0197498D01*
X0148402Y0197689D01*
X0148141Y0197840D01*
X0148121Y0197846D01*
X0148121Y0197846D01*
X0147491Y0198051D01*
X0147491Y0198051D01*
X0147471Y0198057D01*
X0146834Y0198124D01*
X0146789Y0198129D01*
X0146569Y0198227D01*
X0146448Y0198436D01*
X0146473Y0198675D01*
X0146575Y0198812D01*
X0146618Y0198849D01*
X0146618Y0198849D01*
X0146639Y0198867D01*
X0146946Y0199341D01*
X0147108Y0199881D01*
X0147110Y0200209D01*
X0147111Y0200418D01*
X0147111Y0200418D01*
X0147111Y0200446D01*
X0147104Y0200473D01*
X0147104Y0200473D01*
X0146964Y0200962D01*
X0146964Y0200962D01*
X0146956Y0200989D01*
X0146655Y0201466D01*
X0146634Y0201484D01*
X0146634Y0201484D01*
X0146253Y0201821D01*
X0146253Y0201821D01*
X0146232Y0201840D01*
X0146207Y0201851D01*
X0146207Y0201851D01*
X0146131Y0201887D01*
X0145721Y0202079D01*
X0145693Y0202084D01*
X0145693Y0202084D01*
X0145413Y0202127D01*
X0145163Y0202166D01*
X0145136Y0202163D01*
X0145136Y0202163D01*
X0144777Y0202116D01*
X0144604Y0202093D01*
X0144578Y0202082D01*
X0144578Y0202082D01*
X0144284Y0201953D01*
X0144087Y0201866D01*
X0143885Y0201696D01*
X0143662Y0201606D01*
X0143428Y0201664D01*
X0143377Y0201703D01*
X0143242Y0201821D01*
X0143242Y0201821D01*
X0143222Y0201840D01*
X0142711Y0202079D01*
X0142683Y0202084D01*
X0142683Y0202084D01*
X0142330Y0202139D01*
X0142153Y0202166D01*
X0142125Y0202163D01*
X0142125Y0202163D01*
X0142080Y0202157D01*
X0141593Y0202093D01*
X0141568Y0202082D01*
X0141568Y0202082D01*
X0141298Y0201963D01*
X0141077Y0201866D01*
X0140875Y0201696D01*
X0140652Y0201606D01*
X0140418Y0201664D01*
X0140366Y0201703D01*
X0140232Y0201821D01*
X0140232Y0201821D01*
X0140211Y0201840D01*
X0139700Y0202079D01*
X0139673Y0202084D01*
X0139673Y0202084D01*
X0139304Y0202141D01*
X0139143Y0202166D01*
X0139143Y0252956D01*
X0139259Y0252973D01*
X0139618Y0253136D01*
X0139748Y0253195D01*
X0139748Y0253195D01*
X0139773Y0253207D01*
X0140107Y0253495D01*
X0140179Y0253557D01*
X0140179Y0253557D01*
X0140200Y0253575D01*
X0140507Y0254049D01*
X0140669Y0254589D01*
X0140671Y0254917D01*
X0140672Y0255126D01*
X0140672Y0255126D01*
X0140673Y0255154D01*
X0140665Y0255180D01*
X0140609Y0255376D01*
X0140618Y0255617D01*
X0140766Y0255807D01*
X0140998Y0255873D01*
X0141048Y0255868D01*
X0141064Y0255865D01*
X0141367Y0255814D01*
X0141415Y0255814D01*
X0141974Y0255894D01*
X0142398Y0256086D01*
X0142463Y0256116D01*
X0142463Y0256116D01*
X0142488Y0256127D01*
X0142915Y0256496D01*
X0143222Y0256969D01*
X0143384Y0257510D01*
X0143386Y0257838D01*
X0143387Y0258047D01*
X0143387Y0258047D01*
X0143388Y0258075D01*
X0143380Y0258101D01*
X0143380Y0258101D01*
X0143240Y0258591D01*
X0143240Y0258591D01*
X0143232Y0258617D01*
X0142931Y0259095D01*
X0142910Y0259113D01*
X0142910Y0259113D01*
X0142529Y0259450D01*
X0142529Y0259450D01*
X0142508Y0259468D01*
X0142483Y0259480D01*
X0142483Y0259480D01*
X0142400Y0259519D01*
X0141997Y0259708D01*
X0141970Y0259712D01*
X0141970Y0259712D01*
X0141780Y0259742D01*
X0141440Y0259795D01*
X0141440Y0263988D01*
X0141626Y0264276D01*
X0141788Y0264817D01*
X0141790Y0265145D01*
X0141791Y0265354D01*
X0141791Y0265354D01*
X0141791Y0265381D01*
X0141784Y0265408D01*
X0141784Y0265408D01*
X0141644Y0265897D01*
X0141644Y0265897D01*
X0141636Y0265924D01*
X0141335Y0266402D01*
X0141314Y0266420D01*
X0141314Y0266420D01*
X0140933Y0266757D01*
X0140933Y0266757D01*
X0140912Y0266775D01*
X0140401Y0267015D01*
X0140374Y0267019D01*
X0140374Y0267019D01*
X0140107Y0267061D01*
X0139843Y0267102D01*
X0139843Y0269408D01*
X0145050Y0269408D01*
X0145279Y0269333D01*
X0145421Y0269138D01*
X0145421Y0268897D01*
X0145279Y0268703D01*
X0145141Y0268639D01*
X0145022Y0268610D01*
X0144810Y0268501D01*
X0144497Y0268339D01*
X0144433Y0268306D01*
X0143933Y0267870D01*
X0143920Y0267851D01*
X0143920Y0267851D01*
X0143577Y0267364D01*
X0143552Y0267328D01*
X0143535Y0267284D01*
X0143376Y0266877D01*
X0143311Y0266710D01*
X0143308Y0266687D01*
X0143308Y0266687D01*
X0143277Y0266455D01*
X0143244Y0266204D01*
X0143244Y0265858D01*
X0143252Y0265791D01*
X0143301Y0265389D01*
X0143301Y0265389D01*
X0143304Y0265366D01*
X0143320Y0265324D01*
X0143428Y0265036D01*
X0143538Y0264745D01*
X0143552Y0264726D01*
X0143552Y0264726D01*
X0143901Y0264218D01*
X0143914Y0264199D01*
X0144409Y0263758D01*
X0144995Y0263448D01*
X0145565Y0263304D01*
X0145615Y0263292D01*
X0145615Y0263292D01*
X0145638Y0263286D01*
X0146156Y0263283D01*
X0146277Y0263283D01*
X0146277Y0263283D01*
X0146301Y0263283D01*
X0146303Y0263283D01*
X0146303Y0249353D01*
X0146276Y0249349D01*
X0146276Y0249349D01*
X0145861Y0249295D01*
X0145744Y0249280D01*
X0145718Y0249269D01*
X0145718Y0249269D01*
X0145402Y0249129D01*
X0145227Y0249052D01*
X0145047Y0248901D01*
X0144816Y0248707D01*
X0144816Y0248707D01*
X0144795Y0248689D01*
X0144482Y0248219D01*
X0144474Y0248193D01*
X0144462Y0248168D01*
X0144453Y0248172D01*
X0144339Y0248011D01*
X0144111Y0247934D01*
X0143881Y0248006D01*
X0143847Y0248033D01*
X0143559Y0248290D01*
X0142973Y0248600D01*
X0142683Y0248673D01*
X0142391Y0248746D01*
X0142330Y0248761D01*
X0141667Y0248765D01*
X0141298Y0248677D01*
X0141064Y0248620D01*
X0141022Y0248610D01*
X0140810Y0248501D01*
X0140560Y0248372D01*
X0140433Y0248306D01*
X0139933Y0247870D01*
X0139920Y0247851D01*
X0139920Y0247851D01*
X0139610Y0247411D01*
X0139552Y0247328D01*
X0139440Y0247042D01*
X0139346Y0246799D01*
X0139311Y0246710D01*
X0139308Y0246687D01*
X0139308Y0246687D01*
X0139246Y0246217D01*
X0139244Y0246204D01*
X0139244Y0245858D01*
X0139246Y0245844D01*
X0139301Y0245389D01*
X0139301Y0245389D01*
X0139304Y0245366D01*
X0139320Y0245324D01*
X0139384Y0245155D01*
X0139538Y0244745D01*
X0139552Y0244726D01*
X0139552Y0244726D01*
X0139901Y0244218D01*
X0139914Y0244199D01*
X0140409Y0243758D01*
X0140995Y0243448D01*
X0141350Y0243358D01*
X0141615Y0243292D01*
X0141615Y0243292D01*
X0141638Y0243286D01*
X0142114Y0243284D01*
X0142277Y0243283D01*
X0142277Y0243283D01*
X0142301Y0243283D01*
X0142946Y0243437D01*
X0143292Y0243616D01*
X0143514Y0243731D01*
X0143514Y0243731D01*
X0143535Y0243741D01*
X0144034Y0244177D01*
X0144257Y0244494D01*
X0144390Y0244683D01*
X0144390Y0219569D01*
X0144362Y0219565D01*
X0144362Y0219565D01*
X0143931Y0219509D01*
X0143830Y0219495D01*
X0143805Y0219484D01*
X0143805Y0219484D01*
X0143380Y0219297D01*
X0143314Y0219268D01*
X0143176Y0219152D01*
X0142903Y0218923D01*
X0142903Y0218923D01*
X0142882Y0218905D01*
X0142866Y0218882D01*
X0142866Y0218882D01*
X0142834Y0218833D01*
X0142569Y0218435D01*
X0142463Y0218095D01*
X0142409Y0217923D01*
X0142409Y0217923D01*
X0142401Y0217896D01*
X0142395Y0217614D01*
X0142391Y0217360D01*
X0142391Y0217360D01*
X0142390Y0217332D01*
X0142398Y0217305D01*
X0142398Y0217305D01*
X0142488Y0216974D01*
X0142539Y0216787D01*
X0142834Y0216306D01*
X0142866Y0216277D01*
X0143232Y0215946D01*
X0143252Y0215928D01*
X0143655Y0215733D01*
X0143735Y0215694D01*
X0143760Y0215681D01*
X0143847Y0215667D01*
X0144302Y0215590D01*
X0144302Y0215590D01*
X0144317Y0215588D01*
X0144366Y0215587D01*
X0144924Y0215667D01*
X0145191Y0215788D01*
X0145413Y0215889D01*
X0145413Y0215889D01*
X0145438Y0215901D01*
X0145866Y0216269D01*
X0146173Y0216743D01*
X0146335Y0217284D01*
X0146337Y0217611D01*
X0146338Y0217820D01*
X0146338Y0217820D01*
X0146338Y0217848D01*
X0146330Y0217875D01*
X0146330Y0217875D01*
X0146191Y0218364D01*
X0146191Y0218364D01*
X0146183Y0218391D01*
X0145882Y0218868D01*
X0145861Y0218887D01*
X0145861Y0218887D01*
X0145479Y0219223D01*
X0145479Y0219223D01*
X0145459Y0219242D01*
X0145434Y0219254D01*
X0145434Y0219254D01*
X0145413Y0219263D01*
X0144948Y0219482D01*
X0144920Y0219486D01*
X0144920Y0219486D01*
X0144767Y0219510D01*
X0144390Y0219569D01*
X0144390Y0244683D01*
X0144402Y0244701D01*
X0144402Y0244701D01*
X0144416Y0244720D01*
X0144604Y0245201D01*
X0144648Y0245316D01*
X0144648Y0245316D01*
X0144657Y0245338D01*
X0144663Y0245386D01*
X0144767Y0245604D01*
X0144978Y0245719D01*
X0145219Y0245686D01*
X0145649Y0245478D01*
X0145649Y0245478D01*
X0145674Y0245466D01*
X0145721Y0245458D01*
X0146216Y0245375D01*
X0146216Y0245375D01*
X0146230Y0245372D01*
X0146279Y0245372D01*
X0146838Y0245452D01*
X0146863Y0245463D01*
X0146880Y0245468D01*
X0147121Y0245461D01*
X0147312Y0245314D01*
X0147354Y0245232D01*
X0147471Y0244923D01*
X0147538Y0244745D01*
X0147552Y0244726D01*
X0147552Y0244726D01*
X0147901Y0244218D01*
X0147914Y0244199D01*
X0148409Y0243758D01*
X0148434Y0243744D01*
X0148655Y0243627D01*
X0148995Y0243448D01*
X0149527Y0243314D01*
X0149615Y0243292D01*
X0149615Y0243292D01*
X0149638Y0243286D01*
X0150093Y0243284D01*
X0150277Y0243283D01*
X0150277Y0243283D01*
X0150301Y0243283D01*
X0150946Y0243437D01*
X0151302Y0243621D01*
X0151514Y0243731D01*
X0151514Y0243731D01*
X0151535Y0243741D01*
X0152034Y0244177D01*
X0152057Y0244209D01*
X0152402Y0244701D01*
X0152402Y0244701D01*
X0152416Y0244720D01*
X0152550Y0245065D01*
X0152550Y0213664D01*
X0152523Y0213660D01*
X0152523Y0213660D01*
X0152034Y0213596D01*
X0151991Y0213590D01*
X0151965Y0213579D01*
X0151965Y0213579D01*
X0151504Y0213376D01*
X0151474Y0213363D01*
X0151350Y0213259D01*
X0151063Y0213018D01*
X0151063Y0213018D01*
X0151042Y0213000D01*
X0151027Y0212977D01*
X0151027Y0212977D01*
X0150994Y0212928D01*
X0150729Y0212530D01*
X0150620Y0212181D01*
X0150569Y0212018D01*
X0150569Y0212018D01*
X0150561Y0211991D01*
X0150556Y0211709D01*
X0150551Y0211455D01*
X0150551Y0211455D01*
X0150550Y0211427D01*
X0150558Y0211400D01*
X0150558Y0211400D01*
X0150679Y0210954D01*
X0150699Y0210882D01*
X0150994Y0210401D01*
X0151027Y0210372D01*
X0151392Y0210041D01*
X0151413Y0210023D01*
X0151921Y0209776D01*
X0151957Y0209770D01*
X0152462Y0209685D01*
X0152462Y0209685D01*
X0152477Y0209683D01*
X0152493Y0209683D01*
X0152511Y0209682D01*
X0152526Y0209682D01*
X0153085Y0209762D01*
X0153598Y0209996D01*
X0154026Y0210364D01*
X0154333Y0210838D01*
X0154495Y0211379D01*
X0154497Y0211706D01*
X0154498Y0211915D01*
X0154498Y0211915D01*
X0154498Y0211943D01*
X0154491Y0211970D01*
X0154491Y0211970D01*
X0154351Y0212459D01*
X0154351Y0212459D01*
X0154343Y0212486D01*
X0154042Y0212963D01*
X0154021Y0212982D01*
X0154021Y0212982D01*
X0153640Y0213318D01*
X0153640Y0213318D01*
X0153619Y0213337D01*
X0153108Y0213577D01*
X0153081Y0213581D01*
X0153081Y0213581D01*
X0152935Y0213604D01*
X0152550Y0213664D01*
X0152550Y0245065D01*
X0152603Y0245199D01*
X0152648Y0245316D01*
X0152648Y0245316D01*
X0152657Y0245338D01*
X0152660Y0245361D01*
X0152660Y0245361D01*
X0152721Y0245831D01*
X0152723Y0245843D01*
X0152723Y0246190D01*
X0152722Y0246202D01*
X0152722Y0246202D01*
X0152666Y0246659D01*
X0152666Y0246659D01*
X0152664Y0246682D01*
X0152655Y0246704D01*
X0152655Y0246704D01*
X0152618Y0246803D01*
X0152429Y0247302D01*
X0152416Y0247322D01*
X0152416Y0247322D01*
X0152215Y0247614D01*
X0152054Y0247849D01*
X0151559Y0248290D01*
X0151538Y0248301D01*
X0151538Y0248301D01*
X0151470Y0248336D01*
X0150973Y0248600D01*
X0150330Y0248761D01*
X0149667Y0248765D01*
X0149022Y0248610D01*
X0148508Y0248345D01*
X0148434Y0248307D01*
X0148197Y0248268D01*
X0147981Y0248376D01*
X0147926Y0248445D01*
X0147851Y0248564D01*
X0147795Y0248653D01*
X0147774Y0248671D01*
X0147774Y0248671D01*
X0147393Y0249008D01*
X0147393Y0249008D01*
X0147372Y0249026D01*
X0147347Y0249038D01*
X0147347Y0249038D01*
X0147266Y0249076D01*
X0146861Y0249266D01*
X0146834Y0249270D01*
X0146834Y0249270D01*
X0146639Y0249301D01*
X0146303Y0249353D01*
X0146303Y0263283D01*
X0146946Y0263437D01*
X0147270Y0263605D01*
X0147514Y0263731D01*
X0147514Y0263731D01*
X0147535Y0263741D01*
X0148034Y0264177D01*
X0148067Y0264224D01*
X0148402Y0264701D01*
X0148402Y0264701D01*
X0148416Y0264720D01*
X0148657Y0265338D01*
X0148660Y0265361D01*
X0148660Y0265361D01*
X0148721Y0265831D01*
X0148723Y0265843D01*
X0148723Y0266190D01*
X0148722Y0266202D01*
X0148722Y0266202D01*
X0148666Y0266659D01*
X0148666Y0266659D01*
X0148664Y0266682D01*
X0148655Y0266704D01*
X0148655Y0266704D01*
X0148584Y0266893D01*
X0148429Y0267302D01*
X0148416Y0267322D01*
X0148416Y0267322D01*
X0148391Y0267357D01*
X0148054Y0267849D01*
X0147559Y0268290D01*
X0146973Y0268600D01*
X0146950Y0268606D01*
X0146950Y0268606D01*
X0146814Y0268640D01*
X0146610Y0268768D01*
X0146520Y0268991D01*
X0146579Y0269225D01*
X0146764Y0269380D01*
X0146909Y0269408D01*
X0152642Y0269408D01*
X0152642Y0266541D01*
X0152614Y0266537D01*
X0152614Y0266537D01*
X0152179Y0266480D01*
X0152082Y0266468D01*
X0152057Y0266456D01*
X0152057Y0266456D01*
X0151606Y0266258D01*
X0151566Y0266240D01*
X0151420Y0266118D01*
X0151155Y0265895D01*
X0151155Y0265895D01*
X0151134Y0265877D01*
X0151118Y0265854D01*
X0151118Y0265854D01*
X0151102Y0265830D01*
X0150821Y0265407D01*
X0150709Y0265050D01*
X0150661Y0264895D01*
X0150661Y0264895D01*
X0150653Y0264868D01*
X0150647Y0264586D01*
X0150643Y0264332D01*
X0150643Y0264332D01*
X0150642Y0264304D01*
X0150650Y0264277D01*
X0150650Y0264277D01*
X0150758Y0263880D01*
X0150767Y0263846D01*
X0150767Y0261163D01*
X0150740Y0261159D01*
X0150740Y0261159D01*
X0150652Y0261148D01*
X0150207Y0261089D01*
X0150182Y0261078D01*
X0150182Y0261078D01*
X0150093Y0261039D01*
X0149691Y0260862D01*
X0149527Y0260724D01*
X0149280Y0260517D01*
X0149280Y0260517D01*
X0149259Y0260499D01*
X0149243Y0260476D01*
X0149243Y0260476D01*
X0149211Y0260427D01*
X0148946Y0260029D01*
X0148822Y0259633D01*
X0148786Y0259517D01*
X0148786Y0259517D01*
X0148778Y0259490D01*
X0148773Y0259208D01*
X0148768Y0258954D01*
X0148768Y0258954D01*
X0148767Y0258926D01*
X0148775Y0258899D01*
X0148775Y0258899D01*
X0148855Y0258603D01*
X0148916Y0258381D01*
X0149211Y0257900D01*
X0149243Y0257871D01*
X0149609Y0257540D01*
X0149630Y0257522D01*
X0150138Y0257276D01*
X0150235Y0257259D01*
X0150679Y0257184D01*
X0150679Y0257184D01*
X0150694Y0257182D01*
X0150743Y0257181D01*
X0151302Y0257261D01*
X0151559Y0257379D01*
X0151790Y0257483D01*
X0151790Y0257483D01*
X0151815Y0257495D01*
X0152243Y0257863D01*
X0152550Y0258337D01*
X0152712Y0258878D01*
X0152714Y0259206D01*
X0152715Y0259414D01*
X0152715Y0259414D01*
X0152715Y0259442D01*
X0152708Y0259469D01*
X0152708Y0259469D01*
X0152568Y0259958D01*
X0152568Y0259958D01*
X0152560Y0259985D01*
X0152259Y0260462D01*
X0152238Y0260481D01*
X0152238Y0260481D01*
X0151857Y0260818D01*
X0151857Y0260818D01*
X0151836Y0260836D01*
X0151325Y0261076D01*
X0151297Y0261080D01*
X0151297Y0261080D01*
X0151073Y0261115D01*
X0150767Y0261163D01*
X0150767Y0263846D01*
X0150791Y0263760D01*
X0151086Y0263279D01*
X0151118Y0263249D01*
X0151484Y0262918D01*
X0151504Y0262900D01*
X0151939Y0262689D01*
X0151987Y0262666D01*
X0152012Y0262654D01*
X0152067Y0262645D01*
X0152554Y0262563D01*
X0152554Y0262563D01*
X0152569Y0262560D01*
X0152618Y0262559D01*
X0153176Y0262639D01*
X0153620Y0262841D01*
X0153665Y0262862D01*
X0153665Y0262862D01*
X0153690Y0262873D01*
X0153917Y0263069D01*
X0154139Y0263162D01*
X0154374Y0263106D01*
X0154433Y0263062D01*
X0154615Y0262898D01*
X0154989Y0262716D01*
X0155098Y0262664D01*
X0155123Y0262652D01*
X0155220Y0262635D01*
X0155664Y0262561D01*
X0155664Y0262561D01*
X0155679Y0262558D01*
X0155698Y0262558D01*
X0155713Y0262558D01*
X0155728Y0262557D01*
X0156287Y0262638D01*
X0156687Y0262819D01*
X0156775Y0262860D01*
X0156775Y0262860D01*
X0156800Y0262871D01*
X0157132Y0263157D01*
X0157207Y0263221D01*
X0157207Y0263221D01*
X0157228Y0263240D01*
X0157535Y0263713D01*
X0157697Y0264254D01*
X0157699Y0264582D01*
X0157700Y0264791D01*
X0157700Y0264791D01*
X0157700Y0264818D01*
X0157693Y0264845D01*
X0157693Y0264845D01*
X0157553Y0265334D01*
X0157553Y0265334D01*
X0157545Y0265361D01*
X0157477Y0265469D01*
X0157293Y0265761D01*
X0157244Y0265838D01*
X0157223Y0265857D01*
X0157223Y0265857D01*
X0156842Y0266194D01*
X0156842Y0266194D01*
X0156821Y0266212D01*
X0156796Y0266224D01*
X0156796Y0266224D01*
X0156697Y0266270D01*
X0156310Y0266452D01*
X0156282Y0266456D01*
X0156282Y0266456D01*
X0156007Y0266499D01*
X0155752Y0266539D01*
X0155725Y0266535D01*
X0155725Y0266535D01*
X0155684Y0266530D01*
X0155193Y0266466D01*
X0155167Y0266454D01*
X0155167Y0266454D01*
X0154746Y0266269D01*
X0154676Y0266238D01*
X0154655Y0266220D01*
X0154655Y0266220D01*
X0154424Y0266027D01*
X0154201Y0265936D01*
X0153967Y0265995D01*
X0153916Y0266033D01*
X0153731Y0266196D01*
X0153731Y0266196D01*
X0153711Y0266214D01*
X0153200Y0266454D01*
X0153172Y0266458D01*
X0153172Y0266458D01*
X0152898Y0266501D01*
X0152642Y0266541D01*
X0152642Y0269408D01*
X0159189Y0269408D01*
X0159189Y0250611D01*
X0159161Y0250608D01*
X0159161Y0250608D01*
X0158909Y0250575D01*
X0158629Y0250538D01*
X0158604Y0250527D01*
X0158604Y0250527D01*
X0158194Y0250347D01*
X0158113Y0250311D01*
X0157896Y0250129D01*
X0157702Y0249965D01*
X0157702Y0249965D01*
X0157680Y0249948D01*
X0157368Y0249478D01*
X0157259Y0249131D01*
X0157208Y0248966D01*
X0157208Y0248966D01*
X0157199Y0248939D01*
X0157194Y0248657D01*
X0157190Y0248402D01*
X0157190Y0248402D01*
X0157189Y0248375D01*
X0157196Y0248348D01*
X0157196Y0248348D01*
X0157293Y0247995D01*
X0157337Y0247830D01*
X0157477Y0247603D01*
X0157533Y0247369D01*
X0157441Y0247146D01*
X0157396Y0247101D01*
X0157199Y0246935D01*
X0157199Y0246935D01*
X0157178Y0246918D01*
X0157163Y0246894D01*
X0157163Y0246894D01*
X0157130Y0246846D01*
X0156865Y0246448D01*
X0156768Y0246137D01*
X0156705Y0245935D01*
X0156705Y0245935D01*
X0156697Y0245909D01*
X0156692Y0245627D01*
X0156687Y0245372D01*
X0156687Y0245372D01*
X0156687Y0245345D01*
X0156694Y0245318D01*
X0156694Y0245318D01*
X0156800Y0244927D01*
X0156835Y0244800D01*
X0157130Y0244319D01*
X0157163Y0244290D01*
X0157528Y0243959D01*
X0157549Y0243940D01*
X0157902Y0243769D01*
X0158032Y0243706D01*
X0158057Y0243694D01*
X0158113Y0243685D01*
X0158451Y0243628D01*
X0158451Y0231733D01*
X0158423Y0231730D01*
X0158423Y0231730D01*
X0158349Y0231720D01*
X0157891Y0231660D01*
X0157866Y0231649D01*
X0157866Y0231649D01*
X0157441Y0231462D01*
X0157374Y0231433D01*
X0157217Y0231300D01*
X0156963Y0231087D01*
X0156963Y0231087D01*
X0156942Y0231070D01*
X0156927Y0231046D01*
X0156927Y0231046D01*
X0156895Y0230998D01*
X0156629Y0230600D01*
X0156517Y0230238D01*
X0156469Y0230087D01*
X0156469Y0230087D01*
X0156461Y0230061D01*
X0156456Y0229779D01*
X0156451Y0229524D01*
X0156451Y0229524D01*
X0156451Y0229497D01*
X0156458Y0229470D01*
X0156458Y0229470D01*
X0156542Y0229164D01*
X0156599Y0228952D01*
X0156895Y0228471D01*
X0156927Y0228442D01*
X0157293Y0228111D01*
X0157313Y0228092D01*
X0157665Y0227922D01*
X0157796Y0227858D01*
X0157819Y0227847D01*
X0157819Y0223736D01*
X0157792Y0223732D01*
X0157792Y0223732D01*
X0157545Y0223700D01*
X0157259Y0223662D01*
X0157234Y0223651D01*
X0157234Y0223651D01*
X0156796Y0223458D01*
X0156743Y0223435D01*
X0156603Y0223318D01*
X0156332Y0223090D01*
X0156332Y0223090D01*
X0156311Y0223072D01*
X0156295Y0223049D01*
X0156295Y0223049D01*
X0156263Y0223000D01*
X0155998Y0222602D01*
X0155874Y0222206D01*
X0155838Y0222090D01*
X0155838Y0222090D01*
X0155830Y0222063D01*
X0155824Y0221781D01*
X0155820Y0221527D01*
X0155820Y0221527D01*
X0155819Y0221499D01*
X0155827Y0221472D01*
X0155827Y0221472D01*
X0155907Y0221176D01*
X0155968Y0220954D01*
X0156263Y0220473D01*
X0156287Y0220452D01*
X0156661Y0220113D01*
X0156682Y0220095D01*
X0157171Y0219857D01*
X0157171Y0202166D01*
X0157144Y0202163D01*
X0157144Y0202163D01*
X0156821Y0202121D01*
X0156611Y0202093D01*
X0156586Y0202082D01*
X0156586Y0202082D01*
X0156249Y0201933D01*
X0156095Y0201866D01*
X0155982Y0201771D01*
X0155684Y0201521D01*
X0155684Y0201520D01*
X0155663Y0201503D01*
X0155647Y0201480D01*
X0155647Y0201480D01*
X0155419Y0201136D01*
X0155230Y0200987D01*
X0154989Y0200977D01*
X0154789Y0201110D01*
X0154765Y0201144D01*
X0154676Y0201285D01*
X0154586Y0201427D01*
X0154566Y0201445D01*
X0154566Y0201445D01*
X0154184Y0201782D01*
X0154184Y0201782D01*
X0154163Y0201800D01*
X0153652Y0202040D01*
X0153625Y0202044D01*
X0153625Y0202044D01*
X0153573Y0202052D01*
X0153095Y0202127D01*
X0153067Y0202123D01*
X0153067Y0202123D01*
X0152715Y0202077D01*
X0152535Y0202054D01*
X0152510Y0202043D01*
X0152510Y0202043D01*
X0152395Y0201992D01*
X0152018Y0201826D01*
X0151857Y0201690D01*
X0151608Y0201481D01*
X0151608Y0201481D01*
X0151586Y0201463D01*
X0151571Y0201440D01*
X0151571Y0201440D01*
X0151529Y0201378D01*
X0151274Y0200993D01*
X0151186Y0200714D01*
X0151114Y0200481D01*
X0151114Y0200481D01*
X0151105Y0200455D01*
X0151100Y0200172D01*
X0151095Y0199918D01*
X0151095Y0199918D01*
X0151095Y0199890D01*
X0151102Y0199864D01*
X0151102Y0199864D01*
X0151203Y0199494D01*
X0151243Y0199346D01*
X0151539Y0198865D01*
X0151566Y0198840D01*
X0151937Y0198505D01*
X0151957Y0198486D01*
X0152465Y0198240D01*
X0152523Y0198230D01*
X0153007Y0198149D01*
X0153007Y0198149D01*
X0153022Y0198146D01*
X0153070Y0198146D01*
X0153629Y0198226D01*
X0153980Y0198385D01*
X0154118Y0198448D01*
X0154118Y0198448D01*
X0154143Y0198459D01*
X0154498Y0198765D01*
X0154549Y0198810D01*
X0154549Y0198810D01*
X0154571Y0198828D01*
X0154795Y0199174D01*
X0154982Y0199326D01*
X0155223Y0199339D01*
X0155425Y0199208D01*
X0155454Y0199166D01*
X0155601Y0198928D01*
X0155615Y0198904D01*
X0155647Y0198875D01*
X0156013Y0198544D01*
X0156034Y0198525D01*
X0156542Y0198279D01*
X0156588Y0198271D01*
X0157083Y0198188D01*
X0157083Y0198188D01*
X0157098Y0198186D01*
X0157147Y0198185D01*
X0157705Y0198265D01*
X0158084Y0198437D01*
X0158194Y0198487D01*
X0158194Y0198487D01*
X0158219Y0198499D01*
X0158582Y0198811D01*
X0158582Y0190257D01*
X0157882Y0190183D01*
X0157863Y0190177D01*
X0157863Y0190177D01*
X0157293Y0189992D01*
X0157213Y0189966D01*
X0157195Y0189955D01*
X0157195Y0189955D01*
X0156687Y0189662D01*
X0156603Y0189614D01*
X0156080Y0189143D01*
X0156068Y0189126D01*
X0156068Y0189126D01*
X0155991Y0189020D01*
X0155666Y0188573D01*
X0155523Y0188252D01*
X0155388Y0187949D01*
X0155388Y0187949D01*
X0155380Y0187930D01*
X0155376Y0187910D01*
X0155376Y0187910D01*
X0155362Y0187843D01*
X0155234Y0187242D01*
X0155234Y0186538D01*
X0155362Y0185937D01*
X0155376Y0185869D01*
X0155376Y0185869D01*
X0155380Y0185849D01*
X0155388Y0185831D01*
X0155388Y0185831D01*
X0155523Y0185528D01*
X0155666Y0185206D01*
X0155991Y0184760D01*
X0156068Y0184654D01*
X0156068Y0184654D01*
X0156080Y0184637D01*
X0156603Y0184166D01*
X0156687Y0184118D01*
X0157195Y0183824D01*
X0157195Y0183824D01*
X0157213Y0183814D01*
X0157293Y0183788D01*
X0157863Y0183603D01*
X0157863Y0183603D01*
X0157882Y0183597D01*
X0158582Y0183523D01*
X0158647Y0183530D01*
X0158949Y0183562D01*
X0159282Y0183597D01*
X0159302Y0183603D01*
X0159302Y0183603D01*
X0159932Y0183808D01*
X0159932Y0183808D01*
X0159952Y0183814D01*
X0160177Y0183944D01*
X0160544Y0184156D01*
X0160544Y0184156D01*
X0160561Y0184166D01*
X0161084Y0184637D01*
X0161498Y0185206D01*
X0161695Y0185649D01*
X0161776Y0185831D01*
X0161776Y0185831D01*
X0161784Y0185849D01*
X0161789Y0185869D01*
X0161789Y0185869D01*
X0161817Y0186003D01*
X0161931Y0186538D01*
X0161931Y0187242D01*
X0161817Y0187777D01*
X0161789Y0187910D01*
X0161789Y0187910D01*
X0161784Y0187930D01*
X0161776Y0187949D01*
X0161776Y0187949D01*
X0161506Y0188555D01*
X0161506Y0188555D01*
X0161498Y0188573D01*
X0161084Y0189143D01*
X0161069Y0189156D01*
X0161069Y0189156D01*
X0160774Y0189422D01*
X0160561Y0189614D01*
X0160544Y0189624D01*
X0160544Y0189624D01*
X0160177Y0189835D01*
X0159952Y0189966D01*
X0159932Y0189972D01*
X0159932Y0189972D01*
X0159302Y0190177D01*
X0159302Y0190177D01*
X0159282Y0190183D01*
X0158949Y0190218D01*
X0158647Y0190250D01*
X0158582Y0190257D01*
X0158582Y0198811D01*
X0158604Y0198830D01*
X0158626Y0198849D01*
X0158626Y0198849D01*
X0158647Y0198867D01*
X0158954Y0199341D01*
X0159116Y0199881D01*
X0159118Y0200209D01*
X0159119Y0200418D01*
X0159119Y0200418D01*
X0159119Y0200446D01*
X0159111Y0200473D01*
X0159111Y0200473D01*
X0158972Y0200962D01*
X0158972Y0200962D01*
X0158964Y0200989D01*
X0158663Y0201466D01*
X0158642Y0201484D01*
X0158642Y0201484D01*
X0158261Y0201821D01*
X0158261Y0201821D01*
X0158240Y0201840D01*
X0157729Y0202079D01*
X0157701Y0202084D01*
X0157701Y0202084D01*
X0157400Y0202131D01*
X0157171Y0202166D01*
X0157171Y0219857D01*
X0157190Y0219849D01*
X0157243Y0219840D01*
X0157731Y0219757D01*
X0157731Y0219757D01*
X0157746Y0219755D01*
X0157795Y0219754D01*
X0158354Y0219834D01*
X0158642Y0219965D01*
X0158842Y0220056D01*
X0158842Y0220056D01*
X0158867Y0220068D01*
X0159189Y0220345D01*
X0159274Y0220418D01*
X0159274Y0220418D01*
X0159295Y0220436D01*
X0159602Y0220910D01*
X0159764Y0221451D01*
X0159766Y0221779D01*
X0159767Y0221987D01*
X0159767Y0221987D01*
X0159767Y0222015D01*
X0159759Y0222042D01*
X0159759Y0222042D01*
X0159620Y0222531D01*
X0159620Y0222531D01*
X0159612Y0222558D01*
X0159311Y0223035D01*
X0159290Y0223054D01*
X0159290Y0223054D01*
X0158909Y0223391D01*
X0158909Y0223391D01*
X0158888Y0223409D01*
X0158377Y0223649D01*
X0158349Y0223653D01*
X0158349Y0223653D01*
X0158032Y0223703D01*
X0157819Y0223736D01*
X0157819Y0227847D01*
X0157821Y0227846D01*
X0157918Y0227830D01*
X0158363Y0227755D01*
X0158363Y0227755D01*
X0158378Y0227753D01*
X0158426Y0227752D01*
X0158985Y0227832D01*
X0159499Y0228066D01*
X0159926Y0228434D01*
X0160233Y0228908D01*
X0160395Y0229448D01*
X0160397Y0229776D01*
X0160398Y0229985D01*
X0160398Y0229985D01*
X0160399Y0230013D01*
X0160391Y0230040D01*
X0160391Y0230040D01*
X0160251Y0230529D01*
X0160251Y0230529D01*
X0160244Y0230556D01*
X0159942Y0231033D01*
X0159922Y0231051D01*
X0159922Y0231051D01*
X0159540Y0231388D01*
X0159540Y0231388D01*
X0159519Y0231407D01*
X0159008Y0231646D01*
X0158981Y0231651D01*
X0158981Y0231651D01*
X0158863Y0231669D01*
X0158451Y0231733D01*
X0158451Y0243628D01*
X0158599Y0243603D01*
X0158599Y0243603D01*
X0158613Y0243601D01*
X0158662Y0243600D01*
X0159221Y0243680D01*
X0159602Y0243853D01*
X0159709Y0243902D01*
X0159709Y0243902D01*
X0159735Y0243914D01*
X0160162Y0244282D01*
X0160469Y0244756D01*
X0160631Y0245296D01*
X0160633Y0245624D01*
X0160634Y0245833D01*
X0160634Y0245833D01*
X0160634Y0245861D01*
X0160627Y0245888D01*
X0160627Y0245888D01*
X0160487Y0246377D01*
X0160487Y0246377D01*
X0160479Y0246404D01*
X0160352Y0246605D01*
X0160293Y0246838D01*
X0160382Y0247062D01*
X0160428Y0247108D01*
X0160461Y0247136D01*
X0160617Y0247271D01*
X0160644Y0247294D01*
X0160644Y0247294D01*
X0160665Y0247312D01*
X0160972Y0247786D01*
X0161133Y0248326D01*
X0161135Y0248654D01*
X0161137Y0248863D01*
X0161137Y0248863D01*
X0161137Y0248891D01*
X0161129Y0248918D01*
X0161129Y0248918D01*
X0160989Y0249407D01*
X0160989Y0249407D01*
X0160982Y0249434D01*
X0160681Y0249911D01*
X0160660Y0249929D01*
X0160660Y0249929D01*
X0160278Y0250266D01*
X0160278Y0250266D01*
X0160257Y0250285D01*
X0159747Y0250524D01*
X0159719Y0250529D01*
X0159719Y0250529D01*
X0159474Y0250567D01*
X0159189Y0250611D01*
X0159189Y0269408D01*
X0160387Y0269408D01*
X0160616Y0269333D01*
X0160758Y0269138D01*
X0160758Y0268897D01*
X0160747Y0268869D01*
X0160695Y0268744D01*
X0160620Y0268563D01*
X0160617Y0268537D01*
X0160617Y0268537D01*
X0160549Y0268022D01*
X0160546Y0267997D01*
X0160549Y0267972D01*
X0160617Y0267457D01*
X0160617Y0267457D01*
X0160620Y0267431D01*
X0160839Y0266904D01*
X0161084Y0266584D01*
X0161170Y0266472D01*
X0161186Y0266451D01*
X0161639Y0266104D01*
X0162166Y0265885D01*
X0162205Y0265880D01*
X0162706Y0265814D01*
X0162732Y0265811D01*
X0163298Y0265885D01*
X0163825Y0266104D01*
X0164063Y0266287D01*
X0164063Y0234051D01*
X0164036Y0234047D01*
X0164036Y0234047D01*
X0163862Y0234025D01*
X0163503Y0233978D01*
X0163478Y0233967D01*
X0163478Y0233967D01*
X0163272Y0233876D01*
X0162987Y0233751D01*
X0162855Y0233640D01*
X0162576Y0233405D01*
X0162576Y0233405D01*
X0162555Y0233387D01*
X0162539Y0233364D01*
X0162539Y0233364D01*
X0162507Y0233316D01*
X0162242Y0232918D01*
X0162118Y0232521D01*
X0162082Y0232405D01*
X0162082Y0232405D01*
X0162074Y0232379D01*
X0162069Y0232097D01*
X0162064Y0231842D01*
X0162064Y0231842D01*
X0162063Y0231814D01*
X0162071Y0231788D01*
X0162071Y0231788D01*
X0162166Y0231438D01*
X0162212Y0231270D01*
X0162297Y0231131D01*
X0162297Y0202864D01*
X0162270Y0202861D01*
X0162270Y0202861D01*
X0162166Y0202847D01*
X0161738Y0202791D01*
X0161712Y0202780D01*
X0161712Y0202780D01*
X0161506Y0202689D01*
X0161221Y0202564D01*
X0161069Y0202436D01*
X0160810Y0202218D01*
X0160810Y0202218D01*
X0160789Y0202201D01*
X0160774Y0202177D01*
X0160774Y0202177D01*
X0160741Y0202129D01*
X0160476Y0201731D01*
X0160382Y0201430D01*
X0160316Y0201218D01*
X0160316Y0201218D01*
X0160308Y0201192D01*
X0160303Y0200910D01*
X0160298Y0200655D01*
X0160298Y0200655D01*
X0160298Y0200628D01*
X0160305Y0200601D01*
X0160305Y0200601D01*
X0160391Y0200285D01*
X0160446Y0200083D01*
X0160741Y0199602D01*
X0160774Y0199573D01*
X0161139Y0199242D01*
X0161160Y0199223D01*
X0161668Y0198977D01*
X0161765Y0198961D01*
X0162210Y0198886D01*
X0162210Y0198886D01*
X0162224Y0198883D01*
X0162273Y0198883D01*
X0162832Y0198963D01*
X0163346Y0199197D01*
X0163773Y0199565D01*
X0164080Y0200039D01*
X0164242Y0200579D01*
X0164244Y0200907D01*
X0164245Y0201116D01*
X0164245Y0201116D01*
X0164245Y0201144D01*
X0164238Y0201170D01*
X0164238Y0201170D01*
X0164098Y0201660D01*
X0164098Y0201660D01*
X0164090Y0201686D01*
X0163789Y0202164D01*
X0163768Y0202182D01*
X0163768Y0202182D01*
X0163387Y0202519D01*
X0163387Y0202519D01*
X0163366Y0202537D01*
X0162855Y0202777D01*
X0162828Y0202782D01*
X0162828Y0202782D01*
X0162507Y0202832D01*
X0162297Y0202864D01*
X0162297Y0231131D01*
X0162507Y0230789D01*
X0162539Y0230760D01*
X0162905Y0230429D01*
X0162926Y0230410D01*
X0163366Y0230197D01*
X0163409Y0230176D01*
X0163434Y0230164D01*
X0163531Y0230148D01*
X0163975Y0230073D01*
X0163975Y0230073D01*
X0163990Y0230070D01*
X0164005Y0230070D01*
X0164020Y0230069D01*
X0164020Y0230065D01*
X0164231Y0229993D01*
X0164370Y0229796D01*
X0164388Y0229673D01*
X0164387Y0229626D01*
X0164385Y0229521D01*
X0164385Y0229521D01*
X0164385Y0229493D01*
X0164392Y0229466D01*
X0164392Y0229466D01*
X0164512Y0229027D01*
X0164500Y0228786D01*
X0164343Y0228595D01*
X0164321Y0228585D01*
X0164300Y0228568D01*
X0164300Y0228568D01*
X0163911Y0228240D01*
X0163911Y0228240D01*
X0163889Y0228222D01*
X0163874Y0228199D01*
X0163874Y0228199D01*
X0163804Y0228094D01*
X0163577Y0227752D01*
X0163478Y0227437D01*
X0163417Y0227240D01*
X0163417Y0227240D01*
X0163408Y0227214D01*
X0163403Y0226931D01*
X0163398Y0226677D01*
X0163398Y0226677D01*
X0163398Y0226649D01*
X0163405Y0226622D01*
X0163405Y0226622D01*
X0163503Y0226262D01*
X0163546Y0226105D01*
X0163842Y0225624D01*
X0163874Y0225595D01*
X0164240Y0225264D01*
X0164260Y0225245D01*
X0164646Y0225058D01*
X0164743Y0225011D01*
X0164768Y0224999D01*
X0164839Y0224987D01*
X0165310Y0224908D01*
X0165310Y0224908D01*
X0165325Y0224905D01*
X0165373Y0224905D01*
X0165932Y0224985D01*
X0166259Y0225133D01*
X0166421Y0225207D01*
X0166421Y0225207D01*
X0166446Y0225218D01*
X0166841Y0225559D01*
X0166852Y0225569D01*
X0166852Y0225569D01*
X0166874Y0225587D01*
X0167181Y0226060D01*
X0167342Y0226601D01*
X0167344Y0226929D01*
X0167346Y0227138D01*
X0167346Y0227138D01*
X0167346Y0227165D01*
X0167221Y0227601D01*
X0167230Y0227842D01*
X0167386Y0228037D01*
X0167407Y0228051D01*
X0167433Y0228062D01*
X0167775Y0228357D01*
X0167839Y0228412D01*
X0167839Y0228412D01*
X0167860Y0228431D01*
X0168167Y0228904D01*
X0168213Y0229057D01*
X0168213Y0218251D01*
X0168185Y0218247D01*
X0168185Y0218247D01*
X0167760Y0218191D01*
X0167653Y0218177D01*
X0167628Y0218166D01*
X0167628Y0218166D01*
X0167221Y0217987D01*
X0167137Y0217950D01*
X0167075Y0217899D01*
X0166726Y0217605D01*
X0166726Y0217605D01*
X0166704Y0217587D01*
X0166689Y0217564D01*
X0166689Y0217564D01*
X0166657Y0217515D01*
X0166392Y0217117D01*
X0166311Y0216859D01*
X0166232Y0216605D01*
X0166232Y0216605D01*
X0166223Y0216578D01*
X0166218Y0216296D01*
X0166214Y0216042D01*
X0166214Y0216042D01*
X0166213Y0216014D01*
X0166220Y0215987D01*
X0166220Y0215987D01*
X0166284Y0215755D01*
X0166284Y0195810D01*
X0166256Y0195806D01*
X0166256Y0195806D01*
X0166223Y0195802D01*
X0165724Y0195736D01*
X0165699Y0195725D01*
X0165699Y0195725D01*
X0165373Y0195582D01*
X0165207Y0195509D01*
X0165082Y0195404D01*
X0164797Y0195164D01*
X0164797Y0195164D01*
X0164775Y0195146D01*
X0164760Y0195123D01*
X0164760Y0195123D01*
X0164732Y0195081D01*
X0164463Y0194676D01*
X0164342Y0194289D01*
X0164303Y0194164D01*
X0164303Y0194164D01*
X0164294Y0194137D01*
X0164289Y0193855D01*
X0164284Y0193601D01*
X0164284Y0193601D01*
X0164284Y0193573D01*
X0164291Y0193546D01*
X0164291Y0193546D01*
X0164385Y0193202D01*
X0164432Y0193028D01*
X0164728Y0192547D01*
X0164760Y0192518D01*
X0165126Y0192187D01*
X0165146Y0192169D01*
X0165654Y0191923D01*
X0165752Y0191906D01*
X0166196Y0191831D01*
X0166196Y0191831D01*
X0166211Y0191829D01*
X0166259Y0191828D01*
X0166818Y0191908D01*
X0167100Y0192037D01*
X0167307Y0192130D01*
X0167307Y0192130D01*
X0167332Y0192142D01*
X0167760Y0192510D01*
X0168067Y0192984D01*
X0168228Y0193525D01*
X0168230Y0193853D01*
X0168232Y0194061D01*
X0168232Y0194061D01*
X0168232Y0194089D01*
X0168224Y0194116D01*
X0168224Y0194116D01*
X0168084Y0194605D01*
X0168084Y0194605D01*
X0168077Y0194632D01*
X0167926Y0194871D01*
X0167839Y0195008D01*
X0167775Y0195109D01*
X0167755Y0195128D01*
X0167755Y0195128D01*
X0167373Y0195465D01*
X0167373Y0195465D01*
X0167352Y0195483D01*
X0166841Y0195723D01*
X0166814Y0195727D01*
X0166814Y0195727D01*
X0166642Y0195754D01*
X0166284Y0195810D01*
X0166284Y0215755D01*
X0166311Y0215654D01*
X0166361Y0215469D01*
X0166657Y0214988D01*
X0166689Y0214959D01*
X0167055Y0214628D01*
X0167075Y0214610D01*
X0167583Y0214363D01*
X0167681Y0214347D01*
X0168125Y0214272D01*
X0168125Y0214272D01*
X0168140Y0214270D01*
X0168188Y0214269D01*
X0168747Y0214349D01*
X0169261Y0214583D01*
X0169689Y0214951D01*
X0169996Y0215425D01*
X0170157Y0215966D01*
X0170159Y0216293D01*
X0170161Y0216502D01*
X0170161Y0216502D01*
X0170161Y0216530D01*
X0170153Y0216557D01*
X0170153Y0216557D01*
X0170013Y0217046D01*
X0170013Y0217046D01*
X0170006Y0217073D01*
X0169705Y0217550D01*
X0169684Y0217569D01*
X0169684Y0217569D01*
X0169302Y0217905D01*
X0169302Y0217905D01*
X0169281Y0217924D01*
X0168771Y0218164D01*
X0168743Y0218168D01*
X0168743Y0218168D01*
X0168381Y0218224D01*
X0168213Y0218251D01*
X0168213Y0229057D01*
X0168329Y0229445D01*
X0168331Y0229773D01*
X0168332Y0229982D01*
X0168332Y0229982D01*
X0168332Y0230009D01*
X0168325Y0230036D01*
X0168325Y0230036D01*
X0168185Y0230525D01*
X0168185Y0230525D01*
X0168177Y0230552D01*
X0167876Y0231029D01*
X0167855Y0231048D01*
X0167855Y0231048D01*
X0167474Y0231385D01*
X0167474Y0231385D01*
X0167453Y0231403D01*
X0166942Y0231643D01*
X0166915Y0231647D01*
X0166915Y0231647D01*
X0166642Y0231690D01*
X0166384Y0231730D01*
X0166383Y0231730D01*
X0166167Y0231803D01*
X0166027Y0232000D01*
X0166010Y0232118D01*
X0166011Y0232303D01*
X0166011Y0232303D01*
X0166011Y0232331D01*
X0166004Y0232357D01*
X0166004Y0232357D01*
X0165864Y0232847D01*
X0165864Y0232847D01*
X0165856Y0232873D01*
X0165555Y0233351D01*
X0165534Y0233369D01*
X0165534Y0233369D01*
X0165153Y0233706D01*
X0165153Y0233706D01*
X0165132Y0233724D01*
X0164621Y0233964D01*
X0164593Y0233969D01*
X0164593Y0233969D01*
X0164257Y0234021D01*
X0164063Y0234051D01*
X0164063Y0266287D01*
X0164278Y0266451D01*
X0164293Y0266472D01*
X0164293Y0266472D01*
X0164423Y0266640D01*
X0164621Y0266777D01*
X0164862Y0266770D01*
X0165041Y0266640D01*
X0165170Y0266472D01*
X0165170Y0266472D01*
X0165186Y0266451D01*
X0165639Y0266104D01*
X0166166Y0265885D01*
X0166256Y0265874D01*
X0166706Y0265814D01*
X0166732Y0265811D01*
X0167055Y0265853D01*
X0167272Y0265882D01*
X0167272Y0265882D01*
X0167298Y0265885D01*
X0167825Y0266104D01*
X0168278Y0266451D01*
X0168625Y0266904D01*
X0168843Y0267431D01*
X0168847Y0267457D01*
X0168847Y0267457D01*
X0168903Y0267888D01*
X0168918Y0267997D01*
X0168903Y0268106D01*
X0168847Y0268537D01*
X0168847Y0268537D01*
X0168843Y0268563D01*
X0168824Y0268610D01*
X0168717Y0268869D01*
X0168698Y0269109D01*
X0168824Y0269314D01*
X0169046Y0269406D01*
X0169077Y0269408D01*
X0173363Y0269408D01*
X0173451Y0269379D01*
X0173451Y0231752D01*
X0173424Y0231749D01*
X0173424Y0231749D01*
X0173378Y0231743D01*
X0172892Y0231679D01*
X0172866Y0231668D01*
X0172866Y0231668D01*
X0172524Y0231517D01*
X0172375Y0231452D01*
X0172178Y0231286D01*
X0171964Y0231106D01*
X0171964Y0231106D01*
X0171943Y0231089D01*
X0171928Y0231065D01*
X0171928Y0231065D01*
X0171895Y0231017D01*
X0171630Y0230619D01*
X0171558Y0230388D01*
X0171470Y0230106D01*
X0171470Y0230106D01*
X0171462Y0230080D01*
X0171457Y0229798D01*
X0171452Y0229543D01*
X0171452Y0229543D01*
X0171452Y0229516D01*
X0171459Y0229489D01*
X0171459Y0229489D01*
X0171558Y0229125D01*
X0171600Y0228971D01*
X0171895Y0228490D01*
X0171928Y0228461D01*
X0172188Y0228225D01*
X0172188Y0221440D01*
X0172160Y0221436D01*
X0172160Y0221436D01*
X0172115Y0221430D01*
X0171628Y0221366D01*
X0171603Y0221355D01*
X0171603Y0221355D01*
X0171264Y0221206D01*
X0171111Y0221139D01*
X0171050Y0221088D01*
X0170701Y0220794D01*
X0170701Y0220794D01*
X0170679Y0220776D01*
X0170664Y0220753D01*
X0170664Y0220753D01*
X0170632Y0220704D01*
X0170366Y0220306D01*
X0170252Y0219941D01*
X0170206Y0219794D01*
X0170206Y0219794D01*
X0170198Y0219767D01*
X0170193Y0219485D01*
X0170188Y0219231D01*
X0170188Y0219231D01*
X0170188Y0219203D01*
X0170195Y0219176D01*
X0170195Y0219176D01*
X0170276Y0218880D01*
X0170336Y0218658D01*
X0170632Y0218177D01*
X0170664Y0218148D01*
X0170770Y0218052D01*
X0170770Y0203326D01*
X0170743Y0203323D01*
X0170743Y0203323D01*
X0170701Y0203317D01*
X0170211Y0203253D01*
X0170185Y0203242D01*
X0170185Y0203242D01*
X0169768Y0203058D01*
X0169694Y0203026D01*
X0169633Y0202974D01*
X0169283Y0202680D01*
X0169283Y0202680D01*
X0169262Y0202663D01*
X0169247Y0202639D01*
X0169247Y0202639D01*
X0169214Y0202591D01*
X0168949Y0202193D01*
X0168825Y0201797D01*
X0168789Y0201680D01*
X0168789Y0201680D01*
X0168781Y0201654D01*
X0168776Y0201372D01*
X0168771Y0201117D01*
X0168771Y0201117D01*
X0168771Y0201090D01*
X0168778Y0201063D01*
X0168778Y0201063D01*
X0168859Y0200767D01*
X0168919Y0200545D01*
X0169214Y0200064D01*
X0169247Y0200035D01*
X0169612Y0199704D01*
X0169633Y0199685D01*
X0170141Y0199439D01*
X0170188Y0199431D01*
X0170682Y0199348D01*
X0170683Y0199348D01*
X0170697Y0199345D01*
X0170746Y0199345D01*
X0171305Y0199425D01*
X0171603Y0199560D01*
X0171793Y0199647D01*
X0171793Y0199647D01*
X0171819Y0199659D01*
X0172143Y0199938D01*
X0172225Y0200009D01*
X0172225Y0200009D01*
X0172246Y0200027D01*
X0172553Y0200501D01*
X0172715Y0201041D01*
X0172717Y0201369D01*
X0172718Y0201578D01*
X0172718Y0201578D01*
X0172718Y0201606D01*
X0172711Y0201632D01*
X0172711Y0201632D01*
X0172571Y0202122D01*
X0172571Y0202122D01*
X0172563Y0202149D01*
X0172262Y0202626D01*
X0172241Y0202644D01*
X0172241Y0202644D01*
X0171860Y0202981D01*
X0171860Y0202981D01*
X0171839Y0202999D01*
X0171328Y0203239D01*
X0171301Y0203244D01*
X0171301Y0203244D01*
X0171111Y0203273D01*
X0170770Y0203326D01*
X0170770Y0218052D01*
X0171030Y0217817D01*
X0171050Y0217799D01*
X0171558Y0217552D01*
X0171615Y0217543D01*
X0172100Y0217461D01*
X0172100Y0217461D01*
X0172115Y0217459D01*
X0172163Y0217458D01*
X0172722Y0217538D01*
X0172919Y0217628D01*
X0173211Y0217760D01*
X0173211Y0217760D01*
X0173236Y0217772D01*
X0173527Y0218023D01*
X0173642Y0218122D01*
X0173642Y0218122D01*
X0173663Y0218140D01*
X0173970Y0218614D01*
X0174132Y0219155D01*
X0174134Y0219482D01*
X0174135Y0219691D01*
X0174135Y0219691D01*
X0174136Y0219719D01*
X0174128Y0219746D01*
X0174128Y0219746D01*
X0173988Y0220235D01*
X0173988Y0220235D01*
X0173981Y0220262D01*
X0173679Y0220739D01*
X0173659Y0220758D01*
X0173659Y0220758D01*
X0173277Y0221094D01*
X0173277Y0221094D01*
X0173256Y0221113D01*
X0172745Y0221353D01*
X0172718Y0221357D01*
X0172718Y0221357D01*
X0172455Y0221398D01*
X0172188Y0221440D01*
X0172188Y0228225D01*
X0172293Y0228130D01*
X0172314Y0228111D01*
X0172822Y0227865D01*
X0172912Y0227850D01*
X0173364Y0227774D01*
X0173364Y0227774D01*
X0173378Y0227771D01*
X0173427Y0227771D01*
X0173986Y0227851D01*
X0174436Y0228056D01*
X0174474Y0228073D01*
X0174474Y0228073D01*
X0174500Y0228085D01*
X0174878Y0228410D01*
X0174906Y0228435D01*
X0174906Y0228435D01*
X0174927Y0228453D01*
X0174966Y0228512D01*
X0174966Y0216715D01*
X0174938Y0216712D01*
X0174938Y0216712D01*
X0174906Y0216707D01*
X0174406Y0216642D01*
X0174380Y0216631D01*
X0174380Y0216631D01*
X0173955Y0216444D01*
X0173889Y0216415D01*
X0173831Y0216365D01*
X0173478Y0216069D01*
X0173478Y0216069D01*
X0173457Y0216051D01*
X0173442Y0216028D01*
X0173442Y0216028D01*
X0173410Y0215980D01*
X0173144Y0215582D01*
X0173021Y0215186D01*
X0172984Y0215069D01*
X0172984Y0215069D01*
X0172976Y0215043D01*
X0172971Y0214761D01*
X0172966Y0214506D01*
X0172966Y0214506D01*
X0172966Y0214478D01*
X0172973Y0214452D01*
X0172973Y0214452D01*
X0173054Y0214156D01*
X0173114Y0213934D01*
X0173410Y0213453D01*
X0173442Y0213424D01*
X0173807Y0213093D01*
X0173828Y0213074D01*
X0174336Y0212828D01*
X0174407Y0212816D01*
X0174878Y0212737D01*
X0174878Y0212737D01*
X0174893Y0212734D01*
X0174941Y0212734D01*
X0175500Y0212814D01*
X0175912Y0213001D01*
X0175989Y0213036D01*
X0175989Y0213036D01*
X0176014Y0213047D01*
X0176441Y0213416D01*
X0176748Y0213890D01*
X0176910Y0214430D01*
X0176912Y0214758D01*
X0176913Y0214967D01*
X0176913Y0214967D01*
X0176914Y0214995D01*
X0176906Y0215021D01*
X0176906Y0215021D01*
X0176766Y0215511D01*
X0176766Y0215511D01*
X0176758Y0215537D01*
X0176457Y0216015D01*
X0176436Y0216033D01*
X0176436Y0216033D01*
X0176055Y0216370D01*
X0176055Y0216370D01*
X0176034Y0216388D01*
X0176009Y0216400D01*
X0176009Y0216400D01*
X0175952Y0216427D01*
X0175523Y0216628D01*
X0175496Y0216633D01*
X0175496Y0216633D01*
X0175213Y0216677D01*
X0174966Y0216715D01*
X0174966Y0228512D01*
X0175234Y0228927D01*
X0175396Y0229467D01*
X0175398Y0229795D01*
X0175399Y0230004D01*
X0175399Y0230004D01*
X0175399Y0230032D01*
X0175392Y0230058D01*
X0175392Y0230058D01*
X0175252Y0230548D01*
X0175252Y0230548D01*
X0175244Y0230574D01*
X0174943Y0231052D01*
X0174922Y0231070D01*
X0174922Y0231070D01*
X0174541Y0231407D01*
X0174541Y0231407D01*
X0174520Y0231425D01*
X0174495Y0231437D01*
X0174495Y0231437D01*
X0174444Y0231461D01*
X0174009Y0231665D01*
X0173982Y0231670D01*
X0173982Y0231670D01*
X0173610Y0231727D01*
X0173451Y0231752D01*
X0173451Y0269379D01*
X0173592Y0269333D01*
X0173734Y0269138D01*
X0173734Y0268897D01*
X0173723Y0268869D01*
X0173679Y0268761D01*
X0173597Y0268563D01*
X0173593Y0268537D01*
X0173593Y0268537D01*
X0173525Y0268022D01*
X0173522Y0267997D01*
X0173525Y0267972D01*
X0173593Y0267457D01*
X0173593Y0267457D01*
X0173597Y0267431D01*
X0173815Y0266904D01*
X0174162Y0266451D01*
X0174615Y0266104D01*
X0175142Y0265885D01*
X0175168Y0265882D01*
X0175683Y0265814D01*
X0175708Y0265811D01*
X0176014Y0265851D01*
X0176249Y0265882D01*
X0176249Y0265882D01*
X0176274Y0265885D01*
X0176801Y0266104D01*
X0177050Y0266295D01*
X0177050Y0261796D01*
X0177022Y0261793D01*
X0177022Y0261793D01*
X0176665Y0261746D01*
X0176490Y0261723D01*
X0176465Y0261712D01*
X0176465Y0261712D01*
X0176178Y0261586D01*
X0175974Y0261496D01*
X0175912Y0261444D01*
X0175563Y0261151D01*
X0175563Y0261151D01*
X0175541Y0261133D01*
X0175526Y0261110D01*
X0175526Y0261110D01*
X0175500Y0261070D01*
X0175229Y0260663D01*
X0175107Y0260275D01*
X0175069Y0260151D01*
X0175069Y0260151D01*
X0175060Y0260124D01*
X0175055Y0259842D01*
X0175051Y0259588D01*
X0175051Y0259588D01*
X0175050Y0259560D01*
X0175057Y0259533D01*
X0175057Y0259533D01*
X0175138Y0259237D01*
X0175198Y0259015D01*
X0175494Y0258534D01*
X0175526Y0258505D01*
X0175892Y0258174D01*
X0175912Y0258155D01*
X0176266Y0257984D01*
X0176266Y0248664D01*
X0176238Y0248660D01*
X0176238Y0248660D01*
X0176074Y0248639D01*
X0175706Y0248591D01*
X0175680Y0248580D01*
X0175680Y0248580D01*
X0175219Y0248377D01*
X0175189Y0248363D01*
X0174993Y0248199D01*
X0174778Y0248018D01*
X0174778Y0248018D01*
X0174757Y0248000D01*
X0174742Y0247977D01*
X0174742Y0247977D01*
X0174710Y0247929D01*
X0174444Y0247530D01*
X0174321Y0247134D01*
X0174284Y0247018D01*
X0174284Y0247018D01*
X0174276Y0246992D01*
X0174271Y0246709D01*
X0174266Y0246455D01*
X0174266Y0246455D01*
X0174266Y0246427D01*
X0174273Y0246401D01*
X0174273Y0246401D01*
X0174380Y0246007D01*
X0174414Y0245883D01*
X0174710Y0245402D01*
X0174742Y0245373D01*
X0175107Y0245042D01*
X0175128Y0245023D01*
X0175636Y0244777D01*
X0175678Y0244770D01*
X0176178Y0244686D01*
X0176178Y0244686D01*
X0176193Y0244683D01*
X0176241Y0244683D01*
X0176800Y0244763D01*
X0177168Y0244930D01*
X0177289Y0244985D01*
X0177289Y0244985D01*
X0177314Y0244996D01*
X0177659Y0245294D01*
X0177720Y0245347D01*
X0177720Y0245347D01*
X0177741Y0245365D01*
X0178048Y0245838D01*
X0178210Y0246379D01*
X0178212Y0246707D01*
X0178213Y0246916D01*
X0178213Y0246916D01*
X0178214Y0246944D01*
X0178206Y0246970D01*
X0178206Y0246970D01*
X0178066Y0247460D01*
X0178066Y0247460D01*
X0178058Y0247486D01*
X0178010Y0247562D01*
X0177868Y0247788D01*
X0177757Y0247964D01*
X0177736Y0247982D01*
X0177736Y0247982D01*
X0177355Y0248319D01*
X0177355Y0248319D01*
X0177334Y0248337D01*
X0176823Y0248577D01*
X0176796Y0248581D01*
X0176796Y0248581D01*
X0176463Y0248633D01*
X0176266Y0248664D01*
X0176266Y0257984D01*
X0176420Y0257909D01*
X0176518Y0257893D01*
X0176962Y0257818D01*
X0176962Y0257818D01*
X0176977Y0257816D01*
X0177026Y0257815D01*
X0177584Y0257895D01*
X0177843Y0258013D01*
X0178073Y0258117D01*
X0178073Y0258117D01*
X0178098Y0258129D01*
X0178526Y0258497D01*
X0178833Y0258971D01*
X0178981Y0259465D01*
X0178981Y0254963D01*
X0178953Y0254960D01*
X0178953Y0254960D01*
X0178656Y0254921D01*
X0178421Y0254890D01*
X0178395Y0254879D01*
X0178395Y0254879D01*
X0177996Y0254703D01*
X0177904Y0254663D01*
X0177741Y0254526D01*
X0177493Y0254317D01*
X0177493Y0254317D01*
X0177472Y0254299D01*
X0177457Y0254276D01*
X0177457Y0254276D01*
X0177430Y0254237D01*
X0177159Y0253830D01*
X0177050Y0253479D01*
X0176999Y0253317D01*
X0176999Y0253317D01*
X0176991Y0253291D01*
X0176986Y0253009D01*
X0176981Y0252754D01*
X0176981Y0252754D01*
X0176981Y0252727D01*
X0176988Y0252700D01*
X0176988Y0252700D01*
X0177069Y0252404D01*
X0177129Y0252182D01*
X0177425Y0251701D01*
X0177457Y0251672D01*
X0177822Y0251341D01*
X0177843Y0251322D01*
X0178351Y0251076D01*
X0178448Y0251060D01*
X0178893Y0250985D01*
X0178893Y0250985D01*
X0178908Y0250982D01*
X0178956Y0250982D01*
X0179167Y0251012D01*
X0179167Y0225818D01*
X0179140Y0225814D01*
X0179140Y0225814D01*
X0178711Y0225758D01*
X0178608Y0225744D01*
X0178582Y0225733D01*
X0178582Y0225733D01*
X0178119Y0225530D01*
X0178091Y0225517D01*
X0177884Y0225343D01*
X0177680Y0225172D01*
X0177680Y0225172D01*
X0177659Y0225154D01*
X0177644Y0225131D01*
X0177644Y0225131D01*
X0177560Y0225006D01*
X0177346Y0224684D01*
X0177269Y0224439D01*
X0177186Y0224172D01*
X0177186Y0224172D01*
X0177178Y0224145D01*
X0177173Y0223863D01*
X0177168Y0223609D01*
X0177168Y0223609D01*
X0177168Y0223581D01*
X0177175Y0223554D01*
X0177175Y0223554D01*
X0177289Y0223137D01*
X0177316Y0223036D01*
X0177430Y0222850D01*
X0177487Y0222616D01*
X0177395Y0222393D01*
X0177349Y0222348D01*
X0177335Y0222336D01*
X0177178Y0222204D01*
X0177178Y0222204D01*
X0177157Y0222186D01*
X0177141Y0222163D01*
X0177141Y0222163D01*
X0177129Y0222145D01*
X0176844Y0221716D01*
X0176756Y0221436D01*
X0176684Y0221204D01*
X0176684Y0221204D01*
X0176676Y0221177D01*
X0176670Y0220895D01*
X0176666Y0220641D01*
X0176666Y0220641D01*
X0176665Y0220613D01*
X0176673Y0220586D01*
X0176673Y0220586D01*
X0176758Y0220271D01*
X0176814Y0220068D01*
X0177109Y0219587D01*
X0177141Y0219558D01*
X0177507Y0219227D01*
X0177527Y0219209D01*
X0178035Y0218963D01*
X0178070Y0218957D01*
X0178577Y0218871D01*
X0178577Y0218871D01*
X0178592Y0218869D01*
X0178608Y0218869D01*
X0178626Y0218869D01*
X0178641Y0218868D01*
X0179199Y0218948D01*
X0179538Y0219102D01*
X0179688Y0219170D01*
X0179688Y0219170D01*
X0179713Y0219182D01*
X0180141Y0219550D01*
X0180448Y0220024D01*
X0180610Y0220565D01*
X0180612Y0220893D01*
X0180613Y0221101D01*
X0180613Y0221101D01*
X0180613Y0221129D01*
X0180605Y0221156D01*
X0180605Y0221156D01*
X0180466Y0221645D01*
X0180466Y0221645D01*
X0180458Y0221672D01*
X0180443Y0221695D01*
X0180443Y0221695D01*
X0180356Y0221833D01*
X0180297Y0222066D01*
X0180386Y0222290D01*
X0180432Y0222336D01*
X0180433Y0222337D01*
X0180560Y0222447D01*
X0180622Y0222500D01*
X0180622Y0222500D01*
X0180643Y0222518D01*
X0180950Y0222992D01*
X0181112Y0223533D01*
X0181114Y0223863D01*
X0181115Y0224070D01*
X0181115Y0224070D01*
X0181115Y0224097D01*
X0181108Y0224124D01*
X0181108Y0224124D01*
X0180968Y0224613D01*
X0180968Y0224613D01*
X0180960Y0224640D01*
X0180659Y0225117D01*
X0180638Y0225136D01*
X0180638Y0225136D01*
X0180257Y0225473D01*
X0180257Y0225473D01*
X0180236Y0225491D01*
X0179725Y0225731D01*
X0179698Y0225735D01*
X0179698Y0225735D01*
X0179443Y0225775D01*
X0179167Y0225818D01*
X0179167Y0251012D01*
X0179515Y0251062D01*
X0179955Y0251262D01*
X0180003Y0251284D01*
X0180003Y0251284D01*
X0180029Y0251295D01*
X0180362Y0251582D01*
X0180435Y0251646D01*
X0180435Y0251646D01*
X0180456Y0251664D01*
X0180763Y0252138D01*
X0180925Y0252678D01*
X0180927Y0253006D01*
X0180928Y0253215D01*
X0180928Y0253215D01*
X0180929Y0253243D01*
X0180921Y0253269D01*
X0180921Y0253269D01*
X0180781Y0253759D01*
X0180781Y0253759D01*
X0180773Y0253785D01*
X0180472Y0254263D01*
X0180451Y0254281D01*
X0180451Y0254281D01*
X0180070Y0254618D01*
X0180070Y0254618D01*
X0180049Y0254636D01*
X0180024Y0254648D01*
X0180024Y0254648D01*
X0180003Y0254658D01*
X0179538Y0254876D01*
X0179511Y0254881D01*
X0179511Y0254881D01*
X0179225Y0254925D01*
X0178981Y0254963D01*
X0178981Y0259465D01*
X0178994Y0259512D01*
X0178996Y0259839D01*
X0178998Y0260048D01*
X0178998Y0260048D01*
X0178998Y0260076D01*
X0178990Y0260103D01*
X0178990Y0260103D01*
X0178850Y0260592D01*
X0178850Y0260592D01*
X0178843Y0260619D01*
X0178542Y0261096D01*
X0178521Y0261114D01*
X0178521Y0261114D01*
X0178139Y0261451D01*
X0178139Y0261451D01*
X0178118Y0261470D01*
X0177608Y0261710D01*
X0177580Y0261714D01*
X0177580Y0261714D01*
X0177254Y0261765D01*
X0177050Y0261796D01*
X0177050Y0266295D01*
X0177254Y0266451D01*
X0177269Y0266472D01*
X0177269Y0266472D01*
X0177367Y0266599D01*
X0177566Y0266736D01*
X0177807Y0266729D01*
X0177986Y0266599D01*
X0178084Y0266472D01*
X0178084Y0266472D01*
X0178099Y0266451D01*
X0178552Y0266104D01*
X0179079Y0265885D01*
X0179167Y0265874D01*
X0179620Y0265814D01*
X0179645Y0265811D01*
X0180049Y0265864D01*
X0180186Y0265882D01*
X0180186Y0265882D01*
X0180211Y0265885D01*
X0180738Y0266104D01*
X0181135Y0266408D01*
X0181171Y0266436D01*
X0181191Y0266451D01*
X0181206Y0266472D01*
X0181207Y0266472D01*
X0181304Y0266599D01*
X0181503Y0266736D01*
X0181744Y0266729D01*
X0181923Y0266599D01*
X0182021Y0266472D01*
X0182021Y0266472D01*
X0182036Y0266451D01*
X0182213Y0266316D01*
X0182213Y0213489D01*
X0182186Y0213486D01*
X0182186Y0213486D01*
X0181796Y0213435D01*
X0181653Y0213416D01*
X0181628Y0213405D01*
X0181628Y0213405D01*
X0181171Y0213204D01*
X0181137Y0213189D01*
X0180958Y0213039D01*
X0180726Y0212844D01*
X0180726Y0212844D01*
X0180705Y0212826D01*
X0180689Y0212803D01*
X0180689Y0212803D01*
X0180638Y0212726D01*
X0180392Y0212356D01*
X0180277Y0211989D01*
X0180232Y0211844D01*
X0180232Y0211844D01*
X0180224Y0211817D01*
X0180219Y0211535D01*
X0180214Y0211280D01*
X0180214Y0211280D01*
X0180213Y0211253D01*
X0180221Y0211226D01*
X0180221Y0211226D01*
X0180334Y0210809D01*
X0180362Y0210708D01*
X0180540Y0210417D01*
X0180540Y0207275D01*
X0180513Y0207271D01*
X0180513Y0207271D01*
X0180268Y0207239D01*
X0179981Y0207201D01*
X0179955Y0207190D01*
X0179955Y0207190D01*
X0179511Y0206995D01*
X0179464Y0206974D01*
X0179403Y0206923D01*
X0179053Y0206629D01*
X0179053Y0206629D01*
X0179032Y0206611D01*
X0179017Y0206588D01*
X0179017Y0206588D01*
X0178971Y0206520D01*
X0178719Y0206141D01*
X0178607Y0205782D01*
X0178559Y0205629D01*
X0178559Y0205629D01*
X0178551Y0205602D01*
X0178546Y0205320D01*
X0178541Y0205066D01*
X0178541Y0205066D01*
X0178541Y0205038D01*
X0178548Y0205011D01*
X0178548Y0205011D01*
X0178656Y0204616D01*
X0178689Y0204493D01*
X0178984Y0204012D01*
X0179017Y0203983D01*
X0179382Y0203652D01*
X0179403Y0203634D01*
X0179911Y0203388D01*
X0180008Y0203371D01*
X0180453Y0203296D01*
X0180453Y0203296D01*
X0180467Y0203294D01*
X0180516Y0203293D01*
X0181075Y0203373D01*
X0181589Y0203607D01*
X0182016Y0203975D01*
X0182323Y0204449D01*
X0182485Y0204990D01*
X0182487Y0205318D01*
X0182488Y0205526D01*
X0182488Y0205526D01*
X0182488Y0205554D01*
X0182481Y0205581D01*
X0182481Y0205581D01*
X0182341Y0206070D01*
X0182341Y0206070D01*
X0182333Y0206097D01*
X0182032Y0206574D01*
X0182011Y0206593D01*
X0182011Y0206593D01*
X0181630Y0206930D01*
X0181630Y0206930D01*
X0181609Y0206948D01*
X0181584Y0206960D01*
X0181584Y0206960D01*
X0181571Y0206966D01*
X0181098Y0207188D01*
X0181071Y0207192D01*
X0181071Y0207192D01*
X0180801Y0207234D01*
X0180540Y0207275D01*
X0180540Y0210417D01*
X0180657Y0210227D01*
X0180689Y0210198D01*
X0181055Y0209867D01*
X0181076Y0209848D01*
X0181546Y0209620D01*
X0181559Y0209614D01*
X0181584Y0209602D01*
X0181681Y0209586D01*
X0182125Y0209511D01*
X0182125Y0209511D01*
X0182140Y0209509D01*
X0182189Y0209508D01*
X0182748Y0209588D01*
X0183261Y0209822D01*
X0183282Y0209840D01*
X0183282Y0209840D01*
X0183392Y0209934D01*
X0183614Y0210027D01*
X0183848Y0209972D01*
X0183907Y0209928D01*
X0184064Y0209786D01*
X0184085Y0209767D01*
X0184593Y0209521D01*
X0184690Y0209505D01*
X0185134Y0209430D01*
X0185134Y0209430D01*
X0185149Y0209427D01*
X0185198Y0209427D01*
X0185757Y0209507D01*
X0185979Y0209608D01*
X0186245Y0209729D01*
X0186245Y0209729D01*
X0186270Y0209740D01*
X0186698Y0210109D01*
X0187005Y0210582D01*
X0187167Y0211123D01*
X0187169Y0211451D01*
X0187170Y0211660D01*
X0187170Y0211660D01*
X0187170Y0211688D01*
X0187163Y0211714D01*
X0187163Y0211714D01*
X0187023Y0212204D01*
X0187023Y0212204D01*
X0187015Y0212230D01*
X0186714Y0212708D01*
X0186693Y0212726D01*
X0186693Y0212726D01*
X0186312Y0213063D01*
X0186312Y0213063D01*
X0186291Y0213081D01*
X0185780Y0213321D01*
X0185753Y0213325D01*
X0185753Y0213325D01*
X0185393Y0213382D01*
X0185222Y0213408D01*
X0185195Y0213404D01*
X0185195Y0213404D01*
X0185163Y0213400D01*
X0184663Y0213335D01*
X0184637Y0213324D01*
X0184637Y0213324D01*
X0184193Y0213128D01*
X0184146Y0213108D01*
X0184125Y0213090D01*
X0184125Y0213090D01*
X0183992Y0212978D01*
X0183769Y0212888D01*
X0183535Y0212946D01*
X0183483Y0212985D01*
X0183448Y0213015D01*
X0183282Y0213163D01*
X0182771Y0213403D01*
X0182743Y0213407D01*
X0182743Y0213407D01*
X0182469Y0213450D01*
X0182213Y0213489D01*
X0182213Y0266316D01*
X0182489Y0266104D01*
X0183016Y0265885D01*
X0183582Y0265811D01*
X0183848Y0265846D01*
X0184123Y0265882D01*
X0184123Y0265882D01*
X0184148Y0265885D01*
X0184675Y0266104D01*
X0185128Y0266451D01*
X0185475Y0266904D01*
X0185694Y0267431D01*
X0185697Y0267457D01*
X0185697Y0267457D01*
X0185765Y0267972D01*
X0185768Y0267997D01*
X0185765Y0268022D01*
X0185697Y0268537D01*
X0185697Y0268537D01*
X0185694Y0268563D01*
X0185679Y0268597D01*
X0185567Y0268869D01*
X0185548Y0269109D01*
X0185674Y0269314D01*
X0185897Y0269406D01*
X0185927Y0269408D01*
X0185978Y0269408D01*
X0185978Y0265001D01*
X0185950Y0264997D01*
X0185950Y0264997D01*
X0185632Y0264956D01*
X0185418Y0264928D01*
X0185393Y0264917D01*
X0185393Y0264917D01*
X0185189Y0264827D01*
X0184902Y0264700D01*
X0184840Y0264649D01*
X0184491Y0264355D01*
X0184491Y0264355D01*
X0184469Y0264337D01*
X0184454Y0264314D01*
X0184454Y0264314D01*
X0184404Y0264239D01*
X0184157Y0263867D01*
X0184033Y0263471D01*
X0183997Y0263355D01*
X0183997Y0263355D01*
X0183988Y0263329D01*
X0183983Y0263046D01*
X0183979Y0262792D01*
X0183979Y0262792D01*
X0183978Y0262764D01*
X0183985Y0262738D01*
X0183985Y0262738D01*
X0184110Y0262281D01*
X0184126Y0262220D01*
X0184422Y0261739D01*
X0184454Y0261710D01*
X0184820Y0261379D01*
X0184840Y0261360D01*
X0185308Y0261133D01*
X0185323Y0261126D01*
X0185348Y0261114D01*
X0185446Y0261097D01*
X0185890Y0261023D01*
X0185890Y0261023D01*
X0185905Y0261020D01*
X0185953Y0261020D01*
X0186512Y0261100D01*
X0187026Y0261333D01*
X0187454Y0261702D01*
X0187761Y0262175D01*
X0187922Y0262716D01*
X0187924Y0263044D01*
X0187926Y0263253D01*
X0187926Y0263253D01*
X0187926Y0263281D01*
X0187918Y0263307D01*
X0187918Y0263307D01*
X0187778Y0263797D01*
X0187778Y0263797D01*
X0187771Y0263823D01*
X0187470Y0264301D01*
X0187449Y0264319D01*
X0187449Y0264319D01*
X0187067Y0264656D01*
X0187067Y0264656D01*
X0187046Y0264674D01*
X0186536Y0264914D01*
X0186508Y0264918D01*
X0186508Y0264918D01*
X0186266Y0264956D01*
X0185978Y0265001D01*
X0185978Y0269408D01*
X0189490Y0269408D01*
X0189719Y0269333D01*
X0189860Y0269138D01*
X0189879Y0269018D01*
X0189879Y0203168D01*
X0189805Y0202939D01*
G37*
X0091654Y0270197D02*
%LPD*%
G01*
D10*
X0118819Y0211929D03*
X0114095Y0211929D03*
X0123544Y0211929D03*
X0128268Y0211929D03*
D11*
X0117766Y0269606D03*
D12*
X0093947Y0269606D03*
D13*
X0129449Y0241998D03*
D14*
X0092245Y0240374D03*
D15*
X0101939Y0211142D03*
D10*
X0102835Y0268721D03*
X0098898Y0268721D03*
D10*
X0119032Y0215834D03*
X0113898Y0267441D03*
X0120197Y0237126D03*
X0110355Y0213110D03*
X0127284Y0239488D03*
X0094213Y0243425D03*
X0094213Y0256024D03*
X0127284Y0253662D03*
X0127284Y0222166D03*
X0127284Y0267047D03*
X0096969Y0213110D03*
X0118229Y0249725D03*
X0113280Y0235481D03*
X0094213Y0219016D03*
X0102481Y0257205D03*
X0094213Y0236339D03*
X0102087Y0243819D03*
X0106418Y0226103D03*
X0096969Y0223740D03*
X0113111Y0258780D03*
X0094213Y0267441D03*
X0097756Y0231221D03*
X0108386Y0249331D03*
G36*
X0129867Y0214058D02*
G01*
X0129672Y0213917D01*
X0129552Y0213898D01*
X0112126Y0213898D01*
X0112126Y0213898D01*
X0112126Y0211040D01*
X0112052Y0210810D01*
X0111857Y0210669D01*
X0111737Y0210650D01*
X0092144Y0210650D01*
X0091915Y0210724D01*
X0091773Y0210919D01*
X0091754Y0211040D01*
X0091754Y0269707D01*
X0091829Y0269936D01*
X0092024Y0270078D01*
X0092144Y0270097D01*
X0095752Y0270097D01*
X0095982Y0270022D01*
X0096123Y0269827D01*
X0096142Y0269707D01*
X0096142Y0269084D01*
X0096141Y0269060D01*
X0096140Y0269055D01*
X0096140Y0268386D01*
X0096140Y0268386D01*
X0096300Y0267735D01*
X0096612Y0267142D01*
X0097056Y0266641D01*
X0097607Y0266261D01*
X0098233Y0266023D01*
X0098898Y0265942D01*
X0099563Y0266023D01*
X0100189Y0266261D01*
X0100645Y0266575D01*
X0100876Y0266644D01*
X0101088Y0266575D01*
X0101544Y0266261D01*
X0102170Y0266023D01*
X0102835Y0265942D01*
X0103500Y0266023D01*
X0104126Y0266261D01*
X0104677Y0266641D01*
X0105121Y0267142D01*
X0105433Y0267735D01*
X0105433Y0267735D01*
X0105433Y0267735D01*
X0105593Y0268386D01*
X0105593Y0268386D01*
X0105593Y0269055D01*
X0105592Y0269060D01*
X0105591Y0269084D01*
X0105591Y0269707D01*
X0105665Y0269936D01*
X0105860Y0270078D01*
X0105981Y0270097D01*
X0129552Y0270097D01*
X0129781Y0270022D01*
X0129922Y0269827D01*
X0129941Y0269707D01*
X0129941Y0214288D01*
X0129867Y0214058D01*
G37*
X0117244Y0205433D02*
G01*
G75*
G36*
X0129646Y0170213D02*
X0129520Y0170845D01*
X0129041Y0171561D01*
X0128325Y0172040D01*
X0127480Y0172208D01*
X0126635Y0172040D01*
X0125919Y0171561D01*
X0125440Y0170845D01*
X0125272Y0170000D01*
X0122208Y0170000D01*
X0122040Y0170845D01*
X0121561Y0171561D01*
X0120845Y0172040D01*
X0120000Y0172208D01*
X0119155Y0172040D01*
X0118439Y0171561D01*
X0117960Y0170845D01*
X0117835Y0170213D01*
X0117244Y0170271D01*
X0117244Y0205433D01*
X0121466Y0205433D01*
X0121783Y0204940D01*
X0121549Y0204385D01*
X0121062Y0204482D01*
X0120371Y0204344D01*
X0119785Y0203953D01*
X0119393Y0203367D01*
X0119256Y0202676D01*
X0119393Y0201984D01*
X0119785Y0201398D01*
X0120371Y0201007D01*
X0121062Y0200869D01*
X0121753Y0201007D01*
X0122339Y0201398D01*
X0122620Y0201818D01*
X0122862Y0202020D01*
X0123368Y0202157D01*
X0123937Y0202044D01*
X0124782Y0202212D01*
X0125298Y0202557D01*
X0125709Y0202645D01*
X0126119Y0202557D01*
X0126635Y0202212D01*
X0127480Y0202044D01*
X0128325Y0202212D01*
X0129041Y0202691D01*
X0129520Y0203407D01*
X0129646Y0204039D01*
X0130236Y0203980D01*
X0130236Y0170271D01*
X0129646Y0170213D01*
D02*
G37*
%LPC*%
G36*
X0129296Y0179773D02*
X0129158Y0180464D01*
X0128767Y0181050D01*
X0128181Y0181442D01*
X0127490Y0181579D01*
X0126798Y0181442D01*
X0126212Y0181050D01*
X0125821Y0180464D01*
X0125683Y0179773D01*
X0125821Y0179082D01*
X0126212Y0178496D01*
X0126798Y0178104D01*
X0127490Y0177967D01*
X0128181Y0178104D01*
X0128767Y0178496D01*
X0129158Y0179082D01*
X0129296Y0179773D01*
D02*
G37*
G36*
X0127028Y0189060D02*
X0126891Y0189751D01*
X0126499Y0190337D01*
X0125913Y0190729D01*
X0125222Y0190866D01*
X0124531Y0190729D01*
X0123945Y0190337D01*
X0123553Y0189751D01*
X0123416Y0189060D01*
X0123553Y0188369D01*
X0123945Y0187783D01*
X0124531Y0187391D01*
X0125222Y0187254D01*
X0125913Y0187391D01*
X0126499Y0187783D01*
X0126891Y0188369D01*
X0127028Y0189060D01*
D02*
G37*
G36*
X0121905Y0194567D02*
X0121767Y0195258D01*
X0121376Y0195844D01*
X0120790Y0196236D01*
X0120098Y0196373D01*
X0119407Y0196236D01*
X0118821Y0195844D01*
X0118429Y0195258D01*
X0118292Y0194567D01*
X0118429Y0193876D01*
X0118821Y0193290D01*
X0119407Y0192898D01*
X0120098Y0192760D01*
X0120790Y0192898D01*
X0121376Y0193290D01*
X0121767Y0193876D01*
X0121905Y0194567D01*
D02*
G37*
%LPD*%
D17*
X0129842Y0187126D02*
D03*
X0117638Y0187126D02*
D03*
D16*
X0119705Y0205039D02*
D03*
D10*
X0123740Y0170000D02*
D03*
X0118529Y0204193D02*
D03*
X0123091Y0191491D02*
D03*
X0124147Y0194230D02*
D03*
M02*
