G75*
G70*
%OFA0B0*%
%FSLAX25Y25*%
%IPPOS*%
%LPD*%
%AMOC8*
5,1,8,0,0,1.08239X$1,22.5*
%
%AMM16*
21,1,0.031500,0.018900,0.000000,0.000000,0.000000*
21,1,0.022840,0.027560,0.000000,0.000000,0.000000*
1,1,0.008660,0.011420,-0.009450*
1,1,0.008660,-0.011420,-0.009450*
1,1,0.008660,-0.011420,0.009450*
1,1,0.008660,0.011420,0.009450*
%
%AMM17*
21,1,0.031500,0.030710,0.000000,0.000000,0.000000*
21,1,0.022050,0.040160,0.000000,0.000000,0.000000*
1,1,0.009450,0.011020,-0.015350*
1,1,0.009450,-0.011020,-0.015350*
1,1,0.009450,-0.011020,0.015350*
1,1,0.009450,0.011020,0.015350*
%
%AMM18*
21,1,0.031500,0.018900,0.000000,0.000000,90.000000*
21,1,0.022840,0.027560,0.000000,0.000000,90.000000*
1,1,0.008660,0.009450,0.011420*
1,1,0.008660,0.009450,-0.011420*
1,1,0.008660,-0.009450,-0.011420*
1,1,0.008660,-0.009450,0.011420*
%
%AMM19*
21,1,0.037400,0.026770,0.000000,0.000000,0.000000*
21,1,0.026770,0.037400,0.000000,0.000000,0.000000*
1,1,0.010630,0.013390,-0.013390*
1,1,0.010630,-0.013390,-0.013390*
1,1,0.010630,-0.013390,0.013390*
1,1,0.010630,0.013390,0.013390*
%
%AMM20*
21,1,0.031500,0.030710,0.000000,0.000000,90.000000*
21,1,0.022050,0.040160,0.000000,0.000000,90.000000*
1,1,0.009450,0.015350,0.011020*
1,1,0.009450,0.015350,-0.011020*
1,1,0.009450,-0.015350,-0.011020*
1,1,0.009450,-0.015350,0.011020*
%
%AMM21*
21,1,0.039370,0.030320,0.000000,0.000000,90.000000*
21,1,0.028350,0.041340,0.000000,0.000000,90.000000*
1,1,0.011020,0.015160,0.014170*
1,1,0.011020,0.015160,-0.014170*
1,1,0.011020,-0.015160,-0.014170*
1,1,0.011020,-0.015160,0.014170*
%
%AMM22*
21,1,0.047240,0.075980,0.000000,0.000000,0.000000*
21,1,0.034650,0.088580,0.000000,0.000000,0.000000*
1,1,0.012600,0.017320,-0.037990*
1,1,0.012600,-0.017320,-0.037990*
1,1,0.012600,-0.017320,0.037990*
1,1,0.012600,0.017320,0.037990*
%
%AMM23*
21,1,0.047240,0.075990,0.000000,0.000000,0.000000*
21,1,0.034650,0.088580,0.000000,0.000000,0.000000*
1,1,0.012600,0.017320,-0.037990*
1,1,0.012600,-0.017320,-0.037990*
1,1,0.012600,-0.017320,0.037990*
1,1,0.012600,0.017320,0.037990*
%
%AMM24*
21,1,0.141730,0.067720,0.000000,0.000000,0.000000*
21,1,0.120870,0.088580,0.000000,0.000000,0.000000*
1,1,0.020870,0.060430,-0.033860*
1,1,0.020870,-0.060430,-0.033860*
1,1,0.020870,-0.060430,0.033860*
1,1,0.020870,0.060430,0.033860*
%
%AMM25*
21,1,0.043310,0.035430,0.000000,0.000000,0.000000*
21,1,0.031500,0.047240,0.000000,0.000000,0.000000*
1,1,0.011810,0.015750,-0.017720*
1,1,0.011810,-0.015750,-0.017720*
1,1,0.011810,-0.015750,0.017720*
1,1,0.011810,0.015750,0.017720*
%
%AMM26*
21,1,0.027560,0.030710,0.000000,0.000000,180.000000*
21,1,0.018900,0.039370,0.000000,0.000000,180.000000*
1,1,0.008660,-0.009450,0.015350*
1,1,0.008660,0.009450,0.015350*
1,1,0.008660,0.009450,-0.015350*
1,1,0.008660,-0.009450,-0.015350*
%
%AMM27*
21,1,0.027560,0.030710,0.000000,0.000000,270.000000*
21,1,0.018900,0.039370,0.000000,0.000000,270.000000*
1,1,0.008660,-0.015350,-0.009450*
1,1,0.008660,-0.015350,0.009450*
1,1,0.008660,0.015350,0.009450*
1,1,0.008660,0.015350,-0.009450*
%
%AMM28*
21,1,0.090550,0.073230,0.000000,0.000000,180.000000*
21,1,0.069290,0.094490,0.000000,0.000000,180.000000*
1,1,0.021260,-0.034650,0.036610*
1,1,0.021260,0.034650,0.036610*
1,1,0.021260,0.034650,-0.036610*
1,1,0.021260,-0.034650,-0.036610*
%
%AMM29*
21,1,0.035430,0.072440,0.000000,0.000000,90.000000*
21,1,0.025200,0.082680,0.000000,0.000000,90.000000*
1,1,0.010240,0.036220,0.012600*
1,1,0.010240,0.036220,-0.012600*
1,1,0.010240,-0.036220,-0.012600*
1,1,0.010240,-0.036220,0.012600*
%
%AMM30*
21,1,0.043310,0.035430,0.000000,0.000000,270.000000*
21,1,0.031500,0.047240,0.000000,0.000000,270.000000*
1,1,0.011810,-0.017720,-0.015750*
1,1,0.011810,-0.017720,0.015750*
1,1,0.011810,0.017720,0.015750*
1,1,0.011810,0.017720,-0.015750*
%
%AMM87*
21,1,0.027170,0.052760,0.000000,-0.000000,180.000000*
21,1,0.017320,0.062600,0.000000,-0.000000,180.000000*
1,1,0.009840,-0.008660,0.026380*
1,1,0.009840,0.008660,0.026380*
1,1,0.009840,0.008660,-0.026380*
1,1,0.009840,-0.008660,-0.026380*
%
%ADD10C,0.02362*%
%ADD100R,0.01772X0.01870*%
%ADD101M30*%
%ADD102C,0.04724*%
%ADD103C,0.04294*%
%ADD104C,0.05906*%
%ADD140R,0.03543X0.03150*%
%ADD142C,0.05118*%
%ADD144R,0.03150X0.03543*%
%ADD173C,0.02913*%
%ADD18O,0.07874X0.07087*%
%ADD181R,0.08661X0.04724*%
%ADD182R,0.25197X0.22835*%
%ADD183R,0.07874X0.07500*%
%ADD184O,0.07874X0.07500*%
%ADD188R,0.01181X0.05512*%
%ADD210M87*%
%ADD71C,0.03100*%
%ADD76C,0.03900*%
%ADD78M16*%
%ADD79R,0.04724X0.04331*%
%ADD80M17*%
%ADD81M18*%
%ADD82O,0.05118X0.01378*%
%ADD83O,0.01378X0.05118*%
%ADD84M19*%
%ADD85M20*%
%ADD86O,0.09055X0.02756*%
%ADD87M21*%
%ADD88M22*%
%ADD89M23*%
%ADD90M24*%
%ADD91M25*%
%ADD92M26*%
%ADD93C,0.03494*%
%ADD94M27*%
%ADD95M28*%
%ADD96C,0.03543*%
%ADD97M29*%
%ADD98O,0.04724X0.01575*%
%ADD99R,0.01870X0.01772*%
X0000000Y0000000D02*
%LPD*%
G01*
D10*
X0188370Y0234931D03*
X0183646Y0234931D03*
X0193094Y0234931D03*
X0197819Y0234931D03*
X0172386Y0291722D03*
X0168449Y0291722D03*
X0154843Y0233874D03*
X0151102Y0233874D03*
X0147362Y0233874D03*
X0151299Y0268126D03*
X0154843Y0268126D03*
D18*
X0077000Y0325906D03*
X0077000Y0314094D03*
X0077000Y0302283D03*
X0077000Y0290472D03*
X0077000Y0278661D03*
X0077000Y0266850D03*
X0077000Y0255039D03*
X0077000Y0243228D03*
X0077000Y0211732D03*
X0077000Y0199921D03*
X0077000Y0188110D03*
X0077000Y0176299D03*
X0077000Y0164488D03*
X0077000Y0152677D03*
X0077000Y0140866D03*
X0077000Y0129055D03*
X0077000Y0117244D03*
X0077000Y0105433D03*
X0077000Y0093622D03*
X0077000Y0081811D03*
X0077000Y0070000D03*
X0094717Y0070000D03*
X0094717Y0081811D03*
X0094717Y0093622D03*
X0094717Y0105433D03*
X0094717Y0117244D03*
X0094717Y0129055D03*
X0094717Y0140866D03*
X0094717Y0152677D03*
X0094717Y0164488D03*
X0094717Y0176299D03*
X0094717Y0188110D03*
X0094717Y0199921D03*
X0094717Y0211732D03*
X0094717Y0243228D03*
X0094717Y0255039D03*
X0094717Y0266850D03*
X0094717Y0278661D03*
X0094717Y0290472D03*
X0094717Y0302283D03*
X0094717Y0314094D03*
X0094717Y0325906D03*
X0237646Y0110882D02*
G01*
G75*
D78*
X0288040Y0198677D02*
D03*
X0288040Y0194740D02*
D03*
X0242370Y0122299D02*
D03*
X0242370Y0118362D02*
D03*
X0389221Y0124662D02*
D03*
X0389221Y0120725D02*
D03*
X0379969Y0120765D02*
D03*
X0379969Y0124702D02*
D03*
X0384496Y0124702D02*
D03*
X0384496Y0120765D02*
D03*
X0291091Y0217969D02*
D03*
X0291091Y0221906D02*
D03*
X0344785Y0170921D02*
D03*
X0344785Y0174858D02*
D03*
X0292567Y0194740D02*
D03*
X0292567Y0198677D02*
D03*
X0340008Y0170921D02*
D03*
X0340008Y0174858D02*
D03*
X0335284Y0174858D02*
D03*
X0335284Y0170921D02*
D03*
X0330559Y0174858D02*
D03*
X0330559Y0170921D02*
D03*
X0314418Y0233382D02*
D03*
X0314418Y0237319D02*
D03*
X0348867Y0226039D02*
D03*
X0348867Y0222103D02*
D03*
X0353197Y0222103D02*
D03*
X0353197Y0226039D02*
D03*
X0285284Y0119937D02*
D03*
X0285284Y0116000D02*
D03*
X0299457Y0119937D02*
D03*
X0299457Y0116000D02*
D03*
X0393748Y0124662D02*
D03*
X0393748Y0120725D02*
D03*
X0241977Y0139032D02*
D03*
X0241977Y0135095D02*
D03*
X0247489Y0119937D02*
D03*
X0247489Y0123874D02*
D03*
X0252213Y0119937D02*
D03*
X0252213Y0123874D02*
D03*
X0256937Y0119937D02*
D03*
X0256937Y0123874D02*
D03*
X0261662Y0119937D02*
D03*
X0261662Y0123874D02*
D03*
X0247489Y0119937D02*
D03*
X0247489Y0116000D02*
D03*
X0252213Y0119937D02*
D03*
X0252213Y0116000D02*
D03*
X0256937Y0119937D02*
D03*
X0256937Y0116000D02*
D03*
X0261662Y0119937D02*
D03*
X0261662Y0116000D02*
D03*
X0266386Y0119937D02*
D03*
X0266386Y0123874D02*
D03*
X0271111Y0119937D02*
D03*
X0271111Y0123874D02*
D03*
X0275835Y0119937D02*
D03*
X0275835Y0123874D02*
D03*
X0280677Y0119937D02*
D03*
X0280677Y0123874D02*
D03*
X0266386Y0119937D02*
D03*
X0266386Y0116000D02*
D03*
X0271111Y0119937D02*
D03*
X0271111Y0116000D02*
D03*
X0275835Y0119937D02*
D03*
X0275835Y0116000D02*
D03*
X0280559Y0119937D02*
D03*
X0280559Y0116000D02*
D03*
X0285284Y0119937D02*
D03*
X0285284Y0123874D02*
D03*
X0290008Y0119937D02*
D03*
X0290008Y0123874D02*
D03*
X0294733Y0119937D02*
D03*
X0294733Y0123874D02*
D03*
X0299457Y0119937D02*
D03*
X0299457Y0123874D02*
D03*
X0290008Y0119937D02*
D03*
X0290008Y0116000D02*
D03*
X0294733Y0119937D02*
D03*
X0294733Y0116000D02*
D03*
X0242370Y0129976D02*
D03*
X0242370Y0126039D02*
D03*
X0278591Y0242772D02*
D03*
X0278591Y0246709D02*
D03*
D79*
X0281544Y0196512D02*
D03*
X0281544Y0203205D02*
D03*
D80*
X0360087Y0193559D02*
D03*
X0366386Y0193559D02*
D03*
D81*
X0307528Y0175843D02*
D03*
X0311465Y0175843D02*
D03*
X0309496Y0233717D02*
D03*
X0305559Y0233717D02*
D03*
X0355559Y0191197D02*
D03*
X0351622Y0191197D02*
D03*
X0355559Y0196315D02*
D03*
X0351622Y0196315D02*
D03*
X0272685Y0234110D02*
D03*
X0276622Y0234110D02*
D03*
D82*
X0298670Y0219150D02*
D03*
X0298670Y0217181D02*
D03*
X0298670Y0215213D02*
D03*
X0298670Y0213244D02*
D03*
X0298670Y0211276D02*
D03*
X0298670Y0209307D02*
D03*
X0298670Y0207339D02*
D03*
X0298670Y0205370D02*
D03*
X0298670Y0203402D02*
D03*
X0298670Y0201433D02*
D03*
X0298670Y0199465D02*
D03*
X0298670Y0197496D02*
D03*
X0298670Y0195528D02*
D03*
X0298670Y0193559D02*
D03*
X0298670Y0191591D02*
D03*
X0298670Y0189622D02*
D03*
X0343945Y0189622D02*
D03*
X0343945Y0191591D02*
D03*
X0343945Y0193559D02*
D03*
X0343945Y0195528D02*
D03*
X0343945Y0197496D02*
D03*
X0343945Y0199465D02*
D03*
X0343945Y0201433D02*
D03*
X0343945Y0203402D02*
D03*
X0343945Y0205370D02*
D03*
X0343945Y0207339D02*
D03*
X0343945Y0209307D02*
D03*
X0343945Y0211276D02*
D03*
X0343945Y0213244D02*
D03*
X0343945Y0215213D02*
D03*
X0343945Y0217181D02*
D03*
X0343945Y0219150D02*
D03*
D83*
X0306544Y0181748D02*
D03*
X0308512Y0181748D02*
D03*
X0310481Y0181748D02*
D03*
X0312449Y0181748D02*
D03*
X0314418Y0181748D02*
D03*
X0316386Y0181748D02*
D03*
X0318355Y0181748D02*
D03*
X0320323Y0181748D02*
D03*
X0322292Y0181748D02*
D03*
X0324260Y0181748D02*
D03*
X0326229Y0181748D02*
D03*
X0328197Y0181748D02*
D03*
X0330166Y0181748D02*
D03*
X0332134Y0181748D02*
D03*
X0334103Y0181748D02*
D03*
X0336071Y0181748D02*
D03*
X0336071Y0227024D02*
D03*
X0334103Y0227024D02*
D03*
X0332134Y0227024D02*
D03*
X0330166Y0227024D02*
D03*
X0328197Y0227024D02*
D03*
X0326229Y0227024D02*
D03*
X0324260Y0227024D02*
D03*
X0322292Y0227024D02*
D03*
X0320323Y0227024D02*
D03*
X0318355Y0227024D02*
D03*
X0316386Y0227024D02*
D03*
X0314418Y0227024D02*
D03*
X0312449Y0227024D02*
D03*
X0310481Y0227024D02*
D03*
X0308512Y0227024D02*
D03*
X0306544Y0227024D02*
D03*
D84*
X0359496Y0210488D02*
D03*
X0365717Y0210488D02*
D03*
D85*
X0324457Y0240016D02*
D03*
X0324457Y0233717D02*
D03*
D86*
X0263434Y0188815D02*
D03*
X0263434Y0193815D02*
D03*
X0263434Y0198815D02*
D03*
X0263434Y0203815D02*
D03*
X0244536Y0188815D02*
D03*
X0244536Y0193815D02*
D03*
X0244536Y0198815D02*
D03*
X0244536Y0203815D02*
D03*
X0244339Y0227439D02*
D03*
X0244339Y0222439D02*
D03*
X0244339Y0217439D02*
D03*
X0244339Y0212439D02*
D03*
X0263237Y0227439D02*
D03*
X0263237Y0222439D02*
D03*
X0263237Y0217439D02*
D03*
X0263237Y0212439D02*
D03*
D87*
X0398676Y0238394D02*
D03*
X0389424Y0242134D02*
D03*
D87*
X0398676Y0245874D02*
D03*
D88*
X0245126Y0236079D02*
D03*
X0263237Y0236079D02*
D03*
D89*
X0254181Y0236079D02*
D03*
D90*
X0254181Y0260488D02*
D03*
D91*
X0275441Y0226827D02*
D03*
X0282134Y0226827D02*
D03*
X0275441Y0218559D02*
D03*
X0282134Y0218559D02*
D03*
D92*
X0398077Y0263021D02*
D03*
X0394337Y0263021D02*
D03*
X0390596Y0263021D02*
D03*
X0390596Y0253572D02*
D03*
X0394337Y0253572D02*
D03*
X0398077Y0253572D02*
D03*
D93*
X0288394Y0263323D02*
D03*
X0288394Y0258323D02*
D03*
X0283394Y0263323D02*
D03*
X0283394Y0258323D02*
D03*
X0278394Y0263323D02*
D03*
X0278394Y0258323D02*
D03*
D94*
X0297095Y0136669D02*
D03*
X0297095Y0132929D02*
D03*
X0297095Y0129189D02*
D03*
X0287646Y0129189D02*
D03*
X0287646Y0132929D02*
D03*
X0287646Y0136669D02*
D03*
X0259300Y0136669D02*
D03*
X0259300Y0132929D02*
D03*
X0259300Y0129189D02*
D03*
X0249851Y0129189D02*
D03*
X0249851Y0132929D02*
D03*
X0249851Y0136669D02*
D03*
X0278197Y0136669D02*
D03*
X0278197Y0132929D02*
D03*
X0278197Y0129189D02*
D03*
X0268748Y0129189D02*
D03*
X0268748Y0132929D02*
D03*
X0268748Y0136669D02*
D03*
D95*
X0364615Y0122693D02*
D03*
X0346898Y0122693D02*
D03*
D96*
X0380048Y0116000D02*
D03*
X0242370Y0114032D02*
D03*
D97*
X0396307Y0232535D02*
D03*
X0396307Y0216000D02*
D03*
X0396307Y0193166D02*
D03*
X0396307Y0209701D02*
D03*
D98*
X0293355Y0148284D02*
D03*
X0293355Y0150843D02*
D03*
X0293355Y0153402D02*
D03*
X0293355Y0155961D02*
D03*
X0293355Y0158520D02*
D03*
X0293355Y0161079D02*
D03*
X0293355Y0163638D02*
D03*
X0270914Y0148284D02*
D03*
X0270914Y0150843D02*
D03*
X0270914Y0153402D02*
D03*
X0270914Y0155961D02*
D03*
X0270914Y0158520D02*
D03*
X0270914Y0161079D02*
D03*
X0270914Y0163638D02*
D03*
X0265402Y0148284D02*
D03*
X0265402Y0150843D02*
D03*
X0265402Y0153402D02*
D03*
X0265402Y0155961D02*
D03*
X0265402Y0158520D02*
D03*
X0265402Y0161079D02*
D03*
X0265402Y0163638D02*
D03*
X0242961Y0148284D02*
D03*
X0242961Y0150843D02*
D03*
X0242961Y0153402D02*
D03*
X0242961Y0155961D02*
D03*
X0242961Y0158520D02*
D03*
X0242961Y0161079D02*
D03*
X0242961Y0163638D02*
D03*
X0321307Y0148284D02*
D03*
X0321307Y0150843D02*
D03*
X0321307Y0153402D02*
D03*
X0321307Y0155961D02*
D03*
X0321307Y0158520D02*
D03*
X0321307Y0161079D02*
D03*
X0321307Y0163638D02*
D03*
X0298867Y0148284D02*
D03*
X0298867Y0150843D02*
D03*
X0298867Y0153402D02*
D03*
X0298867Y0155961D02*
D03*
X0298867Y0158520D02*
D03*
X0298867Y0161079D02*
D03*
X0298867Y0163638D02*
D03*
D99*
X0283463Y0243559D02*
D03*
X0283463Y0245528D02*
D03*
X0283463Y0247496D02*
D03*
X0289467Y0247496D02*
D03*
X0289467Y0245528D02*
D03*
X0289467Y0243559D02*
D03*
D100*
X0285481Y0248530D02*
D03*
X0287449Y0248530D02*
D03*
X0287449Y0242526D02*
D03*
X0285481Y0242526D02*
D03*
D101*
X0272587Y0241591D02*
D03*
X0272587Y0248284D02*
D03*
D102*
X0371504Y0146315D02*
D03*
X0391189Y0146315D02*
D03*
X0332134Y0134504D02*
D03*
X0351819Y0146315D02*
D03*
X0332134Y0146315D02*
D03*
X0391189Y0158126D02*
D03*
X0371504Y0158126D02*
D03*
X0351819Y0158126D02*
D03*
X0332134Y0158126D02*
D03*
X0351819Y0134504D02*
D03*
X0391189Y0134504D02*
D03*
X0371504Y0134504D02*
D03*
D103*
X0293394Y0260823D02*
D03*
X0273394Y0256823D02*
D03*
X0273394Y0264823D02*
D03*
D104*
X0241977Y0264425D02*
D03*
X0150933Y0205366D02*
%LPD*%
G01*
G36*
G01*
X0186642Y0137758D02*
X0186642Y0139116D01*
G75*
G02*
X0187222Y0139697I0000581J0000000D01*
G01*
X0188384Y0139697D01*
G75*
G02*
X0188964Y0139116I0000000J-000581D01*
G01*
X0188964Y0137758D01*
G75*
G02*
X0188384Y0137177I-000581J0000000D01*
G01*
X0187222Y0137177D01*
G75*
G02*
X0186642Y0137758I0000000J0000581D01*
G01*
G37*
G36*
G01*
X0190461Y0137758D02*
X0190461Y0139116D01*
G75*
G02*
X0191041Y0139697I0000581J0000000D01*
G01*
X0192203Y0139697D01*
G75*
G02*
X0192783Y0139116I0000000J-000581D01*
G01*
X0192783Y0137758D01*
G75*
G02*
X0192203Y0137177I-000581J0000000D01*
G01*
X0191041Y0137177D01*
G75*
G02*
X0190461Y0137758I0000000J0000581D01*
G01*
G37*
G36*
G01*
X0171218Y0196331D02*
X0172577Y0196331D01*
G75*
G02*
X0173157Y0195750I0000000J-000581D01*
G01*
X0173157Y0194588D01*
G75*
G02*
X0172577Y0194008I-000581J0000000D01*
G01*
X0171218Y0194008D01*
G75*
G02*
X0170638Y0194588I0000000J0000581D01*
G01*
X0170638Y0195750D01*
G75*
G02*
X0171218Y0196331I0000581J0000000D01*
G01*
G37*
G36*
G01*
X0171218Y0192512D02*
X0172577Y0192512D01*
G75*
G02*
X0173157Y0191931I0000000J-000581D01*
G01*
X0173157Y0190770D01*
G75*
G02*
X0172577Y0190189I-000581J0000000D01*
G01*
X0171218Y0190189D01*
G75*
G02*
X0170638Y0190770I0000000J0000581D01*
G01*
X0170638Y0191931D01*
G75*
G02*
X0171218Y0192512I0000581J0000000D01*
G01*
G37*
G36*
G01*
X0186415Y0185804D02*
X0186415Y0183786D01*
G75*
G02*
X0185554Y0182925I-000861J0000000D01*
G01*
X0183832Y0182925D01*
G75*
G02*
X0182970Y0183786I0000000J0000861D01*
G01*
X0182970Y0185804D01*
G75*
G02*
X0183832Y0186665I0000861J0000000D01*
G01*
X0185554Y0186665D01*
G75*
G02*
X0186415Y0185804I0000000J-000861D01*
G01*
G37*
G36*
G01*
X0180214Y0185804D02*
X0180214Y0183786D01*
G75*
G02*
X0179353Y0182925I-000861J0000000D01*
G01*
X0177631Y0182925D01*
G75*
G02*
X0176770Y0183786I0000000J0000861D01*
G01*
X0176770Y0185804D01*
G75*
G02*
X0177631Y0186665I0000861J0000000D01*
G01*
X0179353Y0186665D01*
G75*
G02*
X0180214Y0185804I0000000J-000861D01*
G01*
G37*
G36*
G01*
X0161386Y0139313D02*
X0161386Y0137955D01*
G75*
G02*
X0160805Y0137374I-000581J0000000D01*
G01*
X0159644Y0137374D01*
G75*
G02*
X0159063Y0137955I0000000J0000581D01*
G01*
X0159063Y0139313D01*
G75*
G02*
X0159644Y0139894I0000581J0000000D01*
G01*
X0160805Y0139894D01*
G75*
G02*
X0161386Y0139313I0000000J-000581D01*
G01*
G37*
G36*
G01*
X0157567Y0139313D02*
X0157567Y0137955D01*
G75*
G02*
X0156986Y0137374I-000581J0000000D01*
G01*
X0155825Y0137374D01*
G75*
G02*
X0155244Y0137955I0000000J0000581D01*
G01*
X0155244Y0139313D01*
G75*
G02*
X0155825Y0139894I0000581J0000000D01*
G01*
X0156986Y0139894D01*
G75*
G02*
X0157567Y0139313I0000000J-000581D01*
G01*
G37*
D144*
X0177213Y0190504D03*
X0184693Y0190504D03*
X0180953Y0198378D03*
G36*
G01*
X0161386Y0143496D02*
X0161386Y0142138D01*
G75*
G02*
X0160805Y0141557I-000581J0000000D01*
G01*
X0159644Y0141557D01*
G75*
G02*
X0159063Y0142138I0000000J0000581D01*
G01*
X0159063Y0143496D01*
G75*
G02*
X0159644Y0144077I0000581J0000000D01*
G01*
X0160805Y0144077D01*
G75*
G02*
X0161386Y0143496I0000000J-000581D01*
G01*
G37*
G36*
G01*
X0157567Y0143496D02*
X0157567Y0142138D01*
G75*
G02*
X0156986Y0141557I-000581J0000000D01*
G01*
X0155825Y0141557D01*
G75*
G02*
X0155244Y0142138I0000000J0000581D01*
G01*
X0155244Y0143496D01*
G75*
G02*
X0155825Y0144077I0000581J0000000D01*
G01*
X0156986Y0144077D01*
G75*
G02*
X0157567Y0143496I0000000J-000581D01*
G01*
G37*
G36*
G01*
X0185303Y0139116D02*
X0185303Y0137758D01*
G75*
G02*
X0184722Y0137177I-000581J0000000D01*
G01*
X0183561Y0137177D01*
G75*
G02*
X0182980Y0137758I0000000J0000581D01*
G01*
X0182980Y0139116D01*
G75*
G02*
X0183561Y0139697I0000581J0000000D01*
G01*
X0184722Y0139697D01*
G75*
G02*
X0185303Y0139116I0000000J-000581D01*
G01*
G37*
G36*
G01*
X0181484Y0139116D02*
X0181484Y0137758D01*
G75*
G02*
X0180903Y0137177I-000581J0000000D01*
G01*
X0179742Y0137177D01*
G75*
G02*
X0179161Y0137758I0000000J0000581D01*
G01*
X0179161Y0139116D01*
G75*
G02*
X0179742Y0139697I0000581J0000000D01*
G01*
X0180903Y0139697D01*
G75*
G02*
X0181484Y0139116I0000000J-000581D01*
G01*
G37*
G36*
G01*
X0197567Y0142876D02*
X0197567Y0144234D01*
G75*
G02*
X0198148Y0144815I0000581J0000000D01*
G01*
X0199309Y0144815D01*
G75*
G02*
X0199890Y0144234I0000000J-000581D01*
G01*
X0199890Y0142876D01*
G75*
G02*
X0199309Y0142295I-000581J0000000D01*
G01*
X0198148Y0142295D01*
G75*
G02*
X0197567Y0142876I0000000J0000581D01*
G01*
G37*
G36*
G01*
X0201386Y0142876D02*
X0201386Y0144234D01*
G75*
G02*
X0201966Y0144815I0000581J0000000D01*
G01*
X0203128Y0144815D01*
G75*
G02*
X0203709Y0144234I0000000J-000581D01*
G01*
X0203709Y0142876D01*
G75*
G02*
X0203128Y0142295I-000581J0000000D01*
G01*
X0201966Y0142295D01*
G75*
G02*
X0201386Y0142876I0000000J0000581D01*
G01*
G37*
G36*
G01*
X0170795Y0137758D02*
X0170795Y0139116D01*
G75*
G02*
X0171376Y0139697I0000581J0000000D01*
G01*
X0172537Y0139697D01*
G75*
G02*
X0173118Y0139116I0000000J-000581D01*
G01*
X0173118Y0137758D01*
G75*
G02*
X0172537Y0137177I-000581J0000000D01*
G01*
X0171376Y0137177D01*
G75*
G02*
X0170795Y0137758I0000000J0000581D01*
G01*
G37*
G36*
G01*
X0174614Y0137758D02*
X0174614Y0139116D01*
G75*
G02*
X0175195Y0139697I0000581J0000000D01*
G01*
X0176356Y0139697D01*
G75*
G02*
X0176937Y0139116I0000000J-000581D01*
G01*
X0176937Y0137758D01*
G75*
G02*
X0176356Y0137177I-000581J0000000D01*
G01*
X0175195Y0137177D01*
G75*
G02*
X0174614Y0137758I0000000J0000581D01*
G01*
G37*
G36*
G01*
X0197567Y0177522D02*
X0197567Y0178880D01*
G75*
G02*
X0198148Y0179460I0000581J0000000D01*
G01*
X0199309Y0179460D01*
G75*
G02*
X0199890Y0178880I0000000J-000581D01*
G01*
X0199890Y0177522D01*
G75*
G02*
X0199309Y0176941I-000581J0000000D01*
G01*
X0198148Y0176941D01*
G75*
G02*
X0197567Y0177522I0000000J0000581D01*
G01*
G37*
G36*
G01*
X0201386Y0177522D02*
X0201386Y0178880D01*
G75*
G02*
X0201966Y0179460I0000581J0000000D01*
G01*
X0203128Y0179460D01*
G75*
G02*
X0203709Y0178880I0000000J-000581D01*
G01*
X0203709Y0177522D01*
G75*
G02*
X0203128Y0176941I-000581J0000000D01*
G01*
X0201966Y0176941D01*
G75*
G02*
X0201386Y0177522I0000000J0000581D01*
G01*
G37*
D181*
X0190894Y0113083D03*
D142*
X0162547Y0114185D03*
X0174358Y0122059D03*
X0162547Y0129933D03*
D182*
X0166090Y0122059D03*
D181*
X0190894Y0131035D03*
G36*
G01*
X0171120Y0188555D02*
X0172478Y0188555D01*
G75*
G02*
X0173059Y0187974I0000000J-000581D01*
G01*
X0173059Y0186813D01*
G75*
G02*
X0172478Y0186232I-000581J0000000D01*
G01*
X0171120Y0186232D01*
G75*
G02*
X0170539Y0186813I0000000J0000581D01*
G01*
X0170539Y0187974D01*
G75*
G02*
X0171120Y0188555I0000581J0000000D01*
G01*
G37*
G36*
G01*
X0171120Y0184736D02*
X0172478Y0184736D01*
G75*
G02*
X0173059Y0184155I0000000J-000581D01*
G01*
X0173059Y0182994D01*
G75*
G02*
X0172478Y0182413I-000581J0000000D01*
G01*
X0171120Y0182413D01*
G75*
G02*
X0170539Y0182994I0000000J0000581D01*
G01*
X0170539Y0184155D01*
G75*
G02*
X0171120Y0184736I0000581J0000000D01*
G01*
G37*
G36*
G01*
X0157454Y0150051D02*
X0155436Y0150051D01*
G75*
G02*
X0154575Y0150912I0000000J0000861D01*
G01*
X0154575Y0152635D01*
G75*
G02*
X0155436Y0153496I0000861J0000000D01*
G01*
X0157454Y0153496D01*
G75*
G02*
X0158315Y0152635I0000000J-000861D01*
G01*
X0158315Y0150912D01*
G75*
G02*
X0157454Y0150051I-000861J0000000D01*
G01*
G37*
G36*
G01*
X0157454Y0156252D02*
X0155436Y0156252D01*
G75*
G02*
X0154575Y0157113I0000000J0000861D01*
G01*
X0154575Y0158835D01*
G75*
G02*
X0155436Y0159697I0000861J0000000D01*
G01*
X0157454Y0159697D01*
G75*
G02*
X0158315Y0158835I0000000J-000861D01*
G01*
X0158315Y0157113D01*
G75*
G02*
X0157454Y0156252I-000861J0000000D01*
G01*
G37*
G36*
G01*
X0161386Y0147679D02*
X0161386Y0146321D01*
G75*
G02*
X0160805Y0145740I-000581J0000000D01*
G01*
X0159644Y0145740D01*
G75*
G02*
X0159063Y0146321I0000000J0000581D01*
G01*
X0159063Y0147679D01*
G75*
G02*
X0159644Y0148260I0000581J0000000D01*
G01*
X0160805Y0148260D01*
G75*
G02*
X0161386Y0147679I0000000J-000581D01*
G01*
G37*
G36*
G01*
X0157567Y0147679D02*
X0157567Y0146321D01*
G75*
G02*
X0156986Y0145740I-000581J0000000D01*
G01*
X0155825Y0145740D01*
G75*
G02*
X0155244Y0146321I0000000J0000581D01*
G01*
X0155244Y0147679D01*
G75*
G02*
X0155825Y0148260I0000581J0000000D01*
G01*
X0156986Y0148260D01*
G75*
G02*
X0157567Y0147679I0000000J-000581D01*
G01*
G37*
G36*
G01*
X0156839Y0103570D02*
X0156839Y0105587D01*
G75*
G02*
X0157700Y0106449I0000861J0000000D01*
G01*
X0159422Y0106449D01*
G75*
G02*
X0160283Y0105587I0000000J-000861D01*
G01*
X0160283Y0103570D01*
G75*
G02*
X0159422Y0102709I-000861J0000000D01*
G01*
X0157700Y0102709D01*
G75*
G02*
X0156839Y0103570I0000000J0000861D01*
G01*
G37*
G36*
G01*
X0163039Y0103570D02*
X0163039Y0105587D01*
G75*
G02*
X0163901Y0106449I0000861J0000000D01*
G01*
X0165623Y0106449D01*
G75*
G02*
X0166484Y0105587I0000000J-000861D01*
G01*
X0166484Y0103570D01*
G75*
G02*
X0165623Y0102709I-000861J0000000D01*
G01*
X0163901Y0102709D01*
G75*
G02*
X0163039Y0103570I0000000J0000861D01*
G01*
G37*
G36*
G01*
X0155436Y0171409D02*
X0157454Y0171409D01*
G75*
G02*
X0158315Y0170548I0000000J-000861D01*
G01*
X0158315Y0168826D01*
G75*
G02*
X0157454Y0167964I-000861J0000000D01*
G01*
X0155436Y0167964D01*
G75*
G02*
X0154575Y0168826I0000000J0000861D01*
G01*
X0154575Y0170548D01*
G75*
G02*
X0155436Y0171409I0000861J0000000D01*
G01*
G37*
G36*
G01*
X0155436Y0165209D02*
X0157454Y0165209D01*
G75*
G02*
X0158315Y0164347I0000000J-000861D01*
G01*
X0158315Y0162625D01*
G75*
G02*
X0157454Y0161764I-000861J0000000D01*
G01*
X0155436Y0161764D01*
G75*
G02*
X0154575Y0162625I0000000J0000861D01*
G01*
X0154575Y0164347D01*
G75*
G02*
X0155436Y0165209I0000861J0000000D01*
G01*
G37*
G36*
G01*
X0159614Y0175730D02*
X0159614Y0174372D01*
G75*
G02*
X0159033Y0173791I-000581J0000000D01*
G01*
X0157872Y0173791D01*
G75*
G02*
X0157291Y0174372I0000000J0000581D01*
G01*
X0157291Y0175730D01*
G75*
G02*
X0157872Y0176311I0000581J0000000D01*
G01*
X0159033Y0176311D01*
G75*
G02*
X0159614Y0175730I0000000J-000581D01*
G01*
G37*
G36*
G01*
X0155795Y0175730D02*
X0155795Y0174372D01*
G75*
G02*
X0155214Y0173791I-000581J0000000D01*
G01*
X0154053Y0173791D01*
G75*
G02*
X0153472Y0174372I0000000J0000581D01*
G01*
X0153472Y0175730D01*
G75*
G02*
X0154053Y0176311I0000581J0000000D01*
G01*
X0155214Y0176311D01*
G75*
G02*
X0155795Y0175730I0000000J-000581D01*
G01*
G37*
G36*
G01*
X0172291Y0141291D02*
X0171307Y0141291D01*
G75*
G02*
X0170815Y0141783I0000000J0000492D01*
G01*
X0170815Y0146705D01*
G75*
G02*
X0171307Y0147197I0000492J0000000D01*
G01*
X0172291Y0147197D01*
G75*
G02*
X0172783Y0146705I0000000J-000492D01*
G01*
X0172783Y0141783D01*
G75*
G02*
X0172291Y0141291I-000492J0000000D01*
G01*
G37*
G36*
G01*
X0175441Y0141291D02*
X0174457Y0141291D01*
G75*
G02*
X0173964Y0141783I0000000J0000492D01*
G01*
X0173964Y0146705D01*
G75*
G02*
X0174457Y0147197I0000492J0000000D01*
G01*
X0175441Y0147197D01*
G75*
G02*
X0175933Y0146705I0000000J-000492D01*
G01*
X0175933Y0141783D01*
G75*
G02*
X0175441Y0141291I-000492J0000000D01*
G01*
G37*
G36*
G01*
X0178590Y0141291D02*
X0177606Y0141291D01*
G75*
G02*
X0177114Y0141783I0000000J0000492D01*
G01*
X0177114Y0146705D01*
G75*
G02*
X0177606Y0147197I0000492J0000000D01*
G01*
X0178590Y0147197D01*
G75*
G02*
X0179083Y0146705I0000000J-000492D01*
G01*
X0179083Y0141783D01*
G75*
G02*
X0178590Y0141291I-000492J0000000D01*
G01*
G37*
G36*
G01*
X0181740Y0141291D02*
X0180756Y0141291D01*
G75*
G02*
X0180264Y0141783I0000000J0000492D01*
G01*
X0180264Y0146705D01*
G75*
G02*
X0180756Y0147197I0000492J0000000D01*
G01*
X0181740Y0147197D01*
G75*
G02*
X0182232Y0146705I0000000J-000492D01*
G01*
X0182232Y0141783D01*
G75*
G02*
X0181740Y0141291I-000492J0000000D01*
G01*
G37*
G36*
G01*
X0184890Y0141291D02*
X0183905Y0141291D01*
G75*
G02*
X0183413Y0141783I0000000J0000492D01*
G01*
X0183413Y0146705D01*
G75*
G02*
X0183905Y0147197I0000492J0000000D01*
G01*
X0184890Y0147197D01*
G75*
G02*
X0185382Y0146705I0000000J-000492D01*
G01*
X0185382Y0141783D01*
G75*
G02*
X0184890Y0141291I-000492J0000000D01*
G01*
G37*
G36*
G01*
X0188039Y0141291D02*
X0187055Y0141291D01*
G75*
G02*
X0186563Y0141783I0000000J0000492D01*
G01*
X0186563Y0146705D01*
G75*
G02*
X0187055Y0147197I0000492J0000000D01*
G01*
X0188039Y0147197D01*
G75*
G02*
X0188531Y0146705I0000000J-000492D01*
G01*
X0188531Y0141783D01*
G75*
G02*
X0188039Y0141291I-000492J0000000D01*
G01*
G37*
G36*
G01*
X0191189Y0141291D02*
X0190205Y0141291D01*
G75*
G02*
X0189713Y0141783I0000000J0000492D01*
G01*
X0189713Y0146705D01*
G75*
G02*
X0190205Y0147197I0000492J0000000D01*
G01*
X0191189Y0147197D01*
G75*
G02*
X0191681Y0146705I0000000J-000492D01*
G01*
X0191681Y0141783D01*
G75*
G02*
X0191189Y0141291I-000492J0000000D01*
G01*
G37*
G36*
G01*
X0194339Y0141291D02*
X0193354Y0141291D01*
G75*
G02*
X0192862Y0141783I0000000J0000492D01*
G01*
X0192862Y0146705D01*
G75*
G02*
X0193354Y0147197I0000492J0000000D01*
G01*
X0194339Y0147197D01*
G75*
G02*
X0194831Y0146705I0000000J-000492D01*
G01*
X0194831Y0141783D01*
G75*
G02*
X0194339Y0141291I-000492J0000000D01*
G01*
G37*
G36*
G01*
X0201720Y0148673D02*
X0196799Y0148673D01*
G75*
G02*
X0196307Y0149165I0000000J0000492D01*
G01*
X0196307Y0150149D01*
G75*
G02*
X0196799Y0150642I0000492J0000000D01*
G01*
X0201720Y0150642D01*
G75*
G02*
X0202213Y0150149I0000000J-000492D01*
G01*
X0202213Y0149165D01*
G75*
G02*
X0201720Y0148673I-000492J0000000D01*
G01*
G37*
G36*
G01*
X0201720Y0151823D02*
X0196799Y0151823D01*
G75*
G02*
X0196307Y0152315I0000000J0000492D01*
G01*
X0196307Y0153299D01*
G75*
G02*
X0196799Y0153791I0000492J0000000D01*
G01*
X0201720Y0153791D01*
G75*
G02*
X0202213Y0153299I0000000J-000492D01*
G01*
X0202213Y0152315D01*
G75*
G02*
X0201720Y0151823I-000492J0000000D01*
G01*
G37*
G36*
G01*
X0201720Y0154972D02*
X0196799Y0154972D01*
G75*
G02*
X0196307Y0155464I0000000J0000492D01*
G01*
X0196307Y0156449D01*
G75*
G02*
X0196799Y0156941I0000492J0000000D01*
G01*
X0201720Y0156941D01*
G75*
G02*
X0202213Y0156449I0000000J-000492D01*
G01*
X0202213Y0155464D01*
G75*
G02*
X0201720Y0154972I-000492J0000000D01*
G01*
G37*
G36*
G01*
X0201720Y0158122D02*
X0196799Y0158122D01*
G75*
G02*
X0196307Y0158614I0000000J0000492D01*
G01*
X0196307Y0159598D01*
G75*
G02*
X0196799Y0160090I0000492J0000000D01*
G01*
X0201720Y0160090D01*
G75*
G02*
X0202213Y0159598I0000000J-000492D01*
G01*
X0202213Y0158614D01*
G75*
G02*
X0201720Y0158122I-000492J0000000D01*
G01*
G37*
G36*
G01*
X0201720Y0161272D02*
X0196799Y0161272D01*
G75*
G02*
X0196307Y0161764I0000000J0000492D01*
G01*
X0196307Y0162748D01*
G75*
G02*
X0196799Y0163240I0000492J0000000D01*
G01*
X0201720Y0163240D01*
G75*
G02*
X0202213Y0162748I0000000J-000492D01*
G01*
X0202213Y0161764D01*
G75*
G02*
X0201720Y0161272I-000492J0000000D01*
G01*
G37*
G36*
G01*
X0201720Y0164421D02*
X0196799Y0164421D01*
G75*
G02*
X0196307Y0164913I0000000J0000492D01*
G01*
X0196307Y0165897D01*
G75*
G02*
X0196799Y0166390I0000492J0000000D01*
G01*
X0201720Y0166390D01*
G75*
G02*
X0202213Y0165897I0000000J-000492D01*
G01*
X0202213Y0164913D01*
G75*
G02*
X0201720Y0164421I-000492J0000000D01*
G01*
G37*
G36*
G01*
X0201720Y0167571D02*
X0196799Y0167571D01*
G75*
G02*
X0196307Y0168063I0000000J0000492D01*
G01*
X0196307Y0169047D01*
G75*
G02*
X0196799Y0169539I0000492J0000000D01*
G01*
X0201720Y0169539D01*
G75*
G02*
X0202213Y0169047I0000000J-000492D01*
G01*
X0202213Y0168063D01*
G75*
G02*
X0201720Y0167571I-000492J0000000D01*
G01*
G37*
G36*
G01*
X0201720Y0170720D02*
X0196799Y0170720D01*
G75*
G02*
X0196307Y0171212I0000000J0000492D01*
G01*
X0196307Y0172197D01*
G75*
G02*
X0196799Y0172689I0000492J0000000D01*
G01*
X0201720Y0172689D01*
G75*
G02*
X0202213Y0172197I0000000J-000492D01*
G01*
X0202213Y0171212D01*
G75*
G02*
X0201720Y0170720I-000492J0000000D01*
G01*
G37*
G36*
G01*
X0194339Y0174165D02*
X0193354Y0174165D01*
G75*
G02*
X0192862Y0174657I0000000J0000492D01*
G01*
X0192862Y0179579D01*
G75*
G02*
X0193354Y0180071I0000492J0000000D01*
G01*
X0194339Y0180071D01*
G75*
G02*
X0194831Y0179579I0000000J-000492D01*
G01*
X0194831Y0174657D01*
G75*
G02*
X0194339Y0174165I-000492J0000000D01*
G01*
G37*
G36*
G01*
X0191189Y0174165D02*
X0190205Y0174165D01*
G75*
G02*
X0189713Y0174657I0000000J0000492D01*
G01*
X0189713Y0179579D01*
G75*
G02*
X0190205Y0180071I0000492J0000000D01*
G01*
X0191189Y0180071D01*
G75*
G02*
X0191681Y0179579I0000000J-000492D01*
G01*
X0191681Y0174657D01*
G75*
G02*
X0191189Y0174165I-000492J0000000D01*
G01*
G37*
G36*
G01*
X0188039Y0174165D02*
X0187055Y0174165D01*
G75*
G02*
X0186563Y0174657I0000000J0000492D01*
G01*
X0186563Y0179579D01*
G75*
G02*
X0187055Y0180071I0000492J0000000D01*
G01*
X0188039Y0180071D01*
G75*
G02*
X0188531Y0179579I0000000J-000492D01*
G01*
X0188531Y0174657D01*
G75*
G02*
X0188039Y0174165I-000492J0000000D01*
G01*
G37*
G36*
G01*
X0184890Y0174165D02*
X0183905Y0174165D01*
G75*
G02*
X0183413Y0174657I0000000J0000492D01*
G01*
X0183413Y0179579D01*
G75*
G02*
X0183905Y0180071I0000492J0000000D01*
G01*
X0184890Y0180071D01*
G75*
G02*
X0185382Y0179579I0000000J-000492D01*
G01*
X0185382Y0174657D01*
G75*
G02*
X0184890Y0174165I-000492J0000000D01*
G01*
G37*
G36*
G01*
X0181740Y0174165D02*
X0180756Y0174165D01*
G75*
G02*
X0180264Y0174657I0000000J0000492D01*
G01*
X0180264Y0179579D01*
G75*
G02*
X0180756Y0180071I0000492J0000000D01*
G01*
X0181740Y0180071D01*
G75*
G02*
X0182232Y0179579I0000000J-000492D01*
G01*
X0182232Y0174657D01*
G75*
G02*
X0181740Y0174165I-000492J0000000D01*
G01*
G37*
G36*
G01*
X0178590Y0174165D02*
X0177606Y0174165D01*
G75*
G02*
X0177114Y0174657I0000000J0000492D01*
G01*
X0177114Y0179579D01*
G75*
G02*
X0177606Y0180071I0000492J0000000D01*
G01*
X0178590Y0180071D01*
G75*
G02*
X0179083Y0179579I0000000J-000492D01*
G01*
X0179083Y0174657D01*
G75*
G02*
X0178590Y0174165I-000492J0000000D01*
G01*
G37*
G36*
G01*
X0175441Y0174165D02*
X0174457Y0174165D01*
G75*
G02*
X0173964Y0174657I0000000J0000492D01*
G01*
X0173964Y0179579D01*
G75*
G02*
X0174457Y0180071I0000492J0000000D01*
G01*
X0175441Y0180071D01*
G75*
G02*
X0175933Y0179579I0000000J-000492D01*
G01*
X0175933Y0174657D01*
G75*
G02*
X0175441Y0174165I-000492J0000000D01*
G01*
G37*
G36*
G01*
X0172291Y0174165D02*
X0171307Y0174165D01*
G75*
G02*
X0170815Y0174657I0000000J0000492D01*
G01*
X0170815Y0179579D01*
G75*
G02*
X0171307Y0180071I0000492J0000000D01*
G01*
X0172291Y0180071D01*
G75*
G02*
X0172783Y0179579I0000000J-000492D01*
G01*
X0172783Y0174657D01*
G75*
G02*
X0172291Y0174165I-000492J0000000D01*
G01*
G37*
G36*
G01*
X0168846Y0170720D02*
X0163925Y0170720D01*
G75*
G02*
X0163433Y0171212I0000000J0000492D01*
G01*
X0163433Y0172197D01*
G75*
G02*
X0163925Y0172689I0000492J0000000D01*
G01*
X0168846Y0172689D01*
G75*
G02*
X0169339Y0172197I0000000J-000492D01*
G01*
X0169339Y0171212D01*
G75*
G02*
X0168846Y0170720I-000492J0000000D01*
G01*
G37*
G36*
G01*
X0168846Y0167571D02*
X0163925Y0167571D01*
G75*
G02*
X0163433Y0168063I0000000J0000492D01*
G01*
X0163433Y0169047D01*
G75*
G02*
X0163925Y0169539I0000492J0000000D01*
G01*
X0168846Y0169539D01*
G75*
G02*
X0169339Y0169047I0000000J-000492D01*
G01*
X0169339Y0168063D01*
G75*
G02*
X0168846Y0167571I-000492J0000000D01*
G01*
G37*
G36*
G01*
X0168846Y0164421D02*
X0163925Y0164421D01*
G75*
G02*
X0163433Y0164913I0000000J0000492D01*
G01*
X0163433Y0165897D01*
G75*
G02*
X0163925Y0166390I0000492J0000000D01*
G01*
X0168846Y0166390D01*
G75*
G02*
X0169339Y0165897I0000000J-000492D01*
G01*
X0169339Y0164913D01*
G75*
G02*
X0168846Y0164421I-000492J0000000D01*
G01*
G37*
G36*
G01*
X0168846Y0161272D02*
X0163925Y0161272D01*
G75*
G02*
X0163433Y0161764I0000000J0000492D01*
G01*
X0163433Y0162748D01*
G75*
G02*
X0163925Y0163240I0000492J0000000D01*
G01*
X0168846Y0163240D01*
G75*
G02*
X0169339Y0162748I0000000J-000492D01*
G01*
X0169339Y0161764D01*
G75*
G02*
X0168846Y0161272I-000492J0000000D01*
G01*
G37*
G36*
G01*
X0168846Y0158122D02*
X0163925Y0158122D01*
G75*
G02*
X0163433Y0158614I0000000J0000492D01*
G01*
X0163433Y0159598D01*
G75*
G02*
X0163925Y0160090I0000492J0000000D01*
G01*
X0168846Y0160090D01*
G75*
G02*
X0169339Y0159598I0000000J-000492D01*
G01*
X0169339Y0158614D01*
G75*
G02*
X0168846Y0158122I-000492J0000000D01*
G01*
G37*
G36*
G01*
X0168846Y0154972D02*
X0163925Y0154972D01*
G75*
G02*
X0163433Y0155464I0000000J0000492D01*
G01*
X0163433Y0156449D01*
G75*
G02*
X0163925Y0156941I0000492J0000000D01*
G01*
X0168846Y0156941D01*
G75*
G02*
X0169339Y0156449I0000000J-000492D01*
G01*
X0169339Y0155464D01*
G75*
G02*
X0168846Y0154972I-000492J0000000D01*
G01*
G37*
G36*
G01*
X0168846Y0151823D02*
X0163925Y0151823D01*
G75*
G02*
X0163433Y0152315I0000000J0000492D01*
G01*
X0163433Y0153299D01*
G75*
G02*
X0163925Y0153791I0000492J0000000D01*
G01*
X0168846Y0153791D01*
G75*
G02*
X0169339Y0153299I0000000J-000492D01*
G01*
X0169339Y0152315D01*
G75*
G02*
X0168846Y0151823I-000492J0000000D01*
G01*
G37*
G36*
G01*
X0168846Y0148673D02*
X0163925Y0148673D01*
G75*
G02*
X0163433Y0149165I0000000J0000492D01*
G01*
X0163433Y0150149D01*
G75*
G02*
X0163925Y0150642I0000492J0000000D01*
G01*
X0168846Y0150642D01*
G75*
G02*
X0169339Y0150149I0000000J-000492D01*
G01*
X0169339Y0149165D01*
G75*
G02*
X0168846Y0148673I-000492J0000000D01*
G01*
G37*
G36*
G01*
X0190392Y0183299D02*
X0189033Y0183299D01*
G75*
G02*
X0188453Y0183880I0000000J0000581D01*
G01*
X0188453Y0185041D01*
G75*
G02*
X0189033Y0185622I0000581J0000000D01*
G01*
X0190392Y0185622D01*
G75*
G02*
X0190972Y0185041I0000000J-000581D01*
G01*
X0190972Y0183880D01*
G75*
G02*
X0190392Y0183299I-000581J0000000D01*
G01*
G37*
G36*
G01*
X0190392Y0187118D02*
X0189033Y0187118D01*
G75*
G02*
X0188453Y0187699I0000000J0000581D01*
G01*
X0188453Y0188860D01*
G75*
G02*
X0189033Y0189441I0000581J0000000D01*
G01*
X0190392Y0189441D01*
G75*
G02*
X0190972Y0188860I0000000J-000581D01*
G01*
X0190972Y0187699D01*
G75*
G02*
X0190392Y0187118I-000581J0000000D01*
G01*
G37*
G36*
G01*
X0166996Y0176222D02*
X0166996Y0174864D01*
G75*
G02*
X0166415Y0174283I-000581J0000000D01*
G01*
X0165254Y0174283D01*
G75*
G02*
X0164673Y0174864I0000000J0000581D01*
G01*
X0164673Y0176222D01*
G75*
G02*
X0165254Y0176803I0000581J0000000D01*
G01*
X0166415Y0176803D01*
G75*
G02*
X0166996Y0176222I0000000J-000581D01*
G01*
G37*
G36*
G01*
X0163177Y0176222D02*
X0163177Y0174864D01*
G75*
G02*
X0162596Y0174283I-000581J0000000D01*
G01*
X0161435Y0174283D01*
G75*
G02*
X0160854Y0174864I0000000J0000581D01*
G01*
X0160854Y0176222D01*
G75*
G02*
X0161435Y0176803I0000581J0000000D01*
G01*
X0162596Y0176803D01*
G75*
G02*
X0163177Y0176222I0000000J-000581D01*
G01*
G37*
G36*
G01*
X0189033Y0199866D02*
X0190392Y0199866D01*
G75*
G02*
X0190972Y0199285I0000000J-000581D01*
G01*
X0190972Y0198124D01*
G75*
G02*
X0190392Y0197543I-000581J0000000D01*
G01*
X0189033Y0197543D01*
G75*
G02*
X0188453Y0198124I0000000J0000581D01*
G01*
X0188453Y0199285D01*
G75*
G02*
X0189033Y0199866I0000581J0000000D01*
G01*
G37*
G36*
G01*
X0189033Y0196047D02*
X0190392Y0196047D01*
G75*
G02*
X0190972Y0195466I0000000J-000581D01*
G01*
X0190972Y0194305D01*
G75*
G02*
X0190392Y0193724I-000581J0000000D01*
G01*
X0189033Y0193724D01*
G75*
G02*
X0188453Y0194305I0000000J0000581D01*
G01*
X0188453Y0195466D01*
G75*
G02*
X0189033Y0196047I0000581J0000000D01*
G01*
G37*
D140*
X0194634Y0198378D03*
X0194634Y0190897D03*
X0202508Y0194638D03*
G36*
G01*
X0168866Y0139313D02*
X0168866Y0137955D01*
G75*
G02*
X0168285Y0137374I-000581J0000000D01*
G01*
X0167124Y0137374D01*
G75*
G02*
X0166543Y0137955I0000000J0000581D01*
G01*
X0166543Y0139313D01*
G75*
G02*
X0167124Y0139894I0000581J0000000D01*
G01*
X0168285Y0139894D01*
G75*
G02*
X0168866Y0139313I0000000J-000581D01*
G01*
G37*
G36*
G01*
X0165047Y0139313D02*
X0165047Y0137955D01*
G75*
G02*
X0164466Y0137374I-000581J0000000D01*
G01*
X0163305Y0137374D01*
G75*
G02*
X0162724Y0137955I0000000J0000581D01*
G01*
X0162724Y0139313D01*
G75*
G02*
X0163305Y0139894I0000581J0000000D01*
G01*
X0164466Y0139894D01*
G75*
G02*
X0165047Y0139313I0000000J-000581D01*
G01*
G37*
G36*
G01*
X0203905Y0185440D02*
X0203905Y0183422D01*
G75*
G02*
X0203044Y0182561I-000861J0000000D01*
G01*
X0201322Y0182561D01*
G75*
G02*
X0200461Y0183422I0000000J0000861D01*
G01*
X0200461Y0185440D01*
G75*
G02*
X0201322Y0186301I0000861J0000000D01*
G01*
X0203044Y0186301D01*
G75*
G02*
X0203905Y0185440I0000000J-000861D01*
G01*
G37*
G36*
G01*
X0197705Y0185440D02*
X0197705Y0183422D01*
G75*
G02*
X0196843Y0182561I-000861J0000000D01*
G01*
X0195121Y0182561D01*
G75*
G02*
X0194260Y0183422I0000000J0000861D01*
G01*
X0194260Y0185440D01*
G75*
G02*
X0195121Y0186301I0000861J0000000D01*
G01*
X0196843Y0186301D01*
G75*
G02*
X0197705Y0185440I0000000J-000861D01*
G01*
G37*
D76*
X0161760Y0201193D03*
X0157760Y0181193D03*
X0165760Y0181193D03*
D71*
X0159260Y0196193D03*
X0164260Y0196193D03*
X0159260Y0191193D03*
X0164260Y0191193D03*
X0159260Y0186193D03*
X0164260Y0186193D03*
D183*
X0200638Y0111705D03*
D184*
X0200638Y0121705D03*
X0200638Y0131705D03*
X0161205Y0293199D02*
%LPD*%
G01*
D10*
X0188370Y0234931D03*
X0183646Y0234931D03*
X0193095Y0234931D03*
X0197819Y0234931D03*
X0172386Y0291723D03*
X0168449Y0291723D03*
D188*
X0174197Y0259341D03*
X0172229Y0259341D03*
X0170260Y0259341D03*
X0168292Y0259341D03*
X0166323Y0259341D03*
X0166323Y0242018D03*
X0168292Y0242018D03*
X0170260Y0242018D03*
X0172229Y0242018D03*
X0174197Y0242018D03*
G36*
G01*
X0187386Y0251821D02*
X0187386Y0248750D01*
G75*
G02*
X0187111Y0248475I-000276J0000000D01*
G01*
X0184906Y0248475D01*
G75*
G02*
X0184630Y0248750I0000000J0000276D01*
G01*
X0184630Y0251821D01*
G75*
G02*
X0184906Y0252097I0000276J0000000D01*
G01*
X0187111Y0252097D01*
G75*
G02*
X0187386Y0251821I0000000J-000276D01*
G01*
G37*
G36*
G01*
X0181087Y0251821D02*
X0181087Y0248750D01*
G75*
G02*
X0180811Y0248475I-000276J0000000D01*
G01*
X0178607Y0248475D01*
G75*
G02*
X0178331Y0248750I0000000J0000276D01*
G01*
X0178331Y0251821D01*
G75*
G02*
X0178607Y0252097I0000276J0000000D01*
G01*
X0180811Y0252097D01*
G75*
G02*
X0181087Y0251821I0000000J-000276D01*
G01*
G37*
G36*
G01*
X0194040Y0237490D02*
X0190969Y0237490D01*
G75*
G02*
X0190693Y0237766I0000000J0000276D01*
G01*
X0190693Y0239971D01*
G75*
G02*
X0190969Y0240246I0000276J0000000D01*
G01*
X0194040Y0240246D01*
G75*
G02*
X0194315Y0239971I0000000J-000276D01*
G01*
X0194315Y0237766D01*
G75*
G02*
X0194040Y0237490I-000276J0000000D01*
G01*
G37*
G36*
G01*
X0194040Y0243790D02*
X0190969Y0243790D01*
G75*
G02*
X0190693Y0244065I0000000J0000276D01*
G01*
X0190693Y0246270D01*
G75*
G02*
X0190969Y0246545I0000276J0000000D01*
G01*
X0194040Y0246545D01*
G75*
G02*
X0194315Y0246270I0000000J-000276D01*
G01*
X0194315Y0244065D01*
G75*
G02*
X0194040Y0243790I-000276J0000000D01*
G01*
G37*
G36*
G01*
X0187386Y0257727D02*
X0187386Y0254656D01*
G75*
G02*
X0187111Y0254380I-000276J0000000D01*
G01*
X0184906Y0254380D01*
G75*
G02*
X0184630Y0254656I0000000J0000276D01*
G01*
X0184630Y0257727D01*
G75*
G02*
X0184906Y0258002I0000276J0000000D01*
G01*
X0187111Y0258002D01*
G75*
G02*
X0187386Y0257727I0000000J-000276D01*
G01*
G37*
G36*
G01*
X0181087Y0257727D02*
X0181087Y0254656D01*
G75*
G02*
X0180811Y0254380I-000276J0000000D01*
G01*
X0178607Y0254380D01*
G75*
G02*
X0178331Y0254656I0000000J0000276D01*
G01*
X0178331Y0257727D01*
G75*
G02*
X0178607Y0258002I0000276J0000000D01*
G01*
X0180811Y0258002D01*
G75*
G02*
X0181087Y0257727I0000000J-000276D01*
G01*
G37*
G36*
G01*
X0191126Y0268376D02*
X0191126Y0265660D01*
G75*
G02*
X0190221Y0264754I-000906J0000000D01*
G01*
X0184945Y0264754D01*
G75*
G02*
X0184040Y0265660I0000000J0000906D01*
G01*
X0184040Y0268376D01*
G75*
G02*
X0184945Y0269282I0000906J0000000D01*
G01*
X0190221Y0269282D01*
G75*
G02*
X0191126Y0268376I0000000J-000906D01*
G01*
G37*
G36*
G01*
X0191126Y0279794D02*
X0191126Y0277077D01*
G75*
G02*
X0190221Y0276171I-000906J0000000D01*
G01*
X0184945Y0276171D01*
G75*
G02*
X0184040Y0277077I0000000J0000906D01*
G01*
X0184040Y0279794D01*
G75*
G02*
X0184945Y0280699I0000906J0000000D01*
G01*
X0190221Y0280699D01*
G75*
G02*
X0191126Y0279794I0000000J-000906D01*
G01*
G37*
G36*
G01*
X0181284Y0268376D02*
X0181284Y0265660D01*
G75*
G02*
X0180378Y0264754I-000906J0000000D01*
G01*
X0175103Y0264754D01*
G75*
G02*
X0174197Y0265660I0000000J0000906D01*
G01*
X0174197Y0268376D01*
G75*
G02*
X0175103Y0269282I0000906J0000000D01*
G01*
X0180378Y0269282D01*
G75*
G02*
X0181284Y0268376I0000000J-000906D01*
G01*
G37*
G36*
G01*
X0181284Y0279794D02*
X0181284Y0277077D01*
G75*
G02*
X0180378Y0276171I-000906J0000000D01*
G01*
X0175103Y0276171D01*
G75*
G02*
X0174197Y0277077I0000000J0000906D01*
G01*
X0174197Y0279794D01*
G75*
G02*
X0175103Y0280699I0000906J0000000D01*
G01*
X0180378Y0280699D01*
G75*
G02*
X0181284Y0279794I0000000J-000906D01*
G01*
G37*
G36*
G01*
X0187603Y0290443D02*
X0190319Y0290443D01*
G75*
G02*
X0191225Y0289538I0000000J-000906D01*
G01*
X0191225Y0284262D01*
G75*
G02*
X0190319Y0283356I-000906J0000000D01*
G01*
X0187603Y0283356D01*
G75*
G02*
X0186697Y0284262I0000000J0000906D01*
G01*
X0186697Y0289538D01*
G75*
G02*
X0187603Y0290443I0000906J0000000D01*
G01*
G37*
G36*
G01*
X0176185Y0290443D02*
X0178902Y0290443D01*
G75*
G02*
X0179807Y0289538I0000000J-000906D01*
G01*
X0179807Y0284262D01*
G75*
G02*
X0178902Y0283356I-000906J0000000D01*
G01*
X0176185Y0283356D01*
G75*
G02*
X0175280Y0284262I0000000J0000906D01*
G01*
X0175280Y0289538D01*
G75*
G02*
X0176185Y0290443I0000906J0000000D01*
G01*
G37*
G36*
G01*
X0171835Y0275069D02*
X0171835Y0272353D01*
G75*
G02*
X0170929Y0271447I-000906J0000000D01*
G01*
X0165654Y0271447D01*
G75*
G02*
X0164748Y0272353I0000000J0000906D01*
G01*
X0164748Y0275069D01*
G75*
G02*
X0165654Y0275975I0000906J0000000D01*
G01*
X0170929Y0275975D01*
G75*
G02*
X0171835Y0275069I0000000J-000906D01*
G01*
G37*
G36*
G01*
X0171835Y0286486D02*
X0171835Y0283770D01*
G75*
G02*
X0170929Y0282864I-000906J0000000D01*
G01*
X0165654Y0282864D01*
G75*
G02*
X0164748Y0283770I0000000J0000906D01*
G01*
X0164748Y0286486D01*
G75*
G02*
X0165654Y0287392I0000906J0000000D01*
G01*
X0170929Y0287392D01*
G75*
G02*
X0171835Y0286486I0000000J-000906D01*
G01*
G37*
G36*
G01*
X0193710Y0249400D02*
X0191692Y0249400D01*
G75*
G02*
X0190831Y0250261I0000000J0000861D01*
G01*
X0190831Y0251983D01*
G75*
G02*
X0191692Y0252845I0000861J0000000D01*
G01*
X0193710Y0252845D01*
G75*
G02*
X0194571Y0251983I0000000J-000861D01*
G01*
X0194571Y0250261D01*
G75*
G02*
X0193710Y0249400I-000861J0000000D01*
G01*
G37*
G36*
G01*
X0193710Y0255601D02*
X0191692Y0255601D01*
G75*
G02*
X0190831Y0256462I0000000J0000861D01*
G01*
X0190831Y0258184D01*
G75*
G02*
X0191692Y0259045I0000861J0000000D01*
G01*
X0193710Y0259045D01*
G75*
G02*
X0194571Y0258184I0000000J-000861D01*
G01*
X0194571Y0256462D01*
G75*
G02*
X0193710Y0255601I-000861J0000000D01*
G01*
G37*
G36*
G01*
X0186748Y0243455D02*
X0184071Y0243455D01*
G75*
G02*
X0183736Y0243790I0000000J0000335D01*
G01*
X0183736Y0246467D01*
G75*
G02*
X0184071Y0246801I0000335J0000000D01*
G01*
X0186748Y0246801D01*
G75*
G02*
X0187083Y0246467I0000000J-000335D01*
G01*
X0187083Y0243790D01*
G75*
G02*
X0186748Y0243455I-000335J0000000D01*
G01*
G37*
G36*
G01*
X0186748Y0237234D02*
X0184071Y0237234D01*
G75*
G02*
X0183736Y0237569I0000000J0000335D01*
G01*
X0183736Y0240246D01*
G75*
G02*
X0184071Y0240581I0000335J0000000D01*
G01*
X0186748Y0240581D01*
G75*
G02*
X0187083Y0240246I0000000J-000335D01*
G01*
X0187083Y0237569D01*
G75*
G02*
X0186748Y0237234I-000335J0000000D01*
G01*
G37*
G36*
G01*
X0181441Y0237234D02*
X0178764Y0237234D01*
G75*
G02*
X0178429Y0237569I0000000J0000335D01*
G01*
X0178429Y0240246D01*
G75*
G02*
X0178764Y0240581I0000335J0000000D01*
G01*
X0181441Y0240581D01*
G75*
G02*
X0181776Y0240246I0000000J-000335D01*
G01*
X0181776Y0237569D01*
G75*
G02*
X0181441Y0237234I-000335J0000000D01*
G01*
G37*
G36*
G01*
X0181441Y0243455D02*
X0178764Y0243455D01*
G75*
G02*
X0178429Y0243790I0000000J0000335D01*
G01*
X0178429Y0246467D01*
G75*
G02*
X0178764Y0246801I0000335J0000000D01*
G01*
X0181441Y0246801D01*
G75*
G02*
X0181776Y0246467I0000000J-000335D01*
G01*
X0181776Y0243790D01*
G75*
G02*
X0181441Y0243455I-000335J0000000D01*
G01*
G37*
G36*
G01*
X0187642Y0262648D02*
X0187642Y0259971D01*
G75*
G02*
X0187307Y0259636I-000335J0000000D01*
G01*
X0184630Y0259636D01*
G75*
G02*
X0184296Y0259971I0000000J0000335D01*
G01*
X0184296Y0262648D01*
G75*
G02*
X0184630Y0262982I0000335J0000000D01*
G01*
X0187307Y0262982D01*
G75*
G02*
X0187642Y0262648I0000000J-000335D01*
G01*
G37*
G36*
G01*
X0181422Y0262648D02*
X0181422Y0259971D01*
G75*
G02*
X0181087Y0259636I-000335J0000000D01*
G01*
X0178410Y0259636D01*
G75*
G02*
X0178075Y0259971I0000000J0000335D01*
G01*
X0178075Y0262648D01*
G75*
G02*
X0178410Y0262982I0000335J0000000D01*
G01*
X0181087Y0262982D01*
G75*
G02*
X0181422Y0262648I0000000J-000335D01*
G01*
G37*
X0144606Y0269307D02*
G01*
G75*
D210*
X0154830Y0254602D02*
D03*
X0147350Y0254602D02*
D03*
X0147350Y0263067D02*
D03*
X0151090Y0263067D02*
D03*
X0154830Y0238953D02*
D03*
X0147350Y0238953D02*
D03*
X0147350Y0247417D02*
D03*
X0151090Y0247417D02*
D03*
D210*
X0154830Y0263067D02*
D03*
X0154830Y0247417D02*
D03*
D173*
X0154842Y0233874D02*
D03*
X0151102Y0233874D02*
D03*
X0147362Y0233874D02*
D03*
X0151299Y0268126D02*
D03*
X0154842Y0268126D02*
D03*
M02*
