G75*
G70*
%OFA0B0*%
%FSLAX25Y25*%
%IPPOS*%
%LPD*%
%AMOC8*
5,1,8,0,0,1.08239X$1,22.5*
%
%AMM1*
21,1,0.035430,0.030320,0.000000,0.000000,90.000000*
21,1,0.028350,0.037400,0.000000,0.000000,90.000000*
1,1,0.007090,0.015160,0.014170*
1,1,0.007090,0.015160,-0.014170*
1,1,0.007090,-0.015160,-0.014170*
1,1,0.007090,-0.015160,0.014170*
%
%AMM10*
21,1,0.025590,0.026380,0.000000,0.000000,90.000000*
21,1,0.020470,0.031500,0.000000,0.000000,90.000000*
1,1,0.005120,0.013190,0.010240*
1,1,0.005120,0.013190,-0.010240*
1,1,0.005120,-0.013190,-0.010240*
1,1,0.005120,-0.013190,0.010240*
%
%AMM11*
21,1,0.017720,0.027950,0.000000,0.000000,90.000000*
21,1,0.014170,0.031500,0.000000,0.000000,90.000000*
1,1,0.003540,0.013980,0.007090*
1,1,0.003540,0.013980,-0.007090*
1,1,0.003540,-0.013980,-0.007090*
1,1,0.003540,-0.013980,0.007090*
%
%AMM12*
21,1,0.031500,0.072440,0.000000,0.000000,90.000000*
21,1,0.025200,0.078740,0.000000,0.000000,90.000000*
1,1,0.006300,0.036220,0.012600*
1,1,0.006300,0.036220,-0.012600*
1,1,0.006300,-0.036220,-0.012600*
1,1,0.006300,-0.036220,0.012600*
%
%AMM13*
21,1,0.012600,0.028980,0.000000,0.000000,90.000000*
21,1,0.010080,0.031500,0.000000,0.000000,90.000000*
1,1,0.002520,0.014490,0.005040*
1,1,0.002520,0.014490,-0.005040*
1,1,0.002520,-0.014490,-0.005040*
1,1,0.002520,-0.014490,0.005040*
%
%AMM14*
21,1,0.012600,0.028980,0.000000,0.000000,180.000000*
21,1,0.010080,0.031500,0.000000,0.000000,180.000000*
1,1,0.002520,-0.005040,0.014490*
1,1,0.002520,0.005040,0.014490*
1,1,0.002520,0.005040,-0.014490*
1,1,0.002520,-0.005040,-0.014490*
%
%AMM15*
21,1,0.039370,0.035430,0.000000,0.000000,270.000000*
21,1,0.031500,0.043310,0.000000,0.000000,270.000000*
1,1,0.007870,-0.017720,-0.015750*
1,1,0.007870,-0.017720,0.015750*
1,1,0.007870,0.017720,0.015750*
1,1,0.007870,0.017720,-0.015750*
%
%AMM16*
21,1,0.027560,0.018900,0.000000,0.000000,90.000000*
21,1,0.022840,0.023620,0.000000,0.000000,90.000000*
1,1,0.004720,0.009450,0.011420*
1,1,0.004720,0.009450,-0.011420*
1,1,0.004720,-0.009450,-0.011420*
1,1,0.004720,-0.009450,0.011420*
%
%AMM164*
21,1,0.086610,0.073230,0.000000,-0.000000,180.000000*
21,1,0.069290,0.090550,0.000000,-0.000000,180.000000*
1,1,0.017320,-0.034650,0.036610*
1,1,0.017320,0.034650,0.036610*
1,1,0.017320,0.034650,-0.036610*
1,1,0.017320,-0.034650,-0.036610*
%
%AMM165*
21,1,0.094490,0.111020,0.000000,-0.000000,270.000000*
21,1,0.075590,0.129920,0.000000,-0.000000,270.000000*
1,1,0.018900,-0.055510,-0.037800*
1,1,0.018900,-0.055510,0.037800*
1,1,0.018900,0.055510,0.037800*
1,1,0.018900,0.055510,-0.037800*
%
%AMM166*
21,1,0.074800,0.083460,0.000000,-0.000000,270.000000*
21,1,0.059840,0.098430,0.000000,-0.000000,270.000000*
1,1,0.014960,-0.041730,-0.029920*
1,1,0.014960,-0.041730,0.029920*
1,1,0.014960,0.041730,0.029920*
1,1,0.014960,0.041730,-0.029920*
%
%AMM167*
21,1,0.078740,0.053540,0.000000,-0.000000,90.000000*
21,1,0.065350,0.066930,0.000000,-0.000000,90.000000*
1,1,0.013390,0.026770,0.032680*
1,1,0.013390,0.026770,-0.032680*
1,1,0.013390,-0.026770,-0.032680*
1,1,0.013390,-0.026770,0.032680*
%
%AMM168*
21,1,0.035430,0.030320,0.000000,-0.000000,0.000000*
21,1,0.028350,0.037400,0.000000,-0.000000,0.000000*
1,1,0.007090,0.014170,-0.015160*
1,1,0.007090,-0.014170,-0.015160*
1,1,0.007090,-0.014170,0.015160*
1,1,0.007090,0.014170,0.015160*
%
%AMM169*
21,1,0.021650,0.052760,0.000000,-0.000000,180.000000*
21,1,0.017320,0.057090,0.000000,-0.000000,180.000000*
1,1,0.004330,-0.008660,0.026380*
1,1,0.004330,0.008660,0.026380*
1,1,0.004330,0.008660,-0.026380*
1,1,0.004330,-0.008660,-0.026380*
%
%AMM170*
21,1,0.035830,0.026770,0.000000,-0.000000,270.000000*
21,1,0.029130,0.033470,0.000000,-0.000000,270.000000*
1,1,0.006690,-0.013390,-0.014570*
1,1,0.006690,-0.013390,0.014570*
1,1,0.006690,0.013390,0.014570*
1,1,0.006690,0.013390,-0.014570*
%
%AMM171*
21,1,0.070870,0.036220,0.000000,-0.000000,0.000000*
21,1,0.061810,0.045280,0.000000,-0.000000,0.000000*
1,1,0.009060,0.030910,-0.018110*
1,1,0.009060,-0.030910,-0.018110*
1,1,0.009060,-0.030910,0.018110*
1,1,0.009060,0.030910,0.018110*
%
%AMM172*
21,1,0.033470,0.026770,0.000000,-0.000000,270.000000*
21,1,0.026770,0.033470,0.000000,-0.000000,270.000000*
1,1,0.006690,-0.013390,-0.013390*
1,1,0.006690,-0.013390,0.013390*
1,1,0.006690,0.013390,0.013390*
1,1,0.006690,0.013390,-0.013390*
%
%AMM173*
21,1,0.015750,0.016540,0.000000,-0.000000,180.000000*
21,1,0.012600,0.019680,0.000000,-0.000000,180.000000*
1,1,0.003150,-0.006300,0.008270*
1,1,0.003150,0.006300,0.008270*
1,1,0.003150,0.006300,-0.008270*
1,1,0.003150,-0.006300,-0.008270*
%
%AMM174*
21,1,0.023620,0.018900,0.000000,-0.000000,0.000000*
21,1,0.018900,0.023620,0.000000,-0.000000,0.000000*
1,1,0.004720,0.009450,-0.009450*
1,1,0.004720,-0.009450,-0.009450*
1,1,0.004720,-0.009450,0.009450*
1,1,0.004720,0.009450,0.009450*
%
%AMM175*
21,1,0.019680,0.019680,0.000000,-0.000000,270.000000*
21,1,0.015750,0.023620,0.000000,-0.000000,270.000000*
1,1,0.003940,-0.009840,-0.007870*
1,1,0.003940,-0.009840,0.007870*
1,1,0.003940,0.009840,0.007870*
1,1,0.003940,0.009840,-0.007870*
%
%AMM176*
21,1,0.019680,0.019680,0.000000,-0.000000,180.000000*
21,1,0.015750,0.023620,0.000000,-0.000000,180.000000*
1,1,0.003940,-0.007870,0.009840*
1,1,0.003940,0.007870,0.009840*
1,1,0.003940,0.007870,-0.009840*
1,1,0.003940,-0.007870,-0.009840*
%
%AMM2*
21,1,0.043310,0.075980,0.000000,0.000000,0.000000*
21,1,0.034650,0.084650,0.000000,0.000000,0.000000*
1,1,0.008660,0.017320,-0.037990*
1,1,0.008660,-0.017320,-0.037990*
1,1,0.008660,-0.017320,0.037990*
1,1,0.008660,0.017320,0.037990*
%
%AMM3*
21,1,0.043310,0.075990,0.000000,0.000000,0.000000*
21,1,0.034650,0.084650,0.000000,0.000000,0.000000*
1,1,0.008660,0.017320,-0.037990*
1,1,0.008660,-0.017320,-0.037990*
1,1,0.008660,-0.017320,0.037990*
1,1,0.008660,0.017320,0.037990*
%
%AMM4*
21,1,0.137800,0.067720,0.000000,0.000000,0.000000*
21,1,0.120870,0.084650,0.000000,0.000000,0.000000*
1,1,0.016930,0.060430,-0.033860*
1,1,0.016930,-0.060430,-0.033860*
1,1,0.016930,-0.060430,0.033860*
1,1,0.016930,0.060430,0.033860*
%
%AMM5*
21,1,0.039370,0.035430,0.000000,0.000000,0.000000*
21,1,0.031500,0.043310,0.000000,0.000000,0.000000*
1,1,0.007870,0.015750,-0.017720*
1,1,0.007870,-0.015750,-0.017720*
1,1,0.007870,-0.015750,0.017720*
1,1,0.007870,0.015750,0.017720*
%
%AMM57*
21,1,0.021650,0.052760,0.000000,0.000000,270.000000*
21,1,0.017320,0.057090,0.000000,0.000000,270.000000*
1,1,0.004330,-0.026380,-0.008660*
1,1,0.004330,-0.026380,0.008660*
1,1,0.004330,0.026380,0.008660*
1,1,0.004330,0.026380,-0.008660*
%
%AMM6*
21,1,0.023620,0.030710,0.000000,0.000000,180.000000*
21,1,0.018900,0.035430,0.000000,0.000000,180.000000*
1,1,0.004720,-0.009450,0.015350*
1,1,0.004720,0.009450,0.015350*
1,1,0.004720,0.009450,-0.015350*
1,1,0.004720,-0.009450,-0.015350*
%
%AMM7*
21,1,0.027560,0.018900,0.000000,0.000000,180.000000*
21,1,0.022840,0.023620,0.000000,0.000000,180.000000*
1,1,0.004720,-0.011420,0.009450*
1,1,0.004720,0.011420,0.009450*
1,1,0.004720,0.011420,-0.009450*
1,1,0.004720,-0.011420,-0.009450*
%
%AMM8*
21,1,0.023620,0.030710,0.000000,0.000000,270.000000*
21,1,0.018900,0.035430,0.000000,0.000000,270.000000*
1,1,0.004720,-0.015350,-0.009450*
1,1,0.004720,-0.015350,0.009450*
1,1,0.004720,0.015350,0.009450*
1,1,0.004720,0.015350,-0.009450*
%
%AMM9*
21,1,0.086610,0.073230,0.000000,0.000000,90.000000*
21,1,0.069290,0.090550,0.000000,0.000000,90.000000*
1,1,0.017320,0.036610,0.034650*
1,1,0.017320,0.036610,-0.034650*
1,1,0.017320,-0.036610,-0.034650*
1,1,0.017320,-0.036610,0.034650*
%
%ADD14R,0.00787X0.09055*%
%ADD15R,0.00787X0.21260*%
%ADD159M57*%
%ADD16R,0.00787X0.33858*%
%ADD17R,0.00787X0.19685*%
%ADD171R,0.03543X0.03150*%
%ADD172R,0.04724X0.08661*%
%ADD175R,0.03150X0.03543*%
%ADD18R,0.05512X0.00787*%
%ADD180R,0.10827X0.12008*%
%ADD19R,0.19685X0.00787*%
%ADD20R,0.26772X0.00787*%
%ADD21R,0.17717X0.00787*%
%ADD22R,0.00787X0.06299*%
%ADD23R,0.00787X0.22441*%
%ADD24R,0.00787X0.07874*%
%ADD296M164*%
%ADD297M165*%
%ADD298M166*%
%ADD299M167*%
%ADD300M168*%
%ADD301M169*%
%ADD302M170*%
%ADD303M171*%
%ADD304M172*%
%ADD305M173*%
%ADD306M174*%
%ADD307M175*%
%ADD308M176*%
%ADD58R,0.05512X0.01181*%
%ADD62O,0.00866X0.05118*%
%ADD63O,0.05118X0.00866*%
%ADD64M1*%
%ADD65M2*%
%ADD66M3*%
%ADD67M4*%
%ADD68M5*%
%ADD69M6*%
%ADD70M7*%
%ADD71M8*%
%ADD72M9*%
%ADD73C,0.03150*%
%ADD74M10*%
%ADD75M11*%
%ADD76M12*%
%ADD77O,0.01181X0.04331*%
%ADD78O,0.04331X0.01181*%
%ADD79M13*%
%ADD80O,0.08661X0.02362*%
%ADD81M14*%
%ADD82R,0.01476X0.01378*%
%ADD83R,0.01378X0.01476*%
%ADD84M15*%
%ADD85M16*%
X0000000Y0000000D02*
%LPD*%
G01*
G36*
G01*
X0363331Y0269004D02*
X0363331Y0272075D01*
G75*
G02*
X0363606Y0272350I0000276J0000000D01*
G01*
X0365811Y0272350D01*
G75*
G02*
X0366087Y0272075I0000000J-000276D01*
G01*
X0366087Y0269004D01*
G75*
G02*
X0365811Y0268728I-000276J0000000D01*
G01*
X0363606Y0268728D01*
G75*
G02*
X0363331Y0269004I0000000J0000276D01*
G01*
G37*
G36*
G01*
X0369630Y0269004D02*
X0369630Y0272075D01*
G75*
G02*
X0369906Y0272350I0000276J0000000D01*
G01*
X0372110Y0272350D01*
G75*
G02*
X0372386Y0272075I0000000J-000276D01*
G01*
X0372386Y0269004D01*
G75*
G02*
X0372110Y0268728I-000276J0000000D01*
G01*
X0369906Y0268728D01*
G75*
G02*
X0369630Y0269004I0000000J0000276D01*
G01*
G37*
G36*
G01*
X0348606Y0351503D02*
X0348606Y0362723D01*
G75*
G02*
X0349591Y0363707I0000984J0000000D01*
G01*
X0352445Y0363707D01*
G75*
G02*
X0353429Y0362723I0000000J-000984D01*
G01*
X0353429Y0351503D01*
G75*
G02*
X0352445Y0350518I-000984J0000000D01*
G01*
X0349591Y0350518D01*
G75*
G02*
X0348606Y0351503I0000000J0000984D01*
G01*
G37*
G36*
G01*
X0371933Y0351503D02*
X0371933Y0362723D01*
G75*
G02*
X0372917Y0363707I0000984J0000000D01*
G01*
X0375772Y0363707D01*
G75*
G02*
X0376756Y0362723I0000000J-000984D01*
G01*
X0376756Y0351503D01*
G75*
G02*
X0375772Y0350518I-000984J0000000D01*
G01*
X0372917Y0350518D01*
G75*
G02*
X0371933Y0351503I0000000J0000984D01*
G01*
G37*
G36*
G01*
X0342701Y0136069D02*
X0342701Y0140085D01*
G75*
G02*
X0343055Y0140440I0000354J0000000D01*
G01*
X0345890Y0140440D01*
G75*
G02*
X0346244Y0140085I0000000J-000354D01*
G01*
X0346244Y0136069D01*
G75*
G02*
X0345890Y0135715I-000354J0000000D01*
G01*
X0343055Y0135715D01*
G75*
G02*
X0342701Y0136069I0000000J0000354D01*
G01*
G37*
G36*
G01*
X0355693Y0136069D02*
X0355693Y0140085D01*
G75*
G02*
X0356047Y0140440I0000354J0000000D01*
G01*
X0358882Y0140440D01*
G75*
G02*
X0359236Y0140085I0000000J-000354D01*
G01*
X0359236Y0136069D01*
G75*
G02*
X0358882Y0135715I-000354J0000000D01*
G01*
X0356047Y0135715D01*
G75*
G02*
X0355693Y0136069I0000000J0000354D01*
G01*
G37*
G36*
G01*
X0300791Y0163825D02*
X0300791Y0165006D01*
G75*
G02*
X0301382Y0165597I0000591J0000000D01*
G01*
X0307878Y0165597D01*
G75*
G02*
X0308469Y0165006I0000000J-000591D01*
G01*
X0308469Y0163825D01*
G75*
G02*
X0307878Y0163235I-000591J0000000D01*
G01*
X0301382Y0163235D01*
G75*
G02*
X0300791Y0163825I0000000J0000591D01*
G01*
G37*
G36*
G01*
X0300791Y0158825D02*
X0300791Y0160006D01*
G75*
G02*
X0301382Y0160597I0000591J0000000D01*
G01*
X0307878Y0160597D01*
G75*
G02*
X0308469Y0160006I0000000J-000591D01*
G01*
X0308469Y0158825D01*
G75*
G02*
X0307878Y0158235I-000591J0000000D01*
G01*
X0301382Y0158235D01*
G75*
G02*
X0300791Y0158825I0000000J0000591D01*
G01*
G37*
G36*
G01*
X0300791Y0153825D02*
X0300791Y0155006D01*
G75*
G02*
X0301382Y0155597I0000591J0000000D01*
G01*
X0307878Y0155597D01*
G75*
G02*
X0308469Y0155006I0000000J-000591D01*
G01*
X0308469Y0153825D01*
G75*
G02*
X0307878Y0153235I-000591J0000000D01*
G01*
X0301382Y0153235D01*
G75*
G02*
X0300791Y0153825I0000000J0000591D01*
G01*
G37*
G36*
G01*
X0300791Y0148825D02*
X0300791Y0150006D01*
G75*
G02*
X0301382Y0150597I0000591J0000000D01*
G01*
X0307878Y0150597D01*
G75*
G02*
X0308469Y0150006I0000000J-000591D01*
G01*
X0308469Y0148825D01*
G75*
G02*
X0307878Y0148235I-000591J0000000D01*
G01*
X0301382Y0148235D01*
G75*
G02*
X0300791Y0148825I0000000J0000591D01*
G01*
G37*
G36*
G01*
X0320280Y0148825D02*
X0320280Y0150006D01*
G75*
G02*
X0320870Y0150597I0000591J0000000D01*
G01*
X0327366Y0150597D01*
G75*
G02*
X0327957Y0150006I0000000J-000591D01*
G01*
X0327957Y0148825D01*
G75*
G02*
X0327366Y0148235I-000591J0000000D01*
G01*
X0320870Y0148235D01*
G75*
G02*
X0320280Y0148825I0000000J0000591D01*
G01*
G37*
G36*
G01*
X0320280Y0153825D02*
X0320280Y0155006D01*
G75*
G02*
X0320870Y0155597I0000591J0000000D01*
G01*
X0327366Y0155597D01*
G75*
G02*
X0327957Y0155006I0000000J-000591D01*
G01*
X0327957Y0153825D01*
G75*
G02*
X0327366Y0153235I-000591J0000000D01*
G01*
X0320870Y0153235D01*
G75*
G02*
X0320280Y0153825I0000000J0000591D01*
G01*
G37*
G36*
G01*
X0320280Y0158825D02*
X0320280Y0160006D01*
G75*
G02*
X0320870Y0160597I0000591J0000000D01*
G01*
X0327366Y0160597D01*
G75*
G02*
X0327957Y0160006I0000000J-000591D01*
G01*
X0327957Y0158825D01*
G75*
G02*
X0327366Y0158235I-000591J0000000D01*
G01*
X0320870Y0158235D01*
G75*
G02*
X0320280Y0158825I0000000J0000591D01*
G01*
G37*
G36*
G01*
X0320280Y0163825D02*
X0320280Y0165006D01*
G75*
G02*
X0320870Y0165597I0000591J0000000D01*
G01*
X0327366Y0165597D01*
G75*
G02*
X0327957Y0165006I0000000J-000591D01*
G01*
X0327957Y0163825D01*
G75*
G02*
X0327366Y0163235I-000591J0000000D01*
G01*
X0320870Y0163235D01*
G75*
G02*
X0320280Y0163825I0000000J0000591D01*
G01*
G37*
G36*
G01*
X0348646Y0273899D02*
X0348646Y0275917D01*
G75*
G02*
X0349507Y0276778I0000861J0000000D01*
G01*
X0351229Y0276778D01*
G75*
G02*
X0352091Y0275917I0000000J-000861D01*
G01*
X0352091Y0273899D01*
G75*
G02*
X0351229Y0273038I-000861J0000000D01*
G01*
X0349507Y0273038D01*
G75*
G02*
X0348646Y0273899I0000000J0000861D01*
G01*
G37*
G36*
G01*
X0354846Y0273899D02*
X0354846Y0275917D01*
G75*
G02*
X0355708Y0276778I0000861J0000000D01*
G01*
X0357430Y0276778D01*
G75*
G02*
X0358291Y0275917I0000000J-000861D01*
G01*
X0358291Y0273899D01*
G75*
G02*
X0357430Y0273038I-000861J0000000D01*
G01*
X0355708Y0273038D01*
G75*
G02*
X0354846Y0273899I0000000J0000861D01*
G01*
G37*
G36*
G01*
X0348606Y0312999D02*
X0348606Y0324219D01*
G75*
G02*
X0349591Y0325203I0000984J0000000D01*
G01*
X0352445Y0325203D01*
G75*
G02*
X0353429Y0324219I0000000J-000984D01*
G01*
X0353429Y0312999D01*
G75*
G02*
X0352445Y0312014I-000984J0000000D01*
G01*
X0349591Y0312014D01*
G75*
G02*
X0348606Y0312999I0000000J0000984D01*
G01*
G37*
G36*
G01*
X0371933Y0312999D02*
X0371933Y0324219D01*
G75*
G02*
X0372917Y0325203I0000984J0000000D01*
G01*
X0375772Y0325203D01*
G75*
G02*
X0376756Y0324219I0000000J-000984D01*
G01*
X0376756Y0312999D01*
G75*
G02*
X0375772Y0312014I-000984J0000000D01*
G01*
X0372917Y0312014D01*
G75*
G02*
X0371933Y0312999I0000000J0000984D01*
G01*
G37*
G36*
G01*
X0300791Y0325656D02*
X0300791Y0328412D01*
G75*
G02*
X0301776Y0329396I0000984J0000000D01*
G01*
X0308469Y0329396D01*
G75*
G02*
X0309453Y0328412I0000000J-000984D01*
G01*
X0309453Y0325656D01*
G75*
G02*
X0308469Y0324672I-000984J0000000D01*
G01*
X0301776Y0324672D01*
G75*
G02*
X0300791Y0325656I0000000J0000984D01*
G01*
G37*
G36*
G01*
X0317327Y0319632D02*
X0317327Y0328491D01*
G75*
G02*
X0318311Y0329475I0000984J0000000D01*
G01*
X0328350Y0329475D01*
G75*
G02*
X0329335Y0328491I0000000J-000984D01*
G01*
X0329335Y0319632D01*
G75*
G02*
X0328350Y0318648I-000984J0000000D01*
G01*
X0318311Y0318648D01*
G75*
G02*
X0317327Y0319632I0000000J0000984D01*
G01*
G37*
G36*
G01*
X0317327Y0307625D02*
X0317327Y0316483D01*
G75*
G02*
X0318311Y0317467I0000984J0000000D01*
G01*
X0328350Y0317467D01*
G75*
G02*
X0329335Y0316483I0000000J-000984D01*
G01*
X0329335Y0307625D01*
G75*
G02*
X0328350Y0306640I-000984J0000000D01*
G01*
X0318311Y0306640D01*
G75*
G02*
X0317327Y0307625I0000000J0000984D01*
G01*
G37*
G36*
G01*
X0330516Y0319632D02*
X0330516Y0328491D01*
G75*
G02*
X0331500Y0329475I0000984J0000000D01*
G01*
X0341539Y0329475D01*
G75*
G02*
X0342524Y0328491I0000000J-000984D01*
G01*
X0342524Y0319632D01*
G75*
G02*
X0341539Y0318648I-000984J0000000D01*
G01*
X0331500Y0318648D01*
G75*
G02*
X0330516Y0319632I0000000J0000984D01*
G01*
G37*
G36*
G01*
X0330516Y0307625D02*
X0330516Y0316483D01*
G75*
G02*
X0331500Y0317467I0000984J0000000D01*
G01*
X0341539Y0317467D01*
G75*
G02*
X0342524Y0316483I0000000J-000984D01*
G01*
X0342524Y0307625D01*
G75*
G02*
X0341539Y0306640I-000984J0000000D01*
G01*
X0331500Y0306640D01*
G75*
G02*
X0330516Y0307625I0000000J0000984D01*
G01*
G37*
G36*
G01*
X0300791Y0307703D02*
X0300791Y0310459D01*
G75*
G02*
X0301776Y0311443I0000984J0000000D01*
G01*
X0308469Y0311443D01*
G75*
G02*
X0309453Y0310459I0000000J-000984D01*
G01*
X0309453Y0307703D01*
G75*
G02*
X0308469Y0306719I-000984J0000000D01*
G01*
X0301776Y0306719D01*
G75*
G02*
X0300791Y0307703I0000000J0000984D01*
G01*
G37*
G36*
G01*
X0363173Y0138839D02*
X0363173Y0141910D01*
G75*
G02*
X0363449Y0142185I0000276J0000000D01*
G01*
X0365654Y0142185D01*
G75*
G02*
X0365929Y0141910I0000000J-000276D01*
G01*
X0365929Y0138839D01*
G75*
G02*
X0365654Y0138563I-000276J0000000D01*
G01*
X0363449Y0138563D01*
G75*
G02*
X0363173Y0138839I0000000J0000276D01*
G01*
G37*
G36*
G01*
X0369472Y0138839D02*
X0369472Y0141910D01*
G75*
G02*
X0369748Y0142185I0000276J0000000D01*
G01*
X0371953Y0142185D01*
G75*
G02*
X0372228Y0141910I0000000J-000276D01*
G01*
X0372228Y0138839D01*
G75*
G02*
X0371953Y0138563I-000276J0000000D01*
G01*
X0369748Y0138563D01*
G75*
G02*
X0369472Y0138839I0000000J0000276D01*
G01*
G37*
G36*
G01*
X0332976Y0216756D02*
X0332976Y0219827D01*
G75*
G02*
X0333252Y0220102I0000276J0000000D01*
G01*
X0335457Y0220102D01*
G75*
G02*
X0335732Y0219827I0000000J-000276D01*
G01*
X0335732Y0216756D01*
G75*
G02*
X0335457Y0216480I-000276J0000000D01*
G01*
X0333252Y0216480D01*
G75*
G02*
X0332976Y0216756I0000000J0000276D01*
G01*
G37*
G36*
G01*
X0339276Y0216756D02*
X0339276Y0219827D01*
G75*
G02*
X0339551Y0220102I0000276J0000000D01*
G01*
X0341756Y0220102D01*
G75*
G02*
X0342031Y0219827I0000000J-000276D01*
G01*
X0342031Y0216756D01*
G75*
G02*
X0341756Y0216480I-000276J0000000D01*
G01*
X0339551Y0216480D01*
G75*
G02*
X0339276Y0216756I0000000J0000276D01*
G01*
G37*
G36*
G01*
X0332976Y0224429D02*
X0332976Y0227500D01*
G75*
G02*
X0333252Y0227776I0000276J0000000D01*
G01*
X0335457Y0227776D01*
G75*
G02*
X0335732Y0227500I0000000J-000276D01*
G01*
X0335732Y0224429D01*
G75*
G02*
X0335457Y0224154I-000276J0000000D01*
G01*
X0333252Y0224154D01*
G75*
G02*
X0332976Y0224429I0000000J0000276D01*
G01*
G37*
G36*
G01*
X0339276Y0224429D02*
X0339276Y0227500D01*
G75*
G02*
X0339551Y0227776I0000276J0000000D01*
G01*
X0341756Y0227776D01*
G75*
G02*
X0342031Y0227500I0000000J-000276D01*
G01*
X0342031Y0224429D01*
G75*
G02*
X0341756Y0224154I-000276J0000000D01*
G01*
X0339551Y0224154D01*
G75*
G02*
X0339276Y0224429I0000000J0000276D01*
G01*
G37*
G36*
G01*
X0342701Y0123786D02*
X0342701Y0127802D01*
G75*
G02*
X0343055Y0128156I0000354J0000000D01*
G01*
X0345890Y0128156D01*
G75*
G02*
X0346244Y0127802I0000000J-000354D01*
G01*
X0346244Y0123786D01*
G75*
G02*
X0345890Y0123432I-000354J0000000D01*
G01*
X0343055Y0123432D01*
G75*
G02*
X0342701Y0123786I0000000J0000354D01*
G01*
G37*
G36*
G01*
X0355693Y0123786D02*
X0355693Y0127802D01*
G75*
G02*
X0356047Y0128156I0000354J0000000D01*
G01*
X0358882Y0128156D01*
G75*
G02*
X0359236Y0127802I0000000J-000354D01*
G01*
X0359236Y0123786D01*
G75*
G02*
X0358882Y0123432I-000354J0000000D01*
G01*
X0356047Y0123432D01*
G75*
G02*
X0355693Y0123786I0000000J0000354D01*
G01*
G37*
G36*
G01*
X0348606Y0293747D02*
X0348606Y0304967D01*
G75*
G02*
X0349591Y0305951I0000984J0000000D01*
G01*
X0352445Y0305951D01*
G75*
G02*
X0353429Y0304967I0000000J-000984D01*
G01*
X0353429Y0293747D01*
G75*
G02*
X0352445Y0292762I-000984J0000000D01*
G01*
X0349591Y0292762D01*
G75*
G02*
X0348606Y0293747I0000000J0000984D01*
G01*
G37*
G36*
G01*
X0371933Y0293747D02*
X0371933Y0304967D01*
G75*
G02*
X0372917Y0305951I0000984J0000000D01*
G01*
X0375772Y0305951D01*
G75*
G02*
X0376756Y0304967I0000000J-000984D01*
G01*
X0376756Y0293747D01*
G75*
G02*
X0375772Y0292762I-000984J0000000D01*
G01*
X0372917Y0292762D01*
G75*
G02*
X0371933Y0293747I0000000J0000984D01*
G01*
G37*
G36*
G01*
X0332976Y0209082D02*
X0332976Y0212153D01*
G75*
G02*
X0333252Y0212429I0000276J0000000D01*
G01*
X0335457Y0212429D01*
G75*
G02*
X0335732Y0212153I0000000J-000276D01*
G01*
X0335732Y0209082D01*
G75*
G02*
X0335457Y0208807I-000276J0000000D01*
G01*
X0333252Y0208807D01*
G75*
G02*
X0332976Y0209082I0000000J0000276D01*
G01*
G37*
G36*
G01*
X0339276Y0209082D02*
X0339276Y0212153D01*
G75*
G02*
X0339551Y0212429I0000276J0000000D01*
G01*
X0341756Y0212429D01*
G75*
G02*
X0342031Y0212153I0000000J-000276D01*
G01*
X0342031Y0209082D01*
G75*
G02*
X0341756Y0208807I-000276J0000000D01*
G01*
X0339551Y0208807D01*
G75*
G02*
X0339276Y0209082I0000000J0000276D01*
G01*
G37*
G36*
G01*
X0321008Y0131165D02*
X0321008Y0134236D01*
G75*
G02*
X0321283Y0134512I0000276J0000000D01*
G01*
X0323488Y0134512D01*
G75*
G02*
X0323764Y0134236I0000000J-000276D01*
G01*
X0323764Y0131165D01*
G75*
G02*
X0323488Y0130890I-000276J0000000D01*
G01*
X0321283Y0130890D01*
G75*
G02*
X0321008Y0131165I0000000J0000276D01*
G01*
G37*
G36*
G01*
X0327307Y0131165D02*
X0327307Y0134236D01*
G75*
G02*
X0327583Y0134512I0000276J0000000D01*
G01*
X0329787Y0134512D01*
G75*
G02*
X0330063Y0134236I0000000J-000276D01*
G01*
X0330063Y0131165D01*
G75*
G02*
X0329787Y0130890I-000276J0000000D01*
G01*
X0327583Y0130890D01*
G75*
G02*
X0327307Y0131165I0000000J0000276D01*
G01*
G37*
G36*
G01*
X0300791Y0293392D02*
X0300791Y0296148D01*
G75*
G02*
X0301776Y0297132I0000984J0000000D01*
G01*
X0308469Y0297132D01*
G75*
G02*
X0309453Y0296148I0000000J-000984D01*
G01*
X0309453Y0293392D01*
G75*
G02*
X0308469Y0292408I-000984J0000000D01*
G01*
X0301776Y0292408D01*
G75*
G02*
X0300791Y0293392I0000000J0000984D01*
G01*
G37*
G36*
G01*
X0317327Y0287369D02*
X0317327Y0296227D01*
G75*
G02*
X0318311Y0297211I0000984J0000000D01*
G01*
X0328350Y0297211D01*
G75*
G02*
X0329335Y0296227I0000000J-000984D01*
G01*
X0329335Y0287369D01*
G75*
G02*
X0328350Y0286384I-000984J0000000D01*
G01*
X0318311Y0286384D01*
G75*
G02*
X0317327Y0287369I0000000J0000984D01*
G01*
G37*
G36*
G01*
X0317327Y0275361D02*
X0317327Y0284219D01*
G75*
G02*
X0318311Y0285203I0000984J0000000D01*
G01*
X0328350Y0285203D01*
G75*
G02*
X0329335Y0284219I0000000J-000984D01*
G01*
X0329335Y0275361D01*
G75*
G02*
X0328350Y0274377I-000984J0000000D01*
G01*
X0318311Y0274377D01*
G75*
G02*
X0317327Y0275361I0000000J0000984D01*
G01*
G37*
G36*
G01*
X0330516Y0287369D02*
X0330516Y0296227D01*
G75*
G02*
X0331500Y0297211I0000984J0000000D01*
G01*
X0341539Y0297211D01*
G75*
G02*
X0342524Y0296227I0000000J-000984D01*
G01*
X0342524Y0287369D01*
G75*
G02*
X0341539Y0286384I-000984J0000000D01*
G01*
X0331500Y0286384D01*
G75*
G02*
X0330516Y0287369I0000000J0000984D01*
G01*
G37*
G36*
G01*
X0330516Y0275361D02*
X0330516Y0284219D01*
G75*
G02*
X0331500Y0285203I0000984J0000000D01*
G01*
X0341539Y0285203D01*
G75*
G02*
X0342524Y0284219I0000000J-000984D01*
G01*
X0342524Y0275361D01*
G75*
G02*
X0341539Y0274377I-000984J0000000D01*
G01*
X0331500Y0274377D01*
G75*
G02*
X0330516Y0275361I0000000J0000984D01*
G01*
G37*
G36*
G01*
X0300791Y0275440D02*
X0300791Y0278195D01*
G75*
G02*
X0301776Y0279180I0000984J0000000D01*
G01*
X0308469Y0279180D01*
G75*
G02*
X0309453Y0278195I0000000J-000984D01*
G01*
X0309453Y0275440D01*
G75*
G02*
X0308469Y0274455I-000984J0000000D01*
G01*
X0301776Y0274455D01*
G75*
G02*
X0300791Y0275440I0000000J0000984D01*
G01*
G37*
G36*
G01*
X0363173Y0131165D02*
X0363173Y0134236D01*
G75*
G02*
X0363449Y0134512I0000276J0000000D01*
G01*
X0365654Y0134512D01*
G75*
G02*
X0365929Y0134236I0000000J-000276D01*
G01*
X0365929Y0131165D01*
G75*
G02*
X0365654Y0130890I-000276J0000000D01*
G01*
X0363449Y0130890D01*
G75*
G02*
X0363173Y0131165I0000000J0000276D01*
G01*
G37*
G36*
G01*
X0369472Y0131165D02*
X0369472Y0134236D01*
G75*
G02*
X0369748Y0134512I0000276J0000000D01*
G01*
X0371953Y0134512D01*
G75*
G02*
X0372228Y0134236I0000000J-000276D01*
G01*
X0372228Y0131165D01*
G75*
G02*
X0371953Y0130890I-000276J0000000D01*
G01*
X0369748Y0130890D01*
G75*
G02*
X0369472Y0131165I0000000J0000276D01*
G01*
G37*
G36*
G01*
X0321008Y0138839D02*
X0321008Y0141910D01*
G75*
G02*
X0321283Y0142185I0000276J0000000D01*
G01*
X0323488Y0142185D01*
G75*
G02*
X0323764Y0141910I0000000J-000276D01*
G01*
X0323764Y0138839D01*
G75*
G02*
X0323488Y0138563I-000276J0000000D01*
G01*
X0321283Y0138563D01*
G75*
G02*
X0321008Y0138839I0000000J0000276D01*
G01*
G37*
G36*
G01*
X0327307Y0138839D02*
X0327307Y0141910D01*
G75*
G02*
X0327583Y0142185I0000276J0000000D01*
G01*
X0329787Y0142185D01*
G75*
G02*
X0330063Y0141910I0000000J-000276D01*
G01*
X0330063Y0138839D01*
G75*
G02*
X0329787Y0138563I-000276J0000000D01*
G01*
X0327583Y0138563D01*
G75*
G02*
X0327307Y0138839I0000000J0000276D01*
G01*
G37*
G36*
G01*
X0332976Y0201409D02*
X0332976Y0204480D01*
G75*
G02*
X0333252Y0204756I0000276J0000000D01*
G01*
X0335457Y0204756D01*
G75*
G02*
X0335732Y0204480I0000000J-000276D01*
G01*
X0335732Y0201409D01*
G75*
G02*
X0335457Y0201133I-000276J0000000D01*
G01*
X0333252Y0201133D01*
G75*
G02*
X0332976Y0201409I0000000J0000276D01*
G01*
G37*
G36*
G01*
X0339276Y0201409D02*
X0339276Y0204480D01*
G75*
G02*
X0339551Y0204756I0000276J0000000D01*
G01*
X0341756Y0204756D01*
G75*
G02*
X0342031Y0204480I0000000J-000276D01*
G01*
X0342031Y0201409D01*
G75*
G02*
X0341756Y0201133I-000276J0000000D01*
G01*
X0339551Y0201133D01*
G75*
G02*
X0339276Y0201409I0000000J0000276D01*
G01*
G37*
G36*
G01*
X0363331Y0261330D02*
X0363331Y0264401D01*
G75*
G02*
X0363606Y0264677I0000276J0000000D01*
G01*
X0365811Y0264677D01*
G75*
G02*
X0366087Y0264401I0000000J-000276D01*
G01*
X0366087Y0261330D01*
G75*
G02*
X0365811Y0261055I-000276J0000000D01*
G01*
X0363606Y0261055D01*
G75*
G02*
X0363331Y0261330I0000000J0000276D01*
G01*
G37*
G36*
G01*
X0369630Y0261330D02*
X0369630Y0264401D01*
G75*
G02*
X0369906Y0264677I0000276J0000000D01*
G01*
X0372110Y0264677D01*
G75*
G02*
X0372386Y0264401I0000000J-000276D01*
G01*
X0372386Y0261330D01*
G75*
G02*
X0372110Y0261055I-000276J0000000D01*
G01*
X0369906Y0261055D01*
G75*
G02*
X0369630Y0261330I0000000J0000276D01*
G01*
G37*
G36*
G01*
X0300311Y0358295D02*
X0300311Y0361051D01*
G75*
G02*
X0301295Y0362035I0000984J0000000D01*
G01*
X0307988Y0362035D01*
G75*
G02*
X0308972Y0361051I0000000J-000984D01*
G01*
X0308972Y0358295D01*
G75*
G02*
X0307988Y0357311I-000984J0000000D01*
G01*
X0301295Y0357311D01*
G75*
G02*
X0300311Y0358295I0000000J0000984D01*
G01*
G37*
G36*
G01*
X0316846Y0352272D02*
X0316846Y0361130D01*
G75*
G02*
X0317831Y0362114I0000984J0000000D01*
G01*
X0327870Y0362114D01*
G75*
G02*
X0328854Y0361130I0000000J-000984D01*
G01*
X0328854Y0352272D01*
G75*
G02*
X0327870Y0351287I-000984J0000000D01*
G01*
X0317831Y0351287D01*
G75*
G02*
X0316846Y0352272I0000000J0000984D01*
G01*
G37*
G36*
G01*
X0316846Y0340264D02*
X0316846Y0349122D01*
G75*
G02*
X0317831Y0350106I0000984J0000000D01*
G01*
X0327870Y0350106D01*
G75*
G02*
X0328854Y0349122I0000000J-000984D01*
G01*
X0328854Y0340264D01*
G75*
G02*
X0327870Y0339280I-000984J0000000D01*
G01*
X0317831Y0339280D01*
G75*
G02*
X0316846Y0340264I0000000J0000984D01*
G01*
G37*
G36*
G01*
X0330035Y0352272D02*
X0330035Y0361130D01*
G75*
G02*
X0331020Y0362114I0000984J0000000D01*
G01*
X0341059Y0362114D01*
G75*
G02*
X0342043Y0361130I0000000J-000984D01*
G01*
X0342043Y0352272D01*
G75*
G02*
X0341059Y0351287I-000984J0000000D01*
G01*
X0331020Y0351287D01*
G75*
G02*
X0330035Y0352272I0000000J0000984D01*
G01*
G37*
G36*
G01*
X0330035Y0340264D02*
X0330035Y0349122D01*
G75*
G02*
X0331020Y0350106I0000984J0000000D01*
G01*
X0341059Y0350106D01*
G75*
G02*
X0342043Y0349122I0000000J-000984D01*
G01*
X0342043Y0340264D01*
G75*
G02*
X0341059Y0339280I-000984J0000000D01*
G01*
X0331020Y0339280D01*
G75*
G02*
X0330035Y0340264I0000000J0000984D01*
G01*
G37*
G36*
G01*
X0300311Y0340343D02*
X0300311Y0343098D01*
G75*
G02*
X0301295Y0344083I0000984J0000000D01*
G01*
X0307988Y0344083D01*
G75*
G02*
X0308972Y0343098I0000000J-000984D01*
G01*
X0308972Y0340343D01*
G75*
G02*
X0307988Y0339358I-000984J0000000D01*
G01*
X0301295Y0339358D01*
G75*
G02*
X0300311Y0340343I0000000J0000984D01*
G01*
G37*
G36*
G01*
X0300791Y0197605D02*
X0300791Y0198786D01*
G75*
G02*
X0301382Y0199377I0000591J0000000D01*
G01*
X0307878Y0199377D01*
G75*
G02*
X0308469Y0198786I0000000J-000591D01*
G01*
X0308469Y0197605D01*
G75*
G02*
X0307878Y0197014I-000591J0000000D01*
G01*
X0301382Y0197014D01*
G75*
G02*
X0300791Y0197605I0000000J0000591D01*
G01*
G37*
G36*
G01*
X0300791Y0192605D02*
X0300791Y0193786D01*
G75*
G02*
X0301382Y0194377I0000591J0000000D01*
G01*
X0307878Y0194377D01*
G75*
G02*
X0308469Y0193786I0000000J-000591D01*
G01*
X0308469Y0192605D01*
G75*
G02*
X0307878Y0192014I-000591J0000000D01*
G01*
X0301382Y0192014D01*
G75*
G02*
X0300791Y0192605I0000000J0000591D01*
G01*
G37*
G36*
G01*
X0300791Y0187605D02*
X0300791Y0188786D01*
G75*
G02*
X0301382Y0189377I0000591J0000000D01*
G01*
X0307878Y0189377D01*
G75*
G02*
X0308469Y0188786I0000000J-000591D01*
G01*
X0308469Y0187605D01*
G75*
G02*
X0307878Y0187014I-000591J0000000D01*
G01*
X0301382Y0187014D01*
G75*
G02*
X0300791Y0187605I0000000J0000591D01*
G01*
G37*
G36*
G01*
X0300791Y0182605D02*
X0300791Y0183786D01*
G75*
G02*
X0301382Y0184377I0000591J0000000D01*
G01*
X0307878Y0184377D01*
G75*
G02*
X0308469Y0183786I0000000J-000591D01*
G01*
X0308469Y0182605D01*
G75*
G02*
X0307878Y0182014I-000591J0000000D01*
G01*
X0301382Y0182014D01*
G75*
G02*
X0300791Y0182605I0000000J0000591D01*
G01*
G37*
G36*
G01*
X0320280Y0182605D02*
X0320280Y0183786D01*
G75*
G02*
X0320870Y0184377I0000591J0000000D01*
G01*
X0327366Y0184377D01*
G75*
G02*
X0327957Y0183786I0000000J-000591D01*
G01*
X0327957Y0182605D01*
G75*
G02*
X0327366Y0182014I-000591J0000000D01*
G01*
X0320870Y0182014D01*
G75*
G02*
X0320280Y0182605I0000000J0000591D01*
G01*
G37*
G36*
G01*
X0320280Y0187605D02*
X0320280Y0188786D01*
G75*
G02*
X0320870Y0189377I0000591J0000000D01*
G01*
X0327366Y0189377D01*
G75*
G02*
X0327957Y0188786I0000000J-000591D01*
G01*
X0327957Y0187605D01*
G75*
G02*
X0327366Y0187014I-000591J0000000D01*
G01*
X0320870Y0187014D01*
G75*
G02*
X0320280Y0187605I0000000J0000591D01*
G01*
G37*
G36*
G01*
X0320280Y0192605D02*
X0320280Y0193786D01*
G75*
G02*
X0320870Y0194377I0000591J0000000D01*
G01*
X0327366Y0194377D01*
G75*
G02*
X0327957Y0193786I0000000J-000591D01*
G01*
X0327957Y0192605D01*
G75*
G02*
X0327366Y0192014I-000591J0000000D01*
G01*
X0320870Y0192014D01*
G75*
G02*
X0320280Y0192605I0000000J0000591D01*
G01*
G37*
G36*
G01*
X0320280Y0197605D02*
X0320280Y0198786D01*
G75*
G02*
X0320870Y0199377I0000591J0000000D01*
G01*
X0327366Y0199377D01*
G75*
G02*
X0327957Y0198786I0000000J-000591D01*
G01*
X0327957Y0197605D01*
G75*
G02*
X0327366Y0197014I-000591J0000000D01*
G01*
X0320870Y0197014D01*
G75*
G02*
X0320280Y0197605I0000000J0000591D01*
G01*
G37*
G36*
G01*
X0363331Y0276677D02*
X0363331Y0279748D01*
G75*
G02*
X0363606Y0280024I0000276J0000000D01*
G01*
X0365811Y0280024D01*
G75*
G02*
X0366087Y0279748I0000000J-000276D01*
G01*
X0366087Y0276677D01*
G75*
G02*
X0365811Y0276402I-000276J0000000D01*
G01*
X0363606Y0276402D01*
G75*
G02*
X0363331Y0276677I0000000J0000276D01*
G01*
G37*
G36*
G01*
X0369630Y0276677D02*
X0369630Y0279748D01*
G75*
G02*
X0369906Y0280024I0000276J0000000D01*
G01*
X0372110Y0280024D01*
G75*
G02*
X0372386Y0279748I0000000J-000276D01*
G01*
X0372386Y0276677D01*
G75*
G02*
X0372110Y0276402I-000276J0000000D01*
G01*
X0369906Y0276402D01*
G75*
G02*
X0369630Y0276677I0000000J0000276D01*
G01*
G37*
G36*
G01*
X0363331Y0284351D02*
X0363331Y0287421D01*
G75*
G02*
X0363606Y0287697I0000276J0000000D01*
G01*
X0365811Y0287697D01*
G75*
G02*
X0366087Y0287421I0000000J-000276D01*
G01*
X0366087Y0284351D01*
G75*
G02*
X0365811Y0284075I-000276J0000000D01*
G01*
X0363606Y0284075D01*
G75*
G02*
X0363331Y0284351I0000000J0000276D01*
G01*
G37*
G36*
G01*
X0369630Y0284351D02*
X0369630Y0287421D01*
G75*
G02*
X0369906Y0287697I0000276J0000000D01*
G01*
X0372110Y0287697D01*
G75*
G02*
X0372386Y0287421I0000000J-000276D01*
G01*
X0372386Y0284351D01*
G75*
G02*
X0372110Y0284075I-000276J0000000D01*
G01*
X0369906Y0284075D01*
G75*
G02*
X0369630Y0284351I0000000J0000276D01*
G01*
G37*
G36*
G01*
X0348646Y0283781D02*
X0348646Y0285799D01*
G75*
G02*
X0349507Y0286660I0000861J0000000D01*
G01*
X0351229Y0286660D01*
G75*
G02*
X0352091Y0285799I0000000J-000861D01*
G01*
X0352091Y0283781D01*
G75*
G02*
X0351229Y0282920I-000861J0000000D01*
G01*
X0349507Y0282920D01*
G75*
G02*
X0348646Y0283781I0000000J0000861D01*
G01*
G37*
G36*
G01*
X0354846Y0283781D02*
X0354846Y0285799D01*
G75*
G02*
X0355708Y0286660I0000861J0000000D01*
G01*
X0357430Y0286660D01*
G75*
G02*
X0358291Y0285799I0000000J-000861D01*
G01*
X0358291Y0283781D01*
G75*
G02*
X0357430Y0282920I-000861J0000000D01*
G01*
X0355708Y0282920D01*
G75*
G02*
X0354846Y0283781I0000000J0000861D01*
G01*
G37*
G36*
G01*
X0348606Y0332251D02*
X0348606Y0343471D01*
G75*
G02*
X0349591Y0344455I0000984J0000000D01*
G01*
X0352445Y0344455D01*
G75*
G02*
X0353429Y0343471I0000000J-000984D01*
G01*
X0353429Y0332251D01*
G75*
G02*
X0352445Y0331266I-000984J0000000D01*
G01*
X0349591Y0331266D01*
G75*
G02*
X0348606Y0332251I0000000J0000984D01*
G01*
G37*
G36*
G01*
X0371933Y0332251D02*
X0371933Y0343471D01*
G75*
G02*
X0372917Y0344455I0000984J0000000D01*
G01*
X0375772Y0344455D01*
G75*
G02*
X0376756Y0343471I0000000J-000984D01*
G01*
X0376756Y0332251D01*
G75*
G02*
X0375772Y0331266I-000984J0000000D01*
G01*
X0372917Y0331266D01*
G75*
G02*
X0371933Y0332251I0000000J0000984D01*
G01*
G37*
G36*
G01*
X0342957Y0163825D02*
X0342957Y0165006D01*
G75*
G02*
X0343547Y0165597I0000591J0000000D01*
G01*
X0350043Y0165597D01*
G75*
G02*
X0350634Y0165006I0000000J-000591D01*
G01*
X0350634Y0163825D01*
G75*
G02*
X0350043Y0163235I-000591J0000000D01*
G01*
X0343547Y0163235D01*
G75*
G02*
X0342957Y0163825I0000000J0000591D01*
G01*
G37*
G36*
G01*
X0342957Y0158825D02*
X0342957Y0160006D01*
G75*
G02*
X0343547Y0160597I0000591J0000000D01*
G01*
X0350043Y0160597D01*
G75*
G02*
X0350634Y0160006I0000000J-000591D01*
G01*
X0350634Y0158825D01*
G75*
G02*
X0350043Y0158235I-000591J0000000D01*
G01*
X0343547Y0158235D01*
G75*
G02*
X0342957Y0158825I0000000J0000591D01*
G01*
G37*
G36*
G01*
X0342957Y0153825D02*
X0342957Y0155006D01*
G75*
G02*
X0343547Y0155597I0000591J0000000D01*
G01*
X0350043Y0155597D01*
G75*
G02*
X0350634Y0155006I0000000J-000591D01*
G01*
X0350634Y0153825D01*
G75*
G02*
X0350043Y0153235I-000591J0000000D01*
G01*
X0343547Y0153235D01*
G75*
G02*
X0342957Y0153825I0000000J0000591D01*
G01*
G37*
G36*
G01*
X0342957Y0148825D02*
X0342957Y0150006D01*
G75*
G02*
X0343547Y0150597I0000591J0000000D01*
G01*
X0350043Y0150597D01*
G75*
G02*
X0350634Y0150006I0000000J-000591D01*
G01*
X0350634Y0148825D01*
G75*
G02*
X0350043Y0148235I-000591J0000000D01*
G01*
X0343547Y0148235D01*
G75*
G02*
X0342957Y0148825I0000000J0000591D01*
G01*
G37*
G36*
G01*
X0362445Y0148825D02*
X0362445Y0150006D01*
G75*
G02*
X0363035Y0150597I0000591J0000000D01*
G01*
X0369531Y0150597D01*
G75*
G02*
X0370122Y0150006I0000000J-000591D01*
G01*
X0370122Y0148825D01*
G75*
G02*
X0369531Y0148235I-000591J0000000D01*
G01*
X0363035Y0148235D01*
G75*
G02*
X0362445Y0148825I0000000J0000591D01*
G01*
G37*
G36*
G01*
X0362445Y0153825D02*
X0362445Y0155006D01*
G75*
G02*
X0363035Y0155597I0000591J0000000D01*
G01*
X0369531Y0155597D01*
G75*
G02*
X0370122Y0155006I0000000J-000591D01*
G01*
X0370122Y0153825D01*
G75*
G02*
X0369531Y0153235I-000591J0000000D01*
G01*
X0363035Y0153235D01*
G75*
G02*
X0362445Y0153825I0000000J0000591D01*
G01*
G37*
G36*
G01*
X0362445Y0158825D02*
X0362445Y0160006D01*
G75*
G02*
X0363035Y0160597I0000591J0000000D01*
G01*
X0369531Y0160597D01*
G75*
G02*
X0370122Y0160006I0000000J-000591D01*
G01*
X0370122Y0158825D01*
G75*
G02*
X0369531Y0158235I-000591J0000000D01*
G01*
X0363035Y0158235D01*
G75*
G02*
X0362445Y0158825I0000000J0000591D01*
G01*
G37*
G36*
G01*
X0362445Y0163825D02*
X0362445Y0165006D01*
G75*
G02*
X0363035Y0165597I0000591J0000000D01*
G01*
X0369531Y0165597D01*
G75*
G02*
X0370122Y0165006I0000000J-000591D01*
G01*
X0370122Y0163825D01*
G75*
G02*
X0369531Y0163235I-000591J0000000D01*
G01*
X0363035Y0163235D01*
G75*
G02*
X0362445Y0163825I0000000J0000591D01*
G01*
G37*
G36*
G01*
X0300535Y0136069D02*
X0300535Y0140085D01*
G75*
G02*
X0300890Y0140440I0000354J0000000D01*
G01*
X0303724Y0140440D01*
G75*
G02*
X0304079Y0140085I0000000J-000354D01*
G01*
X0304079Y0136069D01*
G75*
G02*
X0303724Y0135715I-000354J0000000D01*
G01*
X0300890Y0135715D01*
G75*
G02*
X0300535Y0136069I0000000J0000354D01*
G01*
G37*
G36*
G01*
X0313528Y0136069D02*
X0313528Y0140085D01*
G75*
G02*
X0313882Y0140440I0000354J0000000D01*
G01*
X0316717Y0140440D01*
G75*
G02*
X0317071Y0140085I0000000J-000354D01*
G01*
X0317071Y0136069D01*
G75*
G02*
X0316717Y0135715I-000354J0000000D01*
G01*
X0313882Y0135715D01*
G75*
G02*
X0313528Y0136069I0000000J0000354D01*
G01*
G37*
G36*
G01*
X0300535Y0123786D02*
X0300535Y0127802D01*
G75*
G02*
X0300890Y0128156I0000354J0000000D01*
G01*
X0303724Y0128156D01*
G75*
G02*
X0304079Y0127802I0000000J-000354D01*
G01*
X0304079Y0123786D01*
G75*
G02*
X0303724Y0123432I-000354J0000000D01*
G01*
X0300890Y0123432D01*
G75*
G02*
X0300535Y0123786I0000000J0000354D01*
G01*
G37*
G36*
G01*
X0313528Y0123786D02*
X0313528Y0127802D01*
G75*
G02*
X0313882Y0128156I0000354J0000000D01*
G01*
X0316717Y0128156D01*
G75*
G02*
X0317071Y0127802I0000000J-000354D01*
G01*
X0317071Y0123786D01*
G75*
G02*
X0316717Y0123432I-000354J0000000D01*
G01*
X0313882Y0123432D01*
G75*
G02*
X0313528Y0123786I0000000J0000354D01*
G01*
G37*
G36*
G01*
X0348646Y0254135D02*
X0348646Y0256153D01*
G75*
G02*
X0349507Y0257014I0000861J0000000D01*
G01*
X0351229Y0257014D01*
G75*
G02*
X0352091Y0256153I0000000J-000861D01*
G01*
X0352091Y0254135D01*
G75*
G02*
X0351229Y0253274I-000861J0000000D01*
G01*
X0349507Y0253274D01*
G75*
G02*
X0348646Y0254135I0000000J0000861D01*
G01*
G37*
G36*
G01*
X0354846Y0254135D02*
X0354846Y0256153D01*
G75*
G02*
X0355708Y0257014I0000861J0000000D01*
G01*
X0357430Y0257014D01*
G75*
G02*
X0358291Y0256153I0000000J-000861D01*
G01*
X0358291Y0254135D01*
G75*
G02*
X0357430Y0253274I-000861J0000000D01*
G01*
X0355708Y0253274D01*
G75*
G02*
X0354846Y0254135I0000000J0000861D01*
G01*
G37*
G36*
G01*
X0348646Y0264017D02*
X0348646Y0266035D01*
G75*
G02*
X0349507Y0266896I0000861J0000000D01*
G01*
X0351229Y0266896D01*
G75*
G02*
X0352091Y0266035I0000000J-000861D01*
G01*
X0352091Y0264017D01*
G75*
G02*
X0351229Y0263156I-000861J0000000D01*
G01*
X0349507Y0263156D01*
G75*
G02*
X0348646Y0264017I0000000J0000861D01*
G01*
G37*
G36*
G01*
X0354846Y0264017D02*
X0354846Y0266035D01*
G75*
G02*
X0355708Y0266896I0000861J0000000D01*
G01*
X0357430Y0266896D01*
G75*
G02*
X0358291Y0266035I0000000J-000861D01*
G01*
X0358291Y0264017D01*
G75*
G02*
X0357430Y0263156I-000861J0000000D01*
G01*
X0355708Y0263156D01*
G75*
G02*
X0354846Y0264017I0000000J0000861D01*
G01*
G37*
G36*
G01*
X0300791Y0223510D02*
X0300791Y0224692D01*
G75*
G02*
X0301382Y0225282I0000591J0000000D01*
G01*
X0307878Y0225282D01*
G75*
G02*
X0308469Y0224692I0000000J-000591D01*
G01*
X0308469Y0223510D01*
G75*
G02*
X0307878Y0222920I-000591J0000000D01*
G01*
X0301382Y0222920D01*
G75*
G02*
X0300791Y0223510I0000000J0000591D01*
G01*
G37*
G36*
G01*
X0300791Y0218510D02*
X0300791Y0219692D01*
G75*
G02*
X0301382Y0220282I0000591J0000000D01*
G01*
X0307878Y0220282D01*
G75*
G02*
X0308469Y0219692I0000000J-000591D01*
G01*
X0308469Y0218510D01*
G75*
G02*
X0307878Y0217920I-000591J0000000D01*
G01*
X0301382Y0217920D01*
G75*
G02*
X0300791Y0218510I0000000J0000591D01*
G01*
G37*
G36*
G01*
X0300791Y0213510D02*
X0300791Y0214692D01*
G75*
G02*
X0301382Y0215282I0000591J0000000D01*
G01*
X0307878Y0215282D01*
G75*
G02*
X0308469Y0214692I0000000J-000591D01*
G01*
X0308469Y0213510D01*
G75*
G02*
X0307878Y0212920I-000591J0000000D01*
G01*
X0301382Y0212920D01*
G75*
G02*
X0300791Y0213510I0000000J0000591D01*
G01*
G37*
G36*
G01*
X0300791Y0208510D02*
X0300791Y0209692D01*
G75*
G02*
X0301382Y0210282I0000591J0000000D01*
G01*
X0307878Y0210282D01*
G75*
G02*
X0308469Y0209692I0000000J-000591D01*
G01*
X0308469Y0208510D01*
G75*
G02*
X0307878Y0207920I-000591J0000000D01*
G01*
X0301382Y0207920D01*
G75*
G02*
X0300791Y0208510I0000000J0000591D01*
G01*
G37*
G36*
G01*
X0320280Y0208510D02*
X0320280Y0209692D01*
G75*
G02*
X0320870Y0210282I0000591J0000000D01*
G01*
X0327366Y0210282D01*
G75*
G02*
X0327957Y0209692I0000000J-000591D01*
G01*
X0327957Y0208510D01*
G75*
G02*
X0327366Y0207920I-000591J0000000D01*
G01*
X0320870Y0207920D01*
G75*
G02*
X0320280Y0208510I0000000J0000591D01*
G01*
G37*
G36*
G01*
X0320280Y0213510D02*
X0320280Y0214692D01*
G75*
G02*
X0320870Y0215282I0000591J0000000D01*
G01*
X0327366Y0215282D01*
G75*
G02*
X0327957Y0214692I0000000J-000591D01*
G01*
X0327957Y0213510D01*
G75*
G02*
X0327366Y0212920I-000591J0000000D01*
G01*
X0320870Y0212920D01*
G75*
G02*
X0320280Y0213510I0000000J0000591D01*
G01*
G37*
G36*
G01*
X0320280Y0218510D02*
X0320280Y0219692D01*
G75*
G02*
X0320870Y0220282I0000591J0000000D01*
G01*
X0327366Y0220282D01*
G75*
G02*
X0327957Y0219692I0000000J-000591D01*
G01*
X0327957Y0218510D01*
G75*
G02*
X0327366Y0217920I-000591J0000000D01*
G01*
X0320870Y0217920D01*
G75*
G02*
X0320280Y0218510I0000000J0000591D01*
G01*
G37*
G36*
G01*
X0320280Y0223510D02*
X0320280Y0224692D01*
G75*
G02*
X0320870Y0225282I0000591J0000000D01*
G01*
X0327366Y0225282D01*
G75*
G02*
X0327957Y0224692I0000000J-000591D01*
G01*
X0327957Y0223510D01*
G75*
G02*
X0327366Y0222920I-000591J0000000D01*
G01*
X0320870Y0222920D01*
G75*
G02*
X0320280Y0223510I0000000J0000591D01*
G01*
G37*
G36*
G01*
X0300791Y0261129D02*
X0300791Y0263884D01*
G75*
G02*
X0301776Y0264869I0000984J0000000D01*
G01*
X0308469Y0264869D01*
G75*
G02*
X0309453Y0263884I0000000J-000984D01*
G01*
X0309453Y0261129D01*
G75*
G02*
X0308469Y0260144I-000984J0000000D01*
G01*
X0301776Y0260144D01*
G75*
G02*
X0300791Y0261129I0000000J0000984D01*
G01*
G37*
G36*
G01*
X0317327Y0255105D02*
X0317327Y0263963D01*
G75*
G02*
X0318311Y0264947I0000984J0000000D01*
G01*
X0328350Y0264947D01*
G75*
G02*
X0329335Y0263963I0000000J-000984D01*
G01*
X0329335Y0255105D01*
G75*
G02*
X0328350Y0254121I-000984J0000000D01*
G01*
X0318311Y0254121D01*
G75*
G02*
X0317327Y0255105I0000000J0000984D01*
G01*
G37*
G36*
G01*
X0317327Y0243097D02*
X0317327Y0251955D01*
G75*
G02*
X0318311Y0252940I0000984J0000000D01*
G01*
X0328350Y0252940D01*
G75*
G02*
X0329335Y0251955I0000000J-000984D01*
G01*
X0329335Y0243097D01*
G75*
G02*
X0328350Y0242113I-000984J0000000D01*
G01*
X0318311Y0242113D01*
G75*
G02*
X0317327Y0243097I0000000J0000984D01*
G01*
G37*
G36*
G01*
X0330516Y0255105D02*
X0330516Y0263963D01*
G75*
G02*
X0331500Y0264947I0000984J0000000D01*
G01*
X0341539Y0264947D01*
G75*
G02*
X0342524Y0263963I0000000J-000984D01*
G01*
X0342524Y0255105D01*
G75*
G02*
X0341539Y0254121I-000984J0000000D01*
G01*
X0331500Y0254121D01*
G75*
G02*
X0330516Y0255105I0000000J0000984D01*
G01*
G37*
G36*
G01*
X0330516Y0243097D02*
X0330516Y0251955D01*
G75*
G02*
X0331500Y0252940I0000984J0000000D01*
G01*
X0341539Y0252940D01*
G75*
G02*
X0342524Y0251955I0000000J-000984D01*
G01*
X0342524Y0243097D01*
G75*
G02*
X0341539Y0242113I-000984J0000000D01*
G01*
X0331500Y0242113D01*
G75*
G02*
X0330516Y0243097I0000000J0000984D01*
G01*
G37*
G36*
G01*
X0300791Y0243176D02*
X0300791Y0245932D01*
G75*
G02*
X0301776Y0246916I0000984J0000000D01*
G01*
X0308469Y0246916D01*
G75*
G02*
X0309453Y0245932I0000000J-000984D01*
G01*
X0309453Y0243176D01*
G75*
G02*
X0308469Y0242192I-000984J0000000D01*
G01*
X0301776Y0242192D01*
G75*
G02*
X0300791Y0243176I0000000J0000984D01*
G01*
G37*
X0207421Y0164902D02*
%LPD*%
G01*
D58*
X0241279Y0177894D03*
X0241279Y0175926D03*
X0241279Y0173957D03*
X0241279Y0171989D03*
X0241279Y0170020D03*
X0258602Y0170020D03*
X0258602Y0171989D03*
X0258602Y0173957D03*
X0258602Y0175926D03*
X0258602Y0177894D03*
G36*
G01*
X0248799Y0191083D02*
X0251870Y0191083D01*
G75*
G02*
X0252145Y0190808I0000000J-000276D01*
G01*
X0252145Y0188603D01*
G75*
G02*
X0251870Y0188327I-000276J0000000D01*
G01*
X0248799Y0188327D01*
G75*
G02*
X0248523Y0188603I0000000J0000276D01*
G01*
X0248523Y0190808D01*
G75*
G02*
X0248799Y0191083I0000276J0000000D01*
G01*
G37*
G36*
G01*
X0248799Y0184784D02*
X0251870Y0184784D01*
G75*
G02*
X0252145Y0184508I0000000J-000276D01*
G01*
X0252145Y0182304D01*
G75*
G02*
X0251870Y0182028I-000276J0000000D01*
G01*
X0248799Y0182028D01*
G75*
G02*
X0248523Y0182304I0000000J0000276D01*
G01*
X0248523Y0184508D01*
G75*
G02*
X0248799Y0184784I0000276J0000000D01*
G01*
G37*
G36*
G01*
X0263130Y0197737D02*
X0263130Y0194666D01*
G75*
G02*
X0262854Y0194390I-000276J0000000D01*
G01*
X0260649Y0194390D01*
G75*
G02*
X0260374Y0194666I0000000J0000276D01*
G01*
X0260374Y0197737D01*
G75*
G02*
X0260649Y0198012I0000276J0000000D01*
G01*
X0262854Y0198012D01*
G75*
G02*
X0263130Y0197737I0000000J-000276D01*
G01*
G37*
G36*
G01*
X0256830Y0197737D02*
X0256830Y0194666D01*
G75*
G02*
X0256555Y0194390I-000276J0000000D01*
G01*
X0254350Y0194390D01*
G75*
G02*
X0254075Y0194666I0000000J0000276D01*
G01*
X0254075Y0197737D01*
G75*
G02*
X0254350Y0198012I0000276J0000000D01*
G01*
X0256555Y0198012D01*
G75*
G02*
X0256830Y0197737I0000000J-000276D01*
G01*
G37*
G36*
G01*
X0242893Y0191083D02*
X0245964Y0191083D01*
G75*
G02*
X0246240Y0190808I0000000J-000276D01*
G01*
X0246240Y0188603D01*
G75*
G02*
X0245964Y0188327I-000276J0000000D01*
G01*
X0242893Y0188327D01*
G75*
G02*
X0242618Y0188603I0000000J0000276D01*
G01*
X0242618Y0190808D01*
G75*
G02*
X0242893Y0191083I0000276J0000000D01*
G01*
G37*
G36*
G01*
X0242893Y0184784D02*
X0245964Y0184784D01*
G75*
G02*
X0246240Y0184508I0000000J-000276D01*
G01*
X0246240Y0182304D01*
G75*
G02*
X0245964Y0182028I-000276J0000000D01*
G01*
X0242893Y0182028D01*
G75*
G02*
X0242618Y0182304I0000000J0000276D01*
G01*
X0242618Y0184508D01*
G75*
G02*
X0242893Y0184784I0000276J0000000D01*
G01*
G37*
G36*
G01*
X0251220Y0197407D02*
X0251220Y0195389D01*
G75*
G02*
X0250359Y0194528I-000861J0000000D01*
G01*
X0248637Y0194528D01*
G75*
G02*
X0247775Y0195389I0000000J0000861D01*
G01*
X0247775Y0197407D01*
G75*
G02*
X0248637Y0198268I0000861J0000000D01*
G01*
X0250359Y0198268D01*
G75*
G02*
X0251220Y0197407I0000000J-000861D01*
G01*
G37*
G36*
G01*
X0245019Y0197407D02*
X0245019Y0195389D01*
G75*
G02*
X0244158Y0194528I-000861J0000000D01*
G01*
X0242436Y0194528D01*
G75*
G02*
X0241575Y0195389I0000000J0000861D01*
G01*
X0241575Y0197407D01*
G75*
G02*
X0242436Y0198268I0000861J0000000D01*
G01*
X0244158Y0198268D01*
G75*
G02*
X0245019Y0197407I0000000J-000861D01*
G01*
G37*
G36*
G01*
X0257165Y0190445D02*
X0257165Y0187768D01*
G75*
G02*
X0256830Y0187433I-000335J0000000D01*
G01*
X0254153Y0187433D01*
G75*
G02*
X0253819Y0187768I0000000J0000335D01*
G01*
X0253819Y0190445D01*
G75*
G02*
X0254153Y0190780I0000335J0000000D01*
G01*
X0256830Y0190780D01*
G75*
G02*
X0257165Y0190445I0000000J-000335D01*
G01*
G37*
G36*
G01*
X0263386Y0190445D02*
X0263386Y0187768D01*
G75*
G02*
X0263051Y0187433I-000335J0000000D01*
G01*
X0260374Y0187433D01*
G75*
G02*
X0260039Y0187768I0000000J0000335D01*
G01*
X0260039Y0190445D01*
G75*
G02*
X0260374Y0190780I0000335J0000000D01*
G01*
X0263051Y0190780D01*
G75*
G02*
X0263386Y0190445I0000000J-000335D01*
G01*
G37*
G36*
G01*
X0263386Y0185138D02*
X0263386Y0182461D01*
G75*
G02*
X0263051Y0182126I-000335J0000000D01*
G01*
X0260374Y0182126D01*
G75*
G02*
X0260039Y0182461I0000000J0000335D01*
G01*
X0260039Y0185138D01*
G75*
G02*
X0260374Y0185473I0000335J0000000D01*
G01*
X0263051Y0185473D01*
G75*
G02*
X0263386Y0185138I0000000J-000335D01*
G01*
G37*
G36*
G01*
X0257165Y0185138D02*
X0257165Y0182461D01*
G75*
G02*
X0256830Y0182126I-000335J0000000D01*
G01*
X0254153Y0182126D01*
G75*
G02*
X0253819Y0182461I0000000J0000335D01*
G01*
X0253819Y0185138D01*
G75*
G02*
X0254153Y0185473I0000335J0000000D01*
G01*
X0256830Y0185473D01*
G75*
G02*
X0257165Y0185138I0000000J-000335D01*
G01*
G37*
G36*
G01*
X0237972Y0191339D02*
X0240649Y0191339D01*
G75*
G02*
X0240984Y0191004I0000000J-000335D01*
G01*
X0240984Y0188327D01*
G75*
G02*
X0240649Y0187993I-000335J0000000D01*
G01*
X0237972Y0187993D01*
G75*
G02*
X0237638Y0188327I0000000J0000335D01*
G01*
X0237638Y0191004D01*
G75*
G02*
X0237972Y0191339I0000335J0000000D01*
G01*
G37*
G36*
G01*
X0237972Y0185119D02*
X0240649Y0185119D01*
G75*
G02*
X0240984Y0184784I0000000J-000335D01*
G01*
X0240984Y0182107D01*
G75*
G02*
X0240649Y0181772I-000335J0000000D01*
G01*
X0237972Y0181772D01*
G75*
G02*
X0237638Y0182107I0000000J0000335D01*
G01*
X0237638Y0184784D01*
G75*
G02*
X0237972Y0185119I0000335J0000000D01*
G01*
G37*
X0009496Y0068685D02*
G01*
G75*
D15*
X0009890Y0096244D02*
D03*
D14*
X0009890Y0073213D02*
D03*
D17*
X0009890Y0120653D02*
D03*
D24*
X0175638Y0072622D02*
D03*
D19*
X0022488Y0226165D02*
D03*
D20*
X0055953Y0226165D02*
D03*
D21*
X0094732Y0226165D02*
D03*
D23*
X0175638Y0094866D02*
D03*
D22*
X0175638Y0220260D02*
D03*
D18*
X0016976Y0069079D02*
D03*
D16*
X0009890Y0206480D02*
D03*
D62*
X0077901Y0219768D02*
D03*
X0079870Y0219768D02*
D03*
X0081838Y0219768D02*
D03*
X0083807Y0219768D02*
D03*
X0085775Y0219768D02*
D03*
X0087744Y0219768D02*
D03*
X0089712Y0219768D02*
D03*
X0091681Y0219768D02*
D03*
X0093649Y0219768D02*
D03*
X0095618Y0219768D02*
D03*
X0097586Y0219768D02*
D03*
X0099555Y0219768D02*
D03*
X0101524Y0219768D02*
D03*
X0103492Y0219768D02*
D03*
X0105461Y0219768D02*
D03*
X0107429Y0219768D02*
D03*
X0109398Y0219768D02*
D03*
X0111366Y0219768D02*
D03*
X0113335Y0219768D02*
D03*
X0115303Y0219768D02*
D03*
X0117272Y0219768D02*
D03*
X0119240Y0219768D02*
D03*
X0121209Y0219768D02*
D03*
X0123177Y0219768D02*
D03*
X0125146Y0219768D02*
D03*
X0127114Y0219768D02*
D03*
X0129083Y0219768D02*
D03*
X0131051Y0219768D02*
D03*
X0133020Y0219768D02*
D03*
X0134988Y0219768D02*
D03*
X0136957Y0219768D02*
D03*
X0138925Y0219768D02*
D03*
X0140894Y0219768D02*
D03*
X0142862Y0219768D02*
D03*
X0144831Y0219768D02*
D03*
X0146799Y0219768D02*
D03*
X0146799Y0136106D02*
D03*
X0144831Y0136106D02*
D03*
X0142862Y0136106D02*
D03*
X0140894Y0136106D02*
D03*
X0138925Y0136106D02*
D03*
X0136957Y0136106D02*
D03*
X0134988Y0136106D02*
D03*
X0133020Y0136106D02*
D03*
X0131051Y0136106D02*
D03*
X0129083Y0136106D02*
D03*
X0127114Y0136106D02*
D03*
X0125146Y0136106D02*
D03*
X0123177Y0136106D02*
D03*
X0121209Y0136106D02*
D03*
X0119240Y0136106D02*
D03*
X0117272Y0136106D02*
D03*
X0115303Y0136106D02*
D03*
X0113335Y0136106D02*
D03*
X0111366Y0136106D02*
D03*
X0109398Y0136106D02*
D03*
X0107429Y0136106D02*
D03*
X0105461Y0136106D02*
D03*
X0103492Y0136106D02*
D03*
X0101524Y0136106D02*
D03*
X0099555Y0136106D02*
D03*
X0097586Y0136106D02*
D03*
X0095618Y0136106D02*
D03*
X0093649Y0136106D02*
D03*
X0091681Y0136106D02*
D03*
X0089712Y0136106D02*
D03*
X0087744Y0136106D02*
D03*
X0085775Y0136106D02*
D03*
X0083807Y0136106D02*
D03*
X0081838Y0136106D02*
D03*
X0079870Y0136106D02*
D03*
X0077901Y0136106D02*
D03*
D63*
X0154181Y0212386D02*
D03*
X0154181Y0210417D02*
D03*
X0154181Y0208449D02*
D03*
X0154181Y0206480D02*
D03*
X0154181Y0204512D02*
D03*
X0154181Y0202543D02*
D03*
X0154181Y0200575D02*
D03*
X0154181Y0198606D02*
D03*
X0154181Y0196638D02*
D03*
X0154181Y0194669D02*
D03*
X0154181Y0192701D02*
D03*
X0154181Y0190732D02*
D03*
X0154181Y0188764D02*
D03*
X0154181Y0186795D02*
D03*
X0154181Y0184827D02*
D03*
X0154181Y0182858D02*
D03*
X0154181Y0180890D02*
D03*
X0154181Y0178921D02*
D03*
X0154181Y0176953D02*
D03*
X0154181Y0174984D02*
D03*
X0154181Y0173016D02*
D03*
X0154181Y0171047D02*
D03*
X0154181Y0169079D02*
D03*
X0154181Y0167110D02*
D03*
X0154181Y0165142D02*
D03*
X0154181Y0163173D02*
D03*
X0154181Y0161205D02*
D03*
X0154181Y0159236D02*
D03*
X0154181Y0157268D02*
D03*
X0154181Y0155299D02*
D03*
X0154181Y0153331D02*
D03*
X0154181Y0151362D02*
D03*
X0154181Y0149394D02*
D03*
X0154181Y0147425D02*
D03*
X0154181Y0145457D02*
D03*
X0154181Y0143488D02*
D03*
X0070520Y0143488D02*
D03*
X0070520Y0145457D02*
D03*
X0070520Y0147425D02*
D03*
X0070520Y0149394D02*
D03*
X0070520Y0151362D02*
D03*
X0070520Y0153331D02*
D03*
X0070520Y0155299D02*
D03*
X0070520Y0157268D02*
D03*
X0070520Y0159236D02*
D03*
X0070520Y0161205D02*
D03*
X0070520Y0163173D02*
D03*
X0070520Y0165142D02*
D03*
X0070520Y0167110D02*
D03*
X0070520Y0169079D02*
D03*
X0070520Y0171047D02*
D03*
X0070520Y0173016D02*
D03*
X0070520Y0174984D02*
D03*
X0070520Y0176953D02*
D03*
X0070520Y0178921D02*
D03*
X0070520Y0180890D02*
D03*
X0070520Y0182858D02*
D03*
X0070520Y0184827D02*
D03*
X0070520Y0186795D02*
D03*
X0070520Y0188764D02*
D03*
X0070520Y0190732D02*
D03*
X0070520Y0192701D02*
D03*
X0070520Y0194669D02*
D03*
X0070520Y0196638D02*
D03*
X0070520Y0198606D02*
D03*
X0070520Y0200575D02*
D03*
X0070520Y0202543D02*
D03*
X0070520Y0204512D02*
D03*
X0070520Y0206480D02*
D03*
X0070520Y0208449D02*
D03*
X0070520Y0210417D02*
D03*
X0070520Y0212386D02*
D03*
D64*
X0170526Y0196197D02*
D03*
X0161274Y0199937D02*
D03*
D64*
X0170526Y0203677D02*
D03*
D65*
X0016976Y0193882D02*
D03*
X0035087Y0193882D02*
D03*
D66*
X0026031Y0193882D02*
D03*
D67*
X0026031Y0218291D02*
D03*
D68*
X0047291Y0169866D02*
D03*
X0053984Y0169866D02*
D03*
X0053984Y0176953D02*
D03*
X0047291Y0176953D02*
D03*
X0047291Y0184039D02*
D03*
X0053984Y0184039D02*
D03*
X0053984Y0191126D02*
D03*
X0047291Y0191126D02*
D03*
X0037449Y0162386D02*
D03*
X0030756Y0162386D02*
D03*
X0053984Y0162386D02*
D03*
X0047291Y0162386D02*
D03*
X0037449Y0155299D02*
D03*
X0030756Y0155299D02*
D03*
X0053984Y0155299D02*
D03*
X0047291Y0155299D02*
D03*
X0037449Y0148213D02*
D03*
X0030756Y0148213D02*
D03*
X0053984Y0148213D02*
D03*
X0047291Y0148213D02*
D03*
X0030756Y0141126D02*
D03*
X0037449Y0141126D02*
D03*
X0053984Y0141126D02*
D03*
X0047291Y0141126D02*
D03*
D69*
X0169927Y0220824D02*
D03*
X0166187Y0220824D02*
D03*
X0162446Y0220824D02*
D03*
X0162446Y0211375D02*
D03*
X0166187Y0211375D02*
D03*
X0169927Y0211375D02*
D03*
D70*
X0014220Y0076165D02*
D03*
X0014220Y0080102D02*
D03*
X0160677Y0089157D02*
D03*
X0160677Y0085220D02*
D03*
X0057134Y0077740D02*
D03*
X0057134Y0073803D02*
D03*
X0071307Y0077740D02*
D03*
X0071307Y0073803D02*
D03*
X0090205Y0081677D02*
D03*
X0090205Y0077740D02*
D03*
X0090205Y0073803D02*
D03*
X0090205Y0077740D02*
D03*
X0099654Y0077740D02*
D03*
X0099654Y0081677D02*
D03*
X0099654Y0077740D02*
D03*
X0099654Y0073803D02*
D03*
X0123276Y0081677D02*
D03*
X0123276Y0077740D02*
D03*
X0146898Y0077740D02*
D03*
X0146898Y0081677D02*
D03*
X0146898Y0077740D02*
D03*
X0146898Y0073803D02*
D03*
X0063532Y0191520D02*
D03*
X0063532Y0195457D02*
D03*
X0151622Y0081283D02*
D03*
X0151622Y0085220D02*
D03*
X0014220Y0096835D02*
D03*
X0014220Y0092898D02*
D03*
X0025638Y0132858D02*
D03*
X0025638Y0136795D02*
D03*
X0170126Y0085220D02*
D03*
X0170126Y0089157D02*
D03*
X0165401Y0085220D02*
D03*
X0165401Y0089157D02*
D03*
X0155953Y0085220D02*
D03*
X0155953Y0089157D02*
D03*
X0019339Y0077740D02*
D03*
X0019339Y0081677D02*
D03*
X0024063Y0077740D02*
D03*
X0024063Y0081677D02*
D03*
X0028787Y0077740D02*
D03*
X0028787Y0081677D02*
D03*
X0033512Y0077740D02*
D03*
X0033512Y0081677D02*
D03*
X0019339Y0077740D02*
D03*
X0019339Y0073803D02*
D03*
X0024063Y0077740D02*
D03*
X0024063Y0073803D02*
D03*
X0028787Y0077740D02*
D03*
X0028787Y0073803D02*
D03*
X0033512Y0077740D02*
D03*
X0033512Y0073803D02*
D03*
X0038236Y0077740D02*
D03*
X0038236Y0081677D02*
D03*
X0042961Y0077740D02*
D03*
X0042961Y0081677D02*
D03*
X0047685Y0077740D02*
D03*
X0047685Y0081677D02*
D03*
X0052527Y0077740D02*
D03*
X0052527Y0081677D02*
D03*
X0038236Y0077740D02*
D03*
X0038236Y0073803D02*
D03*
X0042961Y0077740D02*
D03*
X0042961Y0073803D02*
D03*
X0047685Y0077740D02*
D03*
X0047685Y0073803D02*
D03*
X0052409Y0077740D02*
D03*
X0052409Y0073803D02*
D03*
X0057134Y0077740D02*
D03*
X0057134Y0081677D02*
D03*
X0061858Y0077740D02*
D03*
X0061858Y0081677D02*
D03*
X0066583Y0077740D02*
D03*
X0066583Y0081677D02*
D03*
X0071307Y0077740D02*
D03*
X0071307Y0081677D02*
D03*
X0061858Y0077740D02*
D03*
X0061858Y0073803D02*
D03*
X0066583Y0077740D02*
D03*
X0066583Y0073803D02*
D03*
X0076032Y0081677D02*
D03*
X0076032Y0077740D02*
D03*
X0080756Y0081677D02*
D03*
X0080756Y0077740D02*
D03*
X0085480Y0081677D02*
D03*
X0085480Y0077740D02*
D03*
X0076032Y0073803D02*
D03*
X0076032Y0077740D02*
D03*
X0080756Y0073803D02*
D03*
X0080756Y0077740D02*
D03*
X0085480Y0073803D02*
D03*
X0085480Y0077740D02*
D03*
X0094929Y0077740D02*
D03*
X0094929Y0081677D02*
D03*
X0104378Y0077740D02*
D03*
X0104378Y0081677D02*
D03*
X0109102Y0077740D02*
D03*
X0109102Y0081677D02*
D03*
X0094929Y0077740D02*
D03*
X0094929Y0073803D02*
D03*
X0104378Y0077740D02*
D03*
X0104378Y0073803D02*
D03*
X0109102Y0077740D02*
D03*
X0109102Y0073803D02*
D03*
X0113827Y0081677D02*
D03*
X0113827Y0077740D02*
D03*
X0118551Y0081677D02*
D03*
X0118551Y0077740D02*
D03*
X0128000Y0081677D02*
D03*
X0128000Y0077740D02*
D03*
X0113827Y0073803D02*
D03*
X0113827Y0077740D02*
D03*
X0118551Y0073803D02*
D03*
X0118551Y0077740D02*
D03*
X0123276Y0073803D02*
D03*
X0123276Y0077740D02*
D03*
X0128000Y0073803D02*
D03*
X0128000Y0077740D02*
D03*
X0132724Y0077740D02*
D03*
X0132724Y0081677D02*
D03*
X0137449Y0077740D02*
D03*
X0137449Y0081677D02*
D03*
X0142173Y0077740D02*
D03*
X0142173Y0081677D02*
D03*
X0132724Y0077740D02*
D03*
X0132724Y0073803D02*
D03*
X0137449Y0077740D02*
D03*
X0137449Y0073803D02*
D03*
X0142173Y0077740D02*
D03*
X0142173Y0073803D02*
D03*
X0155953Y0081677D02*
D03*
X0155953Y0077740D02*
D03*
X0160677Y0081677D02*
D03*
X0160677Y0077740D02*
D03*
X0165401Y0081677D02*
D03*
X0165401Y0077740D02*
D03*
X0170126Y0081677D02*
D03*
X0170126Y0077740D02*
D03*
X0155953Y0073803D02*
D03*
X0155953Y0077740D02*
D03*
X0160677Y0073803D02*
D03*
X0160677Y0077740D02*
D03*
X0165401Y0073803D02*
D03*
X0165401Y0077740D02*
D03*
X0170126Y0073803D02*
D03*
X0170126Y0077740D02*
D03*
X0014220Y0087779D02*
D03*
X0014220Y0083842D02*
D03*
X0049653Y0200575D02*
D03*
X0049653Y0204512D02*
D03*
D71*
X0068945Y0094472D02*
D03*
X0068945Y0090732D02*
D03*
X0068945Y0086992D02*
D03*
X0059496Y0086992D02*
D03*
X0059496Y0090732D02*
D03*
X0059496Y0094472D02*
D03*
X0031150Y0094472D02*
D03*
X0031150Y0090732D02*
D03*
X0031150Y0086992D02*
D03*
X0021701Y0086992D02*
D03*
X0021701Y0090732D02*
D03*
X0021701Y0094472D02*
D03*
X0050047Y0094472D02*
D03*
X0050047Y0090732D02*
D03*
X0050047Y0086992D02*
D03*
X0040598Y0086992D02*
D03*
X0040598Y0090732D02*
D03*
X0040598Y0094472D02*
D03*
X0087843Y0094472D02*
D03*
X0087843Y0090732D02*
D03*
X0087843Y0086992D02*
D03*
X0078394Y0086992D02*
D03*
X0078394Y0090732D02*
D03*
X0078394Y0094472D02*
D03*
X0106740Y0094472D02*
D03*
X0106740Y0090732D02*
D03*
X0106740Y0086992D02*
D03*
X0097291Y0086992D02*
D03*
X0097291Y0090732D02*
D03*
X0097291Y0094472D02*
D03*
X0125638Y0094472D02*
D03*
X0125638Y0090732D02*
D03*
X0125638Y0086992D02*
D03*
X0116189Y0086992D02*
D03*
X0116189Y0090732D02*
D03*
X0116189Y0094472D02*
D03*
X0144535Y0094472D02*
D03*
X0144535Y0090732D02*
D03*
X0144535Y0086992D02*
D03*
X0135087Y0086992D02*
D03*
X0135087Y0090732D02*
D03*
X0135087Y0094472D02*
D03*
D72*
X0166189Y0124590D02*
D03*
X0166189Y0142307D02*
D03*
D73*
X0151898Y0073803D02*
D03*
X0014220Y0071835D02*
D03*
D74*
X0020520Y0147327D02*
D03*
X0013433Y0147327D02*
D03*
X0013433Y0137287D02*
D03*
X0020520Y0137287D02*
D03*
X0020520Y0153429D02*
D03*
X0013433Y0153429D02*
D03*
X0013433Y0163469D02*
D03*
X0020520Y0163469D02*
D03*
D75*
X0013433Y0140732D02*
D03*
X0013433Y0143882D02*
D03*
X0020520Y0143882D02*
D03*
X0020520Y0140732D02*
D03*
X0020520Y0156874D02*
D03*
X0020520Y0160024D02*
D03*
X0013433Y0160024D02*
D03*
X0013433Y0156874D02*
D03*
D76*
X0168157Y0190338D02*
D03*
X0168157Y0173803D02*
D03*
X0168157Y0150969D02*
D03*
X0168157Y0167504D02*
D03*
D77*
X0155362Y0123803D02*
D03*
X0152803Y0123803D02*
D03*
X0150244Y0123803D02*
D03*
X0147685Y0123803D02*
D03*
X0145126Y0123803D02*
D03*
X0142567Y0123803D02*
D03*
X0140008Y0123803D02*
D03*
X0155362Y0101362D02*
D03*
X0152803Y0101362D02*
D03*
X0150244Y0101362D02*
D03*
X0147685Y0101362D02*
D03*
X0145126Y0101362D02*
D03*
X0142567Y0101362D02*
D03*
X0140008Y0101362D02*
D03*
X0086858Y0123803D02*
D03*
X0084299Y0123803D02*
D03*
X0081740Y0123803D02*
D03*
X0079181Y0123803D02*
D03*
X0076622Y0123803D02*
D03*
X0074063Y0123803D02*
D03*
X0071504Y0123803D02*
D03*
X0086858Y0101362D02*
D03*
X0084299Y0101362D02*
D03*
X0081740Y0101362D02*
D03*
X0079181Y0101362D02*
D03*
X0076622Y0101362D02*
D03*
X0074063Y0101362D02*
D03*
X0071504Y0101362D02*
D03*
X0109693Y0123803D02*
D03*
X0107134Y0123803D02*
D03*
X0104575Y0123803D02*
D03*
X0102016Y0123803D02*
D03*
X0099457Y0123803D02*
D03*
X0096898Y0123803D02*
D03*
X0094339Y0123803D02*
D03*
X0109693Y0101362D02*
D03*
X0107134Y0101362D02*
D03*
X0104575Y0101362D02*
D03*
X0102016Y0101362D02*
D03*
X0099457Y0101362D02*
D03*
X0096898Y0101362D02*
D03*
X0094339Y0101362D02*
D03*
X0132527Y0123803D02*
D03*
X0129968Y0123803D02*
D03*
X0127409Y0123803D02*
D03*
X0124850Y0123803D02*
D03*
X0122291Y0123803D02*
D03*
X0119732Y0123803D02*
D03*
X0117173Y0123803D02*
D03*
X0132527Y0101362D02*
D03*
X0129968Y0101362D02*
D03*
X0127409Y0101362D02*
D03*
X0124850Y0101362D02*
D03*
X0122291Y0101362D02*
D03*
X0119732Y0101362D02*
D03*
X0117173Y0101362D02*
D03*
D78*
X0065205Y0112386D02*
D03*
X0065205Y0114945D02*
D03*
X0065205Y0117504D02*
D03*
X0065205Y0120063D02*
D03*
X0065205Y0122622D02*
D03*
X0065205Y0125181D02*
D03*
X0065205Y0127740D02*
D03*
X0042764Y0112386D02*
D03*
X0042764Y0114945D02*
D03*
X0042764Y0117504D02*
D03*
X0042764Y0120063D02*
D03*
X0042764Y0122622D02*
D03*
X0042764Y0125181D02*
D03*
X0042764Y0127740D02*
D03*
X0037252Y0112386D02*
D03*
X0037252Y0114945D02*
D03*
X0037252Y0117504D02*
D03*
X0037252Y0120063D02*
D03*
X0037252Y0122622D02*
D03*
X0037252Y0125181D02*
D03*
X0037252Y0127740D02*
D03*
X0014811Y0112386D02*
D03*
X0014811Y0114945D02*
D03*
X0014811Y0117504D02*
D03*
X0014811Y0120063D02*
D03*
X0014811Y0122622D02*
D03*
X0014811Y0125181D02*
D03*
X0014811Y0127740D02*
D03*
D79*
X0047882Y0100772D02*
D03*
X0047882Y0103331D02*
D03*
X0047882Y0105890D02*
D03*
X0040402Y0100772D02*
D03*
X0040402Y0103331D02*
D03*
X0040402Y0105890D02*
D03*
X0027803Y0105890D02*
D03*
X0027803Y0103331D02*
D03*
X0027803Y0100772D02*
D03*
X0035283Y0105890D02*
D03*
X0035283Y0103331D02*
D03*
X0035283Y0100772D02*
D03*
X0023079Y0100772D02*
D03*
X0023079Y0103331D02*
D03*
X0023079Y0105890D02*
D03*
X0015598Y0100772D02*
D03*
X0015598Y0103331D02*
D03*
X0015598Y0105890D02*
D03*
X0052606Y0105890D02*
D03*
X0052606Y0103331D02*
D03*
X0052606Y0100772D02*
D03*
X0060087Y0105890D02*
D03*
X0060087Y0103331D02*
D03*
X0060087Y0100772D02*
D03*
D80*
X0016780Y0185242D02*
D03*
X0016780Y0180242D02*
D03*
X0016780Y0175242D02*
D03*
X0016780Y0170242D02*
D03*
X0035678Y0185242D02*
D03*
X0035678Y0180242D02*
D03*
X0035678Y0175242D02*
D03*
X0035678Y0170242D02*
D03*
D81*
X0169142Y0117701D02*
D03*
X0166583Y0117701D02*
D03*
X0164024Y0117701D02*
D03*
X0169142Y0110220D02*
D03*
X0166583Y0110220D02*
D03*
X0164024Y0110220D02*
D03*
X0169142Y0102346D02*
D03*
X0166583Y0102346D02*
D03*
X0164024Y0102346D02*
D03*
X0169142Y0094866D02*
D03*
X0166583Y0094866D02*
D03*
X0164024Y0094866D02*
D03*
D82*
X0055313Y0201362D02*
D03*
X0055313Y0203331D02*
D03*
X0055313Y0205299D02*
D03*
X0061317Y0205299D02*
D03*
X0061317Y0203331D02*
D03*
X0061317Y0201362D02*
D03*
D83*
X0057331Y0206333D02*
D03*
X0059299Y0206333D02*
D03*
X0059299Y0200329D02*
D03*
X0057331Y0200329D02*
D03*
D84*
X0044437Y0199394D02*
D03*
X0044437Y0206087D02*
D03*
D85*
X0053197Y0134433D02*
D03*
X0049260Y0134433D02*
D03*
X0187110Y0120440D02*
G01*
G75*
D159*
X0201815Y0130664D02*
D03*
X0201815Y0123184D02*
D03*
X0193350Y0123184D02*
D03*
X0193350Y0126924D02*
D03*
X0217464Y0130664D02*
D03*
X0217464Y0123184D02*
D03*
X0209000Y0123184D02*
D03*
X0209000Y0126924D02*
D03*
D159*
X0193350Y0130664D02*
D03*
X0209000Y0130664D02*
D03*
X0002815Y0007437D02*
%LPD*%
G01*
G36*
G01*
X0070423Y0043146D02*
X0069065Y0043146D01*
G75*
G02*
X0068484Y0043726I0000000J0000581D01*
G01*
X0068484Y0044888D01*
G75*
G02*
X0069065Y0045468I0000581J0000000D01*
G01*
X0070423Y0045468D01*
G75*
G02*
X0071004Y0044888I0000000J-000581D01*
G01*
X0071004Y0043726D01*
G75*
G02*
X0070423Y0043146I-000581J0000000D01*
G01*
G37*
G36*
G01*
X0070423Y0046965D02*
X0069065Y0046965D01*
G75*
G02*
X0068484Y0047545I0000000J0000581D01*
G01*
X0068484Y0048707D01*
G75*
G02*
X0069065Y0049287I0000581J0000000D01*
G01*
X0070423Y0049287D01*
G75*
G02*
X0071004Y0048707I0000000J-000581D01*
G01*
X0071004Y0047545D01*
G75*
G02*
X0070423Y0046965I-000581J0000000D01*
G01*
G37*
G36*
G01*
X0011850Y0027722D02*
X0011850Y0029081D01*
G75*
G02*
X0012431Y0029661I0000581J0000000D01*
G01*
X0013593Y0029661D01*
G75*
G02*
X0014173Y0029081I0000000J-000581D01*
G01*
X0014173Y0027722D01*
G75*
G02*
X0013593Y0027142I-000581J0000000D01*
G01*
X0012431Y0027142D01*
G75*
G02*
X0011850Y0027722I0000000J0000581D01*
G01*
G37*
G36*
G01*
X0015669Y0027722D02*
X0015669Y0029081D01*
G75*
G02*
X0016250Y0029661I0000581J0000000D01*
G01*
X0017411Y0029661D01*
G75*
G02*
X0017992Y0029081I0000000J-000581D01*
G01*
X0017992Y0027722D01*
G75*
G02*
X0017411Y0027142I-000581J0000000D01*
G01*
X0016250Y0027142D01*
G75*
G02*
X0015669Y0027722I0000000J0000581D01*
G01*
G37*
G36*
G01*
X0022377Y0042919D02*
X0024395Y0042919D01*
G75*
G02*
X0025256Y0042058I0000000J-000861D01*
G01*
X0025256Y0040336D01*
G75*
G02*
X0024395Y0039474I-000861J0000000D01*
G01*
X0022377Y0039474D01*
G75*
G02*
X0021516Y0040336I0000000J0000861D01*
G01*
X0021516Y0042058D01*
G75*
G02*
X0022377Y0042919I0000861J0000000D01*
G01*
G37*
G36*
G01*
X0022377Y0036718D02*
X0024395Y0036718D01*
G75*
G02*
X0025256Y0035857I0000000J-000861D01*
G01*
X0025256Y0034135D01*
G75*
G02*
X0024395Y0033274I-000861J0000000D01*
G01*
X0022377Y0033274D01*
G75*
G02*
X0021516Y0034135I0000000J0000861D01*
G01*
X0021516Y0035857D01*
G75*
G02*
X0022377Y0036718I0000861J0000000D01*
G01*
G37*
G36*
G01*
X0068868Y0017890D02*
X0070226Y0017890D01*
G75*
G02*
X0070807Y0017309I0000000J-000581D01*
G01*
X0070807Y0016148D01*
G75*
G02*
X0070226Y0015567I-000581J0000000D01*
G01*
X0068868Y0015567D01*
G75*
G02*
X0068287Y0016148I0000000J0000581D01*
G01*
X0068287Y0017309D01*
G75*
G02*
X0068868Y0017890I0000581J0000000D01*
G01*
G37*
G36*
G01*
X0068868Y0014071D02*
X0070226Y0014071D01*
G75*
G02*
X0070807Y0013490I0000000J-000581D01*
G01*
X0070807Y0012329D01*
G75*
G02*
X0070226Y0011748I-000581J0000000D01*
G01*
X0068868Y0011748D01*
G75*
G02*
X0068287Y0012329I0000000J0000581D01*
G01*
X0068287Y0013490D01*
G75*
G02*
X0068868Y0014071I0000581J0000000D01*
G01*
G37*
D171*
X0017677Y0033717D03*
X0017677Y0041197D03*
X0009803Y0037457D03*
G36*
G01*
X0064685Y0017890D02*
X0066043Y0017890D01*
G75*
G02*
X0066624Y0017309I0000000J-000581D01*
G01*
X0066624Y0016148D01*
G75*
G02*
X0066043Y0015567I-000581J0000000D01*
G01*
X0064685Y0015567D01*
G75*
G02*
X0064104Y0016148I0000000J0000581D01*
G01*
X0064104Y0017309D01*
G75*
G02*
X0064685Y0017890I0000581J0000000D01*
G01*
G37*
G36*
G01*
X0064685Y0014071D02*
X0066043Y0014071D01*
G75*
G02*
X0066624Y0013490I0000000J-000581D01*
G01*
X0066624Y0012329D01*
G75*
G02*
X0066043Y0011748I-000581J0000000D01*
G01*
X0064685Y0011748D01*
G75*
G02*
X0064104Y0012329I0000000J0000581D01*
G01*
X0064104Y0013490D01*
G75*
G02*
X0064685Y0014071I0000581J0000000D01*
G01*
G37*
G36*
G01*
X0069065Y0041807D02*
X0070423Y0041807D01*
G75*
G02*
X0071004Y0041226I0000000J-000581D01*
G01*
X0071004Y0040065D01*
G75*
G02*
X0070423Y0039484I-000581J0000000D01*
G01*
X0069065Y0039484D01*
G75*
G02*
X0068484Y0040065I0000000J0000581D01*
G01*
X0068484Y0041226D01*
G75*
G02*
X0069065Y0041807I0000581J0000000D01*
G01*
G37*
G36*
G01*
X0069065Y0037988D02*
X0070423Y0037988D01*
G75*
G02*
X0071004Y0037407I0000000J-000581D01*
G01*
X0071004Y0036246D01*
G75*
G02*
X0070423Y0035665I-000581J0000000D01*
G01*
X0069065Y0035665D01*
G75*
G02*
X0068484Y0036246I0000000J0000581D01*
G01*
X0068484Y0037407D01*
G75*
G02*
X0069065Y0037988I0000581J0000000D01*
G01*
G37*
G36*
G01*
X0065305Y0054071D02*
X0063947Y0054071D01*
G75*
G02*
X0063366Y0054652I0000000J0000581D01*
G01*
X0063366Y0055813D01*
G75*
G02*
X0063947Y0056394I0000581J0000000D01*
G01*
X0065305Y0056394D01*
G75*
G02*
X0065886Y0055813I0000000J-000581D01*
G01*
X0065886Y0054652D01*
G75*
G02*
X0065305Y0054071I-000581J0000000D01*
G01*
G37*
G36*
G01*
X0065305Y0057890D02*
X0063947Y0057890D01*
G75*
G02*
X0063366Y0058470I0000000J0000581D01*
G01*
X0063366Y0059632D01*
G75*
G02*
X0063947Y0060213I0000581J0000000D01*
G01*
X0065305Y0060213D01*
G75*
G02*
X0065886Y0059632I0000000J-000581D01*
G01*
X0065886Y0058470D01*
G75*
G02*
X0065305Y0057890I-000581J0000000D01*
G01*
G37*
G36*
G01*
X0070423Y0027299D02*
X0069065Y0027299D01*
G75*
G02*
X0068484Y0027880I0000000J0000581D01*
G01*
X0068484Y0029041D01*
G75*
G02*
X0069065Y0029622I0000581J0000000D01*
G01*
X0070423Y0029622D01*
G75*
G02*
X0071004Y0029041I0000000J-000581D01*
G01*
X0071004Y0027880D01*
G75*
G02*
X0070423Y0027299I-000581J0000000D01*
G01*
G37*
G36*
G01*
X0070423Y0031118D02*
X0069065Y0031118D01*
G75*
G02*
X0068484Y0031699I0000000J0000581D01*
G01*
X0068484Y0032860D01*
G75*
G02*
X0069065Y0033441I0000581J0000000D01*
G01*
X0070423Y0033441D01*
G75*
G02*
X0071004Y0032860I0000000J-000581D01*
G01*
X0071004Y0031699D01*
G75*
G02*
X0070423Y0031118I-000581J0000000D01*
G01*
G37*
G36*
G01*
X0030659Y0054071D02*
X0029301Y0054071D01*
G75*
G02*
X0028721Y0054652I0000000J0000581D01*
G01*
X0028721Y0055813D01*
G75*
G02*
X0029301Y0056394I0000581J0000000D01*
G01*
X0030659Y0056394D01*
G75*
G02*
X0031240Y0055813I0000000J-000581D01*
G01*
X0031240Y0054652D01*
G75*
G02*
X0030659Y0054071I-000581J0000000D01*
G01*
G37*
G36*
G01*
X0030659Y0057890D02*
X0029301Y0057890D01*
G75*
G02*
X0028721Y0058470I0000000J0000581D01*
G01*
X0028721Y0059632D01*
G75*
G02*
X0029301Y0060213I0000581J0000000D01*
G01*
X0030659Y0060213D01*
G75*
G02*
X0031240Y0059632I0000000J-000581D01*
G01*
X0031240Y0058470D01*
G75*
G02*
X0030659Y0057890I-000581J0000000D01*
G01*
G37*
D180*
X0092126Y0029189D03*
X0080118Y0029189D03*
X0092126Y0016000D03*
X0080118Y0016000D03*
D172*
X0095098Y0047398D03*
X0077146Y0047398D03*
G36*
G01*
X0019626Y0027624D02*
X0019626Y0028982D01*
G75*
G02*
X0020207Y0029563I0000581J0000000D01*
G01*
X0021368Y0029563D01*
G75*
G02*
X0021949Y0028982I0000000J-000581D01*
G01*
X0021949Y0027624D01*
G75*
G02*
X0021368Y0027043I-000581J0000000D01*
G01*
X0020207Y0027043D01*
G75*
G02*
X0019626Y0027624I0000000J0000581D01*
G01*
G37*
G36*
G01*
X0023445Y0027624D02*
X0023445Y0028982D01*
G75*
G02*
X0024026Y0029563I0000581J0000000D01*
G01*
X0025187Y0029563D01*
G75*
G02*
X0025768Y0028982I0000000J-000581D01*
G01*
X0025768Y0027624D01*
G75*
G02*
X0025187Y0027043I-000581J0000000D01*
G01*
X0024026Y0027043D01*
G75*
G02*
X0023445Y0027624I0000000J0000581D01*
G01*
G37*
G36*
G01*
X0058130Y0013958D02*
X0058130Y0011940D01*
G75*
G02*
X0057269Y0011079I-000861J0000000D01*
G01*
X0055546Y0011079D01*
G75*
G02*
X0054685Y0011940I0000000J0000861D01*
G01*
X0054685Y0013958D01*
G75*
G02*
X0055546Y0014819I0000861J0000000D01*
G01*
X0057269Y0014819D01*
G75*
G02*
X0058130Y0013958I0000000J-000861D01*
G01*
G37*
G36*
G01*
X0051929Y0013958D02*
X0051929Y0011940D01*
G75*
G02*
X0051068Y0011079I-000861J0000000D01*
G01*
X0049346Y0011079D01*
G75*
G02*
X0048484Y0011940I0000000J0000861D01*
G01*
X0048484Y0013958D01*
G75*
G02*
X0049346Y0014819I0000861J0000000D01*
G01*
X0051068Y0014819D01*
G75*
G02*
X0051929Y0013958I0000000J-000861D01*
G01*
G37*
G36*
G01*
X0060502Y0017890D02*
X0061860Y0017890D01*
G75*
G02*
X0062441Y0017309I0000000J-000581D01*
G01*
X0062441Y0016148D01*
G75*
G02*
X0061860Y0015567I-000581J0000000D01*
G01*
X0060502Y0015567D01*
G75*
G02*
X0059921Y0016148I0000000J0000581D01*
G01*
X0059921Y0017309D01*
G75*
G02*
X0060502Y0017890I0000581J0000000D01*
G01*
G37*
G36*
G01*
X0060502Y0014071D02*
X0061860Y0014071D01*
G75*
G02*
X0062441Y0013490I0000000J-000581D01*
G01*
X0062441Y0012329D01*
G75*
G02*
X0061860Y0011748I-000581J0000000D01*
G01*
X0060502Y0011748D01*
G75*
G02*
X0059921Y0012329I0000000J0000581D01*
G01*
X0059921Y0013490D01*
G75*
G02*
X0060502Y0014071I0000581J0000000D01*
G01*
G37*
G36*
G01*
X0104611Y0013343D02*
X0102594Y0013343D01*
G75*
G02*
X0101732Y0014204I0000000J0000861D01*
G01*
X0101732Y0015926D01*
G75*
G02*
X0102594Y0016787I0000861J0000000D01*
G01*
X0104611Y0016787D01*
G75*
G02*
X0105472Y0015926I0000000J-000861D01*
G01*
X0105472Y0014204D01*
G75*
G02*
X0104611Y0013343I-000861J0000000D01*
G01*
G37*
G36*
G01*
X0104611Y0019543D02*
X0102594Y0019543D01*
G75*
G02*
X0101732Y0020405I0000000J0000861D01*
G01*
X0101732Y0022127D01*
G75*
G02*
X0102594Y0022988I0000861J0000000D01*
G01*
X0104611Y0022988D01*
G75*
G02*
X0105472Y0022127I0000000J-000861D01*
G01*
X0105472Y0020405D01*
G75*
G02*
X0104611Y0019543I-000861J0000000D01*
G01*
G37*
G36*
G01*
X0036772Y0011940D02*
X0036772Y0013958D01*
G75*
G02*
X0037633Y0014819I0000861J0000000D01*
G01*
X0039355Y0014819D01*
G75*
G02*
X0040217Y0013958I0000000J-000861D01*
G01*
X0040217Y0011940D01*
G75*
G02*
X0039355Y0011079I-000861J0000000D01*
G01*
X0037633Y0011079D01*
G75*
G02*
X0036772Y0011940I0000000J0000861D01*
G01*
G37*
G36*
G01*
X0042972Y0011940D02*
X0042972Y0013958D01*
G75*
G02*
X0043834Y0014819I0000861J0000000D01*
G01*
X0045556Y0014819D01*
G75*
G02*
X0046417Y0013958I0000000J-000861D01*
G01*
X0046417Y0011940D01*
G75*
G02*
X0045556Y0011079I-000861J0000000D01*
G01*
X0043834Y0011079D01*
G75*
G02*
X0042972Y0011940I0000000J0000861D01*
G01*
G37*
G36*
G01*
X0032451Y0016118D02*
X0033809Y0016118D01*
G75*
G02*
X0034390Y0015537I0000000J-000581D01*
G01*
X0034390Y0014376D01*
G75*
G02*
X0033809Y0013795I-000581J0000000D01*
G01*
X0032451Y0013795D01*
G75*
G02*
X0031870Y0014376I0000000J0000581D01*
G01*
X0031870Y0015537D01*
G75*
G02*
X0032451Y0016118I0000581J0000000D01*
G01*
G37*
G36*
G01*
X0032451Y0012299D02*
X0033809Y0012299D01*
G75*
G02*
X0034390Y0011718I0000000J-000581D01*
G01*
X0034390Y0010557D01*
G75*
G02*
X0033809Y0009976I-000581J0000000D01*
G01*
X0032451Y0009976D01*
G75*
G02*
X0031870Y0010557I0000000J0000581D01*
G01*
X0031870Y0011718D01*
G75*
G02*
X0032451Y0012299I0000581J0000000D01*
G01*
G37*
G36*
G01*
X0066890Y0028795D02*
X0066890Y0027811D01*
G75*
G02*
X0066398Y0027319I-000492J0000000D01*
G01*
X0061476Y0027319D01*
G75*
G02*
X0060984Y0027811I0000000J0000492D01*
G01*
X0060984Y0028795D01*
G75*
G02*
X0061476Y0029287I0000492J0000000D01*
G01*
X0066398Y0029287D01*
G75*
G02*
X0066890Y0028795I0000000J-000492D01*
G01*
G37*
G36*
G01*
X0066890Y0031945D02*
X0066890Y0030961D01*
G75*
G02*
X0066398Y0030468I-000492J0000000D01*
G01*
X0061476Y0030468D01*
G75*
G02*
X0060984Y0030961I0000000J0000492D01*
G01*
X0060984Y0031945D01*
G75*
G02*
X0061476Y0032437I0000492J0000000D01*
G01*
X0066398Y0032437D01*
G75*
G02*
X0066890Y0031945I0000000J-000492D01*
G01*
G37*
G36*
G01*
X0066890Y0035094D02*
X0066890Y0034110D01*
G75*
G02*
X0066398Y0033618I-000492J0000000D01*
G01*
X0061476Y0033618D01*
G75*
G02*
X0060984Y0034110I0000000J0000492D01*
G01*
X0060984Y0035094D01*
G75*
G02*
X0061476Y0035587I0000492J0000000D01*
G01*
X0066398Y0035587D01*
G75*
G02*
X0066890Y0035094I0000000J-000492D01*
G01*
G37*
G36*
G01*
X0066890Y0038244D02*
X0066890Y0037260D01*
G75*
G02*
X0066398Y0036768I-000492J0000000D01*
G01*
X0061476Y0036768D01*
G75*
G02*
X0060984Y0037260I0000000J0000492D01*
G01*
X0060984Y0038244D01*
G75*
G02*
X0061476Y0038736I0000492J0000000D01*
G01*
X0066398Y0038736D01*
G75*
G02*
X0066890Y0038244I0000000J-000492D01*
G01*
G37*
G36*
G01*
X0066890Y0041394D02*
X0066890Y0040409D01*
G75*
G02*
X0066398Y0039917I-000492J0000000D01*
G01*
X0061476Y0039917D01*
G75*
G02*
X0060984Y0040409I0000000J0000492D01*
G01*
X0060984Y0041394D01*
G75*
G02*
X0061476Y0041886I0000492J0000000D01*
G01*
X0066398Y0041886D01*
G75*
G02*
X0066890Y0041394I0000000J-000492D01*
G01*
G37*
G36*
G01*
X0066890Y0044543D02*
X0066890Y0043559D01*
G75*
G02*
X0066398Y0043067I-000492J0000000D01*
G01*
X0061476Y0043067D01*
G75*
G02*
X0060984Y0043559I0000000J0000492D01*
G01*
X0060984Y0044543D01*
G75*
G02*
X0061476Y0045035I0000492J0000000D01*
G01*
X0066398Y0045035D01*
G75*
G02*
X0066890Y0044543I0000000J-000492D01*
G01*
G37*
G36*
G01*
X0066890Y0047693D02*
X0066890Y0046709D01*
G75*
G02*
X0066398Y0046217I-000492J0000000D01*
G01*
X0061476Y0046217D01*
G75*
G02*
X0060984Y0046709I0000000J0000492D01*
G01*
X0060984Y0047693D01*
G75*
G02*
X0061476Y0048185I0000492J0000000D01*
G01*
X0066398Y0048185D01*
G75*
G02*
X0066890Y0047693I0000000J-000492D01*
G01*
G37*
G36*
G01*
X0066890Y0050843D02*
X0066890Y0049858D01*
G75*
G02*
X0066398Y0049366I-000492J0000000D01*
G01*
X0061476Y0049366D01*
G75*
G02*
X0060984Y0049858I0000000J0000492D01*
G01*
X0060984Y0050843D01*
G75*
G02*
X0061476Y0051335I0000492J0000000D01*
G01*
X0066398Y0051335D01*
G75*
G02*
X0066890Y0050843I0000000J-000492D01*
G01*
G37*
G36*
G01*
X0059508Y0058224D02*
X0059508Y0053303D01*
G75*
G02*
X0059016Y0052811I-000492J0000000D01*
G01*
X0058032Y0052811D01*
G75*
G02*
X0057539Y0053303I0000000J0000492D01*
G01*
X0057539Y0058224D01*
G75*
G02*
X0058032Y0058717I0000492J0000000D01*
G01*
X0059016Y0058717D01*
G75*
G02*
X0059508Y0058224I0000000J-000492D01*
G01*
G37*
G36*
G01*
X0056358Y0058224D02*
X0056358Y0053303D01*
G75*
G02*
X0055866Y0052811I-000492J0000000D01*
G01*
X0054882Y0052811D01*
G75*
G02*
X0054390Y0053303I0000000J0000492D01*
G01*
X0054390Y0058224D01*
G75*
G02*
X0054882Y0058717I0000492J0000000D01*
G01*
X0055866Y0058717D01*
G75*
G02*
X0056358Y0058224I0000000J-000492D01*
G01*
G37*
G36*
G01*
X0053209Y0058224D02*
X0053209Y0053303D01*
G75*
G02*
X0052717Y0052811I-000492J0000000D01*
G01*
X0051732Y0052811D01*
G75*
G02*
X0051240Y0053303I0000000J0000492D01*
G01*
X0051240Y0058224D01*
G75*
G02*
X0051732Y0058717I0000492J0000000D01*
G01*
X0052717Y0058717D01*
G75*
G02*
X0053209Y0058224I0000000J-000492D01*
G01*
G37*
G36*
G01*
X0050059Y0058224D02*
X0050059Y0053303D01*
G75*
G02*
X0049567Y0052811I-000492J0000000D01*
G01*
X0048583Y0052811D01*
G75*
G02*
X0048091Y0053303I0000000J0000492D01*
G01*
X0048091Y0058224D01*
G75*
G02*
X0048583Y0058717I0000492J0000000D01*
G01*
X0049567Y0058717D01*
G75*
G02*
X0050059Y0058224I0000000J-000492D01*
G01*
G37*
G36*
G01*
X0046909Y0058224D02*
X0046909Y0053303D01*
G75*
G02*
X0046417Y0052811I-000492J0000000D01*
G01*
X0045433Y0052811D01*
G75*
G02*
X0044941Y0053303I0000000J0000492D01*
G01*
X0044941Y0058224D01*
G75*
G02*
X0045433Y0058717I0000492J0000000D01*
G01*
X0046417Y0058717D01*
G75*
G02*
X0046909Y0058224I0000000J-000492D01*
G01*
G37*
G36*
G01*
X0043760Y0058224D02*
X0043760Y0053303D01*
G75*
G02*
X0043268Y0052811I-000492J0000000D01*
G01*
X0042284Y0052811D01*
G75*
G02*
X0041791Y0053303I0000000J0000492D01*
G01*
X0041791Y0058224D01*
G75*
G02*
X0042284Y0058717I0000492J0000000D01*
G01*
X0043268Y0058717D01*
G75*
G02*
X0043760Y0058224I0000000J-000492D01*
G01*
G37*
G36*
G01*
X0040610Y0058224D02*
X0040610Y0053303D01*
G75*
G02*
X0040118Y0052811I-000492J0000000D01*
G01*
X0039134Y0052811D01*
G75*
G02*
X0038642Y0053303I0000000J0000492D01*
G01*
X0038642Y0058224D01*
G75*
G02*
X0039134Y0058717I0000492J0000000D01*
G01*
X0040118Y0058717D01*
G75*
G02*
X0040610Y0058224I0000000J-000492D01*
G01*
G37*
G36*
G01*
X0037461Y0058224D02*
X0037461Y0053303D01*
G75*
G02*
X0036969Y0052811I-000492J0000000D01*
G01*
X0035984Y0052811D01*
G75*
G02*
X0035492Y0053303I0000000J0000492D01*
G01*
X0035492Y0058224D01*
G75*
G02*
X0035984Y0058717I0000492J0000000D01*
G01*
X0036969Y0058717D01*
G75*
G02*
X0037461Y0058224I0000000J-000492D01*
G01*
G37*
G36*
G01*
X0034016Y0050843D02*
X0034016Y0049858D01*
G75*
G02*
X0033524Y0049366I-000492J0000000D01*
G01*
X0028602Y0049366D01*
G75*
G02*
X0028110Y0049858I0000000J0000492D01*
G01*
X0028110Y0050843D01*
G75*
G02*
X0028602Y0051335I0000492J0000000D01*
G01*
X0033524Y0051335D01*
G75*
G02*
X0034016Y0050843I0000000J-000492D01*
G01*
G37*
G36*
G01*
X0034016Y0047693D02*
X0034016Y0046709D01*
G75*
G02*
X0033524Y0046217I-000492J0000000D01*
G01*
X0028602Y0046217D01*
G75*
G02*
X0028110Y0046709I0000000J0000492D01*
G01*
X0028110Y0047693D01*
G75*
G02*
X0028602Y0048185I0000492J0000000D01*
G01*
X0033524Y0048185D01*
G75*
G02*
X0034016Y0047693I0000000J-000492D01*
G01*
G37*
G36*
G01*
X0034016Y0044543D02*
X0034016Y0043559D01*
G75*
G02*
X0033524Y0043067I-000492J0000000D01*
G01*
X0028602Y0043067D01*
G75*
G02*
X0028110Y0043559I0000000J0000492D01*
G01*
X0028110Y0044543D01*
G75*
G02*
X0028602Y0045035I0000492J0000000D01*
G01*
X0033524Y0045035D01*
G75*
G02*
X0034016Y0044543I0000000J-000492D01*
G01*
G37*
G36*
G01*
X0034016Y0041394D02*
X0034016Y0040409D01*
G75*
G02*
X0033524Y0039917I-000492J0000000D01*
G01*
X0028602Y0039917D01*
G75*
G02*
X0028110Y0040409I0000000J0000492D01*
G01*
X0028110Y0041394D01*
G75*
G02*
X0028602Y0041886I0000492J0000000D01*
G01*
X0033524Y0041886D01*
G75*
G02*
X0034016Y0041394I0000000J-000492D01*
G01*
G37*
G36*
G01*
X0034016Y0038244D02*
X0034016Y0037260D01*
G75*
G02*
X0033524Y0036768I-000492J0000000D01*
G01*
X0028602Y0036768D01*
G75*
G02*
X0028110Y0037260I0000000J0000492D01*
G01*
X0028110Y0038244D01*
G75*
G02*
X0028602Y0038736I0000492J0000000D01*
G01*
X0033524Y0038736D01*
G75*
G02*
X0034016Y0038244I0000000J-000492D01*
G01*
G37*
G36*
G01*
X0034016Y0035094D02*
X0034016Y0034110D01*
G75*
G02*
X0033524Y0033618I-000492J0000000D01*
G01*
X0028602Y0033618D01*
G75*
G02*
X0028110Y0034110I0000000J0000492D01*
G01*
X0028110Y0035094D01*
G75*
G02*
X0028602Y0035587I0000492J0000000D01*
G01*
X0033524Y0035587D01*
G75*
G02*
X0034016Y0035094I0000000J-000492D01*
G01*
G37*
G36*
G01*
X0034016Y0031945D02*
X0034016Y0030961D01*
G75*
G02*
X0033524Y0030468I-000492J0000000D01*
G01*
X0028602Y0030468D01*
G75*
G02*
X0028110Y0030961I0000000J0000492D01*
G01*
X0028110Y0031945D01*
G75*
G02*
X0028602Y0032437I0000492J0000000D01*
G01*
X0033524Y0032437D01*
G75*
G02*
X0034016Y0031945I0000000J-000492D01*
G01*
G37*
G36*
G01*
X0034016Y0028795D02*
X0034016Y0027811D01*
G75*
G02*
X0033524Y0027319I-000492J0000000D01*
G01*
X0028602Y0027319D01*
G75*
G02*
X0028110Y0027811I0000000J0000492D01*
G01*
X0028110Y0028795D01*
G75*
G02*
X0028602Y0029287I0000492J0000000D01*
G01*
X0033524Y0029287D01*
G75*
G02*
X0034016Y0028795I0000000J-000492D01*
G01*
G37*
G36*
G01*
X0037461Y0025350D02*
X0037461Y0020429D01*
G75*
G02*
X0036969Y0019937I-000492J0000000D01*
G01*
X0035984Y0019937D01*
G75*
G02*
X0035492Y0020429I0000000J0000492D01*
G01*
X0035492Y0025350D01*
G75*
G02*
X0035984Y0025843I0000492J0000000D01*
G01*
X0036969Y0025843D01*
G75*
G02*
X0037461Y0025350I0000000J-000492D01*
G01*
G37*
G36*
G01*
X0040610Y0025350D02*
X0040610Y0020429D01*
G75*
G02*
X0040118Y0019937I-000492J0000000D01*
G01*
X0039134Y0019937D01*
G75*
G02*
X0038642Y0020429I0000000J0000492D01*
G01*
X0038642Y0025350D01*
G75*
G02*
X0039134Y0025843I0000492J0000000D01*
G01*
X0040118Y0025843D01*
G75*
G02*
X0040610Y0025350I0000000J-000492D01*
G01*
G37*
G36*
G01*
X0043760Y0025350D02*
X0043760Y0020429D01*
G75*
G02*
X0043268Y0019937I-000492J0000000D01*
G01*
X0042284Y0019937D01*
G75*
G02*
X0041791Y0020429I0000000J0000492D01*
G01*
X0041791Y0025350D01*
G75*
G02*
X0042284Y0025843I0000492J0000000D01*
G01*
X0043268Y0025843D01*
G75*
G02*
X0043760Y0025350I0000000J-000492D01*
G01*
G37*
G36*
G01*
X0046909Y0025350D02*
X0046909Y0020429D01*
G75*
G02*
X0046417Y0019937I-000492J0000000D01*
G01*
X0045433Y0019937D01*
G75*
G02*
X0044941Y0020429I0000000J0000492D01*
G01*
X0044941Y0025350D01*
G75*
G02*
X0045433Y0025843I0000492J0000000D01*
G01*
X0046417Y0025843D01*
G75*
G02*
X0046909Y0025350I0000000J-000492D01*
G01*
G37*
G36*
G01*
X0050059Y0025350D02*
X0050059Y0020429D01*
G75*
G02*
X0049567Y0019937I-000492J0000000D01*
G01*
X0048583Y0019937D01*
G75*
G02*
X0048091Y0020429I0000000J0000492D01*
G01*
X0048091Y0025350D01*
G75*
G02*
X0048583Y0025843I0000492J0000000D01*
G01*
X0049567Y0025843D01*
G75*
G02*
X0050059Y0025350I0000000J-000492D01*
G01*
G37*
G36*
G01*
X0053209Y0025350D02*
X0053209Y0020429D01*
G75*
G02*
X0052717Y0019937I-000492J0000000D01*
G01*
X0051732Y0019937D01*
G75*
G02*
X0051240Y0020429I0000000J0000492D01*
G01*
X0051240Y0025350D01*
G75*
G02*
X0051732Y0025843I0000492J0000000D01*
G01*
X0052717Y0025843D01*
G75*
G02*
X0053209Y0025350I0000000J-000492D01*
G01*
G37*
G36*
G01*
X0056358Y0025350D02*
X0056358Y0020429D01*
G75*
G02*
X0055866Y0019937I-000492J0000000D01*
G01*
X0054882Y0019937D01*
G75*
G02*
X0054390Y0020429I0000000J0000492D01*
G01*
X0054390Y0025350D01*
G75*
G02*
X0054882Y0025843I0000492J0000000D01*
G01*
X0055866Y0025843D01*
G75*
G02*
X0056358Y0025350I0000000J-000492D01*
G01*
G37*
G36*
G01*
X0059508Y0025350D02*
X0059508Y0020429D01*
G75*
G02*
X0059016Y0019937I-000492J0000000D01*
G01*
X0058032Y0019937D01*
G75*
G02*
X0057539Y0020429I0000000J0000492D01*
G01*
X0057539Y0025350D01*
G75*
G02*
X0058032Y0025843I0000492J0000000D01*
G01*
X0059016Y0025843D01*
G75*
G02*
X0059508Y0025350I0000000J-000492D01*
G01*
G37*
G36*
G01*
X0024882Y0046896D02*
X0024882Y0045537D01*
G75*
G02*
X0024301Y0044957I-000581J0000000D01*
G01*
X0023140Y0044957D01*
G75*
G02*
X0022559Y0045537I0000000J0000581D01*
G01*
X0022559Y0046896D01*
G75*
G02*
X0023140Y0047476I0000581J0000000D01*
G01*
X0024301Y0047476D01*
G75*
G02*
X0024882Y0046896I0000000J-000581D01*
G01*
G37*
G36*
G01*
X0021063Y0046896D02*
X0021063Y0045537D01*
G75*
G02*
X0020482Y0044957I-000581J0000000D01*
G01*
X0019321Y0044957D01*
G75*
G02*
X0018740Y0045537I0000000J0000581D01*
G01*
X0018740Y0046896D01*
G75*
G02*
X0019321Y0047476I0000581J0000000D01*
G01*
X0020482Y0047476D01*
G75*
G02*
X0021063Y0046896I0000000J-000581D01*
G01*
G37*
G36*
G01*
X0031959Y0023500D02*
X0033317Y0023500D01*
G75*
G02*
X0033898Y0022919I0000000J-000581D01*
G01*
X0033898Y0021758D01*
G75*
G02*
X0033317Y0021177I-000581J0000000D01*
G01*
X0031959Y0021177D01*
G75*
G02*
X0031378Y0021758I0000000J0000581D01*
G01*
X0031378Y0022919D01*
G75*
G02*
X0031959Y0023500I0000581J0000000D01*
G01*
G37*
G36*
G01*
X0031959Y0019681D02*
X0033317Y0019681D01*
G75*
G02*
X0033898Y0019100I0000000J-000581D01*
G01*
X0033898Y0017939D01*
G75*
G02*
X0033317Y0017358I-000581J0000000D01*
G01*
X0031959Y0017358D01*
G75*
G02*
X0031378Y0017939I0000000J0000581D01*
G01*
X0031378Y0019100D01*
G75*
G02*
X0031959Y0019681I0000581J0000000D01*
G01*
G37*
G36*
G01*
X0008315Y0045537D02*
X0008315Y0046896D01*
G75*
G02*
X0008896Y0047476I0000581J0000000D01*
G01*
X0010057Y0047476D01*
G75*
G02*
X0010638Y0046896I0000000J-000581D01*
G01*
X0010638Y0045537D01*
G75*
G02*
X0010057Y0044957I-000581J0000000D01*
G01*
X0008896Y0044957D01*
G75*
G02*
X0008315Y0045537I0000000J0000581D01*
G01*
G37*
G36*
G01*
X0012134Y0045537D02*
X0012134Y0046896D01*
G75*
G02*
X0012715Y0047476I0000581J0000000D01*
G01*
X0013876Y0047476D01*
G75*
G02*
X0014457Y0046896I0000000J-000581D01*
G01*
X0014457Y0045537D01*
G75*
G02*
X0013876Y0044957I-000581J0000000D01*
G01*
X0012715Y0044957D01*
G75*
G02*
X0012134Y0045537I0000000J0000581D01*
G01*
G37*
D175*
X0009803Y0051138D03*
X0017284Y0051138D03*
X0013543Y0059012D03*
G36*
G01*
X0068868Y0025370D02*
X0070226Y0025370D01*
G75*
G02*
X0070807Y0024789I0000000J-000581D01*
G01*
X0070807Y0023628D01*
G75*
G02*
X0070226Y0023047I-000581J0000000D01*
G01*
X0068868Y0023047D01*
G75*
G02*
X0068287Y0023628I0000000J0000581D01*
G01*
X0068287Y0024789D01*
G75*
G02*
X0068868Y0025370I0000581J0000000D01*
G01*
G37*
G36*
G01*
X0068868Y0021551D02*
X0070226Y0021551D01*
G75*
G02*
X0070807Y0020970I0000000J-000581D01*
G01*
X0070807Y0019809D01*
G75*
G02*
X0070226Y0019228I-000581J0000000D01*
G01*
X0068868Y0019228D01*
G75*
G02*
X0068287Y0019809I0000000J0000581D01*
G01*
X0068287Y0020970D01*
G75*
G02*
X0068868Y0021551I0000581J0000000D01*
G01*
G37*
G36*
G01*
X0022741Y0060409D02*
X0024759Y0060409D01*
G75*
G02*
X0025620Y0059548I0000000J-000861D01*
G01*
X0025620Y0057826D01*
G75*
G02*
X0024759Y0056965I-000861J0000000D01*
G01*
X0022741Y0056965D01*
G75*
G02*
X0021880Y0057826I0000000J0000861D01*
G01*
X0021880Y0059548D01*
G75*
G02*
X0022741Y0060409I0000861J0000000D01*
G01*
G37*
G36*
G01*
X0022741Y0054209D02*
X0024759Y0054209D01*
G75*
G02*
X0025620Y0053347I0000000J-000861D01*
G01*
X0025620Y0051625D01*
G75*
G02*
X0024759Y0050764I-000861J0000000D01*
G01*
X0022741Y0050764D01*
G75*
G02*
X0021880Y0051625I0000000J0000861D01*
G01*
X0021880Y0053347D01*
G75*
G02*
X0022741Y0054209I0000861J0000000D01*
G01*
G37*
X0105583Y0262260D02*
%LPD*%
G01*
D58*
X0139441Y0275252D03*
X0139441Y0273284D03*
X0139441Y0271315D03*
X0139441Y0269347D03*
X0139441Y0267378D03*
X0156764Y0267378D03*
X0156764Y0269347D03*
X0156764Y0271315D03*
X0156764Y0273284D03*
X0156764Y0275252D03*
G36*
G01*
X0146961Y0288441D02*
X0150032Y0288441D01*
G75*
G02*
X0150307Y0288166I0000000J-000276D01*
G01*
X0150307Y0285961D01*
G75*
G02*
X0150032Y0285685I-000276J0000000D01*
G01*
X0146961Y0285685D01*
G75*
G02*
X0146685Y0285961I0000000J0000276D01*
G01*
X0146685Y0288166D01*
G75*
G02*
X0146961Y0288441I0000276J0000000D01*
G01*
G37*
G36*
G01*
X0146961Y0282142D02*
X0150032Y0282142D01*
G75*
G02*
X0150307Y0281866I0000000J-000276D01*
G01*
X0150307Y0279662D01*
G75*
G02*
X0150032Y0279386I-000276J0000000D01*
G01*
X0146961Y0279386D01*
G75*
G02*
X0146685Y0279662I0000000J0000276D01*
G01*
X0146685Y0281866D01*
G75*
G02*
X0146961Y0282142I0000276J0000000D01*
G01*
G37*
G36*
G01*
X0161292Y0295095D02*
X0161292Y0292024D01*
G75*
G02*
X0161016Y0291748I-000276J0000000D01*
G01*
X0158811Y0291748D01*
G75*
G02*
X0158536Y0292024I0000000J0000276D01*
G01*
X0158536Y0295095D01*
G75*
G02*
X0158811Y0295370I0000276J0000000D01*
G01*
X0161016Y0295370D01*
G75*
G02*
X0161292Y0295095I0000000J-000276D01*
G01*
G37*
G36*
G01*
X0154992Y0295095D02*
X0154992Y0292024D01*
G75*
G02*
X0154717Y0291748I-000276J0000000D01*
G01*
X0152512Y0291748D01*
G75*
G02*
X0152237Y0292024I0000000J0000276D01*
G01*
X0152237Y0295095D01*
G75*
G02*
X0152512Y0295370I0000276J0000000D01*
G01*
X0154717Y0295370D01*
G75*
G02*
X0154992Y0295095I0000000J-000276D01*
G01*
G37*
G36*
G01*
X0141055Y0288441D02*
X0144126Y0288441D01*
G75*
G02*
X0144402Y0288166I0000000J-000276D01*
G01*
X0144402Y0285961D01*
G75*
G02*
X0144126Y0285685I-000276J0000000D01*
G01*
X0141055Y0285685D01*
G75*
G02*
X0140780Y0285961I0000000J0000276D01*
G01*
X0140780Y0288166D01*
G75*
G02*
X0141055Y0288441I0000276J0000000D01*
G01*
G37*
G36*
G01*
X0141055Y0282142D02*
X0144126Y0282142D01*
G75*
G02*
X0144402Y0281866I0000000J-000276D01*
G01*
X0144402Y0279662D01*
G75*
G02*
X0144126Y0279386I-000276J0000000D01*
G01*
X0141055Y0279386D01*
G75*
G02*
X0140780Y0279662I0000000J0000276D01*
G01*
X0140780Y0281866D01*
G75*
G02*
X0141055Y0282142I0000276J0000000D01*
G01*
G37*
G36*
G01*
X0149382Y0294765D02*
X0149382Y0292747D01*
G75*
G02*
X0148521Y0291886I-000861J0000000D01*
G01*
X0146799Y0291886D01*
G75*
G02*
X0145937Y0292747I0000000J0000861D01*
G01*
X0145937Y0294765D01*
G75*
G02*
X0146799Y0295626I0000861J0000000D01*
G01*
X0148521Y0295626D01*
G75*
G02*
X0149382Y0294765I0000000J-000861D01*
G01*
G37*
G36*
G01*
X0143181Y0294765D02*
X0143181Y0292747D01*
G75*
G02*
X0142320Y0291886I-000861J0000000D01*
G01*
X0140598Y0291886D01*
G75*
G02*
X0139737Y0292747I0000000J0000861D01*
G01*
X0139737Y0294765D01*
G75*
G02*
X0140598Y0295626I0000861J0000000D01*
G01*
X0142320Y0295626D01*
G75*
G02*
X0143181Y0294765I0000000J-000861D01*
G01*
G37*
G36*
G01*
X0155327Y0287803D02*
X0155327Y0285126D01*
G75*
G02*
X0154992Y0284791I-000335J0000000D01*
G01*
X0152315Y0284791D01*
G75*
G02*
X0151981Y0285126I0000000J0000335D01*
G01*
X0151981Y0287803D01*
G75*
G02*
X0152315Y0288138I0000335J0000000D01*
G01*
X0154992Y0288138D01*
G75*
G02*
X0155327Y0287803I0000000J-000335D01*
G01*
G37*
G36*
G01*
X0161548Y0287803D02*
X0161548Y0285126D01*
G75*
G02*
X0161213Y0284791I-000335J0000000D01*
G01*
X0158536Y0284791D01*
G75*
G02*
X0158201Y0285126I0000000J0000335D01*
G01*
X0158201Y0287803D01*
G75*
G02*
X0158536Y0288138I0000335J0000000D01*
G01*
X0161213Y0288138D01*
G75*
G02*
X0161548Y0287803I0000000J-000335D01*
G01*
G37*
G36*
G01*
X0161548Y0282496D02*
X0161548Y0279819D01*
G75*
G02*
X0161213Y0279484I-000335J0000000D01*
G01*
X0158536Y0279484D01*
G75*
G02*
X0158201Y0279819I0000000J0000335D01*
G01*
X0158201Y0282496D01*
G75*
G02*
X0158536Y0282831I0000335J0000000D01*
G01*
X0161213Y0282831D01*
G75*
G02*
X0161548Y0282496I0000000J-000335D01*
G01*
G37*
G36*
G01*
X0155327Y0282496D02*
X0155327Y0279819D01*
G75*
G02*
X0154992Y0279484I-000335J0000000D01*
G01*
X0152315Y0279484D01*
G75*
G02*
X0151981Y0279819I0000000J0000335D01*
G01*
X0151981Y0282496D01*
G75*
G02*
X0152315Y0282831I0000335J0000000D01*
G01*
X0154992Y0282831D01*
G75*
G02*
X0155327Y0282496I0000000J-000335D01*
G01*
G37*
G36*
G01*
X0136134Y0288697D02*
X0138811Y0288697D01*
G75*
G02*
X0139146Y0288362I0000000J-000335D01*
G01*
X0139146Y0285685D01*
G75*
G02*
X0138811Y0285351I-000335J0000000D01*
G01*
X0136134Y0285351D01*
G75*
G02*
X0135800Y0285685I0000000J0000335D01*
G01*
X0135800Y0288362D01*
G75*
G02*
X0136134Y0288697I0000335J0000000D01*
G01*
G37*
G36*
G01*
X0136134Y0282477D02*
X0138811Y0282477D01*
G75*
G02*
X0139146Y0282142I0000000J-000335D01*
G01*
X0139146Y0279465D01*
G75*
G02*
X0138811Y0279130I-000335J0000000D01*
G01*
X0136134Y0279130D01*
G75*
G02*
X0135800Y0279465I0000000J0000335D01*
G01*
X0135800Y0282142D01*
G75*
G02*
X0136134Y0282477I0000335J0000000D01*
G01*
G37*
X0017398Y0301673D02*
G01*
G75*
D296*
X0041765Y0256594D02*
D03*
X0024048Y0256594D02*
D03*
D297*
X0066217Y0259921D02*
D03*
X0066217Y0287283D02*
D03*
D298*
X0042989Y0271161D02*
D03*
X0042989Y0287303D02*
D03*
D299*
X0024878Y0269390D02*
D03*
X0024878Y0285138D02*
D03*
D300*
X0086656Y0292329D02*
D03*
X0082916Y0283077D02*
D03*
D300*
X0090396Y0283077D02*
D03*
D301*
X0096335Y0260242D02*
D03*
D301*
X0092595Y0260242D02*
D03*
X0088855Y0260242D02*
D03*
X0088855Y0251778D02*
D03*
X0096335Y0251778D02*
D03*
D302*
X0082334Y0247926D02*
D03*
X0082334Y0260918D02*
D03*
D303*
X0082622Y0266212D02*
D03*
X0082622Y0277630D02*
D03*
D304*
X0050075Y0247027D02*
D03*
X0050075Y0253248D02*
D03*
X0050075Y0257618D02*
D03*
X0050075Y0263838D02*
D03*
D305*
X0027186Y0297704D02*
D03*
X0031320Y0297704D02*
D03*
X0069060Y0247149D02*
D03*
X0073194Y0247149D02*
D03*
X0064347Y0247149D02*
D03*
X0060213Y0247149D02*
D03*
X0044698Y0246257D02*
D03*
X0040564Y0246257D02*
D03*
D306*
X0088905Y0265360D02*
D03*
X0092842Y0265360D02*
D03*
X0089807Y0279035D02*
D03*
X0089807Y0270374D02*
D03*
X0096204Y0279035D02*
D03*
X0096204Y0270374D02*
D03*
D307*
X0096335Y0287408D02*
D03*
X0096335Y0283864D02*
D03*
D308*
X0072997Y0251407D02*
D03*
X0069453Y0251407D02*
D03*
X0063953Y0251407D02*
D03*
X0060410Y0251407D02*
D03*
X0032397Y0246257D02*
D03*
X0035941Y0246257D02*
D03*
M02*
