M48
INCH,TZ
T01C0.011800
T02C0.031500
T03C0.039200
T04C0.043300
%
T01
X501Y5586
X501Y5193
X501Y4799
X501Y3901
X501Y3501
X1068Y8365
X1068Y7971
X1068Y18758
X1068Y18365
X1068Y17971
X1068Y17577
X1068Y17183
X1068Y16790
X1068Y13246
X1068Y22538
X1068Y16396
X1068Y16002
X1068Y15609
X1068Y15215
X1068Y14821
X1068Y14428
X1068Y14034
X1068Y13640
X1068Y10884
X1225Y6987
X2170Y6987
X2643Y6987
X3115Y6987
X3157Y23593
X3430Y22538
X3551Y23593
X3587Y6987
X3745Y22538
X4060Y22538
X4060Y6987
X4532Y6987
X5005Y6987
X5477Y6987
X5950Y6987
X6422Y6987
X6894Y6987
X7131Y22538
X7367Y6987
X7446Y22538
X7761Y22538
X7839Y6987
X8076Y22538
X8312Y6987
X8391Y22538
X8784Y6987
X9257Y6987
X9729Y6987
X10202Y6987
X10556Y22538
X10674Y6987
X10706Y27344
X10706Y26950
X10871Y22538
X10970Y2574
X10970Y2181
X10970Y1787
X10970Y1393
X11146Y6987
X11186Y22538
X11501Y22538
X11619Y6987
X11816Y22538
X12091Y6987
X12131Y22538
X12446Y22538
X12564Y6987
X12761Y22538
X13036Y6987
X13076Y22538
X13391Y22538
X13509Y6987
X13706Y22538
X13981Y6987
X14020Y22538
X14335Y22538
X14454Y6987
X14650Y22538
X14926Y6987
X14965Y22538
X15280Y22538
X15359Y6987
X15595Y22538
X15831Y6987
X15910Y22538
X16225Y22538
X16304Y6987
X16385Y29887
X16385Y29415
X16385Y28943
X16385Y28470
X16540Y22538
X16776Y6987
X16855Y22538
X17170Y22538
X17249Y6987
X17485Y19939
X17485Y19624
X17485Y18050
X17485Y17735
X17485Y17420
X17485Y16160
X17485Y15845
X17485Y12380
X17485Y8168
X17485Y22538
X17485Y21514
X17485Y21199
X17485Y20884
X17485Y20569
X17485Y20254
X17485Y19309
X17485Y18994
X17485Y18680
X17485Y18365
X17485Y17105
X17485Y16790
X17485Y16475
X17485Y15530
X17485Y15215
X17485Y14900
X17485Y14585
X17485Y14270
X17485Y13955
X17485Y13640
X17485Y13325
X17485Y13010
X17485Y12695
X17485Y12065
X17485Y11750
X17485Y11435
X17485Y11120
X17485Y10806
X17485Y7853
X18829Y13068
X18829Y12713
X20890Y17608
X20890Y17215
X22254Y13068
X22254Y12694
X22254Y12320
X26569Y20152
X26569Y19679
X26569Y19207
X26569Y18734
X21018Y18714
X21018Y16746
X21057Y20053
X21884Y18636
X22041Y17573
X22159Y16746
X22396Y20053
X22789Y19147
X22829Y18163
X23380Y17533
X23419Y16746
X23813Y20053
X24049Y19344
X24128Y16746
X24214Y18653
X24640Y17100
X25151Y17966
X25388Y17021
X25545Y20053
X25860Y16746
X26178Y19228
X26451Y18360
X26451Y17021
X20890Y17608
X20890Y17214
X26569Y20151
X26569Y19679
X26569Y19207
X26569Y18734
X1226Y6986
X1149Y7385
X1068Y7970
X1068Y8364
X1826Y8624
X2540Y8640
X2824Y8663
X3430Y8482
X3745Y8482
X4311Y8670
X4737Y8670
X5320Y8482
X5635Y8482
X6204Y8652
X6489Y8661
X7177Y8460
X7561Y8460
X8072Y8686
X8514Y8670
X9100Y8482
X9415Y8482
X9995Y8579
X10379Y8640
X10989Y8482
X11304Y8482
X11934Y8640
X12249Y8640
X12879Y8482
X13194Y8482
X13824Y8640
X14139Y8640
X14769Y8482
X15005Y8718
X15281Y9585
X15596Y9466
X15793Y9191
X16147Y9191
X16235Y10116
X15733Y10136
X15796Y10414
X15694Y11258
X16068Y11396
X16172Y11671
X16275Y11159
X15996Y12485
X15988Y12982
X15674Y13010
X15714Y13403
X15596Y14191
X15001Y14267
X14611Y14309
X14277Y14320
X14533Y14033
X14785Y13873
X14948Y14737
X14964Y15124
X14719Y15284
X15105Y15529
X15015Y16237
X15084Y16514
X14966Y17380
X14769Y17734
X14996Y18295
X15017Y18679
X15818Y18383
X16141Y18162
X16524Y18138
X16103Y19598
X16054Y20248
X16273Y20431
X15711Y20846
X14987Y21039
X14611Y20726
X14367Y20874
X14218Y21553
X13942Y21435
X15164Y21642
X15442Y21516
X15586Y22035
X15901Y22136
X16524Y21580
X12615Y21570
X12317Y21620
X12371Y20981
X12710Y20771
X13307Y20096
X13115Y19860
X12879Y19624
X12052Y19388
X11433Y19284
X11462Y19624
X11152Y19196
X10950Y18994
X11107Y18049
X11541Y18025
X12367Y18285
X12682Y18285
X12826Y17869
X13470Y17970
X13509Y18679
X13737Y18850
X14060Y18207
X14060Y17262
X13115Y16947
X12800Y16947
X12879Y16380
X12800Y15411
X13194Y15411
X13472Y15888
X14186Y15997
X14050Y15240
X14064Y14863
X12997Y14781
X13076Y14062
X13391Y14073
X12503Y13988
X12722Y13207
X13037Y13128
X13667Y13246
X13913Y13101
X14207Y12853
X13844Y12380
X13450Y12380
X12800Y12065
X12485Y12068
X12170Y12065
X11541Y12201
X11274Y12390
X11383Y12931
X11596Y13167
X11746Y12762
X10753Y12931
X10832Y13207
X9966Y13246
X9887Y12892
X9887Y12065
X10202Y12068
X10517Y12104
X10793Y11671
X10793Y11356
X10802Y11071
X11029Y10529
X11619Y10529
X11993Y10766
X11993Y11396
X11560Y11258
X13017Y11120
X13012Y11410
X13844Y11258
X14277Y11396
X14277Y10766
X13903Y10529
X13312Y10529
X12741Y9781
X12234Y9683
X11949Y9683
X10345Y9683
X10059Y9683
X9786Y9767
X9710Y10766
X9336Y10529
X8785Y10529
X8450Y11120
X8445Y11410
X8254Y12080
X7919Y12068
X7604Y12065
X7426Y11396
X6993Y11258
X7092Y10529
X7426Y10766
X7664Y9799
X8169Y9644
X8455Y9683
X6922Y10039
X6565Y9683
X6280Y9683
X6265Y10333
X6215Y11034
X6196Y11711
X6209Y12006
X6196Y12365
X6186Y12852
X6226Y13285
X5846Y13413
X5561Y13433
X5399Y12931
X5537Y12498
X5039Y12609
X4619Y12709
X4594Y12994
X4100Y13010
X3763Y12893
X3364Y13176
X3686Y13522
X4178Y13608
X4245Y14091
X4211Y14427
X4257Y14811
X4257Y15096
X4257Y15648
X4218Y16396
X4415Y16907
X4336Y17183
X4360Y17645
X4324Y18225
X4296Y18994
X3903Y19092
X3893Y19432
X3037Y19663
X3056Y19073
X3110Y18325
X2722Y18246
X2328Y18242
X1678Y18238
X1068Y18364
X1068Y17970
X1068Y17577
X1068Y17183
X1068Y16789
X1068Y16396
X1068Y16002
X1068Y15608
X1068Y15214
X1068Y14821
X1068Y14427
X1068Y14033
X1068Y13640
X1068Y13246
X1304Y13010
X1844Y13177
X1836Y12695
X2111Y12557
X2473Y12597
X2741Y12496
X3401Y12291
X3414Y12006
X3401Y11711
X3430Y11356
X2949Y11499
X2447Y11506
X2604Y11081
X2487Y10755
X2875Y10727
X2544Y10333
X2505Y9781
X2786Y9683
X3548Y9752
X4021Y9752
X4390Y9683
X4675Y9683
X5084Y9742
X5438Y9703
X5025Y10333
X5084Y10766
X5399Y11081
X5261Y11474
X5891Y11474
X5765Y10641
X4021Y10766
X3785Y10333
X4561Y11363
X4602Y11646
X4533Y12222
X5064Y13679
X5135Y14924
X5094Y15529
X5072Y15943
X5104Y16455
X5094Y17025
X5094Y17734
X5094Y18364
X5035Y19028
X5938Y19137
X5962Y19751
X6166Y19952
X6609Y19880
X6659Y19466
X6659Y19181
X6659Y18360
X6645Y17971
X6122Y17970
X6122Y17685
X6408Y17666
X6619Y17419
X6541Y17065
X6654Y16612
X7560Y16619
X7843Y16728
X7722Y16986
X7473Y17303
X7485Y16199
X7633Y15417
X7722Y15018
X7535Y14673
X7249Y13758
X6720Y13742
X6577Y13998
X6541Y13000
X6895Y12707
X6975Y12397
X7643Y12931
X8128Y12945
X8115Y13230
X8276Y14211
X8684Y14254
X8745Y13975
X9021Y14270
X9670Y14294
X9661Y14009
X10104Y14368
X10335Y14152
X10822Y14685
X9929Y14978
X9446Y14982
X9710Y15342
X10044Y15844
X10517Y16317
X9611Y16356
X9139Y17537
X8824Y17498
X8545Y17000
X8076Y16563
X8548Y15372
X6698Y15569
X6462Y14978
X6147Y15037
X5737Y15101
X5861Y14486
X5950Y17085
X7475Y18552
X7485Y18994
X7407Y19624
X7415Y19909
X7547Y20383
X7475Y20660
X7604Y21159
X7151Y21744
X7919Y22299
X8715Y22412
X9040Y22367
X9328Y22409
X9647Y22406
X9961Y22400
X9572Y21514
X8952Y21543
X8666Y21543
X8381Y21553
X8526Y20548
X8588Y20254
X8243Y19742
X8391Y18994
X8233Y18482
X9139Y18403
X9494Y18315
X9769Y18049
X9572Y19191
X9119Y18915
X10281Y19624
X9808Y20096
X9808Y21034
X10202Y21238
X10542Y21637
X11491Y21555
X10674Y20293
X10989Y16840
X11501Y16958
X11723Y16777
X11943Y16958
X12121Y16735
X11974Y15569
X11462Y15372
X11344Y16081
X9259Y13158
X9021Y12813
X8883Y12380
X9178Y12380
X9277Y11258
X9710Y11396
X9493Y7183
X9730Y6986
X9966Y7183
X10202Y6986
X10438Y7183
X10674Y6986
X10911Y7183
X11147Y6986
X11383Y7183
X11619Y6986
X11856Y7183
X12092Y6986
X12328Y7183
X12564Y6986
X12800Y7183
X13037Y6986
X13273Y7183
X13509Y6986
X13745Y7183
X13982Y6986
X14218Y7183
X14454Y6986
X14690Y7183
X14926Y6986
X15359Y6986
X15596Y7183
X15832Y6986
X16068Y7183
X16304Y6986
X16541Y7183
X16237Y7890
X15764Y7890
X14730Y9742
X14124Y9683
X13839Y9683
X14454Y12065
X14769Y12068
X15084Y12065
X15370Y12010
X16472Y15027
X14178Y19388
X14219Y19670
X6738Y20257
X6414Y20588
X6489Y20864
X6165Y20729
X5773Y21179
X5505Y21063
X5215Y20902
X4915Y20889
X4966Y20608
X5202Y19978
X5577Y19713
X5706Y21563
X5035Y21407
X4283Y21100
X3914Y21255
X3895Y20960
X4045Y20556
X3716Y20569
X3222Y20768
X2359Y20566
X1950Y20475
X2013Y21041
X1167Y21120
X1147Y20726
X1737Y22006
X1777Y22459
X2859Y22459
X3499Y21662
X4239Y21759
X5259Y22301
X6265Y22183
X2220Y19623
X2052Y19388
X1877Y18810
X1481Y18797
X1068Y18758
X2194Y17365
X2466Y17025
X2634Y16264
X3440Y16238
X3440Y15529
X3440Y14821
X3440Y14112
X3005Y13728
X2690Y13959
X2190Y13423
X1196Y12331
X1806Y11711
X1481Y11041
X1068Y10884
X1304Y10333
X1107Y9742
X1659Y9545
X1422Y9063
X2058Y9878
X1934Y10667
X1659Y7577
X1702Y7017
X1934Y7183
X2170Y6986
X2407Y7183
X2643Y6986
X2879Y7183
X3115Y6986
X3352Y7183
X3588Y6986
X3824Y7183
X4060Y6986
X4296Y7183
X4533Y6986
X4769Y7183
X5005Y6986
X5241Y7183
X5478Y6986
X5714Y7183
X5950Y6986
X6186Y7183
X6422Y6986
X6659Y7183
X6895Y6986
X7131Y7183
X7367Y6986
X7604Y7183
X7840Y6986
X8076Y7183
X8312Y6986
X8548Y7183
X8785Y6986
X9021Y7183
X9257Y6986
X2919Y17557
X16619Y17714
X16806Y17930
X17485Y18049
X17485Y18364
X17485Y18679
X17485Y18994
X17485Y19309
X17485Y19624
X17485Y19939
X17485Y20254
X17485Y20569
X17485Y20884
X17485Y21199
X17485Y21514
X17407Y21829
X17084Y21514
X17212Y20684
X17247Y19466
X17247Y18522
X16630Y18864
X16657Y16949
X17485Y17104
X17485Y17419
X17485Y17734
X17485Y16789
X17485Y16474
X17485Y16159
X17485Y15844
X17485Y15529
X17485Y15214
X17485Y14899
X17485Y14585
X17485Y14270
X17485Y13955
X17485Y13640
X17485Y13325
X17485Y13010
X17485Y12695
X17485Y12380
X17485Y12065
X17485Y11750
X17485Y11435
X17485Y11120
X17485Y10805
X16657Y10680
X16659Y9978
X16974Y9821
X17119Y10067
X17092Y9506
X17210Y9191
X17289Y8915
X17289Y8522
X17485Y8167
X17485Y7852
X17141Y7882
X16679Y7883
X16777Y6986
X17013Y7183
X17249Y6986
X17446Y7301
X16974Y11356
X16634Y11411
X17202Y14305
X16875Y15894
X16580Y15894
X16856Y22537
X17170Y22537
X17485Y22537
X16541Y22537
X16226Y22537
X15911Y22537
X15596Y22537
X15281Y22537
X14966Y22537
X14651Y22537
X14336Y22537
X14021Y22537
X13706Y22537
X13391Y22537
X13076Y22537
X12761Y22537
X12446Y22537
X12131Y22537
X11816Y22537
X11501Y22537
X11186Y22537
X10871Y22537
X10556Y22537
X8391Y22537
X8076Y22537
X7761Y22537
X7446Y22537
X7131Y22537
X4995Y22511
X4060Y22537
X3745Y22537
X3430Y22537
X1068Y22537
X18835Y12173
X18987Y12426
X18829Y12713
X18829Y13068
X19831Y12734
X20105Y12629
X20348Y12842
X19798Y12329
X21277Y13069
X22254Y13068
X22254Y12694
X22254Y12320
X439Y3126
X514Y6056
X558Y4386
X558Y1020
X791Y1210
X847Y2490
X847Y2801
X1001Y5824
X1229Y4233
X1321Y4931
X1384Y2303
X1521Y1370
X1813Y1098
X1916Y6138
X1962Y5501
X2004Y5124
X2079Y3817
X2083Y2580
X2359Y1059
X2440Y3145
X2565Y1856
X2625Y3805
X2634Y4852
X2743Y3095
X2841Y1020
X3638Y6143
X3806Y1827
X4096Y3632
X4326Y4571
X4327Y3071
X4328Y3864
X4534Y4107
X4554Y921
X4612Y3766
X4919Y5143
X5127Y3008
X5216Y5092
X5341Y951
X5357Y4445
X5526Y5098
X5544Y1665
X5617Y3047
X5676Y4047
X5829Y4722
X5833Y1748
X6134Y2481
X6152Y5447
X6160Y5748
X6532Y941
X6739Y5579
X6764Y6164
X6773Y5280
X7030Y5945
X7168Y4303
X7214Y3456
X7284Y2943
X7284Y2043
X7284Y1742
X7284Y1441
X7284Y1140
X7288Y2535
X7664Y4071
X7920Y3854
X9995Y899
X10212Y2648
X10252Y5901
X10400Y5488
X10499Y2555
X10538Y4907
X10538Y4632
X10538Y4356
X10715Y5468
X10735Y892
X10843Y4907
X10843Y4632
X11040Y5882
X502Y5587
X502Y5193
X502Y4799
X502Y3901
X502Y3501
X10971Y2575
X10971Y2181
X10971Y1787
X10971Y1394
X10834Y28450
X10834Y26482
X10873Y29789
X11700Y28372
X11857Y27309
X11975Y26482
X12212Y29789
X12605Y28883
X12645Y27899
X13196Y27269
X13235Y26482
X13629Y29789
X13865Y29080
X13944Y26482
X14030Y28389
X14456Y26836
X14967Y27702
X15204Y26757
X15361Y29789
X15676Y26482
X15994Y28964
X16267Y28096
X16267Y26757
X10706Y27344
X10706Y26950
X16385Y29887
X16385Y29415
X16385Y28943
X16385Y28470
X1923Y29074
X2559Y29346
X2944Y29132
X3373Y29773
X3709Y29813
X4299Y29616
X4555Y29340
X5086Y29222
X5382Y29616
X4890Y29813
X6071Y29813
X7646Y29813
X7626Y29340
X7918Y28229
X7893Y27182
X7605Y26860
X7530Y25807
X7646Y24695
X7646Y23907
X6642Y24380
X6636Y25025
X5390Y24965
X5480Y24498
X5000Y24330
X5283Y23907
X4115Y24329
X3943Y23633
X3551Y23592
X3157Y23592
X3251Y24274
X2762Y24584
X2445Y24197
X2015Y24594
X2394Y24983
X3118Y25058
X3551Y25010
X2566Y26326
X1937Y26326
X1923Y27245
X1923Y28100
X2565Y27877
X3590Y27293
X5037Y26900
X5086Y27647
X5596Y27214
X6594Y26625
X8551Y25679
X8618Y24747
X8236Y24301
X8827Y23907
X9614Y24734
X9782Y26733
X9376Y26775
X9366Y27562
X8963Y27827
X9040Y29264
X8405Y28855
X8172Y29695
T02
X6934Y13088
X8627Y12970
X10359Y13010
X12249Y12970
X13391Y12970
X14572Y12970
X15084Y13443
T03
X2035Y23770
X2212Y29872
X4496Y23770
X6189Y23770
X6937Y23770
X6956Y29872
X8905Y29872
X9456Y23770
X9633Y29872
X1383Y22222
X4525Y21462
X4525Y22262
X6525Y21862
X7825Y1905
X8613Y3087
X9400Y1905
X699Y1827
X2699Y2227
X2699Y1427
X2212Y29872
X6957Y29872
X6937Y23769
X6189Y23769
X4496Y23769
X2035Y23769
X9457Y23769
X9634Y29872
X8905Y29872
T04
X2353Y33505
X2353Y31733
X3534Y33505
X3534Y31733
X4715Y33505
X4715Y31733
X5896Y33505
X5896Y31733
X7077Y33505
X7077Y31733
X8258Y33505
X8258Y31733
X9439Y33505
X9439Y31733
X10620Y33505
X10620Y31733
X13770Y33505
X13770Y31733
X14951Y33505
X14951Y31733
X16132Y33505
X16132Y31733
X17313Y33505
X17313Y31733
X18494Y33505
X18494Y31733
X19676Y33505
X19676Y31733
X20857Y33505
X20857Y31733
X22038Y33505
X22038Y31733
X23219Y33505
X23219Y31733
X24400Y33505
X24400Y31733
X25581Y33505
X25581Y31733
X26762Y33505
X26762Y31733
X27943Y33505
X27943Y31733
X7648Y5714
X8648Y5714
X9648Y5714
M30
