G75*
G70*
%OFA0B0*%
%FSLAX25Y25*%
%IPPOS*%
%LPD*%
%AMOC8*
5,1,8,0,0,1.08239X$1,22.5*
%
%AMM16*
21,1,0.031500,0.018900,0.000000,0.000000,0.000000*
21,1,0.022840,0.027560,0.000000,0.000000,0.000000*
1,1,0.008660,0.011420,-0.009450*
1,1,0.008660,-0.011420,-0.009450*
1,1,0.008660,-0.011420,0.009450*
1,1,0.008660,0.011420,0.009450*
%
%AMM17*
21,1,0.031500,0.030710,0.000000,0.000000,0.000000*
21,1,0.022050,0.040160,0.000000,0.000000,0.000000*
1,1,0.009450,0.011020,-0.015350*
1,1,0.009450,-0.011020,-0.015350*
1,1,0.009450,-0.011020,0.015350*
1,1,0.009450,0.011020,0.015350*
%
%AMM18*
21,1,0.031500,0.018900,0.000000,0.000000,90.000000*
21,1,0.022840,0.027560,0.000000,0.000000,90.000000*
1,1,0.008660,0.009450,0.011420*
1,1,0.008660,0.009450,-0.011420*
1,1,0.008660,-0.009450,-0.011420*
1,1,0.008660,-0.009450,0.011420*
%
%AMM19*
21,1,0.037400,0.026770,0.000000,0.000000,0.000000*
21,1,0.026770,0.037400,0.000000,0.000000,0.000000*
1,1,0.010630,0.013390,-0.013390*
1,1,0.010630,-0.013390,-0.013390*
1,1,0.010630,-0.013390,0.013390*
1,1,0.010630,0.013390,0.013390*
%
%AMM20*
21,1,0.031500,0.030710,0.000000,0.000000,90.000000*
21,1,0.022050,0.040160,0.000000,0.000000,90.000000*
1,1,0.009450,0.015350,0.011020*
1,1,0.009450,0.015350,-0.011020*
1,1,0.009450,-0.015350,-0.011020*
1,1,0.009450,-0.015350,0.011020*
%
%AMM21*
21,1,0.039370,0.030320,0.000000,0.000000,90.000000*
21,1,0.028350,0.041340,0.000000,0.000000,90.000000*
1,1,0.011020,0.015160,0.014170*
1,1,0.011020,0.015160,-0.014170*
1,1,0.011020,-0.015160,-0.014170*
1,1,0.011020,-0.015160,0.014170*
%
%AMM44*
21,1,0.029530,0.026380,0.000000,0.000000,0.000000*
21,1,0.020470,0.035430,0.000000,0.000000,0.000000*
1,1,0.009060,0.010240,-0.013190*
1,1,0.009060,-0.010240,-0.013190*
1,1,0.009060,-0.010240,0.013190*
1,1,0.009060,0.010240,0.013190*
%
%AMM45*
21,1,0.021650,0.027950,0.000000,0.000000,0.000000*
21,1,0.014170,0.035430,0.000000,0.000000,0.000000*
1,1,0.007480,0.007090,-0.013980*
1,1,0.007480,-0.007090,-0.013980*
1,1,0.007480,-0.007090,0.013980*
1,1,0.007480,0.007090,0.013980*
%
%AMM46*
21,1,0.082680,0.045670,0.000000,0.000000,90.000000*
21,1,0.067320,0.061020,0.000000,0.000000,90.000000*
1,1,0.015350,0.022840,0.033660*
1,1,0.015350,0.022840,-0.033660*
1,1,0.015350,-0.022840,-0.033660*
1,1,0.015350,-0.022840,0.033660*
%
%AMM47*
21,1,0.062990,0.020470,0.000000,0.000000,90.000000*
21,1,0.053940,0.029530,0.000000,0.000000,90.000000*
1,1,0.009060,0.010240,0.026970*
1,1,0.009060,0.010240,-0.026970*
1,1,0.009060,-0.010240,-0.026970*
1,1,0.009060,-0.010240,0.026970*
%
%AMM48*
21,1,0.039370,0.030320,0.000000,0.000000,180.000000*
21,1,0.028350,0.041340,0.000000,0.000000,180.000000*
1,1,0.011020,-0.014170,0.015160*
1,1,0.011020,0.014170,0.015160*
1,1,0.011020,0.014170,-0.015160*
1,1,0.011020,-0.014170,-0.015160*
%
%AMM49*
21,1,0.039760,0.026770,0.000000,0.000000,0.000000*
21,1,0.029130,0.037400,0.000000,0.000000,0.000000*
1,1,0.010630,0.014570,-0.013390*
1,1,0.010630,-0.014570,-0.013390*
1,1,0.010630,-0.014570,0.013390*
1,1,0.010630,0.014570,0.013390*
%
%AMM50*
21,1,0.074800,0.036220,0.000000,0.000000,0.000000*
21,1,0.061810,0.049210,0.000000,0.000000,0.000000*
1,1,0.012990,0.030910,-0.018110*
1,1,0.012990,-0.030910,-0.018110*
1,1,0.012990,-0.030910,0.018110*
1,1,0.012990,0.030910,0.018110*
%
%AMM51*
21,1,0.016540,0.028980,0.000000,0.000000,270.000000*
21,1,0.010080,0.035430,0.000000,0.000000,270.000000*
1,1,0.006460,-0.014490,-0.005040*
1,1,0.006460,-0.014490,0.005040*
1,1,0.006460,0.014490,0.005040*
1,1,0.006460,0.014490,-0.005040*
%
%AMM52*
21,1,0.029530,0.026380,0.000000,0.000000,270.000000*
21,1,0.020470,0.035430,0.000000,0.000000,270.000000*
1,1,0.009060,-0.013190,-0.010240*
1,1,0.009060,-0.013190,0.010240*
1,1,0.009060,0.013190,0.010240*
1,1,0.009060,0.013190,-0.010240*
%
%AMM53*
21,1,0.021650,0.027950,0.000000,0.000000,270.000000*
21,1,0.014170,0.035430,0.000000,0.000000,270.000000*
1,1,0.007480,-0.013980,-0.007090*
1,1,0.007480,-0.013980,0.007090*
1,1,0.007480,0.013980,0.007090*
1,1,0.007480,0.013980,-0.007090*
%
%AMM54*
21,1,0.031500,0.049610,0.000000,0.000000,270.000000*
21,1,0.022050,0.059060,0.000000,0.000000,270.000000*
1,1,0.009450,-0.024800,-0.011020*
1,1,0.009450,-0.024800,0.011020*
1,1,0.009450,0.024800,0.011020*
1,1,0.009450,0.024800,-0.011020*
%
%AMM55*
21,1,0.074800,0.036220,0.000000,0.000000,90.000000*
21,1,0.061810,0.049210,0.000000,0.000000,90.000000*
1,1,0.012990,0.018110,0.030910*
1,1,0.012990,0.018110,-0.030910*
1,1,0.012990,-0.018110,-0.030910*
1,1,0.012990,-0.018110,0.030910*
%
%AMM56*
21,1,0.037400,0.026770,0.000000,0.000000,270.000000*
21,1,0.026770,0.037400,0.000000,0.000000,270.000000*
1,1,0.010630,-0.013390,-0.013390*
1,1,0.010630,-0.013390,0.013390*
1,1,0.010630,0.013390,0.013390*
1,1,0.010630,0.013390,-0.013390*
%
%AMM92*
21,1,0.029130,0.018900,0.000000,-0.000000,90.000000*
21,1,0.018900,0.029130,0.000000,-0.000000,90.000000*
1,1,0.010240,0.009450,0.009450*
1,1,0.010240,0.009450,-0.009450*
1,1,0.010240,-0.009450,-0.009450*
1,1,0.010240,-0.009450,0.009450*
%
%AMM93*
21,1,0.025200,0.019680,0.000000,-0.000000,180.000000*
21,1,0.015750,0.029130,0.000000,-0.000000,180.000000*
1,1,0.009450,-0.007870,0.009840*
1,1,0.009450,0.007870,0.009840*
1,1,0.009450,0.007870,-0.009840*
1,1,0.009450,-0.007870,-0.009840*
%
%AMM94*
21,1,0.038980,0.026770,0.000000,-0.000000,180.000000*
21,1,0.026770,0.038980,0.000000,-0.000000,180.000000*
1,1,0.012210,-0.013390,0.013390*
1,1,0.012210,0.013390,0.013390*
1,1,0.012210,0.013390,-0.013390*
1,1,0.012210,-0.013390,-0.013390*
%
%AMM95*
21,1,0.025200,0.019680,0.000000,-0.000000,270.000000*
21,1,0.015750,0.029130,0.000000,-0.000000,270.000000*
1,1,0.009450,-0.009840,-0.007870*
1,1,0.009450,-0.009840,0.007870*
1,1,0.009450,0.009840,0.007870*
1,1,0.009450,0.009840,-0.007870*
%
%ADD10C,0.02362*%
%ADD102C,0.04724*%
%ADD103C,0.04294*%
%ADD104C,0.05906*%
%ADD126M44*%
%ADD127M45*%
%ADD128M46*%
%ADD129M47*%
%ADD130M48*%
%ADD131M49*%
%ADD132M50*%
%ADD133M51*%
%ADD134R,0.09843X0.07087*%
%ADD135M52*%
%ADD136M53*%
%ADD137M54*%
%ADD138M55*%
%ADD139M56*%
%ADD142C,0.05118*%
%ADD173C,0.02913*%
%ADD18O,0.07874X0.07087*%
%ADD183R,0.07874X0.07500*%
%ADD184O,0.07874X0.07500*%
%ADD186R,0.01772X0.05709*%
%ADD187R,0.02559X0.04803*%
%ADD215M92*%
%ADD216M93*%
%ADD217M94*%
%ADD218M95*%
%ADD76C,0.03900*%
%ADD78M16*%
%ADD80M17*%
%ADD81M18*%
%ADD84M19*%
%ADD85M20*%
%ADD87M21*%
X0000000Y0000000D02*
%LPD*%
G01*
D10*
X0188370Y0234931D03*
X0183646Y0234931D03*
X0193094Y0234931D03*
X0197819Y0234931D03*
X0172386Y0291722D03*
X0168449Y0291722D03*
X0154843Y0233874D03*
X0151102Y0233874D03*
X0147362Y0233874D03*
X0151299Y0268126D03*
X0154843Y0268126D03*
D18*
X0077000Y0325906D03*
X0077000Y0314094D03*
X0077000Y0302283D03*
X0077000Y0290472D03*
X0077000Y0278661D03*
X0077000Y0266850D03*
X0077000Y0255039D03*
X0077000Y0243228D03*
X0077000Y0211732D03*
X0077000Y0199921D03*
X0077000Y0188110D03*
X0077000Y0176299D03*
X0077000Y0164488D03*
X0077000Y0152677D03*
X0077000Y0140866D03*
X0077000Y0129055D03*
X0077000Y0117244D03*
X0077000Y0105433D03*
X0077000Y0093622D03*
X0077000Y0081811D03*
X0077000Y0070000D03*
X0094717Y0070000D03*
X0094717Y0081811D03*
X0094717Y0093622D03*
X0094717Y0105433D03*
X0094717Y0117244D03*
X0094717Y0129055D03*
X0094717Y0140866D03*
X0094717Y0152677D03*
X0094717Y0164488D03*
X0094717Y0176299D03*
X0094717Y0188110D03*
X0094717Y0199921D03*
X0094717Y0211732D03*
X0094717Y0243228D03*
X0094717Y0255039D03*
X0094717Y0266850D03*
X0094717Y0278661D03*
X0094717Y0290472D03*
X0094717Y0302283D03*
X0094717Y0314094D03*
X0094717Y0325906D03*
X0237646Y0110882D02*
G01*
G75*
D78*
X0269929Y0156551D02*
D03*
X0269929Y0160488D02*
D03*
X0390008Y0205764D02*
D03*
X0390008Y0201827D02*
D03*
X0266288Y0265016D02*
D03*
X0266288Y0261079D02*
D03*
X0266583Y0148284D02*
D03*
X0266583Y0152221D02*
D03*
X0260874Y0236866D02*
D03*
X0260874Y0232929D02*
D03*
X0240402Y0255961D02*
D03*
X0240402Y0259898D02*
D03*
X0298670Y0244740D02*
D03*
X0298670Y0248677D02*
D03*
X0328887Y0178303D02*
D03*
X0328887Y0182240D02*
D03*
X0390946Y0259325D02*
D03*
X0390946Y0263262D02*
D03*
X0244536Y0255961D02*
D03*
X0244536Y0259898D02*
D03*
X0285284Y0135291D02*
D03*
X0285284Y0131354D02*
D03*
X0290008Y0135291D02*
D03*
X0290008Y0131354D02*
D03*
X0294733Y0135291D02*
D03*
X0294733Y0131354D02*
D03*
X0299457Y0135291D02*
D03*
X0299457Y0131354D02*
D03*
X0265402Y0156551D02*
D03*
X0265402Y0160488D02*
D03*
X0321307Y0156551D02*
D03*
X0321307Y0160488D02*
D03*
X0293355Y0156551D02*
D03*
X0293355Y0160488D02*
D03*
X0261662Y0135291D02*
D03*
X0261662Y0131354D02*
D03*
X0256938Y0135291D02*
D03*
X0256938Y0131354D02*
D03*
X0252213Y0135291D02*
D03*
X0252213Y0131354D02*
D03*
X0247489Y0135291D02*
D03*
X0247489Y0131354D02*
D03*
X0280560Y0135291D02*
D03*
X0280560Y0131354D02*
D03*
X0275835Y0135291D02*
D03*
X0275835Y0131354D02*
D03*
X0271111Y0135291D02*
D03*
X0271111Y0131354D02*
D03*
X0266386Y0135291D02*
D03*
X0266386Y0131354D02*
D03*
X0326229Y0156551D02*
D03*
X0326229Y0160488D02*
D03*
X0242370Y0126039D02*
D03*
X0242370Y0129976D02*
D03*
X0293355Y0146315D02*
D03*
X0293355Y0150252D02*
D03*
X0242370Y0118362D02*
D03*
X0242370Y0122299D02*
D03*
D80*
X0297883Y0237654D02*
D03*
X0291583Y0237654D02*
D03*
X0297883Y0233028D02*
D03*
X0291583Y0233028D02*
D03*
X0368158Y0258913D02*
D03*
X0374457Y0258913D02*
D03*
D81*
X0397489Y0246512D02*
D03*
X0393551Y0246512D02*
D03*
X0256389Y0241691D02*
D03*
X0260326Y0241691D02*
D03*
X0274260Y0237063D02*
D03*
X0270323Y0237063D02*
D03*
X0274260Y0232339D02*
D03*
X0270323Y0232339D02*
D03*
X0307331Y0195921D02*
D03*
X0311268Y0195921D02*
D03*
X0306544Y0224268D02*
D03*
X0310481Y0224268D02*
D03*
X0288630Y0263441D02*
D03*
X0284693Y0263441D02*
D03*
X0245717Y0203793D02*
D03*
X0241780Y0203793D02*
D03*
X0251622Y0203793D02*
D03*
X0255559Y0203793D02*
D03*
X0291878Y0198677D02*
D03*
X0287941Y0198677D02*
D03*
X0291878Y0222890D02*
D03*
X0287941Y0222890D02*
D03*
X0291878Y0207535D02*
D03*
X0287941Y0207535D02*
D03*
X0321012Y0178303D02*
D03*
X0324949Y0178303D02*
D03*
X0291878Y0203205D02*
D03*
X0287941Y0203205D02*
D03*
X0245520Y0227417D02*
D03*
X0241583Y0227417D02*
D03*
X0251426Y0227417D02*
D03*
X0255363Y0227417D02*
D03*
D84*
X0291623Y0228697D02*
D03*
X0297843Y0228697D02*
D03*
D85*
X0242371Y0199071D02*
D03*
X0242371Y0192772D02*
D03*
X0242371Y0223087D02*
D03*
X0242371Y0216787D02*
D03*
D87*
X0249261Y0188109D02*
D03*
X0258513Y0191849D02*
D03*
X0249261Y0212124D02*
D03*
X0258513Y0215864D02*
D03*
D87*
X0249261Y0195589D02*
D03*
X0249261Y0219605D02*
D03*
D102*
X0371504Y0146315D02*
D03*
X0391189Y0146315D02*
D03*
X0332134Y0134504D02*
D03*
X0351819Y0146315D02*
D03*
X0332134Y0146315D02*
D03*
X0391189Y0158126D02*
D03*
X0371504Y0158126D02*
D03*
X0351819Y0158126D02*
D03*
X0332134Y0158126D02*
D03*
X0351819Y0134504D02*
D03*
X0391189Y0134504D02*
D03*
X0371504Y0134504D02*
D03*
D103*
X0293394Y0260823D02*
D03*
X0273394Y0256823D02*
D03*
X0273394Y0264823D02*
D03*
D104*
X0241977Y0264425D02*
D03*
D126*
X0315107Y0165213D02*
D03*
X0315107Y0158126D02*
D03*
X0305067Y0158126D02*
D03*
X0305067Y0165213D02*
D03*
X0305067Y0146708D02*
D03*
X0305067Y0153795D02*
D03*
X0315107Y0153795D02*
D03*
X0315107Y0146708D02*
D03*
X0287351Y0118559D02*
D03*
X0287351Y0125646D02*
D03*
X0297390Y0125646D02*
D03*
X0297390Y0118559D02*
D03*
X0259201Y0146709D02*
D03*
X0259201Y0153795D02*
D03*
X0249162Y0153795D02*
D03*
X0249162Y0146709D02*
D03*
X0249162Y0165213D02*
D03*
X0249162Y0158126D02*
D03*
X0259201Y0158126D02*
D03*
X0259201Y0165213D02*
D03*
X0287154Y0146709D02*
D03*
X0287154Y0153795D02*
D03*
X0277115Y0153795D02*
D03*
X0277115Y0146709D02*
D03*
X0277115Y0165213D02*
D03*
X0277115Y0158126D02*
D03*
X0287154Y0158126D02*
D03*
X0287154Y0165213D02*
D03*
X0249556Y0118559D02*
D03*
X0249556Y0125646D02*
D03*
X0259595Y0125646D02*
D03*
X0259595Y0118559D02*
D03*
X0268453Y0118559D02*
D03*
X0268453Y0125646D02*
D03*
X0278492Y0125646D02*
D03*
X0278492Y0118559D02*
D03*
D127*
X0308512Y0158126D02*
D03*
X0311662Y0158126D02*
D03*
X0311662Y0165213D02*
D03*
X0308512Y0165213D02*
D03*
X0311662Y0153795D02*
D03*
X0308512Y0153795D02*
D03*
X0308512Y0146708D02*
D03*
X0311662Y0146708D02*
D03*
X0293945Y0125646D02*
D03*
X0290796Y0125646D02*
D03*
X0290796Y0118559D02*
D03*
X0293945Y0118559D02*
D03*
X0255756Y0146709D02*
D03*
X0252607Y0146709D02*
D03*
X0252607Y0153795D02*
D03*
X0255756Y0153795D02*
D03*
X0252607Y0165213D02*
D03*
X0255756Y0165213D02*
D03*
X0255756Y0158126D02*
D03*
X0252607Y0158126D02*
D03*
X0283709Y0146709D02*
D03*
X0280559Y0146709D02*
D03*
X0280559Y0153795D02*
D03*
X0283709Y0153795D02*
D03*
X0280559Y0165213D02*
D03*
X0283709Y0165213D02*
D03*
X0283709Y0158126D02*
D03*
X0280559Y0158126D02*
D03*
X0256150Y0125646D02*
D03*
X0253001Y0125646D02*
D03*
X0253001Y0118559D02*
D03*
X0256150Y0118559D02*
D03*
X0275048Y0125646D02*
D03*
X0271898Y0125646D02*
D03*
X0271898Y0118559D02*
D03*
X0275048Y0118559D02*
D03*
D128*
X0320324Y0206170D02*
D03*
X0320324Y0238847D02*
D03*
X0374457Y0238847D02*
D03*
X0374457Y0206170D02*
D03*
D129*
X0365087Y0216406D02*
D03*
X0360757Y0216406D02*
D03*
X0356426Y0216406D02*
D03*
X0352095Y0216406D02*
D03*
X0347764Y0216406D02*
D03*
X0343434Y0216406D02*
D03*
X0339103Y0216406D02*
D03*
X0334772Y0216406D02*
D03*
D130*
X0394226Y0238753D02*
D03*
X0397966Y0229501D02*
D03*
X0248276Y0241866D02*
D03*
X0244536Y0251118D02*
D03*
X0253985Y0255291D02*
D03*
X0257725Y0246040D02*
D03*
D130*
X0390486Y0229501D02*
D03*
X0240796Y0241866D02*
D03*
X0261465Y0255292D02*
D03*
D131*
X0241977Y0234504D02*
D03*
X0254969Y0234504D02*
D03*
X0279378Y0244740D02*
D03*
X0292371Y0244740D02*
D03*
D132*
X0396701Y0205370D02*
D03*
X0396701Y0216787D02*
D03*
D133*
X0263040Y0221709D02*
D03*
X0263040Y0224268D02*
D03*
X0263040Y0226827D02*
D03*
X0270520Y0226827D02*
D03*
X0270520Y0221709D02*
D03*
D134*
X0309694Y0217378D02*
D03*
X0309694Y0202811D02*
D03*
D135*
X0282134Y0217673D02*
D03*
X0275048Y0217673D02*
D03*
X0275048Y0227713D02*
D03*
X0282134Y0227713D02*
D03*
D136*
X0275048Y0224268D02*
D03*
X0275048Y0221118D02*
D03*
X0282134Y0221118D02*
D03*
X0282134Y0224268D02*
D03*
D137*
X0290402Y0217969D02*
D03*
X0290402Y0212063D02*
D03*
D138*
X0249457Y0262260D02*
D03*
X0260874Y0262260D02*
D03*
D139*
X0385874Y0202063D02*
D03*
X0385874Y0208284D02*
D03*
X0150933Y0205366D02*
%LPD*%
G01*
D142*
X0162547Y0114185D03*
X0174358Y0122059D03*
X0162547Y0129933D03*
D76*
X0161760Y0201193D03*
X0157760Y0181193D03*
X0165760Y0181193D03*
D183*
X0200638Y0111705D03*
D184*
X0200638Y0121705D03*
X0200638Y0131705D03*
G36*
G01*
X0158292Y0125661D02*
X0159650Y0125661D01*
G75*
G02*
X0160231Y0125081I0000000J-000581D01*
G01*
X0160231Y0123919D01*
G75*
G02*
X0159650Y0123338I-000581J0000000D01*
G01*
X0158292Y0123338D01*
G75*
G02*
X0157711Y0123919I0000000J0000581D01*
G01*
X0157711Y0125081D01*
G75*
G02*
X0158292Y0125661I0000581J0000000D01*
G01*
G37*
G36*
G01*
X0158292Y0121842D02*
X0159650Y0121842D01*
G75*
G02*
X0160231Y0121262I0000000J-000581D01*
G01*
X0160231Y0120100D01*
G75*
G02*
X0159650Y0119520I-000581J0000000D01*
G01*
X0158292Y0119520D01*
G75*
G02*
X0157711Y0120100I0000000J0000581D01*
G01*
X0157711Y0121262D01*
G75*
G02*
X0158292Y0121842I0000581J0000000D01*
G01*
G37*
G36*
G01*
X0173581Y0111193D02*
X0174939Y0111193D01*
G75*
G02*
X0175520Y0110612I0000000J-000581D01*
G01*
X0175520Y0109451D01*
G75*
G02*
X0174939Y0108870I-000581J0000000D01*
G01*
X0173581Y0108870D01*
G75*
G02*
X0173000Y0109451I0000000J0000581D01*
G01*
X0173000Y0110612D01*
G75*
G02*
X0173581Y0111193I0000581J0000000D01*
G01*
G37*
G36*
G01*
X0173581Y0107374D02*
X0174939Y0107374D01*
G75*
G02*
X0175520Y0106793I0000000J-000581D01*
G01*
X0175520Y0105632D01*
G75*
G02*
X0174939Y0105051I-000581J0000000D01*
G01*
X0173581Y0105051D01*
G75*
G02*
X0173000Y0105632I0000000J0000581D01*
G01*
X0173000Y0106793D01*
G75*
G02*
X0173581Y0107374I0000581J0000000D01*
G01*
G37*
G36*
G01*
X0199777Y0161075D02*
X0197759Y0161075D01*
G75*
G02*
X0196898Y0161936I0000000J0000861D01*
G01*
X0196898Y0163658D01*
G75*
G02*
X0197759Y0164520I0000861J0000000D01*
G01*
X0199777Y0164520D01*
G75*
G02*
X0200638Y0163658I0000000J-000861D01*
G01*
X0200638Y0161936D01*
G75*
G02*
X0199777Y0161075I-000861J0000000D01*
G01*
G37*
G36*
G01*
X0199777Y0167275D02*
X0197759Y0167275D01*
G75*
G02*
X0196898Y0168137I0000000J0000861D01*
G01*
X0196898Y0169859D01*
G75*
G02*
X0197759Y0170720I0000861J0000000D01*
G01*
X0199777Y0170720D01*
G75*
G02*
X0200638Y0169859I0000000J-000861D01*
G01*
X0200638Y0168137D01*
G75*
G02*
X0199777Y0167275I-000861J0000000D01*
G01*
G37*
G36*
G01*
X0155451Y0119520D02*
X0154092Y0119520D01*
G75*
G02*
X0153512Y0120100I0000000J0000581D01*
G01*
X0153512Y0121262D01*
G75*
G02*
X0154092Y0121842I0000581J0000000D01*
G01*
X0155451Y0121842D01*
G75*
G02*
X0156031Y0121262I0000000J-000581D01*
G01*
X0156031Y0120100D01*
G75*
G02*
X0155451Y0119520I-000581J0000000D01*
G01*
G37*
G36*
G01*
X0155451Y0123338D02*
X0154092Y0123338D01*
G75*
G02*
X0153512Y0123919I0000000J0000581D01*
G01*
X0153512Y0125081D01*
G75*
G02*
X0154092Y0125661I0000581J0000000D01*
G01*
X0155451Y0125661D01*
G75*
G02*
X0156031Y0125081I0000000J-000581D01*
G01*
X0156031Y0123919D01*
G75*
G02*
X0155451Y0123338I-000581J0000000D01*
G01*
G37*
G36*
G01*
X0194447Y0179221D02*
X0195805Y0179221D01*
G75*
G02*
X0196386Y0178641I0000000J-000581D01*
G01*
X0196386Y0177479D01*
G75*
G02*
X0195805Y0176899I-000581J0000000D01*
G01*
X0194447Y0176899D01*
G75*
G02*
X0193866Y0177479I0000000J0000581D01*
G01*
X0193866Y0178641D01*
G75*
G02*
X0194447Y0179221I0000581J0000000D01*
G01*
G37*
G36*
G01*
X0194447Y0175403D02*
X0195805Y0175403D01*
G75*
G02*
X0196386Y0174822I0000000J-000581D01*
G01*
X0196386Y0173660D01*
G75*
G02*
X0195805Y0173080I-000581J0000000D01*
G01*
X0194447Y0173080D01*
G75*
G02*
X0193866Y0173660I0000000J0000581D01*
G01*
X0193866Y0174822D01*
G75*
G02*
X0194447Y0175403I0000581J0000000D01*
G01*
G37*
G36*
G01*
X0192577Y0171134D02*
X0193935Y0171134D01*
G75*
G02*
X0194516Y0170553I0000000J-000581D01*
G01*
X0194516Y0169392D01*
G75*
G02*
X0193935Y0168811I-000581J0000000D01*
G01*
X0192577Y0168811D01*
G75*
G02*
X0191996Y0169392I0000000J0000581D01*
G01*
X0191996Y0170553D01*
G75*
G02*
X0192577Y0171134I0000581J0000000D01*
G01*
G37*
G36*
G01*
X0192577Y0167315D02*
X0193935Y0167315D01*
G75*
G02*
X0194516Y0166734I0000000J-000581D01*
G01*
X0194516Y0165573D01*
G75*
G02*
X0193935Y0164992I-000581J0000000D01*
G01*
X0192577Y0164992D01*
G75*
G02*
X0191996Y0165573I0000000J0000581D01*
G01*
X0191996Y0166734D01*
G75*
G02*
X0192577Y0167315I0000581J0000000D01*
G01*
G37*
G36*
G01*
X0199909Y0199746D02*
X0199909Y0198388D01*
G75*
G02*
X0199329Y0197807I-000581J0000000D01*
G01*
X0198167Y0197807D01*
G75*
G02*
X0197587Y0198388I0000000J0000581D01*
G01*
X0197587Y0199746D01*
G75*
G02*
X0198167Y0200327I0000581J0000000D01*
G01*
X0199329Y0200327D01*
G75*
G02*
X0199909Y0199746I0000000J-000581D01*
G01*
G37*
G36*
G01*
X0196090Y0199746D02*
X0196090Y0198388D01*
G75*
G02*
X0195510Y0197807I-000581J0000000D01*
G01*
X0194348Y0197807D01*
G75*
G02*
X0193768Y0198388I0000000J0000581D01*
G01*
X0193768Y0199746D01*
G75*
G02*
X0194348Y0200327I0000581J0000000D01*
G01*
X0195510Y0200327D01*
G75*
G02*
X0196090Y0199746I0000000J-000581D01*
G01*
G37*
G36*
G01*
X0182321Y0150228D02*
X0180963Y0150228D01*
G75*
G02*
X0180382Y0150809I0000000J0000581D01*
G01*
X0180382Y0151970D01*
G75*
G02*
X0180963Y0152551I0000581J0000000D01*
G01*
X0182321Y0152551D01*
G75*
G02*
X0182902Y0151970I0000000J-000581D01*
G01*
X0182902Y0150809D01*
G75*
G02*
X0182321Y0150228I-000581J0000000D01*
G01*
G37*
G36*
G01*
X0182321Y0154047D02*
X0180963Y0154047D01*
G75*
G02*
X0180382Y0154628I0000000J0000581D01*
G01*
X0180382Y0155789D01*
G75*
G02*
X0180963Y0156370I0000581J0000000D01*
G01*
X0182321Y0156370D01*
G75*
G02*
X0182902Y0155789I0000000J-000581D01*
G01*
X0182902Y0154628D01*
G75*
G02*
X0182321Y0154047I-000581J0000000D01*
G01*
G37*
G36*
G01*
X0177026Y0156370D02*
X0178384Y0156370D01*
G75*
G02*
X0178964Y0155789I0000000J-000581D01*
G01*
X0178964Y0154628D01*
G75*
G02*
X0178384Y0154047I-000581J0000000D01*
G01*
X0177026Y0154047D01*
G75*
G02*
X0176445Y0154628I0000000J0000581D01*
G01*
X0176445Y0155789D01*
G75*
G02*
X0177026Y0156370I0000581J0000000D01*
G01*
G37*
G36*
G01*
X0177026Y0152551D02*
X0178384Y0152551D01*
G75*
G02*
X0178964Y0151970I0000000J-000581D01*
G01*
X0178964Y0150809D01*
G75*
G02*
X0178384Y0150228I-000581J0000000D01*
G01*
X0177026Y0150228D01*
G75*
G02*
X0176445Y0150809I0000000J0000581D01*
G01*
X0176445Y0151970D01*
G75*
G02*
X0177026Y0152551I0000581J0000000D01*
G01*
G37*
G36*
G01*
X0179466Y0108890D02*
X0178108Y0108890D01*
G75*
G02*
X0177527Y0109470I0000000J0000581D01*
G01*
X0177527Y0110632D01*
G75*
G02*
X0178108Y0111212I0000581J0000000D01*
G01*
X0179466Y0111212D01*
G75*
G02*
X0180047Y0110632I0000000J-000581D01*
G01*
X0180047Y0109470D01*
G75*
G02*
X0179466Y0108890I-000581J0000000D01*
G01*
G37*
G36*
G01*
X0179466Y0112709D02*
X0178108Y0112709D01*
G75*
G02*
X0177527Y0113289I0000000J0000581D01*
G01*
X0177527Y0114451D01*
G75*
G02*
X0178108Y0115031I0000581J0000000D01*
G01*
X0179466Y0115031D01*
G75*
G02*
X0180047Y0114451I0000000J-000581D01*
G01*
X0180047Y0113289D01*
G75*
G02*
X0179466Y0112709I-000581J0000000D01*
G01*
G37*
D186*
X0156051Y0163240D03*
X0158610Y0163240D03*
X0161169Y0163240D03*
X0163728Y0163240D03*
X0166287Y0163240D03*
X0168846Y0163240D03*
X0171405Y0163240D03*
X0171405Y0140012D03*
X0168846Y0140012D03*
X0166287Y0140012D03*
X0163728Y0140012D03*
X0161169Y0140012D03*
X0158610Y0140012D03*
X0156051Y0140012D03*
G36*
G01*
X0199545Y0173063D02*
X0198187Y0173063D01*
G75*
G02*
X0197606Y0173644I0000000J0000581D01*
G01*
X0197606Y0174805D01*
G75*
G02*
X0198187Y0175386I0000581J0000000D01*
G01*
X0199545Y0175386D01*
G75*
G02*
X0200126Y0174805I0000000J-000581D01*
G01*
X0200126Y0173644D01*
G75*
G02*
X0199545Y0173063I-000581J0000000D01*
G01*
G37*
G36*
G01*
X0199545Y0176882D02*
X0198187Y0176882D01*
G75*
G02*
X0197606Y0177462I0000000J0000581D01*
G01*
X0197606Y0178624D01*
G75*
G02*
X0198187Y0179205I0000581J0000000D01*
G01*
X0199545Y0179205D01*
G75*
G02*
X0200126Y0178624I0000000J-000581D01*
G01*
X0200126Y0177462D01*
G75*
G02*
X0199545Y0176882I-000581J0000000D01*
G01*
G37*
G36*
G01*
X0201927Y0179205D02*
X0203285Y0179205D01*
G75*
G02*
X0203866Y0178624I0000000J-000581D01*
G01*
X0203866Y0177462D01*
G75*
G02*
X0203285Y0176882I-000581J0000000D01*
G01*
X0201927Y0176882D01*
G75*
G02*
X0201346Y0177462I0000000J0000581D01*
G01*
X0201346Y0178624D01*
G75*
G02*
X0201927Y0179205I0000581J0000000D01*
G01*
G37*
G36*
G01*
X0201927Y0175386D02*
X0203285Y0175386D01*
G75*
G02*
X0203866Y0174805I0000000J-000581D01*
G01*
X0203866Y0173644D01*
G75*
G02*
X0203285Y0173063I-000581J0000000D01*
G01*
X0201927Y0173063D01*
G75*
G02*
X0201346Y0173644I0000000J0000581D01*
G01*
X0201346Y0174805D01*
G75*
G02*
X0201927Y0175386I0000581J0000000D01*
G01*
G37*
G36*
G01*
X0192478Y0118968D02*
X0193837Y0118968D01*
G75*
G02*
X0194417Y0118388I0000000J-000581D01*
G01*
X0194417Y0117226D01*
G75*
G02*
X0193837Y0116646I-000581J0000000D01*
G01*
X0192478Y0116646D01*
G75*
G02*
X0191898Y0117226I0000000J0000581D01*
G01*
X0191898Y0118388D01*
G75*
G02*
X0192478Y0118968I0000581J0000000D01*
G01*
G37*
G36*
G01*
X0192478Y0115149D02*
X0193837Y0115149D01*
G75*
G02*
X0194417Y0114569I0000000J-000581D01*
G01*
X0194417Y0113407D01*
G75*
G02*
X0193837Y0112827I-000581J0000000D01*
G01*
X0192478Y0112827D01*
G75*
G02*
X0191898Y0113407I0000000J0000581D01*
G01*
X0191898Y0114569D01*
G75*
G02*
X0192478Y0115149I0000581J0000000D01*
G01*
G37*
G36*
G01*
X0163180Y0125661D02*
X0164539Y0125661D01*
G75*
G02*
X0165119Y0125081I0000000J-000581D01*
G01*
X0165119Y0123919D01*
G75*
G02*
X0164539Y0123338I-000581J0000000D01*
G01*
X0163180Y0123338D01*
G75*
G02*
X0162600Y0123919I0000000J0000581D01*
G01*
X0162600Y0125081D01*
G75*
G02*
X0163180Y0125661I0000581J0000000D01*
G01*
G37*
G36*
G01*
X0163180Y0121842D02*
X0164539Y0121842D01*
G75*
G02*
X0165119Y0121262I0000000J-000581D01*
G01*
X0165119Y0120100D01*
G75*
G02*
X0164539Y0119520I-000581J0000000D01*
G01*
X0163180Y0119520D01*
G75*
G02*
X0162600Y0120100I0000000J0000581D01*
G01*
X0162600Y0121262D01*
G75*
G02*
X0163180Y0121842I0000581J0000000D01*
G01*
G37*
G36*
G01*
X0186258Y0153476D02*
X0184900Y0153476D01*
G75*
G02*
X0184319Y0154057I0000000J0000581D01*
G01*
X0184319Y0155218D01*
G75*
G02*
X0184900Y0155799I0000581J0000000D01*
G01*
X0186258Y0155799D01*
G75*
G02*
X0186839Y0155218I0000000J-000581D01*
G01*
X0186839Y0154057D01*
G75*
G02*
X0186258Y0153476I-000581J0000000D01*
G01*
G37*
G36*
G01*
X0186258Y0157295D02*
X0184900Y0157295D01*
G75*
G02*
X0184319Y0157876I0000000J0000581D01*
G01*
X0184319Y0159037D01*
G75*
G02*
X0184900Y0159618I0000581J0000000D01*
G01*
X0186258Y0159618D01*
G75*
G02*
X0186839Y0159037I0000000J-000581D01*
G01*
X0186839Y0157876D01*
G75*
G02*
X0186258Y0157295I-000581J0000000D01*
G01*
G37*
G36*
G01*
X0193837Y0105149D02*
X0192478Y0105149D01*
G75*
G02*
X0191898Y0105730I0000000J0000581D01*
G01*
X0191898Y0106892D01*
G75*
G02*
X0192478Y0107472I0000581J0000000D01*
G01*
X0193837Y0107472D01*
G75*
G02*
X0194417Y0106892I0000000J-000581D01*
G01*
X0194417Y0105730D01*
G75*
G02*
X0193837Y0105149I-000581J0000000D01*
G01*
G37*
G36*
G01*
X0193837Y0108968D02*
X0192478Y0108968D01*
G75*
G02*
X0191898Y0109549I0000000J0000581D01*
G01*
X0191898Y0110710D01*
G75*
G02*
X0192478Y0111291I0000581J0000000D01*
G01*
X0193837Y0111291D01*
G75*
G02*
X0194417Y0110710I0000000J-000581D01*
G01*
X0194417Y0109549D01*
G75*
G02*
X0193837Y0108968I-000581J0000000D01*
G01*
G37*
G36*
G01*
X0178384Y0157610D02*
X0177026Y0157610D01*
G75*
G02*
X0176445Y0158191I0000000J0000581D01*
G01*
X0176445Y0159352D01*
G75*
G02*
X0177026Y0159933I0000581J0000000D01*
G01*
X0178384Y0159933D01*
G75*
G02*
X0178964Y0159352I0000000J-000581D01*
G01*
X0178964Y0158191D01*
G75*
G02*
X0178384Y0157610I-000581J0000000D01*
G01*
G37*
G36*
G01*
X0178384Y0161429D02*
X0177026Y0161429D01*
G75*
G02*
X0176445Y0162010I0000000J0000581D01*
G01*
X0176445Y0163171D01*
G75*
G02*
X0177026Y0163752I0000581J0000000D01*
G01*
X0178384Y0163752D01*
G75*
G02*
X0178964Y0163171I0000000J-000581D01*
G01*
X0178964Y0162010D01*
G75*
G02*
X0178384Y0161429I-000581J0000000D01*
G01*
G37*
G36*
G01*
X0153768Y0168860D02*
X0153768Y0170218D01*
G75*
G02*
X0154348Y0170799I0000581J0000000D01*
G01*
X0155510Y0170799D01*
G75*
G02*
X0156090Y0170218I0000000J-000581D01*
G01*
X0156090Y0168860D01*
G75*
G02*
X0155510Y0168279I-000581J0000000D01*
G01*
X0154348Y0168279D01*
G75*
G02*
X0153768Y0168860I0000000J0000581D01*
G01*
G37*
G36*
G01*
X0157587Y0168860D02*
X0157587Y0170218D01*
G75*
G02*
X0158167Y0170799I0000581J0000000D01*
G01*
X0159329Y0170799D01*
G75*
G02*
X0159909Y0170218I0000000J-000581D01*
G01*
X0159909Y0168860D01*
G75*
G02*
X0159329Y0168279I-000581J0000000D01*
G01*
X0158167Y0168279D01*
G75*
G02*
X0157587Y0168860I0000000J0000581D01*
G01*
G37*
G36*
G01*
X0182321Y0142748D02*
X0180963Y0142748D01*
G75*
G02*
X0180382Y0143329I0000000J0000581D01*
G01*
X0180382Y0144490D01*
G75*
G02*
X0180963Y0145071I0000581J0000000D01*
G01*
X0182321Y0145071D01*
G75*
G02*
X0182902Y0144490I0000000J-000581D01*
G01*
X0182902Y0143329D01*
G75*
G02*
X0182321Y0142748I-000581J0000000D01*
G01*
G37*
G36*
G01*
X0182321Y0146567D02*
X0180963Y0146567D01*
G75*
G02*
X0180382Y0147147I0000000J0000581D01*
G01*
X0180382Y0148309D01*
G75*
G02*
X0180963Y0148890I0000581J0000000D01*
G01*
X0182321Y0148890D01*
G75*
G02*
X0182902Y0148309I0000000J-000581D01*
G01*
X0182902Y0147147D01*
G75*
G02*
X0182321Y0146567I-000581J0000000D01*
G01*
G37*
G36*
G01*
X0180963Y0141409D02*
X0182321Y0141409D01*
G75*
G02*
X0182902Y0140829I0000000J-000581D01*
G01*
X0182902Y0139667D01*
G75*
G02*
X0182321Y0139086I-000581J0000000D01*
G01*
X0180963Y0139086D01*
G75*
G02*
X0180382Y0139667I0000000J0000581D01*
G01*
X0180382Y0140829D01*
G75*
G02*
X0180963Y0141409I0000581J0000000D01*
G01*
G37*
G36*
G01*
X0180963Y0137590D02*
X0182321Y0137590D01*
G75*
G02*
X0182902Y0137010I0000000J-000581D01*
G01*
X0182902Y0135848D01*
G75*
G02*
X0182321Y0135268I-000581J0000000D01*
G01*
X0180963Y0135268D01*
G75*
G02*
X0180382Y0135848I0000000J0000581D01*
G01*
X0180382Y0137010D01*
G75*
G02*
X0180963Y0137590I0000581J0000000D01*
G01*
G37*
G36*
G01*
X0153768Y0172600D02*
X0153768Y0173959D01*
G75*
G02*
X0154348Y0174539I0000581J0000000D01*
G01*
X0155510Y0174539D01*
G75*
G02*
X0156090Y0173959I0000000J-000581D01*
G01*
X0156090Y0172600D01*
G75*
G02*
X0155510Y0172020I-000581J0000000D01*
G01*
X0154348Y0172020D01*
G75*
G02*
X0153768Y0172600I0000000J0000581D01*
G01*
G37*
G36*
G01*
X0157587Y0172600D02*
X0157587Y0173959D01*
G75*
G02*
X0158167Y0174539I0000581J0000000D01*
G01*
X0159329Y0174539D01*
G75*
G02*
X0159909Y0173959I0000000J-000581D01*
G01*
X0159909Y0172600D01*
G75*
G02*
X0159329Y0172020I-000581J0000000D01*
G01*
X0158167Y0172020D01*
G75*
G02*
X0157587Y0172600I0000000J0000581D01*
G01*
G37*
D187*
X0202606Y0183279D03*
X0198866Y0183279D03*
X0195126Y0183279D03*
X0195126Y0193594D03*
X0202606Y0193594D03*
G36*
G01*
X0184900Y0148791D02*
X0186258Y0148791D01*
G75*
G02*
X0186839Y0148210I0000000J-000581D01*
G01*
X0186839Y0147049D01*
G75*
G02*
X0186258Y0146468I-000581J0000000D01*
G01*
X0184900Y0146468D01*
G75*
G02*
X0184319Y0147049I0000000J0000581D01*
G01*
X0184319Y0148210D01*
G75*
G02*
X0184900Y0148791I0000581J0000000D01*
G01*
G37*
G36*
G01*
X0184900Y0144972D02*
X0186258Y0144972D01*
G75*
G02*
X0186839Y0144392I0000000J-000581D01*
G01*
X0186839Y0143230D01*
G75*
G02*
X0186258Y0142649I-000581J0000000D01*
G01*
X0184900Y0142649D01*
G75*
G02*
X0184319Y0143230I0000000J0000581D01*
G01*
X0184319Y0144392D01*
G75*
G02*
X0184900Y0144972I0000581J0000000D01*
G01*
G37*
G36*
G01*
X0189004Y0161380D02*
X0189004Y0162738D01*
G75*
G02*
X0189585Y0163319I0000581J0000000D01*
G01*
X0190746Y0163319D01*
G75*
G02*
X0191327Y0162738I0000000J-000581D01*
G01*
X0191327Y0161380D01*
G75*
G02*
X0190746Y0160799I-000581J0000000D01*
G01*
X0189585Y0160799D01*
G75*
G02*
X0189004Y0161380I0000000J0000581D01*
G01*
G37*
G36*
G01*
X0192823Y0161380D02*
X0192823Y0162738D01*
G75*
G02*
X0193403Y0163319I0000581J0000000D01*
G01*
X0194565Y0163319D01*
G75*
G02*
X0195146Y0162738I0000000J-000581D01*
G01*
X0195146Y0161380D01*
G75*
G02*
X0194565Y0160799I-000581J0000000D01*
G01*
X0193403Y0160799D01*
G75*
G02*
X0192823Y0161380I0000000J0000581D01*
G01*
G37*
G36*
G01*
X0168571Y0170218D02*
X0168571Y0168860D01*
G75*
G02*
X0167990Y0168279I-000581J0000000D01*
G01*
X0166829Y0168279D01*
G75*
G02*
X0166248Y0168860I0000000J0000581D01*
G01*
X0166248Y0170218D01*
G75*
G02*
X0166829Y0170799I0000581J0000000D01*
G01*
X0167990Y0170799D01*
G75*
G02*
X0168571Y0170218I0000000J-000581D01*
G01*
G37*
G36*
G01*
X0164752Y0170218D02*
X0164752Y0168860D01*
G75*
G02*
X0164171Y0168279I-000581J0000000D01*
G01*
X0163010Y0168279D01*
G75*
G02*
X0162429Y0168860I0000000J0000581D01*
G01*
X0162429Y0170218D01*
G75*
G02*
X0163010Y0170799I0000581J0000000D01*
G01*
X0164171Y0170799D01*
G75*
G02*
X0164752Y0170218I0000000J-000581D01*
G01*
G37*
G36*
G01*
X0169526Y0127098D02*
X0168167Y0127098D01*
G75*
G02*
X0167587Y0127679I0000000J0000581D01*
G01*
X0167587Y0128840D01*
G75*
G02*
X0168167Y0129421I0000581J0000000D01*
G01*
X0169526Y0129421D01*
G75*
G02*
X0170106Y0128840I0000000J-000581D01*
G01*
X0170106Y0127679D01*
G75*
G02*
X0169526Y0127098I-000581J0000000D01*
G01*
G37*
G36*
G01*
X0169526Y0130917D02*
X0168167Y0130917D01*
G75*
G02*
X0167587Y0131498I0000000J0000581D01*
G01*
X0167587Y0132659D01*
G75*
G02*
X0168167Y0133240I0000581J0000000D01*
G01*
X0169526Y0133240D01*
G75*
G02*
X0170106Y0132659I0000000J-000581D01*
G01*
X0170106Y0131498D01*
G75*
G02*
X0169526Y0130917I-000581J0000000D01*
G01*
G37*
G36*
G01*
X0169526Y0119520D02*
X0168167Y0119520D01*
G75*
G02*
X0167587Y0120100I0000000J0000581D01*
G01*
X0167587Y0121262D01*
G75*
G02*
X0168167Y0121842I0000581J0000000D01*
G01*
X0169526Y0121842D01*
G75*
G02*
X0170106Y0121262I0000000J-000581D01*
G01*
X0170106Y0120100D01*
G75*
G02*
X0169526Y0119520I-000581J0000000D01*
G01*
G37*
G36*
G01*
X0169526Y0123338D02*
X0168167Y0123338D01*
G75*
G02*
X0167587Y0123919I0000000J0000581D01*
G01*
X0167587Y0125081D01*
G75*
G02*
X0168167Y0125661I0000581J0000000D01*
G01*
X0169526Y0125661D01*
G75*
G02*
X0170106Y0125081I0000000J-000581D01*
G01*
X0170106Y0123919D01*
G75*
G02*
X0169526Y0123338I-000581J0000000D01*
G01*
G37*
G36*
G01*
X0168571Y0173959D02*
X0168571Y0172600D01*
G75*
G02*
X0167990Y0172020I-000581J0000000D01*
G01*
X0166829Y0172020D01*
G75*
G02*
X0166248Y0172600I0000000J0000581D01*
G01*
X0166248Y0173959D01*
G75*
G02*
X0166829Y0174539I0000581J0000000D01*
G01*
X0167990Y0174539D01*
G75*
G02*
X0168571Y0173959I0000000J-000581D01*
G01*
G37*
G36*
G01*
X0164752Y0173959D02*
X0164752Y0172600D01*
G75*
G02*
X0164171Y0172020I-000581J0000000D01*
G01*
X0163010Y0172020D01*
G75*
G02*
X0162429Y0172600I0000000J0000581D01*
G01*
X0162429Y0173959D01*
G75*
G02*
X0163010Y0174539I0000581J0000000D01*
G01*
X0164171Y0174539D01*
G75*
G02*
X0164752Y0173959I0000000J-000581D01*
G01*
G37*
G36*
G01*
X0178384Y0139598D02*
X0177026Y0139598D01*
G75*
G02*
X0176445Y0140179I0000000J0000581D01*
G01*
X0176445Y0141340D01*
G75*
G02*
X0177026Y0141921I0000581J0000000D01*
G01*
X0178384Y0141921D01*
G75*
G02*
X0178964Y0141340I0000000J-000581D01*
G01*
X0178964Y0140179D01*
G75*
G02*
X0178384Y0139598I-000581J0000000D01*
G01*
G37*
G36*
G01*
X0178384Y0143417D02*
X0177026Y0143417D01*
G75*
G02*
X0176445Y0143998I0000000J0000581D01*
G01*
X0176445Y0145159D01*
G75*
G02*
X0177026Y0145740I0000581J0000000D01*
G01*
X0178384Y0145740D01*
G75*
G02*
X0178964Y0145159I0000000J-000581D01*
G01*
X0178964Y0143998D01*
G75*
G02*
X0178384Y0143417I-000581J0000000D01*
G01*
G37*
G36*
G01*
X0168571Y0177699D02*
X0168571Y0176340D01*
G75*
G02*
X0167990Y0175760I-000581J0000000D01*
G01*
X0166829Y0175760D01*
G75*
G02*
X0166248Y0176340I0000000J0000581D01*
G01*
X0166248Y0177699D01*
G75*
G02*
X0166829Y0178279I0000581J0000000D01*
G01*
X0167990Y0178279D01*
G75*
G02*
X0168571Y0177699I0000000J-000581D01*
G01*
G37*
G36*
G01*
X0164752Y0177699D02*
X0164752Y0176340D01*
G75*
G02*
X0164171Y0175760I-000581J0000000D01*
G01*
X0163010Y0175760D01*
G75*
G02*
X0162429Y0176340I0000000J0000581D01*
G01*
X0162429Y0177699D01*
G75*
G02*
X0163010Y0178279I0000581J0000000D01*
G01*
X0164171Y0178279D01*
G75*
G02*
X0164752Y0177699I0000000J-000581D01*
G01*
G37*
G36*
G01*
X0159909Y0177699D02*
X0159909Y0176340D01*
G75*
G02*
X0159329Y0175760I-000581J0000000D01*
G01*
X0158167Y0175760D01*
G75*
G02*
X0157587Y0176340I0000000J0000581D01*
G01*
X0157587Y0177699D01*
G75*
G02*
X0158167Y0178279I0000581J0000000D01*
G01*
X0159329Y0178279D01*
G75*
G02*
X0159909Y0177699I0000000J-000581D01*
G01*
G37*
G36*
G01*
X0156090Y0177699D02*
X0156090Y0176340D01*
G75*
G02*
X0155510Y0175760I-000581J0000000D01*
G01*
X0154348Y0175760D01*
G75*
G02*
X0153768Y0176340I0000000J0000581D01*
G01*
X0153768Y0177699D01*
G75*
G02*
X0154348Y0178279I0000581J0000000D01*
G01*
X0155510Y0178279D01*
G75*
G02*
X0156090Y0177699I0000000J-000581D01*
G01*
G37*
G36*
G01*
X0165716Y0192512D02*
X0167055Y0192512D01*
G75*
G02*
X0167606Y0191961I0000000J-000551D01*
G01*
X0167606Y0190858D01*
G75*
G02*
X0167055Y0190307I-000551J0000000D01*
G01*
X0165716Y0190307D01*
G75*
G02*
X0165165Y0190858I0000000J0000551D01*
G01*
X0165165Y0191961D01*
G75*
G02*
X0165716Y0192512I0000551J0000000D01*
G01*
G37*
G36*
G01*
X0165716Y0188732D02*
X0167055Y0188732D01*
G75*
G02*
X0167606Y0188181I0000000J-000551D01*
G01*
X0167606Y0187079D01*
G75*
G02*
X0167055Y0186528I-000551J0000000D01*
G01*
X0165716Y0186528D01*
G75*
G02*
X0165165Y0187079I0000000J0000551D01*
G01*
X0165165Y0188181D01*
G75*
G02*
X0165716Y0188732I0000551J0000000D01*
G01*
G37*
G36*
G01*
X0191976Y0137571D02*
X0190520Y0137571D01*
G75*
G02*
X0189988Y0138102I0000000J0000531D01*
G01*
X0189988Y0139165D01*
G75*
G02*
X0190520Y0139697I0000531J0000000D01*
G01*
X0191976Y0139697D01*
G75*
G02*
X0192508Y0139165I0000000J-000531D01*
G01*
X0192508Y0138102D01*
G75*
G02*
X0191976Y0137571I-000531J0000000D01*
G01*
G37*
G36*
G01*
X0191976Y0141586D02*
X0190520Y0141586D01*
G75*
G02*
X0189988Y0142118I0000000J0000531D01*
G01*
X0189988Y0143181D01*
G75*
G02*
X0190520Y0143712I0000531J0000000D01*
G01*
X0191976Y0143712D01*
G75*
G02*
X0192508Y0143181I0000000J-000531D01*
G01*
X0192508Y0142118D01*
G75*
G02*
X0191976Y0141586I-000531J0000000D01*
G01*
G37*
G36*
G01*
X0177443Y0198299D02*
X0177443Y0199756D01*
G75*
G02*
X0177975Y0200287I0000531J0000000D01*
G01*
X0179038Y0200287D01*
G75*
G02*
X0179569Y0199756I0000000J-000531D01*
G01*
X0179569Y0198299D01*
G75*
G02*
X0179038Y0197768I-000531J0000000D01*
G01*
X0177975Y0197768D01*
G75*
G02*
X0177443Y0198299I0000000J0000531D01*
G01*
G37*
G36*
G01*
X0181459Y0198299D02*
X0181459Y0199756D01*
G75*
G02*
X0181991Y0200287I0000531J0000000D01*
G01*
X0183054Y0200287D01*
G75*
G02*
X0183585Y0199756I0000000J-000531D01*
G01*
X0183585Y0198299D01*
G75*
G02*
X0183054Y0197768I-000531J0000000D01*
G01*
X0181991Y0197768D01*
G75*
G02*
X0181459Y0198299I0000000J0000531D01*
G01*
G37*
G36*
G01*
X0153492Y0197689D02*
X0154673Y0197689D01*
G75*
G02*
X0155264Y0197098I0000000J-000591D01*
G01*
X0155264Y0192472D01*
G75*
G02*
X0154673Y0191882I-000591J0000000D01*
G01*
X0153492Y0191882D01*
G75*
G02*
X0152902Y0192472I0000000J0000591D01*
G01*
X0152902Y0197098D01*
G75*
G02*
X0153492Y0197689I0000591J0000000D01*
G01*
G37*
G36*
G01*
X0160972Y0197689D02*
X0162153Y0197689D01*
G75*
G02*
X0162744Y0197098I0000000J-000591D01*
G01*
X0162744Y0192472D01*
G75*
G02*
X0162153Y0191882I-000591J0000000D01*
G01*
X0160972Y0191882D01*
G75*
G02*
X0160382Y0192472I0000000J0000591D01*
G01*
X0160382Y0197098D01*
G75*
G02*
X0160972Y0197689I0000591J0000000D01*
G01*
G37*
G36*
G01*
X0157232Y0190307D02*
X0158413Y0190307D01*
G75*
G02*
X0159004Y0189716I0000000J-000591D01*
G01*
X0159004Y0185090D01*
G75*
G02*
X0158413Y0184500I-000591J0000000D01*
G01*
X0157232Y0184500D01*
G75*
G02*
X0156642Y0185090I0000000J0000591D01*
G01*
X0156642Y0189716D01*
G75*
G02*
X0157232Y0190307I0000591J0000000D01*
G01*
G37*
G36*
G01*
X0191424Y0199736D02*
X0191424Y0198397D01*
G75*
G02*
X0190872Y0197846I-000551J0000000D01*
G01*
X0189770Y0197846D01*
G75*
G02*
X0189219Y0198397I0000000J0000551D01*
G01*
X0189219Y0199736D01*
G75*
G02*
X0189770Y0200287I0000551J0000000D01*
G01*
X0190872Y0200287D01*
G75*
G02*
X0191424Y0199736I0000000J-000551D01*
G01*
G37*
G36*
G01*
X0187644Y0199736D02*
X0187644Y0198397D01*
G75*
G02*
X0187093Y0197846I-000551J0000000D01*
G01*
X0185991Y0197846D01*
G75*
G02*
X0185439Y0198397I0000000J0000551D01*
G01*
X0185439Y0199736D01*
G75*
G02*
X0185991Y0200287I0000551J0000000D01*
G01*
X0187093Y0200287D01*
G75*
G02*
X0187644Y0199736I0000000J-000551D01*
G01*
G37*
G36*
G01*
X0188353Y0168949D02*
X0187172Y0168949D01*
G75*
G02*
X0186581Y0169539I0000000J0000591D01*
G01*
X0186581Y0175248D01*
G75*
G02*
X0187172Y0175838I0000591J0000000D01*
G01*
X0188353Y0175838D01*
G75*
G02*
X0188943Y0175248I0000000J-000591D01*
G01*
X0188943Y0169539D01*
G75*
G02*
X0188353Y0168949I-000591J0000000D01*
G01*
G37*
G36*
G01*
X0183353Y0168949D02*
X0182172Y0168949D01*
G75*
G02*
X0181581Y0169539I0000000J0000591D01*
G01*
X0181581Y0175248D01*
G75*
G02*
X0182172Y0175838I0000591J0000000D01*
G01*
X0183353Y0175838D01*
G75*
G02*
X0183943Y0175248I0000000J-000591D01*
G01*
X0183943Y0169539D01*
G75*
G02*
X0183353Y0168949I-000591J0000000D01*
G01*
G37*
G36*
G01*
X0178353Y0168949D02*
X0177172Y0168949D01*
G75*
G02*
X0176581Y0169539I0000000J0000591D01*
G01*
X0176581Y0175248D01*
G75*
G02*
X0177172Y0175838I0000591J0000000D01*
G01*
X0178353Y0175838D01*
G75*
G02*
X0178943Y0175248I0000000J-000591D01*
G01*
X0178943Y0169539D01*
G75*
G02*
X0178353Y0168949I-000591J0000000D01*
G01*
G37*
G36*
G01*
X0173353Y0168949D02*
X0172172Y0168949D01*
G75*
G02*
X0171581Y0169539I0000000J0000591D01*
G01*
X0171581Y0175248D01*
G75*
G02*
X0172172Y0175838I0000591J0000000D01*
G01*
X0173353Y0175838D01*
G75*
G02*
X0173943Y0175248I0000000J-000591D01*
G01*
X0173943Y0169539D01*
G75*
G02*
X0173353Y0168949I-000591J0000000D01*
G01*
G37*
G36*
G01*
X0173353Y0189224D02*
X0172172Y0189224D01*
G75*
G02*
X0171581Y0189815I0000000J0000591D01*
G01*
X0171581Y0195523D01*
G75*
G02*
X0172172Y0196114I0000591J0000000D01*
G01*
X0173353Y0196114D01*
G75*
G02*
X0173943Y0195523I0000000J-000591D01*
G01*
X0173943Y0189815D01*
G75*
G02*
X0173353Y0189224I-000591J0000000D01*
G01*
G37*
G36*
G01*
X0178353Y0189224D02*
X0177172Y0189224D01*
G75*
G02*
X0176581Y0189815I0000000J0000591D01*
G01*
X0176581Y0195523D01*
G75*
G02*
X0177172Y0196114I0000591J0000000D01*
G01*
X0178353Y0196114D01*
G75*
G02*
X0178943Y0195523I0000000J-000591D01*
G01*
X0178943Y0189815D01*
G75*
G02*
X0178353Y0189224I-000591J0000000D01*
G01*
G37*
G36*
G01*
X0183353Y0189224D02*
X0182172Y0189224D01*
G75*
G02*
X0181581Y0189815I0000000J0000591D01*
G01*
X0181581Y0195523D01*
G75*
G02*
X0182172Y0196114I0000591J0000000D01*
G01*
X0183353Y0196114D01*
G75*
G02*
X0183943Y0195523I0000000J-000591D01*
G01*
X0183943Y0189815D01*
G75*
G02*
X0183353Y0189224I-000591J0000000D01*
G01*
G37*
G36*
G01*
X0188353Y0189224D02*
X0187172Y0189224D01*
G75*
G02*
X0186581Y0189815I0000000J0000591D01*
G01*
X0186581Y0195523D01*
G75*
G02*
X0187172Y0196114I0000591J0000000D01*
G01*
X0188353Y0196114D01*
G75*
G02*
X0188943Y0195523I0000000J-000591D01*
G01*
X0188943Y0189815D01*
G75*
G02*
X0188353Y0189224I-000591J0000000D01*
G01*
G37*
X0161205Y0293199D02*
%LPD*%
G01*
D10*
X0188370Y0234931D03*
X0183646Y0234931D03*
X0193095Y0234931D03*
X0197819Y0234931D03*
X0172386Y0291723D03*
X0168449Y0291723D03*
X0144606Y0269307D02*
G01*
G75*
D173*
X0154842Y0233874D02*
D03*
X0151102Y0233874D02*
D03*
X0147362Y0233874D02*
D03*
X0151299Y0268126D02*
D03*
X0154842Y0268126D02*
D03*
D215*
X0154842Y0241354D02*
D03*
X0154842Y0237417D02*
D03*
X0154842Y0252477D02*
D03*
X0154842Y0256414D02*
D03*
X0154842Y0260843D02*
D03*
X0154842Y0264780D02*
D03*
X0147559Y0241354D02*
D03*
X0147559Y0237417D02*
D03*
D216*
X0147362Y0244739D02*
D03*
X0150905Y0244739D02*
D03*
D217*
X0154075Y0248624D02*
D03*
X0147854Y0248624D02*
D03*
D218*
X0150905Y0261236D02*
D03*
X0150905Y0264779D02*
D03*
X0147362Y0252870D02*
D03*
X0147362Y0256413D02*
D03*
X0150963Y0238008D02*
D03*
X0150963Y0241551D02*
D03*
X0147362Y0264779D02*
D03*
X0147362Y0261236D02*
D03*
M02*
