M48
; DRILL file {KiCad 8.0.9-8.0.9-0~ubuntu24.04.1} date 2025-09-17T02:38:14+0000
; FORMAT={2:4/ absolute / inch / suppress leading zeros}
; #@! TF.CreationDate,2025-09-17T02:38:14+00:00
; #@! TF.GenerationSoftware,Kicad,Pcbnew,8.0.9-8.0.9-0~ubuntu24.04.1
; #@! TF.FileFunction,MixedPlating,1,4
FMAT,2
INCH,TZ
; #@! TA.AperFunction,Plated,PTH,ComponentDrill
T1C0.0118
; #@! TA.AperFunction,Plated,PTH,ViaDrill
T2C0.0118
; #@! TA.AperFunction,Plated,PTH,ComponentDrill
T3C0.0118
; #@! TA.AperFunction,Plated,PTH,ComponentDrill
T4C0.0197
; #@! TA.AperFunction,Plated,PTH,ComponentDrill
T5C0.0362
; #@! TA.AperFunction,Plated,PTH,ComponentDrill
T6C0.0394
; #@! TA.AperFunction,Plated,PTH,ComponentDrill
T7C0.0450
; #@! TA.AperFunction,Plated,PTH,ComponentDrill
T8C0.0709
; #@! TA.AperFunction,Plated,PTH,ComponentDrill
T9C0.0917
; #@! TA.AperFunction,Plated,PTH,ComponentDrill
T10C0.1260
; #@! TA.AperFunction,Plated,PTH,ComponentDrill
T11C0.1400
; #@! TA.AperFunction,NonPlated,NPTH,ComponentDrill
T12C0.1181
%
G90
G05
T1
X23168Y4200
X24566Y4230
X24861Y3767
X25068Y4112
T2
X963Y4770
X1363Y12170
X1563Y14670
X1663Y28770
X1663Y25670
X1763Y33570
X1763Y30370
X1763Y23370
X1763Y21970
X1763Y20470
X1863Y17370
X2363Y12270
X2963Y35270
X3263Y23570
X3263Y20570
X3263Y12170
X3763Y36270
X3763Y31470
X3763Y29770
X3763Y15470
X3803Y28196
X3963Y4870
X4263Y12170
X4863Y16570
X5463Y36470
X5463Y32970
X5463Y24570
X5463Y13870
X5535Y31257
X5563Y29570
X5563Y22070
X5587Y28052
X5663Y3370
X5667Y26370
X5763Y18670
X5963Y12070
X6063Y4870
X6163Y12370
X6463Y12070
X7363Y37570
X7663Y3870
X7763Y30570
X7763Y29570
X7863Y38470
X7863Y37470
X7863Y27470
X7865Y26362
X7960Y31888
X8173Y17450
X8563Y29170
X8739Y35670
X8763Y10670
X8763Y9770
X8863Y12870
X9034Y36575
X9063Y17670
X9063Y7170
X9063Y5570
X9160Y29567
X9163Y30570
X9163Y27470
X9163Y26370
X9163Y4070
X9363Y36570
X9463Y38470
X9463Y37470
X9663Y15270
X9962Y32780
X10003Y8160
X10054Y33179
X10063Y23270
X10063Y22770
X10063Y21470
X10063Y20770
X10063Y19870
X10963Y6270
X10963Y4970
X11060Y4567
X11263Y3306
X11463Y30570
X11563Y37370
X11863Y7170
X11963Y31354
X11963Y30470
X11963Y26370
X12025Y28610
X12063Y29570
X12063Y27470
X12163Y32970
X12363Y38470
X12463Y36470
X12583Y4350
X12584Y31072
X12863Y38970
X13063Y25770
X13163Y38670
X13423Y7290
X13653Y4510
X13713Y7006
X13763Y36470
X13763Y30770
X13763Y29270
X13963Y33070
X14063Y34070
X14263Y27270
X14463Y5410
X15163Y30870
X15363Y37270
X15393Y6310
X15463Y33370
X15863Y28570
X15893Y4530
X16153Y7080
X16453Y1900
X16833Y6050
X17263Y38970
X17363Y37870
X17435Y35681
X17563Y32370
X17563Y24070
X17643Y7210
X17952Y24119
X18263Y24070
X18363Y36470
X18523Y3060
X18523Y1850
X18625Y26806
X18663Y31770
X18663Y30270
X18663Y28593
X18773Y7200
X18863Y38870
X18863Y37970
X19283Y3610
X19363Y26070
X19663Y35670
X20073Y3790
X20363Y32370
X20463Y26070
X20942Y36970
X21413Y7310
X21572Y24111
X21963Y35670
X21963Y32370
X22793Y7340
X22863Y31570
X22863Y29170
X22863Y26970
X22963Y33670
X23263Y32370
X24202Y33454
X24363Y35670
X24463Y32370
X24963Y7370
X25563Y35670
X25763Y32370
X26063Y23770
X26163Y7370
X26763Y35670
X26963Y5270
X27063Y31870
X27063Y29770
X27063Y27970
X27063Y26770
X27063Y23170
X27063Y22570
X27063Y21470
X27063Y19770
X27063Y18870
X27063Y17570
X27063Y10770
X27063Y8170
X27469Y13792
X27563Y11970
X27963Y35670
X28052Y23170
X28163Y22870
X28202Y23570
X28263Y18870
X28363Y26670
X28363Y16270
X28520Y32821
X28563Y30570
X29002Y27979
X29053Y360
X29353Y7760
X29453Y10660
X29453Y5160
X29453Y3360
X29463Y17270
X29713Y14570
X29963Y33770
X29963Y23570
X29963Y22370
X29963Y20670
X30563Y33170
X30563Y31970
X30563Y30770
X30563Y29570
X31563Y31470
X31563Y30170
X31563Y15070
X31663Y12870
X33023Y940
X33763Y33470
X33763Y29870
X33763Y25870
X33763Y24370
X33763Y20970
X33763Y18070
X33863Y34970
X33863Y31670
X33863Y28370
X33863Y14970
X33963Y22570
X35563Y2990
X35827Y8324
X35843Y10830
X35943Y5830
X35963Y33270
X35963Y32170
X35963Y29170
X36063Y30170
X36063Y340
X36263Y17270
X36263Y15470
X37243Y3170
X37463Y32170
X37463Y30170
X37563Y33170
X37563Y29170
X37608Y21726
X37611Y23022
X37743Y10560
X37783Y12810
X37850Y15505
X37963Y33570
X38098Y21111
X38200Y32570
X38200Y23570
X38344Y25624
X38363Y28670
X38363Y26593
X38436Y24370
X38682Y18759
X38813Y4910
X38863Y26070
X38863Y22670
X39033Y2800
X39083Y8340
X39163Y28770
X39163Y27970
T3
X1631Y5257
X2025Y5257
X10306Y22430
X10306Y19478
X10306Y19163
X10306Y18848
X10306Y18533
X10306Y18218
X10306Y17588
X10306Y17273
X10306Y16958
X10306Y16643
X10306Y16328
X10306Y16013
X10306Y15698
X10306Y15383
X10306Y15068
X10306Y14753
X10306Y13808
X10306Y13493
X10306Y13178
X10306Y11919
X10306Y11604
X10306Y11289
X10306Y10974
X10306Y10029
X10306Y9714
X10306Y9399
X10306Y9084
X10306Y8769
X10306Y7745
X10306Y22115
X10306Y17903
X10306Y14438
X10306Y14123
X10306Y12863
X10306Y12548
X10306Y12233
X10306Y10659
X10306Y10344
X10542Y23296
X10620Y7745
X10935Y7745
X11014Y23296
X11250Y7745
X11487Y23296
X11565Y7745
X11880Y7745
X11959Y23296
X12195Y7745
X12432Y23296
X12510Y7745
X12825Y7745
X12865Y23296
X13140Y7745
X13337Y23296
X13455Y7745
X13770Y7745
X13809Y23296
X14085Y7745
X14282Y23296
X14400Y7745
X14715Y7745
X14754Y23296
X15030Y7745
X15227Y23296
X15345Y7745
X15660Y7745
X15699Y23296
X15975Y7745
X16172Y23296
X16290Y7745
X16605Y7745
X16644Y23296
X16920Y7745
X17117Y23296
X17235Y7745
X17589Y23296
X18061Y23296
X18534Y23296
X19006Y23296
X19400Y7745
X19477Y32065
X19479Y23296
X19715Y7745
X19871Y32065
X19951Y23296
X20030Y7745
X20345Y7745
X20424Y23296
X20660Y7745
X20896Y23296
X20997Y26386
X21369Y23296
X21469Y26386
X21841Y23296
X21942Y26386
X22313Y23296
X22414Y26386
X22786Y23296
X23258Y23296
X23731Y23296
X23731Y7745
X23808Y32065
X24046Y7745
X24202Y32065
X24203Y23296
X24361Y7745
X24676Y23296
X25148Y23296
X25328Y26386
X25620Y23296
X25800Y26386
X26272Y26386
X26565Y23296
X26723Y19399
X26723Y16643
X26723Y16249
X26723Y15856
X26723Y15462
X26723Y15068
X26723Y14674
X26723Y14281
X26723Y13887
X26723Y7745
X26723Y17037
X26723Y13493
X26723Y13100
X26723Y12706
X26723Y12312
X26723Y11919
X26723Y11525
X26723Y22312
X26723Y21919
X26745Y26386
X30433Y23583
X30433Y20157
X30580Y1796
X30787Y20157
X30807Y23583
X30973Y1796
X31181Y23583
X31367Y1796
X32265Y1796
X32665Y1796
X33592Y12265
X33985Y12265
X34379Y12265
X34773Y12265
T4
X630Y37795
X630Y1575
X907Y38463
X907Y37127
X907Y2243
X907Y907
X1575Y38740
X1575Y36850
X1575Y2520
X1575Y630
X2243Y38463
X2243Y37127
X2243Y2243
X2243Y907
X2520Y37795
X2520Y1575
X36850Y37795
X36850Y1575
X37127Y38463
X37127Y37127
X37127Y2243
X37127Y907
X37795Y38740
X37795Y36850
X37795Y2520
X37795Y630
X38463Y38463
X38463Y37127
X38463Y2243
X38463Y907
X38740Y37795
X38740Y1575
T5
X12163Y5957
X12163Y5170
X13148Y5957
X13148Y5170
T6
X509Y5434
X686Y11536
X2970Y5434
X4663Y5434
X5411Y5434
X5430Y11536
X7379Y11536
X7930Y5434
X8108Y11536
X19513Y1810
X19513Y810
X20513Y1810
X20513Y810
X21513Y1810
X21513Y810
X26563Y670
X27563Y670
X37323Y8410
X37323Y7410
X37323Y6410
X38323Y8410
X38323Y7410
X38323Y6410
T7
X4831Y36070
X4831Y34298
X6012Y36070
X6012Y34298
X7193Y36070
X7193Y34298
X8375Y36070
X8375Y34298
X9556Y36070
X9556Y34298
X10737Y36070
X10737Y34298
X11918Y36070
X11918Y34298
X13099Y36070
X13099Y34298
X15539Y36070
X15539Y34298
X16720Y36070
X16720Y34298
X17901Y36070
X17901Y34298
X19082Y36070
X19082Y34298
X20263Y36070
X20263Y34298
X21445Y36070
X21445Y34298
X22626Y36070
X22626Y34298
X23807Y36070
X23807Y34298
X24988Y36070
X24988Y34298
X26169Y36070
X26169Y34298
X27350Y36070
X27350Y34298
X28531Y36070
X28531Y34298
X29712Y36070
X29712Y34298
T8
X4449Y32283
X4449Y30630
X4449Y28976
X4449Y27323
X4449Y24567
X4449Y22913
X4449Y21260
X4449Y19606
X6614Y32283
X6614Y30630
X6614Y28976
X6614Y27323
X6614Y24567
X6614Y22913
X6614Y21260
X6614Y19606
X32756Y35039
X32756Y33386
X32756Y31732
X32756Y30079
X32756Y28425
X32756Y26772
X32756Y25118
X32756Y23465
X32756Y21811
X32756Y20157
X32756Y17470
X32756Y15817
X32756Y14163
X34921Y35039
X34921Y33386
X34921Y31732
X34921Y30079
X34921Y28425
X34921Y26772
X34921Y25118
X34921Y23465
X34921Y21811
X34921Y20157
X34921Y17470
X34921Y15817
X34921Y14163
T9
X10285Y4103
X15026Y4103
T10
X1575Y37795
X1575Y1575
X37795Y37795
X37795Y1575
T11
X4831Y38320
X14381Y38320
X30701Y38320
T12
X1575Y32283
X1575Y27323
X1575Y24567
X1575Y19606
X37795Y35039
X37795Y20157
X37795Y17470
X37795Y14163
M30
